<?xml version="1.0" encoding="UTF-8" standalone="no"?>
<svg xmlns="http://www.w3.org/2000/svg" xmlns:xlink="http://www.w3.org/1999/xlink" width="1000" height="800">
<image href="https://hatscripts.github.io/circle-flags/flags/ar.svg" x="10" y="70" width="48" height="48" alt="Argentina"/>
<image href="https://hatscripts.github.io/circle-flags/flags/br.svg" x="70" y="70" width="48" height="48" alt="Brazil"/>
<image href="https://hatscripts.github.io/circle-flags/flags/ca.svg" x="130" y="70" width="48" height="48" alt="Canada"/>
<image href="https://hatscripts.github.io/circle-flags/flags/cl.svg" x="190" y="70" width="48" height="48" alt="Chile"/>
<image href="https://hatscripts.github.io/circle-flags/flags/cn.svg" x="250" y="70" width="48" height="48" alt="China" />
<image href="https://hatscripts.github.io/circle-flags/flags/co.svg" x="310" y="70" width="48" height="48" alt="Colombia" />
<image href="https://hatscripts.github.io/circle-flags/flags/hr.svg" x="370" y="70" width="48" height="48" alt="Croatia" />
<image href="https://hatscripts.github.io/circle-flags/flags/cd.svg" x="430" y="70" width="48" height="48" alt="Democratic Republic of the Congo"/>
<image href="https://hatscripts.github.io/circle-flags/flags/dk.svg" x="490" y="70" width="48" height="48" alt="Denmark"/>
<image href="https://hatscripts.github.io/circle-flags/flags/eg.svg" x="550" y="70" width="48" height="48" alt="Egypt"/>
<image href="https://hatscripts.github.io/circle-flags/flags/fr.svg" x="610" y="70" width="48" height="48" alt="France" />
<image href="https://hatscripts.github.io/circle-flags/flags/de.svg" x="670" y="70" width="48" height="48" alt="Germany" />
<image href="https://hatscripts.github.io/circle-flags/flags/hk.svg" x="10" y="130" width="48" height="48" alt="Hong Kong" />
<image href="https://hatscripts.github.io/circle-flags/flags/in.svg" x="70" y="130" width="48" height="48" alt="India" />
<image href="https://hatscripts.github.io/circle-flags/flags/id.svg" x="130" y="130" width="48" height="48" alt="Indonesia" />
<image href="https://hatscripts.github.io/circle-flags/flags/kr.svg" x="190" y="130" width="48" height="48" alt="Korea Republic" />
<image href="https://hatscripts.github.io/circle-flags/flags/mn.svg" x="250" y="130" width="48" height="48" alt="Mongolia" />
<image href="https://hatscripts.github.io/circle-flags/flags/nl.svg" x="310" y="130" width="48" height="48" alt="Netherlands" />
<image href="https://hatscripts.github.io/circle-flags/flags/nz.svg" x="370" y="130" width="48" height="48" alt="New Zealand" />
<image href="https://hatscripts.github.io/circle-flags/flags/ng.svg" x="430" y="130" width="48" height="48" alt="Nigeria" />
<image href="https://hatscripts.github.io/circle-flags/flags/pl.svg" x="490" y="130" width="48" height="48" alt="Poland" />
<image href="https://hatscripts.github.io/circle-flags/flags/ph.svg" x="550" y="130" width="48" height="48" alt="Philippines" />
<image href="https://hatscripts.github.io/circle-flags/flags/ro.svg" x="610" y="130" width="48" height="48" alt="Romania" />
<image href="https://hatscripts.github.io/circle-flags/flags/ru.svg" x="670" y="130" width="48" height="48" alt="Russian Federation" />
<image href="https://hatscripts.github.io/circle-flags/flags/rs.svg" x="10" y="190" width="48" height="48" alt="Serbia" />
<image href="https://hatscripts.github.io/circle-flags/flags/sl.svg" x="70" y="190" width="48" height="48" alt="Sierra Leone" />
<image href="https://hatscripts.github.io/circle-flags/flags/za.svg" x="130" y="190" width="48" height="48" alt="South Africa" />
<image href="https://hatscripts.github.io/circle-flags/flags/es.svg" x="190" y="190" width="48" height="48" alt="Spain" />
<image href="https://hatscripts.github.io/circle-flags/flags/se.svg" x="250" y="190" width="48" height="48" alt="Sweden" />
<image href="https://hatscripts.github.io/circle-flags/flags/ch.svg" x="310" y="190" width="48" height="48" alt="Switzerland" />
<image href="https://hatscripts.github.io/circle-flags/flags/tg.svg" x="370" y="190" width="48" height="48" alt="Togo" />
<image href="https://hatscripts.github.io/circle-flags/flags/tr.svg" x="430" y="190" width="48" height="48" alt="Turkey" />
<image href="https://hatscripts.github.io/circle-flags/flags/ae.svg" x="490" y="190" width="48" height="48" alt="United Arab Emirates" />
<image href="https://hatscripts.github.io/circle-flags/flags/us.svg" x="550" y="190" width="48" height="48" alt="United States" />
<image href="https://hatscripts.github.io/circle-flags/flags/vn.svg" x="610" y="190" width="48" height="48" alt="Viet Nam" />
</svg>
