<svg width="256" height="256" viewBox="0 0 256 256" fill="none" xmlns="http://www.w3.org/2000/svg">
<path d="M98.7029 233.665C52.8241 233.735 9.58962 195.055 1.44724 145.875C-7.93037 89.2894 29.1974 35.7291 85.776 24.9161C111.665 19.979 136.005 24.7075 158.918 37.6587C166.695 42.0569 167.565 51.2531 161.945 56.9725C154.673 64.3782 151.489 73.4701 152.22 83.9006C152.986 94.8349 158.083 103.319 166.678 109.872C168.017 110.898 169.496 111.715 170.923 112.62C178.717 117.522 178.735 127.639 170.819 132.437C166.086 135.306 161.893 138.678 158.675 143.198C147.87 158.339 150.532 178.905 164.869 190.813C165.964 191.717 167.078 192.639 168.296 193.369C174.907 197.35 175.621 207.676 168.418 212.77C161.928 217.341 155.23 221.531 147.958 224.73C134.37 230.71 120.138 233.752 98.7029 233.682V233.665ZM106.01 75.9387C106.114 68.2896 99.7293 61.7184 92.0399 61.5794C84.4364 61.4402 77.7907 67.9072 77.6687 75.5562C77.5467 83.1183 84.0538 89.8116 91.6566 89.95C99.2247 90.0892 105.906 83.5529 106.01 75.9387ZM52.0064 99.6851C44.299 99.7205 37.8095 106.204 37.8964 113.836C37.9834 121.416 44.6818 128.004 52.2151 127.917C59.8529 127.83 66.3251 121.259 66.2729 113.628C66.2207 105.909 59.8355 99.6505 52.0238 99.6851H52.0064ZM65.2464 179.549C72.8668 179.618 79.4437 173.133 79.4956 165.485C79.5476 157.801 73.1278 151.282 65.4552 151.212C57.8522 151.142 51.2234 157.644 51.1539 165.276C51.0669 172.821 57.6608 179.479 65.2464 179.549ZM127.967 190.483C128.419 184.294 123.339 176.541 113.996 176.28C106.393 176.072 99.9213 182.73 99.8686 190.431C99.8166 198.132 106.202 204.53 113.961 204.547C121.791 204.564 127.967 198.358 127.967 190.483ZM107.941 116.061C100.095 116.061 93.8668 122.233 93.8487 130.073C93.8314 137.792 100.252 144.276 107.907 144.276C115.545 144.276 122.069 137.739 122.087 130.108C122.087 122.355 115.771 116.079 107.941 116.061Z" fill="#182FFF"/>
<path d="M220.247 161.399C220.195 170.3 213.304 176.941 204.258 176.819C195.855 176.715 188.756 169.813 188.895 161.417C189.051 152.011 195.662 145.771 204.623 145.476C213.252 145.18 220.298 152.551 220.247 161.399Z" fill="#182FFF"/>
<path d="M242.516 134.767C235.087 134.732 229.119 128.699 229.224 121.346C229.328 113.976 235.521 107.873 242.724 108.047C250.223 108.238 256.086 114.219 255.999 121.555C255.912 128.995 249.997 134.802 242.498 134.749L242.516 134.767Z" fill="#182FFF"/>
<path d="M202.31 95.2178C194.811 95.2525 188.844 89.4459 188.808 82.0579C188.773 74.687 194.706 68.7938 202.188 68.7764C209.79 68.759 215.567 74.4436 215.567 81.9536C215.567 89.5505 209.93 95.1832 202.31 95.2178Z" fill="#182FFF"/>
</svg>
