<?xml version="1.0" encoding="UTF-8"?><svg id="Camada_2" xmlns="http://www.w3.org/2000/svg" viewBox="0 0 1280 640"><defs><style>.cls-1{font-size:60px;}.cls-1,.cls-2,.cls-3,.cls-4{fill:#35363e;}.cls-1,.cls-3,.cls-4{font-family:Poppins-Medium, Poppins;}.cls-5{fill:#fff;}.cls-6{fill:#e8e8e8;}.cls-7{fill:#1601ff;}.cls-2{font-family:Poppins-SemiBold, Poppins;}.cls-2,.cls-4{font-size:24px;}.cls-3{font-size:124px;}.cls-8{opacity:.6;}</style></defs><g id="Camada_1-2"><rect class="cls-5" width="1280" height="640"/><g id="sl5Yl2.tif" class="cls-8"><path class="cls-6" d="M1116.62,640h-5.54c-6.66-2.87-8.66-8.07-8.65-15.08,.03-24.15-.03-48.3-.73-72.44-.31-10.78-4.17-20.74-11.28-29.17-1.04-1.23-2.13-2.42-3.47-3.94,1.21-.21,1.79-.33,2.38-.41,16.79-2.27,33.36-5.24,48.83-12.7,16.83-8.12,31.38-18.72,40.67-35.45,8.89-16,13.13-33.3,14.86-51.4,2.75-28.81-1.8-55.48-21.62-78.02-.89-1.01-1.43-3.14-1.01-4.35,5.88-16.79,5.05-33.51,.13-50.31-3.33-11.34-5.24-12.6-16.8-10.24-.3,.06-.59,.16-.89,.23-16.7,4.3-31.85,12.01-46.22,21.34-3.04,1.97-5.75,2.56-9.42,1.63-36.01-9.12-72.1-9.12-108.13-.07-3.57,.9-6.24,.35-9.47-1.39-11.33-6.1-22.79-12.01-34.47-17.41-7.24-3.34-14.99-5.69-23.2-4.65-1.37,.17-3.34,1.24-3.77,2.37-6.99,18.59-9.54,37.5-2.87,56.77,1.05,3.03,.6,4.95-1.46,7.31-9.38,10.71-15.58,23.09-18.88,36.97-3.59,15.06-3.07,30.25-1.31,45.4,2.12,18.21,7.17,35.62,17.5,50.97,14.48,21.52,36.15,32.24,60.43,38.4,9,2.28,18.26,3.52,27.99,5.34-8.39,8.28-12.49,18.34-14.42,29.45-.15,.88-.97,2.03-1.77,2.35-13.57,5.5-27.55,8.08-41.76,3.19-10.92-3.76-18.54-11.85-24.26-21.68-5.58-9.58-13.22-16.94-23.12-21.86-6.58-3.27-13.49-5.28-20.91-3.4-4.2,1.07-5.03,2.85-2.43,6.13,2.34,2.96,5.4,5.35,8.21,7.93,4.27,3.92,9.48,7.17,12.7,11.8,5.13,7.38,9.59,15.4,13.17,23.64,6.22,14.33,16.98,22.82,31.72,26.24,12.95,3,26.18,3.57,39.43,1.83,2.53-.33,5.05-.77,8.48-1.3,0,13.92-.18,27.28,.07,40.63,.14,7.19-2.09,12.54-9.03,15.34h-5.54c-2.57-.95-5.14-1.91-7.71-2.85-64.92-23.88-110.7-68.42-137.64-131.46-22.36-52.33-24.1-106.68-7.37-161.08,15.05-48.95,43.61-88.82,84.76-119.39,34.82-25.87,73.79-41.2,117.13-45.27,34.79-3.27,68.84,.05,101.77,11.78,48.53,17.29,87.72,47.1,116.96,89.65,19.32,28.12,32.26,58.93,37.72,92.71,1.39,8.61,2.41,17.27,3.6,25.91v27.69c-1.03,8.83-1.72,17.71-3.15,26.47-4.74,29.12-14.63,56.41-29.99,81.63-17.65,28.97-39.96,53.64-67.82,73.2-19.25,13.52-40.29,23.34-62.42,31.02Z"/><path class="cls-5" d="M1280,399.98c-1.19-8.64-2.21-17.3-3.6-25.91-5.46-33.79-18.4-64.59-37.72-92.71-29.24-42.55-68.43-72.35-116.96-89.65-32.93-11.74-66.99-15.05-101.77-11.78-43.34,4.07-82.31,19.4-117.13,45.27-41.15,30.57-69.71,70.44-84.76,119.39-16.72,54.4-14.99,108.75,7.37,161.08,26.94,63.05,72.72,107.59,137.64,131.46,2.57,.95,5.14,1.9,7.71,2.85h-164.27V177.61h473.49v222.37Z"/><path class="cls-5" d="M1116.62,640c22.13-7.68,43.17-17.5,62.42-31.02,27.85-19.56,50.17-44.24,67.82-73.2,15.36-25.21,25.25-52.51,29.99-81.63,1.43-8.76,2.12-17.64,3.15-26.47v212.32h-163.38Z"/></g><g><g><path class="cls-7" d="M221.01,273.08c-39,.06-75.74-32.84-82.67-74.68-7.96-48.14,23.58-93.7,71.67-102.89,22-4.2,42.69-.18,62.16,10.84,6.61,3.74,7.34,11.56,2.58,16.42-6.19,6.3-8.88,14.03-8.26,22.91,.65,9.3,4.98,16.52,12.28,22.1,1.13,.87,2.39,1.57,3.61,2.34,6.63,4.17,6.64,12.78-.08,16.86-4.02,2.44-7.59,5.31-10.32,9.15-9.19,12.89-6.91,30.37,5.26,40.5,.93,.77,1.88,1.56,2.91,2.18,5.62,3.39,6.23,12.17,.1,16.5-5.52,3.89-11.2,7.45-17.38,10.17-11.55,5.09-23.65,7.67-41.86,7.61Zm6.2-134.17c.09-6.51-5.34-12.09-11.88-12.21-6.45-.11-12.11,5.39-12.21,11.88-.1,6.44,5.43,12.13,11.89,12.24,6.43,.11,12.11-5.43,12.2-11.92Zm-45.89,20.2c-6.55,.02-12.06,5.55-12,12.04,.07,6.45,5.76,12.05,12.17,11.98,6.5-.08,11.99-5.66,11.94-12.15-.05-6.57-5.48-11.89-12.11-11.87Zm11.26,67.93c6.48,.06,12.07-5.46,12.12-11.97,.04-6.53-5.41-12.08-11.93-12.14-6.47-.06-12.09,5.47-12.16,11.96-.07,6.42,5.52,12.09,11.98,12.14Zm53.3,9.29c.39-5.27-3.94-11.86-11.87-12.07-6.46-.18-11.97,5.48-12.01,12.03-.04,6.55,5.39,11.99,11.98,12.01,6.65,.02,11.91-5.27,11.9-11.97Zm-17.01-63.31c-6.67-.01-11.96,5.25-11.98,11.92-.02,6.56,5.44,12.08,11.95,12.09,6.49,0,12.04-5.56,12.05-12.05,0-6.59-5.37-11.94-12.02-11.95Z"/><path class="cls-7" d="M324.3,211.62c-.05,7.58-5.9,13.22-13.59,13.12-7.14-.09-13.17-5.95-13.05-13.1,.13-8,5.75-13.31,13.37-13.57,7.34-.25,13.32,6.02,13.28,13.55Z"/><path class="cls-7" d="M343.23,188.97c-6.32-.04-11.39-5.16-11.3-11.41,.09-6.27,5.36-11.46,11.48-11.31,6.37,.16,11.36,5.24,11.29,11.49-.07,6.33-5.11,11.26-11.47,11.22Z"/><path class="cls-7" d="M309.06,155.32c-6.38,.03-11.44-4.91-11.47-11.19-.03-6.27,5.02-11.28,11.38-11.3,6.47-.02,11.38,4.82,11.37,11.2-.01,6.47-4.79,11.25-11.27,11.29Z"/></g><text class="cls-3" transform="translate(376.82 224.25)"><tspan x="0" y="0">Webcrumbs</tspan></text><text class="cls-1" transform="translate(137.11 380.76)"><tspan x="0" y="0">Wordpress for React</tspan></text><text class="cls-2" transform="translate(137.11 472.65)"><tspan x="0" y="0">Open Source</tspan></text><text class="cls-4" transform="translate(137.11 520.15)"><tspan x="0" y="0">Built by the community for the community</tspan></text></g><rect class="cls-7" y="625.09" width="1280" height="14.91"/></g></svg>