<svg width="446" height="68" viewBox="0 0 446 68" fill="none" xmlns="http://www.w3.org/2000/svg">
<rect x="1.5" y="1.5" width="443" height="65" rx="10.5" fill="white"/>
<path d="M86.304 24.16H95.2C96.8213 24.16 98.2613 24.4587 99.52 25.056C100.779 25.632 101.749 26.4853 102.432 27.616C103.136 28.7467 103.488 30.1013 103.488 31.68C103.488 33.2373 103.136 34.5813 102.432 35.712C101.728 36.8427 100.747 37.7067 99.488 38.304C98.2507 38.9013 96.8213 39.2 95.2 39.2H90.656V48H86.304V24.16ZM95.264 35.36C96.4373 35.36 97.376 35.0293 98.08 34.368C98.784 33.6853 99.136 32.7893 99.136 31.68C99.136 30.5707 98.784 29.6853 98.08 29.024C97.376 28.3413 96.4373 28 95.264 28H90.656V35.36H95.264ZM106.702 30.592H110.894V48H106.702V30.592ZM106.382 25.792C106.382 25.024 106.595 24.4267 107.022 24C107.449 23.5733 108.035 23.36 108.782 23.36C109.55 23.36 110.147 23.5733 110.574 24C111.001 24.4267 111.214 25.024 111.214 25.792C111.214 26.5387 111.001 27.1253 110.574 27.552C110.169 27.9787 109.571 28.192 108.782 28.192C108.035 28.192 107.449 27.9787 107.022 27.552C106.595 27.1253 106.382 26.5387 106.382 25.792ZM114.765 30.592H118.701V32.736C119.149 31.9253 119.799 31.3067 120.653 30.88C121.527 30.432 122.519 30.208 123.629 30.208C124.887 30.208 126.018 30.4853 127.021 31.04C128.023 31.5947 128.802 32.3733 129.357 33.376C129.911 34.3787 130.189 35.52 130.189 36.8V48H125.997V37.792C125.997 36.6613 125.666 35.7547 125.005 35.072C124.365 34.3893 123.522 34.048 122.477 34.048C121.431 34.048 120.578 34.3893 119.917 35.072C119.277 35.7547 118.957 36.6613 118.957 37.792V48H114.765V30.592ZM147.933 48.384C146.247 48.384 144.701 47.9893 143.293 47.2C141.885 46.4107 140.765 45.3227 139.933 43.936C139.122 42.5493 138.717 41.0027 138.717 39.296C138.717 37.5893 139.122 36.0427 139.933 34.656C140.743 33.2693 141.853 32.1813 143.261 31.392C144.669 30.6027 146.226 30.208 147.933 30.208C149.618 30.208 151.154 30.6027 152.541 31.392C153.949 32.1813 155.058 33.2693 155.869 34.656C156.701 36.0427 157.117 37.5893 157.117 39.296C157.117 41.024 156.701 42.5813 155.869 43.968C155.058 45.3547 153.949 46.4427 152.541 47.232C151.133 48 149.597 48.384 147.933 48.384ZM143.069 39.296C143.069 40.8107 143.517 42.0693 144.413 43.072C145.33 44.0533 146.503 44.544 147.933 44.544C148.85 44.544 149.671 44.32 150.397 43.872C151.122 43.424 151.687 42.8053 152.093 42.016C152.519 41.2053 152.733 40.2987 152.733 39.296C152.733 38.3147 152.519 37.4293 152.093 36.64C151.687 35.8293 151.122 35.2 150.397 34.752C149.671 34.2827 148.85 34.048 147.933 34.048C146.994 34.048 146.151 34.2827 145.405 34.752C144.679 35.2 144.103 35.8187 143.677 36.608C143.271 37.3973 143.069 38.2933 143.069 39.296ZM160.296 30.592H164.232V32.736C164.68 31.9253 165.33 31.3067 166.184 30.88C167.058 30.432 168.05 30.208 169.16 30.208C170.418 30.208 171.549 30.4853 172.552 31.04C173.554 31.5947 174.333 32.3733 174.888 33.376C175.442 34.3787 175.72 35.52 175.72 36.8V48H171.528V37.792C171.528 36.6613 171.197 35.7547 170.536 35.072C169.896 34.3893 169.053 34.048 168.008 34.048C166.962 34.048 166.109 34.3893 165.448 35.072C164.808 35.7547 164.488 36.6613 164.488 37.792V48H160.296V30.592ZM185.304 24.16H194.2C195.821 24.16 197.261 24.4587 198.52 25.056C199.779 25.632 200.749 26.4853 201.432 27.616C202.136 28.7467 202.488 30.1013 202.488 31.68C202.488 33.2373 202.136 34.5813 201.432 35.712C200.728 36.8427 199.747 37.7067 198.488 38.304C197.251 38.9013 195.821 39.2 194.2 39.2H189.656V48H185.304V24.16ZM194.264 35.36C195.437 35.36 196.376 35.0293 197.08 34.368C197.784 33.6853 198.136 32.7893 198.136 31.68C198.136 30.5707 197.784 29.6853 197.08 29.024C196.376 28.3413 195.437 28 194.264 28H189.656V35.36H194.264ZM205.702 30.592H209.894V48H205.702V30.592ZM205.382 25.792C205.382 25.024 205.595 24.4267 206.022 24C206.449 23.5733 207.035 23.36 207.782 23.36C208.55 23.36 209.147 23.5733 209.574 24C210.001 24.4267 210.214 25.024 210.214 25.792C210.214 26.5387 210.001 27.1253 209.574 27.552C209.169 27.9787 208.571 28.192 207.782 28.192C207.035 28.192 206.449 27.9787 206.022 27.552C205.595 27.1253 205.382 26.5387 205.382 25.792ZM213.765 30.592H217.701V32.736C218.149 31.9253 218.799 31.3067 219.653 30.88C220.527 30.432 221.519 30.208 222.629 30.208C223.887 30.208 225.018 30.4853 226.021 31.04C227.023 31.5947 227.802 32.3733 228.357 33.376C228.911 34.3787 229.189 35.52 229.189 36.8V48H224.997V37.792C224.997 36.6613 224.666 35.7547 224.005 35.072C223.365 34.3893 222.522 34.048 221.477 34.048C220.431 34.048 219.578 34.3893 218.917 35.072C218.277 35.7547 217.957 36.6613 217.957 37.792V48H213.765V30.592ZM240.669 48.192C238.707 48.192 237.181 47.6587 236.093 46.592C235.027 45.504 234.493 43.9787 234.493 42.016V34.336H231.485V30.592H231.805C232.659 30.592 233.32 30.368 233.789 29.92C234.259 29.472 234.493 28.8213 234.493 27.968V26.624H238.685V30.592H242.685V34.336H238.685V41.792C238.685 43.6053 239.667 44.512 241.629 44.512C241.971 44.512 242.344 44.48 242.749 44.416V48.032C242.067 48.1387 241.373 48.192 240.669 48.192ZM254.052 48.384C252.302 48.384 250.745 47.9787 249.38 47.168C248.036 46.3573 246.98 45.2587 246.212 43.872C245.465 42.4853 245.092 40.9493 245.092 39.264C245.092 37.5573 245.465 36.0213 246.212 34.656C246.98 33.2693 248.014 32.1813 249.316 31.392C250.638 30.6027 252.11 30.208 253.732 30.208C255.481 30.208 256.996 30.592 258.276 31.36C259.556 32.1067 260.526 33.1307 261.188 34.432C261.87 35.7333 262.212 37.1627 262.212 38.72C262.212 39.4453 262.137 40.032 261.988 40.48H249.444C249.572 41.76 250.062 42.784 250.916 43.552C251.769 44.32 252.825 44.704 254.084 44.704C255.022 44.704 255.822 44.512 256.484 44.128C257.166 43.7227 257.71 43.168 258.116 42.464L261.508 44.128C260.974 45.408 260.036 46.4427 258.692 47.232C257.348 48 255.801 48.384 254.052 48.384ZM257.732 37.28C257.625 36.2133 257.209 35.3493 256.484 34.688C255.758 34.0053 254.841 33.664 253.732 33.664C252.665 33.664 251.758 33.984 251.012 34.624C250.265 35.2427 249.774 36.128 249.54 37.28H257.732ZM265.39 30.592H269.326V33.024C269.752 32.0853 270.36 31.4133 271.15 31.008C271.939 30.6027 272.899 30.4 274.03 30.4H275.054V34.112H273.55C272.355 34.112 271.395 34.4853 270.67 35.232C269.944 35.9787 269.582 37.0027 269.582 38.304V48H265.39V30.592ZM285.614 48.384C283.865 48.384 282.308 47.9787 280.942 47.168C279.598 46.3573 278.542 45.2587 277.774 43.872C277.028 42.4853 276.654 40.9493 276.654 39.264C276.654 37.5573 277.028 36.0213 277.774 34.656C278.542 33.2693 279.577 32.1813 280.878 31.392C282.201 30.6027 283.673 30.208 285.294 30.208C287.044 30.208 288.558 30.592 289.838 31.36C291.118 32.1067 292.089 33.1307 292.75 34.432C293.433 35.7333 293.774 37.1627 293.774 38.72C293.774 39.4453 293.7 40.032 293.55 40.48H281.006C281.134 41.76 281.625 42.784 282.478 43.552C283.332 44.32 284.388 44.704 285.646 44.704C286.585 44.704 287.385 44.512 288.046 44.128C288.729 43.7227 289.273 43.168 289.678 42.464L293.07 44.128C292.537 45.408 291.598 46.4427 290.254 47.232C288.91 48 287.364 48.384 285.614 48.384ZM289.294 37.28C289.188 36.2133 288.772 35.3493 288.046 34.688C287.321 34.0053 286.404 33.664 285.294 33.664C284.228 33.664 283.321 33.984 282.574 34.624C281.828 35.2427 281.337 36.128 281.102 37.28H289.294ZM303.48 48.352C301.731 48.352 300.184 47.936 298.84 47.104C297.517 46.272 296.579 45.1307 296.024 43.68L299.128 42.08C299.597 43.0187 300.216 43.7547 300.984 44.288C301.773 44.8 302.637 45.056 303.576 45.056C304.387 45.056 305.016 44.896 305.464 44.576C305.933 44.2347 306.168 43.776 306.168 43.2C306.168 42.7093 305.976 42.304 305.592 41.984C305.208 41.6427 304.707 41.4187 304.088 41.312L301.24 40.832C299.768 40.448 298.627 39.7973 297.816 38.88C297.027 37.9413 296.632 36.8427 296.632 35.584C296.632 34.5387 296.909 33.6107 297.464 32.8C298.019 31.968 298.787 31.328 299.768 30.88C300.771 30.432 301.901 30.208 303.16 30.208C304.76 30.208 306.168 30.592 307.384 31.36C308.6 32.1067 309.485 33.152 310.04 34.496L306.936 36.096C306.595 35.3493 306.072 34.752 305.368 34.304C304.664 33.856 303.885 33.632 303.032 33.632C302.328 33.632 301.763 33.792 301.336 34.112C300.931 34.432 300.728 34.848 300.728 35.36C300.728 36.2987 301.432 36.928 302.84 37.248L305.624 37.76C307.096 38.1653 308.237 38.8267 309.048 39.744C309.859 40.6613 310.264 41.7493 310.264 43.008C310.264 44.0533 309.976 44.9813 309.4 45.792C308.845 46.6027 308.056 47.232 307.032 47.68C306.008 48.128 304.824 48.352 303.48 48.352ZM321.326 48.192C319.363 48.192 317.838 47.6587 316.75 46.592C315.683 45.504 315.15 43.9787 315.15 42.016V34.336H312.142V30.592H312.462C313.315 30.592 313.976 30.368 314.446 29.92C314.915 29.472 315.15 28.8213 315.15 27.968V26.624H319.342V30.592H323.342V34.336H319.342V41.792C319.342 43.6053 320.323 44.512 322.286 44.512C322.627 44.512 323 44.48 323.406 44.416V48.032C322.723 48.1387 322.03 48.192 321.326 48.192Z" fill="#131721"/>
<path fill-rule="evenodd" clip-rule="evenodd" d="M43.0572 12.2831C30.2083 12.2831 19.7686 22.6459 19.7686 35.5146C19.7686 48.3826 30.2083 58.7454 43.0572 58.7454C55.9061 58.7454 66.2311 48.3826 66.2311 35.5146C66.2311 22.6459 55.906 12.2831 43.0572 12.2831ZM44.8927 41.7778C43.1719 41.6637 42.4836 40.753 41.1069 39.9558C40.4186 43.8272 39.5008 47.4712 36.8622 49.4073C36.0591 43.5997 38.0094 39.2726 38.9272 34.6032C37.321 31.9841 39.1566 26.518 42.4836 27.8844C46.6136 29.4789 38.9272 37.9056 44.0897 38.9304C49.5963 40.0692 51.776 29.4789 48.4491 26.0624C43.516 21.1655 34.2236 25.9483 35.3708 33.0088C35.7149 34.7173 37.4358 35.2864 36.1738 37.6781C32.9616 36.995 32.0438 34.4892 32.1585 31.3008C32.388 25.9483 36.9769 22.1902 41.6805 21.6212C47.5313 20.938 53.038 23.7847 53.7263 29.2507C54.6441 35.5146 51.0877 42.2334 44.8927 41.7778Z" fill="black"/>
<rect x="1.5" y="1.5" width="443" height="65" rx="10.5" stroke="black" stroke-width="3"/>
</svg>
