<svg width="311" height="48" viewBox="0 0 311 48" fill="none" xmlns="http://www.w3.org/2000/svg">
<path d="M75.816 37.384C73.9387 37.384 72.3067 37.032 70.92 36.328C69.5547 35.624 68.488 34.7387 67.72 33.672C66.952 32.584 66.4613 31.4533 66.248 30.28L70.344 29.192C70.664 30.4933 71.304 31.5067 72.264 32.232C73.224 32.9573 74.4293 33.32 75.88 33.32C76.9893 33.32 77.8853 33.0427 78.568 32.488C79.272 31.9333 79.624 31.272 79.624 30.504C79.624 29.8 79.368 29.192 78.856 28.68C78.3653 28.1467 77.6933 27.7947 76.84 27.624L73.256 26.92C71.3573 26.5573 69.864 25.736 68.776 24.456C67.688 23.176 67.144 21.6187 67.144 19.784C67.144 18.504 67.5067 17.3307 68.232 16.264C68.9787 15.176 69.96 14.3227 71.176 13.704C72.4133 13.0853 73.7253 12.776 75.112 12.776C76.8827 12.776 78.3867 13.0747 79.624 13.672C80.8613 14.2693 81.8213 15.0267 82.504 15.944C83.208 16.84 83.6773 17.7893 83.912 18.792L79.848 20.072C79.4 18.92 78.792 18.0987 78.024 17.608C77.256 17.096 76.2853 16.84 75.112 16.84C74.4507 16.84 73.8533 16.9787 73.32 17.256C72.808 17.5333 72.4027 17.896 72.104 18.344C71.8267 18.7707 71.688 19.208 71.688 19.656C71.688 20.36 71.9227 20.9787 72.392 21.512C72.8613 22.024 73.512 22.3547 74.344 22.504L77.736 23.24C79.8053 23.688 81.4053 24.5413 82.536 25.8C83.6667 27.0373 84.232 28.52 84.232 30.248C84.232 31.4853 83.8907 32.648 83.208 33.736C82.5253 34.824 81.544 35.7093 80.264 36.392C79.0053 37.0533 77.5227 37.384 75.816 37.384ZM87.6708 12.776H91.8628V21.32C92.3534 20.6373 93.0041 20.1147 93.8148 19.752C94.6254 19.3893 95.5321 19.208 96.5348 19.208C97.7934 19.208 98.9241 19.4853 99.9268 20.04C100.929 20.5947 101.708 21.3733 102.263 22.376C102.817 23.3787 103.095 24.52 103.095 25.8V37H98.9028V26.792C98.9028 25.6613 98.5721 24.7547 97.9108 24.072C97.2708 23.3893 96.4281 23.048 95.3828 23.048C94.3588 23.048 93.5161 23.3893 92.8548 24.072C92.1934 24.7547 91.8628 25.6613 91.8628 26.792V37H87.6708V12.776ZM111.92 37.384C110.085 37.384 108.624 36.936 107.536 36.04C106.469 35.144 105.936 33.928 105.936 32.392C105.936 30.92 106.437 29.704 107.44 28.744C108.442 27.784 109.946 27.144 111.952 26.824L117.136 25.992V25.416C117.136 24.648 116.837 24.0187 116.24 23.528C115.664 23.0373 114.896 22.792 113.936 22.792C113.04 22.792 112.24 23.0373 111.536 23.528C110.853 23.9973 110.352 24.6267 110.032 25.416L106.608 23.752C107.12 22.3867 108.058 21.288 109.424 20.456C110.789 19.624 112.346 19.208 114.095 19.208C115.504 19.208 116.752 19.4747 117.84 20.008C118.949 20.52 119.802 21.256 120.4 22.216C121.018 23.1547 121.328 24.2213 121.328 25.416V37H117.36V35.144C115.994 36.6373 114.181 37.384 111.92 37.384ZM110.288 32.232C110.288 32.8293 110.512 33.3093 110.96 33.672C111.408 34.0133 111.984 34.184 112.688 34.184C113.989 34.184 115.056 33.7787 115.888 32.968C116.72 32.136 117.136 31.112 117.136 29.896V29.192L112.752 29.928C111.92 30.0987 111.301 30.376 110.896 30.76C110.49 31.1227 110.288 31.6133 110.288 32.232ZM125.202 19.592H129.138V22.024C129.565 21.0853 130.173 20.4133 130.962 20.008C131.751 19.6027 132.711 19.4 133.842 19.4H134.866V23.112H133.362C132.167 23.112 131.207 23.4853 130.482 24.232C129.757 24.9787 129.394 26.0027 129.394 27.304V37H125.202V19.592ZM145.427 37.384C143.677 37.384 142.12 36.9787 140.755 36.168C139.411 35.3573 138.355 34.2587 137.587 32.872C136.84 31.4853 136.467 29.9493 136.467 28.264C136.467 26.5573 136.84 25.0213 137.587 23.656C138.355 22.2693 139.389 21.1813 140.691 20.392C142.013 19.6027 143.485 19.208 145.107 19.208C146.856 19.208 148.371 19.592 149.651 20.36C150.931 21.1067 151.901 22.1307 152.563 23.432C153.245 24.7333 153.587 26.1627 153.587 27.72C153.587 28.4453 153.512 29.032 153.363 29.48H140.819C140.947 30.76 141.437 31.784 142.291 32.552C143.144 33.32 144.2 33.704 145.459 33.704C146.397 33.704 147.197 33.512 147.859 33.128C148.541 32.7227 149.085 32.168 149.491 31.464L152.883 33.128C152.349 34.408 151.411 35.4427 150.067 36.232C148.723 37 147.176 37.384 145.427 37.384ZM149.107 26.28C149 25.2133 148.584 24.3493 147.859 23.688C147.133 23.0053 146.216 22.664 145.107 22.664C144.04 22.664 143.133 22.984 142.387 23.624C141.64 24.2427 141.149 25.128 140.915 26.28H149.107ZM170.964 37.384C169.279 37.384 167.732 36.9893 166.324 36.2C164.916 35.4107 163.796 34.3227 162.964 32.936C162.153 31.5493 161.748 30.0027 161.748 28.296C161.748 26.5893 162.153 25.0427 162.964 23.656C163.775 22.2693 164.884 21.1813 166.292 20.392C167.7 19.6027 169.257 19.208 170.964 19.208C172.649 19.208 174.185 19.6027 175.572 20.392C176.98 21.1813 178.089 22.2693 178.9 23.656C179.732 25.0427 180.148 26.5893 180.148 28.296C180.148 30.024 179.732 31.5813 178.9 32.968C178.089 34.3547 176.98 35.4427 175.572 36.232C174.164 37 172.628 37.384 170.964 37.384ZM166.1 28.296C166.1 29.8107 166.548 31.0693 167.444 32.072C168.361 33.0533 169.535 33.544 170.964 33.544C171.881 33.544 172.703 33.32 173.428 32.872C174.153 32.424 174.719 31.8053 175.124 31.016C175.551 30.2053 175.764 29.2987 175.764 28.296C175.764 27.3147 175.551 26.4293 175.124 25.64C174.719 24.8293 174.153 24.2 173.428 23.752C172.703 23.2827 171.881 23.048 170.964 23.048C170.025 23.048 169.183 23.2827 168.436 23.752C167.711 24.2 167.135 24.8187 166.708 25.608C166.303 26.3973 166.1 27.2933 166.1 28.296ZM183.327 19.592H187.263V21.736C187.711 20.9253 188.362 20.3067 189.215 19.88C190.09 19.432 191.082 19.208 192.191 19.208C193.45 19.208 194.58 19.4853 195.583 20.04C196.586 20.5947 197.364 21.3733 197.919 22.376C198.474 23.3787 198.751 24.52 198.751 25.8V37H194.559V26.792C194.559 25.6613 194.228 24.7547 193.567 24.072C192.927 23.3893 192.084 23.048 191.039 23.048C189.994 23.048 189.14 23.3893 188.479 24.072C187.839 24.7547 187.519 25.6613 187.519 26.792V37H183.327V19.592ZM208.335 13.16H217.199C218.821 13.16 220.261 13.4587 221.519 14.056C222.778 14.632 223.749 15.4853 224.431 16.616C225.135 17.7467 225.487 19.1013 225.487 20.68C225.487 22.3013 225.103 23.6987 224.335 24.872C223.567 26.024 222.511 26.8773 221.167 27.432L226.639 37H221.711L216.783 28.2H212.687V37H208.335V13.16ZM217.263 24.36C218.437 24.36 219.375 24.0293 220.079 23.368C220.783 22.6853 221.135 21.7893 221.135 20.68C221.135 19.5707 220.783 18.6853 220.079 18.024C219.375 17.3413 218.437 17 217.263 17H212.687V24.36H217.263ZM236.427 37.384C234.677 37.384 233.12 36.9787 231.755 36.168C230.411 35.3573 229.355 34.2587 228.587 32.872C227.84 31.4853 227.467 29.9493 227.467 28.264C227.467 26.5573 227.84 25.0213 228.587 23.656C229.355 22.2693 230.389 21.1813 231.691 20.392C233.013 19.6027 234.485 19.208 236.107 19.208C237.856 19.208 239.371 19.592 240.651 20.36C241.931 21.1067 242.901 22.1307 243.563 23.432C244.245 24.7333 244.587 26.1627 244.587 27.72C244.587 28.4453 244.512 29.032 244.363 29.48H231.819C231.947 30.76 232.437 31.784 233.291 32.552C234.144 33.32 235.2 33.704 236.459 33.704C237.397 33.704 238.197 33.512 238.859 33.128C239.541 32.7227 240.085 32.168 240.491 31.464L243.883 33.128C243.349 34.408 242.411 35.4427 241.067 36.232C239.723 37 238.176 37.384 236.427 37.384ZM240.107 26.28C240 25.2133 239.584 24.3493 238.859 23.688C238.133 23.0053 237.216 22.664 236.107 22.664C235.04 22.664 234.133 22.984 233.387 23.624C232.64 24.2427 232.149 25.128 231.915 26.28H240.107ZM255.861 37.384C254.197 37.384 252.693 36.9893 251.349 36.2C250.026 35.3893 248.981 34.2907 248.213 32.904C247.445 31.5173 247.061 29.9813 247.061 28.296C247.061 26.6107 247.445 25.0747 248.213 23.688C248.981 22.3013 250.037 21.2133 251.381 20.424C252.725 19.6133 254.207 19.208 255.829 19.208C256.938 19.208 257.951 19.4 258.869 19.784C259.786 20.1467 260.554 20.6693 261.173 21.352V12.776H265.365V37H261.397V35.08C260.757 35.8267 259.957 36.4027 258.997 36.808C258.037 37.192 256.991 37.384 255.861 37.384ZM251.413 28.296C251.413 29.2987 251.615 30.2053 252.021 31.016C252.447 31.8053 253.034 32.424 253.781 32.872C254.527 33.32 255.37 33.544 256.309 33.544C257.247 33.544 258.079 33.32 258.805 32.872C259.551 32.424 260.127 31.8053 260.533 31.016C260.959 30.2053 261.173 29.2987 261.173 28.296C261.173 27.2933 260.959 26.3973 260.533 25.608C260.127 24.7973 259.551 24.168 258.805 23.72C258.058 23.272 257.226 23.048 256.309 23.048C255.37 23.048 254.527 23.2827 253.781 23.752C253.034 24.2 252.447 24.8293 252.021 25.64C251.615 26.4293 251.413 27.3147 251.413 28.296ZM277.361 37.384C275.697 37.384 274.193 36.9893 272.849 36.2C271.526 35.3893 270.481 34.2907 269.713 32.904C268.945 31.5173 268.561 29.9813 268.561 28.296C268.561 26.6107 268.945 25.0747 269.713 23.688C270.481 22.3013 271.537 21.2133 272.881 20.424C274.225 19.6133 275.707 19.208 277.329 19.208C278.438 19.208 279.451 19.4 280.369 19.784C281.286 20.1467 282.054 20.6693 282.673 21.352V12.776H286.865V37H282.897V35.08C282.257 35.8267 281.457 36.4027 280.497 36.808C279.537 37.192 278.491 37.384 277.361 37.384ZM272.913 28.296C272.913 29.2987 273.115 30.2053 273.521 31.016C273.947 31.8053 274.534 32.424 275.281 32.872C276.027 33.32 276.87 33.544 277.809 33.544C278.747 33.544 279.579 33.32 280.305 32.872C281.051 32.424 281.627 31.8053 282.033 31.016C282.459 30.2053 282.673 29.2987 282.673 28.296C282.673 27.2933 282.459 26.3973 282.033 25.608C281.627 24.7973 281.051 24.168 280.305 23.72C279.558 23.272 278.726 23.048 277.809 23.048C276.87 23.048 276.027 23.2827 275.281 23.752C274.534 24.2 273.947 24.8293 273.521 25.64C273.115 26.4293 272.913 27.3147 272.913 28.296ZM290.765 19.592H294.957V37H290.765V19.592ZM290.445 14.792C290.445 14.024 290.658 13.4267 291.085 13C291.511 12.5733 292.098 12.36 292.845 12.36C293.613 12.36 294.21 12.5733 294.637 13C295.063 13.4267 295.277 14.024 295.277 14.792C295.277 15.5387 295.063 16.1253 294.637 16.552C294.231 16.9787 293.634 17.192 292.845 17.192C292.098 17.192 291.511 16.9787 291.085 16.552C290.658 16.1253 290.445 15.5387 290.445 14.792ZM306.763 37.192C304.8 37.192 303.275 36.6587 302.187 35.592C301.12 34.504 300.587 32.9787 300.587 31.016V23.336H297.579V19.592H297.899C298.752 19.592 299.414 19.368 299.883 18.92C300.352 18.472 300.587 17.8213 300.587 16.968V15.624H304.779V19.592H308.779V23.336H304.779V30.792C304.779 32.6053 305.76 33.512 307.723 33.512C308.064 33.512 308.438 33.48 308.843 33.416V37.032C308.16 37.1387 307.467 37.192 306.763 37.192Z" fill="#131721"/>
<g clip-path="url(#clip0_115_1010)">
<path d="M29.026 32.1888C27.9508 33.264 25.6469 33.6478 24.0052 33.6478C22.3587 33.6478 20.0597 33.264 18.9845 32.1888C18.7299 31.9343 18.322 31.9343 18.0678 32.1888C17.8133 32.4433 17.8133 32.8513 18.0678 33.1054C19.7718 34.8094 23.0454 34.9438 24.0052 34.9438C24.9651 34.9438 28.2339 34.8094 29.943 33.1054C30.1924 32.8509 30.1924 32.443 29.943 32.1888C29.6884 31.9343 29.2805 31.9343 29.026 32.1888Z" fill="black"/>
<path d="M20.9998 26.5009C20.9998 25.1232 19.8766 24 18.4989 24C17.1216 24 15.998 25.1232 15.998 26.5009C15.998 27.8782 17.1216 29.0017 18.4989 29.0017C19.8766 29.0017 20.9998 27.8785 20.9998 26.5009Z" fill="black"/>
<path d="M24 0C10.7472 0 0 10.7472 0 24C0 37.2528 10.7472 48 24 48C37.2528 48 48 37.2528 48 24C48 10.7472 37.2528 0 24 0ZM37.9248 27.2014C37.9775 27.5471 38.0065 27.8976 38.0065 28.2528C38.0065 33.6383 31.7377 38.0017 24.0048 38.0017C16.2719 38.0017 10.0031 33.6383 10.0031 28.2528C10.0031 27.8928 10.032 27.5376 10.0847 27.1919C8.8656 26.6448 8.01599 25.4209 8.01599 24C8.01599 22.0704 9.58081 20.5009 11.5151 20.5009C12.4559 20.5009 13.3055 20.8704 13.9343 21.4753C16.363 19.7234 19.7234 18.6046 23.4624 18.5087C23.4624 18.4607 25.2096 10.1375 25.2096 10.1375C25.2433 9.97449 25.3392 9.83496 25.4784 9.74414C25.6176 9.65295 25.7856 9.62402 25.949 9.65771L31.7666 10.8959C32.1746 10.0704 33.0143 9.49915 33.9983 9.49915C35.3807 9.49915 36.4991 10.6176 36.4991 12C36.4991 13.3824 35.3807 14.5009 33.9983 14.5009C32.6591 14.5009 31.5743 13.4447 31.5121 12.1201L26.3038 11.0112L24.7104 18.5138C28.3824 18.6431 31.6802 19.7567 34.0704 21.4849C34.6992 20.8755 35.5536 20.5009 36.4991 20.5009C38.4338 20.5009 39.9983 22.0657 39.9983 24C39.9983 25.4304 39.1392 26.6543 37.9248 27.2014Z" fill="black"/>
<path d="M29.5009 24C28.1232 24 27 25.1232 27 26.5009C27 27.8782 28.1232 29.0017 29.5009 29.0017C30.8782 29.0017 32.0017 27.8782 32.0017 26.5009C32.0017 25.1232 30.8785 24 29.5009 24Z" fill="black"/>
</g>
<defs>
<clipPath id="clip0_115_1010">
<rect width="48" height="48" fill="white"/>
</clipPath>
</defs>
</svg>
