<svg width="261" height="48" viewBox="0 0 261 48" fill="none" xmlns="http://www.w3.org/2000/svg">
<g clip-path="url(#clip0_114_941)">
<path d="M21.3652 25.3181C21.3652 27.2456 19.9843 28.8141 18.248 28.8141C16.539 28.8141 15.1309 27.2456 15.1309 25.3181C15.1309 23.3916 16.5118 21.8222 18.248 21.8222C19.9974 21.8222 21.3924 23.4056 21.3652 25.3181ZM32.8899 25.3181C32.8899 27.2456 31.523 28.8141 29.7727 28.8141C28.0637 28.8141 26.6555 27.2456 26.6555 25.3181C26.6555 23.3916 28.0365 21.8222 29.7727 21.8222C31.523 21.8222 32.9171 23.4056 32.8899 25.3181Z" fill="black"/>
<path d="M24 0C10.7456 0 0 10.7456 0 24C0 37.2544 10.7456 48 24 48C37.2544 48 48 37.2544 48 24C48 10.7456 37.2544 0 24 0ZM41.1478 32.8359C38.1816 35.0147 35.3072 36.3375 32.4731 37.2141C32.4281 37.2281 32.3794 37.2113 32.3512 37.1728C31.6969 36.2616 31.1025 35.3006 30.5813 34.2919C30.5513 34.2328 30.5784 34.1616 30.6403 34.1381C31.5844 33.7809 32.4825 33.3544 33.3469 32.85C33.4153 32.8097 33.4191 32.7122 33.3562 32.6653C33.1734 32.5294 32.9916 32.3859 32.8181 32.2425C32.8025 32.2297 32.7835 32.2215 32.7634 32.219C32.7434 32.2165 32.723 32.2198 32.7047 32.2284C27.0947 34.8206 20.9494 34.8206 15.2728 32.2284C15.2363 32.2125 15.1922 32.2181 15.1613 32.2444C14.9878 32.3869 14.8059 32.5294 14.6241 32.6653C14.5613 32.7122 14.5659 32.8097 14.6344 32.85C15.4988 33.345 16.3969 33.7809 17.34 34.1391C17.4019 34.1625 17.4309 34.2328 17.4 34.2919C16.8909 35.3025 16.2956 36.2625 15.6291 37.1737C15.6 37.2112 15.5522 37.2281 15.5072 37.2141C12.6863 36.3375 9.81281 35.0147 6.84562 32.8359C6.82125 32.8163 6.80344 32.7863 6.80063 32.7544C6.19688 26.2828 7.42875 19.7306 11.925 13.0125C11.9362 12.9947 11.9522 12.9806 11.9719 12.9731C14.2199 11.9397 16.593 11.2035 19.0312 10.7831C19.0762 10.7766 19.1213 10.7972 19.1447 10.8366C19.4513 11.3794 19.8009 12.0741 20.0381 12.6422C22.6491 12.2438 25.3013 12.2438 27.9675 12.6422C28.2038 12.0863 28.5413 11.3794 28.8459 10.8366C28.8694 10.7953 28.9144 10.7747 28.9594 10.7831C31.3977 11.2044 33.771 11.9406 36.0197 12.9731C36.0394 12.9806 36.0553 12.9947 36.0647 13.0144C39.9816 18.7753 41.9166 25.2741 41.1928 32.7562C41.19 32.7881 41.1741 32.8163 41.1478 32.8359Z" fill="black"/>
</g>
<path d="M65.352 13.16H70.024L74.44 31.08L79.08 13.16H83.592L88.2 31.08L92.616 13.16H97.288L90.888 37H85.896L81.32 19.848L76.744 37H71.752L65.352 13.16ZM106.771 37.384C105.021 37.384 103.464 36.9787 102.099 36.168C100.755 35.3573 99.6985 34.2587 98.9305 32.872C98.1838 31.4853 97.8105 29.9493 97.8105 28.264C97.8105 26.5573 98.1838 25.0213 98.9305 23.656C99.6985 22.2693 100.733 21.1813 102.035 20.392C103.357 19.6027 104.829 19.208 106.451 19.208C108.2 19.208 109.715 19.592 110.995 20.36C112.275 21.1067 113.245 22.1307 113.907 23.432C114.589 24.7333 114.931 26.1627 114.931 27.72C114.931 28.4453 114.856 29.032 114.707 29.48H102.163C102.291 30.76 102.781 31.784 103.635 32.552C104.488 33.32 105.544 33.704 106.803 33.704C107.741 33.704 108.541 33.512 109.203 33.128C109.885 32.7227 110.429 32.168 110.835 31.464L114.227 33.128C113.693 34.408 112.755 35.4427 111.411 36.232C110.067 37 108.52 37.384 106.771 37.384ZM110.451 26.28C110.344 25.2133 109.928 24.3493 109.203 23.688C108.477 23.0053 107.56 22.664 106.451 22.664C105.384 22.664 104.477 22.984 103.731 23.624C102.984 24.2427 102.493 25.128 102.259 26.28H110.451ZM127.612 37.384C126.482 37.384 125.426 37.1813 124.444 36.776C123.484 36.3707 122.684 35.7947 122.044 35.048V37H118.108V12.776H122.3V21.352C122.919 20.6693 123.687 20.1467 124.604 19.784C125.522 19.4 126.535 19.208 127.644 19.208C129.266 19.208 130.748 19.6133 132.092 20.424C133.436 21.2133 134.492 22.3013 135.26 23.688C136.028 25.0747 136.412 26.6107 136.412 28.296C136.412 29.9813 136.028 31.5173 135.26 32.904C134.492 34.2907 133.436 35.3893 132.092 36.2C130.77 36.9893 129.276 37.384 127.612 37.384ZM122.3 28.296C122.3 29.2987 122.503 30.2053 122.908 31.016C123.335 31.8053 123.911 32.424 124.636 32.872C125.383 33.32 126.215 33.544 127.132 33.544C128.562 33.544 129.735 33.0533 130.652 32.072C131.591 31.0693 132.06 29.8107 132.06 28.296C132.06 27.3147 131.847 26.4293 131.42 25.64C130.994 24.8293 130.407 24.2 129.66 23.752C128.914 23.2827 128.071 23.048 127.132 23.048C126.215 23.048 125.383 23.272 124.636 23.72C123.911 24.168 123.335 24.7973 122.908 25.608C122.503 26.3973 122.3 27.2933 122.3 28.296ZM151.16 37.384C148.92 37.384 146.894 36.8507 145.08 35.784C143.267 34.7173 141.838 33.2453 140.792 31.368C139.768 29.4907 139.256 27.3893 139.256 25.064C139.256 22.7387 139.768 20.6373 140.792 18.76C141.838 16.8827 143.256 15.4213 145.048 14.376C146.862 13.3093 148.899 12.776 151.16 12.776C152.803 12.776 154.307 13.064 155.672 13.64C157.038 14.1947 158.19 14.952 159.128 15.912C160.088 16.8507 160.782 17.896 161.208 19.048L157.304 20.872C156.835 19.6347 156.056 18.6427 154.968 17.896C153.88 17.128 152.611 16.744 151.16 16.744C149.688 16.744 148.376 17.096 147.224 17.8C146.072 18.4827 145.176 19.4533 144.536 20.712C143.918 21.9707 143.608 23.4213 143.608 25.064C143.608 26.7067 143.918 28.168 144.536 29.448C145.176 30.7067 146.072 31.688 147.224 32.392C148.376 33.0747 149.688 33.416 151.16 33.416C152.611 33.416 153.88 33.0427 154.968 32.296C156.056 31.528 156.835 30.5253 157.304 29.288L161.208 31.112C160.782 32.264 160.088 33.32 159.128 34.28C158.19 35.2187 157.038 35.976 155.672 36.552C154.307 37.1067 152.803 37.384 151.16 37.384ZM164.39 19.592H168.326V22.024C168.752 21.0853 169.36 20.4133 170.15 20.008C170.939 19.6027 171.899 19.4 173.03 19.4H174.054V23.112H172.55C171.355 23.112 170.395 23.4853 169.67 24.232C168.944 24.9787 168.582 26.0027 168.582 27.304V37H164.39V19.592ZM182.566 37.384C180.54 37.384 178.94 36.7333 177.766 35.432C176.593 34.1307 176.006 32.4027 176.006 30.248V19.592H180.198V29.896C180.198 30.984 180.518 31.8693 181.158 32.552C181.82 33.2133 182.673 33.544 183.718 33.544C184.764 33.544 185.606 33.2027 186.246 32.52C186.908 31.8373 187.238 30.9307 187.238 29.8V19.592H191.43V37H187.462V34.92C186.993 35.7307 186.332 36.3493 185.478 36.776C184.646 37.1813 183.676 37.384 182.566 37.384ZM195.327 19.592H199.263V21.768C199.711 20.936 200.351 20.3067 201.183 19.88C202.036 19.432 203.018 19.208 204.127 19.208C205.279 19.208 206.335 19.464 207.295 19.976C208.255 20.4667 208.991 21.1493 209.503 22.024C210.079 21.0853 210.826 20.3813 211.743 19.912C212.682 19.4427 213.738 19.208 214.911 19.208C216.127 19.208 217.226 19.4853 218.207 20.04C219.188 20.5947 219.956 21.3733 220.511 22.376C221.066 23.3787 221.343 24.52 221.343 25.8V37H217.151V26.792C217.151 25.64 216.842 24.7333 216.223 24.072C215.626 23.3893 214.815 23.048 213.791 23.048C212.788 23.048 211.978 23.3893 211.359 24.072C210.74 24.7547 210.431 25.6613 210.431 26.792V37H206.239V26.792C206.239 25.64 205.93 24.7333 205.311 24.072C204.714 23.3893 203.903 23.048 202.879 23.048C201.876 23.048 201.066 23.3893 200.447 24.072C199.828 24.7547 199.519 25.6613 199.519 26.792V37H195.327V19.592ZM234.394 37.384C233.263 37.384 232.207 37.1813 231.226 36.776C230.266 36.3707 229.466 35.7947 228.826 35.048V37H224.89V12.776H229.082V21.352C229.7 20.6693 230.468 20.1467 231.385 19.784C232.303 19.4 233.316 19.208 234.426 19.208C236.047 19.208 237.53 19.6133 238.874 20.424C240.218 21.2133 241.274 22.3013 242.042 23.688C242.81 25.0747 243.194 26.6107 243.194 28.296C243.194 29.9813 242.81 31.5173 242.042 32.904C241.274 34.2907 240.218 35.3893 238.874 36.2C237.551 36.9893 236.058 37.384 234.394 37.384ZM229.082 28.296C229.082 29.2987 229.284 30.2053 229.69 31.016C230.116 31.8053 230.692 32.424 231.418 32.872C232.164 33.32 232.996 33.544 233.914 33.544C235.343 33.544 236.516 33.0533 237.434 32.072C238.372 31.0693 238.842 29.8107 238.842 28.296C238.842 27.3147 238.628 26.4293 238.202 25.64C237.775 24.8293 237.188 24.2 236.442 23.752C235.695 23.2827 234.852 23.048 233.914 23.048C232.996 23.048 232.164 23.272 231.418 23.72C230.692 24.168 230.116 24.7973 229.69 25.608C229.284 26.3973 229.082 27.2933 229.082 28.296ZM252.918 37.352C251.168 37.352 249.622 36.936 248.278 36.104C246.955 35.272 246.016 34.1307 245.462 32.68L248.566 31.08C249.035 32.0187 249.654 32.7547 250.422 33.288C251.211 33.8 252.075 34.056 253.014 34.056C253.824 34.056 254.454 33.896 254.902 33.576C255.371 33.2347 255.606 32.776 255.606 32.2C255.606 31.7093 255.414 31.304 255.03 30.984C254.646 30.6427 254.144 30.4187 253.526 30.312L250.678 29.832C249.206 29.448 248.064 28.7973 247.254 27.88C246.464 26.9413 246.07 25.8427 246.07 24.584C246.07 23.5387 246.347 22.6107 246.902 21.8C247.456 20.968 248.224 20.328 249.206 19.88C250.208 19.432 251.339 19.208 252.598 19.208C254.198 19.208 255.606 19.592 256.822 20.36C258.038 21.1067 258.923 22.152 259.478 23.496L256.374 25.096C256.032 24.3493 255.51 23.752 254.806 23.304C254.102 22.856 253.323 22.632 252.47 22.632C251.766 22.632 251.2 22.792 250.774 23.112C250.368 23.432 250.166 23.848 250.166 24.36C250.166 25.2987 250.87 25.928 252.278 26.248L255.062 26.76C256.534 27.1653 257.675 27.8267 258.486 28.744C259.296 29.6613 259.702 30.7493 259.702 32.008C259.702 33.0533 259.414 33.9813 258.838 34.792C258.283 35.6027 257.494 36.232 256.47 36.68C255.446 37.128 254.262 37.352 252.918 37.352Z" fill="#131721"/>
<defs>
<clipPath id="clip0_114_941">
<rect width="48" height="48" fill="white"/>
</clipPath>
</defs>
</svg>
