<svg id="Layer_1" enable-background="new 0 0 512 512" viewBox="0 0 512 512" xmlns="http://www.w3.org/2000/svg"><path d="m256 0c141.384 0 256 114.616 256 256s-114.616 256-256 256c0-11.13-33.391-256-33.391-256z" fill="#f0f0f0"/><path d="m256 512c-141.384 0-256-114.616-256-256s114.616-256 256-256" fill="#496e2d"/><g fill="#d80027"><path d="m311.003 206.896-21.004 28.945-34.017-11.032 21.038 28.92-21.002 28.945 34.004-11.071 21.038 28.919-.022-35.761 34.005-11.072-34.016-11.03z"/><path d="m277.237 328.348c-39.956 0-72.348-32.392-72.348-72.348s32.392-72.348 72.348-72.348c12.458 0 24.181 3.15 34.415 8.696-16.056-15.701-38.012-25.392-62.241-25.392-49.178 0-89.043 39.866-89.043 89.043s39.866 89.043 89.043 89.043c24.23 0 46.186-9.691 62.241-25.392-10.234 5.548-21.957 8.698-34.415 8.698z"/></g><g/><g/><g/><g/><g/><g/><g/><g/><g/><g/><g/><g/><g/><g/><g/></svg>