<svg id="Layer_1" enable-background="new 0 0 512 512" viewBox="0 0 512 512" xmlns="http://www.w3.org/2000/svg"><path d="m144.696 486.598c33.656 16.274 71.413 25.402 111.304 25.402s77.648-9.128 111.304-25.402l22.261-230.598-22.261-230.598c-33.656-16.274-71.413-25.402-111.304-25.402s-77.648 9.128-111.304 25.402l-22.261 230.598z" fill="#ffda44"/><path d="m367.304 486.589c85.631-41.406 144.696-129.096 144.696-230.589s-59.065-189.183-144.696-230.589z" fill="#d80027"/><path d="m144.696 486.589v-461.178c-85.631 41.406-144.696 129.095-144.696 230.589s59.065 189.183 144.696 230.589z" fill="#0052b4"/><g fill="#d80027"><path d="m256 345.043c0-40.851 0-89.043 0-89.043h66.783v33.391c0 5.801-11.13 27.057-38.603 44.522-10.405 6.616-21.176 8.744-28.18 11.13z"/><path d="m189.217 189.217h66.783v66.783h-66.783z"/></g><path d="m289.391 166.957c0-12.295-9.967-22.261-22.261-22.261-4.06 0-7.854 1.104-11.13 3.002-3.277-1.898-7.07-3.002-11.13-3.002-12.294 0-22.261 9.966-22.261 22.261h-55.652v111.303c0 41.436 32.906 65.399 58.711 77.821-1.931 3.298-3.059 7.125-3.059 11.224 0 12.295 9.967 22.261 22.261 22.261 4.06 0 7.854-1.104 11.13-3.002 3.277 1.898 7.07 3.002 11.13 3.002 12.294 0 22.261-9.966 22.261-22.261 0-4.099-1.128-7.926-3.06-11.224 25.805-12.422 58.712-36.384 58.712-77.821v-111.303zm22.261 111.303c0 5.801 0 23.452-27.472 40.918-10.406 6.616-21.176 10.906-28.18 13.291-7.004-2.385-17.774-6.675-28.18-13.291-27.472-17.466-27.472-35.117-27.472-40.918v-77.912h111.304z" fill="#ff9811"/><g/><g/><g/><g/><g/><g/><g/><g/><g/><g/><g/><g/><g/><g/><g/></svg>