<svg id="Layer_1" enable-background="new 0 0 512 512" viewBox="0 0 512 512" xmlns="http://www.w3.org/2000/svg"><path d="m512 256c0 141.384-114.616 256-256 256s-256-114.616-256-256c0 .061 256-255.972 256-256 141.384 0 256 114.616 256 256z" fill="#0052b4"/><g fill="#f0f0f0"><path d="m256 0c-.016 0-.028 0-.043 0z"/><path d="m255.315 256h.685c0-.23 0-.454 0-.685-.228.229-.456.457-.685.685z"/><path d="m256 133.565c0-45.045 0-74.56 0-133.565h-.043c-141.366.024-255.957 114.629-255.957 256h133.565v-75.211l75.211 75.211h46.54c.228-.228.456-.456.685-.685 0-17.247 0-32.636 0-46.537l-75.213-75.213z"/></g><g fill="#d80027"><path d="m129.515 33.391c-40.039 22.799-73.326 56.085-96.124 96.124v126.485h66.783v-155.824-.002h155.826c0-21.063 0-41.129 0-66.783z"/><path d="m256 224.519-90.955-90.953h-31.48v.002l122.433 122.432h.002s0-21.707 0-31.481z"/></g><g fill="#496e2d"><path d=""/><path d=""/></g><path d="m432.939 293.474c7.361-10.128 12.278-22.496 12.278-37.474v-111.304c-9.302 6.988-20.862 11.13-33.391 11.13-18.206 0-34.369-8.743-44.522-22.259-10.154 13.516-26.317 22.259-44.522 22.259-12.53 0-24.09-4.143-33.391-11.128v111.302c0 14.978 4.917 27.346 12.278 37.474z" fill="#f3f3f3"/><g fill="#ff9811"><path d="m409.785 235.351c3.544-8.646 6.3-21.283 6.3-27.572 0-10.105-13.174-18.296-13.174-18.296s-13.174 8.191-13.174 18.296c0 6.29 2.757 18.927 6.299 27.572l-7.605 17.171c4.47 1.818 9.356 2.828 14.481 2.828s10.01-1.011 14.481-2.828z"/><path d="m358.294 179.752c-9.256 1.254-21.579 5.189-27.025 8.333-8.751 5.053-9.259 20.556-9.259 20.556s13.682 7.313 22.432 2.261c5.448-3.145 15.012-11.849 20.725-19.241l18.676-2c-.661-4.778-2.233-9.515-4.792-13.952-2.564-4.437-5.879-8.165-9.689-11.128z"/><path d="m335.892 252.146c5.713 7.388 15.28 16.091 20.728 19.237 8.751 5.052 22.432-2.259 22.432-2.259s-.51-15.505-9.259-20.558c-5.449-3.145-17.77-7.076-27.028-8.328l-11.067-15.173c-3.809 2.962-7.125 6.692-9.688 11.125-2.561 4.439-4.129 9.174-4.793 13.955z"/></g><path d="m298.916 289.394c20.788 33.355 68.389 44.52 68.389 44.52s47.6-11.165 68.389-44.52z" fill="#338af3"/><g/><g/><g/><g/><g/><g/><g/><g/><g/><g/><g/><g/><g/><g/><g/></svg>