<svg id="Layer_1" enable-background="new 0 0 512 512" viewBox="0 0 512 512" xmlns="http://www.w3.org/2000/svg"><path d="m0 256c0 17.535 1.768 34.657 5.127 51.2l250.873 15.583 250.874-15.583c3.36-16.543 5.126-33.665 5.126-51.2s-1.768-34.657-5.126-51.2l-250.874-15.583-250.873 15.583c-3.359 16.543-5.127 33.665-5.127 51.2z" fill="#0052b4"/><path d="m506.874 307.2h-501.747c23.719 116.85 127.024 204.8 250.873 204.8s227.154-87.95 250.874-204.8z" fill="#f0f0f0"/><path d="m5.127 204.8h501.748c-23.721-116.85-127.024-204.8-250.875-204.8s-227.154 87.95-250.873 204.8z"/><path d="m367.304 204.8h-222.608l45.48-21.394-24.219-44.045 49.385 9.445 6.26-49.889 34.398 36.694 34.4-36.694 6.256 49.889 49.387-9.445-24.217 44.047z" fill="#ffda44"/><g fill="#a2001d"><path d="m0 256c0 141.384 114.616 256 256 256l-204.804-409.609c-32.144 42.789-51.196 95.972-51.196 153.609z"/><path d="m256 512c141.384 0 256-114.616 256-256 0-57.637-19.052-110.82-51.196-153.609z"/></g><g/><g/><g/><g/><g/><g/><g/><g/><g/><g/><g/><g/><g/><g/><g/></svg>