<svg id="Layer_1" enable-background="new 0 0 512 512" viewBox="0 0 512 512" xmlns="http://www.w3.org/2000/svg"><circle cx="256" cy="256" fill="#f0f0f0" r="256"/><g fill="#338af3"><path d="m256 0c-101.494 0-189.19 59.065-230.598 144.696h461.195c-41.407-85.631-129.104-144.696-230.597-144.696z"/><path d="m256 512c101.493 0 189.19-59.065 230.598-144.696h-461.196c41.408 85.631 129.104 144.696 230.598 144.696z"/></g><path d="m332.515 256-31.265 14.707 16.649 30.279-33.95-6.495-4.302 34.296-23.647-25.224-23.648 25.224-4.301-34.296-33.95 6.494 16.648-30.279-31.264-14.706 31.265-14.707-16.649-30.278 33.949 6.494 4.303-34.296 23.647 25.224 23.648-25.224 4.301 34.296 33.951-6.494-16.649 30.279z" fill="#ffda44"/><g/><g/><g/><g/><g/><g/><g/><g/><g/><g/><g/><g/><g/><g/><g/></svg>