<svg id="Layer_1" enable-background="new 0 0 512 512" viewBox="0 0 512 512" xmlns="http://www.w3.org/2000/svg"><path d="m512 256c0-31.314-5.632-61.311-15.923-89.043l-240.077-11.131-240.077 11.13c-10.29 27.733-15.923 57.73-15.923 89.044s5.633 61.311 15.923 89.043l240.077 11.131 240.077-11.13c10.291-27.733 15.923-57.73 15.923-89.044z" fill="#d80027"/><path d="m256 512c110.071 0 203.906-69.472 240.077-166.957h-480.154c36.171 97.485 130.006 166.957 240.077 166.957z" fill="#6da544"/><path d="m15.923 166.957h480.155c-36.172-97.485-130.007-166.957-240.078-166.957s-203.906 69.472-240.077 166.957z" fill="#338af3"/><g fill="#f0f0f0"><path d="m261.565 328.348c-39.956 0-72.348-32.392-72.348-72.348s32.392-72.348 72.348-72.348c12.458 0 24.181 3.15 34.415 8.696-16.056-15.701-38.012-25.392-62.241-25.392-49.178 0-89.043 39.866-89.043 89.043s39.866 89.043 89.043 89.043c24.23 0 46.186-9.691 62.241-25.392-10.234 5.548-21.957 8.698-34.415 8.698z"/><path d="m317.217 205.913 9.583 26.951 25.834-12.282-12.281 25.834 26.951 9.584-26.951 9.584 12.281 25.834-25.834-12.282-9.583 26.951-9.582-26.951-25.835 12.282 12.282-25.834-26.952-9.584 26.952-9.584-12.282-25.834 25.835 12.282z"/></g><g/><g/><g/><g/><g/><g/><g/><g/><g/><g/><g/><g/><g/><g/><g/></svg>