<svg id="Layer_1" enable-background="new 0 0 512 512" viewBox="0 0 512 512" xmlns="http://www.w3.org/2000/svg"><path d="m367.304 25.402c-33.656-16.274-71.414-25.402-111.304-25.402s-77.648 9.128-111.304 25.402l-22.261 230.598 22.261 230.598c33.656 16.274 71.414 25.402 111.304 25.402s77.648-9.128 111.304-25.402l22.261-230.598z" fill="#ffda44"/><g fill="#0052b4"><path d="m144.696 25.411c-85.63 41.406-144.696 129.095-144.696 230.589s59.066 189.183 144.696 230.589z"/><path d="m367.304 25.411v461.178c85.63-41.406 144.696-129.096 144.696-230.589s-59.066-189.183-144.696-230.589z"/></g><path d="m333.913 155.826 14.933 7.466-14.933-7.466-14.934-7.466c-.9 1.801-20.399 41.474-23.584 102.075h-22.699v-94.609l-16.696-22.261-16.696 22.261v94.609h-22.699c-3.186-60.601-22.684-100.274-23.585-102.075l-29.866 14.933c.206.41 20.499 41.715 20.499 103.838v16.696h55.652v94.609h33.391v-94.609h55.652v-16.697c0-32.118 5.557-58.602 10.22-75.164 5.083-18.06 10.246-28.607 10.297-28.712z"/><g/><g/><g/><g/><g/><g/><g/><g/><g/><g/><g/><g/><g/><g/><g/></svg>