<svg id="Layer_1" enable-background="new 0 0 512 512" viewBox="0 0 512 512" xmlns="http://www.w3.org/2000/svg"><circle cx="256" cy="256" fill="#f0f0f0" r="256"/><g fill="#d80027"><path d="m2.168 289.391c5.956 45.713 23.978 87.628 50.755 122.464l136.294-122.464z"/><path d="m222.609 509.833v-187.05l-122.464 136.295c34.837 26.777 76.751 44.8 122.464 50.755z"/><path d="m222.609 2.167c-45.713 5.956-87.627 23.978-122.464 50.755l122.464 136.296z"/><path d="m2.168 222.609h187.049l-136.295-122.464c-26.777 34.836-44.799 76.751-50.754 122.464z"/><path d="m289.391 2.167v187.05l122.466-136.295c-34.837-26.775-76.752-44.8-122.466-50.755z"/><path d="m509.833 222.609c-5.956-45.713-23.978-87.628-50.755-122.465l-136.295 122.465z"/><path d="m322.783 289.391 136.296 122.465c26.776-34.837 44.799-76.752 50.755-122.465z"/><path d="m289.391 509.833c45.713-5.956 87.629-23.978 122.465-50.756l-122.465-136.294z"/></g><path d="m459.098 411.876-155.874-155.875-.001-.001 155.875-155.876c-6.722-8.736-14.076-17.14-22.078-25.144-8.002-8.002-16.407-15.357-25.144-22.078l-155.875 155.875h-.001l-155.875-155.875c-8.736 6.722-17.141 14.075-25.145 22.078-8.002 8.004-15.357 16.408-22.078 25.145l155.875 155.874.001.001-155.875 155.876c6.722 8.735 14.076 17.14 22.078 25.144 8.003 8.002 16.408 15.357 25.145 22.078l155.874-155.875 155.876 155.875c8.735-6.722 17.14-14.076 25.144-22.078 8.003-8.004 15.356-16.409 22.078-25.144z" fill="#496e2d"/><path d="m289.391 509.833v-220.439-.002h220.442c1.425-10.931 2.167-22.075 2.167-33.392 0-11.316-.743-22.46-2.167-33.39h-220.44l-.001-.001v-220.441c-10.93-1.423-22.073-2.168-33.392-2.168-11.317.001-22.461.745-33.391 2.168l.001 220.439v.002h-220.442c-1.424 10.93-2.168 22.074-2.168 33.391.001 11.319.744 22.461 2.168 33.391h220.44l.001 220.442c10.931 1.423 22.072 2.167 33.391 2.167s22.462-.744 33.391-2.167z" fill="#f0f0f0"/><g/><g/><g/><g/><g/><g/><g/><g/><g/><g/><g/><g/><g/><g/><g/></svg>