<svg id="Layer_1" enable-background="new 0 0 512 512" viewBox="0 0 512 512" xmlns="http://www.w3.org/2000/svg"><path d="m512 256c0-87.861-44.269-165.374-111.713-211.478l-144.287-11.131-144.287 11.13c-67.443 46.105-111.713 123.619-111.713 211.479 0 87.863 44.27 165.374 111.713 211.478l144.287 11.131 144.287-11.13c67.444-46.105 111.713-123.616 111.713-211.479z" fill="#0052b4"/><g fill="#a2001d"><path d="m400.287 44.522c-41.085-28.086-90.763-44.522-144.287-44.522-53.523 0-103.202 16.436-144.287 44.522z"/><path d="m111.713 467.478c41.084 28.086 90.764 44.522 144.287 44.522 53.524 0 103.202-16.436 144.287-44.522z"/></g><circle cx="256" cy="256" fill="#f0f0f0" r="122.435"/><circle cx="256" cy="256" fill="#6da544" r="100.174"/><circle cx="256" cy="256" fill="#f0f0f0" r="66.783"/><path d="m256 239.304-36.174 16.696v27.826l36.174 22.261 36.174-22.261v-27.826z" fill="#0052b4"/><path d="m219.826 222.609h72.348v33.391h-72.348z" fill="#ffda44"/><g/><g/><g/><g/><g/><g/><g/><g/><g/><g/><g/><g/><g/><g/><g/></svg>