<svg id="Layer_1" enable-background="new 0 0 512 512" viewBox="0 0 512 512" xmlns="http://www.w3.org/2000/svg"><circle cx="256" cy="256" fill="#f0f0f0" r="256"/><path d="m256 0c-90.77 0-170.5 47.243-215.956 118.479l347.159 357.37c74.743-44.702 124.797-126.426 124.797-219.849 0-141.384-114.616-256-256-256z" fill="#ffda44"/><g fill="#0052b4"><path d="m512 256c0-66.422-25.298-126.93-66.783-172.428v344.857c41.485-45.499 66.783-106.007 66.783-172.429z"/><path d="m319.789 481.873 26.815-.017 8.272-25.509 8.302 25.499 13.45-.008c8.247-4.415 16.224-9.267 23.9-14.529l-355.839-355.838c-5.864 8.556-11.212 17.49-16.021 26.75l3.162 9.712 26.815-.017-21.684 15.775 8.302 25.499-21.704-15.748-12.945 9.416c-6.901 23.176-10.614 47.725-10.614 73.142 0 141.384 114.616 256 256 256 29.892 0 58.583-5.132 85.25-14.552zm-262.69-237.003 8.27-25.508-21.702-15.75 26.815-.017 8.271-25.509 8.302 25.499 26.815-.017-21.685 15.775 8.302 25.499-21.704-15.748zm55.225 55.652 8.27-25.508-21.702-15.75 26.815-.017 8.271-25.509 8.302 25.499 26.815-.017-21.684 15.775 8.302 25.499-21.704-15.748zm55.224 55.652 8.27-25.508-21.702-15.75 26.815-.017 8.271-25.509 8.302 25.499 26.815-.017-21.684 15.775 8.302 25.499-21.704-15.75zm76.909 39.877-21.685 15.775 8.27-25.508-21.702-15.75 26.815-.017 8.272-25.509 8.302 25.499 26.815-.017-21.684 15.775 8.302 25.499zm33.54 71.427 8.27-25.508-21.702-15.75 26.815-.017 8.271-25.509 8.302 25.499 26.815-.017-21.684 15.775 8.302 25.499-21.704-15.75z"/></g><g/><g/><g/><g/><g/><g/><g/><g/><g/><g/><g/><g/><g/><g/><g/></svg>