<svg id="Layer_1" enable-background="new 0 0 512 512" viewBox="0 0 512 512" xmlns="http://www.w3.org/2000/svg"><path d="m12.089 178.086c-7.842 24.569-12.089 50.742-12.088 77.913-.001 27.169 4.246 53.343 12.089 77.913l243.911 11.132 243.91-11.132c7.841-24.57 12.089-50.745 12.089-77.912 0-27.17-4.247-53.345-12.089-77.914l-243.911-11.13z" fill="#f0f0f0"/><path d="m512 256c0-15.187-1.33-30.063-3.867-44.523h-504.265c-2.538 14.46-3.868 29.334-3.868 44.522s1.331 30.062 3.868 44.522h504.265c2.536-14.461 3.867-29.335 3.867-44.521z"/><g fill="#338af3"><path d="m256.001 511.999c114.216 0 210.946-74.803 243.91-178.088h-487.821c32.965 103.284 129.696 178.086 243.911 178.088z"/><path d="m256.001.001c-114.215 0-210.945 74.803-243.912 178.085l487.82.001c-32.963-103.283-129.694-178.088-243.908-178.086z"/></g><g/><g/><g/><g/><g/><g/><g/><g/><g/><g/><g/><g/><g/><g/><g/></svg>