<svg id="Layer_1" enable-background="new 0 0 512 512" viewBox="0 0 512 512" xmlns="http://www.w3.org/2000/svg"><circle cx="256" cy="256" fill="#f0f0f0" r="256"/><g fill="#0052b4"><path d="m256 512c77.591 0 147.114-34.524 194.061-89.043h-388.122c46.947 54.519 116.47 89.043 194.061 89.043z"/><path d="m512 256c0-141.384-114.616-256-256-256s-256 114.616-256 256c0 23.107 3.08 45.489 8.819 66.783h494.363c5.738-21.294 8.818-43.676 8.818-66.783z"/></g><path d="m20.348 356.174c4.935 11.596 10.704 22.748 17.227 33.391h436.852c6.521-10.644 12.29-21.796 17.227-33.391z" fill="#d80027"/><g fill="#ffda44"><path d="m182.99 272.696 4.144 12.754h13.411l-10.849 7.883 4.144 12.754-10.85-7.883-10.85 7.883 4.145-12.754-10.849-7.883h13.411z"/><path d="m182.99 439.652 4.144 12.755h13.411l-10.849 7.882 4.144 12.754-10.85-7.882-10.85 7.882 4.145-12.754-10.849-7.882h13.411z"/><path d="m105.274 383.189 4.144 12.753h13.411l-10.849 7.882 4.144 12.756-10.85-7.883-10.85 7.883 4.146-12.756-10.85-7.882h13.41z"/><path d="m134.959 289.391 4.144 12.755h13.41l-10.848 7.882 4.144 12.755-10.85-7.883-10.85 7.883 4.146-12.755-10.851-7.882h13.411z"/><path d="m87.72 341.915 13.408.001 4.145-12.757 4.145 12.756 13.411-.001-10.85 7.883 4.145 12.755-10.851-7.883-10.849 7.88 4.144-12.753z"/><path d="m124.11 453.911 4.144-12.752-10.851-7.882h13.411l4.145-12.755 4.145 12.754h13.41l-10.85 7.882 4.144 12.756-10.85-7.884z"/><path d="m260.677 383.189-4.143 12.753h-13.411l10.848 7.882-4.144 12.756 10.85-7.883 10.85 7.883-4.145-12.756 10.85-7.882h-13.411z"/><path d="m230.992 289.391-4.143 12.755h-13.411l10.848 7.882-4.144 12.755 10.85-7.883 10.85 7.883-4.145-12.755 10.85-7.882h-13.411z"/><path d="m278.232 341.915-13.409.001-4.145-12.757-4.144 12.756-13.411-.001 10.849 7.883-4.145 12.755 10.851-7.883 10.849 7.88-4.144-12.753z"/><path d="m241.841 453.911-4.143-12.752 10.85-7.882h-13.411l-4.145-12.755-4.144 12.754h-13.411l10.85 7.882-4.144 12.756 10.85-7.884z"/></g><g/><g/><g/><g/><g/><g/><g/><g/><g/><g/><g/><g/><g/><g/><g/></svg>