<svg id="Layer_1" enable-background="new 0 0 512 512" viewBox="0 0 512 512" xmlns="http://www.w3.org/2000/svg"><circle cx="256" cy="256" fill="#6da544" r="256"/><g fill="#ffda44"><path d="m392.984 367.304 7.025 14.689 15.864-3.666-7.104 14.651 12.757 10.116-15.884 3.58.045 16.283-12.703-10.187-12.702 10.187.044-16.283-15.883-3.58 12.757-10.116-7.104-14.651 15.863 3.666z"/><path d="m327.632 211.478 7.026 14.689 15.864-3.667-7.105 14.652 12.757 10.116-15.883 3.58.044 16.282-12.703-10.186-12.702 10.186.043-16.282-15.882-3.58 12.757-10.116-7.105-14.652 15.865 3.667z"/><path d="m392.984 122.435 7.025 14.689 15.864-3.668-7.103 14.652 12.756 10.117-15.884 3.579.043 16.283-12.701-10.187-12.702 10.187.044-16.283-15.882-3.579 12.756-10.117-7.104-14.652 15.863 3.668z"/><path d="m450.067 189.217 7.025 14.689 15.865-3.667-7.105 14.652 12.757 10.116-15.883 3.58.044 16.283-12.703-10.187-12.702 10.187.043-16.283-15.882-3.58 12.757-10.116-7.105-14.652 15.864 3.667z"/><path d="m409.249 267.13 5.527 17.007h17.881l-14.467 10.51 5.527 17.005-14.468-10.509-14.465 10.509 5.525-17.005-14.466-10.51h17.881z"/><path d="m283.826 328.348c-39.957 0-72.349-32.392-72.349-72.348s32.391-72.348 72.349-72.348c12.458 0 24.181 3.151 34.415 8.696-16.055-15.702-38.01-25.392-62.243-25.392-49.176 0-89.042 39.866-89.042 89.043s39.866 89.043 89.042 89.043c24.232 0 46.188-9.69 62.242-25.392-10.233 5.547-21.956 8.698-34.414 8.698z"/><path d="m160.986 100.174c-7.7-13.304-22.075-22.261-38.551-22.261s-30.851 8.957-38.551 22.261z"/><path d="m161.134 100.431-38.699 38.699-38.699-38.699c-3.699 6.491-5.822 13.998-5.822 22.004 0 24.589 19.933 44.522 44.522 44.522s44.522-19.932 44.522-44.522c-.001-8.006-2.125-15.513-5.824-22.004z"/></g><path d="m111.304 128v37.554c3.557.915 7.287 1.402 11.13 1.402s7.573-.488 11.13-1.402v-37.554z" fill="#a2001d"/><g/><g/><g/><g/><g/><g/><g/><g/><g/><g/><g/><g/><g/><g/><g/></svg>