<svg id="Layer_1" enable-background="new 0 0 512 512" viewBox="0 0 512 512" xmlns="http://www.w3.org/2000/svg"><circle cx="256" cy="256" fill="#f0f0f0" r="256"/><path d="m8.819 322.783c23.638 87.703 92.695 156.761 180.399 180.399v-180.399z" fill="#d80027"/><path d="m189.217 8.819c-87.703 23.637-156.761 92.695-180.398 180.398h180.399v-180.398z" fill="#0052b4"/><path d="m503.181 189.217c-23.637-87.703-92.695-156.761-180.398-180.398v180.399h180.398z" fill="#d80027"/><path d="m322.783 503.181c87.703-23.638 156.761-92.695 180.399-180.399h-180.399z" fill="#0052b4"/><path d="m322.783 256c0 36.884-29.899 66.783-66.783 66.783-36.883 0-66.783-29.899-66.783-66.783s66.783-66.783 66.783-66.783 66.783 29.899 66.783 66.783z" fill="#496e2d"/><path d="m189.217 256c0-36.884 29.9-66.783 66.783-66.783 36.884 0 66.783 29.899 66.783 66.783" fill="#0052b4"/><path d="m218.435 222.609v41.739c0 20.747 16.818 37.565 37.565 37.565s37.565-16.818 37.565-37.565v-41.739z" fill="#d80027"/><g/><g/><g/><g/><g/><g/><g/><g/><g/><g/><g/><g/><g/><g/><g/></svg>