<svg id="Layer_1" enable-background="new 0 0 512 512" viewBox="0 0 512 512" xmlns="http://www.w3.org/2000/svg"><path d="m233.739 233.739s-158.609 203.317-158.759 203.28c46.326 46.327 110.327 74.981 181.02 74.981 141.384 0 256-114.616 256-256z" fill="#338af3"/><path d="m233.739 256s-158.609-181.055-158.759-181.019c46.326-46.327 110.327-74.981 181.02-74.981 141.384 0 256 114.616 256 256z" fill="#6da544"/><path d="m74.98 74.98c-99.974 99.974-99.974 262.065 0 362.04-.007.041 437.02-181.02 437.02-181.02z" fill="#d80027"/><path d="m133.565 150.261c-49.099 0-89.043 39.945-89.043 89.043v33.391c0 49.099 39.945 89.043 89.043 89.043s89.043-39.945 89.043-89.043v-33.391c.001-49.098-39.944-89.043-89.043-89.043zm55.652 122.435c0 24.872-16.402 45.981-38.957 53.09v-36.394l23.624-23.624-23.611-23.611-.013-8.403v-11.144h-33.39v33.39l-23.608 23.607 23.608 23.607v22.573c-22.555-7.109-38.957-28.218-38.957-53.09v-33.391c0-30.687 24.966-55.652 55.652-55.652s55.652 24.966 55.652 55.652z" fill="#ffda44"/><g/><g/><g/><g/><g/><g/><g/><g/><g/><g/><g/><g/><g/><g/><g/></svg>