<svg id="Layer_1" enable-background="new 0 0 512 512" viewBox="0 0 512 512" xmlns="http://www.w3.org/2000/svg"><circle cx="256" cy="256" fill="#f0f0f0" r="256"/><g fill="#d80027"><path d="m31.127 133.565h449.745c-43.418-79.576-127.837-133.565-224.872-133.565s-181.454 53.989-224.873 133.565z"/><path d="m256 512c97.035 0 181.454-53.989 224.873-133.565h-449.746c43.419 79.576 127.838 133.565 224.873 133.565z"/></g><path d="m345.043 256c0 49.178-39.866 77.913-89.043 77.913s-89.043-28.735-89.043-77.913 39.866-89.043 89.043-89.043 89.043 39.865 89.043 89.043z" fill="#ffda44"/><path d="m345.043 256c0 49.178-39.866 89.043-89.043 89.043s-89.043-39.865-89.043-89.043" fill="#0052b4"/><g fill="#d80027"><path d="m200.348 233.739h22.261v44.522h-22.261z"/><path d="m289.391 233.739h22.261v44.522h-22.261z"/><path d="m244.87 200.348h22.261v77.913h-22.261z"/></g><g/><g/><g/><g/><g/><g/><g/><g/><g/><g/><g/><g/><g/><g/><g/></svg>