<svg id="Layer_1" enable-background="new 0 0 512 512" viewBox="0 0 512 512" xmlns="http://www.w3.org/2000/svg"><g fill="#d80027"><path d="m111.713 467.478c41.084 28.085 90.764 44.522 144.287 44.522s103.202-16.437 144.287-44.522l-144.287-22.261z"/><path d="m400.287 44.522c-41.085-28.085-90.764-44.522-144.287-44.522s-103.203 16.437-144.287 44.522l144.287 22.261z"/></g><path d="m512 256c0-84.71-50.716-169.78-111.713-211.478h-288.574c-67.443 46.104-111.713 123.618-111.713 211.478 0 87.863 44.27 165.374 111.713 211.478h288.574c67.444-46.104 111.713-123.615 111.713-211.478z" fill="#0052b4"/><path d="m241.513 417.597c-3.498-3-85.687-74.448-85.687-161.597s82.188-158.598 85.687-161.597l14.487-12.418 14.487 12.417c3.498 3 85.687 74.448 85.687 161.598s-82.188 158.599-85.687 161.597l-14.487 12.418z" fill="#d80027"/><path d="m333.913 256c0-77.913-77.913-144.696-77.913-144.696s-77.913 66.785-77.913 144.696c0 23.835 7.297 46.624 17.419 66.783h120.988c10.122-20.159 17.419-42.948 17.419-66.783z" fill="#338af3"/><path d="m333.913 256c0 23.835-7.297 46.624-17.419 66.783l-60.494 11.13-60.494-11.13c-10.122-20.158-17.419-42.948-17.419-66.783z" fill="#0052b4"/><path d="m256 400.696s37.528-32.177 60.494-77.913h-120.988c22.966 45.736 60.494 77.913 60.494 77.913z" fill="#ffda44"/><path d="m205.913 211.478h100.174l-50.087 50.087z" fill="#6da544"/><path d="m239.304 244.87h33.391v100.174h-33.391z" fill="#a2001d"/><g/><g/><g/><g/><g/><g/><g/><g/><g/><g/><g/><g/><g/><g/><g/></svg>