<svg id="Layer_1" enable-background="new 0 0 512 512" viewBox="0 0 512 512" xmlns="http://www.w3.org/2000/svg"><circle cx="256" cy="256" fill="#f0f0f0" r="256"/><g fill="#338af3"><path d="m512 256c0-101.494-59.065-189.19-144.696-230.598v461.195c85.631-41.407 144.696-129.104 144.696-230.597z"/><path d="m0 256c0 101.493 59.065 189.19 144.696 230.598v-461.196c-85.631 41.408-144.696 129.104-144.696 230.598z"/></g><path d="m322.898 299.288-43.286-43.286 41.203-41.205-1.867-21.762-11.796-11.798-51.152 51.152-51.152-51.152-11.796 11.798-1.867 21.762 41.203 41.205-43.287 43.286 23.612 23.61 43.287-43.285 43.287 43.285z" fill="#acabb1"/><path d="m318.963 193.037-23.611 23.611c10.071 10.071 16.301 23.984 16.301 39.352 0 30.736-24.917 55.652-55.652 55.652s-55.653-24.916-55.653-55.652c0-15.368 6.23-29.281 16.301-39.352l-23.611-23.611c-16.115 16.112-26.081 38.373-26.081 62.963 0 49.178 39.866 89.043 89.043 89.043s89.043-39.866 89.043-89.043c0-24.589-9.966-46.85-26.08-62.963z" fill="#6da544"/><g/><g/><g/><g/><g/><g/><g/><g/><g/><g/><g/><g/><g/><g/><g/></svg>