<svg id="Layer_1" enable-background="new 0 0 512 512" viewBox="0 0 512 512" xmlns="http://www.w3.org/2000/svg"><circle cx="256" cy="256" fill="#f0f0f0" r="256"/><path d="m509.833 222.609h-220.44-.001v-220.442c-10.931-1.423-22.075-2.167-33.392-2.167s-22.461.744-33.391 2.167v220.442h-220.442c-1.423 10.93-2.167 22.074-2.167 33.391s.744 22.461 2.167 33.391h220.44.001v220.442c10.931 1.423 22.075 2.167 33.392 2.167s22.461-.743 33.391-2.167v-220.439-.002h220.442c1.423-10.931 2.167-22.075 2.167-33.392s-.744-22.461-2.167-33.391z" fill="#d80027"/><path d="m328.348 267.13 16.695 11.131v-44.522l-16.695 11.131h-61.218v-61.218l11.131-16.695h-44.522l11.131 16.695v61.218h-61.218l-16.695-11.131v44.522l16.695-11.131h61.218v61.218l-11.131 16.695h44.522l-11.131-16.695v-61.218z" fill="#ffda44"/><g/><g/><g/><g/><g/><g/><g/><g/><g/><g/><g/><g/><g/><g/><g/></svg>