<svg id="Layer_1" enable-background="new 0 0 512 512" viewBox="0 0 512 512" xmlns="http://www.w3.org/2000/svg"><circle cx="256" cy="256" fill="#f0f0f0" r="256"/><path d="m256 512c64.917 0 124.179-24.176 169.306-64h-338.612c45.127 39.824 104.389 64 169.306 64z" fill="#d80027"/><g fill="#0052b4"><path d="m8.065 320c5.845 22.706 14.731 44.19 26.191 64h443.487c11.46-19.81 20.346-41.294 26.191-64l-247.934-19.478z"/><path d="m503.935 192c-5.845-22.706-14.731-44.19-26.191-64l-221.744-5.565c0-44.713 0-86.97 0-122.435-19.017 0-37.551 2.075-55.386 6.008-.342.076-167.223 131.71-167.223 249.992 4.267.742 222.609 22.261 222.609 22.261s0-48.761 0-86.261z"/></g><path d="m256 159.722v-128h-81.075l25.697-25.697c-105.491 23.266-186.546 111.59-198.952 220.758-1.09 9.59-1.67 19.335-1.67 29.217h129.67v-51.023l51.528 51.023h91.585l-97.859-96.278z" fill="#f0f0f0"/><path d="m256.117 256-96.278-96.278h-30.169v.001l96.277 96.277h-128.556v-128h380.353c-13.938-24.093-31.696-45.697-52.437-64h-327.916v-8.925c-25.828 20.417-47.62 45.705-64 74.479v126.446h-33.391c0 22.099 2.8 43.545 8.065 64h495.87c5.265-20.456 8.065-41.901 8.065-64z" fill="#d80027"/><g/><g/><g/><g/><g/><g/><g/><g/><g/><g/><g/><g/><g/><g/><g/></svg>