<svg id="Layer_1" enable-background="new 0 0 512 512" viewBox="0 0 512 512" xmlns="http://www.w3.org/2000/svg"><circle cx="256" cy="256" fill="#f0f0f0" r="256"/><g fill="#338af3"><path d="m256 512c101.493 0 189.19-59.065 230.598-144.696h-461.196c41.408 85.631 129.104 144.696 230.598 144.696z"/><path d="m256 0c-101.494 0-189.19 59.065-230.598 144.696h461.195c-41.407-85.631-129.104-144.696-230.597-144.696z"/><path d="m157.545 166.957 8.288 25.509h26.821l-21.698 15.764 8.289 25.509-21.7-15.765-21.7 15.765 8.289-25.509-21.699-15.764h26.821z"/><path d="m157.545 278.261 8.288 25.51h26.821l-21.698 15.764 8.289 25.508-21.7-15.765-21.7 15.765 8.289-25.508-21.699-15.764h26.821z"/><path d="m354.455 166.957 8.289 25.509h26.821l-21.699 15.764 8.289 25.509-21.7-15.765-21.7 15.765 8.289-25.509-21.699-15.764h26.822z"/><path d="m354.455 278.261 8.289 25.51h26.821l-21.699 15.764 8.289 25.508-21.7-15.765-21.7 15.765 8.289-25.508-21.699-15.764h26.822z"/><path d="m256 222.609 8.289 25.51h26.821l-21.699 15.764 8.289 25.508-21.7-15.765-21.7 15.765 8.289-25.508-21.699-15.764h26.821z"/></g><g/><g/><g/><g/><g/><g/><g/><g/><g/><g/><g/><g/><g/><g/><g/></svg>