<svg id="Layer_1" enable-background="new 0 0 512 512" viewBox="0 0 512 512" xmlns="http://www.w3.org/2000/svg"><circle cx="256" cy="256" fill="#f0f0f0" r="256"/><path d="m256 0c-110.071 0-203.906 69.472-240.077 166.957h480.155c-36.172-97.485-130.007-166.957-240.078-166.957z" fill="#a2001d"/><path d="m256 512c110.071 0 203.906-69.472 240.077-166.957h-480.154c36.171 97.485 130.006 166.957 240.077 166.957z"/><g fill="#496e2d"><path d="m194.783 239.304c-.14 0-.277.009-.417.011v-.011h-48.937c2.481-9.586 11.179-16.696 21.528-16.696v-33.391c-30.687 0-55.652 24.966-55.652 55.652v27.27.557h83.061.417c3.069 0 5.565 2.497 5.565 5.565v11.13h-111.305v33.391h144.696v-44.522c0-21.48-17.476-38.956-38.956-38.956z"/><path d="m278.261 289.391v-100.174h-33.391v133.566h55.652v-33.392z"/><path d="m389.565 289.392v-100.175h-33.391v100.175h-11.131v-33.391h-33.391v66.783h100.174v-33.392z"/></g><g/><g/><g/><g/><g/><g/><g/><g/><g/><g/><g/><g/><g/><g/><g/></svg>