<svg id="Layer_1" enable-background="new 0 0 512 512" viewBox="0 0 512 512" xmlns="http://www.w3.org/2000/svg"><circle cx="256" cy="256" fill="#f0f0f0" r="256"/><path d="m459.098 411.875-155.875-155.874h-.001l155.876-155.877c-6.723-8.736-14.077-17.141-22.078-25.144-8.003-8.002-16.407-15.357-25.144-22.078l-155.875 155.875-.001.001-155.875-155.876c-8.735 6.722-17.141 14.075-25.144 22.078s-15.357 16.408-22.078 25.144l155.875 155.874.001.001-155.877 155.877c6.723 8.736 14.077 17.141 22.078 25.144 8.003 8.002 16.407 15.357 25.144 22.078l155.876-155.875.001-.001 155.875 155.875c8.735-6.722 17.141-14.076 25.144-22.078 8.003-8.003 15.356-16.408 22.078-25.144z" fill="#d80027"/><path d="m211.478 77.913 44.522 11.13 44.522-11.13v-37.843l-17.809 8.904-26.713-26.713-26.713 26.713-17.809-8.904z" fill="#ffda44"/><path d="m211.478 77.913v27.828c0 34.08 44.522 44.522 44.522 44.522s44.522-10.443 44.522-44.522v-27.828z" fill="#d80027"/><g/><g/><g/><g/><g/><g/><g/><g/><g/><g/><g/><g/><g/><g/><g/></svg>