<svg id="Layer_1" enable-background="new 0 0 512 512" viewBox="0 0 512 512" xmlns="http://www.w3.org/2000/svg"><circle cx="256" cy="256" fill="#f0f0f0" r="256"/><path d="m345.043 256c0 22.261-39.866 77.913-89.043 77.913s-89.043-55.652-89.043-77.913c0-49.178 39.866-89.043 89.043-89.043s89.043 39.865 89.043 89.043z" fill="#d80027"/><path d="m345.043 256c0 49.178-39.866 89.043-89.043 89.043s-89.043-39.865-89.043-89.043" fill="#0052b4"/><path d="m353.427 319.639h33.391v22.261h-33.391z" transform="matrix(.707 -.707 .707 .707 -125.483 358.596)"/><path d="m314.07 358.994h33.391v22.261h-33.391z" transform="matrix(.707 -.707 .707 .707 -164.839 342.294)"/><path d="m400.656 366.851h33.391v22.261h-33.391z" transform="matrix(.707 -.707 .707 .707 -145.034 405.821)"/><path d="m361.299 406.213h33.391v22.261h-33.391z" transform="matrix(.707 -.707 .707 .707 -184.394 389.52)"/><path d="m377.04 343.247h33.391v22.261h-33.391z" transform="matrix(.707 -.707 .707 .707 -135.26 382.208)"/><path d="m337.694 382.602h33.391v22.261h-33.391z" transform="matrix(.707 -.707 .707 .707 -174.613 365.913)"/><path d="m329.544 126.805h89.043v22.261h-89.043z" transform="matrix(-.707 -.707 .707 -.707 541.034 499.974)"/><path d="m314.081 130.749h33.391v22.26h-33.391z" transform="matrix(-.707 -.707 .707 -.707 464.348 476.098)"/><path d="m353.427 170.098h33.391v22.26h-33.391z" transform="matrix(-.707 -.707 .707 -.707 503.692 571.091)"/><path d="m361.282 83.526h33.391v22.261h-33.391z" transform="matrix(-.707 -.707 .707 -.707 578.316 428.859)"/><path d="m400.651 122.879h33.391v22.261h-33.391z" transform="matrix(-.707 -.707 .707 -.707 617.695 523.876)"/><path d="m69.81 386.542h89.043v22.261h-89.043z" transform="matrix(.707 .707 -.707 .707 314.684 35.631)"/><path d="m140.919 382.6h33.391v22.26h-33.391z" transform="matrix(.707 .707 -.707 .707 324.573 3.87)"/><path d="m101.569 343.252h33.391v22.261h-33.391z" transform="matrix(.707 .707 -.707 .707 285.225 20.171)"/><path d="m117.031 339.316h89.043v22.261h-89.043z" transform="matrix(.707 .707 -.707 .707 295.121 -11.592)"/><path d="m69.81 103.201h89.043v22.261h-89.043z" transform="matrix(-.707 .707 -.707 -.707 276.02 114.331)"/><path d="m93.412 126.806h89.043v22.261h-89.043z" transform="matrix(-.707 .707 -.707 -.707 333.003 137.938)"/><path d="m117.038 150.428h89.043v22.26h-89.043z" transform="matrix(-.707 .707 -.707 -.707 390.037 161.557)"/><g/><g/><g/><g/><g/><g/><g/><g/><g/><g/><g/><g/><g/><g/><g/></svg>