<svg id="Layer_1" enable-background="new 0 0 512 512" viewBox="0 0 512 512" xmlns="http://www.w3.org/2000/svg"><circle cx="256" cy="256" fill="#f0f0f0" r="256"/><g fill="#d80027"><path d="m244.87 256h267.13c0-23.107-3.08-45.489-8.819-66.783h-258.311z"/><path d="m244.87 122.435h229.556c-15.671-25.572-35.706-48.175-59.069-66.783h-170.487z"/><path d="m256 512c60.249 0 115.626-20.824 159.357-55.652h-318.714c43.731 34.828 99.108 55.652 159.357 55.652z"/><path d="m37.574 389.565h436.852c12.581-20.528 22.337-42.969 28.755-66.783h-494.362c6.417 23.814 16.174 46.255 28.755 66.783z"/></g><path d="m256 256c0-141.384 0-158.052 0-256-141.384 0-256 114.616-256 256z" fill="#0052b4"/><g fill="#ffda44"><path d="m170.234 219.13c-34.962 0-63.304-28.343-63.304-63.304s28.343-63.304 63.304-63.304c10.901 0 21.158 2.757 30.113 7.609-14.048-13.737-33.26-22.217-54.461-22.217-43.029 0-77.913 34.883-77.913 77.913s34.884 77.913 77.913 77.913c21.201 0 40.413-8.48 54.461-22.217-8.955 4.85-19.211 7.607-30.113 7.607z"/><path d="m188.073 111.304 11.239 23.502 25.381-5.864-11.366 23.439 20.412 16.187-25.414 5.729.071 26.051-20.323-16.298-20.324 16.298.07-26.051-25.414-5.729 20.412-16.187-11.367-23.439 25.383 5.864z"/></g><g/><g/><g/><g/><g/><g/><g/><g/><g/><g/><g/><g/><g/><g/><g/></svg>