<svg id="Layer_1" enable-background="new 0 0 512 512" viewBox="0 0 512 512" xmlns="http://www.w3.org/2000/svg"><circle cx="256" cy="256" fill="#f0f0f0" r="256"/><path d="m74.981 437.02c10.739 10.739 22.197 20.316 34.216 28.748l356.569-356.57c-8.431-12.019-18.008-23.477-28.748-34.216-10.739-10.739-22.197-20.315-34.216-28.747l-356.568 356.57c8.431 12.017 18.008 23.476 28.747 34.215z" fill="#a2001d"/><path d="m74.981 74.98c-80.764 80.764-96.268 202.056-46.545 298.398l344.942-344.941c-96.342-49.723-217.635-34.217-298.397 46.543z" fill="#0052b4"/><path d="m437.019 437.02c80.762-80.762 96.266-202.055 46.545-298.398l-344.942 344.942c96.341 49.723 217.634 34.219 298.397-46.544z" fill="#496e2d"/><path d="m211.478 144.696-28.686 13.493 15.276 27.782-31.149-5.958-3.948 31.465-21.696-23.143-21.697 23.143-3.946-31.465-31.15 5.957 15.275-27.782-28.685-13.492 28.686-13.494-15.276-27.78 31.149 5.958 3.948-31.467 21.696 23.144 21.697-23.144 3.947 31.467 31.149-5.958-15.274 27.781z" fill="#ffda44"/><g/><g/><g/><g/><g/><g/><g/><g/><g/><g/><g/><g/><g/><g/><g/></svg>