<svg id="Layer_1" enable-background="new 0 0 512 512" viewBox="0 0 512 512" xmlns="http://www.w3.org/2000/svg"><circle cx="256" cy="256" fill="#0052b4" r="256"/><path d="m365.865 273.86c.942-5.817 1.439-11.782 1.439-17.86 0 6.078-.497 12.043-1.439 17.86l45.961-17.86-45.961-17.859-25.245-9.809-41.015-15.937-15.937-41.015c26.874 8.809 48.141 30.076 56.951 56.951l25.245 9.809c-7.629-47.096-44.91-84.378-92.005-92.006l-17.859-45.96-17.86 45.961c-47.096 7.63-84.376 44.91-92.005 92.006l-45.961 17.859 45.962 17.86c7.629 47.096 44.909 84.376 92.005 92.005l17.859 45.961 17.86-45.961c47.095-7.629 84.376-44.91 92.005-92.005zm-83.457-44.267-26.408 26.407h94.365l-67.958 26.408-26.407-26.408v94.366l-26.408-67.959 26.408-26.407h-94.365l67.957-26.407 26.408 26.407v-94.365zm-54.077-58.212-15.938 41.015-41.013 15.937c8.809-26.877 30.076-48.142 56.951-56.952zm-56.95 112.288 41.012 15.937 15.938 41.013c-26.875-8.81-48.14-30.075-56.95-56.95zm112.288 56.95 15.937-41.013 41.013-15.937c-8.81 26.875-30.075 48.14-56.95 56.95z" fill="#f0f0f0"/><g fill="#0052b4"><path d="m350.365 256h-94.365l26.408 26.408z"/><path d="m161.635 256h94.365l-26.408-26.407z"/><path d="m256 350.366v-94.366l-26.408 26.408z"/><path d="m256 256 26.408-26.407-26.408-67.958z"/></g><g fill="#f0f0f0"><path d="m244.87 33.391h22.261v44.522h-22.261z"/><path d="m33.391 244.87h44.522v22.261h-44.522z"/><path d="m244.87 434.087h22.261v44.522h-22.261z"/><path d="m434.087 244.87h44.522v22.261h-44.522z"/></g><g/><g/><g/><g/><g/><g/><g/><g/><g/><g/><g/><g/><g/><g/><g/></svg>