<svg id="Layer_1" enable-background="new 0 0 512 512" viewBox="0 0 512 512" xmlns="http://www.w3.org/2000/svg"><circle cx="256" cy="256" fill="#f0f0f0" r="256"/><g fill="#338af3"><path d="m256 0c-101.494 0-189.19 59.065-230.598 144.696h461.195c-41.407-85.631-129.104-144.696-230.597-144.696z"/><path d="m256 512c101.493 0 189.19-59.065 230.598-144.696h-461.196c41.408 85.631 129.104 144.696 230.598 144.696z"/></g><path d="m256 178.087c-43.03 0-77.913 34.883-77.913 77.913s34.883 77.913 77.913 77.913 77.913-34.883 77.913-77.913-34.883-77.913-77.913-77.913zm0 122.435c-24.588 0-44.522-19.932-44.522-44.522s19.933-44.522 44.522-44.522 44.522 19.932 44.522 44.522-19.934 44.522-44.522 44.522z" fill="#ffda44"/><path d="m294.558 267.13-38.558-11.13-38.558 11.13-12.852 22.261h102.819z" fill="#0052b4"/><path d="m256 200.348-25.705 44.522 25.705 11.13 25.705-11.13z" fill="#338af3"/><path d="m217.442 267.13h77.116l-12.853-22.26h-51.41z" fill="#6da544"/><g/><g/><g/><g/><g/><g/><g/><g/><g/><g/><g/><g/><g/><g/><g/></svg>