<svg id="Layer_1" enable-background="new 0 0 512 512" viewBox="0 0 512 512" xmlns="http://www.w3.org/2000/svg"><circle cx="256" cy="256" fill="#338af3" r="256"/><path d="m247.93 417.19c-6.901-.334-12.611-4.819-14.848-10.908-3.951 5.153-10.741 7.747-17.43 6.022-6.701-1.725-11.386-7.268-12.355-13.702-4.92 4.251-12.088 5.408-18.287 2.371-6.211-3.05-9.683-9.429-9.327-15.918-5.665 3.183-12.922 2.872-18.387-1.358-5.454-4.23-7.58-11.164-5.933-17.453-6.189 1.981-13.223.223-17.731-5.02-4.508-5.231-5.199-12.455-2.326-18.276-6.456.689-13-2.449-16.362-8.481-3.373-6.033-2.593-13.256 1.402-18.389-6.467-.623-12.255-5.02-14.325-11.609-2.081-6.589.145-13.512 5.098-17.731-6.211-1.916-10.975-7.392-11.676-14.258-.701-6.867 2.861-13.178 8.548-16.317-5.688-3.117-9.272-9.427-8.593-16.284h.011c.679-6.879 5.443-12.365 11.642-14.303-4.953-4.207-7.201-11.119-5.142-17.709 2.059-6.6 7.835-11.008 14.303-11.654-3.996-5.12-4.797-12.345-1.447-18.387 3.35-6.033 9.895-9.183 16.362-8.504-2.894-5.821-2.215-13.045 2.282-18.298 4.486-5.242 11.52-7.012 17.72-5.053-1.67-6.278.445-13.223 5.899-17.463 5.443-4.242 12.7-4.565 18.365-1.404-.367-6.488 3.094-12.867 9.294-15.928 6.189-3.05 13.368-1.914 18.298 2.337.946-6.432 5.632-11.997 12.321-13.735 6.678-1.736 13.468.835 17.43 5.977 2.237-6.088 7.936-10.585 14.837-10.93 6.89-.355 13.011 3.517 15.861 9.34 3.406-5.521 9.884-8.793 16.707-7.758 6.834 1.024 12.077 6.054 13.702 12.344 4.452-4.743 11.464-6.623 17.942-4.242 6.489 2.393 10.607 8.381 10.919 14.881 5.309-3.739 12.566-4.174 18.432-.523 5.866 3.64 8.682 10.329 7.68 16.751 5.955-2.593 13.145-1.558 18.154 3.183 5.009 4.753 6.433 11.865 4.163 17.953 6.355-1.347 13.19 1.102 17.152 6.767 3.962 5.654 3.929 12.911.49 18.421 6.489-.045 12.689 3.74 15.438 10.073 2.738 6.344 1.235 13.457-3.25 18.165 6.378 1.269 11.687 6.222 13.089 12.989 1.391 6.767-1.514 13.412-6.845 17.119 5.966 2.528 10.173 8.437 10.184 15.338v.223.145c0 6.9-4.185 12.822-10.151 15.371 5.343 3.685 8.27 10.329 6.879 17.096-1.38 6.767-6.678 11.732-13.056 13.023 4.497 4.697 6.022 11.798 3.295 18.154-2.727 6.344-8.927 10.14-15.427 10.106 3.45 5.51 3.506 12.767-.445 18.432-3.951 5.667-10.774 8.137-17.13 6.801 2.282 6.077.868 13.201-4.129 17.965-5.009 4.754-12.188 5.799-18.143 3.228 1.013 6.411-1.792 13.112-7.647 16.774-5.855 3.662-13.112 3.238-18.432-.49-.301 6.5-4.397 12.5-10.874 14.904s0 0-.011 0c-6.478 2.393-13.49.524-17.953-4.206-1.603 6.3-6.834 11.341-13.668 12.388-6.823 1.035-13.312-2.215-16.729-7.736-2.716 5.599-8.459 9.405-15.004 9.405-.279.004-.557-.007-.836-.019z" fill="#f3f3f3"/><circle cx="256" cy="256" fill="#338af3" r="111.304"/><path d="m280.363 218.219c5.468-4.056 9.028-10.539 9.028-17.871v-11.13c0-12.295-9.966-22.261-22.261-22.261h-22.26c-12.295 0-22.261 9.966-22.261 22.261v11.13c0 7.332 3.56 13.815 9.028 17.871l-20.158 204.737s11.13 11.132 44.522 11.132 44.522-11.132 44.522-11.132z" fill="#bdbcc1"/><path d="m255.999 166.957 19.338 59.518h62.585l-50.63 36.788 19.337 59.52-50.63-36.785-50.632 36.785 19.341-59.52-50.631-36.788h62.583z" fill="#f0f0f0"/><g/><g/><g/><g/><g/><g/><g/><g/><g/><g/><g/><g/><g/><g/><g/></svg>