<svg id="Layer_1" enable-background="new 0 0 512 512" viewBox="0 0 512 512" xmlns="http://www.w3.org/2000/svg"><path d="m437.02 437.019c-99.974 99.974-262.064 99.974-362.04 0-99.974-99.974-99.974-262.065.001-362.04 99.974-99.974 246.323-84.233 346.297 15.742 99.973 99.974 115.715 246.324 15.742 346.298z"/><path d="m74.981 74.98c99.974-99.974 262.063-99.972 362.039.001 99.974 99.974 99.974 262.064 0 362.039" fill="#a2001d"/><g fill="#f0f0f0"><path d="m195.642 345.044 4.144 12.755h13.411l-10.85 7.882 4.145 12.755-10.85-7.883-10.85 7.883 4.144-12.755-10.849-7.882h13.41z"/><path d="m161.391 222.609 6.909 21.258h22.35l-18.083 13.137 6.907 21.258-18.083-13.139-18.082 13.139 6.908-21.258-18.084-13.137h22.352z"/><path d="m161.391 378.436 6.907 21.258h22.352l-18.085 13.136 6.909 21.258-18.083-13.139-18.082 13.139 6.906-21.258-18.082-13.136h22.349z"/><path d="m226.741 278.262 6.909 21.258h22.35l-18.083 13.136 6.907 21.258-18.083-13.139-18.082 13.139 6.908-21.258-18.083-13.136h22.351z"/><path d="m96.04 278.262 6.909 21.258h22.349l-18.082 13.136 6.906 21.258-18.082-13.139-18.083 13.139 6.909-21.258-18.084-13.136h22.351z"/></g><path d="m428.549 189.561c-11.441-11.441-26.307-18.2-42.282-19.361l47.82-37.193c-19.045-19.045-44.571-27.646-69.479-25.827-2.982-10.716-8.667-20.838-17.094-29.265l-18.889 37.778c-1.239-2.258-2.808-4.383-4.722-6.296-10.868-10.867-28.486-10.867-39.352 0s-10.868 28.485 0 39.352c1.913 1.913 4.039 3.482 6.297 4.722l-37.778 18.889c8.429 8.43 18.558 14.119 29.28 17.099-1.825 24.908 6.767 50.43 25.813 69.476l41.78-53.718c3.143-3.095 7.294-4.804 11.71-4.804 4.46 0 8.652 1.736 11.805 4.891 3.154 3.153 4.891 7.346 4.891 11.805 0 4.46-1.737 8.652-4.891 11.806l15.742 15.742c7.357-7.358 11.41-17.141 11.41-27.547 0-8.514-2.716-16.608-7.73-23.3 7.306 1.951 14.211 5.773 19.931 11.494 17.36 17.359 17.36 45.605 0 62.963l15.742 15.742c12.613-12.614 19.56-29.384 19.56-47.223-.003-17.841-6.951-34.611-19.564-47.225z" fill="#ffda44"/><g/><g/><g/><g/><g/><g/><g/><g/><g/><g/><g/><g/><g/><g/><g/></svg>