<svg id="Layer_1" enable-background="new 0 0 512 512" viewBox="0 0 512 512" xmlns="http://www.w3.org/2000/svg"><circle cx="256" cy="256" fill="#f0f0f0" r="256"/><g fill="#d80027"><path d="m256 0c-.239-.18-256.068 255.933-256 256 0-141.384 114.616-256 256-256z"/><path d="m256 0c.239-.18 256.068 255.932 256 256 0-141.384-114.616-256-256-256z"/></g><g fill="#0052b4"><path d="m256 512c-.239.18-256.068-255.932-256-256 0 141.384 114.616 256 256 256z"/><path d="m256 512c.239.18 256.068-255.932 256-256 0 141.384-114.616 256-256 256z"/></g><path d="m256 133.565 27.628 85.029h89.405l-72.331 52.55 27.628 85.03-72.33-52.551-72.33 52.551 27.628-85.03-72.33-52.55h89.404z" fill="#ffda44"/><g/><g/><g/><g/><g/><g/><g/><g/><g/><g/><g/><g/><g/><g/><g/></svg>