<svg id="Layer_1" enable-background="new 0 0 512 512" viewBox="0 0 512 512" xmlns="http://www.w3.org/2000/svg"><circle cx="256" cy="256" fill="#ffda44" r="256"/><g fill="#6da544"><path d="m155.826 166.957h340.25c-36.17-97.485-130.006-166.957-240.076-166.957-70.694 0-134.687 28.659-181.011 74.989z"/><path d="m155.826 345.043h340.25c-36.17 97.485-130.006 166.957-240.076 166.957-70.694 0-134.687-28.659-181.011-74.989z"/></g><path d="m74.98 74.98c-99.974 99.974-99.974 262.065 0 362.04 41.313-41.313 81.046-81.046 181.02-181.02z" fill="#d80027"/><path d="m325.074 211.478 11.051 34.012h35.762l-28.932 21.02 11.051 34.012-28.932-21.021-28.932 21.021 11.05-34.012-28.931-21.02h35.762z"/><path d="m436.379 211.478 11.05 34.012h35.762l-28.931 21.02 11.05 34.012-28.931-21.021-28.933 21.021 11.051-34.012-28.932-21.02h35.762z"/><g/><g/><g/><g/><g/><g/><g/><g/><g/><g/><g/><g/><g/><g/><g/></svg>