<svg id="Layer_1" enable-background="new 0 0 512 512" viewBox="0 0 512 512" xmlns="http://www.w3.org/2000/svg"><circle cx="256" cy="256" fill="#f0f0f0" r="256"/><path d="m509.833 222.609h-220.44-.001v-220.442c-10.931-1.423-22.075-2.167-33.392-2.167s-22.461.744-33.391 2.167v220.44.001h-220.442c-1.423 10.931-2.167 22.075-2.167 33.392s.744 22.461 2.167 33.391h220.44.001v220.442c10.931 1.423 22.075 2.167 33.392 2.167s22.461-.743 33.391-2.167v-220.439-.002h220.442c1.423-10.931 2.167-22.075 2.167-33.392s-.744-22.461-2.167-33.391z" fill="#d80027"/><path d="m378.435 89.043c-20.746 0-38.177 14.189-43.119 33.391l43.119 11.13 43.119-11.13c-4.942-19.201-22.373-33.391-43.119-33.391z"/><path d="m333.913 189.217 55.652 11.13v-23.663c15.645-4.028 27.959-16.345 31.986-31.989l-43.116-11.13h-55.652l11.13 33.391z"/><path d="m421.554 122.435h-98.771v22.261 22.261h11.13v-22.261h87.638c.916-3.557 1.406-7.287 1.406-11.13 0-3.844-.487-7.574-1.403-11.131z" fill="#acabb1"/><path d="m144.696 89.043c-20.746 0-38.177 14.189-43.119 33.391l43.119 11.13 43.119-11.13c-4.942-19.201-22.373-33.391-43.119-33.391z"/><path d="m100.174 189.217 55.652 11.13v-23.663c15.645-4.028 27.959-16.345 31.986-31.989l-43.116-11.13h-55.653l11.13 33.391v22.261z"/><path d="m187.815 122.435h-98.772v22.261 22.261h11.13v-22.261h87.638c.916-3.557 1.406-7.287 1.406-11.13 0-3.844-.486-7.574-1.402-11.131z" fill="#acabb1"/><path d="m378.435 311.652c-20.746 0-38.177 14.189-43.119 33.391l43.119 11.13 43.119-11.13c-4.942-19.202-22.373-33.391-43.119-33.391z"/><path d="m333.913 411.826 55.652 11.13v-23.663c15.645-4.028 27.959-16.345 31.986-31.989l-43.116-11.13h-55.652l11.13 33.391z"/><path d="m421.554 345.043h-98.771v22.261 22.261h11.13v-22.261h87.638c.916-3.557 1.406-7.287 1.406-11.13s-.487-7.573-1.403-11.131z" fill="#acabb1"/><path d="m144.696 311.652c-20.746 0-38.177 14.189-43.119 33.391l43.119 11.13 43.119-11.13c-4.942-19.202-22.373-33.391-43.119-33.391z"/><path d="m100.174 411.826 55.652 11.13v-23.663c15.645-4.028 27.959-16.345 31.986-31.989l-43.116-11.13h-55.653l11.13 33.391v22.261z"/><path d="m187.815 345.043h-98.772v22.261 22.261h11.13v-22.261h87.638c.916-3.557 1.406-7.287 1.406-11.13s-.486-7.573-1.402-11.131z" fill="#acabb1"/><g/><g/><g/><g/><g/><g/><g/><g/><g/><g/><g/><g/><g/><g/><g/></svg>