<svg id="Layer_1" enable-background="new 0 0 512 512" viewBox="0 0 512 512" xmlns="http://www.w3.org/2000/svg"><circle cx="256" cy="256" fill="#6da544" r="256"/><g fill="#f0f0f0"><path d="m144.696 306.087c0 18.441 14.95 33.391 33.391 33.391h100.174c0 15.368 12.458 27.826 27.826 27.826h33.391c15.368 0 27.826-12.458 27.826-27.826v-33.391z"/><path d="m370.087 144.696v77.913c0 12.275-9.986 22.261-22.261 22.261v33.391c30.687 0 55.652-24.966 55.652-55.652v-77.913z"/><path d="m130.783 222.609c0 12.275-9.986 22.261-22.261 22.261v33.391c30.687 0 55.652-24.966 55.652-55.652v-77.913h-33.391z"/><path d="m320 144.696h33.391v77.913h-33.391z"/><path d="m269.913 189.217c0 3.069-2.497 5.565-5.565 5.565s-5.565-2.497-5.565-5.565v-44.522h-33.391v44.522c0 3.069-2.497 5.565-5.565 5.565s-5.565-2.497-5.565-5.565v-44.522h-33.392v44.522c0 21.481 17.476 38.957 38.957 38.957 8.273 0 15.945-2.6 22.261-7.016 6.315 4.415 13.988 7.016 22.261 7.016 1.666 0 3.304-.117 4.915-.322-2.366 9.749-11.146 17.017-21.611 17.017v33.391c30.687 0 55.652-24.966 55.652-55.652v-33.391-44.522h-33.391v44.522z"/><path d="m180.87 244.87h50.087v33.391h-50.087z"/></g><g/><g/><g/><g/><g/><g/><g/><g/><g/><g/><g/><g/><g/><g/><g/></svg>