<svg id="Layer_1" enable-background="new 0 0 512 512" viewBox="0 0 512 512" xmlns="http://www.w3.org/2000/svg"><path d="m486.598 367.304c16.274-33.655 25.402-71.414 25.402-111.304s-9.128-77.649-25.402-111.304l-230.598-11.131-230.598 11.13c-16.274 33.656-25.402 71.415-25.402 111.305s9.128 77.649 25.402 111.304l230.598 11.131z" fill="#ffda44"/><path d="m256 0c-101.494 0-189.19 59.065-230.598 144.696h461.195c-41.407-85.631-129.104-144.696-230.597-144.696z"/><path d="m256 512c-101.494 0-189.19-59.065-230.598-144.696h461.195c-41.407 85.631-129.104 144.696-230.597 144.696z" fill="#0052b4"/><path d="m499.911 178.087h-487.822c-7.842 24.569-12.089 50.744-12.089 77.913s4.247 53.344 12.089 77.913h487.821c7.843-24.569 12.09-50.744 12.09-77.913s-4.247-53.344-12.089-77.913z" fill="#a2001d"/><g fill="#ffda44"><path d="m89.043 244.87h333.913v22.261h-333.913z"/><path d="m133.565 200.348h244.87v22.261h-244.87z"/></g><path d="m380.025 256s-57.243 66.783-124.025 66.783-66.783-66.783-66.783-66.783 0-66.783 66.783-66.783 124.025 66.783 124.025 66.783z" fill="#f0f0f0"/><path d="m256 322.783c-66.783 0-124.025-66.783-124.025-66.783s57.242-66.783 124.025-66.783"/><path d="m211.478 233.739h22.261v44.522h-22.261z" fill="#f0f0f0"/><path d="m278.261 233.739h22.261v44.522h-22.261z"/><g fill="#0052b4"><circle cx="89.043" cy="256" r="22.261"/><circle cx="422.957" cy="256" r="22.261"/></g><g/><g/><g/><g/><g/><g/><g/><g/><g/><g/><g/><g/><g/><g/><g/></svg>