<svg id="Layer_1" enable-background="new 0 0 512 512" viewBox="0 0 512 512" xmlns="http://www.w3.org/2000/svg"><circle cx="256" cy="256" fill="#ffda44" r="256"/><path d="m74.98 437.02c10.739 10.739 22.197 20.316 34.216 28.748l356.57-356.571c-8.43-12.019-18.008-23.477-28.747-34.216-10.74-10.739-22.197-20.315-34.216-28.747l-356.569 356.571c8.43 12.016 18.008 23.475 28.746 34.215z"/><path d="m74.98 74.98c-80.762 80.764-96.267 202.055-46.544 298.398l344.942-344.941c-96.343-49.723-217.635-34.217-298.398 46.543z" fill="#6da544"/><path d="m437.019 437.02c80.762-80.762 96.266-202.055 46.545-298.398l-344.942 344.942c96.341 49.723 217.634 34.218 298.397-46.544z" fill="#338af3"/><g/><g/><g/><g/><g/><g/><g/><g/><g/><g/><g/><g/><g/><g/><g/></svg>