<svg id="Layer_1" enable-background="new 0 0 512 512" viewBox="0 0 512 512" xmlns="http://www.w3.org/2000/svg"><circle cx="256" cy="256" fill="#f0f0f0" r="256"/><g fill="#0052b4"><path d="m52.92 100.142c-20.109 26.163-35.272 56.318-44.101 89.077h133.178z"/><path d="m503.181 189.219c-8.829-32.758-23.993-62.913-44.101-89.076l-89.075 89.076z"/><path d="m8.819 322.784c8.83 32.758 23.993 62.913 44.101 89.075l89.074-89.075z"/><path d="m411.858 52.921c-26.163-20.109-56.317-35.272-89.076-44.102v133.177z"/><path d="m100.142 459.079c26.163 20.109 56.318 35.272 89.076 44.102v-133.176z"/><path d="m189.217 8.819c-32.758 8.83-62.913 23.993-89.075 44.101l89.075 89.075z"/><path d="m322.783 503.181c32.758-8.83 62.913-23.993 89.075-44.101l-89.075-89.075z"/><path d="m370.005 322.784 89.075 89.076c20.108-26.162 35.272-56.318 44.101-89.076z"/></g><g fill="#d80027"><path d="m509.833 222.609h-220.44-.001v-220.442c-10.931-1.423-22.075-2.167-33.392-2.167-11.319 0-22.461.744-33.391 2.167v220.44.001h-220.442c-1.423 10.931-2.167 22.075-2.167 33.392 0 11.319.744 22.461 2.167 33.391h220.44.001v220.442c10.931 1.423 22.073 2.167 33.392 2.167 11.317 0 22.461-.743 33.391-2.167v-220.44-.001h220.442c1.423-10.931 2.167-22.073 2.167-33.392 0-11.317-.744-22.461-2.167-33.391z"/><path d="m322.783 322.784 114.236 114.236c5.254-5.252 10.266-10.743 15.048-16.435l-97.802-97.802h-31.482z"/><path d="m189.217 322.784h-.002l-114.235 114.235c5.252 5.254 10.743 10.266 16.435 15.048l97.802-97.804z"/><path d="m189.217 189.219v-.002l-114.236-114.237c-5.254 5.252-10.266 10.743-15.048 16.435l97.803 97.803h31.481z"/><path d="m322.783 189.219 114.237-114.238c-5.252-5.254-10.743-10.266-16.435-15.047l-97.802 97.803z"/></g><g/><g/><g/><g/><g/><g/><g/><g/><g/><g/><g/><g/><g/><g/><g/></svg>