<svg id="Layer_1" enable-background="new 0 0 512.001 512.001" viewBox="0 0 512.001 512.001" xmlns="http://www.w3.org/2000/svg"><path d="m512 256.001c0-11.317-.743-22.461-2.167-33.391h-287.227c-52.301-52.298-147.63-147.621-147.626-147.629-99.974 99.974-99.974 262.064 0 362.04l147.629-147.628h287.224c1.423-10.931 2.167-22.075 2.167-33.392z"/><g fill="#f0f0f0"><path d="m511.927 261.823c-.011.494-.022.99-.036 1.484.012-.496.024-.99.036-1.484z"/><path d="m511.681 268.819c-.023.489-.057.976-.083 1.464.026-.487.058-.975.083-1.464z"/><path d="m511.336 274.399c-.051.719-.101 1.438-.159 2.155.058-.717.107-1.436.159-2.155z"/><path d="m510.481 228.099c.094.856.188 1.711.273 2.569-.085-.859-.18-1.713-.273-2.569z"/><path d="m511.597 241.718c.027.488.06.975.083 1.464-.024-.489-.056-.977-.083-1.464z"/><path d="m511.89 248.696c.014.494.024.99.036 1.484-.011-.496-.023-.99-.036-1.484z"/><path d="m511.177 235.447c.058.717.108 1.436.159 2.155-.052-.719-.101-1.438-.159-2.155z"/></g><path d="m509.833 222.609c.115.877.217 1.759.322 2.638-15.194-126.882-123.18-225.246-254.155-225.246-70.694 0-134.695 28.655-181.022 74.984l147.624 147.625h287.231z" fill="#d80027"/><path d="m509.833 289.392h-287.231l-147.624 147.625c46.327 46.328 110.328 74.984 181.022 74.984 130.975 0 238.962-98.364 254.155-225.247-.105.879-.209 1.761-.322 2.638z" fill="#6da544"/><path d="m510.753 281.333c-.085.858-.179 1.713-.273 2.569.094-.856.189-1.71.273-2.569z" fill="#f0f0f0"/><path d="m511.336 237.602c.097 1.369.185 2.741.26 4.116-.076-1.375-.163-2.747-.26-4.116z"/><path d="m510.155 225.247c.115.949.224 1.9.326 2.852-.104-.952-.213-1.902-.326-2.852z"/><path d="m510.753 230.668c.156 1.589.297 3.182.424 4.781-.126-1.599-.267-3.193-.424-4.781z"/><path d="m512 256.001c0 1.947-.03 3.886-.073 5.821.043-1.936.073-3.875.073-5.821z"/><path d="m511.597 270.283c-.076 1.375-.164 2.747-.26 4.116.096-1.369.183-2.741.26-4.116z"/><path d="m511.177 276.554c-.127 1.597-.268 3.191-.424 4.779.157-1.588.298-3.182.424-4.779z"/><path d="m510.481 283.902c-.102.952-.211 1.902-.326 2.852.113-.949.222-1.9.326-2.852z"/><path d="m511.927 250.179c.043 1.936.073 3.876.073 5.821 0-1.945-.03-3.885-.073-5.821z"/><path d="m511.681 243.182c.09 1.832.158 3.671.21 5.513-.052-1.843-.119-3.681-.21-5.513z"/><path d="m511.89 263.307c-.052 1.842-.12 3.681-.21 5.513.092-1.833.159-3.671.21-5.513z"/><g fill="#ffda44"><path d="m511.756 244.778h-298.555l-153.357-153.334c-4.957 5.228-10.33 12.528-13.653 17.727l146.659 146.736-146.782 146.785c2.906 5.17 9.237 12.822 13.682 17.801l153.454-153.454h298.588c.159-3.692.209-7.4.209-11.13-.001-4.998-.139-8.683-.245-11.131z"/><path d="m62.187 310.573v-21.443c21.398 0 38.805-17.409 38.805-38.805 0-15.139-12.317-27.455-27.455-27.455-10.313 0-18.704 8.39-18.704 18.705 0 6.595 5.365 11.961 11.961 11.961 3.728 0 6.761-3.035 6.761-6.763h21.442c0 15.553-12.652 28.205-28.202 28.205-18.419.001-33.402-14.985-33.402-33.401 0-22.137 18.01-40.146 40.145-40.146 26.962 0 48.898 21.936 48.898 48.897-.001 33.217-27.028 60.245-60.249 60.245z"/></g><g/><g/><g/><g/><g/><g/><g/><g/><g/><g/><g/><g/><g/><g/><g/></svg>