<svg id="Layer_1" enable-background="new 0 0 512 512" viewBox="0 0 512 512" xmlns="http://www.w3.org/2000/svg"><circle cx="256" cy="256" fill="#496e2d" r="256"/><path d="m356.174 256h-100.174v256c29.924 0 58.641-5.151 85.333-14.586z" fill="#d80027"/><path d="m426.666 446.793c52.368-46.874 85.334-114.98 85.334-190.793h-100.174z" fill="#ff9811"/><path d="m341.333 256v241.414c31.797-11.241 60.711-28.58 85.334-50.62v-190.794z"/><path d="m473.043 166.957h-66.783c0-12.294-9.967-22.261-22.261-22.261s-22.261 9.967-22.261 22.261h-66.783c0 12.295 10.709 22.261 23.002 22.261h-.741c0 12.295 9.965 22.261 22.261 22.261 0 12.295 9.965 22.261 22.261 22.261h44.522c12.294 0 22.261-9.966 22.261-22.261 12.294 0 22.261-9.966 22.261-22.261h-.741c12.294-.001 23.002-9.967 23.002-22.261z" fill="#ff9811"/><g/><g/><g/><g/><g/><g/><g/><g/><g/><g/><g/><g/><g/><g/><g/></svg>