<svg width="32" height="32" viewBox="0 0 32 32" fill="none" xmlns="http://www.w3.org/2000/svg">
<path d="M12.3379 29.3331C6.60301 29.3419 1.1987 24.5069 0.180905 18.3594C-0.991296 11.2862 3.64967 4.59113 10.722 3.23951C13.9581 2.62238 17.0006 3.21344 19.8648 4.83234C20.8369 5.38211 20.9457 6.53164 20.2432 7.24657C19.3342 8.17228 18.9362 9.30877 19.0275 10.6126C19.1232 11.9794 19.7604 13.0398 20.8347 13.8591C21.0022 13.9873 21.187 14.0894 21.3654 14.2024C22.3397 14.8152 22.3418 16.0799 21.3523 16.6797C20.7608 17.0382 20.2367 17.4598 19.8344 18.0248C18.4838 19.9174 18.8165 22.4881 20.6086 23.9767C20.7456 24.0896 20.8848 24.2048 21.037 24.2961C21.8634 24.7937 21.9526 26.0844 21.0522 26.7212C20.241 27.2927 19.4037 27.8164 18.4947 28.2162C16.7962 28.9638 15.0172 29.344 12.3379 29.3353V29.3331ZM13.2513 9.61733C13.2643 8.6612 12.4662 7.8398 11.505 7.82242C10.5545 7.80503 9.72384 8.6134 9.70859 9.56952C9.69334 10.5148 10.5067 11.3514 11.4571 11.3688C12.4031 11.3862 13.2382 10.5691 13.2513 9.61733ZM6.5008 12.5856C5.53738 12.5901 4.72618 13.4005 4.73705 14.3545C4.74793 15.302 5.58522 16.1255 6.52689 16.1147C7.48162 16.1038 8.29064 15.2824 8.28411 14.3285C8.27759 13.3637 7.47944 12.5813 6.50297 12.5856H6.5008ZM8.1558 22.5686C9.10835 22.5772 9.93046 21.7667 9.93695 20.8106C9.94345 19.8501 9.14097 19.0352 8.1819 19.0265C7.23152 19.0178 6.40293 19.8305 6.39423 20.7845C6.38336 21.7276 7.2076 22.5598 8.1558 22.5686ZM15.9959 23.9354C16.0524 23.1618 15.4174 22.1926 14.2495 22.16C13.2991 22.1339 12.4902 22.9662 12.4836 23.9289C12.4771 24.8914 13.2752 25.6912 14.2451 25.6934C15.2238 25.6955 15.9959 24.9198 15.9959 23.9354ZM13.4927 14.6327C12.5119 14.6327 11.7333 15.4041 11.7311 16.3842C11.7289 17.349 12.5315 18.1594 13.4883 18.1594C14.4431 18.1594 15.2587 17.3424 15.2608 16.3885C15.2608 15.4193 14.4713 14.6348 13.4927 14.6327Z" fill="#182FFF"/>
<path d="M27.5308 20.2999C27.5243 21.4125 26.663 22.2426 25.5322 22.2273C24.4818 22.2143 23.5944 21.3517 23.6118 20.3021C23.6314 19.1264 24.4578 18.3463 25.5778 18.3095C26.6565 18.2725 27.5373 19.1939 27.5308 20.2999Z" fill="#182FFF"/>
<path d="M30.3145 16.9709C29.3859 16.9665 28.6399 16.2124 28.653 15.2933C28.6661 14.3719 29.4402 13.6092 30.3406 13.6309C31.2779 13.6548 32.0108 14.4023 31.9999 15.3194C31.9891 16.2494 31.2497 16.9752 30.3123 16.9686L30.3145 16.9709Z" fill="#182FFF"/>
<path d="M25.2886 12.0272C24.3513 12.0316 23.6054 11.3057 23.601 10.3822C23.5966 9.46087 24.3382 8.72422 25.2734 8.72205C26.2237 8.71987 26.9458 9.43045 26.9458 10.3692C26.9458 11.3188 26.2412 12.0229 25.2886 12.0272Z" fill="#182FFF"/>
</svg>
