<svg width="100" height="100" viewBox="0 0 100 100" fill="none" xmlns="http://www.w3.org/2000/svg">
<path d="M38.5067 91.1862C20.6082 91.2135 3.74118 76.1234 0.564609 56.937C-3.09386 34.8613 11.3907 13.966 33.4636 9.74753C43.5637 7.82144 53.0594 9.66615 61.9984 14.7188C65.0323 16.4346 65.3719 20.0223 63.1794 22.2536C60.3423 25.1428 59.1002 28.6898 59.3852 32.759C59.684 37.0248 61.6726 40.3345 65.0256 42.8913C65.5482 43.2914 66.1252 43.6102 66.6819 43.9631C69.7226 45.8756 69.7294 49.8226 66.6411 51.6946C64.7949 52.8136 63.1591 54.1293 61.9035 55.8926C57.6883 61.7997 58.7268 69.8229 64.3199 74.4686C64.7473 74.8212 65.1819 75.1808 65.6569 75.4655C68.236 77.0187 68.5146 81.0471 65.7045 83.0344C63.1727 84.818 60.5594 86.4525 57.7224 87.7003C52.4213 90.0335 46.869 91.2203 38.5067 91.193V91.1862ZM41.3576 29.6528C41.3982 26.6687 38.9072 24.1051 35.9073 24.0509C32.941 23.9966 30.3483 26.5195 30.3007 29.5036C30.2531 32.4538 32.7917 35.065 35.7578 35.1191C38.7103 35.1734 41.3168 32.6234 41.3576 29.6528ZM20.2891 38.917C17.2823 38.9308 14.7505 41.4603 14.7844 44.4378C14.8184 47.3947 17.4316 49.965 20.3706 49.9312C23.3503 49.8972 25.8753 47.3336 25.8549 44.3564C25.8345 41.3452 23.3435 38.9035 20.2959 38.917H20.2891ZM25.4544 70.0739C28.4274 70.1009 30.9932 67.5711 31.0134 64.5872C31.0337 61.5895 28.5292 59.0462 25.5359 59.0192C22.5697 58.9919 19.9837 61.5284 19.9565 64.5059C19.9226 67.4493 22.4951 70.0466 25.4544 70.0739ZM49.9235 74.3398C50.0998 71.9253 48.1179 68.9006 44.4729 68.7987C41.5069 68.7174 38.9821 71.315 38.9615 74.3195C38.9412 77.3237 41.4322 79.8197 44.4594 79.8265C47.5139 79.8332 49.9235 77.412 49.9235 74.3398ZM42.1109 45.3058C39.0499 45.3058 36.62 47.7135 36.613 50.7722C36.6062 53.7835 39.111 56.313 42.0974 56.313C45.0772 56.313 47.6226 53.7629 47.6294 50.7857C47.6294 47.761 45.1654 45.3125 42.1109 45.3058Z" fill="#182FFF"/>
<path d="M85.9243 62.9932C85.904 66.4659 83.2159 69.0565 79.6866 69.0089C76.4083 68.9684 73.6388 66.276 73.6931 63.0003C73.7542 59.3309 76.3334 56.8962 79.8291 56.7812C83.1956 56.6658 85.9445 59.5414 85.9243 62.9932Z" fill="#182FFF"/>
<path d="M94.6121 52.6034C91.7139 52.5896 89.3857 50.2362 89.4265 47.3677C89.4673 44.4921 91.8834 42.1114 94.6935 42.1792C97.619 42.2538 99.9064 44.5869 99.8723 47.449C99.8385 50.3516 97.5309 52.6169 94.6053 52.5964L94.6121 52.6034Z" fill="#182FFF"/>
<path d="M78.9266 37.1742C76.0011 37.1877 73.6731 34.9224 73.6593 32.0401C73.6458 29.1645 75.9602 26.8654 78.879 26.8587C81.845 26.8518 84.0987 29.0696 84.0987 31.9994C84.0987 34.9632 81.8994 37.1607 78.9266 37.1742Z" fill="#182FFF"/>
</svg>
