<svg width="391" height="53" viewBox="0 0 391 53" fill="none" xmlns="http://www.w3.org/2000/svg">
<path d="M11.7601 51.4516L0.442871 13.0235H8.17972L15.7162 41.2441H16.0919L23.6534 13.0235H31.3905L38.902 41.119H39.2775L46.764 13.0235H54.5008L43.2086 51.4516H35.5717L27.7599 23.7063H27.1838L19.3718 51.4516H11.7601ZM77.0107 52.2272C73.2214 52.2272 69.9581 51.4181 67.2206 49.8004C64.4995 48.1659 62.3963 45.8724 60.9107 42.9205C59.4417 39.9516 58.7073 36.4739 58.7073 32.4878C58.7073 28.5516 59.4417 25.0822 60.9107 22.08C62.3963 19.0779 64.4663 16.7345 67.1204 15.0499C69.7912 13.3655 72.9127 12.523 76.4848 12.523C78.6547 12.523 80.7579 12.8817 82.7944 13.5988C84.831 14.316 86.6589 15.442 88.2779 16.9764C89.897 18.5108 91.1741 20.504 92.1089 22.9557C93.0437 25.391 93.5108 28.3514 93.5108 31.8373V34.4892H62.9389V28.8851H86.1747C86.1747 26.9168 85.774 25.174 84.9729 23.6561C84.1717 22.1217 83.0447 20.9126 81.5925 20.0287C80.1571 19.1446 78.4711 18.7028 76.5348 18.7028C74.4315 18.7028 72.5954 19.2197 71.0263 20.2539C69.4739 21.271 68.272 22.6055 67.4209 24.2567C66.5863 25.8912 66.1688 27.6674 66.1688 29.5855V33.9638C66.1688 36.5323 66.6195 38.7172 67.5208 40.5187C68.4392 42.3199 69.716 43.6961 71.3518 44.6466C72.9876 45.5806 74.8989 46.0477 77.0856 46.0477C78.5046 46.0477 79.7981 45.8475 80.9668 45.4471C82.1352 45.0302 83.1449 44.4132 83.9963 43.596C84.8477 42.7787 85.4987 41.7695 85.9494 40.5686L93.0352 41.8447C92.4676 43.9294 91.4493 45.7559 89.9804 47.3237C88.5282 48.8748 86.7006 50.084 84.4972 50.9511C82.3103 51.8018 79.8148 52.2272 77.0107 52.2272ZM102.418 51.4516V0.214066H109.905V19.2529H110.356C110.79 18.4524 111.416 17.5268 112.233 16.4759C113.051 15.4253 114.187 14.508 115.639 13.7239C117.091 12.9234 119.011 12.523 121.398 12.523C124.502 12.523 127.273 13.3071 129.71 14.8749C132.147 16.4427 134.059 18.7025 135.444 21.6547C136.847 24.6069 137.548 28.1594 137.548 32.3126C137.548 36.4657 136.855 40.0267 135.469 42.9954C134.084 45.9476 132.181 48.2243 129.76 49.8254C127.34 51.4099 124.577 52.2022 121.473 52.2022C119.136 52.2022 117.225 51.8103 115.739 51.0263C114.27 50.2425 113.118 49.3251 112.284 48.2742C111.449 47.2236 110.806 46.2896 110.356 45.4723H109.73V51.4516H102.418ZM109.755 32.2374C109.755 34.9395 110.147 37.3079 110.931 39.3427C111.716 41.3776 112.851 42.9704 114.337 44.1211C115.822 45.2554 117.642 45.8225 119.795 45.8225C122.032 45.8225 123.901 45.2304 125.404 44.0463C126.906 42.8454 128.041 41.2191 128.809 39.1675C129.594 37.1162 129.986 34.806 129.986 32.2374C129.986 29.7023 129.602 27.4256 128.834 25.4074C128.083 23.3893 126.948 21.7965 125.429 20.629C123.926 19.4616 122.049 18.8777 119.795 18.8777C117.625 18.8777 115.789 19.4363 114.287 20.5539C112.801 21.6714 111.674 23.231 110.906 25.2325C110.139 27.2339 109.755 29.569 109.755 32.2374ZM162.154 52.2272C158.432 52.2272 155.227 51.385 152.539 49.7003C149.869 47.9992 147.815 45.6558 146.38 42.6701C144.944 39.6847 144.226 36.2655 144.226 32.4127C144.226 28.5099 144.961 25.0657 146.43 22.08C147.899 19.0779 149.969 16.7345 152.64 15.0499C155.31 13.3655 158.457 12.523 162.079 12.523C165 12.523 167.604 13.0652 169.89 14.1492C172.178 15.2166 174.023 16.7178 175.425 18.6526C176.844 20.5873 177.687 22.8474 177.954 25.4327H170.668C170.266 23.6312 169.349 22.08 167.913 20.779C166.494 19.4783 164.591 18.8278 162.204 18.8278C160.118 18.8278 158.29 19.3782 156.721 20.479C155.168 21.5631 153.958 23.1142 153.09 25.1324C152.222 27.1338 151.788 29.5021 151.788 32.2374C151.788 35.0396 152.214 37.4582 153.065 39.4927C153.916 41.5276 155.118 43.1037 156.671 44.2212C158.24 45.3388 160.084 45.8977 162.204 45.8977C163.623 45.8977 164.908 45.6391 166.06 45.1221C167.229 44.5882 168.205 43.8293 168.991 42.8454C169.79 41.8614 170.351 40.6769 170.668 39.2928H177.954C177.687 41.7777 176.876 43.9961 175.525 45.9476C174.173 47.8991 172.36 49.4335 170.092 50.551C167.838 51.6685 165.192 52.2272 162.154 52.2272ZM185.96 51.4516V13.0235H193.196V19.1278H193.595C194.297 17.0598 195.531 15.4335 197.303 14.2493C199.089 13.0484 201.107 12.4481 203.361 12.4481C203.828 12.4481 204.38 12.4646 205.015 12.498C205.664 12.5315 206.175 12.5732 206.542 12.6231V19.7783C206.24 19.695 205.705 19.6034 204.938 19.5033C204.172 19.3864 203.402 19.328 202.635 19.328C200.866 19.328 199.289 19.7035 197.902 20.4538C196.533 21.1877 195.449 22.2136 194.647 23.5311C193.848 24.8321 193.445 26.3165 193.445 27.9845V51.4516H185.96ZM237.381 35.5149V13.0235H244.893V51.4516H237.534V44.7969H237.131C236.247 46.8482 234.828 48.5578 232.874 49.9255C230.938 51.2764 228.526 51.9521 225.638 51.9521C223.168 51.9521 220.982 51.4099 219.078 50.3259C217.192 49.225 215.708 47.5988 214.621 45.4471C213.555 43.2957 213.02 40.6352 213.02 37.4664V13.0235H220.506V36.5658C220.506 39.1842 221.232 41.269 222.686 42.8204C224.137 44.3715 226.023 45.1471 228.344 45.1471C229.746 45.1471 231.138 44.7969 232.525 44.0962C233.926 43.3958 235.087 42.3366 236.006 40.9188C236.94 39.5013 237.399 37.6997 237.381 35.5149ZM254.952 51.4516V13.0235H262.138V19.2781H262.614C263.416 17.1599 264.727 15.5087 266.545 14.3245C268.367 13.1236 270.544 12.523 273.082 12.523C275.652 12.523 277.806 13.1236 279.542 14.3245C281.293 15.5254 282.589 17.1766 283.423 19.2781H283.823C284.739 17.2265 286.202 15.592 288.203 14.3744C290.207 13.1403 292.595 12.523 295.365 12.523C298.853 12.523 301.699 13.6156 303.903 15.8005C306.124 17.9853 307.234 21.2795 307.234 25.6828V51.4516H299.746V26.3832C299.746 23.7815 299.038 21.8966 297.619 20.7291C296.2 19.5617 294.505 18.9778 292.536 18.9778C290.098 18.9778 288.203 19.7284 286.852 21.2293C285.5 22.7138 284.824 24.6236 284.824 26.9585V51.4516H277.362V25.9079C277.362 23.8231 276.713 22.1467 275.409 20.8791C274.107 19.6116 272.412 18.9778 270.326 18.9778C268.907 18.9778 267.597 19.353 266.395 20.1036C265.211 20.8375 264.251 21.8634 263.516 23.1808C262.799 24.4986 262.441 26.0247 262.441 27.7593V51.4516H254.952ZM317.869 51.4516V0.214066H325.355V19.2529H325.805C326.239 18.4524 326.865 17.5268 327.685 16.4759C328.501 15.4253 329.635 14.508 331.09 13.7239C332.541 12.9234 334.459 12.523 336.848 12.523C339.953 12.523 342.724 13.3071 345.162 14.8749C347.598 16.4427 349.51 18.7025 350.894 21.6547C352.295 24.6069 352.997 28.1594 352.997 32.3126C352.997 36.4657 352.304 40.0267 350.92 42.9954C349.534 45.9476 347.63 48.2243 345.212 49.8254C342.791 51.4099 340.027 52.2022 336.924 52.2022C334.586 52.2022 332.676 51.8103 331.19 51.0263C329.721 50.2425 328.569 49.3251 327.735 48.2742C326.9 47.2236 326.257 46.2896 325.805 45.4723H325.179V51.4516H317.869ZM325.205 32.2374C325.205 34.9395 325.596 37.3079 326.38 39.3427C327.168 41.3776 328.302 42.9704 329.788 44.1211C331.272 45.2554 333.093 45.8225 335.247 45.8225C337.482 45.8225 339.351 45.2304 340.855 44.0463C342.356 42.8454 343.49 41.2191 344.26 39.1675C345.045 37.1162 345.435 34.806 345.435 32.2374C345.435 29.7023 345.053 27.4256 344.284 25.4074C343.534 23.3893 342.398 21.7965 340.879 20.629C339.377 19.4616 337.5 18.8777 335.247 18.8777C333.076 18.8777 331.24 19.4363 329.738 20.5539C328.252 21.6714 327.124 23.231 326.357 25.2325C325.59 27.2339 325.205 29.569 325.205 32.2374ZM390.223 22.4053L383.439 23.6062C383.154 22.7388 382.705 21.9133 382.085 21.1295C381.486 20.3455 380.666 19.7035 379.632 19.203C378.598 18.7025 377.305 18.4524 375.751 18.4524C373.633 18.4524 371.861 18.9279 370.442 19.8784C369.023 20.8125 368.315 22.0216 368.315 23.5061C368.315 24.7904 368.791 25.8245 369.743 26.6083C370.695 27.3924 372.228 28.0344 374.35 28.5349L380.457 29.936C383.998 30.7532 386.636 32.0123 388.372 33.7137C390.108 35.4148 390.975 37.6249 390.975 40.3434C390.975 42.6452 390.308 44.6968 388.971 46.498C387.652 48.2828 385.807 49.6836 383.439 50.701C381.083 51.7184 378.357 52.2272 375.252 52.2272C370.945 52.2272 367.431 51.3098 364.711 49.4752C361.987 47.6237 360.318 44.9968 359.701 41.5943L366.937 40.4935C367.39 42.3783 368.315 43.8044 369.717 44.7716C371.118 45.7224 372.948 46.1977 375.202 46.1977C377.655 46.1977 379.614 45.689 381.083 44.6715C382.552 43.6376 383.287 42.3783 383.287 40.8939C383.287 39.6929 382.837 38.684 381.935 37.8668C381.051 37.0492 379.691 36.4322 377.854 36.0154L371.344 34.5893C367.757 33.7721 365.101 32.4711 363.383 30.6863C361.679 28.9018 360.83 26.6418 360.83 23.9065C360.83 21.638 361.464 19.6533 362.73 17.9522C364 16.2508 365.753 14.9248 367.989 13.9743C370.225 13.0068 372.79 12.523 375.678 12.523C379.832 12.523 383.104 13.4239 385.49 15.2251C387.878 17.0096 389.456 19.4032 390.223 22.4053Z" fill="#232D42"/>
</svg>
