<svg width="177" height="31" viewBox="0 0 177 31" fill="none" xmlns="http://www.w3.org/2000/svg">
<path d="M13.1071 29.4975C7.0147 29.5068 1.27344 24.3662 0.192185 17.8302C-1.0531 10.3099 3.87722 3.1917 11.3905 1.75465C14.8284 1.09851 18.0606 1.72693 21.1033 3.44815C22.136 4.03267 22.2516 5.25486 21.5053 6.01497C20.5396 6.99919 20.1168 8.20751 20.2138 9.59373C20.3155 11.0469 20.9924 12.1744 22.1337 13.0454C22.3116 13.1817 22.508 13.2903 22.6975 13.4105C23.7325 14.062 23.7348 15.4066 22.6836 16.0443C22.0552 16.4255 21.4984 16.8737 21.071 17.4744C19.6362 19.4867 19.9897 22.2199 21.8935 23.8025C22.039 23.9226 22.1869 24.0451 22.3486 24.1421C23.2265 24.6712 23.3213 26.0435 22.3648 26.7205C21.503 27.3281 20.6135 27.8849 19.6478 28.31C17.8434 29.1048 15.9535 29.5091 13.1071 29.4998V29.4975ZM14.0775 8.53558C14.0913 7.51902 13.2434 6.6457 12.2223 6.62722C11.2126 6.60873 10.3301 7.46819 10.3139 8.48475C10.2977 9.48976 11.1618 10.3793 12.1714 10.3977C13.1764 10.4162 14.0636 9.54752 14.0775 8.53558ZM6.90611 11.6915C5.88262 11.6962 5.02085 12.5579 5.0324 13.5722C5.04395 14.5795 5.93345 15.4551 6.93383 15.4436C7.94808 15.432 8.80754 14.5587 8.80061 13.5445C8.79368 12.5187 7.94577 11.6869 6.90842 11.6915H6.90611ZM8.6643 22.3054C9.67624 22.3146 10.5496 21.4528 10.5565 20.4363C10.5634 19.4151 9.71089 18.5487 8.69202 18.5395C7.68239 18.5302 6.80214 19.3943 6.7929 20.4086C6.78135 21.4113 7.65698 22.2961 8.6643 22.3054ZM16.9932 23.7586C17.0532 22.9361 16.3786 21.9057 15.1379 21.871C14.1283 21.8433 13.2689 22.7282 13.2619 23.7517C13.255 24.7751 14.1029 25.6254 15.1333 25.6277C16.173 25.63 16.9932 24.8052 16.9932 23.7586ZM14.3339 13.8679C13.292 13.8679 12.4649 14.6881 12.4625 15.7301C12.4602 16.7559 13.3128 17.6176 14.3293 17.6176C15.3436 17.6176 16.21 16.7489 16.2123 15.7347C16.2123 14.7043 15.3736 13.8702 14.3339 13.8679Z" fill="#182FFF"/>
<path d="M29.2473 19.8933C29.2404 21.0763 28.3254 21.9588 27.1241 21.9426C26.0082 21.9288 25.0655 21.0116 25.084 19.8957C25.1048 18.6457 25.9827 17.8163 27.1726 17.7771C28.3185 17.7378 29.2542 18.7174 29.2473 19.8933Z" fill="#182FFF"/>
<path d="M32.2045 16.3539C31.218 16.3492 30.4255 15.5475 30.4394 14.5703C30.4533 13.5907 31.2757 12.7797 32.2322 12.8028C33.228 12.8282 34.0066 13.623 33.995 14.598C33.9835 15.5868 33.198 16.3585 32.2022 16.3515L32.2045 16.3539Z" fill="#182FFF"/>
<path d="M26.8654 11.0978C25.8696 11.1024 25.0772 10.3307 25.0725 9.34883C25.0679 8.36924 25.8557 7.58603 26.8492 7.58372C27.8588 7.5814 28.6259 8.33689 28.6259 9.33497C28.6259 10.3446 27.8773 11.0932 26.8654 11.0978Z" fill="#182FFF"/>
<path d="M46.5511 24L42.6989 10.9091H45.3324L47.8977 20.5227H48.0256L50.5994 10.9091H53.233L55.7898 20.4801H55.9176L58.4659 10.9091H61.0994L57.2557 24H54.6562L51.9972 14.5483H51.8011L49.142 24H46.5511ZM68.7614 24.2642C67.4716 24.2642 66.3608 23.9886 65.429 23.4375C64.5028 22.8807 63.7869 22.0994 63.2812 21.0938C62.7812 20.0824 62.5312 18.8977 62.5312 17.5398C62.5312 16.1989 62.7812 15.017 63.2812 13.9943C63.7869 12.9716 64.4915 12.1733 65.3949 11.5994C66.304 11.0256 67.3665 10.7386 68.5824 10.7386C69.321 10.7386 70.0369 10.8608 70.7301 11.1051C71.4233 11.3494 72.0455 11.733 72.5966 12.2557C73.1477 12.7784 73.5824 13.4574 73.9006 14.2926C74.2188 15.1222 74.3778 16.1307 74.3778 17.3182V18.2216H63.9716V16.3125H71.8807C71.8807 15.642 71.7443 15.0483 71.4716 14.5312C71.1989 14.0085 70.8153 13.5966 70.321 13.2955C69.8324 12.9943 69.2585 12.8438 68.5994 12.8438C67.8835 12.8438 67.2585 13.0199 66.7244 13.3722C66.196 13.7187 65.7869 14.1733 65.4972 14.7358C65.2131 15.2926 65.071 15.8977 65.071 16.5511V18.0426C65.071 18.9176 65.2244 19.6619 65.5312 20.2756C65.8438 20.8892 66.2784 21.358 66.8352 21.6818C67.392 22 68.0426 22.1591 68.7869 22.1591C69.2699 22.1591 69.7102 22.0909 70.108 21.9545C70.5057 21.8125 70.8494 21.6023 71.1392 21.3239C71.429 21.0455 71.6506 20.7017 71.804 20.2926L74.2159 20.7273C74.0227 21.4375 73.6761 22.0597 73.1761 22.5938C72.6818 23.1222 72.0597 23.5341 71.3097 23.8295C70.5653 24.1193 69.7159 24.2642 68.7614 24.2642ZM77.4098 24V6.54545H79.9581V13.0312H80.1115C80.2592 12.7585 80.4723 12.4432 80.7507 12.0852C81.0291 11.7273 81.4155 11.4148 81.9098 11.1477C82.4041 10.875 83.0575 10.7386 83.87 10.7386C84.9268 10.7386 85.87 11.0057 86.6996 11.5398C87.5291 12.0739 88.1797 12.8437 88.6513 13.8494C89.1286 14.8551 89.3672 16.0653 89.3672 17.4801C89.3672 18.8949 89.1314 20.108 88.6598 21.1193C88.1882 22.125 87.5405 22.9006 86.7166 23.446C85.8928 23.9858 84.9524 24.2557 83.8956 24.2557C83.1001 24.2557 82.4496 24.1222 81.9439 23.8551C81.4439 23.5881 81.0518 23.2756 80.7678 22.9176C80.4837 22.5597 80.2649 22.2415 80.1115 21.9631H79.8984V24H77.4098ZM79.907 17.4545C79.907 18.375 80.0405 19.1818 80.3075 19.875C80.5746 20.5682 80.9609 21.1108 81.4666 21.5028C81.9723 21.8892 82.5916 22.0824 83.3246 22.0824C84.0859 22.0824 84.7223 21.8807 85.2337 21.4773C85.745 21.0682 86.1314 20.5142 86.3928 19.8153C86.6598 19.1165 86.7933 18.3295 86.7933 17.4545C86.7933 16.5909 86.6626 15.8153 86.4013 15.1278C86.1456 14.4403 85.7592 13.8977 85.2422 13.5C84.7308 13.1023 84.0916 12.9034 83.3246 12.9034C82.5859 12.9034 81.9609 13.0937 81.4496 13.4744C80.9439 13.8551 80.5604 14.3864 80.299 15.0682C80.0376 15.75 79.907 16.5455 79.907 17.4545ZM97.7429 24.2642C96.4759 24.2642 95.3849 23.9773 94.4702 23.4034C93.5611 22.8239 92.8622 22.0256 92.3736 21.0085C91.8849 19.9915 91.6406 18.8267 91.6406 17.5142C91.6406 16.1847 91.8906 15.0114 92.3906 13.9943C92.8906 12.9716 93.5952 12.1733 94.5043 11.5994C95.4134 11.0256 96.4844 10.7386 97.7173 10.7386C98.7116 10.7386 99.598 10.9233 100.376 11.2926C101.155 11.6562 101.783 12.1676 102.26 12.8267C102.743 13.4858 103.03 14.2557 103.121 15.1364H100.641C100.504 14.5227 100.192 13.9943 99.7031 13.5511C99.2202 13.108 98.5724 12.8864 97.7599 12.8864C97.0497 12.8864 96.4276 13.0739 95.8935 13.4489C95.3651 13.8182 94.9531 14.3466 94.6577 15.0341C94.3622 15.7159 94.2145 16.5227 94.2145 17.4545C94.2145 18.4091 94.3594 19.233 94.6491 19.9261C94.9389 20.6193 95.348 21.1562 95.8764 21.5369C96.4105 21.9176 97.0384 22.108 97.7599 22.108C98.2429 22.108 98.6804 22.0199 99.0724 21.8438C99.4702 21.6619 99.8026 21.4034 100.07 21.0682C100.342 20.733 100.533 20.3295 100.641 19.858H103.121C103.03 20.7045 102.754 21.4602 102.294 22.125C101.834 22.7898 101.217 23.3125 100.445 23.6932C99.6776 24.0739 98.777 24.2642 97.7429 24.2642ZM105.846 24V10.9091H108.309V12.9886H108.445C108.684 12.2841 109.104 11.7301 109.707 11.3267C110.315 10.9176 111.002 10.7131 111.769 10.7131C111.928 10.7131 112.116 10.7187 112.332 10.7301C112.553 10.7415 112.727 10.7557 112.852 10.7727V13.2102C112.749 13.1818 112.567 13.1506 112.306 13.1165C112.045 13.0767 111.783 13.0568 111.522 13.0568C110.92 13.0568 110.383 13.1847 109.911 13.4403C109.445 13.6903 109.076 14.0398 108.803 14.4886C108.531 14.9318 108.394 15.4375 108.394 16.0057V24H105.846ZM123.349 18.571V10.9091H125.906V24H123.401V21.733H123.264C122.963 22.4318 122.48 23.0142 121.815 23.4801C121.156 23.9403 120.335 24.1705 119.352 24.1705C118.511 24.1705 117.767 23.9858 117.119 23.6165C116.477 23.2415 115.972 22.6875 115.602 21.9545C115.239 21.2216 115.057 20.3153 115.057 19.2358V10.9091H117.605V18.929C117.605 19.821 117.852 20.5312 118.347 21.0597C118.841 21.5881 119.483 21.8523 120.273 21.8523C120.75 21.8523 121.224 21.733 121.696 21.4943C122.173 21.2557 122.568 20.8949 122.881 20.4119C123.199 19.929 123.355 19.3153 123.349 18.571ZM129.33 24V10.9091H131.776V13.0398H131.938C132.211 12.3182 132.657 11.7557 133.276 11.3523C133.896 10.9432 134.637 10.7386 135.501 10.7386C136.376 10.7386 137.109 10.9432 137.7 11.3523C138.296 11.7614 138.737 12.3239 139.021 13.0398H139.157C139.469 12.3409 139.967 11.7841 140.648 11.3693C141.33 10.9489 142.143 10.7386 143.086 10.7386C144.273 10.7386 145.242 11.1108 145.992 11.8551C146.748 12.5994 147.126 13.7216 147.126 15.2216V24H144.577V15.4602C144.577 14.5739 144.336 13.9318 143.853 13.5341C143.37 13.1364 142.793 12.9375 142.123 12.9375C141.293 12.9375 140.648 13.1932 140.188 13.7045C139.728 14.2102 139.498 14.8608 139.498 15.6562V24H136.958V15.2983C136.958 14.5881 136.737 14.017 136.293 13.5852C135.85 13.1534 135.273 12.9375 134.563 12.9375C134.08 12.9375 133.634 13.0653 133.225 13.321C132.822 13.571 132.495 13.9205 132.245 14.3693C132.001 14.8182 131.879 15.3381 131.879 15.929V24H129.33ZM150.746 24V6.54545H153.294V13.0312H153.447C153.595 12.7585 153.808 12.4432 154.087 12.0852C154.365 11.7273 154.751 11.4148 155.246 11.1477C155.74 10.875 156.393 10.7386 157.206 10.7386C158.263 10.7386 159.206 11.0057 160.036 11.5398C160.865 12.0739 161.516 12.8437 161.987 13.8494C162.464 14.8551 162.703 16.0653 162.703 17.4801C162.703 18.8949 162.467 20.108 161.996 21.1193C161.524 22.125 160.876 22.9006 160.053 23.446C159.229 23.9858 158.288 24.2557 157.232 24.2557C156.436 24.2557 155.786 24.1222 155.28 23.8551C154.78 23.5881 154.388 23.2756 154.104 22.9176C153.82 22.5597 153.601 22.2415 153.447 21.9631H153.234V24H150.746ZM153.243 17.4545C153.243 18.375 153.376 19.1818 153.643 19.875C153.911 20.5682 154.297 21.1108 154.803 21.5028C155.308 21.8892 155.928 22.0824 156.661 22.0824C157.422 22.0824 158.058 21.8807 158.57 21.4773C159.081 21.0682 159.467 20.5142 159.729 19.8153C159.996 19.1165 160.129 18.3295 160.129 17.4545C160.129 16.5909 159.999 15.8153 159.737 15.1278C159.482 14.4403 159.095 13.8977 158.578 13.5C158.067 13.1023 157.428 12.9034 156.661 12.9034C155.922 12.9034 155.297 13.0937 154.786 13.4744C154.28 13.8551 153.896 14.3864 153.635 15.0682C153.374 15.75 153.243 16.5455 153.243 17.4545ZM175.374 14.1051L173.065 14.5142C172.968 14.2187 172.815 13.9375 172.604 13.6705C172.4 13.4034 172.121 13.1847 171.769 13.0142C171.417 12.8437 170.977 12.7585 170.448 12.7585C169.727 12.7585 169.124 12.9205 168.641 13.2443C168.158 13.5625 167.917 13.9744 167.917 14.4801C167.917 14.9176 168.079 15.2699 168.403 15.5369C168.727 15.804 169.249 16.0227 169.971 16.1932L172.05 16.6705C173.255 16.9489 174.153 17.3778 174.744 17.9574C175.335 18.5369 175.63 19.2898 175.63 20.2159C175.63 21 175.403 21.6989 174.948 22.3125C174.499 22.9205 173.871 23.3977 173.065 23.7443C172.263 24.0909 171.335 24.2642 170.278 24.2642C168.812 24.2642 167.616 23.9517 166.69 23.3267C165.763 22.696 165.195 21.8011 164.985 20.642L167.448 20.267C167.602 20.9091 167.917 21.3949 168.394 21.7244C168.871 22.0483 169.494 22.2102 170.261 22.2102C171.096 22.2102 171.763 22.0369 172.263 21.6903C172.763 21.3381 173.013 20.9091 173.013 20.4034C173.013 19.9943 172.86 19.6506 172.553 19.3722C172.252 19.0937 171.789 18.8835 171.164 18.7415L168.948 18.2557C167.727 17.9773 166.823 17.5341 166.238 16.9261C165.658 16.3182 165.369 15.5483 165.369 14.6165C165.369 13.8437 165.585 13.1676 166.016 12.5881C166.448 12.0085 167.045 11.5568 167.806 11.233C168.567 10.9034 169.44 10.7386 170.423 10.7386C171.837 10.7386 172.951 11.0455 173.763 11.6591C174.576 12.267 175.113 13.0824 175.374 14.1051Z" fill="#232D42"/>
</svg>
