<svg width="520" height="91" viewBox="0 0 520 91" fill="none" xmlns="http://www.w3.org/2000/svg">
<path d="M38.5067 86.5894C20.6082 86.6167 3.74118 71.5266 0.564609 52.3403C-3.09386 30.2646 11.3907 9.36919 33.4636 5.15075C43.5637 3.22467 53.0594 5.06938 61.9984 10.122C65.0323 11.8378 65.3719 15.4256 63.1794 17.6569C60.3423 20.546 59.1002 24.093 59.3852 28.1622C59.684 32.428 61.6726 35.7378 65.0256 38.2946C65.5482 38.6947 66.1252 39.0135 66.6819 39.3663C69.7226 41.2788 69.7294 45.2258 66.6411 47.0978C64.7949 48.2168 63.1591 49.5325 61.9035 51.2958C57.6883 57.2029 58.7268 65.2262 64.3199 69.8719C64.7473 70.2244 65.1819 70.584 65.6569 70.8688C68.236 72.4219 68.5145 76.4503 65.7045 78.4376C63.1727 80.2212 60.5594 81.8557 57.7224 83.1036C52.4213 85.4367 46.869 86.6235 38.5067 86.5962V86.5894ZM41.3576 25.0561C41.3982 22.072 38.9072 19.5084 35.9073 19.4541C32.941 19.3998 30.3483 21.9228 30.3007 24.9069C30.2531 27.857 32.7917 30.4683 35.7578 30.5223C38.7103 30.5766 41.3168 28.0266 41.3576 25.0561ZM20.2891 34.3202C17.2823 34.334 14.7505 36.8635 14.7844 39.841C14.8184 42.7979 17.4316 45.3682 20.3706 45.3344C23.3503 45.3004 25.8753 42.7368 25.8549 39.7597C25.8345 36.7485 23.3435 34.3067 20.2959 34.3202H20.2891ZM25.4544 65.4772C28.4274 65.5042 30.9932 62.9744 31.0134 59.9904C31.0337 56.9927 28.5292 54.4494 25.5359 54.4224C22.5697 54.3951 19.9837 56.9317 19.9565 59.9091C19.9226 62.8525 22.4951 65.4499 25.4544 65.4772ZM49.9235 69.743C50.0998 67.3286 48.1179 64.3038 44.4729 64.202C41.5069 64.1207 38.9821 66.7183 38.9615 69.7227C38.9412 72.7269 41.4322 75.223 44.4594 75.2297C47.5139 75.2365 49.9235 72.8153 49.9235 69.743ZM42.1109 40.709C39.0499 40.709 36.62 43.1167 36.613 46.1755C36.6062 49.1867 39.111 51.7162 42.0974 51.7162C45.0772 51.7162 47.6226 49.1661 47.6294 46.189C47.6294 43.1642 45.1654 40.7158 42.1109 40.709Z" fill="#182FFF"/>
<path d="M85.9243 58.3965C85.9041 61.8691 83.2159 64.4597 79.6867 64.4121C76.4083 64.3716 73.6388 61.6792 73.6932 58.4035C73.7543 54.7341 76.3334 52.2995 79.8292 52.1844C83.1957 52.069 85.9446 54.9446 85.9243 58.3965Z" fill="#182FFF"/>
<path d="M94.6119 48.0066C91.7137 47.9928 89.3855 45.6394 89.4263 42.7709C89.4671 39.8953 91.8832 37.5146 94.6933 37.5824C97.6188 37.657 99.9062 39.9901 99.8721 42.8522C99.8384 45.7548 97.5307 48.0201 94.6052 47.9996L94.6119 48.0066Z" fill="#182FFF"/>
<path d="M78.9265 32.5774C76.001 32.5909 73.673 30.3256 73.6592 27.4433C73.6457 24.5678 75.9602 22.2687 78.8789 22.2619C81.845 22.2551 84.0986 24.4728 84.0986 27.4027C84.0986 30.3664 81.8993 32.5639 78.9265 32.5774Z" fill="#182FFF"/>
<path d="M136.76 70.4516L125.443 32.0235H133.18L140.716 60.2441H141.092L148.653 32.0235H156.391L163.902 60.119H164.277L171.764 32.0235H179.501L168.209 70.4516H160.572L152.76 42.7063H152.184L144.372 70.4516H136.76ZM202.011 71.2272C198.221 71.2272 194.958 70.4181 192.221 68.8004C189.5 67.1659 187.396 64.8724 185.911 61.9205C184.442 58.9516 183.707 55.4739 183.707 51.4878C183.707 47.5516 184.442 44.0822 185.911 41.08C187.396 38.0779 189.466 35.7345 192.12 34.0499C194.791 32.3655 197.913 31.523 201.485 31.523C203.655 31.523 205.758 31.8817 207.794 32.5988C209.831 33.316 211.659 34.442 213.278 35.9764C214.897 37.5108 216.174 39.504 217.109 41.9557C218.044 44.391 218.511 47.3514 218.511 50.8373V53.4892H187.939V47.8851H211.175C211.175 45.9168 210.774 44.174 209.973 42.6561C209.172 41.1217 208.045 39.9126 206.593 39.0287C205.157 38.1446 203.471 37.7028 201.535 37.7028C199.432 37.7028 197.595 38.2197 196.026 39.2539C194.474 40.271 193.272 41.6055 192.421 43.2567C191.586 44.8912 191.169 46.6674 191.169 48.5855V52.9638C191.169 55.5323 191.619 57.7172 192.521 59.5187C193.439 61.3199 194.716 62.6961 196.352 63.6466C197.988 64.5806 199.899 65.0477 202.086 65.0477C203.505 65.0477 204.798 64.8475 205.967 64.4471C207.135 64.0302 208.145 63.4132 208.996 62.596C209.848 61.7787 210.499 60.7695 210.949 59.5686L218.035 60.8447C217.468 62.9294 216.449 64.7559 214.98 66.3237C213.528 67.8748 211.701 69.084 209.497 69.9511C207.31 70.8018 204.815 71.2272 202.011 71.2272ZM227.418 70.4516V19.2141H234.905V38.2529H235.356C235.79 37.4524 236.416 36.5268 237.233 35.4759C238.051 34.4253 239.187 33.508 240.639 32.7239C242.091 31.9234 244.011 31.523 246.398 31.523C249.502 31.523 252.273 32.3071 254.71 33.8749C257.147 35.4427 259.059 37.7025 260.444 40.6547C261.847 43.6069 262.548 47.1594 262.548 51.3126C262.548 55.4657 261.855 59.0267 260.469 61.9954C259.084 64.9476 257.181 67.2243 254.76 68.8254C252.34 70.4099 249.577 71.2022 246.473 71.2022C244.136 71.2022 242.225 70.8103 240.739 70.0263C239.27 69.2425 238.118 68.3251 237.284 67.2742C236.449 66.2236 235.806 65.2896 235.356 64.4723H234.73V70.4516H227.418ZM234.755 51.2374C234.755 53.9395 235.147 56.3079 235.931 58.3427C236.716 60.3776 237.851 61.9704 239.337 63.1211C240.822 64.2554 242.642 64.8225 244.795 64.8225C247.032 64.8225 248.901 64.2304 250.404 63.0463C251.906 61.8454 253.041 60.2191 253.809 58.1675C254.594 56.1162 254.986 53.806 254.986 51.2374C254.986 48.7023 254.602 46.4256 253.834 44.4074C253.083 42.3893 251.948 40.7965 250.429 39.629C248.926 38.4616 247.049 37.8777 244.795 37.8777C242.625 37.8777 240.789 38.4363 239.287 39.5539C237.801 40.6714 236.674 42.231 235.906 44.2325C235.139 46.2339 234.755 48.569 234.755 51.2374ZM287.154 71.2272C283.432 71.2272 280.227 70.385 277.539 68.7003C274.869 66.9992 272.815 64.6558 271.38 61.6701C269.944 58.6847 269.226 55.2655 269.226 51.4127C269.226 47.5099 269.961 44.0657 271.43 41.08C272.899 38.0779 274.969 35.7345 277.64 34.0499C280.31 32.3655 283.457 31.523 287.079 31.523C290 31.523 292.604 32.0652 294.89 33.1492C297.178 34.2166 299.023 35.7178 300.425 37.6526C301.844 39.5873 302.687 41.8474 302.954 44.4327H295.668C295.266 42.6312 294.349 41.08 292.913 39.779C291.494 38.4783 289.591 37.8278 287.204 37.8278C285.118 37.8278 283.29 38.3782 281.721 39.479C280.168 40.5631 278.958 42.1142 278.09 44.1324C277.222 46.1338 276.788 48.5021 276.788 51.2374C276.788 54.0396 277.214 56.4582 278.065 58.4927C278.916 60.5276 280.118 62.1037 281.671 63.2212C283.24 64.3388 285.084 64.8977 287.204 64.8977C288.623 64.8977 289.908 64.6391 291.06 64.1221C292.229 63.5882 293.205 62.8293 293.991 61.8454C294.79 60.8614 295.351 59.6769 295.668 58.2928H302.954C302.687 60.7777 301.876 62.9961 300.525 64.9476C299.173 66.8991 297.36 68.4335 295.092 69.551C292.838 70.6685 290.192 71.2272 287.154 71.2272ZM310.96 70.4516V32.0235H318.196V38.1278H318.595C319.297 36.0598 320.531 34.4335 322.303 33.2493C324.089 32.0484 326.107 31.4481 328.361 31.4481C328.828 31.4481 329.38 31.4646 330.015 31.498C330.664 31.5315 331.175 31.5732 331.542 31.6231V38.7783C331.24 38.695 330.705 38.6034 329.938 38.5033C329.172 38.3864 328.402 38.328 327.635 38.328C325.866 38.328 324.289 38.7035 322.902 39.4538C321.533 40.1877 320.449 41.2136 319.647 42.5311C318.848 43.8321 318.445 45.3165 318.445 46.9845V70.4516H310.96ZM362.381 54.5149V32.0235H369.893V70.4516H362.534V63.7969H362.131C361.247 65.8482 359.828 67.5578 357.874 68.9255C355.938 70.2764 353.526 70.9521 350.638 70.9521C348.168 70.9521 345.982 70.4099 344.078 69.3259C342.192 68.225 340.708 66.5988 339.621 64.4471C338.555 62.2957 338.02 59.6352 338.02 56.4664V32.0235H345.506V55.5658C345.506 58.1842 346.232 60.269 347.686 61.8204C349.137 63.3715 351.023 64.1471 353.344 64.1471C354.746 64.1471 356.138 63.7969 357.525 63.0962C358.926 62.3958 360.087 61.3366 361.006 59.9188C361.94 58.5013 362.399 56.6997 362.381 54.5149ZM379.952 70.4516V32.0235H387.138V38.2781H387.614C388.416 36.1599 389.727 34.5087 391.545 33.3245C393.367 32.1236 395.544 31.523 398.082 31.523C400.652 31.523 402.806 32.1236 404.542 33.3245C406.293 34.5254 407.589 36.1766 408.423 38.2781H408.823C409.739 36.2265 411.202 34.592 413.203 33.3744C415.207 32.1403 417.595 31.523 420.365 31.523C423.853 31.523 426.699 32.6156 428.903 34.8005C431.124 36.9853 432.234 40.2795 432.234 44.6828V70.4516H424.746V45.3832C424.746 42.7815 424.038 40.8966 422.619 39.7291C421.2 38.5617 419.505 37.9778 417.536 37.9778C415.098 37.9778 413.203 38.7284 411.852 40.2293C410.5 41.7138 409.824 43.6236 409.824 45.9585V70.4516H402.362V44.9079C402.362 42.8231 401.713 41.1467 400.409 39.8791C399.107 38.6116 397.412 37.9778 395.326 37.9778C393.907 37.9778 392.597 38.353 391.395 39.1036C390.211 39.8375 389.251 40.8634 388.516 42.1808C387.799 43.4986 387.441 45.0247 387.441 46.7593V70.4516H379.952ZM442.869 70.4516V19.2141H450.355V38.2529H450.805C451.239 37.4524 451.865 36.5268 452.685 35.4759C453.501 34.4253 454.635 33.508 456.09 32.7239C457.541 31.9234 459.459 31.523 461.848 31.523C464.953 31.523 467.724 32.3071 470.162 33.8749C472.598 35.4427 474.51 37.7025 475.894 40.6547C477.295 43.6069 477.997 47.1594 477.997 51.3126C477.997 55.4657 477.304 59.0267 475.92 61.9954C474.534 64.9476 472.63 67.2243 470.212 68.8254C467.791 70.4099 465.027 71.2022 461.924 71.2022C459.586 71.2022 457.676 70.8103 456.19 70.0263C454.721 69.2425 453.569 68.3251 452.735 67.2742C451.9 66.2236 451.257 65.2896 450.805 64.4723H450.179V70.4516H442.869ZM450.205 51.2374C450.205 53.9395 450.596 56.3079 451.38 58.3427C452.168 60.3776 453.302 61.9704 454.788 63.1211C456.272 64.2554 458.093 64.8225 460.247 64.8225C462.482 64.8225 464.351 64.2304 465.855 63.0463C467.356 61.8454 468.49 60.2191 469.26 58.1675C470.045 56.1162 470.435 53.806 470.435 51.2374C470.435 48.7023 470.053 46.4256 469.284 44.4074C468.534 42.3893 467.398 40.7965 465.879 39.629C464.377 38.4616 462.5 37.8777 460.247 37.8777C458.076 37.8777 456.24 38.4363 454.738 39.5539C453.252 40.6714 452.124 42.231 451.357 44.2325C450.59 46.2339 450.205 48.569 450.205 51.2374ZM515.223 41.4053L508.439 42.6062C508.154 41.7388 507.705 40.9133 507.085 40.1295C506.486 39.3455 505.666 38.7035 504.632 38.203C503.598 37.7025 502.305 37.4524 500.751 37.4524C498.633 37.4524 496.861 37.9279 495.442 38.8784C494.023 39.8125 493.315 41.0216 493.315 42.5061C493.315 43.7904 493.791 44.8245 494.743 45.6083C495.695 46.3924 497.228 47.0344 499.35 47.5349L505.457 48.936C508.998 49.7532 511.636 51.0123 513.372 52.7137C515.108 54.4148 515.975 56.6249 515.975 59.3434C515.975 61.6452 515.308 63.6968 513.971 65.498C512.652 67.2828 510.807 68.6836 508.439 69.701C506.083 70.7184 503.357 71.2272 500.252 71.2272C495.945 71.2272 492.431 70.3098 489.711 68.4752C486.987 66.6237 485.318 63.9968 484.701 60.5943L491.937 59.4935C492.39 61.3783 493.315 62.8044 494.717 63.7716C496.118 64.7224 497.948 65.1977 500.202 65.1977C502.655 65.1977 504.614 64.689 506.083 63.6715C507.552 62.6376 508.287 61.3783 508.287 59.8939C508.287 58.6929 507.837 57.684 506.935 56.8668C506.051 56.0492 504.691 55.4322 502.854 55.0154L496.344 53.5893C492.757 52.7721 490.101 51.4711 488.383 49.6863C486.679 47.9018 485.83 45.6418 485.83 42.9065C485.83 40.638 486.464 38.6533 487.73 36.9522C489 35.2508 490.753 33.9248 492.989 32.9743C495.225 32.0068 497.79 31.523 500.678 31.523C504.832 31.523 508.104 32.4239 510.49 34.2251C512.878 36.0096 514.456 38.4032 515.223 41.4053Z" fill="#232D42"/>
</svg>
