<svg width="365" height="55" viewBox="0 0 365 55" fill="none" xmlns="http://www.w3.org/2000/svg">
<path d="M43.3923 25.4928C43.6971 22.3376 47.7963 20.8778 50.2116 22.8394C52.3146 24.3752 52.4822 27.6217 50.4402 29.3019C47.461 31.9173 43.0494 29.3323 43.3847 25.5384V25.4852L43.3923 25.4928Z" fill="#1200FF"/>
<path d="M38.8892 5.74786C41.1903 5.73265 43.1028 7.97553 42.6532 10.2336C42.0132 13.807 37.3958 14.8486 35.5901 11.5413C34.1652 9.03235 35.8186 5.67943 38.8359 5.74786H38.8892Z" fill="#1200FF"/>
<path d="M54.9509 13.0011C54.8137 15.4721 51.7126 16.9851 49.6325 15.6317C47.301 14.2556 47.7277 10.4237 50.2878 9.54175C52.4898 8.6446 55.1414 10.5986 54.9509 12.9479V13.0011Z" fill="#1200FF"/>
<path d="M24.9229 55C22.4467 54.9316 20.5113 54.7187 18.5989 54.2169C16.9836 53.7911 15.3987 53.2665 13.9053 52.5366C10.8805 51.0617 8.22891 49.1001 6.00406 46.5531C4.35828 44.6675 3.01727 42.5995 1.98865 40.3338C1.33339 38.8893 0.860986 37.3687 0.525734 35.8177C0.152385 34.0994 -0.0457185 32.3659 0.00761707 30.6248C0.0533333 29.2183 0.259056 27.8117 0.44954 26.4128C0.678121 24.7401 1.20386 23.1359 1.8515 21.5773C2.88774 19.0759 4.2897 16.795 6.05739 14.7346C7.64222 12.8871 9.47087 11.3056 11.5357 10.0207C13.3415 8.89549 15.2844 8.02115 17.3417 7.43572C18.7513 7.03276 20.1685 6.71344 21.6314 6.6222C22.8352 6.54617 24.0543 6.43213 25.243 6.57658C27.0183 6.78947 27.9859 8.60658 27.4907 10.2488C26.9649 12.0051 27.2011 13.7158 27.9631 15.3504C28.725 16.9851 29.9136 18.232 31.5137 19.0911C32.7176 19.745 34.0205 19.9654 35.3691 19.9959C36.352 20.0187 37.1825 20.3836 37.7235 21.2275C38.333 22.1703 38.3102 23.1739 37.7463 24.1319C36.8701 25.6221 36.413 27.2263 36.5501 28.9522C36.8015 31.9934 38.6454 34.7609 41.6551 35.7797C42.5694 36.0914 43.5447 36.2206 44.5047 36.3803C45.0838 36.4791 45.5257 36.7833 45.8914 37.2014C46.7981 38.2354 46.8134 39.5051 46.2191 40.5543C45.6476 41.5579 45.1295 42.5919 44.5504 43.5879C43.8266 44.8348 42.9275 45.9601 41.937 47.0169C40.1464 48.948 38.013 50.4078 35.7882 51.7763C33.35 53.2817 30.7441 54.3081 27.9097 54.7035C26.7516 54.8632 25.5782 54.9316 24.9153 54.9924L24.9229 55ZM16.4655 28.8077C16.5493 25.432 12.5034 23.3868 10.0118 25.8654C8.29749 27.4696 8.62512 30.3283 10.5681 31.5752C12.8158 33.1794 16.3664 31.6588 16.4655 28.8533V28.8077ZM31.5594 43.7172C34.089 43.6183 35.2929 40.7292 33.9748 38.6992C32.2909 36.023 28.4888 37.1406 28.1383 40.159C27.8793 42.0749 29.5936 43.8464 31.5137 43.7172H31.5594ZM13.3948 40.8585C13.3644 42.7288 15.5664 44.1505 17.2655 43.3294C19.2541 42.5083 19.4065 39.4443 17.4864 38.4635C15.7721 37.4979 13.3872 38.8437 13.3948 40.8128V40.8585ZM16.6559 20.7638C16.6255 22.4288 18.5836 23.6833 20.0923 22.9534C21.86 22.2235 21.9895 19.5093 20.2904 18.6349C18.7665 17.7758 16.6483 18.9771 16.6636 20.7257V20.7638H16.6559ZM23.8029 32.8905C25.0982 32.9133 26.0811 31.3927 25.5173 30.2143C24.9458 28.8381 22.8276 28.7393 22.1419 30.0622C21.4714 31.2483 22.4086 32.8905 23.7724 32.8829H23.8029V32.8905Z" fill="#1200FF"/>
<path d="M66.1666 15.0767C66.7609 15.4645 67.0657 16.0955 67.2714 16.7722C67.5228 17.6161 67.7819 18.6805 68.1019 19.8894C69.6715 25.8578 72.2544 35.9241 72.9097 39.1174C73.0697 39.7864 73.3212 41.3678 73.7097 39.756C74.3726 36.7909 76.8565 27.7813 78.4033 22.2844C78.8909 20.5661 79.3557 18.8782 79.7671 17.4489C79.9119 16.9547 80.0719 16.4529 80.331 16.0119C81.3977 14.1644 84.6512 14.0655 86.2741 15.2288C87.417 16.0803 87.6151 17.6009 88.0037 18.8858C89.459 24.2687 92.4305 34.9889 93.3144 38.9805C93.4058 39.315 93.5887 40.4707 93.8934 39.6496C94.724 36.5476 96.7202 28.6404 98.1374 23.6073C98.6403 21.7597 99.0137 20.3912 99.4556 18.7718C99.8442 17.4108 100.126 15.7154 101.49 15.0159C102.808 14.2784 105.132 14.3544 106.115 14.5293C106.77 14.6434 106.884 15.0083 106.679 15.6165C105.391 19.7602 103.524 25.8426 101.962 30.8529C99.8518 37.5435 98.1374 43.4131 97.1926 46.0969C96.9412 46.6747 96.3393 46.7888 95.6992 46.8496C94.7163 46.9256 93.1544 47.0169 91.8972 46.5911C90.5333 46.1501 89.8171 45.1161 89.3523 43.7552C87.2875 36.54 84.9331 27.3555 83.9654 23.516C83.5692 21.8662 83.3711 21.2579 82.9292 23.3564C82.0377 27.2263 80.8796 31.2939 79.6452 35.7644C78.8757 38.3343 78.1747 41.4743 77.1842 44.0973C76.1556 46.8876 73.4812 47.0473 71.0354 46.8724C70.1058 46.8268 69.321 46.6519 69.1153 45.6863C67.7895 41.193 61.7626 20.5965 60.353 15.7762C59.9949 14.7194 60.4292 14.5293 61.4349 14.4533C62.8064 14.3772 64.9475 14.3012 66.1513 15.0691L66.1818 15.0919L66.1666 15.0767Z" fill="#1F1E26"/>
<path d="M113.247 32.7689C113.026 36.578 115.471 41.0637 119.068 42.0445C121.361 42.7364 124.31 42.379 126.299 41.0257C127.769 40.0449 128.203 38.6384 129.91 38.1518C131.236 37.7488 133.377 37.7716 134.192 38.2278C135.091 38.7144 134.436 39.8168 134.101 40.5011C131.922 44.8424 127.342 47.4578 122.184 47.6251C112.614 48.3322 106.915 40.8889 106.686 32.0922C106.1 20.6573 112.988 11.5109 125.27 14.0047C129.895 14.9323 133.301 18.3764 134.71 22.6341C135.183 24.0026 135.488 25.4244 135.64 26.8614C135.762 28.0702 135.823 29.3931 135.724 30.2903C135.678 30.6628 135.602 31.0506 135.381 31.3395C135.076 31.7425 134.543 31.8033 134.017 31.8261C130.291 31.8489 119.152 31.8261 115.007 31.8337C114.268 31.8337 113.414 31.8717 113.247 32.7309V32.7689ZM129.384 26.5344C129.75 24.7933 128.485 21.7521 127.121 20.4216C123.799 17.0383 117.094 17.6085 114.687 21.813C113.97 23.0142 112.561 26.1695 113.643 27.0438C114.351 27.4772 115.197 27.3327 116.073 27.3708C117.704 27.3708 119.418 27.3708 121.14 27.3708C122.786 27.3708 124.439 27.3708 125.811 27.3708C127.449 27.2871 128.897 27.6749 129.377 26.5648V26.5344H129.384Z" fill="#1F1E26"/>
<path d="M140.128 0.136854C140.547 0.030412 141.278 0.00760299 142.132 0C143.336 0.0684269 144.768 -0.205281 145.538 0.539812C145.781 0.86674 145.781 1.31532 145.797 1.76389C145.812 4.88112 145.797 13.2672 145.797 16.6962C145.812 17.0915 145.781 17.7834 145.972 17.9811C146.056 18.0571 146.17 18.0039 146.338 17.867C146.726 17.5325 147.16 17.0231 147.58 16.6429C148.684 15.5633 150.505 14.5673 152.425 14.1492C159.885 12.3625 166.346 16.1868 168.426 23.5769C171.177 32.6548 167.702 45.6635 158.125 47.2982C155.443 47.8304 152.128 47.6707 149.629 46.4847C148.601 46.0665 147.427 44.9184 146.779 44.4851C146.132 44.0441 145.873 44.5307 145.667 45.0629C145.446 45.6103 145.134 46.2033 144.577 46.4999C143.191 47.1765 140.242 47.2297 139.648 45.4659C139.473 44.9336 139.457 44.3102 139.457 43.7324C139.457 41.8468 139.48 39.4519 139.48 37.6652C139.473 30.7845 139.48 10.9331 139.48 0.988388C139.48 0.570224 139.602 0.243296 140.074 0.144457H140.105L140.128 0.136854ZM163.207 30.1382C163.268 22.809 159.26 17.198 151.625 19.2964C146.901 20.5509 145.698 26.4584 145.842 31.1494C145.842 37.1406 148.174 42.5463 154.544 42.4627C160.936 42.5007 163.306 35.8557 163.214 30.2067V30.1382H163.207Z" fill="#1F1E26"/>
<path d="M199.071 37.5968C200.046 38.8893 196.976 43.1698 195.871 44.1049C193.22 46.8116 188.488 47.9596 184.648 47.6403C175.84 47.2374 170.88 39.5051 171.146 30.6248C170.986 21.7521 177.051 13.2748 186.514 13.6474C189.501 13.6626 193.006 14.5901 195.277 16.4072C197.357 18.0039 198.599 20.1023 199.254 22.0182C199.422 22.5429 199.635 23.1587 199.445 23.6681C198.911 24.7933 196.161 24.7097 194.736 24.2383C193.555 23.8734 192.938 22.8394 192.252 21.8434C191.688 21.0375 190.949 20.3152 190.004 19.821C188.175 18.8402 185.707 18.6501 183.749 19.2812C177.691 21.1439 176.861 30.4272 178.392 35.8557C179.032 38.1746 180.335 40.4327 182.499 41.5883C184.777 42.8124 187.871 42.7364 190.134 41.345C191.741 40.4479 192.519 38.4483 194.027 37.5892C195.345 36.8821 197.898 36.5476 199.064 37.5892L199.086 37.612L199.071 37.5968Z" fill="#1F1E26"/>
<path d="M202.828 22.2539C202.828 20.9386 202.812 19.2204 202.805 17.8138C202.835 16.6657 202.607 15.2972 203.749 14.689C204.839 14.1111 207.117 14.0883 208.153 14.727C209.251 15.4037 208.992 16.9851 209.213 18.0647C209.502 19.8666 210.432 18.4372 211.331 17.4489C212.436 16.1868 213.845 15.1832 215.407 14.5521C216.893 13.9971 218.264 13.5333 219.224 14.3392C220.558 15.761 220.215 18.6805 218.462 19.6157C217.746 20.0035 216.87 20.1631 216.085 20.414C212.108 21.486 209.914 24.9986 209.426 29.1346C209.106 31.3775 209.182 32.9209 209.167 35.5744C209.167 38.4027 209.167 42.379 209.167 44.6295C209.144 45.2454 209.167 45.9068 208.87 46.4238C208.207 47.3514 206.462 47.1461 205.319 47.1765C204.092 47.1157 202.919 47.1461 202.866 45.8308C202.797 40.4555 202.866 29.127 202.835 22.2996V22.2539H202.828Z" fill="#1F1E26"/>
<path d="M248.544 37.9009C248.544 39.1782 248.559 41.0181 248.567 42.4399C248.498 43.6716 248.887 45.2378 247.728 45.9981C246.624 46.6063 244.627 46.5759 243.561 46.0285C242.951 45.7168 242.684 45.0249 242.517 44.409C242.387 43.8768 242.143 43.1774 241.534 43.5955C240.795 44.1049 239.416 45.5799 238.242 46.0209C232.589 48.3778 225.244 47.1461 223.331 40.159C222.828 38.3875 222.607 36.5019 222.592 34.7456C222.569 30.488 222.592 22.7253 222.592 17.8974C222.623 16.9014 222.463 15.4949 222.988 15.2212C223.423 14.9247 224.009 14.9171 224.543 14.879C225.526 14.841 226.752 14.8334 227.514 14.9627C228.665 15.0691 228.672 16.0499 228.65 17.0155C228.65 17.8518 228.65 18.9542 228.65 20.2011C228.749 26.1011 228.436 30.9366 228.81 35.7873C229.091 37.8097 229.869 40.0069 231.804 40.9953C234.821 42.5083 239.195 41.9609 240.909 38.8361C241.404 37.9845 241.74 36.9277 241.945 35.9013C242.563 32.6548 242.425 30.8377 242.448 27.3784C242.448 25.1051 242.448 22.7329 242.448 20.4596C242.524 18.8782 242.265 16.7874 242.631 15.6013C243.157 14.651 244.803 14.9171 245.885 14.8562C247.081 14.9399 248.391 14.6966 248.513 15.9891C248.589 20.855 248.513 31.5524 248.544 37.8553V37.9009Z" fill="#1F1E26"/>
<path d="M254.639 22.0259C254.639 20.8094 254.639 19.5473 254.624 18.308C254.639 16.8862 254.563 15.7534 255.386 14.9931C256.757 13.8602 259.82 13.9363 260.582 15.799C261.078 17.0611 261.1 18.1711 262.35 17.0535C265.215 13.9211 270.183 12.8338 274.114 14.2556C275.722 14.765 277.055 15.9435 278.198 17.0915C280.85 19.6461 281.223 14.3772 288.225 13.6778C295.685 12.7654 299.738 17.7302 300.112 24.9606C300.294 30.0394 300.119 36.3575 300.18 42.5767C300.18 43.223 300.18 43.8312 300.18 44.4623C300.173 45.9753 300.226 46.6899 299.129 46.956C297.902 47.2069 296.142 47.1689 295.075 46.9712C294.412 46.8496 294.016 46.3934 293.993 45.7168C293.925 44.1886 293.97 42.3714 293.955 39.8473C293.955 36.5552 293.955 33.149 293.955 29.8569C294.153 24.5576 293.567 18.8934 287.09 19.1139C280.377 19.6993 280.484 27.0666 280.545 32.48C280.545 34.9813 280.545 37.5511 280.545 40.0069C280.545 41.3602 280.545 42.4855 280.545 43.702C280.537 45.1465 280.606 46.0513 280.073 46.4771C279.661 46.7964 279.105 46.842 278.587 46.8952C277.612 46.9636 276.4 46.956 275.623 46.7964C274.29 46.6215 274.457 45.253 274.457 44.181C274.457 40.4175 274.457 32.6852 274.457 28.9902C274.442 25.9262 274.556 22.1475 271.897 20.0491C268.202 17.5325 263.127 19.2356 261.74 23.5921C260.59 26.983 260.758 29.3855 260.742 33.2555C260.742 35.8253 260.742 38.1594 260.742 40.5999C260.651 42.3258 260.94 44.5991 260.559 45.9068C260.049 46.9256 258.357 46.6975 257.253 46.7432C255.714 46.6975 254.51 46.6899 254.654 44.9565C254.654 40.159 254.654 28.7241 254.654 22.4364V22.0335L254.639 22.0259Z" fill="#1F1E26"/>
<path d="M306.565 0.136854C306.984 0.030412 307.716 0.00760299 308.569 0C309.773 0.0684269 311.205 -0.205281 311.975 0.539812C312.219 0.86674 312.219 1.31532 312.234 1.76389C312.249 4.88112 312.234 13.2672 312.234 16.6962C312.249 17.0915 312.219 17.7834 312.409 17.9811C312.493 18.0571 312.607 18.0039 312.775 17.867C313.164 17.5325 313.598 17.0231 314.017 16.6429C315.122 15.5633 316.943 14.5673 318.863 14.1492C326.322 12.3625 332.783 16.1868 334.864 23.5769C337.614 32.6548 334.14 45.6635 324.562 47.2982C321.88 47.8304 318.566 47.6707 316.067 46.4847C315.038 46.0665 313.865 44.9184 313.217 44.4851C312.569 44.0441 312.31 44.5307 312.104 45.0629C311.884 45.6103 311.571 46.2033 311.015 46.4999C309.628 47.1765 306.679 47.2297 306.085 45.4659C305.91 44.9336 305.895 44.3102 305.895 43.7324C305.895 41.8468 305.918 39.4519 305.918 37.6652C305.91 30.7845 305.918 10.9331 305.918 0.988388C305.918 0.570224 306.039 0.243296 306.512 0.144457H306.542L306.565 0.136854ZM329.309 30.1382C329.37 22.809 325.362 17.198 317.728 19.2964C313.004 20.5509 311.8 26.4584 311.944 31.1494C311.944 37.1406 314.276 42.5463 320.646 42.4627C327.038 42.5007 329.408 35.8557 329.317 30.2067V30.1382H329.309Z" fill="#1F1E26"/>
<path d="M342.932 38.3114C343.892 38.8893 344.441 39.8549 345.241 40.638C346.628 42.1129 349.211 42.8352 351.413 42.7212C353.363 42.6299 355.047 42.1662 356.16 41.0333C357.386 39.7636 357.615 37.6424 356.762 36.1978C355.779 34.624 354.003 33.9777 352.259 33.3315C348.053 31.9554 342.696 31.1038 339.755 27.6064C338.307 25.7893 338.033 23.326 338.49 21.0907C339.367 16.2248 344.662 13.6093 350.171 13.6474C355.268 13.5029 360.754 15.5025 362.583 20.3304C362.872 21.0375 363.147 22.0487 362.362 22.52C360.983 23.3032 357.821 23.1739 356.617 21.6609C355.322 19.9578 353.638 18.8326 351.337 18.5513C348.418 18.0571 344.052 19.7145 344.929 23.1891C345.523 25.1583 348.098 26.0022 350.194 26.6713C355.71 28.1463 363.71 30.085 363.977 36.654C364.785 46.7508 352.906 49.3738 344.654 46.7584C341.271 45.6179 339.085 43.4815 337.911 40.79C337.576 39.9765 337.088 38.8817 337.85 38.1974C338.826 37.3763 341.553 37.4523 342.91 38.2962L342.948 38.319L342.932 38.3114Z" fill="#1F1E26"/>
</svg>
