<svg width="446" height="68" viewBox="0 0 446 68" fill="none" xmlns="http://www.w3.org/2000/svg">
<rect x="1.5" y="1.5" width="443" height="65" rx="10.5" fill="white"/>
<path d="M94.816 47.384C92.9387 47.384 91.3067 47.032 89.92 46.328C88.5547 45.624 87.488 44.7387 86.72 43.672C85.952 42.584 85.4613 41.4533 85.248 40.28L89.344 39.192C89.664 40.4933 90.304 41.5067 91.264 42.232C92.224 42.9573 93.4293 43.32 94.88 43.32C95.9893 43.32 96.8853 43.0427 97.568 42.488C98.272 41.9333 98.624 41.272 98.624 40.504C98.624 39.8 98.368 39.192 97.856 38.68C97.3653 38.1467 96.6933 37.7947 95.84 37.624L92.256 36.92C90.3573 36.5573 88.864 35.736 87.776 34.456C86.688 33.176 86.144 31.6187 86.144 29.784C86.144 28.504 86.5067 27.3307 87.232 26.264C87.9787 25.176 88.96 24.3227 90.176 23.704C91.4133 23.0853 92.7253 22.776 94.112 22.776C95.8827 22.776 97.3867 23.0747 98.624 23.672C99.8613 24.2693 100.821 25.0267 101.504 25.944C102.208 26.84 102.677 27.7893 102.912 28.792L98.848 30.072C98.4 28.92 97.792 28.0987 97.024 27.608C96.256 27.096 95.2853 26.84 94.112 26.84C93.4507 26.84 92.8533 26.9787 92.32 27.256C91.808 27.5333 91.4027 27.896 91.104 28.344C90.8267 28.7707 90.688 29.208 90.688 29.656C90.688 30.36 90.9227 30.9787 91.392 31.512C91.8613 32.024 92.512 32.3547 93.344 32.504L96.736 33.24C98.8053 33.688 100.405 34.5413 101.536 35.8C102.667 37.0373 103.232 38.52 103.232 40.248C103.232 41.4853 102.891 42.648 102.208 43.736C101.525 44.824 100.544 45.7093 99.264 46.392C98.0053 47.0533 96.5227 47.384 94.816 47.384ZM114.927 47.384C113.177 47.384 111.62 46.9787 110.255 46.168C108.911 45.3573 107.855 44.2587 107.087 42.872C106.34 41.4853 105.967 39.9493 105.967 38.264C105.967 36.5573 106.34 35.0213 107.087 33.656C107.855 32.2693 108.889 31.1813 110.191 30.392C111.513 29.6027 112.985 29.208 114.607 29.208C116.356 29.208 117.871 29.592 119.151 30.36C120.431 31.1067 121.401 32.1307 122.063 33.432C122.745 34.7333 123.087 36.1627 123.087 37.72C123.087 38.4453 123.012 39.032 122.863 39.48H110.319C110.447 40.76 110.937 41.784 111.791 42.552C112.644 43.32 113.7 43.704 114.959 43.704C115.897 43.704 116.697 43.512 117.359 43.128C118.041 42.7227 118.585 42.168 118.991 41.464L122.383 43.128C121.849 44.408 120.911 45.4427 119.567 46.232C118.223 47 116.676 47.384 114.927 47.384ZM118.607 36.28C118.5 35.2133 118.084 34.3493 117.359 33.688C116.633 33.0053 115.716 32.664 114.607 32.664C113.54 32.664 112.633 32.984 111.887 33.624C111.14 34.2427 110.649 35.128 110.415 36.28H118.607ZM126.265 29.592H130.201V31.736C130.649 30.9253 131.299 30.3067 132.153 29.88C133.027 29.432 134.019 29.208 135.129 29.208C136.387 29.208 137.518 29.4853 138.521 30.04C139.523 30.5947 140.302 31.3733 140.857 32.376C141.411 33.3787 141.689 34.52 141.689 35.8V47H137.497V36.792C137.497 35.6613 137.166 34.7547 136.505 34.072C135.865 33.3893 135.022 33.048 133.977 33.048C132.931 33.048 132.078 33.3893 131.417 34.072C130.777 34.7547 130.457 35.6613 130.457 36.792V47H126.265V29.592ZM153.329 47.384C151.665 47.384 150.161 46.9893 148.817 46.2C147.495 45.3893 146.449 44.2907 145.681 42.904C144.913 41.5173 144.529 39.9813 144.529 38.296C144.529 36.6107 144.913 35.0747 145.681 33.688C146.449 32.3013 147.505 31.2133 148.849 30.424C150.193 29.6133 151.676 29.208 153.297 29.208C154.407 29.208 155.42 29.4 156.337 29.784C157.255 30.1467 158.023 30.6693 158.641 31.352V22.776H162.833V47H158.865V45.08C158.225 45.8267 157.425 46.4027 156.465 46.808C155.505 47.192 154.46 47.384 153.329 47.384ZM148.881 38.296C148.881 39.2987 149.084 40.2053 149.489 41.016C149.916 41.8053 150.503 42.424 151.249 42.872C151.996 43.32 152.839 43.544 153.777 43.544C154.716 43.544 155.548 43.32 156.273 42.872C157.02 42.424 157.596 41.8053 158.001 41.016C158.428 40.2053 158.641 39.2987 158.641 38.296C158.641 37.2933 158.428 36.3973 158.001 35.608C157.596 34.7973 157.02 34.168 156.273 33.72C155.527 33.272 154.695 33.048 153.777 33.048C152.839 33.048 151.996 33.2827 151.249 33.752C150.503 34.2 149.916 34.8293 149.489 35.64C149.084 36.4293 148.881 37.3147 148.881 38.296ZM180.933 47.384C179.247 47.384 177.701 46.9893 176.293 46.2C174.885 45.4107 173.765 44.3227 172.933 42.936C172.122 41.5493 171.717 40.0027 171.717 38.296C171.717 36.5893 172.122 35.0427 172.933 33.656C173.743 32.2693 174.853 31.1813 176.261 30.392C177.669 29.6027 179.226 29.208 180.933 29.208C182.618 29.208 184.154 29.6027 185.541 30.392C186.949 31.1813 188.058 32.2693 188.869 33.656C189.701 35.0427 190.117 36.5893 190.117 38.296C190.117 40.024 189.701 41.5813 188.869 42.968C188.058 44.3547 186.949 45.4427 185.541 46.232C184.133 47 182.597 47.384 180.933 47.384ZM176.069 38.296C176.069 39.8107 176.517 41.0693 177.413 42.072C178.33 43.0533 179.503 43.544 180.933 43.544C181.85 43.544 182.671 43.32 183.397 42.872C184.122 42.424 184.687 41.8053 185.093 41.016C185.519 40.2053 185.733 39.2987 185.733 38.296C185.733 37.3147 185.519 36.4293 185.093 35.64C184.687 34.8293 184.122 34.2 183.397 33.752C182.671 33.2827 181.85 33.048 180.933 33.048C179.994 33.048 179.151 33.2827 178.405 33.752C177.679 34.2 177.103 34.8187 176.677 35.608C176.271 36.3973 176.069 37.2933 176.069 38.296ZM193.296 29.592H197.232V31.736C197.68 30.9253 198.33 30.3067 199.184 29.88C200.058 29.432 201.05 29.208 202.16 29.208C203.418 29.208 204.549 29.4853 205.552 30.04C206.554 30.5947 207.333 31.3733 207.888 32.376C208.442 33.3787 208.72 34.52 208.72 35.8V47H204.528V36.792C204.528 35.6613 204.197 34.7547 203.536 34.072C202.896 33.3893 202.053 33.048 201.008 33.048C199.962 33.048 199.109 33.3893 198.448 34.072C197.808 34.7547 197.488 35.6613 197.488 36.792V47H193.296V29.592ZM216.352 23.16H221.024L225.44 41.08L230.08 23.16H234.592L239.2 41.08L243.616 23.16H248.288L241.888 47H236.896L232.32 29.848L227.744 47H222.752L216.352 23.16ZM250.577 22.776H254.769V31.32C255.26 30.6373 255.91 30.1147 256.721 29.752C257.532 29.3893 258.438 29.208 259.441 29.208C260.7 29.208 261.83 29.4853 262.833 30.04C263.836 30.5947 264.614 31.3733 265.169 32.376C265.724 33.3787 266.001 34.52 266.001 35.8V47H261.809V36.792C261.809 35.6613 261.478 34.7547 260.817 34.072C260.177 33.3893 259.334 33.048 258.289 33.048C257.265 33.048 256.422 33.3893 255.761 34.072C255.1 34.7547 254.769 35.6613 254.769 36.792V47H250.577V22.776ZM274.826 47.384C272.991 47.384 271.53 46.936 270.442 46.04C269.375 45.144 268.842 43.928 268.842 42.392C268.842 40.92 269.343 39.704 270.346 38.744C271.348 37.784 272.852 37.144 274.858 36.824L280.042 35.992V35.416C280.042 34.648 279.743 34.0187 279.146 33.528C278.57 33.0373 277.802 32.792 276.842 32.792C275.946 32.792 275.146 33.0373 274.442 33.528C273.759 33.9973 273.258 34.6267 272.938 35.416L269.514 33.752C270.026 32.3867 270.964 31.288 272.33 30.456C273.695 29.624 275.252 29.208 277.002 29.208C278.41 29.208 279.658 29.4747 280.746 30.008C281.855 30.52 282.708 31.256 283.306 32.216C283.924 33.1547 284.234 34.2213 284.234 35.416V47H280.266V45.144C278.9 46.6373 277.087 47.384 274.826 47.384ZM273.194 42.232C273.194 42.8293 273.418 43.3093 273.866 43.672C274.314 44.0133 274.89 44.184 275.594 44.184C276.895 44.184 277.962 43.7787 278.794 42.968C279.626 42.136 280.042 41.112 280.042 39.896V39.192L275.658 39.928C274.826 40.0987 274.207 40.376 273.802 40.76C273.396 41.1227 273.194 41.6133 273.194 42.232ZM295.732 47.192C293.769 47.192 292.244 46.6587 291.156 45.592C290.089 44.504 289.556 42.9787 289.556 41.016V33.336H286.548V29.592H286.868C287.721 29.592 288.382 29.368 288.852 28.92C289.321 28.472 289.556 27.8213 289.556 26.968V25.624H293.748V29.592H297.748V33.336H293.748V40.792C293.748 42.6053 294.729 43.512 296.692 43.512C297.033 43.512 297.406 43.48 297.812 43.416V47.032C297.129 47.1387 296.436 47.192 295.732 47.192ZM307.543 47.352C305.793 47.352 304.247 46.936 302.903 46.104C301.58 45.272 300.641 44.1307 300.087 42.68L303.191 41.08C303.66 42.0187 304.279 42.7547 305.047 43.288C305.836 43.8 306.7 44.056 307.639 44.056C308.449 44.056 309.079 43.896 309.527 43.576C309.996 43.2347 310.231 42.776 310.231 42.2C310.231 41.7093 310.039 41.304 309.655 40.984C309.271 40.6427 308.769 40.4187 308.151 40.312L305.303 39.832C303.831 39.448 302.689 38.7973 301.879 37.88C301.089 36.9413 300.695 35.8427 300.695 34.584C300.695 33.5387 300.972 32.6107 301.527 31.8C302.081 30.968 302.849 30.328 303.831 29.88C304.833 29.432 305.964 29.208 307.223 29.208C308.823 29.208 310.231 29.592 311.447 30.36C312.663 31.1067 313.548 32.152 314.103 33.496L310.999 35.096C310.657 34.3493 310.135 33.752 309.431 33.304C308.727 32.856 307.948 32.632 307.095 32.632C306.391 32.632 305.825 32.792 305.399 33.112C304.993 33.432 304.791 33.848 304.791 34.36C304.791 35.2987 305.495 35.928 306.903 36.248L309.687 36.76C311.159 37.1653 312.3 37.8267 313.111 38.744C313.921 39.6613 314.327 40.7493 314.327 42.008C314.327 43.0533 314.039 43.9813 313.463 44.792C312.908 45.6027 312.119 46.232 311.095 46.68C310.071 47.128 308.887 47.352 307.543 47.352ZM324.076 23.16H329.708L337.932 47H333.196L331.5 41.88H322.284L320.556 47H315.852L324.076 23.16ZM330.252 38.04L326.892 27.992L323.532 38.04H330.252ZM340.233 29.592H344.169V31.64C344.809 30.872 345.599 30.2747 346.537 29.848C347.497 29.4213 348.575 29.208 349.769 29.208C351.391 29.208 352.873 29.6133 354.217 30.424C355.561 31.2133 356.617 32.3013 357.385 33.688C358.153 35.0747 358.537 36.6107 358.537 38.296C358.537 39.9813 358.153 41.5173 357.385 42.904C356.617 44.2907 355.561 45.3893 354.217 46.2C352.895 46.9893 351.401 47.384 349.737 47.384C348.671 47.384 347.679 47.2133 346.761 46.872C345.844 46.5093 345.065 45.9973 344.425 45.336V53.4H340.233V29.592ZM344.425 38.296C344.425 39.2987 344.628 40.2053 345.033 41.016C345.46 41.8053 346.036 42.424 346.761 42.872C347.508 43.32 348.34 43.544 349.257 43.544C350.687 43.544 351.86 43.0533 352.777 42.072C353.716 41.0693 354.185 39.8107 354.185 38.296C354.185 37.3147 353.972 36.4293 353.545 35.64C353.119 34.8293 352.532 34.2 351.785 33.752C351.039 33.2827 350.196 33.048 349.257 33.048C348.34 33.048 347.508 33.272 346.761 33.72C346.036 34.168 345.46 34.7973 345.033 35.608C344.628 36.3973 344.425 37.2933 344.425 38.296ZM361.733 29.592H365.669V31.64C366.309 30.872 367.099 30.2747 368.037 29.848C368.997 29.4213 370.075 29.208 371.269 29.208C372.891 29.208 374.373 29.6133 375.717 30.424C377.061 31.2133 378.117 32.3013 378.885 33.688C379.653 35.0747 380.037 36.6107 380.037 38.296C380.037 39.9813 379.653 41.5173 378.885 42.904C378.117 44.2907 377.061 45.3893 375.717 46.2C374.395 46.9893 372.901 47.384 371.237 47.384C370.171 47.384 369.179 47.2133 368.261 46.872C367.344 46.5093 366.565 45.9973 365.925 45.336V53.4H361.733V29.592ZM365.925 38.296C365.925 39.2987 366.128 40.2053 366.533 41.016C366.96 41.8053 367.536 42.424 368.261 42.872C369.008 43.32 369.84 43.544 370.757 43.544C372.187 43.544 373.36 43.0533 374.277 42.072C375.216 41.0693 375.685 39.8107 375.685 38.296C375.685 37.3147 375.472 36.4293 375.045 35.64C374.619 34.8293 374.032 34.2 373.285 33.752C372.539 33.2827 371.696 33.048 370.757 33.048C369.84 33.048 369.008 33.272 368.261 33.72C367.536 34.168 366.96 34.7973 366.533 35.608C366.128 36.3973 365.925 37.2933 365.925 38.296Z" fill="#131721"/>
<g clip-path="url(#clip0_115_1097)">
<path d="M43 10C29.7472 10 19 20.7472 19 34C19 47.2528 29.7472 58 43 58C56.2528 58 67 47.2528 67 34C67 20.7472 56.2528 10 43 10ZM43.5087 47.9735C43.509 47.9735 43.5083 47.9735 43.5087 47.9735H43.5028C41.0986 47.9724 38.7362 47.3696 36.6382 46.2256L29.0236 48.2225L31.0615 40.7811C29.8043 38.6036 29.1429 36.1332 29.144 33.6023C29.1473 25.6848 35.5912 19.2435 43.5087 19.2435C47.351 19.245 50.9578 20.7406 53.6696 23.4546C56.3817 26.1689 57.8744 29.7769 57.8729 33.6136C57.8696 41.5315 51.425 47.9735 43.5087 47.9735Z" fill="black"/>
<path d="M43.5137 21.6689C36.9281 21.6689 31.5723 27.0226 31.5693 33.6034C31.5686 35.8585 32.2 38.0547 33.3949 39.955L33.6787 40.4065L32.4724 44.8109L36.9911 43.6259L37.4272 43.8844C39.2601 44.972 41.3615 45.5474 43.5038 45.5481H43.5085C50.089 45.5481 55.4448 40.1941 55.4478 33.6129C55.4489 30.4236 54.2081 27.425 51.9541 25.1692C49.7001 22.9133 46.7023 21.67 43.5137 21.6689ZM50.5361 38.7347C50.2369 39.5726 48.8032 40.3376 48.1136 40.4409C47.4951 40.5332 46.7129 40.5717 45.853 40.2988C45.3315 40.1333 44.6632 39.9125 43.8066 39.543C40.2064 37.9888 37.855 34.3647 37.6755 34.1252C37.4961 33.8857 36.21 32.1796 36.21 30.4133C36.21 28.6475 37.1372 27.7792 37.4661 27.4203C37.7953 27.061 38.1842 26.9713 38.4233 26.9713C38.6625 26.9713 38.902 26.9735 39.1111 26.9838C39.3315 26.9948 39.6274 26.8999 39.9186 27.5997C40.2178 28.3182 40.9355 30.0841 41.0253 30.2635C41.115 30.4434 41.1747 30.6528 41.0553 30.8923C40.9355 31.1318 40.5378 31.6486 40.1581 32.1195C39.9988 32.3169 39.7911 32.4927 40.0006 32.8519C40.2097 33.2108 40.9304 34.386 41.9972 35.3374C43.3683 36.5598 44.5248 36.9385 44.8837 37.1183C45.2422 37.2977 45.4517 37.2677 45.6611 37.0286C45.8702 36.7891 46.5583 35.9808 46.7975 35.6216C47.0366 35.2623 47.2761 35.3224 47.605 35.4421C47.9342 35.5615 49.6986 36.4298 50.0575 36.6093C50.4164 36.7891 50.6555 36.8788 50.7452 37.0286C50.8353 37.1783 50.8353 37.8965 50.5361 38.7347Z" fill="black"/>
</g>
<rect x="1.5" y="1.5" width="443" height="65" rx="10.5" stroke="black" stroke-width="3"/>
<defs>
<clipPath id="clip0_115_1097">
<rect width="48" height="48" fill="white" transform="translate(19 10)"/>
</clipPath>
</defs>
</svg>
