<svg width="341" height="48" viewBox="0 0 341 48" fill="none" xmlns="http://www.w3.org/2000/svg">
<path d="M75.816 37.384C73.9387 37.384 72.3067 37.032 70.92 36.328C69.5547 35.624 68.488 34.7387 67.72 33.672C66.952 32.584 66.4613 31.4533 66.248 30.28L70.344 29.192C70.664 30.4933 71.304 31.5067 72.264 32.232C73.224 32.9573 74.4293 33.32 75.88 33.32C76.9893 33.32 77.8853 33.0427 78.568 32.488C79.272 31.9333 79.624 31.272 79.624 30.504C79.624 29.8 79.368 29.192 78.856 28.68C78.3653 28.1467 77.6933 27.7947 76.84 27.624L73.256 26.92C71.3573 26.5573 69.864 25.736 68.776 24.456C67.688 23.176 67.144 21.6187 67.144 19.784C67.144 18.504 67.5067 17.3307 68.232 16.264C68.9787 15.176 69.96 14.3227 71.176 13.704C72.4133 13.0853 73.7253 12.776 75.112 12.776C76.8827 12.776 78.3867 13.0747 79.624 13.672C80.8613 14.2693 81.8213 15.0267 82.504 15.944C83.208 16.84 83.6773 17.7893 83.912 18.792L79.848 20.072C79.4 18.92 78.792 18.0987 78.024 17.608C77.256 17.096 76.2853 16.84 75.112 16.84C74.4507 16.84 73.8533 16.9787 73.32 17.256C72.808 17.5333 72.4027 17.896 72.104 18.344C71.8267 18.7707 71.688 19.208 71.688 19.656C71.688 20.36 71.9227 20.9787 72.392 21.512C72.8613 22.024 73.512 22.3547 74.344 22.504L77.736 23.24C79.8053 23.688 81.4053 24.5413 82.536 25.8C83.6667 27.0373 84.232 28.52 84.232 30.248C84.232 31.4853 83.8907 32.648 83.208 33.736C82.5253 34.824 81.544 35.7093 80.264 36.392C79.0053 37.0533 77.5227 37.384 75.816 37.384ZM95.9268 37.384C94.1774 37.384 92.6201 36.9787 91.2548 36.168C89.9108 35.3573 88.8548 34.2587 88.0868 32.872C87.3401 31.4853 86.9668 29.9493 86.9668 28.264C86.9668 26.5573 87.3401 25.0213 88.0868 23.656C88.8548 22.2693 89.8894 21.1813 91.1908 20.392C92.5134 19.6027 93.9854 19.208 95.6068 19.208C97.3561 19.208 98.8708 19.592 100.151 20.36C101.431 21.1067 102.401 22.1307 103.063 23.432C103.745 24.7333 104.087 26.1627 104.087 27.72C104.087 28.4453 104.012 29.032 103.863 29.48H91.3188C91.4468 30.76 91.9374 31.784 92.7908 32.552C93.6441 33.32 94.7001 33.704 95.9588 33.704C96.8974 33.704 97.6974 33.512 98.3588 33.128C99.0414 32.7227 99.5854 32.168 99.9908 31.464L103.383 33.128C102.849 34.408 101.911 35.4427 100.567 36.232C99.2228 37 97.6761 37.384 95.9268 37.384ZM99.6068 26.28C99.5001 25.2133 99.0841 24.3493 98.3588 23.688C97.6334 23.0053 96.7161 22.664 95.6068 22.664C94.5401 22.664 93.6334 22.984 92.8868 23.624C92.1401 24.2427 91.6494 25.128 91.4148 26.28H99.6068ZM107.265 19.592H111.201V21.736C111.649 20.9253 112.299 20.3067 113.153 19.88C114.027 19.432 115.019 19.208 116.129 19.208C117.387 19.208 118.518 19.4853 119.521 20.04C120.523 20.5947 121.302 21.3733 121.857 22.376C122.411 23.3787 122.689 24.52 122.689 25.8V37H118.497V26.792C118.497 25.6613 118.166 24.7547 117.505 24.072C116.865 23.3893 116.022 23.048 114.977 23.048C113.931 23.048 113.078 23.3893 112.417 24.072C111.777 24.7547 111.457 25.6613 111.457 26.792V37H107.265V19.592ZM134.329 37.384C132.665 37.384 131.161 36.9893 129.817 36.2C128.495 35.3893 127.449 34.2907 126.681 32.904C125.913 31.5173 125.529 29.9813 125.529 28.296C125.529 26.6107 125.913 25.0747 126.681 23.688C127.449 22.3013 128.505 21.2133 129.849 20.424C131.193 19.6133 132.676 19.208 134.297 19.208C135.407 19.208 136.42 19.4 137.337 19.784C138.255 20.1467 139.023 20.6693 139.641 21.352V12.776H143.833V37H139.865V35.08C139.225 35.8267 138.425 36.4027 137.465 36.808C136.505 37.192 135.46 37.384 134.329 37.384ZM129.881 28.296C129.881 29.2987 130.084 30.2053 130.489 31.016C130.916 31.8053 131.503 32.424 132.249 32.872C132.996 33.32 133.839 33.544 134.777 33.544C135.716 33.544 136.548 33.32 137.273 32.872C138.02 32.424 138.596 31.8053 139.001 31.016C139.428 30.2053 139.641 29.2987 139.641 28.296C139.641 27.2933 139.428 26.3973 139.001 25.608C138.596 24.7973 138.02 24.168 137.273 23.72C136.527 23.272 135.695 23.048 134.777 23.048C133.839 23.048 132.996 23.2827 132.249 23.752C131.503 24.2 130.916 24.8293 130.489 25.64C130.084 26.4293 129.881 27.3147 129.881 28.296ZM161.933 37.384C160.247 37.384 158.701 36.9893 157.293 36.2C155.885 35.4107 154.765 34.3227 153.933 32.936C153.122 31.5493 152.717 30.0027 152.717 28.296C152.717 26.5893 153.122 25.0427 153.933 23.656C154.743 22.2693 155.853 21.1813 157.261 20.392C158.669 19.6027 160.226 19.208 161.933 19.208C163.618 19.208 165.154 19.6027 166.541 20.392C167.949 21.1813 169.058 22.2693 169.869 23.656C170.701 25.0427 171.117 26.5893 171.117 28.296C171.117 30.024 170.701 31.5813 169.869 32.968C169.058 34.3547 167.949 35.4427 166.541 36.232C165.133 37 163.597 37.384 161.933 37.384ZM157.069 28.296C157.069 29.8107 157.517 31.0693 158.413 32.072C159.33 33.0533 160.503 33.544 161.933 33.544C162.85 33.544 163.671 33.32 164.397 32.872C165.122 32.424 165.687 31.8053 166.093 31.016C166.519 30.2053 166.733 29.2987 166.733 28.296C166.733 27.3147 166.519 26.4293 166.093 25.64C165.687 24.8293 165.122 24.2 164.397 23.752C163.671 23.2827 162.85 23.048 161.933 23.048C160.994 23.048 160.151 23.2827 159.405 23.752C158.679 24.2 158.103 24.8187 157.677 25.608C157.271 26.3973 157.069 27.2933 157.069 28.296ZM174.296 19.592H178.232V21.736C178.68 20.9253 179.33 20.3067 180.184 19.88C181.058 19.432 182.05 19.208 183.16 19.208C184.418 19.208 185.549 19.4853 186.552 20.04C187.554 20.5947 188.333 21.3733 188.888 22.376C189.442 23.3787 189.72 24.52 189.72 25.8V37H185.528V26.792C185.528 25.6613 185.197 24.7547 184.536 24.072C183.896 23.3893 183.053 23.048 182.008 23.048C180.962 23.048 180.109 23.3893 179.448 24.072C178.808 24.7547 178.488 25.6613 178.488 26.792V37H174.296V19.592ZM203.528 17H197.352V13.16H213.992V17H207.912V37H203.528V17ZM222.302 37.384C220.552 37.384 218.995 36.9787 217.63 36.168C216.286 35.3573 215.23 34.2587 214.462 32.872C213.715 31.4853 213.342 29.9493 213.342 28.264C213.342 26.5573 213.715 25.0213 214.462 23.656C215.23 22.2693 216.264 21.1813 217.566 20.392C218.888 19.6027 220.36 19.208 221.982 19.208C223.731 19.208 225.246 19.592 226.526 20.36C227.806 21.1067 228.776 22.1307 229.438 23.432C230.12 24.7333 230.462 26.1627 230.462 27.72C230.462 28.4453 230.387 29.032 230.238 29.48H217.694C217.822 30.76 218.312 31.784 219.166 32.552C220.019 33.32 221.075 33.704 222.334 33.704C223.272 33.704 224.072 33.512 224.734 33.128C225.416 32.7227 225.96 32.168 226.366 31.464L229.758 33.128C229.224 34.408 228.286 35.4427 226.942 36.232C225.598 37 224.051 37.384 222.302 37.384ZM225.982 26.28C225.875 25.2133 225.459 24.3493 224.734 23.688C224.008 23.0053 223.091 22.664 221.982 22.664C220.915 22.664 220.008 22.984 219.262 23.624C218.515 24.2427 218.024 25.128 217.79 26.28H225.982ZM233.64 12.776H237.832V37H233.64V12.776ZM249.958 37.384C248.209 37.384 246.651 36.9787 245.286 36.168C243.942 35.3573 242.886 34.2587 242.118 32.872C241.371 31.4853 240.998 29.9493 240.998 28.264C240.998 26.5573 241.371 25.0213 242.118 23.656C242.886 22.2693 243.921 21.1813 245.222 20.392C246.545 19.6027 248.017 19.208 249.638 19.208C251.387 19.208 252.902 19.592 254.182 20.36C255.462 21.1067 256.433 22.1307 257.094 23.432C257.777 24.7333 258.118 26.1627 258.118 27.72C258.118 28.4453 258.043 29.032 257.894 29.48H245.35C245.478 30.76 245.969 31.784 246.822 32.552C247.675 33.32 248.731 33.704 249.99 33.704C250.929 33.704 251.729 33.512 252.39 33.128C253.073 32.7227 253.617 32.168 254.022 31.464L257.414 33.128C256.881 34.408 255.942 35.4427 254.598 36.232C253.254 37 251.707 37.384 249.958 37.384ZM253.638 26.28C253.531 25.2133 253.115 24.3493 252.39 23.688C251.665 23.0053 250.747 22.664 249.638 22.664C248.571 22.664 247.665 22.984 246.918 23.624C246.171 24.2427 245.681 25.128 245.446 26.28H253.638ZM269.744 44.04C267.781 44.04 266.053 43.5707 264.56 42.632C263.088 41.7147 262.074 40.488 261.52 38.952L265.424 37.48C265.68 38.312 266.192 38.9733 266.96 39.464C267.728 39.9547 268.656 40.2 269.744 40.2C271.024 40.2 272.058 39.8373 272.848 39.112C273.658 38.3867 274.064 37.3947 274.064 36.136V34.248C272.826 35.6133 271.152 36.296 269.04 36.296C267.44 36.296 265.989 35.9227 264.688 35.176C263.408 34.4293 262.405 33.4053 261.68 32.104C260.954 30.8027 260.592 29.3413 260.592 27.72C260.592 26.0987 260.944 24.648 261.648 23.368C262.373 22.0667 263.376 21.0533 264.656 20.328C265.936 19.5813 267.365 19.208 268.944 19.208C271.184 19.208 272.965 19.9973 274.288 21.576V19.592H278.256V36.136C278.256 37.6507 277.893 39.0053 277.168 40.2C276.442 41.416 275.429 42.3547 274.128 43.016C272.848 43.6987 271.386 44.04 269.744 44.04ZM264.944 27.752C264.944 29.096 265.37 30.216 266.224 31.112C267.098 31.9867 268.208 32.424 269.552 32.424C270.874 32.424 271.952 31.9867 272.784 31.112C273.637 30.2373 274.064 29.1173 274.064 27.752C274.064 26.3867 273.637 25.2667 272.784 24.392C271.93 23.496 270.853 23.048 269.552 23.048C268.229 23.048 267.13 23.496 266.256 24.392C265.381 25.288 264.944 26.408 264.944 27.752ZM282.171 19.592H286.107V22.024C286.533 21.0853 287.141 20.4133 287.931 20.008C288.72 19.6027 289.68 19.4 290.811 19.4H291.835V23.112H290.331C289.136 23.112 288.176 23.4853 287.451 24.232C286.725 24.9787 286.363 26.0027 286.363 27.304V37H282.171V19.592ZM299.42 37.384C297.585 37.384 296.124 36.936 295.036 36.04C293.969 35.144 293.436 33.928 293.436 32.392C293.436 30.92 293.937 29.704 294.94 28.744C295.942 27.784 297.446 27.144 299.452 26.824L304.636 25.992V25.416C304.636 24.648 304.337 24.0187 303.74 23.528C303.164 23.0373 302.396 22.792 301.436 22.792C300.54 22.792 299.74 23.0373 299.036 23.528C298.353 23.9973 297.852 24.6267 297.532 25.416L294.108 23.752C294.62 22.3867 295.558 21.288 296.924 20.456C298.289 19.624 299.846 19.208 301.595 19.208C303.004 19.208 304.252 19.4747 305.34 20.008C306.449 20.52 307.302 21.256 307.9 22.216C308.518 23.1547 308.828 24.2213 308.828 25.416V37H304.86V35.144C303.494 36.6373 301.681 37.384 299.42 37.384ZM297.788 32.232C297.788 32.8293 298.012 33.3093 298.46 33.672C298.908 34.0133 299.484 34.184 300.188 34.184C301.489 34.184 302.556 33.7787 303.388 32.968C304.22 32.136 304.636 31.112 304.636 29.896V29.192L300.252 29.928C299.42 30.0987 298.801 30.376 298.396 30.76C297.99 31.1227 297.788 31.6133 297.788 32.232ZM312.702 19.592H316.638V21.768C317.086 20.936 317.726 20.3067 318.558 19.88C319.411 19.432 320.393 19.208 321.502 19.208C322.654 19.208 323.71 19.464 324.67 19.976C325.63 20.4667 326.366 21.1493 326.878 22.024C327.454 21.0853 328.201 20.3813 329.118 19.912C330.057 19.4427 331.113 19.208 332.286 19.208C333.502 19.208 334.601 19.4853 335.582 20.04C336.563 20.5947 337.331 21.3733 337.886 22.376C338.441 23.3787 338.718 24.52 338.718 25.8V37H334.526V26.792C334.526 25.64 334.217 24.7333 333.598 24.072C333.001 23.3893 332.19 23.048 331.166 23.048C330.163 23.048 329.353 23.3893 328.734 24.072C328.115 24.7547 327.806 25.6613 327.806 26.792V37H323.614V26.792C323.614 25.64 323.305 24.7333 322.686 24.072C322.089 23.3893 321.278 23.048 320.254 23.048C319.251 23.048 318.441 23.3893 317.822 24.072C317.203 24.7547 316.894 25.6613 316.894 26.792V37H312.702V19.592Z" fill="#131721"/>
<g clip-path="url(#clip0_115_1022)">
<path d="M24 48C37.258 48 48 37.258 48 24C48 10.742 37.258 0 24 0C10.742 0 0 10.742 0 24C0 37.258 10.742 48 24 48ZM10.982 23.48L34.122 14.558C35.196 14.17 36.134 14.82 35.786 16.444L35.788 16.442L31.848 35.004C31.556 36.32 30.774 36.64 29.68 36.02L23.68 31.598L20.786 34.386C20.466 34.706 20.196 34.976 19.576 34.976L20.002 28.87L31.122 18.824C31.606 18.398 31.014 18.158 30.376 18.582L16.634 27.234L10.71 25.386C9.424 24.978 9.396 24.1 10.982 23.48Z" fill="black"/>
</g>
<defs>
<clipPath id="clip0_115_1022">
<rect width="48" height="48" fill="white"/>
</clipPath>
</defs>
</svg>
