<svg width="364" height="48" viewBox="0 0 364 48" fill="none" xmlns="http://www.w3.org/2000/svg">
<path d="M75.816 37.384C73.9387 37.384 72.3067 37.032 70.92 36.328C69.5547 35.624 68.488 34.7387 67.72 33.672C66.952 32.584 66.4613 31.4533 66.248 30.28L70.344 29.192C70.664 30.4933 71.304 31.5067 72.264 32.232C73.224 32.9573 74.4293 33.32 75.88 33.32C76.9893 33.32 77.8853 33.0427 78.568 32.488C79.272 31.9333 79.624 31.272 79.624 30.504C79.624 29.8 79.368 29.192 78.856 28.68C78.3653 28.1467 77.6933 27.7947 76.84 27.624L73.256 26.92C71.3573 26.5573 69.864 25.736 68.776 24.456C67.688 23.176 67.144 21.6187 67.144 19.784C67.144 18.504 67.5067 17.3307 68.232 16.264C68.9787 15.176 69.96 14.3227 71.176 13.704C72.4133 13.0853 73.7253 12.776 75.112 12.776C76.8827 12.776 78.3867 13.0747 79.624 13.672C80.8613 14.2693 81.8213 15.0267 82.504 15.944C83.208 16.84 83.6773 17.7893 83.912 18.792L79.848 20.072C79.4 18.92 78.792 18.0987 78.024 17.608C77.256 17.096 76.2853 16.84 75.112 16.84C74.4507 16.84 73.8533 16.9787 73.32 17.256C72.808 17.5333 72.4027 17.896 72.104 18.344C71.8267 18.7707 71.688 19.208 71.688 19.656C71.688 20.36 71.9227 20.9787 72.392 21.512C72.8613 22.024 73.512 22.3547 74.344 22.504L77.736 23.24C79.8053 23.688 81.4053 24.5413 82.536 25.8C83.6667 27.0373 84.232 28.52 84.232 30.248C84.232 31.4853 83.8907 32.648 83.208 33.736C82.5253 34.824 81.544 35.7093 80.264 36.392C79.0053 37.0533 77.5227 37.384 75.816 37.384ZM87.6708 12.776H91.8628V21.32C92.3534 20.6373 93.0041 20.1147 93.8148 19.752C94.6254 19.3893 95.5321 19.208 96.5348 19.208C97.7934 19.208 98.9241 19.4853 99.9268 20.04C100.929 20.5947 101.708 21.3733 102.263 22.376C102.817 23.3787 103.095 24.52 103.095 25.8V37H98.9028V26.792C98.9028 25.6613 98.5721 24.7547 97.9108 24.072C97.2708 23.3893 96.4281 23.048 95.3828 23.048C94.3588 23.048 93.5161 23.3893 92.8548 24.072C92.1934 24.7547 91.8628 25.6613 91.8628 26.792V37H87.6708V12.776ZM111.92 37.384C110.085 37.384 108.624 36.936 107.536 36.04C106.469 35.144 105.936 33.928 105.936 32.392C105.936 30.92 106.437 29.704 107.44 28.744C108.442 27.784 109.946 27.144 111.952 26.824L117.136 25.992V25.416C117.136 24.648 116.837 24.0187 116.24 23.528C115.664 23.0373 114.896 22.792 113.936 22.792C113.04 22.792 112.24 23.0373 111.536 23.528C110.853 23.9973 110.352 24.6267 110.032 25.416L106.608 23.752C107.12 22.3867 108.058 21.288 109.424 20.456C110.789 19.624 112.346 19.208 114.095 19.208C115.504 19.208 116.752 19.4747 117.84 20.008C118.949 20.52 119.802 21.256 120.4 22.216C121.018 23.1547 121.328 24.2213 121.328 25.416V37H117.36V35.144C115.994 36.6373 114.181 37.384 111.92 37.384ZM110.288 32.232C110.288 32.8293 110.512 33.3093 110.96 33.672C111.408 34.0133 111.984 34.184 112.688 34.184C113.989 34.184 115.056 33.7787 115.888 32.968C116.72 32.136 117.136 31.112 117.136 29.896V29.192L112.752 29.928C111.92 30.0987 111.301 30.376 110.896 30.76C110.49 31.1227 110.288 31.6133 110.288 32.232ZM125.202 19.592H129.138V22.024C129.565 21.0853 130.173 20.4133 130.962 20.008C131.751 19.6027 132.711 19.4 133.842 19.4H134.866V23.112H133.362C132.167 23.112 131.207 23.4853 130.482 24.232C129.757 24.9787 129.394 26.0027 129.394 27.304V37H125.202V19.592ZM145.427 37.384C143.677 37.384 142.12 36.9787 140.755 36.168C139.411 35.3573 138.355 34.2587 137.587 32.872C136.84 31.4853 136.467 29.9493 136.467 28.264C136.467 26.5573 136.84 25.0213 137.587 23.656C138.355 22.2693 139.389 21.1813 140.691 20.392C142.013 19.6027 143.485 19.208 145.107 19.208C146.856 19.208 148.371 19.592 149.651 20.36C150.931 21.1067 151.901 22.1307 152.563 23.432C153.245 24.7333 153.587 26.1627 153.587 27.72C153.587 28.4453 153.512 29.032 153.363 29.48H140.819C140.947 30.76 141.437 31.784 142.291 32.552C143.144 33.32 144.2 33.704 145.459 33.704C146.397 33.704 147.197 33.512 147.859 33.128C148.541 32.7227 149.085 32.168 149.491 31.464L152.883 33.128C152.349 34.408 151.411 35.4427 150.067 36.232C148.723 37 147.176 37.384 145.427 37.384ZM149.107 26.28C149 25.2133 148.584 24.3493 147.859 23.688C147.133 23.0053 146.216 22.664 145.107 22.664C144.04 22.664 143.133 22.984 142.387 23.624C141.64 24.2427 141.149 25.128 140.915 26.28H149.107ZM170.964 37.384C169.279 37.384 167.732 36.9893 166.324 36.2C164.916 35.4107 163.796 34.3227 162.964 32.936C162.153 31.5493 161.748 30.0027 161.748 28.296C161.748 26.5893 162.153 25.0427 162.964 23.656C163.775 22.2693 164.884 21.1813 166.292 20.392C167.7 19.6027 169.257 19.208 170.964 19.208C172.649 19.208 174.185 19.6027 175.572 20.392C176.98 21.1813 178.089 22.2693 178.9 23.656C179.732 25.0427 180.148 26.5893 180.148 28.296C180.148 30.024 179.732 31.5813 178.9 32.968C178.089 34.3547 176.98 35.4427 175.572 36.232C174.164 37 172.628 37.384 170.964 37.384ZM166.1 28.296C166.1 29.8107 166.548 31.0693 167.444 32.072C168.361 33.0533 169.535 33.544 170.964 33.544C171.881 33.544 172.703 33.32 173.428 32.872C174.153 32.424 174.719 31.8053 175.124 31.016C175.551 30.2053 175.764 29.2987 175.764 28.296C175.764 27.3147 175.551 26.4293 175.124 25.64C174.719 24.8293 174.153 24.2 173.428 23.752C172.703 23.2827 171.881 23.048 170.964 23.048C170.025 23.048 169.183 23.2827 168.436 23.752C167.711 24.2 167.135 24.8187 166.708 25.608C166.303 26.3973 166.1 27.2933 166.1 28.296ZM183.327 19.592H187.263V21.736C187.711 20.9253 188.362 20.3067 189.215 19.88C190.09 19.432 191.082 19.208 192.191 19.208C193.45 19.208 194.58 19.4853 195.583 20.04C196.586 20.5947 197.364 21.3733 197.919 22.376C198.474 23.3787 198.751 24.52 198.751 25.8V37H194.559V26.792C194.559 25.6613 194.228 24.7547 193.567 24.072C192.927 23.3893 192.084 23.048 191.039 23.048C189.994 23.048 189.14 23.3893 188.479 24.072C187.839 24.7547 187.519 25.6613 187.519 26.792V37H183.327V19.592ZM208.335 13.16H224.239V17H212.687V23.592H222.799V27.432H212.687V37H208.335V13.16ZM231.263 37.384C229.429 37.384 227.967 36.936 226.879 36.04C225.813 35.144 225.279 33.928 225.279 32.392C225.279 30.92 225.781 29.704 226.783 28.744C227.786 27.784 229.29 27.144 231.295 26.824L236.479 25.992V25.416C236.479 24.648 236.181 24.0187 235.583 23.528C235.007 23.0373 234.239 22.792 233.279 22.792C232.383 22.792 231.583 23.0373 230.879 23.528C230.197 23.9973 229.695 24.6267 229.375 25.416L225.951 23.752C226.463 22.3867 227.402 21.288 228.767 20.456C230.133 19.624 231.69 19.208 233.439 19.208C234.847 19.208 236.095 19.4747 237.183 20.008C238.293 20.52 239.146 21.256 239.743 22.216C240.362 23.1547 240.671 24.2213 240.671 25.416V37H236.703V35.144C235.338 36.6373 233.525 37.384 231.263 37.384ZM229.631 32.232C229.631 32.8293 229.855 33.3093 230.303 33.672C230.751 34.0133 231.327 34.184 232.031 34.184C233.333 34.184 234.399 33.7787 235.231 32.968C236.063 32.136 236.479 31.112 236.479 29.896V29.192L232.095 29.928C231.263 30.0987 230.645 30.376 230.239 30.76C229.834 31.1227 229.631 31.6133 229.631 32.232ZM252.93 37.384C251.223 37.384 249.666 36.9893 248.258 36.2C246.871 35.3893 245.783 34.2907 244.994 32.904C244.204 31.5173 243.81 29.9707 243.81 28.264C243.81 26.5573 244.204 25.0213 244.994 23.656C245.783 22.2693 246.871 21.1813 248.258 20.392C249.644 19.6027 251.202 19.208 252.93 19.208C254.786 19.208 256.439 19.688 257.89 20.648C259.34 21.5867 260.332 22.824 260.866 24.36L257.218 25.96C256.876 25.064 256.322 24.36 255.554 23.848C254.786 23.3147 253.911 23.048 252.93 23.048C252.034 23.048 251.223 23.272 250.498 23.72C249.772 24.168 249.196 24.7973 248.77 25.608C248.364 26.3973 248.162 27.2933 248.162 28.296C248.162 29.2987 248.364 30.2053 248.77 31.016C249.196 31.8053 249.772 32.424 250.498 32.872C251.223 33.32 252.034 33.544 252.93 33.544C253.932 33.544 254.807 33.288 255.554 32.776C256.322 32.2427 256.876 31.5173 257.218 30.6L260.866 32.264C260.354 33.7787 259.362 35.016 257.89 35.976C256.439 36.9147 254.786 37.384 252.93 37.384ZM272.271 37.384C270.521 37.384 268.964 36.9787 267.599 36.168C266.255 35.3573 265.199 34.2587 264.431 32.872C263.684 31.4853 263.311 29.9493 263.311 28.264C263.311 26.5573 263.684 25.0213 264.431 23.656C265.199 22.2693 266.233 21.1813 267.535 20.392C268.857 19.6027 270.329 19.208 271.951 19.208C273.7 19.208 275.215 19.592 276.495 20.36C277.775 21.1067 278.745 22.1307 279.407 23.432C280.089 24.7333 280.431 26.1627 280.431 27.72C280.431 28.4453 280.356 29.032 280.207 29.48H267.663C267.791 30.76 268.281 31.784 269.135 32.552C269.988 33.32 271.044 33.704 272.303 33.704C273.241 33.704 274.041 33.512 274.703 33.128C275.385 32.7227 275.929 32.168 276.335 31.464L279.727 33.128C279.193 34.408 278.255 35.4427 276.911 36.232C275.567 37 274.02 37.384 272.271 37.384ZM275.951 26.28C275.844 25.2133 275.428 24.3493 274.703 23.688C273.977 23.0053 273.06 22.664 271.951 22.664C270.884 22.664 269.977 22.984 269.231 23.624C268.484 24.2427 267.993 25.128 267.759 26.28H275.951ZM293.112 37.384C291.982 37.384 290.926 37.1813 289.944 36.776C288.984 36.3707 288.184 35.7947 287.544 35.048V37H283.608V12.776H287.8V21.352C288.419 20.6693 289.187 20.1467 290.104 19.784C291.022 19.4 292.035 19.208 293.144 19.208C294.766 19.208 296.248 19.6133 297.592 20.424C298.936 21.2133 299.992 22.3013 300.76 23.688C301.528 25.0747 301.912 26.6107 301.912 28.296C301.912 29.9813 301.528 31.5173 300.76 32.904C299.992 34.2907 298.936 35.3893 297.592 36.2C296.27 36.9893 294.776 37.384 293.112 37.384ZM287.8 28.296C287.8 29.2987 288.003 30.2053 288.408 31.016C288.835 31.8053 289.411 32.424 290.136 32.872C290.883 33.32 291.715 33.544 292.632 33.544C294.062 33.544 295.235 33.0533 296.152 32.072C297.091 31.0693 297.56 29.8107 297.56 28.296C297.56 27.3147 297.347 26.4293 296.92 25.64C296.494 24.8293 295.907 24.2 295.16 23.752C294.414 23.2827 293.571 23.048 292.632 23.048C291.715 23.048 290.883 23.272 290.136 23.72C289.411 24.168 288.835 24.7973 288.408 25.608C288.003 26.3973 287.8 27.2933 287.8 28.296ZM313.62 37.384C311.935 37.384 310.388 36.9893 308.98 36.2C307.572 35.4107 306.452 34.3227 305.62 32.936C304.81 31.5493 304.404 30.0027 304.404 28.296C304.404 26.5893 304.81 25.0427 305.62 23.656C306.431 22.2693 307.54 21.1813 308.948 20.392C310.356 19.6027 311.914 19.208 313.62 19.208C315.306 19.208 316.842 19.6027 318.228 20.392C319.636 21.1813 320.746 22.2693 321.556 23.656C322.388 25.0427 322.804 26.5893 322.804 28.296C322.804 30.024 322.388 31.5813 321.556 32.968C320.746 34.3547 319.636 35.4427 318.228 36.232C316.82 37 315.284 37.384 313.62 37.384ZM308.756 28.296C308.756 29.8107 309.204 31.0693 310.1 32.072C311.018 33.0533 312.191 33.544 313.62 33.544C314.538 33.544 315.359 33.32 316.084 32.872C316.81 32.424 317.375 31.8053 317.78 31.016C318.207 30.2053 318.42 29.2987 318.42 28.296C318.42 27.3147 318.207 26.4293 317.78 25.64C317.375 24.8293 316.81 24.2 316.084 23.752C315.359 23.2827 314.538 23.048 313.62 23.048C312.682 23.048 311.839 23.2827 311.092 23.752C310.367 24.2 309.791 24.8187 309.364 25.608C308.959 26.3973 308.756 27.2933 308.756 28.296ZM334.495 37.384C332.81 37.384 331.263 36.9893 329.855 36.2C328.447 35.4107 327.327 34.3227 326.495 32.936C325.685 31.5493 325.279 30.0027 325.279 28.296C325.279 26.5893 325.685 25.0427 326.495 23.656C327.306 22.2693 328.415 21.1813 329.823 20.392C331.231 19.6027 332.789 19.208 334.495 19.208C336.181 19.208 337.717 19.6027 339.103 20.392C340.511 21.1813 341.621 22.2693 342.431 23.656C343.263 25.0427 343.679 26.5893 343.679 28.296C343.679 30.024 343.263 31.5813 342.431 32.968C341.621 34.3547 340.511 35.4427 339.103 36.232C337.695 37 336.159 37.384 334.495 37.384ZM329.631 28.296C329.631 29.8107 330.079 31.0693 330.975 32.072C331.893 33.0533 333.066 33.544 334.495 33.544C335.413 33.544 336.234 33.32 336.959 32.872C337.685 32.424 338.25 31.8053 338.655 31.016C339.082 30.2053 339.295 29.2987 339.295 28.296C339.295 27.3147 339.082 26.4293 338.655 25.64C338.25 24.8293 337.685 24.2 336.959 23.752C336.234 23.2827 335.413 23.048 334.495 23.048C333.557 23.048 332.714 23.2827 331.967 23.752C331.242 24.2 330.666 24.8187 330.239 25.608C329.834 26.3973 329.631 27.2933 329.631 28.296ZM346.858 12.776H351.05V26.504L357.642 19.592H362.858L356.426 26.6L362.986 37H358.186L353.29 29.256L351.05 31.688V37H346.858V12.776Z" fill="#131721"/>
<g clip-path="url(#clip0_115_949)">
<path fill-rule="evenodd" clip-rule="evenodd" d="M23.9236 0.727295C28.2505 0.77667 32.1594 1.84009 35.6503 3.91754C39.0996 5.95352 41.9689 8.84038 43.9838 12.302C46.0487 15.814 47.1057 19.7466 47.1549 24.0998C47.0322 30.056 45.1536 35.1433 41.5189 39.3615C37.8842 43.5796 33.2291 46.1893 28.4101 47.1897V30.4902H32.9661L33.9964 23.9277H27.0976V19.6295C27.0593 18.7384 27.3411 17.863 27.892 17.1617C28.4438 16.4584 29.4153 16.0887 30.8067 16.0527H34.9726V10.3041C34.9128 10.2849 34.3457 10.2088 33.2711 10.076C32.0523 9.93337 30.8268 9.85721 29.5998 9.84781C26.8228 9.86062 24.6265 10.644 23.0109 12.1979C21.3954 13.7513 20.5701 15.9989 20.5352 18.9405V23.9277H15.2852V30.4902H20.5352V47.1897C14.6181 46.1893 9.96296 43.5796 6.32828 39.3615C2.69359 35.1433 0.815027 30.056 0.692383 24.0998C0.741452 19.7464 1.79844 15.8138 3.86335 12.302C5.87829 8.84038 8.74762 5.95353 12.1969 3.91754C15.6878 1.84049 19.5967 0.77707 23.9236 0.727295Z" fill="black"/>
</g>
<defs>
<clipPath id="clip0_115_949">
<rect width="48" height="48" fill="white"/>
</clipPath>
</defs>
</svg>
