<svg width="446" height="68" viewBox="0 0 446 68" fill="none" xmlns="http://www.w3.org/2000/svg">
<rect x="1.5" y="1.5" width="443" height="65" rx="10.5" fill="white"/>
<path d="M94.816 47.384C92.9387 47.384 91.3067 47.032 89.92 46.328C88.5547 45.624 87.488 44.7387 86.72 43.672C85.952 42.584 85.4613 41.4533 85.248 40.28L89.344 39.192C89.664 40.4933 90.304 41.5067 91.264 42.232C92.224 42.9573 93.4293 43.32 94.88 43.32C95.9893 43.32 96.8853 43.0427 97.568 42.488C98.272 41.9333 98.624 41.272 98.624 40.504C98.624 39.8 98.368 39.192 97.856 38.68C97.3653 38.1467 96.6933 37.7947 95.84 37.624L92.256 36.92C90.3573 36.5573 88.864 35.736 87.776 34.456C86.688 33.176 86.144 31.6187 86.144 29.784C86.144 28.504 86.5067 27.3307 87.232 26.264C87.9787 25.176 88.96 24.3227 90.176 23.704C91.4133 23.0853 92.7253 22.776 94.112 22.776C95.8827 22.776 97.3867 23.0747 98.624 23.672C99.8613 24.2693 100.821 25.0267 101.504 25.944C102.208 26.84 102.677 27.7893 102.912 28.792L98.848 30.072C98.4 28.92 97.792 28.0987 97.024 27.608C96.256 27.096 95.2853 26.84 94.112 26.84C93.4507 26.84 92.8533 26.9787 92.32 27.256C91.808 27.5333 91.4027 27.896 91.104 28.344C90.8267 28.7707 90.688 29.208 90.688 29.656C90.688 30.36 90.9227 30.9787 91.392 31.512C91.8613 32.024 92.512 32.3547 93.344 32.504L96.736 33.24C98.8053 33.688 100.405 34.5413 101.536 35.8C102.667 37.0373 103.232 38.52 103.232 40.248C103.232 41.4853 102.891 42.648 102.208 43.736C101.525 44.824 100.544 45.7093 99.264 46.392C98.0053 47.0533 96.5227 47.384 94.816 47.384ZM114.927 47.384C113.177 47.384 111.62 46.9787 110.255 46.168C108.911 45.3573 107.855 44.2587 107.087 42.872C106.34 41.4853 105.967 39.9493 105.967 38.264C105.967 36.5573 106.34 35.0213 107.087 33.656C107.855 32.2693 108.889 31.1813 110.191 30.392C111.513 29.6027 112.985 29.208 114.607 29.208C116.356 29.208 117.871 29.592 119.151 30.36C120.431 31.1067 121.401 32.1307 122.063 33.432C122.745 34.7333 123.087 36.1627 123.087 37.72C123.087 38.4453 123.012 39.032 122.863 39.48H110.319C110.447 40.76 110.937 41.784 111.791 42.552C112.644 43.32 113.7 43.704 114.959 43.704C115.897 43.704 116.697 43.512 117.359 43.128C118.041 42.7227 118.585 42.168 118.991 41.464L122.383 43.128C121.849 44.408 120.911 45.4427 119.567 46.232C118.223 47 116.676 47.384 114.927 47.384ZM118.607 36.28C118.5 35.2133 118.084 34.3493 117.359 33.688C116.633 33.0053 115.716 32.664 114.607 32.664C113.54 32.664 112.633 32.984 111.887 33.624C111.14 34.2427 110.649 35.128 110.415 36.28H118.607ZM126.265 29.592H130.201V31.736C130.649 30.9253 131.299 30.3067 132.153 29.88C133.027 29.432 134.019 29.208 135.129 29.208C136.387 29.208 137.518 29.4853 138.521 30.04C139.523 30.5947 140.302 31.3733 140.857 32.376C141.411 33.3787 141.689 34.52 141.689 35.8V47H137.497V36.792C137.497 35.6613 137.166 34.7547 136.505 34.072C135.865 33.3893 135.022 33.048 133.977 33.048C132.931 33.048 132.078 33.3893 131.417 34.072C130.777 34.7547 130.457 35.6613 130.457 36.792V47H126.265V29.592ZM153.329 47.384C151.665 47.384 150.161 46.9893 148.817 46.2C147.495 45.3893 146.449 44.2907 145.681 42.904C144.913 41.5173 144.529 39.9813 144.529 38.296C144.529 36.6107 144.913 35.0747 145.681 33.688C146.449 32.3013 147.505 31.2133 148.849 30.424C150.193 29.6133 151.676 29.208 153.297 29.208C154.407 29.208 155.42 29.4 156.337 29.784C157.255 30.1467 158.023 30.6693 158.641 31.352V22.776H162.833V47H158.865V45.08C158.225 45.8267 157.425 46.4027 156.465 46.808C155.505 47.192 154.46 47.384 153.329 47.384ZM148.881 38.296C148.881 39.2987 149.084 40.2053 149.489 41.016C149.916 41.8053 150.503 42.424 151.249 42.872C151.996 43.32 152.839 43.544 153.777 43.544C154.716 43.544 155.548 43.32 156.273 42.872C157.02 42.424 157.596 41.8053 158.001 41.016C158.428 40.2053 158.641 39.2987 158.641 38.296C158.641 37.2933 158.428 36.3973 158.001 35.608C157.596 34.7973 157.02 34.168 156.273 33.72C155.527 33.272 154.695 33.048 153.777 33.048C152.839 33.048 151.996 33.2827 151.249 33.752C150.503 34.2 149.916 34.8293 149.489 35.64C149.084 36.4293 148.881 37.3147 148.881 38.296ZM180.933 47.384C179.247 47.384 177.701 46.9893 176.293 46.2C174.885 45.4107 173.765 44.3227 172.933 42.936C172.122 41.5493 171.717 40.0027 171.717 38.296C171.717 36.5893 172.122 35.0427 172.933 33.656C173.743 32.2693 174.853 31.1813 176.261 30.392C177.669 29.6027 179.226 29.208 180.933 29.208C182.618 29.208 184.154 29.6027 185.541 30.392C186.949 31.1813 188.058 32.2693 188.869 33.656C189.701 35.0427 190.117 36.5893 190.117 38.296C190.117 40.024 189.701 41.5813 188.869 42.968C188.058 44.3547 186.949 45.4427 185.541 46.232C184.133 47 182.597 47.384 180.933 47.384ZM176.069 38.296C176.069 39.8107 176.517 41.0693 177.413 42.072C178.33 43.0533 179.503 43.544 180.933 43.544C181.85 43.544 182.671 43.32 183.397 42.872C184.122 42.424 184.687 41.8053 185.093 41.016C185.519 40.2053 185.733 39.2987 185.733 38.296C185.733 37.3147 185.519 36.4293 185.093 35.64C184.687 34.8293 184.122 34.2 183.397 33.752C182.671 33.2827 181.85 33.048 180.933 33.048C179.994 33.048 179.151 33.2827 178.405 33.752C177.679 34.2 177.103 34.8187 176.677 35.608C176.271 36.3973 176.069 37.2933 176.069 38.296ZM193.296 29.592H197.232V31.736C197.68 30.9253 198.33 30.3067 199.184 29.88C200.058 29.432 201.05 29.208 202.16 29.208C203.418 29.208 204.549 29.4853 205.552 30.04C206.554 30.5947 207.333 31.3733 207.888 32.376C208.442 33.3787 208.72 34.52 208.72 35.8V47H204.528V36.792C204.528 35.6613 204.197 34.7547 203.536 34.072C202.896 33.3893 202.053 33.048 201.008 33.048C199.962 33.048 199.109 33.3893 198.448 34.072C197.808 34.7547 197.488 35.6613 197.488 36.792V47H193.296V29.592ZM222.528 27H216.352V23.16H232.992V27H226.912V47H222.528V27ZM241.302 47.384C239.552 47.384 237.995 46.9787 236.63 46.168C235.286 45.3573 234.23 44.2587 233.462 42.872C232.715 41.4853 232.342 39.9493 232.342 38.264C232.342 36.5573 232.715 35.0213 233.462 33.656C234.23 32.2693 235.264 31.1813 236.566 30.392C237.888 29.6027 239.36 29.208 240.982 29.208C242.731 29.208 244.246 29.592 245.526 30.36C246.806 31.1067 247.776 32.1307 248.438 33.432C249.12 34.7333 249.462 36.1627 249.462 37.72C249.462 38.4453 249.387 39.032 249.238 39.48H236.694C236.822 40.76 237.312 41.784 238.166 42.552C239.019 43.32 240.075 43.704 241.334 43.704C242.272 43.704 243.072 43.512 243.734 43.128C244.416 42.7227 244.96 42.168 245.366 41.464L248.758 43.128C248.224 44.408 247.286 45.4427 245.942 46.232C244.598 47 243.051 47.384 241.302 47.384ZM244.982 36.28C244.875 35.2133 244.459 34.3493 243.734 33.688C243.008 33.0053 242.091 32.664 240.982 32.664C239.915 32.664 239.008 32.984 238.262 33.624C237.515 34.2427 237.024 35.128 236.79 36.28H244.982ZM252.64 22.776H256.832V47H252.64V22.776ZM268.958 47.384C267.209 47.384 265.651 46.9787 264.286 46.168C262.942 45.3573 261.886 44.2587 261.118 42.872C260.371 41.4853 259.998 39.9493 259.998 38.264C259.998 36.5573 260.371 35.0213 261.118 33.656C261.886 32.2693 262.921 31.1813 264.222 30.392C265.545 29.6027 267.017 29.208 268.638 29.208C270.387 29.208 271.902 29.592 273.182 30.36C274.462 31.1067 275.433 32.1307 276.094 33.432C276.777 34.7333 277.118 36.1627 277.118 37.72C277.118 38.4453 277.043 39.032 276.894 39.48H264.35C264.478 40.76 264.969 41.784 265.822 42.552C266.675 43.32 267.731 43.704 268.99 43.704C269.929 43.704 270.729 43.512 271.39 43.128C272.073 42.7227 272.617 42.168 273.022 41.464L276.414 43.128C275.881 44.408 274.942 45.4427 273.598 46.232C272.254 47 270.707 47.384 268.958 47.384ZM272.638 36.28C272.531 35.2133 272.115 34.3493 271.39 33.688C270.665 33.0053 269.747 32.664 268.638 32.664C267.571 32.664 266.665 32.984 265.918 33.624C265.171 34.2427 264.681 35.128 264.446 36.28H272.638ZM288.744 54.04C286.781 54.04 285.053 53.5707 283.56 52.632C282.088 51.7147 281.074 50.488 280.52 48.952L284.424 47.48C284.68 48.312 285.192 48.9733 285.96 49.464C286.728 49.9547 287.656 50.2 288.744 50.2C290.024 50.2 291.058 49.8373 291.848 49.112C292.658 48.3867 293.064 47.3947 293.064 46.136V44.248C291.826 45.6133 290.152 46.296 288.04 46.296C286.44 46.296 284.989 45.9227 283.688 45.176C282.408 44.4293 281.405 43.4053 280.68 42.104C279.954 40.8027 279.592 39.3413 279.592 37.72C279.592 36.0987 279.944 34.648 280.648 33.368C281.373 32.0667 282.376 31.0533 283.656 30.328C284.936 29.5813 286.365 29.208 287.944 29.208C290.184 29.208 291.965 29.9973 293.288 31.576V29.592H297.256V46.136C297.256 47.6507 296.893 49.0053 296.168 50.2C295.442 51.416 294.429 52.3547 293.128 53.016C291.848 53.6987 290.386 54.04 288.744 54.04ZM283.944 37.752C283.944 39.096 284.37 40.216 285.224 41.112C286.098 41.9867 287.208 42.424 288.552 42.424C289.874 42.424 290.952 41.9867 291.784 41.112C292.637 40.2373 293.064 39.1173 293.064 37.752C293.064 36.3867 292.637 35.2667 291.784 34.392C290.93 33.496 289.853 33.048 288.552 33.048C287.229 33.048 286.13 33.496 285.256 34.392C284.381 35.288 283.944 36.408 283.944 37.752ZM301.171 29.592H305.107V32.024C305.533 31.0853 306.141 30.4133 306.931 30.008C307.72 29.6027 308.68 29.4 309.811 29.4H310.835V33.112H309.331C308.136 33.112 307.176 33.4853 306.451 34.232C305.725 34.9787 305.363 36.0027 305.363 37.304V47H301.171V29.592ZM318.42 47.384C316.585 47.384 315.124 46.936 314.036 46.04C312.969 45.144 312.436 43.928 312.436 42.392C312.436 40.92 312.937 39.704 313.94 38.744C314.942 37.784 316.446 37.144 318.452 36.824L323.636 35.992V35.416C323.636 34.648 323.337 34.0187 322.74 33.528C322.164 33.0373 321.396 32.792 320.436 32.792C319.54 32.792 318.74 33.0373 318.036 33.528C317.353 33.9973 316.852 34.6267 316.532 35.416L313.108 33.752C313.62 32.3867 314.558 31.288 315.924 30.456C317.289 29.624 318.846 29.208 320.595 29.208C322.004 29.208 323.252 29.4747 324.34 30.008C325.449 30.52 326.302 31.256 326.9 32.216C327.518 33.1547 327.828 34.2213 327.828 35.416V47H323.86V45.144C322.494 46.6373 320.681 47.384 318.42 47.384ZM316.788 42.232C316.788 42.8293 317.012 43.3093 317.46 43.672C317.908 44.0133 318.484 44.184 319.188 44.184C320.489 44.184 321.556 43.7787 322.388 42.968C323.22 42.136 323.636 41.112 323.636 39.896V39.192L319.252 39.928C318.42 40.0987 317.801 40.376 317.396 40.76C316.99 41.1227 316.788 41.6133 316.788 42.232ZM331.702 29.592H335.638V31.768C336.086 30.936 336.726 30.3067 337.558 29.88C338.411 29.432 339.393 29.208 340.502 29.208C341.654 29.208 342.71 29.464 343.67 29.976C344.63 30.4667 345.366 31.1493 345.878 32.024C346.454 31.0853 347.201 30.3813 348.118 29.912C349.057 29.4427 350.113 29.208 351.286 29.208C352.502 29.208 353.601 29.4853 354.582 30.04C355.563 30.5947 356.331 31.3733 356.886 32.376C357.441 33.3787 357.718 34.52 357.718 35.8V47H353.526V36.792C353.526 35.64 353.217 34.7333 352.598 34.072C352.001 33.3893 351.19 33.048 350.166 33.048C349.163 33.048 348.353 33.3893 347.734 34.072C347.115 34.7547 346.806 35.6613 346.806 36.792V47H342.614V36.792C342.614 35.64 342.305 34.7333 341.686 34.072C341.089 33.3893 340.278 33.048 339.254 33.048C338.251 33.048 337.441 33.3893 336.822 34.072C336.203 34.7547 335.894 35.6613 335.894 36.792V47H331.702V29.592Z" fill="#131721"/>
<g clip-path="url(#clip0_115_1092)">
<path d="M43 58C56.258 58 67 47.258 67 34C67 20.742 56.258 10 43 10C29.742 10 19 20.742 19 34C19 47.258 29.742 58 43 58ZM29.982 33.48L53.122 24.558C54.196 24.17 55.134 24.82 54.786 26.444L54.788 26.442L50.848 45.004C50.556 46.32 49.774 46.64 48.68 46.02L42.68 41.598L39.786 44.386C39.466 44.706 39.196 44.976 38.576 44.976L39.002 38.87L50.122 28.824C50.606 28.398 50.014 28.158 49.376 28.582L35.634 37.234L29.71 35.386C28.424 34.978 28.396 34.1 29.982 33.48Z" fill="black"/>
</g>
<rect x="1.5" y="1.5" width="443" height="65" rx="10.5" stroke="black" stroke-width="3"/>
<defs>
<clipPath id="clip0_115_1092">
<rect width="48" height="48" fill="white" transform="translate(19 10)"/>
</clipPath>
</defs>
</svg>
