<svg width="363" height="48" viewBox="0 0 363 48" fill="none" xmlns="http://www.w3.org/2000/svg">
<path d="M75.816 37.384C73.9387 37.384 72.3067 37.032 70.92 36.328C69.5547 35.624 68.488 34.7387 67.72 33.672C66.952 32.584 66.4613 31.4533 66.248 30.28L70.344 29.192C70.664 30.4933 71.304 31.5067 72.264 32.232C73.224 32.9573 74.4293 33.32 75.88 33.32C76.9893 33.32 77.8853 33.0427 78.568 32.488C79.272 31.9333 79.624 31.272 79.624 30.504C79.624 29.8 79.368 29.192 78.856 28.68C78.3653 28.1467 77.6933 27.7947 76.84 27.624L73.256 26.92C71.3573 26.5573 69.864 25.736 68.776 24.456C67.688 23.176 67.144 21.6187 67.144 19.784C67.144 18.504 67.5067 17.3307 68.232 16.264C68.9787 15.176 69.96 14.3227 71.176 13.704C72.4133 13.0853 73.7253 12.776 75.112 12.776C76.8827 12.776 78.3867 13.0747 79.624 13.672C80.8613 14.2693 81.8213 15.0267 82.504 15.944C83.208 16.84 83.6773 17.7893 83.912 18.792L79.848 20.072C79.4 18.92 78.792 18.0987 78.024 17.608C77.256 17.096 76.2853 16.84 75.112 16.84C74.4507 16.84 73.8533 16.9787 73.32 17.256C72.808 17.5333 72.4027 17.896 72.104 18.344C71.8267 18.7707 71.688 19.208 71.688 19.656C71.688 20.36 71.9227 20.9787 72.392 21.512C72.8613 22.024 73.512 22.3547 74.344 22.504L77.736 23.24C79.8053 23.688 81.4053 24.5413 82.536 25.8C83.6667 27.0373 84.232 28.52 84.232 30.248C84.232 31.4853 83.8907 32.648 83.208 33.736C82.5253 34.824 81.544 35.7093 80.264 36.392C79.0053 37.0533 77.5227 37.384 75.816 37.384ZM95.9268 37.384C94.1774 37.384 92.6201 36.9787 91.2548 36.168C89.9108 35.3573 88.8548 34.2587 88.0868 32.872C87.3401 31.4853 86.9668 29.9493 86.9668 28.264C86.9668 26.5573 87.3401 25.0213 88.0868 23.656C88.8548 22.2693 89.8894 21.1813 91.1908 20.392C92.5134 19.6027 93.9854 19.208 95.6068 19.208C97.3561 19.208 98.8708 19.592 100.151 20.36C101.431 21.1067 102.401 22.1307 103.063 23.432C103.745 24.7333 104.087 26.1627 104.087 27.72C104.087 28.4453 104.012 29.032 103.863 29.48H91.3188C91.4468 30.76 91.9374 31.784 92.7908 32.552C93.6441 33.32 94.7001 33.704 95.9588 33.704C96.8974 33.704 97.6974 33.512 98.3588 33.128C99.0414 32.7227 99.5854 32.168 99.9908 31.464L103.383 33.128C102.849 34.408 101.911 35.4427 100.567 36.232C99.2228 37 97.6761 37.384 95.9268 37.384ZM99.6068 26.28C99.5001 25.2133 99.0841 24.3493 98.3588 23.688C97.6334 23.0053 96.7161 22.664 95.6068 22.664C94.5401 22.664 93.6334 22.984 92.8868 23.624C92.1401 24.2427 91.6494 25.128 91.4148 26.28H99.6068ZM107.265 19.592H111.201V21.736C111.649 20.9253 112.299 20.3067 113.153 19.88C114.027 19.432 115.019 19.208 116.129 19.208C117.387 19.208 118.518 19.4853 119.521 20.04C120.523 20.5947 121.302 21.3733 121.857 22.376C122.411 23.3787 122.689 24.52 122.689 25.8V37H118.497V26.792C118.497 25.6613 118.166 24.7547 117.505 24.072C116.865 23.3893 116.022 23.048 114.977 23.048C113.931 23.048 113.078 23.3893 112.417 24.072C111.777 24.7547 111.457 25.6613 111.457 26.792V37H107.265V19.592ZM134.329 37.384C132.665 37.384 131.161 36.9893 129.817 36.2C128.495 35.3893 127.449 34.2907 126.681 32.904C125.913 31.5173 125.529 29.9813 125.529 28.296C125.529 26.6107 125.913 25.0747 126.681 23.688C127.449 22.3013 128.505 21.2133 129.849 20.424C131.193 19.6133 132.676 19.208 134.297 19.208C135.407 19.208 136.42 19.4 137.337 19.784C138.255 20.1467 139.023 20.6693 139.641 21.352V12.776H143.833V37H139.865V35.08C139.225 35.8267 138.425 36.4027 137.465 36.808C136.505 37.192 135.46 37.384 134.329 37.384ZM129.881 28.296C129.881 29.2987 130.084 30.2053 130.489 31.016C130.916 31.8053 131.503 32.424 132.249 32.872C132.996 33.32 133.839 33.544 134.777 33.544C135.716 33.544 136.548 33.32 137.273 32.872C138.02 32.424 138.596 31.8053 139.001 31.016C139.428 30.2053 139.641 29.2987 139.641 28.296C139.641 27.2933 139.428 26.3973 139.001 25.608C138.596 24.7973 138.02 24.168 137.273 23.72C136.527 23.272 135.695 23.048 134.777 23.048C133.839 23.048 132.996 23.2827 132.249 23.752C131.503 24.2 130.916 24.8293 130.489 25.64C130.084 26.4293 129.881 27.3147 129.881 28.296ZM161.933 37.384C160.247 37.384 158.701 36.9893 157.293 36.2C155.885 35.4107 154.765 34.3227 153.933 32.936C153.122 31.5493 152.717 30.0027 152.717 28.296C152.717 26.5893 153.122 25.0427 153.933 23.656C154.743 22.2693 155.853 21.1813 157.261 20.392C158.669 19.6027 160.226 19.208 161.933 19.208C163.618 19.208 165.154 19.6027 166.541 20.392C167.949 21.1813 169.058 22.2693 169.869 23.656C170.701 25.0427 171.117 26.5893 171.117 28.296C171.117 30.024 170.701 31.5813 169.869 32.968C169.058 34.3547 167.949 35.4427 166.541 36.232C165.133 37 163.597 37.384 161.933 37.384ZM157.069 28.296C157.069 29.8107 157.517 31.0693 158.413 32.072C159.33 33.0533 160.503 33.544 161.933 33.544C162.85 33.544 163.671 33.32 164.397 32.872C165.122 32.424 165.687 31.8053 166.093 31.016C166.519 30.2053 166.733 29.2987 166.733 28.296C166.733 27.3147 166.519 26.4293 166.093 25.64C165.687 24.8293 165.122 24.2 164.397 23.752C163.671 23.2827 162.85 23.048 161.933 23.048C160.994 23.048 160.151 23.2827 159.405 23.752C158.679 24.2 158.103 24.8187 157.677 25.608C157.271 26.3973 157.069 27.2933 157.069 28.296ZM174.296 19.592H178.232V21.736C178.68 20.9253 179.33 20.3067 180.184 19.88C181.058 19.432 182.05 19.208 183.16 19.208C184.418 19.208 185.549 19.4853 186.552 20.04C187.554 20.5947 188.333 21.3733 188.888 22.376C189.442 23.3787 189.72 24.52 189.72 25.8V37H185.528V26.792C185.528 25.6613 185.197 24.7547 184.536 24.072C183.896 23.3893 183.053 23.048 182.008 23.048C180.962 23.048 180.109 23.3893 179.448 24.072C178.808 24.7547 178.488 25.6613 178.488 26.792V37H174.296V19.592ZM197.352 13.16H202.024L206.44 31.08L211.08 13.16H215.592L220.2 31.08L224.616 13.16H229.288L222.888 37H217.896L213.32 19.848L208.744 37H203.752L197.352 13.16ZM231.577 12.776H235.769V21.32C236.26 20.6373 236.91 20.1147 237.721 19.752C238.532 19.3893 239.438 19.208 240.441 19.208C241.7 19.208 242.83 19.4853 243.833 20.04C244.836 20.5947 245.614 21.3733 246.169 22.376C246.724 23.3787 247.001 24.52 247.001 25.8V37H242.809V26.792C242.809 25.6613 242.478 24.7547 241.817 24.072C241.177 23.3893 240.334 23.048 239.289 23.048C238.265 23.048 237.422 23.3893 236.761 24.072C236.1 24.7547 235.769 25.6613 235.769 26.792V37H231.577V12.776ZM255.826 37.384C253.991 37.384 252.53 36.936 251.442 36.04C250.375 35.144 249.842 33.928 249.842 32.392C249.842 30.92 250.343 29.704 251.346 28.744C252.348 27.784 253.852 27.144 255.858 26.824L261.042 25.992V25.416C261.042 24.648 260.743 24.0187 260.146 23.528C259.57 23.0373 258.802 22.792 257.842 22.792C256.946 22.792 256.146 23.0373 255.442 23.528C254.759 23.9973 254.258 24.6267 253.938 25.416L250.514 23.752C251.026 22.3867 251.964 21.288 253.33 20.456C254.695 19.624 256.252 19.208 258.002 19.208C259.41 19.208 260.658 19.4747 261.746 20.008C262.855 20.52 263.708 21.256 264.306 22.216C264.924 23.1547 265.234 24.2213 265.234 25.416V37H261.266V35.144C259.9 36.6373 258.087 37.384 255.826 37.384ZM254.194 32.232C254.194 32.8293 254.418 33.3093 254.866 33.672C255.314 34.0133 255.89 34.184 256.594 34.184C257.895 34.184 258.962 33.7787 259.794 32.968C260.626 32.136 261.042 31.112 261.042 29.896V29.192L256.658 29.928C255.826 30.0987 255.207 30.376 254.802 30.76C254.396 31.1227 254.194 31.6133 254.194 32.232ZM276.732 37.192C274.769 37.192 273.244 36.6587 272.156 35.592C271.089 34.504 270.556 32.9787 270.556 31.016V23.336H267.548V19.592H267.868C268.721 19.592 269.382 19.368 269.852 18.92C270.321 18.472 270.556 17.8213 270.556 16.968V15.624H274.748V19.592H278.748V23.336H274.748V30.792C274.748 32.6053 275.729 33.512 277.692 33.512C278.033 33.512 278.406 33.48 278.812 33.416V37.032C278.129 37.1387 277.436 37.192 276.732 37.192ZM288.543 37.352C286.793 37.352 285.247 36.936 283.903 36.104C282.58 35.272 281.641 34.1307 281.087 32.68L284.191 31.08C284.66 32.0187 285.279 32.7547 286.047 33.288C286.836 33.8 287.7 34.056 288.639 34.056C289.449 34.056 290.079 33.896 290.527 33.576C290.996 33.2347 291.231 32.776 291.231 32.2C291.231 31.7093 291.039 31.304 290.655 30.984C290.271 30.6427 289.769 30.4187 289.151 30.312L286.303 29.832C284.831 29.448 283.689 28.7973 282.879 27.88C282.089 26.9413 281.695 25.8427 281.695 24.584C281.695 23.5387 281.972 22.6107 282.527 21.8C283.081 20.968 283.849 20.328 284.831 19.88C285.833 19.432 286.964 19.208 288.223 19.208C289.823 19.208 291.231 19.592 292.447 20.36C293.663 21.1067 294.548 22.152 295.103 23.496L291.999 25.096C291.657 24.3493 291.135 23.752 290.431 23.304C289.727 22.856 288.948 22.632 288.095 22.632C287.391 22.632 286.825 22.792 286.399 23.112C285.993 23.432 285.791 23.848 285.791 24.36C285.791 25.2987 286.495 25.928 287.903 26.248L290.687 26.76C292.159 27.1653 293.3 27.8267 294.111 28.744C294.921 29.6613 295.327 30.7493 295.327 32.008C295.327 33.0533 295.039 33.9813 294.463 34.792C293.908 35.6027 293.119 36.232 292.095 36.68C291.071 37.128 289.887 37.352 288.543 37.352ZM305.076 13.16H310.708L318.932 37H314.196L312.5 31.88H303.284L301.556 37H296.852L305.076 13.16ZM311.252 28.04L307.892 17.992L304.532 28.04H311.252ZM321.233 19.592H325.169V21.64C325.809 20.872 326.599 20.2747 327.537 19.848C328.497 19.4213 329.575 19.208 330.769 19.208C332.391 19.208 333.873 19.6133 335.217 20.424C336.561 21.2133 337.617 22.3013 338.385 23.688C339.153 25.0747 339.537 26.6107 339.537 28.296C339.537 29.9813 339.153 31.5173 338.385 32.904C337.617 34.2907 336.561 35.3893 335.217 36.2C333.895 36.9893 332.401 37.384 330.737 37.384C329.671 37.384 328.679 37.2133 327.761 36.872C326.844 36.5093 326.065 35.9973 325.425 35.336V43.4H321.233V19.592ZM325.425 28.296C325.425 29.2987 325.628 30.2053 326.033 31.016C326.46 31.8053 327.036 32.424 327.761 32.872C328.508 33.32 329.34 33.544 330.257 33.544C331.687 33.544 332.86 33.0533 333.777 32.072C334.716 31.0693 335.185 29.8107 335.185 28.296C335.185 27.3147 334.972 26.4293 334.545 25.64C334.119 24.8293 333.532 24.2 332.785 23.752C332.039 23.2827 331.196 23.048 330.257 23.048C329.34 23.048 328.508 23.272 327.761 23.72C327.036 24.168 326.46 24.7973 326.033 25.608C325.628 26.3973 325.425 27.2933 325.425 28.296ZM342.733 19.592H346.669V21.64C347.309 20.872 348.099 20.2747 349.037 19.848C349.997 19.4213 351.075 19.208 352.269 19.208C353.891 19.208 355.373 19.6133 356.717 20.424C358.061 21.2133 359.117 22.3013 359.885 23.688C360.653 25.0747 361.037 26.6107 361.037 28.296C361.037 29.9813 360.653 31.5173 359.885 32.904C359.117 34.2907 358.061 35.3893 356.717 36.2C355.395 36.9893 353.901 37.384 352.237 37.384C351.171 37.384 350.179 37.2133 349.261 36.872C348.344 36.5093 347.565 35.9973 346.925 35.336V43.4H342.733V19.592ZM346.925 28.296C346.925 29.2987 347.128 30.2053 347.533 31.016C347.96 31.8053 348.536 32.424 349.261 32.872C350.008 33.32 350.84 33.544 351.757 33.544C353.187 33.544 354.36 33.0533 355.277 32.072C356.216 31.0693 356.685 29.8107 356.685 28.296C356.685 27.3147 356.472 26.4293 356.045 25.64C355.619 24.8293 355.032 24.2 354.285 23.752C353.539 23.2827 352.696 23.048 351.757 23.048C350.84 23.048 350.008 23.272 349.261 23.72C348.536 24.168 347.96 24.7973 347.533 25.608C347.128 26.3973 346.925 27.2933 346.925 28.296Z" fill="#131721"/>
<g clip-path="url(#clip0_115_1029)">
<path d="M24 0C10.7472 0 0 10.7472 0 24C0 37.2528 10.7472 48 24 48C37.2528 48 48 37.2528 48 24C48 10.7472 37.2528 0 24 0ZM24.5087 37.9735C24.509 37.9735 24.5083 37.9735 24.5087 37.9735H24.5028C22.0986 37.9724 19.7362 37.3696 17.6382 36.2256L10.0236 38.2225L12.0615 30.7811C10.8043 28.6036 10.1429 26.1332 10.144 23.6023C10.1473 15.6848 16.5912 9.24353 24.5087 9.24353C28.351 9.245 31.9578 10.7406 34.6696 13.4546C37.3817 16.1689 38.8744 19.7769 38.8729 23.6136C38.8696 31.5315 32.425 37.9735 24.5087 37.9735Z" fill="black"/>
<path d="M24.5137 11.6689C17.9281 11.6689 12.5723 17.0226 12.5693 23.6034C12.5686 25.8585 13.2 28.0547 14.3949 29.955L14.6787 30.4065L13.4724 34.8109L17.9911 33.6259L18.4272 33.8844C20.2601 34.972 22.3615 35.5474 24.5038 35.5481H24.5085C31.089 35.5481 36.4448 30.1941 36.4478 23.6129C36.4489 20.4236 35.2081 17.425 32.9541 15.1692C30.7001 12.9133 27.7023 11.67 24.5137 11.6689ZM31.5361 28.7347C31.2369 29.5726 29.8032 30.3376 29.1136 30.4409C28.4951 30.5332 27.7129 30.5717 26.853 30.2988C26.3315 30.1333 25.6632 29.9125 24.8066 29.543C21.2064 27.9888 18.855 24.3647 18.6755 24.1252C18.4961 23.8857 17.21 22.1796 17.21 20.4133C17.21 18.6475 18.1372 17.7792 18.4661 17.4203C18.7953 17.061 19.1842 16.9713 19.4233 16.9713C19.6625 16.9713 19.902 16.9735 20.1111 16.9838C20.3315 16.9948 20.6274 16.8999 20.9186 17.5997C21.2178 18.3182 21.9355 20.0841 22.0253 20.2635C22.115 20.4434 22.1747 20.6528 22.0553 20.8923C21.9355 21.1318 21.5378 21.6486 21.1581 22.1195C20.9988 22.3169 20.7911 22.4927 21.0006 22.8519C21.2097 23.2108 21.9304 24.386 22.9972 25.3374C24.3683 26.5598 25.5248 26.9385 25.8837 27.1183C26.2422 27.2977 26.4517 27.2677 26.6611 27.0286C26.8702 26.7891 27.5583 25.9808 27.7975 25.6216C28.0366 25.2623 28.2761 25.3224 28.605 25.4421C28.9342 25.5615 30.6986 26.4298 31.0575 26.6093C31.4164 26.7891 31.6555 26.8788 31.7452 27.0286C31.8353 27.1783 31.8353 27.8965 31.5361 28.7347Z" fill="black"/>
</g>
<defs>
<clipPath id="clip0_115_1029">
<rect width="48" height="48" fill="white"/>
</clipPath>
</defs>
</svg>
