<svg width="446" height="68" viewBox="0 0 446 68" fill="none" xmlns="http://www.w3.org/2000/svg">
<rect x="1.5" y="1.5" width="443" height="65" rx="10.5" fill="white"/>
<path d="M94.816 47.384C92.9387 47.384 91.3067 47.032 89.92 46.328C88.5547 45.624 87.488 44.7387 86.72 43.672C85.952 42.584 85.4613 41.4533 85.248 40.28L89.344 39.192C89.664 40.4933 90.304 41.5067 91.264 42.232C92.224 42.9573 93.4293 43.32 94.88 43.32C95.9893 43.32 96.8853 43.0427 97.568 42.488C98.272 41.9333 98.624 41.272 98.624 40.504C98.624 39.8 98.368 39.192 97.856 38.68C97.3653 38.1467 96.6933 37.7947 95.84 37.624L92.256 36.92C90.3573 36.5573 88.864 35.736 87.776 34.456C86.688 33.176 86.144 31.6187 86.144 29.784C86.144 28.504 86.5067 27.3307 87.232 26.264C87.9787 25.176 88.96 24.3227 90.176 23.704C91.4133 23.0853 92.7253 22.776 94.112 22.776C95.8827 22.776 97.3867 23.0747 98.624 23.672C99.8613 24.2693 100.821 25.0267 101.504 25.944C102.208 26.84 102.677 27.7893 102.912 28.792L98.848 30.072C98.4 28.92 97.792 28.0987 97.024 27.608C96.256 27.096 95.2853 26.84 94.112 26.84C93.4507 26.84 92.8533 26.9787 92.32 27.256C91.808 27.5333 91.4027 27.896 91.104 28.344C90.8267 28.7707 90.688 29.208 90.688 29.656C90.688 30.36 90.9227 30.9787 91.392 31.512C91.8613 32.024 92.512 32.3547 93.344 32.504L96.736 33.24C98.8053 33.688 100.405 34.5413 101.536 35.8C102.667 37.0373 103.232 38.52 103.232 40.248C103.232 41.4853 102.891 42.648 102.208 43.736C101.525 44.824 100.544 45.7093 99.264 46.392C98.0053 47.0533 96.5227 47.384 94.816 47.384ZM106.671 22.776H110.863V31.32C111.353 30.6373 112.004 30.1147 112.815 29.752C113.625 29.3893 114.532 29.208 115.535 29.208C116.793 29.208 117.924 29.4853 118.927 30.04C119.929 30.5947 120.708 31.3733 121.263 32.376C121.817 33.3787 122.095 34.52 122.095 35.8V47H117.903V36.792C117.903 35.6613 117.572 34.7547 116.911 34.072C116.271 33.3893 115.428 33.048 114.383 33.048C113.359 33.048 112.516 33.3893 111.855 34.072C111.193 34.7547 110.863 35.6613 110.863 36.792V47H106.671V22.776ZM130.92 47.384C129.085 47.384 127.624 46.936 126.536 46.04C125.469 45.144 124.936 43.928 124.936 42.392C124.936 40.92 125.437 39.704 126.44 38.744C127.442 37.784 128.946 37.144 130.952 36.824L136.136 35.992V35.416C136.136 34.648 135.837 34.0187 135.24 33.528C134.664 33.0373 133.896 32.792 132.936 32.792C132.04 32.792 131.24 33.0373 130.536 33.528C129.853 33.9973 129.352 34.6267 129.032 35.416L125.608 33.752C126.12 32.3867 127.058 31.288 128.424 30.456C129.789 29.624 131.346 29.208 133.095 29.208C134.504 29.208 135.752 29.4747 136.84 30.008C137.949 30.52 138.802 31.256 139.4 32.216C140.018 33.1547 140.328 34.2213 140.328 35.416V47H136.36V45.144C134.994 46.6373 133.181 47.384 130.92 47.384ZM129.288 42.232C129.288 42.8293 129.512 43.3093 129.96 43.672C130.408 44.0133 130.984 44.184 131.688 44.184C132.989 44.184 134.056 43.7787 134.888 42.968C135.72 42.136 136.136 41.112 136.136 39.896V39.192L131.752 39.928C130.92 40.0987 130.301 40.376 129.896 40.76C129.49 41.1227 129.288 41.6133 129.288 42.232ZM144.202 29.592H148.138V32.024C148.565 31.0853 149.173 30.4133 149.962 30.008C150.751 29.6027 151.711 29.4 152.842 29.4H153.866V33.112H152.362C151.167 33.112 150.207 33.4853 149.482 34.232C148.757 34.9787 148.394 36.0027 148.394 37.304V47H144.202V29.592ZM164.427 47.384C162.677 47.384 161.12 46.9787 159.755 46.168C158.411 45.3573 157.355 44.2587 156.587 42.872C155.84 41.4853 155.467 39.9493 155.467 38.264C155.467 36.5573 155.84 35.0213 156.587 33.656C157.355 32.2693 158.389 31.1813 159.691 30.392C161.013 29.6027 162.485 29.208 164.107 29.208C165.856 29.208 167.371 29.592 168.651 30.36C169.931 31.1067 170.901 32.1307 171.563 33.432C172.245 34.7333 172.587 36.1627 172.587 37.72C172.587 38.4453 172.512 39.032 172.363 39.48H159.819C159.947 40.76 160.437 41.784 161.291 42.552C162.144 43.32 163.2 43.704 164.459 43.704C165.397 43.704 166.197 43.512 166.859 43.128C167.541 42.7227 168.085 42.168 168.491 41.464L171.883 43.128C171.349 44.408 170.411 45.4427 169.067 46.232C167.723 47 166.176 47.384 164.427 47.384ZM168.107 36.28C168 35.2133 167.584 34.3493 166.859 33.688C166.133 33.0053 165.216 32.664 164.107 32.664C163.04 32.664 162.133 32.984 161.387 33.624C160.64 34.2427 160.149 35.128 159.915 36.28H168.107ZM189.964 47.384C188.279 47.384 186.732 46.9893 185.324 46.2C183.916 45.4107 182.796 44.3227 181.964 42.936C181.153 41.5493 180.748 40.0027 180.748 38.296C180.748 36.5893 181.153 35.0427 181.964 33.656C182.775 32.2693 183.884 31.1813 185.292 30.392C186.7 29.6027 188.257 29.208 189.964 29.208C191.649 29.208 193.185 29.6027 194.572 30.392C195.98 31.1813 197.089 32.2693 197.9 33.656C198.732 35.0427 199.148 36.5893 199.148 38.296C199.148 40.024 198.732 41.5813 197.9 42.968C197.089 44.3547 195.98 45.4427 194.572 46.232C193.164 47 191.628 47.384 189.964 47.384ZM185.1 38.296C185.1 39.8107 185.548 41.0693 186.444 42.072C187.361 43.0533 188.535 43.544 189.964 43.544C190.881 43.544 191.703 43.32 192.428 42.872C193.153 42.424 193.719 41.8053 194.124 41.016C194.551 40.2053 194.764 39.2987 194.764 38.296C194.764 37.3147 194.551 36.4293 194.124 35.64C193.719 34.8293 193.153 34.2 192.428 33.752C191.703 33.2827 190.881 33.048 189.964 33.048C189.025 33.048 188.183 33.2827 187.436 33.752C186.711 34.2 186.135 34.8187 185.708 35.608C185.303 36.3973 185.1 37.2933 185.1 38.296ZM202.327 29.592H206.263V31.736C206.711 30.9253 207.362 30.3067 208.215 29.88C209.09 29.432 210.082 29.208 211.191 29.208C212.45 29.208 213.58 29.4853 214.583 30.04C215.586 30.5947 216.364 31.3733 216.919 32.376C217.474 33.3787 217.751 34.52 217.751 35.8V47H213.559V36.792C213.559 35.6613 213.228 34.7547 212.567 34.072C211.927 33.3893 211.084 33.048 210.039 33.048C208.994 33.048 208.14 33.3893 207.479 34.072C206.839 34.7547 206.519 35.6613 206.519 36.792V47H202.327V29.592ZM227.335 23.16H231.687V43.16H241.895V47H227.335V23.16ZM244.358 29.592H248.55V47H244.358V29.592ZM244.038 24.792C244.038 24.024 244.252 23.4267 244.678 23C245.105 22.5733 245.692 22.36 246.438 22.36C247.206 22.36 247.804 22.5733 248.23 23C248.657 23.4267 248.87 24.024 248.87 24.792C248.87 25.5387 248.657 26.1253 248.23 26.552C247.825 26.9787 247.228 27.192 246.438 27.192C245.692 27.192 245.105 26.9787 244.678 26.552C244.252 26.1253 244.038 25.5387 244.038 24.792ZM252.421 29.592H256.357V31.736C256.805 30.9253 257.455 30.3067 258.309 29.88C259.183 29.432 260.175 29.208 261.285 29.208C262.543 29.208 263.674 29.4853 264.677 30.04C265.679 30.5947 266.458 31.3733 267.013 32.376C267.567 33.3787 267.845 34.52 267.845 35.8V47H263.653V36.792C263.653 35.6613 263.322 34.7547 262.661 34.072C262.021 33.3893 261.178 33.048 260.133 33.048C259.087 33.048 258.234 33.3893 257.573 34.072C256.933 34.7547 256.613 35.6613 256.613 36.792V47H252.421V29.592ZM271.39 22.776H275.582V36.504L282.174 29.592H287.39L280.958 36.6L287.517 47H282.718L277.822 39.256L275.582 41.688V47H271.39V22.776ZM297.802 47.384C296.052 47.384 294.495 46.9787 293.13 46.168C291.786 45.3573 290.73 44.2587 289.962 42.872C289.215 41.4853 288.842 39.9493 288.842 38.264C288.842 36.5573 289.215 35.0213 289.962 33.656C290.73 32.2693 291.764 31.1813 293.066 30.392C294.388 29.6027 295.86 29.208 297.482 29.208C299.231 29.208 300.746 29.592 302.026 30.36C303.306 31.1067 304.276 32.1307 304.938 33.432C305.62 34.7333 305.962 36.1627 305.962 37.72C305.962 38.4453 305.887 39.032 305.738 39.48H293.194C293.322 40.76 293.812 41.784 294.666 42.552C295.519 43.32 296.575 43.704 297.834 43.704C298.772 43.704 299.572 43.512 300.234 43.128C300.916 42.7227 301.46 42.168 301.866 41.464L305.258 43.128C304.724 44.408 303.786 45.4427 302.442 46.232C301.098 47 299.551 47.384 297.802 47.384ZM301.482 36.28C301.375 35.2133 300.959 34.3493 300.234 33.688C299.508 33.0053 298.591 32.664 297.482 32.664C296.415 32.664 295.508 32.984 294.762 33.624C294.015 34.2427 293.524 35.128 293.29 36.28H301.482ZM317.236 47.384C315.572 47.384 314.068 46.9893 312.724 46.2C311.401 45.3893 310.356 44.2907 309.588 42.904C308.82 41.5173 308.436 39.9813 308.436 38.296C308.436 36.6107 308.82 35.0747 309.588 33.688C310.356 32.3013 311.412 31.2133 312.756 30.424C314.1 29.6133 315.582 29.208 317.204 29.208C318.313 29.208 319.326 29.4 320.244 29.784C321.161 30.1467 321.929 30.6693 322.548 31.352V22.776H326.74V47H322.772V45.08C322.132 45.8267 321.332 46.4027 320.372 46.808C319.412 47.192 318.366 47.384 317.236 47.384ZM312.788 38.296C312.788 39.2987 312.99 40.2053 313.396 41.016C313.822 41.8053 314.409 42.424 315.156 42.872C315.902 43.32 316.745 43.544 317.684 43.544C318.622 43.544 319.454 43.32 320.18 42.872C320.926 42.424 321.502 41.8053 321.908 41.016C322.334 40.2053 322.548 39.2987 322.548 38.296C322.548 37.2933 322.334 36.3973 321.908 35.608C321.502 34.7973 320.926 34.168 320.18 33.72C319.433 33.272 318.601 33.048 317.684 33.048C316.745 33.048 315.902 33.2827 315.156 33.752C314.409 34.2 313.822 34.8293 313.396 35.64C312.99 36.4293 312.788 37.3147 312.788 38.296ZM330.64 29.592H334.832V47H330.64V29.592ZM330.32 24.792C330.32 24.024 330.533 23.4267 330.96 23C331.386 22.5733 331.973 22.36 332.72 22.36C333.488 22.36 334.085 22.5733 334.512 23C334.938 23.4267 335.152 24.024 335.152 24.792C335.152 25.5387 334.938 26.1253 334.512 26.552C334.106 26.9787 333.509 27.192 332.72 27.192C331.973 27.192 331.386 26.9787 330.96 26.552C330.533 26.1253 330.32 25.5387 330.32 24.792ZM338.702 29.592H342.638V31.736C343.086 30.9253 343.737 30.3067 344.59 29.88C345.465 29.432 346.457 29.208 347.566 29.208C348.825 29.208 349.955 29.4853 350.958 30.04C351.961 30.5947 352.739 31.3733 353.294 32.376C353.849 33.3787 354.126 34.52 354.126 35.8V47H349.934V36.792C349.934 35.6613 349.603 34.7547 348.942 34.072C348.302 33.3893 347.459 33.048 346.414 33.048C345.369 33.048 344.515 33.3893 343.854 34.072C343.214 34.7547 342.894 35.6613 342.894 36.792V47H338.702V29.592Z" fill="#131721"/>
<g clip-path="url(#clip0_115_1077)">
<path d="M43 10C29.7472 10 19 20.7472 19 34C19 47.2528 29.7472 58 43 58C56.2528 58 67 47.2528 67 34C67 20.7472 56.2528 10 43 10ZM36.0259 46.2812H30.1808V28.6962H36.0259V46.2812ZM33.1035 26.2949H33.0654C31.104 26.2949 29.8354 24.9447 29.8354 23.2572C29.8354 21.5316 31.1428 20.2188 33.1423 20.2188C35.1418 20.2188 36.3723 21.5316 36.4104 23.2572C36.4104 24.9447 35.1418 26.2949 33.1035 26.2949ZM57.1021 46.2812H51.2577V36.8737C51.2577 34.5094 50.4114 32.897 48.2965 32.897C46.6819 32.897 45.7202 33.9846 45.2976 35.0345C45.1431 35.4103 45.1053 35.9354 45.1053 36.4609V46.2812H39.2606C39.2606 46.2812 39.3372 30.3459 39.2606 28.6962H45.1053V31.186C45.8821 29.9878 47.2719 28.2834 50.3729 28.2834C54.2185 28.2834 57.1021 30.7968 57.1021 36.198V46.2812Z" fill="black"/>
</g>
<rect x="1.5" y="1.5" width="443" height="65" rx="10.5" stroke="black" stroke-width="3"/>
<defs>
<clipPath id="clip0_115_1077">
<rect width="48" height="48" fill="white" transform="translate(19 10)"/>
</clipPath>
</defs>
</svg>
