<svg width="446" height="68" viewBox="0 0 446 68" fill="none" xmlns="http://www.w3.org/2000/svg">
<rect x="1.5" y="1.5" width="443" height="65" rx="10.5" fill="white"/>
<path d="M94.816 47.384C92.9387 47.384 91.3067 47.032 89.92 46.328C88.5547 45.624 87.488 44.7387 86.72 43.672C85.952 42.584 85.4613 41.4533 85.248 40.28L89.344 39.192C89.664 40.4933 90.304 41.5067 91.264 42.232C92.224 42.9573 93.4293 43.32 94.88 43.32C95.9893 43.32 96.8853 43.0427 97.568 42.488C98.272 41.9333 98.624 41.272 98.624 40.504C98.624 39.8 98.368 39.192 97.856 38.68C97.3653 38.1467 96.6933 37.7947 95.84 37.624L92.256 36.92C90.3573 36.5573 88.864 35.736 87.776 34.456C86.688 33.176 86.144 31.6187 86.144 29.784C86.144 28.504 86.5067 27.3307 87.232 26.264C87.9787 25.176 88.96 24.3227 90.176 23.704C91.4133 23.0853 92.7253 22.776 94.112 22.776C95.8827 22.776 97.3867 23.0747 98.624 23.672C99.8613 24.2693 100.821 25.0267 101.504 25.944C102.208 26.84 102.677 27.7893 102.912 28.792L98.848 30.072C98.4 28.92 97.792 28.0987 97.024 27.608C96.256 27.096 95.2853 26.84 94.112 26.84C93.4507 26.84 92.8533 26.9787 92.32 27.256C91.808 27.5333 91.4027 27.896 91.104 28.344C90.8267 28.7707 90.688 29.208 90.688 29.656C90.688 30.36 90.9227 30.9787 91.392 31.512C91.8613 32.024 92.512 32.3547 93.344 32.504L96.736 33.24C98.8053 33.688 100.405 34.5413 101.536 35.8C102.667 37.0373 103.232 38.52 103.232 40.248C103.232 41.4853 102.891 42.648 102.208 43.736C101.525 44.824 100.544 45.7093 99.264 46.392C98.0053 47.0533 96.5227 47.384 94.816 47.384ZM106.671 22.776H110.863V31.32C111.353 30.6373 112.004 30.1147 112.815 29.752C113.625 29.3893 114.532 29.208 115.535 29.208C116.793 29.208 117.924 29.4853 118.927 30.04C119.929 30.5947 120.708 31.3733 121.263 32.376C121.817 33.3787 122.095 34.52 122.095 35.8V47H117.903V36.792C117.903 35.6613 117.572 34.7547 116.911 34.072C116.271 33.3893 115.428 33.048 114.383 33.048C113.359 33.048 112.516 33.3893 111.855 34.072C111.193 34.7547 110.863 35.6613 110.863 36.792V47H106.671V22.776ZM130.92 47.384C129.085 47.384 127.624 46.936 126.536 46.04C125.469 45.144 124.936 43.928 124.936 42.392C124.936 40.92 125.437 39.704 126.44 38.744C127.442 37.784 128.946 37.144 130.952 36.824L136.136 35.992V35.416C136.136 34.648 135.837 34.0187 135.24 33.528C134.664 33.0373 133.896 32.792 132.936 32.792C132.04 32.792 131.24 33.0373 130.536 33.528C129.853 33.9973 129.352 34.6267 129.032 35.416L125.608 33.752C126.12 32.3867 127.058 31.288 128.424 30.456C129.789 29.624 131.346 29.208 133.095 29.208C134.504 29.208 135.752 29.4747 136.84 30.008C137.949 30.52 138.802 31.256 139.4 32.216C140.018 33.1547 140.328 34.2213 140.328 35.416V47H136.36V45.144C134.994 46.6373 133.181 47.384 130.92 47.384ZM129.288 42.232C129.288 42.8293 129.512 43.3093 129.96 43.672C130.408 44.0133 130.984 44.184 131.688 44.184C132.989 44.184 134.056 43.7787 134.888 42.968C135.72 42.136 136.136 41.112 136.136 39.896V39.192L131.752 39.928C130.92 40.0987 130.301 40.376 129.896 40.76C129.49 41.1227 129.288 41.6133 129.288 42.232ZM144.202 29.592H148.138V32.024C148.565 31.0853 149.173 30.4133 149.962 30.008C150.751 29.6027 151.711 29.4 152.842 29.4H153.866V33.112H152.362C151.167 33.112 150.207 33.4853 149.482 34.232C148.757 34.9787 148.394 36.0027 148.394 37.304V47H144.202V29.592ZM164.427 47.384C162.677 47.384 161.12 46.9787 159.755 46.168C158.411 45.3573 157.355 44.2587 156.587 42.872C155.84 41.4853 155.467 39.9493 155.467 38.264C155.467 36.5573 155.84 35.0213 156.587 33.656C157.355 32.2693 158.389 31.1813 159.691 30.392C161.013 29.6027 162.485 29.208 164.107 29.208C165.856 29.208 167.371 29.592 168.651 30.36C169.931 31.1067 170.901 32.1307 171.563 33.432C172.245 34.7333 172.587 36.1627 172.587 37.72C172.587 38.4453 172.512 39.032 172.363 39.48H159.819C159.947 40.76 160.437 41.784 161.291 42.552C162.144 43.32 163.2 43.704 164.459 43.704C165.397 43.704 166.197 43.512 166.859 43.128C167.541 42.7227 168.085 42.168 168.491 41.464L171.883 43.128C171.349 44.408 170.411 45.4427 169.067 46.232C167.723 47 166.176 47.384 164.427 47.384ZM168.107 36.28C168 35.2133 167.584 34.3493 166.859 33.688C166.133 33.0053 165.216 32.664 164.107 32.664C163.04 32.664 162.133 32.984 161.387 33.624C160.64 34.2427 160.149 35.128 159.915 36.28H168.107ZM189.964 47.384C188.279 47.384 186.732 46.9893 185.324 46.2C183.916 45.4107 182.796 44.3227 181.964 42.936C181.153 41.5493 180.748 40.0027 180.748 38.296C180.748 36.5893 181.153 35.0427 181.964 33.656C182.775 32.2693 183.884 31.1813 185.292 30.392C186.7 29.6027 188.257 29.208 189.964 29.208C191.649 29.208 193.185 29.6027 194.572 30.392C195.98 31.1813 197.089 32.2693 197.9 33.656C198.732 35.0427 199.148 36.5893 199.148 38.296C199.148 40.024 198.732 41.5813 197.9 42.968C197.089 44.3547 195.98 45.4427 194.572 46.232C193.164 47 191.628 47.384 189.964 47.384ZM185.1 38.296C185.1 39.8107 185.548 41.0693 186.444 42.072C187.361 43.0533 188.535 43.544 189.964 43.544C190.881 43.544 191.703 43.32 192.428 42.872C193.153 42.424 193.719 41.8053 194.124 41.016C194.551 40.2053 194.764 39.2987 194.764 38.296C194.764 37.3147 194.551 36.4293 194.124 35.64C193.719 34.8293 193.153 34.2 192.428 33.752C191.703 33.2827 190.881 33.048 189.964 33.048C189.025 33.048 188.183 33.2827 187.436 33.752C186.711 34.2 186.135 34.8187 185.708 35.608C185.303 36.3973 185.1 37.2933 185.1 38.296ZM202.327 29.592H206.263V31.736C206.711 30.9253 207.362 30.3067 208.215 29.88C209.09 29.432 210.082 29.208 211.191 29.208C212.45 29.208 213.58 29.4853 214.583 30.04C215.586 30.5947 216.364 31.3733 216.919 32.376C217.474 33.3787 217.751 34.52 217.751 35.8V47H213.559V36.792C213.559 35.6613 213.228 34.7547 212.567 34.072C211.927 33.3893 211.084 33.048 210.039 33.048C208.994 33.048 208.14 33.3893 207.479 34.072C206.839 34.7547 206.519 35.6613 206.519 36.792V47H202.327V29.592ZM227.335 23.16H243.239V27H231.687V33.592H241.799V37.432H231.687V47H227.335V23.16ZM250.263 47.384C248.429 47.384 246.967 46.936 245.879 46.04C244.813 45.144 244.279 43.928 244.279 42.392C244.279 40.92 244.781 39.704 245.783 38.744C246.786 37.784 248.29 37.144 250.295 36.824L255.479 35.992V35.416C255.479 34.648 255.181 34.0187 254.583 33.528C254.007 33.0373 253.239 32.792 252.279 32.792C251.383 32.792 250.583 33.0373 249.879 33.528C249.197 33.9973 248.695 34.6267 248.375 35.416L244.951 33.752C245.463 32.3867 246.402 31.288 247.767 30.456C249.133 29.624 250.69 29.208 252.439 29.208C253.847 29.208 255.095 29.4747 256.183 30.008C257.293 30.52 258.146 31.256 258.743 32.216C259.362 33.1547 259.671 34.2213 259.671 35.416V47H255.703V45.144C254.338 46.6373 252.525 47.384 250.263 47.384ZM248.631 42.232C248.631 42.8293 248.855 43.3093 249.303 43.672C249.751 44.0133 250.327 44.184 251.031 44.184C252.333 44.184 253.399 43.7787 254.231 42.968C255.063 42.136 255.479 41.112 255.479 39.896V39.192L251.095 39.928C250.263 40.0987 249.645 40.376 249.239 40.76C248.834 41.1227 248.631 41.6133 248.631 42.232ZM271.93 47.384C270.223 47.384 268.666 46.9893 267.258 46.2C265.871 45.3893 264.783 44.2907 263.994 42.904C263.204 41.5173 262.81 39.9707 262.81 38.264C262.81 36.5573 263.204 35.0213 263.994 33.656C264.783 32.2693 265.871 31.1813 267.258 30.392C268.644 29.6027 270.202 29.208 271.93 29.208C273.786 29.208 275.439 29.688 276.89 30.648C278.34 31.5867 279.332 32.824 279.866 34.36L276.218 35.96C275.876 35.064 275.322 34.36 274.554 33.848C273.786 33.3147 272.911 33.048 271.93 33.048C271.034 33.048 270.223 33.272 269.498 33.72C268.772 34.168 268.196 34.7973 267.77 35.608C267.364 36.3973 267.162 37.2933 267.162 38.296C267.162 39.2987 267.364 40.2053 267.77 41.016C268.196 41.8053 268.772 42.424 269.498 42.872C270.223 43.32 271.034 43.544 271.93 43.544C272.932 43.544 273.807 43.288 274.554 42.776C275.322 42.2427 275.876 41.5173 276.218 40.6L279.866 42.264C279.354 43.7787 278.362 45.016 276.89 45.976C275.439 46.9147 273.786 47.384 271.93 47.384ZM291.271 47.384C289.521 47.384 287.964 46.9787 286.599 46.168C285.255 45.3573 284.199 44.2587 283.431 42.872C282.684 41.4853 282.311 39.9493 282.311 38.264C282.311 36.5573 282.684 35.0213 283.431 33.656C284.199 32.2693 285.233 31.1813 286.535 30.392C287.857 29.6027 289.329 29.208 290.951 29.208C292.7 29.208 294.215 29.592 295.495 30.36C296.775 31.1067 297.745 32.1307 298.407 33.432C299.089 34.7333 299.431 36.1627 299.431 37.72C299.431 38.4453 299.356 39.032 299.207 39.48H286.663C286.791 40.76 287.281 41.784 288.135 42.552C288.988 43.32 290.044 43.704 291.303 43.704C292.241 43.704 293.041 43.512 293.703 43.128C294.385 42.7227 294.929 42.168 295.335 41.464L298.727 43.128C298.193 44.408 297.255 45.4427 295.911 46.232C294.567 47 293.02 47.384 291.271 47.384ZM294.951 36.28C294.844 35.2133 294.428 34.3493 293.703 33.688C292.977 33.0053 292.06 32.664 290.951 32.664C289.884 32.664 288.977 32.984 288.231 33.624C287.484 34.2427 286.993 35.128 286.759 36.28H294.951ZM312.112 47.384C310.982 47.384 309.926 47.1813 308.944 46.776C307.984 46.3707 307.184 45.7947 306.544 45.048V47H302.608V22.776H306.8V31.352C307.419 30.6693 308.187 30.1467 309.104 29.784C310.022 29.4 311.035 29.208 312.144 29.208C313.766 29.208 315.248 29.6133 316.592 30.424C317.936 31.2133 318.992 32.3013 319.76 33.688C320.528 35.0747 320.912 36.6107 320.912 38.296C320.912 39.9813 320.528 41.5173 319.76 42.904C318.992 44.2907 317.936 45.3893 316.592 46.2C315.27 46.9893 313.776 47.384 312.112 47.384ZM306.8 38.296C306.8 39.2987 307.003 40.2053 307.408 41.016C307.835 41.8053 308.411 42.424 309.136 42.872C309.883 43.32 310.715 43.544 311.632 43.544C313.062 43.544 314.235 43.0533 315.152 42.072C316.091 41.0693 316.56 39.8107 316.56 38.296C316.56 37.3147 316.347 36.4293 315.92 35.64C315.494 34.8293 314.907 34.2 314.16 33.752C313.414 33.2827 312.571 33.048 311.632 33.048C310.715 33.048 309.883 33.272 309.136 33.72C308.411 34.168 307.835 34.7973 307.408 35.608C307.003 36.3973 306.8 37.2933 306.8 38.296ZM332.62 47.384C330.935 47.384 329.388 46.9893 327.98 46.2C326.572 45.4107 325.452 44.3227 324.62 42.936C323.81 41.5493 323.404 40.0027 323.404 38.296C323.404 36.5893 323.81 35.0427 324.62 33.656C325.431 32.2693 326.54 31.1813 327.948 30.392C329.356 29.6027 330.914 29.208 332.62 29.208C334.306 29.208 335.842 29.6027 337.228 30.392C338.636 31.1813 339.746 32.2693 340.556 33.656C341.388 35.0427 341.804 36.5893 341.804 38.296C341.804 40.024 341.388 41.5813 340.556 42.968C339.746 44.3547 338.636 45.4427 337.228 46.232C335.82 47 334.284 47.384 332.62 47.384ZM327.756 38.296C327.756 39.8107 328.204 41.0693 329.1 42.072C330.018 43.0533 331.191 43.544 332.62 43.544C333.538 43.544 334.359 43.32 335.084 42.872C335.81 42.424 336.375 41.8053 336.78 41.016C337.207 40.2053 337.42 39.2987 337.42 38.296C337.42 37.3147 337.207 36.4293 336.78 35.64C336.375 34.8293 335.81 34.2 335.084 33.752C334.359 33.2827 333.538 33.048 332.62 33.048C331.682 33.048 330.839 33.2827 330.092 33.752C329.367 34.2 328.791 34.8187 328.364 35.608C327.959 36.3973 327.756 37.2933 327.756 38.296ZM353.495 47.384C351.81 47.384 350.263 46.9893 348.855 46.2C347.447 45.4107 346.327 44.3227 345.495 42.936C344.685 41.5493 344.279 40.0027 344.279 38.296C344.279 36.5893 344.685 35.0427 345.495 33.656C346.306 32.2693 347.415 31.1813 348.823 30.392C350.231 29.6027 351.789 29.208 353.495 29.208C355.181 29.208 356.717 29.6027 358.103 30.392C359.511 31.1813 360.621 32.2693 361.431 33.656C362.263 35.0427 362.679 36.5893 362.679 38.296C362.679 40.024 362.263 41.5813 361.431 42.968C360.621 44.3547 359.511 45.4427 358.103 46.232C356.695 47 355.159 47.384 353.495 47.384ZM348.631 38.296C348.631 39.8107 349.079 41.0693 349.975 42.072C350.893 43.0533 352.066 43.544 353.495 43.544C354.413 43.544 355.234 43.32 355.959 42.872C356.685 42.424 357.25 41.8053 357.655 41.016C358.082 40.2053 358.295 39.2987 358.295 38.296C358.295 37.3147 358.082 36.4293 357.655 35.64C357.25 34.8293 356.685 34.2 355.959 33.752C355.234 33.2827 354.413 33.048 353.495 33.048C352.557 33.048 351.714 33.2827 350.967 33.752C350.242 34.2 349.666 34.8187 349.239 35.608C348.834 36.3973 348.631 37.2933 348.631 38.296ZM365.858 22.776H370.05V36.504L376.642 29.592H381.858L375.426 36.6L381.986 47H377.186L372.29 39.256L370.05 41.688V47H365.858V22.776Z" fill="#131721"/>
<g clip-path="url(#clip0_115_1072)">
<path fill-rule="evenodd" clip-rule="evenodd" d="M42.9236 10.7273C47.2505 10.7767 51.1594 11.8401 54.6503 13.9175C58.0996 15.9535 60.9689 18.8404 62.9838 22.302C65.0487 25.814 66.1057 29.7466 66.1549 34.0998C66.0322 40.056 64.1536 45.1433 60.5189 49.3615C56.8842 53.5796 52.2291 56.1893 47.4101 57.1897V40.4902H51.9661L52.9964 33.9277H46.0976V29.6295C46.0593 28.7384 46.3411 27.863 46.892 27.1617C47.4438 26.4584 48.4153 26.0887 49.8067 26.0527H53.9726V20.3041C53.9128 20.2849 53.3457 20.2088 52.2711 20.076C51.0523 19.9334 49.8268 19.8572 48.5998 19.8478C45.8228 19.8606 43.6265 20.644 42.0109 22.1979C40.3954 23.7513 39.5701 25.9989 39.5352 28.9405V33.9277H34.2852V40.4902H39.5352V57.1897C33.6181 56.1893 28.963 53.5796 25.3283 49.3615C21.6936 45.1433 19.815 40.056 19.6924 34.0998C19.7415 29.7464 20.7984 25.8138 22.8633 22.302C24.8783 18.8404 27.7476 15.9535 31.1969 13.9175C34.6878 11.8405 38.5967 10.7771 42.9236 10.7273Z" fill="black"/>
</g>
<rect x="1.5" y="1.5" width="443" height="65" rx="10.5" stroke="black" stroke-width="3"/>
<defs>
<clipPath id="clip0_115_1072">
<rect width="48" height="48" fill="white" transform="translate(19 10)"/>
</clipPath>
</defs>
</svg>
