<svg width="446" height="68" viewBox="0 0 446 68" fill="none" xmlns="http://www.w3.org/2000/svg">
<rect x="1.5" y="1.5" width="443" height="65" rx="10.5" fill="white"/>
<path d="M94.816 47.384C92.9387 47.384 91.3067 47.032 89.92 46.328C88.5547 45.624 87.488 44.7387 86.72 43.672C85.952 42.584 85.4613 41.4533 85.248 40.28L89.344 39.192C89.664 40.4933 90.304 41.5067 91.264 42.232C92.224 42.9573 93.4293 43.32 94.88 43.32C95.9893 43.32 96.8853 43.0427 97.568 42.488C98.272 41.9333 98.624 41.272 98.624 40.504C98.624 39.8 98.368 39.192 97.856 38.68C97.3653 38.1467 96.6933 37.7947 95.84 37.624L92.256 36.92C90.3573 36.5573 88.864 35.736 87.776 34.456C86.688 33.176 86.144 31.6187 86.144 29.784C86.144 28.504 86.5067 27.3307 87.232 26.264C87.9787 25.176 88.96 24.3227 90.176 23.704C91.4133 23.0853 92.7253 22.776 94.112 22.776C95.8827 22.776 97.3867 23.0747 98.624 23.672C99.8613 24.2693 100.821 25.0267 101.504 25.944C102.208 26.84 102.677 27.7893 102.912 28.792L98.848 30.072C98.4 28.92 97.792 28.0987 97.024 27.608C96.256 27.096 95.2853 26.84 94.112 26.84C93.4507 26.84 92.8533 26.9787 92.32 27.256C91.808 27.5333 91.4027 27.896 91.104 28.344C90.8267 28.7707 90.688 29.208 90.688 29.656C90.688 30.36 90.9227 30.9787 91.392 31.512C91.8613 32.024 92.512 32.3547 93.344 32.504L96.736 33.24C98.8053 33.688 100.405 34.5413 101.536 35.8C102.667 37.0373 103.232 38.52 103.232 40.248C103.232 41.4853 102.891 42.648 102.208 43.736C101.525 44.824 100.544 45.7093 99.264 46.392C98.0053 47.0533 96.5227 47.384 94.816 47.384ZM106.671 22.776H110.863V31.32C111.353 30.6373 112.004 30.1147 112.815 29.752C113.625 29.3893 114.532 29.208 115.535 29.208C116.793 29.208 117.924 29.4853 118.927 30.04C119.929 30.5947 120.708 31.3733 121.263 32.376C121.817 33.3787 122.095 34.52 122.095 35.8V47H117.903V36.792C117.903 35.6613 117.572 34.7547 116.911 34.072C116.271 33.3893 115.428 33.048 114.383 33.048C113.359 33.048 112.516 33.3893 111.855 34.072C111.193 34.7547 110.863 35.6613 110.863 36.792V47H106.671V22.776ZM130.92 47.384C129.085 47.384 127.624 46.936 126.536 46.04C125.469 45.144 124.936 43.928 124.936 42.392C124.936 40.92 125.437 39.704 126.44 38.744C127.442 37.784 128.946 37.144 130.952 36.824L136.136 35.992V35.416C136.136 34.648 135.837 34.0187 135.24 33.528C134.664 33.0373 133.896 32.792 132.936 32.792C132.04 32.792 131.24 33.0373 130.536 33.528C129.853 33.9973 129.352 34.6267 129.032 35.416L125.608 33.752C126.12 32.3867 127.058 31.288 128.424 30.456C129.789 29.624 131.346 29.208 133.095 29.208C134.504 29.208 135.752 29.4747 136.84 30.008C137.949 30.52 138.802 31.256 139.4 32.216C140.018 33.1547 140.328 34.2213 140.328 35.416V47H136.36V45.144C134.994 46.6373 133.181 47.384 130.92 47.384ZM129.288 42.232C129.288 42.8293 129.512 43.3093 129.96 43.672C130.408 44.0133 130.984 44.184 131.688 44.184C132.989 44.184 134.056 43.7787 134.888 42.968C135.72 42.136 136.136 41.112 136.136 39.896V39.192L131.752 39.928C130.92 40.0987 130.301 40.376 129.896 40.76C129.49 41.1227 129.288 41.6133 129.288 42.232ZM144.202 29.592H148.138V32.024C148.565 31.0853 149.173 30.4133 149.962 30.008C150.751 29.6027 151.711 29.4 152.842 29.4H153.866V33.112H152.362C151.167 33.112 150.207 33.4853 149.482 34.232C148.757 34.9787 148.394 36.0027 148.394 37.304V47H144.202V29.592ZM164.427 47.384C162.677 47.384 161.12 46.9787 159.755 46.168C158.411 45.3573 157.355 44.2587 156.587 42.872C155.84 41.4853 155.467 39.9493 155.467 38.264C155.467 36.5573 155.84 35.0213 156.587 33.656C157.355 32.2693 158.389 31.1813 159.691 30.392C161.013 29.6027 162.485 29.208 164.107 29.208C165.856 29.208 167.371 29.592 168.651 30.36C169.931 31.1067 170.901 32.1307 171.563 33.432C172.245 34.7333 172.587 36.1627 172.587 37.72C172.587 38.4453 172.512 39.032 172.363 39.48H159.819C159.947 40.76 160.437 41.784 161.291 42.552C162.144 43.32 163.2 43.704 164.459 43.704C165.397 43.704 166.197 43.512 166.859 43.128C167.541 42.7227 168.085 42.168 168.491 41.464L171.883 43.128C171.349 44.408 170.411 45.4427 169.067 46.232C167.723 47 166.176 47.384 164.427 47.384ZM168.107 36.28C168 35.2133 167.584 34.3493 166.859 33.688C166.133 33.0053 165.216 32.664 164.107 32.664C163.04 32.664 162.133 32.984 161.387 33.624C160.64 34.2427 160.149 35.128 159.915 36.28H168.107ZM189.964 47.384C188.279 47.384 186.732 46.9893 185.324 46.2C183.916 45.4107 182.796 44.3227 181.964 42.936C181.153 41.5493 180.748 40.0027 180.748 38.296C180.748 36.5893 181.153 35.0427 181.964 33.656C182.775 32.2693 183.884 31.1813 185.292 30.392C186.7 29.6027 188.257 29.208 189.964 29.208C191.649 29.208 193.185 29.6027 194.572 30.392C195.98 31.1813 197.089 32.2693 197.9 33.656C198.732 35.0427 199.148 36.5893 199.148 38.296C199.148 40.024 198.732 41.5813 197.9 42.968C197.089 44.3547 195.98 45.4427 194.572 46.232C193.164 47 191.628 47.384 189.964 47.384ZM185.1 38.296C185.1 39.8107 185.548 41.0693 186.444 42.072C187.361 43.0533 188.535 43.544 189.964 43.544C190.881 43.544 191.703 43.32 192.428 42.872C193.153 42.424 193.719 41.8053 194.124 41.016C194.551 40.2053 194.764 39.2987 194.764 38.296C194.764 37.3147 194.551 36.4293 194.124 35.64C193.719 34.8293 193.153 34.2 192.428 33.752C191.703 33.2827 190.881 33.048 189.964 33.048C189.025 33.048 188.183 33.2827 187.436 33.752C186.711 34.2 186.135 34.8187 185.708 35.608C185.303 36.3973 185.1 37.2933 185.1 38.296ZM202.327 29.592H206.263V31.736C206.711 30.9253 207.362 30.3067 208.215 29.88C209.09 29.432 210.082 29.208 211.191 29.208C212.45 29.208 213.58 29.4853 214.583 30.04C215.586 30.5947 216.364 31.3733 216.919 32.376C217.474 33.3787 217.751 34.52 217.751 35.8V47H213.559V36.792C213.559 35.6613 213.228 34.7547 212.567 34.072C211.927 33.3893 211.084 33.048 210.039 33.048C208.994 33.048 208.14 33.3893 207.479 34.072C206.839 34.7547 206.519 35.6613 206.519 36.792V47H202.327V29.592ZM227.335 23.16H236.199C237.821 23.16 239.261 23.4587 240.519 24.056C241.778 24.632 242.749 25.4853 243.431 26.616C244.135 27.7467 244.487 29.1013 244.487 30.68C244.487 32.3013 244.103 33.6987 243.335 34.872C242.567 36.024 241.511 36.8773 240.167 37.432L245.639 47H240.711L235.783 38.2H231.687V47H227.335V23.16ZM236.263 34.36C237.437 34.36 238.375 34.0293 239.079 33.368C239.783 32.6853 240.135 31.7893 240.135 30.68C240.135 29.5707 239.783 28.6853 239.079 28.024C238.375 27.3413 237.437 27 236.263 27H231.687V34.36H236.263ZM255.427 47.384C253.677 47.384 252.12 46.9787 250.755 46.168C249.411 45.3573 248.355 44.2587 247.587 42.872C246.84 41.4853 246.467 39.9493 246.467 38.264C246.467 36.5573 246.84 35.0213 247.587 33.656C248.355 32.2693 249.389 31.1813 250.691 30.392C252.013 29.6027 253.485 29.208 255.107 29.208C256.856 29.208 258.371 29.592 259.651 30.36C260.931 31.1067 261.901 32.1307 262.563 33.432C263.245 34.7333 263.587 36.1627 263.587 37.72C263.587 38.4453 263.512 39.032 263.363 39.48H250.819C250.947 40.76 251.437 41.784 252.291 42.552C253.144 43.32 254.2 43.704 255.459 43.704C256.397 43.704 257.197 43.512 257.859 43.128C258.541 42.7227 259.085 42.168 259.491 41.464L262.883 43.128C262.349 44.408 261.411 45.4427 260.067 46.232C258.723 47 257.176 47.384 255.427 47.384ZM259.107 36.28C259 35.2133 258.584 34.3493 257.859 33.688C257.133 33.0053 256.216 32.664 255.107 32.664C254.04 32.664 253.133 32.984 252.387 33.624C251.64 34.2427 251.149 35.128 250.915 36.28H259.107ZM274.861 47.384C273.197 47.384 271.693 46.9893 270.349 46.2C269.026 45.3893 267.981 44.2907 267.213 42.904C266.445 41.5173 266.061 39.9813 266.061 38.296C266.061 36.6107 266.445 35.0747 267.213 33.688C267.981 32.3013 269.037 31.2133 270.381 30.424C271.725 29.6133 273.207 29.208 274.829 29.208C275.938 29.208 276.951 29.4 277.869 29.784C278.786 30.1467 279.554 30.6693 280.173 31.352V22.776H284.365V47H280.397V45.08C279.757 45.8267 278.957 46.4027 277.997 46.808C277.037 47.192 275.991 47.384 274.861 47.384ZM270.413 38.296C270.413 39.2987 270.615 40.2053 271.021 41.016C271.447 41.8053 272.034 42.424 272.781 42.872C273.527 43.32 274.37 43.544 275.309 43.544C276.247 43.544 277.079 43.32 277.805 42.872C278.551 42.424 279.127 41.8053 279.533 41.016C279.959 40.2053 280.173 39.2987 280.173 38.296C280.173 37.2933 279.959 36.3973 279.533 35.608C279.127 34.7973 278.551 34.168 277.805 33.72C277.058 33.272 276.226 33.048 275.309 33.048C274.37 33.048 273.527 33.2827 272.781 33.752C272.034 34.2 271.447 34.8293 271.021 35.64C270.615 36.4293 270.413 37.3147 270.413 38.296ZM296.361 47.384C294.697 47.384 293.193 46.9893 291.849 46.2C290.526 45.3893 289.481 44.2907 288.713 42.904C287.945 41.5173 287.561 39.9813 287.561 38.296C287.561 36.6107 287.945 35.0747 288.713 33.688C289.481 32.3013 290.537 31.2133 291.881 30.424C293.225 29.6133 294.707 29.208 296.329 29.208C297.438 29.208 298.451 29.4 299.369 29.784C300.286 30.1467 301.054 30.6693 301.673 31.352V22.776H305.865V47H301.897V45.08C301.257 45.8267 300.457 46.4027 299.497 46.808C298.537 47.192 297.491 47.384 296.361 47.384ZM291.913 38.296C291.913 39.2987 292.115 40.2053 292.521 41.016C292.947 41.8053 293.534 42.424 294.281 42.872C295.027 43.32 295.87 43.544 296.809 43.544C297.747 43.544 298.579 43.32 299.305 42.872C300.051 42.424 300.627 41.8053 301.033 41.016C301.459 40.2053 301.673 39.2987 301.673 38.296C301.673 37.2933 301.459 36.3973 301.033 35.608C300.627 34.7973 300.051 34.168 299.305 33.72C298.558 33.272 297.726 33.048 296.809 33.048C295.87 33.048 295.027 33.2827 294.281 33.752C293.534 34.2 292.947 34.8293 292.521 35.64C292.115 36.4293 291.913 37.3147 291.913 38.296ZM309.765 29.592H313.957V47H309.765V29.592ZM309.445 24.792C309.445 24.024 309.658 23.4267 310.085 23C310.511 22.5733 311.098 22.36 311.845 22.36C312.613 22.36 313.21 22.5733 313.637 23C314.063 23.4267 314.277 24.024 314.277 24.792C314.277 25.5387 314.063 26.1253 313.637 26.552C313.231 26.9787 312.634 27.192 311.845 27.192C311.098 27.192 310.511 26.9787 310.085 26.552C309.658 26.1253 309.445 25.5387 309.445 24.792ZM325.763 47.192C323.8 47.192 322.275 46.6587 321.187 45.592C320.12 44.504 319.587 42.9787 319.587 41.016V33.336H316.579V29.592H316.899C317.752 29.592 318.414 29.368 318.883 28.92C319.352 28.472 319.587 27.8213 319.587 26.968V25.624H323.779V29.592H327.779V33.336H323.779V40.792C323.779 42.6053 324.76 43.512 326.723 43.512C327.064 43.512 327.438 43.48 327.843 43.416V47.032C327.16 47.1387 326.467 47.192 325.763 47.192Z" fill="#131721"/>
<g clip-path="url(#clip0_115_1082)">
<path d="M48.026 42.1888C46.9508 43.264 44.6469 43.6478 43.0052 43.6478C41.3587 43.6478 39.0597 43.264 37.9845 42.1888C37.7299 41.9343 37.322 41.9343 37.0678 42.1888C36.8133 42.4433 36.8133 42.8513 37.0678 43.1054C38.7718 44.8094 42.0454 44.9438 43.0052 44.9438C43.9651 44.9438 47.2339 44.8094 48.943 43.1054C49.1924 42.8509 49.1924 42.443 48.943 42.1888C48.6884 41.9343 48.2805 41.9343 48.026 42.1888Z" fill="black"/>
<path d="M39.9998 36.5009C39.9998 35.1232 38.8766 34 37.4989 34C36.1216 34 34.998 35.1232 34.998 36.5009C34.998 37.8782 36.1216 39.0017 37.4989 39.0017C38.8766 39.0017 39.9998 37.8785 39.9998 36.5009Z" fill="black"/>
<path d="M43 10C29.7472 10 19 20.7472 19 34C19 47.2528 29.7472 58 43 58C56.2528 58 67 47.2528 67 34C67 20.7472 56.2528 10 43 10ZM56.9248 37.2014C56.9775 37.5471 57.0065 37.8976 57.0065 38.2528C57.0065 43.6383 50.7377 48.0017 43.0048 48.0017C35.2719 48.0017 29.0031 43.6383 29.0031 38.2528C29.0031 37.8928 29.032 37.5376 29.0847 37.1919C27.8656 36.6448 27.016 35.4209 27.016 34C27.016 32.0704 28.5808 30.5009 30.5151 30.5009C31.4559 30.5009 32.3055 30.8704 32.9343 31.4753C35.363 29.7234 38.7234 28.6046 42.4624 28.5087C42.4624 28.4607 44.2096 20.1375 44.2096 20.1375C44.2433 19.9745 44.3392 19.835 44.4784 19.7441C44.6176 19.653 44.7856 19.624 44.949 19.6577L50.7666 20.8959C51.1746 20.0704 52.0143 19.4991 52.9983 19.4991C54.3807 19.4991 55.4991 20.6176 55.4991 22C55.4991 23.3824 54.3807 24.5009 52.9983 24.5009C51.6591 24.5009 50.5743 23.4447 50.5121 22.1201L45.3038 21.0112L43.7104 28.5138C47.3824 28.6431 50.6802 29.7567 53.0704 31.4849C53.6992 30.8755 54.5536 30.5009 55.4991 30.5009C57.4338 30.5009 58.9983 32.0657 58.9983 34C58.9983 35.4304 58.1392 36.6543 56.9248 37.2014Z" fill="black"/>
<path d="M48.5009 34C47.1232 34 46 35.1232 46 36.5009C46 37.8782 47.1232 39.0017 48.5009 39.0017C49.8782 39.0017 51.0017 37.8782 51.0017 36.5009C51.0017 35.1232 49.8785 34 48.5009 34Z" fill="black"/>
</g>
<rect x="1.5" y="1.5" width="443" height="65" rx="10.5" stroke="black" stroke-width="3"/>
<defs>
<clipPath id="clip0_115_1082">
<rect width="48" height="48" fill="white" transform="translate(19 10)"/>
</clipPath>
</defs>
</svg>
