<svg width="306" height="48" viewBox="0 0 306 48" fill="none" xmlns="http://www.w3.org/2000/svg">
<path d="M67.304 13.16H76.2C77.8213 13.16 79.2613 13.4587 80.52 14.056C81.7787 14.632 82.7493 15.4853 83.432 16.616C84.136 17.7467 84.488 19.1013 84.488 20.68C84.488 22.2373 84.136 23.5813 83.432 24.712C82.728 25.8427 81.7467 26.7067 80.488 27.304C79.2507 27.9013 77.8213 28.2 76.2 28.2H71.656V37H67.304V13.16ZM76.264 24.36C77.4373 24.36 78.376 24.0293 79.08 23.368C79.784 22.6853 80.136 21.7893 80.136 20.68C80.136 19.5707 79.784 18.6853 79.08 18.024C78.376 17.3413 77.4373 17 76.264 17H71.656V24.36H76.264ZM87.702 19.592H91.894V37H87.702V19.592ZM87.382 14.792C87.382 14.024 87.5953 13.4267 88.022 13C88.4487 12.5733 89.0353 12.36 89.782 12.36C90.55 12.36 91.1473 12.5733 91.574 13C92.0007 13.4267 92.214 14.024 92.214 14.792C92.214 15.5387 92.0007 16.1253 91.574 16.552C91.1687 16.9787 90.5713 17.192 89.782 17.192C89.0353 17.192 88.4487 16.9787 88.022 16.552C87.5953 16.1253 87.382 15.5387 87.382 14.792ZM95.7645 19.592H99.7005V21.736C100.149 20.9253 100.799 20.3067 101.653 19.88C102.527 19.432 103.519 19.208 104.629 19.208C105.887 19.208 107.018 19.4853 108.021 20.04C109.023 20.5947 109.802 21.3733 110.357 22.376C110.911 23.3787 111.189 24.52 111.189 25.8V37H106.997V26.792C106.997 25.6613 106.666 24.7547 106.005 24.072C105.365 23.3893 104.522 23.048 103.477 23.048C102.431 23.048 101.578 23.3893 100.917 24.072C100.277 24.7547 99.9565 25.6613 99.9565 26.792V37H95.7645V19.592ZM128.933 37.384C127.247 37.384 125.701 36.9893 124.293 36.2C122.885 35.4107 121.765 34.3227 120.933 32.936C120.122 31.5493 119.717 30.0027 119.717 28.296C119.717 26.5893 120.122 25.0427 120.933 23.656C121.743 22.2693 122.853 21.1813 124.261 20.392C125.669 19.6027 127.226 19.208 128.933 19.208C130.618 19.208 132.154 19.6027 133.541 20.392C134.949 21.1813 136.058 22.2693 136.869 23.656C137.701 25.0427 138.117 26.5893 138.117 28.296C138.117 30.024 137.701 31.5813 136.869 32.968C136.058 34.3547 134.949 35.4427 133.541 36.232C132.133 37 130.597 37.384 128.933 37.384ZM124.069 28.296C124.069 29.8107 124.517 31.0693 125.413 32.072C126.33 33.0533 127.503 33.544 128.933 33.544C129.85 33.544 130.671 33.32 131.397 32.872C132.122 32.424 132.687 31.8053 133.093 31.016C133.519 30.2053 133.733 29.2987 133.733 28.296C133.733 27.3147 133.519 26.4293 133.093 25.64C132.687 24.8293 132.122 24.2 131.397 23.752C130.671 23.2827 129.85 23.048 128.933 23.048C127.994 23.048 127.151 23.2827 126.405 23.752C125.679 24.2 125.103 24.8187 124.677 25.608C124.271 26.3973 124.069 27.2933 124.069 28.296ZM141.296 19.592H145.232V21.736C145.68 20.9253 146.33 20.3067 147.184 19.88C148.058 19.432 149.05 19.208 150.16 19.208C151.418 19.208 152.549 19.4853 153.552 20.04C154.554 20.5947 155.333 21.3733 155.888 22.376C156.442 23.3787 156.72 24.52 156.72 25.8V37H152.528V26.792C152.528 25.6613 152.197 24.7547 151.536 24.072C150.896 23.3893 150.053 23.048 149.008 23.048C147.962 23.048 147.109 23.3893 146.448 24.072C145.808 24.7547 145.488 25.6613 145.488 26.792V37H141.296V19.592ZM166.304 13.16H175.2C176.821 13.16 178.261 13.4587 179.52 14.056C180.779 14.632 181.749 15.4853 182.432 16.616C183.136 17.7467 183.488 19.1013 183.488 20.68C183.488 22.2373 183.136 23.5813 182.432 24.712C181.728 25.8427 180.747 26.7067 179.488 27.304C178.251 27.9013 176.821 28.2 175.2 28.2H170.656V37H166.304V13.16ZM175.264 24.36C176.437 24.36 177.376 24.0293 178.08 23.368C178.784 22.6853 179.136 21.7893 179.136 20.68C179.136 19.5707 178.784 18.6853 178.08 18.024C177.376 17.3413 176.437 17 175.264 17H170.656V24.36H175.264ZM186.702 19.592H190.894V37H186.702V19.592ZM186.382 14.792C186.382 14.024 186.595 13.4267 187.022 13C187.449 12.5733 188.035 12.36 188.782 12.36C189.55 12.36 190.147 12.5733 190.574 13C191.001 13.4267 191.214 14.024 191.214 14.792C191.214 15.5387 191.001 16.1253 190.574 16.552C190.169 16.9787 189.571 17.192 188.782 17.192C188.035 17.192 187.449 16.9787 187.022 16.552C186.595 16.1253 186.382 15.5387 186.382 14.792ZM194.765 19.592H198.701V21.736C199.149 20.9253 199.799 20.3067 200.653 19.88C201.527 19.432 202.519 19.208 203.629 19.208C204.887 19.208 206.018 19.4853 207.021 20.04C208.023 20.5947 208.802 21.3733 209.357 22.376C209.911 23.3787 210.189 24.52 210.189 25.8V37H205.997V26.792C205.997 25.6613 205.666 24.7547 205.005 24.072C204.365 23.3893 203.522 23.048 202.477 23.048C201.431 23.048 200.578 23.3893 199.917 24.072C199.277 24.7547 198.957 25.6613 198.957 26.792V37H194.765V19.592ZM221.669 37.192C219.707 37.192 218.181 36.6587 217.093 35.592C216.027 34.504 215.493 32.9787 215.493 31.016V23.336H212.485V19.592H212.805C213.659 19.592 214.32 19.368 214.789 18.92C215.259 18.472 215.493 17.8213 215.493 16.968V15.624H219.685V19.592H223.685V23.336H219.685V30.792C219.685 32.6053 220.667 33.512 222.629 33.512C222.971 33.512 223.344 33.48 223.749 33.416V37.032C223.067 37.1387 222.373 37.192 221.669 37.192ZM235.052 37.384C233.302 37.384 231.745 36.9787 230.38 36.168C229.036 35.3573 227.98 34.2587 227.212 32.872C226.465 31.4853 226.092 29.9493 226.092 28.264C226.092 26.5573 226.465 25.0213 227.212 23.656C227.98 22.2693 229.014 21.1813 230.316 20.392C231.638 19.6027 233.11 19.208 234.732 19.208C236.481 19.208 237.996 19.592 239.276 20.36C240.556 21.1067 241.526 22.1307 242.188 23.432C242.87 24.7333 243.212 26.1627 243.212 27.72C243.212 28.4453 243.137 29.032 242.988 29.48H230.444C230.572 30.76 231.062 31.784 231.916 32.552C232.769 33.32 233.825 33.704 235.084 33.704C236.022 33.704 236.822 33.512 237.484 33.128C238.166 32.7227 238.71 32.168 239.116 31.464L242.508 33.128C241.974 34.408 241.036 35.4427 239.692 36.232C238.348 37 236.801 37.384 235.052 37.384ZM238.732 26.28C238.625 25.2133 238.209 24.3493 237.484 23.688C236.758 23.0053 235.841 22.664 234.732 22.664C233.665 22.664 232.758 22.984 232.012 23.624C231.265 24.2427 230.774 25.128 230.54 26.28H238.732ZM246.39 19.592H250.326V22.024C250.752 21.0853 251.36 20.4133 252.15 20.008C252.939 19.6027 253.899 19.4 255.03 19.4H256.054V23.112H254.55C253.355 23.112 252.395 23.4853 251.67 24.232C250.944 24.9787 250.582 26.0027 250.582 27.304V37H246.39V19.592ZM266.614 37.384C264.865 37.384 263.308 36.9787 261.942 36.168C260.598 35.3573 259.542 34.2587 258.774 32.872C258.028 31.4853 257.654 29.9493 257.654 28.264C257.654 26.5573 258.028 25.0213 258.774 23.656C259.542 22.2693 260.577 21.1813 261.878 20.392C263.201 19.6027 264.673 19.208 266.294 19.208C268.044 19.208 269.558 19.592 270.838 20.36C272.118 21.1067 273.089 22.1307 273.75 23.432C274.433 24.7333 274.774 26.1627 274.774 27.72C274.774 28.4453 274.7 29.032 274.55 29.48H262.006C262.134 30.76 262.625 31.784 263.478 32.552C264.332 33.32 265.388 33.704 266.646 33.704C267.585 33.704 268.385 33.512 269.046 33.128C269.729 32.7227 270.273 32.168 270.678 31.464L274.07 33.128C273.537 34.408 272.598 35.4427 271.254 36.232C269.91 37 268.364 37.384 266.614 37.384ZM270.294 26.28C270.188 25.2133 269.772 24.3493 269.046 23.688C268.321 23.0053 267.404 22.664 266.294 22.664C265.228 22.664 264.321 22.984 263.574 23.624C262.828 24.2427 262.337 25.128 262.102 26.28H270.294ZM284.48 37.352C282.731 37.352 281.184 36.936 279.84 36.104C278.517 35.272 277.579 34.1307 277.024 32.68L280.128 31.08C280.597 32.0187 281.216 32.7547 281.984 33.288C282.773 33.8 283.637 34.056 284.576 34.056C285.387 34.056 286.016 33.896 286.464 33.576C286.933 33.2347 287.168 32.776 287.168 32.2C287.168 31.7093 286.976 31.304 286.592 30.984C286.208 30.6427 285.707 30.4187 285.088 30.312L282.24 29.832C280.768 29.448 279.627 28.7973 278.816 27.88C278.027 26.9413 277.632 25.8427 277.632 24.584C277.632 23.5387 277.909 22.6107 278.464 21.8C279.019 20.968 279.787 20.328 280.768 19.88C281.771 19.432 282.901 19.208 284.16 19.208C285.76 19.208 287.168 19.592 288.384 20.36C289.6 21.1067 290.485 22.152 291.04 23.496L287.936 25.096C287.595 24.3493 287.072 23.752 286.368 23.304C285.664 22.856 284.885 22.632 284.032 22.632C283.328 22.632 282.763 22.792 282.336 23.112C281.931 23.432 281.728 23.848 281.728 24.36C281.728 25.2987 282.432 25.928 283.84 26.248L286.624 26.76C288.096 27.1653 289.237 27.8267 290.048 28.744C290.859 29.6613 291.264 30.7493 291.264 32.008C291.264 33.0533 290.976 33.9813 290.4 34.792C289.845 35.6027 289.056 36.232 288.032 36.68C287.008 37.128 285.824 37.352 284.48 37.352ZM302.326 37.192C300.363 37.192 298.838 36.6587 297.75 35.592C296.683 34.504 296.15 32.9787 296.15 31.016V23.336H293.142V19.592H293.462C294.315 19.592 294.976 19.368 295.446 18.92C295.915 18.472 296.15 17.8213 296.15 16.968V15.624H300.342V19.592H304.342V23.336H300.342V30.792C300.342 32.6053 301.323 33.512 303.286 33.512C303.627 33.512 304 33.48 304.406 33.416V37.032C303.723 37.1387 303.03 37.192 302.326 37.192Z" fill="#131721"/>
<path fill-rule="evenodd" clip-rule="evenodd" d="M24.0572 1.28305C11.2083 1.28305 0.768555 11.6459 0.768555 24.5146C0.768555 37.3826 11.2083 47.7454 24.0572 47.7454C36.9061 47.7454 47.2311 37.3826 47.2311 24.5146C47.2311 11.6459 36.906 1.28305 24.0572 1.28305ZM25.8927 30.7777C24.1719 30.6637 23.4836 29.753 22.1069 28.9557C21.4186 32.8272 20.5008 36.4712 17.8622 38.4073C17.0591 32.5997 19.0094 28.2726 19.9272 23.6032C18.321 20.9841 20.1566 15.518 23.4836 16.8844C27.6136 18.4788 19.9272 26.9056 25.0897 27.9304C30.5963 29.0692 32.776 18.4788 29.4491 15.0624C24.516 10.1655 15.2236 14.9483 16.3708 22.0087C16.7149 23.7173 18.4358 24.2864 17.1738 26.6781C13.9616 25.995 13.0438 23.4892 13.1585 20.3008C13.388 14.9483 17.9769 11.1902 22.6805 10.6211C28.5313 9.93798 34.038 12.7847 34.7263 18.2507C35.6441 24.5145 32.0877 31.2334 25.8927 30.7777Z" fill="black"/>
</svg>
