<svg width="337" height="48" viewBox="0 0 337 48" fill="none" xmlns="http://www.w3.org/2000/svg">
<path d="M75.816 37.384C73.9387 37.384 72.3067 37.032 70.92 36.328C69.5547 35.624 68.488 34.7387 67.72 33.672C66.952 32.584 66.4613 31.4533 66.248 30.28L70.344 29.192C70.664 30.4933 71.304 31.5067 72.264 32.232C73.224 32.9573 74.4293 33.32 75.88 33.32C76.9893 33.32 77.8853 33.0427 78.568 32.488C79.272 31.9333 79.624 31.272 79.624 30.504C79.624 29.8 79.368 29.192 78.856 28.68C78.3653 28.1467 77.6933 27.7947 76.84 27.624L73.256 26.92C71.3573 26.5573 69.864 25.736 68.776 24.456C67.688 23.176 67.144 21.6187 67.144 19.784C67.144 18.504 67.5067 17.3307 68.232 16.264C68.9787 15.176 69.96 14.3227 71.176 13.704C72.4133 13.0853 73.7253 12.776 75.112 12.776C76.8827 12.776 78.3867 13.0747 79.624 13.672C80.8613 14.2693 81.8213 15.0267 82.504 15.944C83.208 16.84 83.6773 17.7893 83.912 18.792L79.848 20.072C79.4 18.92 78.792 18.0987 78.024 17.608C77.256 17.096 76.2853 16.84 75.112 16.84C74.4507 16.84 73.8533 16.9787 73.32 17.256C72.808 17.5333 72.4027 17.896 72.104 18.344C71.8267 18.7707 71.688 19.208 71.688 19.656C71.688 20.36 71.9227 20.9787 72.392 21.512C72.8613 22.024 73.512 22.3547 74.344 22.504L77.736 23.24C79.8053 23.688 81.4053 24.5413 82.536 25.8C83.6667 27.0373 84.232 28.52 84.232 30.248C84.232 31.4853 83.8907 32.648 83.208 33.736C82.5253 34.824 81.544 35.7093 80.264 36.392C79.0053 37.0533 77.5227 37.384 75.816 37.384ZM87.6708 12.776H91.8628V21.32C92.3534 20.6373 93.0041 20.1147 93.8148 19.752C94.6254 19.3893 95.5321 19.208 96.5348 19.208C97.7934 19.208 98.9241 19.4853 99.9268 20.04C100.929 20.5947 101.708 21.3733 102.263 22.376C102.817 23.3787 103.095 24.52 103.095 25.8V37H98.9028V26.792C98.9028 25.6613 98.5721 24.7547 97.9108 24.072C97.2708 23.3893 96.4281 23.048 95.3828 23.048C94.3588 23.048 93.5161 23.3893 92.8548 24.072C92.1934 24.7547 91.8628 25.6613 91.8628 26.792V37H87.6708V12.776ZM111.92 37.384C110.085 37.384 108.624 36.936 107.536 36.04C106.469 35.144 105.936 33.928 105.936 32.392C105.936 30.92 106.437 29.704 107.44 28.744C108.442 27.784 109.946 27.144 111.952 26.824L117.136 25.992V25.416C117.136 24.648 116.837 24.0187 116.24 23.528C115.664 23.0373 114.896 22.792 113.936 22.792C113.04 22.792 112.24 23.0373 111.536 23.528C110.853 23.9973 110.352 24.6267 110.032 25.416L106.608 23.752C107.12 22.3867 108.058 21.288 109.424 20.456C110.789 19.624 112.346 19.208 114.095 19.208C115.504 19.208 116.752 19.4747 117.84 20.008C118.949 20.52 119.802 21.256 120.4 22.216C121.018 23.1547 121.328 24.2213 121.328 25.416V37H117.36V35.144C115.994 36.6373 114.181 37.384 111.92 37.384ZM110.288 32.232C110.288 32.8293 110.512 33.3093 110.96 33.672C111.408 34.0133 111.984 34.184 112.688 34.184C113.989 34.184 115.056 33.7787 115.888 32.968C116.72 32.136 117.136 31.112 117.136 29.896V29.192L112.752 29.928C111.92 30.0987 111.301 30.376 110.896 30.76C110.49 31.1227 110.288 31.6133 110.288 32.232ZM125.202 19.592H129.138V22.024C129.565 21.0853 130.173 20.4133 130.962 20.008C131.751 19.6027 132.711 19.4 133.842 19.4H134.866V23.112H133.362C132.167 23.112 131.207 23.4853 130.482 24.232C129.757 24.9787 129.394 26.0027 129.394 27.304V37H125.202V19.592ZM145.427 37.384C143.677 37.384 142.12 36.9787 140.755 36.168C139.411 35.3573 138.355 34.2587 137.587 32.872C136.84 31.4853 136.467 29.9493 136.467 28.264C136.467 26.5573 136.84 25.0213 137.587 23.656C138.355 22.2693 139.389 21.1813 140.691 20.392C142.013 19.6027 143.485 19.208 145.107 19.208C146.856 19.208 148.371 19.592 149.651 20.36C150.931 21.1067 151.901 22.1307 152.563 23.432C153.245 24.7333 153.587 26.1627 153.587 27.72C153.587 28.4453 153.512 29.032 153.363 29.48H140.819C140.947 30.76 141.437 31.784 142.291 32.552C143.144 33.32 144.2 33.704 145.459 33.704C146.397 33.704 147.197 33.512 147.859 33.128C148.541 32.7227 149.085 32.168 149.491 31.464L152.883 33.128C152.349 34.408 151.411 35.4427 150.067 36.232C148.723 37 147.176 37.384 145.427 37.384ZM149.107 26.28C149 25.2133 148.584 24.3493 147.859 23.688C147.133 23.0053 146.216 22.664 145.107 22.664C144.04 22.664 143.133 22.984 142.387 23.624C141.64 24.2427 141.149 25.128 140.915 26.28H149.107ZM170.964 37.384C169.279 37.384 167.732 36.9893 166.324 36.2C164.916 35.4107 163.796 34.3227 162.964 32.936C162.153 31.5493 161.748 30.0027 161.748 28.296C161.748 26.5893 162.153 25.0427 162.964 23.656C163.775 22.2693 164.884 21.1813 166.292 20.392C167.7 19.6027 169.257 19.208 170.964 19.208C172.649 19.208 174.185 19.6027 175.572 20.392C176.98 21.1813 178.089 22.2693 178.9 23.656C179.732 25.0427 180.148 26.5893 180.148 28.296C180.148 30.024 179.732 31.5813 178.9 32.968C178.089 34.3547 176.98 35.4427 175.572 36.232C174.164 37 172.628 37.384 170.964 37.384ZM166.1 28.296C166.1 29.8107 166.548 31.0693 167.444 32.072C168.361 33.0533 169.535 33.544 170.964 33.544C171.881 33.544 172.703 33.32 173.428 32.872C174.153 32.424 174.719 31.8053 175.124 31.016C175.551 30.2053 175.764 29.2987 175.764 28.296C175.764 27.3147 175.551 26.4293 175.124 25.64C174.719 24.8293 174.153 24.2 173.428 23.752C172.703 23.2827 171.881 23.048 170.964 23.048C170.025 23.048 169.183 23.2827 168.436 23.752C167.711 24.2 167.135 24.8187 166.708 25.608C166.303 26.3973 166.1 27.2933 166.1 28.296ZM183.327 19.592H187.263V21.736C187.711 20.9253 188.362 20.3067 189.215 19.88C190.09 19.432 191.082 19.208 192.191 19.208C193.45 19.208 194.58 19.4853 195.583 20.04C196.586 20.5947 197.364 21.3733 197.919 22.376C198.474 23.3787 198.751 24.52 198.751 25.8V37H194.559V26.792C194.559 25.6613 194.228 24.7547 193.567 24.072C192.927 23.3893 192.084 23.048 191.039 23.048C189.994 23.048 189.14 23.3893 188.479 24.072C187.839 24.7547 187.519 25.6613 187.519 26.792V37H183.327V19.592ZM208.335 13.16H212.687V33.16H222.895V37H208.335V13.16ZM225.358 19.592H229.55V37H225.358V19.592ZM225.038 14.792C225.038 14.024 225.252 13.4267 225.678 13C226.105 12.5733 226.692 12.36 227.438 12.36C228.206 12.36 228.804 12.5733 229.23 13C229.657 13.4267 229.87 14.024 229.87 14.792C229.87 15.5387 229.657 16.1253 229.23 16.552C228.825 16.9787 228.228 17.192 227.438 17.192C226.692 17.192 226.105 16.9787 225.678 16.552C225.252 16.1253 225.038 15.5387 225.038 14.792ZM233.421 19.592H237.357V21.736C237.805 20.9253 238.455 20.3067 239.309 19.88C240.183 19.432 241.175 19.208 242.285 19.208C243.543 19.208 244.674 19.4853 245.677 20.04C246.679 20.5947 247.458 21.3733 248.013 22.376C248.567 23.3787 248.845 24.52 248.845 25.8V37H244.653V26.792C244.653 25.6613 244.322 24.7547 243.661 24.072C243.021 23.3893 242.178 23.048 241.133 23.048C240.087 23.048 239.234 23.3893 238.573 24.072C237.933 24.7547 237.613 25.6613 237.613 26.792V37H233.421V19.592ZM252.39 12.776H256.582V26.504L263.174 19.592H268.39L261.958 26.6L268.517 37H263.718L258.822 29.256L256.582 31.688V37H252.39V12.776ZM278.802 37.384C277.052 37.384 275.495 36.9787 274.13 36.168C272.786 35.3573 271.73 34.2587 270.962 32.872C270.215 31.4853 269.842 29.9493 269.842 28.264C269.842 26.5573 270.215 25.0213 270.962 23.656C271.73 22.2693 272.764 21.1813 274.066 20.392C275.388 19.6027 276.86 19.208 278.482 19.208C280.231 19.208 281.746 19.592 283.026 20.36C284.306 21.1067 285.276 22.1307 285.938 23.432C286.62 24.7333 286.962 26.1627 286.962 27.72C286.962 28.4453 286.887 29.032 286.738 29.48H274.194C274.322 30.76 274.812 31.784 275.666 32.552C276.519 33.32 277.575 33.704 278.834 33.704C279.772 33.704 280.572 33.512 281.234 33.128C281.916 32.7227 282.46 32.168 282.866 31.464L286.258 33.128C285.724 34.408 284.786 35.4427 283.442 36.232C282.098 37 280.551 37.384 278.802 37.384ZM282.482 26.28C282.375 25.2133 281.959 24.3493 281.234 23.688C280.508 23.0053 279.591 22.664 278.482 22.664C277.415 22.664 276.508 22.984 275.762 23.624C275.015 24.2427 274.524 25.128 274.29 26.28H282.482ZM298.236 37.384C296.572 37.384 295.068 36.9893 293.724 36.2C292.401 35.3893 291.356 34.2907 290.588 32.904C289.82 31.5173 289.436 29.9813 289.436 28.296C289.436 26.6107 289.82 25.0747 290.588 23.688C291.356 22.3013 292.412 21.2133 293.756 20.424C295.1 19.6133 296.582 19.208 298.204 19.208C299.313 19.208 300.326 19.4 301.244 19.784C302.161 20.1467 302.929 20.6693 303.548 21.352V12.776H307.74V37H303.772V35.08C303.132 35.8267 302.332 36.4027 301.372 36.808C300.412 37.192 299.366 37.384 298.236 37.384ZM293.788 28.296C293.788 29.2987 293.99 30.2053 294.396 31.016C294.822 31.8053 295.409 32.424 296.156 32.872C296.902 33.32 297.745 33.544 298.684 33.544C299.622 33.544 300.454 33.32 301.18 32.872C301.926 32.424 302.502 31.8053 302.908 31.016C303.334 30.2053 303.548 29.2987 303.548 28.296C303.548 27.2933 303.334 26.3973 302.908 25.608C302.502 24.7973 301.926 24.168 301.18 23.72C300.433 23.272 299.601 23.048 298.684 23.048C297.745 23.048 296.902 23.2827 296.156 23.752C295.409 24.2 294.822 24.8293 294.396 25.64C293.99 26.4293 293.788 27.3147 293.788 28.296ZM311.64 19.592H315.832V37H311.64V19.592ZM311.32 14.792C311.32 14.024 311.533 13.4267 311.96 13C312.386 12.5733 312.973 12.36 313.72 12.36C314.488 12.36 315.085 12.5733 315.512 13C315.938 13.4267 316.152 14.024 316.152 14.792C316.152 15.5387 315.938 16.1253 315.512 16.552C315.106 16.9787 314.509 17.192 313.72 17.192C312.973 17.192 312.386 16.9787 311.96 16.552C311.533 16.1253 311.32 15.5387 311.32 14.792ZM319.702 19.592H323.638V21.736C324.086 20.9253 324.737 20.3067 325.59 19.88C326.465 19.432 327.457 19.208 328.566 19.208C329.825 19.208 330.955 19.4853 331.958 20.04C332.961 20.5947 333.739 21.3733 334.294 22.376C334.849 23.3787 335.126 24.52 335.126 25.8V37H330.934V26.792C330.934 25.6613 330.603 24.7547 329.942 24.072C329.302 23.3893 328.459 23.048 327.414 23.048C326.369 23.048 325.515 23.3893 324.854 24.072C324.214 24.7547 323.894 25.6613 323.894 26.792V37H319.702V19.592Z" fill="#131721"/>
<g clip-path="url(#clip0_115_999)">
<path d="M24 0C10.7472 0 0 10.7472 0 24C0 37.2528 10.7472 48 24 48C37.2528 48 48 37.2528 48 24C48 10.7472 37.2528 0 24 0ZM17.0259 36.2812H11.1808V18.6962H17.0259V36.2812ZM14.1035 16.2949H14.0654C12.104 16.2949 10.8354 14.9447 10.8354 13.2572C10.8354 11.5316 12.1428 10.2188 14.1423 10.2188C16.1418 10.2188 17.3723 11.5316 17.4104 13.2572C17.4104 14.9447 16.1418 16.2949 14.1035 16.2949ZM38.1021 36.2812H32.2577V26.8737C32.2577 24.5094 31.4114 22.897 29.2965 22.897C27.6819 22.897 26.7202 23.9846 26.2976 25.0345C26.1431 25.4103 26.1053 25.9354 26.1053 26.4609V36.2812H20.2606C20.2606 36.2812 20.3372 20.3459 20.2606 18.6962H26.1053V21.186C26.8821 19.9878 28.2719 18.2834 31.3729 18.2834C35.2185 18.2834 38.1021 20.7968 38.1021 26.198V36.2812Z" fill="black"/>
</g>
<defs>
<clipPath id="clip0_115_999">
<rect width="48" height="48" fill="white"/>
</clipPath>
</defs>
</svg>
