<svg width="446" height="68" viewBox="0 0 446 68" fill="none" xmlns="http://www.w3.org/2000/svg">
<rect x="1.5" y="1.5" width="443" height="65" rx="10.5" fill="white"/>
<path d="M94.816 47.384C92.9387 47.384 91.3067 47.032 89.92 46.328C88.5547 45.624 87.488 44.7387 86.72 43.672C85.952 42.584 85.4613 41.4533 85.248 40.28L89.344 39.192C89.664 40.4933 90.304 41.5067 91.264 42.232C92.224 42.9573 93.4293 43.32 94.88 43.32C95.9893 43.32 96.8853 43.0427 97.568 42.488C98.272 41.9333 98.624 41.272 98.624 40.504C98.624 39.8 98.368 39.192 97.856 38.68C97.3653 38.1467 96.6933 37.7947 95.84 37.624L92.256 36.92C90.3573 36.5573 88.864 35.736 87.776 34.456C86.688 33.176 86.144 31.6187 86.144 29.784C86.144 28.504 86.5067 27.3307 87.232 26.264C87.9787 25.176 88.96 24.3227 90.176 23.704C91.4133 23.0853 92.7253 22.776 94.112 22.776C95.8827 22.776 97.3867 23.0747 98.624 23.672C99.8613 24.2693 100.821 25.0267 101.504 25.944C102.208 26.84 102.677 27.7893 102.912 28.792L98.848 30.072C98.4 28.92 97.792 28.0987 97.024 27.608C96.256 27.096 95.2853 26.84 94.112 26.84C93.4507 26.84 92.8533 26.9787 92.32 27.256C91.808 27.5333 91.4027 27.896 91.104 28.344C90.8267 28.7707 90.688 29.208 90.688 29.656C90.688 30.36 90.9227 30.9787 91.392 31.512C91.8613 32.024 92.512 32.3547 93.344 32.504L96.736 33.24C98.8053 33.688 100.405 34.5413 101.536 35.8C102.667 37.0373 103.232 38.52 103.232 40.248C103.232 41.4853 102.891 42.648 102.208 43.736C101.525 44.824 100.544 45.7093 99.264 46.392C98.0053 47.0533 96.5227 47.384 94.816 47.384ZM106.671 22.776H110.863V31.32C111.353 30.6373 112.004 30.1147 112.815 29.752C113.625 29.3893 114.532 29.208 115.535 29.208C116.793 29.208 117.924 29.4853 118.927 30.04C119.929 30.5947 120.708 31.3733 121.263 32.376C121.817 33.3787 122.095 34.52 122.095 35.8V47H117.903V36.792C117.903 35.6613 117.572 34.7547 116.911 34.072C116.271 33.3893 115.428 33.048 114.383 33.048C113.359 33.048 112.516 33.3893 111.855 34.072C111.193 34.7547 110.863 35.6613 110.863 36.792V47H106.671V22.776ZM130.92 47.384C129.085 47.384 127.624 46.936 126.536 46.04C125.469 45.144 124.936 43.928 124.936 42.392C124.936 40.92 125.437 39.704 126.44 38.744C127.442 37.784 128.946 37.144 130.952 36.824L136.136 35.992V35.416C136.136 34.648 135.837 34.0187 135.24 33.528C134.664 33.0373 133.896 32.792 132.936 32.792C132.04 32.792 131.24 33.0373 130.536 33.528C129.853 33.9973 129.352 34.6267 129.032 35.416L125.608 33.752C126.12 32.3867 127.058 31.288 128.424 30.456C129.789 29.624 131.346 29.208 133.095 29.208C134.504 29.208 135.752 29.4747 136.84 30.008C137.949 30.52 138.802 31.256 139.4 32.216C140.018 33.1547 140.328 34.2213 140.328 35.416V47H136.36V45.144C134.994 46.6373 133.181 47.384 130.92 47.384ZM129.288 42.232C129.288 42.8293 129.512 43.3093 129.96 43.672C130.408 44.0133 130.984 44.184 131.688 44.184C132.989 44.184 134.056 43.7787 134.888 42.968C135.72 42.136 136.136 41.112 136.136 39.896V39.192L131.752 39.928C130.92 40.0987 130.301 40.376 129.896 40.76C129.49 41.1227 129.288 41.6133 129.288 42.232ZM144.202 29.592H148.138V32.024C148.565 31.0853 149.173 30.4133 149.962 30.008C150.751 29.6027 151.711 29.4 152.842 29.4H153.866V33.112H152.362C151.167 33.112 150.207 33.4853 149.482 34.232C148.757 34.9787 148.394 36.0027 148.394 37.304V47H144.202V29.592ZM164.427 47.384C162.677 47.384 161.12 46.9787 159.755 46.168C158.411 45.3573 157.355 44.2587 156.587 42.872C155.84 41.4853 155.467 39.9493 155.467 38.264C155.467 36.5573 155.84 35.0213 156.587 33.656C157.355 32.2693 158.389 31.1813 159.691 30.392C161.013 29.6027 162.485 29.208 164.107 29.208C165.856 29.208 167.371 29.592 168.651 30.36C169.931 31.1067 170.901 32.1307 171.563 33.432C172.245 34.7333 172.587 36.1627 172.587 37.72C172.587 38.4453 172.512 39.032 172.363 39.48H159.819C159.947 40.76 160.437 41.784 161.291 42.552C162.144 43.32 163.2 43.704 164.459 43.704C165.397 43.704 166.197 43.512 166.859 43.128C167.541 42.7227 168.085 42.168 168.491 41.464L171.883 43.128C171.349 44.408 170.411 45.4427 169.067 46.232C167.723 47 166.176 47.384 164.427 47.384ZM168.107 36.28C168 35.2133 167.584 34.3493 166.859 33.688C166.133 33.0053 165.216 32.664 164.107 32.664C163.04 32.664 162.133 32.984 161.387 33.624C160.64 34.2427 160.149 35.128 159.915 36.28H168.107ZM189.964 47.384C188.279 47.384 186.732 46.9893 185.324 46.2C183.916 45.4107 182.796 44.3227 181.964 42.936C181.153 41.5493 180.748 40.0027 180.748 38.296C180.748 36.5893 181.153 35.0427 181.964 33.656C182.775 32.2693 183.884 31.1813 185.292 30.392C186.7 29.6027 188.257 29.208 189.964 29.208C191.649 29.208 193.185 29.6027 194.572 30.392C195.98 31.1813 197.089 32.2693 197.9 33.656C198.732 35.0427 199.148 36.5893 199.148 38.296C199.148 40.024 198.732 41.5813 197.9 42.968C197.089 44.3547 195.98 45.4427 194.572 46.232C193.164 47 191.628 47.384 189.964 47.384ZM185.1 38.296C185.1 39.8107 185.548 41.0693 186.444 42.072C187.361 43.0533 188.535 43.544 189.964 43.544C190.881 43.544 191.703 43.32 192.428 42.872C193.153 42.424 193.719 41.8053 194.124 41.016C194.551 40.2053 194.764 39.2987 194.764 38.296C194.764 37.3147 194.551 36.4293 194.124 35.64C193.719 34.8293 193.153 34.2 192.428 33.752C191.703 33.2827 190.881 33.048 189.964 33.048C189.025 33.048 188.183 33.2827 187.436 33.752C186.711 34.2 186.135 34.8187 185.708 35.608C185.303 36.3973 185.1 37.2933 185.1 38.296ZM202.327 29.592H206.263V31.736C206.711 30.9253 207.362 30.3067 208.215 29.88C209.09 29.432 210.082 29.208 211.191 29.208C212.45 29.208 213.58 29.4853 214.583 30.04C215.586 30.5947 216.364 31.3733 216.919 32.376C217.474 33.3787 217.751 34.52 217.751 35.8V47H213.559V36.792C213.559 35.6613 213.228 34.7547 212.567 34.072C211.927 33.3893 211.084 33.048 210.039 33.048C208.994 33.048 208.14 33.3893 207.479 34.072C206.839 34.7547 206.519 35.6613 206.519 36.792V47H202.327V29.592ZM233.191 35L225.447 23.16H230.439L235.623 31.096L240.775 23.16H245.767L238.055 35L245.831 47H240.839L235.623 38.936L230.375 47H225.383L233.191 35Z" fill="#131721"/>
<g clip-path="url(#clip0_115_1107)">
<path d="M43 10C29.7456 10 19 20.7456 19 34C19 47.2544 29.7456 58 43 58C56.2544 58 67 47.2544 67 34C67 20.7456 56.2544 10 43 10Z" fill="black"/>
<path d="M45.6259 31.8281L55.9 19.8853H53.4654L44.5444 30.2551L37.4192 19.8853H29.2012L39.9758 35.5662L29.2012 48.0901H31.6359L41.0568 37.1392L48.5815 48.0901H56.7995L45.6253 31.8281H45.6259ZM32.5132 21.7181H36.2529L53.4665 46.3406H49.7269L32.5132 21.7181Z" fill="white"/>
</g>
<rect x="1.5" y="1.5" width="443" height="65" rx="10.5" stroke="black" stroke-width="3"/>
<defs>
<clipPath id="clip0_115_1107">
<rect width="48" height="48" fill="white" transform="translate(19 10)"/>
</clipPath>
</defs>
</svg>
