<svg width="340" height="48" viewBox="0 0 340 48" fill="none" xmlns="http://www.w3.org/2000/svg">
<g clip-path="url(#clip0_114_942)">
<path d="M24 0C10.7456 0 0 10.7456 0 24C0 37.2544 10.7456 48 24 48C37.2544 48 48 37.2544 48 24C48 10.7456 37.2544 0 24 0Z" fill="black"/>
<path d="M26.6259 21.8281L36.9 9.88525H34.4654L25.5444 20.2551L18.4192 9.88525H10.2012L20.9758 25.5662L10.2012 38.0901H12.6359L22.0568 27.1392L29.5815 38.0901H37.7995L26.6253 21.8281H26.6259ZM13.5132 11.7181H17.2529L34.4665 36.3406H30.7269L13.5132 11.7181Z" fill="white"/>
</g>
<path d="M67.304 13.16H77.352C79.6987 13.16 81.544 13.7573 82.888 14.952C84.232 16.1467 84.904 17.7893 84.904 19.88C84.904 21.5867 84.264 23.016 82.984 24.168C84.904 25.4053 85.864 27.2507 85.864 29.704C85.864 31.9867 85.1067 33.7787 83.592 35.08C82.0987 36.36 80.0187 37 77.352 37H67.304V13.16ZM77.8 33.16C78.9093 33.16 79.8053 32.8507 80.488 32.232C81.1707 31.592 81.512 30.7493 81.512 29.704C81.512 28.6587 81.1707 27.816 80.488 27.176C79.8267 26.536 78.9307 26.216 77.8 26.216H71.656V33.16H77.8ZM77.576 22.408C78.472 22.408 79.1867 22.152 79.72 21.64C80.2533 21.1067 80.52 20.424 80.52 19.592C80.52 18.76 80.2533 18.0987 79.72 17.608C79.1867 17.1173 78.472 16.872 77.576 16.872H71.656V22.408H77.576ZM95.285 37.384C93.2583 37.384 91.6583 36.7333 90.485 35.432C89.3117 34.1307 88.725 32.4027 88.725 30.248V19.592H92.917V29.896C92.917 30.984 93.237 31.8693 93.877 32.552C94.5383 33.2133 95.3917 33.544 96.437 33.544C97.4823 33.544 98.325 33.2027 98.965 32.52C99.6263 31.8373 99.957 30.9307 99.957 29.8V19.592H104.149V37H100.181V34.92C99.7117 35.7307 99.0503 36.3493 98.197 36.776C97.365 37.1813 96.3943 37.384 95.285 37.384ZM108.046 19.592H112.238V37H108.046V19.592ZM107.726 14.792C107.726 14.024 107.939 13.4267 108.366 13C108.792 12.5733 109.379 12.36 110.126 12.36C110.894 12.36 111.491 12.5733 111.918 13C112.344 13.4267 112.558 14.024 112.558 14.792C112.558 15.5387 112.344 16.1253 111.918 16.552C111.512 16.9787 110.915 17.192 110.126 17.192C109.379 17.192 108.792 16.9787 108.366 16.552C107.939 16.1253 107.726 15.5387 107.726 14.792ZM116.108 12.776H120.3V37H116.108V12.776ZM132.267 37.384C130.603 37.384 129.099 36.9893 127.755 36.2C126.432 35.3893 125.387 34.2907 124.619 32.904C123.851 31.5173 123.467 29.9813 123.467 28.296C123.467 26.6107 123.851 25.0747 124.619 23.688C125.387 22.3013 126.443 21.2133 127.787 20.424C129.131 19.6133 130.613 19.208 132.235 19.208C133.344 19.208 134.357 19.4 135.275 19.784C136.192 20.1467 136.96 20.6693 137.579 21.352V12.776H141.771V37H137.803V35.08C137.163 35.8267 136.363 36.4027 135.403 36.808C134.443 37.192 133.397 37.384 132.267 37.384ZM127.819 28.296C127.819 29.2987 128.021 30.2053 128.427 31.016C128.853 31.8053 129.44 32.424 130.187 32.872C130.933 33.32 131.776 33.544 132.715 33.544C133.653 33.544 134.485 33.32 135.211 32.872C135.957 32.424 136.533 31.8053 136.939 31.016C137.365 30.2053 137.579 29.2987 137.579 28.296C137.579 27.2933 137.365 26.3973 136.939 25.608C136.533 24.7973 135.957 24.168 135.211 23.72C134.464 23.272 133.632 23.048 132.715 23.048C131.776 23.048 130.933 23.2827 130.187 23.752C129.44 24.2 128.853 24.8293 128.427 25.64C128.021 26.4293 127.819 27.3147 127.819 28.296ZM144.071 13.16H148.743L153.159 31.08L157.799 13.16H162.311L166.919 31.08L171.335 13.16H176.007L169.607 37H164.615L160.039 19.848L155.463 37H150.471L144.071 13.16ZM185.489 37.384C183.74 37.384 182.183 36.9787 180.817 36.168C179.473 35.3573 178.417 34.2587 177.649 32.872C176.903 31.4853 176.529 29.9493 176.529 28.264C176.529 26.5573 176.903 25.0213 177.649 23.656C178.417 22.2693 179.452 21.1813 180.753 20.392C182.076 19.6027 183.548 19.208 185.169 19.208C186.919 19.208 188.433 19.592 189.713 20.36C190.993 21.1067 191.964 22.1307 192.625 23.432C193.308 24.7333 193.649 26.1627 193.649 27.72C193.649 28.4453 193.575 29.032 193.425 29.48H180.881C181.009 30.76 181.5 31.784 182.353 32.552C183.207 33.32 184.263 33.704 185.521 33.704C186.46 33.704 187.26 33.512 187.921 33.128C188.604 32.7227 189.148 32.168 189.553 31.464L192.945 33.128C192.412 34.408 191.473 35.4427 190.129 36.232C188.785 37 187.239 37.384 185.489 37.384ZM189.169 26.28C189.063 25.2133 188.647 24.3493 187.921 23.688C187.196 23.0053 186.279 22.664 185.169 22.664C184.103 22.664 183.196 22.984 182.449 23.624C181.703 24.2427 181.212 25.128 180.977 26.28H189.169ZM206.331 37.384C205.2 37.384 204.144 37.1813 203.163 36.776C202.203 36.3707 201.403 35.7947 200.763 35.048V37H196.827V12.776H201.019V21.352C201.638 20.6693 202.406 20.1467 203.323 19.784C204.24 19.4 205.254 19.208 206.363 19.208C207.984 19.208 209.467 19.6133 210.811 20.424C212.155 21.2133 213.211 22.3013 213.979 23.688C214.747 25.0747 215.131 26.6107 215.131 28.296C215.131 29.9813 214.747 31.5173 213.979 32.904C213.211 34.2907 212.155 35.3893 210.811 36.2C209.488 36.9893 207.995 37.384 206.331 37.384ZM201.019 28.296C201.019 29.2987 201.222 30.2053 201.627 31.016C202.054 31.8053 202.63 32.424 203.355 32.872C204.102 33.32 204.934 33.544 205.851 33.544C207.28 33.544 208.454 33.0533 209.371 32.072C210.31 31.0693 210.779 29.8107 210.779 28.296C210.779 27.3147 210.566 26.4293 210.139 25.64C209.712 24.8293 209.126 24.2 208.379 23.752C207.632 23.2827 206.79 23.048 205.851 23.048C204.934 23.048 204.102 23.272 203.355 23.72C202.63 24.168 202.054 24.7973 201.627 25.608C201.222 26.3973 201.019 27.2933 201.019 28.296ZM229.879 37.384C227.639 37.384 225.612 36.8507 223.799 35.784C221.986 34.7173 220.556 33.2453 219.511 31.368C218.487 29.4907 217.975 27.3893 217.975 25.064C217.975 22.7387 218.487 20.6373 219.511 18.76C220.556 16.8827 221.975 15.4213 223.767 14.376C225.58 13.3093 227.618 12.776 229.879 12.776C231.522 12.776 233.026 13.064 234.391 13.64C235.756 14.1947 236.908 14.952 237.847 15.912C238.807 16.8507 239.5 17.896 239.927 19.048L236.023 20.872C235.554 19.6347 234.775 18.6427 233.687 17.896C232.599 17.128 231.33 16.744 229.879 16.744C228.407 16.744 227.095 17.096 225.943 17.8C224.791 18.4827 223.895 19.4533 223.255 20.712C222.636 21.9707 222.327 23.4213 222.327 25.064C222.327 26.7067 222.636 28.168 223.255 29.448C223.895 30.7067 224.791 31.688 225.943 32.392C227.095 33.0747 228.407 33.416 229.879 33.416C231.33 33.416 232.599 33.0427 233.687 32.296C234.775 31.528 235.554 30.5253 236.023 29.288L239.927 31.112C239.5 32.264 238.807 33.32 237.847 34.28C236.908 35.2187 235.756 35.976 234.391 36.552C233.026 37.1067 231.522 37.384 229.879 37.384ZM243.108 19.592H247.044V22.024C247.471 21.0853 248.079 20.4133 248.868 20.008C249.658 19.6027 250.618 19.4 251.748 19.4H252.772V23.112H251.268C250.074 23.112 249.114 23.4853 248.388 24.232C247.663 24.9787 247.3 26.0027 247.3 27.304V37H243.108V19.592ZM261.285 37.384C259.258 37.384 257.658 36.7333 256.485 35.432C255.312 34.1307 254.725 32.4027 254.725 30.248V19.592H258.917V29.896C258.917 30.984 259.237 31.8693 259.877 32.552C260.538 33.2133 261.392 33.544 262.437 33.544C263.482 33.544 264.325 33.2027 264.965 32.52C265.626 31.8373 265.957 30.9307 265.957 29.8V19.592H270.149V37H266.181V34.92C265.712 35.7307 265.05 36.3493 264.197 36.776C263.365 37.1813 262.394 37.384 261.285 37.384ZM274.046 19.592H277.982V21.768C278.43 20.936 279.07 20.3067 279.902 19.88C280.755 19.432 281.736 19.208 282.846 19.208C283.998 19.208 285.054 19.464 286.014 19.976C286.974 20.4667 287.71 21.1493 288.222 22.024C288.798 21.0853 289.544 20.3813 290.462 19.912C291.4 19.4427 292.456 19.208 293.63 19.208C294.846 19.208 295.944 19.4853 296.926 20.04C297.907 20.5947 298.675 21.3733 299.23 22.376C299.784 23.3787 300.062 24.52 300.062 25.8V37H295.87V26.792C295.87 25.64 295.56 24.7333 294.942 24.072C294.344 23.3893 293.534 23.048 292.51 23.048C291.507 23.048 290.696 23.3893 290.078 24.072C289.459 24.7547 289.15 25.6613 289.15 26.792V37H284.958V26.792C284.958 25.64 284.648 24.7333 284.03 24.072C283.432 23.3893 282.622 23.048 281.598 23.048C280.595 23.048 279.784 23.3893 279.166 24.072C278.547 24.7547 278.238 25.6613 278.238 26.792V37H274.046V19.592ZM313.112 37.384C311.982 37.384 310.926 37.1813 309.944 36.776C308.984 36.3707 308.184 35.7947 307.544 35.048V37H303.608V12.776H307.8V21.352C308.419 20.6693 309.187 20.1467 310.104 19.784C311.022 19.4 312.035 19.208 313.144 19.208C314.766 19.208 316.248 19.6133 317.592 20.424C318.936 21.2133 319.992 22.3013 320.76 23.688C321.528 25.0747 321.912 26.6107 321.912 28.296C321.912 29.9813 321.528 31.5173 320.76 32.904C319.992 34.2907 318.936 35.3893 317.592 36.2C316.27 36.9893 314.776 37.384 313.112 37.384ZM307.8 28.296C307.8 29.2987 308.003 30.2053 308.408 31.016C308.835 31.8053 309.411 32.424 310.136 32.872C310.883 33.32 311.715 33.544 312.632 33.544C314.062 33.544 315.235 33.0533 316.152 32.072C317.091 31.0693 317.56 29.8107 317.56 28.296C317.56 27.3147 317.347 26.4293 316.92 25.64C316.494 24.8293 315.907 24.2 315.16 23.752C314.414 23.2827 313.571 23.048 312.632 23.048C311.715 23.048 310.883 23.272 310.136 23.72C309.411 24.168 308.835 24.7973 308.408 25.608C308.003 26.3973 307.8 27.2933 307.8 28.296ZM331.636 37.352C329.887 37.352 328.34 36.936 326.996 36.104C325.674 35.272 324.735 34.1307 324.18 32.68L327.284 31.08C327.754 32.0187 328.372 32.7547 329.14 33.288C329.93 33.8 330.794 34.056 331.732 34.056C332.543 34.056 333.172 33.896 333.62 33.576C334.09 33.2347 334.324 32.776 334.324 32.2C334.324 31.7093 334.132 31.304 333.748 30.984C333.364 30.6427 332.863 30.4187 332.244 30.312L329.396 29.832C327.924 29.448 326.783 28.7973 325.972 27.88C325.183 26.9413 324.788 25.8427 324.788 24.584C324.788 23.5387 325.066 22.6107 325.62 21.8C326.175 20.968 326.943 20.328 327.924 19.88C328.927 19.432 330.058 19.208 331.316 19.208C332.916 19.208 334.324 19.592 335.54 20.36C336.756 21.1067 337.642 22.152 338.196 23.496L335.092 25.096C334.751 24.3493 334.228 23.752 333.524 23.304C332.82 22.856 332.042 22.632 331.188 22.632C330.484 22.632 329.919 22.792 329.492 23.112C329.087 23.432 328.884 23.848 328.884 24.36C328.884 25.2987 329.588 25.928 330.996 26.248L333.78 26.76C335.252 27.1653 336.394 27.8267 337.204 28.744C338.015 29.6613 338.42 30.7493 338.42 32.008C338.42 33.0533 338.132 33.9813 337.556 34.792C337.002 35.6027 336.212 36.232 335.188 36.68C334.164 37.128 332.98 37.352 331.636 37.352Z" fill="#131721"/>
<defs>
<clipPath id="clip0_114_942">
<rect width="48" height="48" fill="white"/>
</clipPath>
</defs>
</svg>
