<svg width="652" height="48" viewBox="0 0 652 48" fill="none" xmlns="http://www.w3.org/2000/svg">
<path d="M65.352 19.592H69.768L73.416 30.568L77.288 19.592H81L84.84 30.536L88.488 19.592H92.904L86.92 37H83.176L79.144 25.256L75.048 37H71.336L65.352 19.592ZM103.146 37.384C101.396 37.384 99.8388 36.9787 98.4735 36.168C97.1295 35.3573 96.0735 34.2587 95.3055 32.872C94.5588 31.4853 94.1855 29.9493 94.1855 28.264C94.1855 26.5573 94.5588 25.0213 95.3055 23.656C96.0735 22.2693 97.1082 21.1813 98.4095 20.392C99.7322 19.6027 101.204 19.208 102.826 19.208C104.575 19.208 106.09 19.592 107.37 20.36C108.65 21.1067 109.62 22.1307 110.282 23.432C110.964 24.7333 111.306 26.1627 111.306 27.72C111.306 28.4453 111.231 29.032 111.082 29.48H98.5375C98.6655 30.76 99.1562 31.784 100.01 32.552C100.863 33.32 101.919 33.704 103.178 33.704C104.116 33.704 104.916 33.512 105.578 33.128C106.26 32.7227 106.804 32.168 107.21 31.464L110.602 33.128C110.068 34.408 109.13 35.4427 107.786 36.232C106.442 37 104.895 37.384 103.146 37.384ZM106.826 26.28C106.719 25.2133 106.303 24.3493 105.578 23.688C104.852 23.0053 103.935 22.664 102.826 22.664C101.759 22.664 100.852 22.984 100.106 23.624C99.3588 24.2427 98.8682 25.128 98.6335 26.28H106.826ZM123.987 37.384C122.857 37.384 121.801 37.1813 120.819 36.776C119.859 36.3707 119.059 35.7947 118.419 35.048V37H114.483V12.776H118.675V21.352C119.294 20.6693 120.062 20.1467 120.979 19.784C121.897 19.4 122.91 19.208 124.019 19.208C125.641 19.208 127.123 19.6133 128.467 20.424C129.811 21.2133 130.867 22.3013 131.635 23.688C132.403 25.0747 132.787 26.6107 132.787 28.296C132.787 29.9813 132.403 31.5173 131.635 32.904C130.867 34.2907 129.811 35.3893 128.467 36.2C127.145 36.9893 125.651 37.384 123.987 37.384ZM118.675 28.296C118.675 29.2987 118.878 30.2053 119.283 31.016C119.71 31.8053 120.286 32.424 121.011 32.872C121.758 33.32 122.59 33.544 123.507 33.544C124.937 33.544 126.11 33.0533 127.027 32.072C127.966 31.0693 128.435 29.8107 128.435 28.296C128.435 27.3147 128.222 26.4293 127.795 25.64C127.369 24.8293 126.782 24.2 126.035 23.752C125.289 23.2827 124.446 23.048 123.507 23.048C122.59 23.048 121.758 23.272 121.011 23.72C120.286 24.168 119.71 24.7973 119.283 25.608C118.878 26.3973 118.675 27.2933 118.675 28.296ZM144.367 37.384C142.661 37.384 141.103 36.9893 139.695 36.2C138.309 35.3893 137.221 34.2907 136.431 32.904C135.642 31.5173 135.247 29.9707 135.247 28.264C135.247 26.5573 135.642 25.0213 136.431 23.656C137.221 22.2693 138.309 21.1813 139.695 20.392C141.082 19.6027 142.639 19.208 144.367 19.208C146.223 19.208 147.877 19.688 149.327 20.648C150.778 21.5867 151.77 22.824 152.303 24.36L148.655 25.96C148.314 25.064 147.759 24.36 146.991 23.848C146.223 23.3147 145.349 23.048 144.367 23.048C143.471 23.048 142.661 23.272 141.935 23.72C141.21 24.168 140.634 24.7973 140.207 25.608C139.802 26.3973 139.599 27.2933 139.599 28.296C139.599 29.2987 139.802 30.2053 140.207 31.016C140.634 31.8053 141.21 32.424 141.935 32.872C142.661 33.32 143.471 33.544 144.367 33.544C145.37 33.544 146.245 33.288 146.991 32.776C147.759 32.2427 148.314 31.5173 148.655 30.6L152.303 32.264C151.791 33.7787 150.799 35.016 149.327 35.976C147.877 36.9147 146.223 37.384 144.367 37.384ZM155.452 19.592H159.388V22.024C159.815 21.0853 160.423 20.4133 161.212 20.008C162.001 19.6027 162.961 19.4 164.092 19.4H165.116V23.112H163.612C162.417 23.112 161.457 23.4853 160.732 24.232C160.007 24.9787 159.644 26.0027 159.644 27.304V37H155.452V19.592ZM173.629 37.384C171.602 37.384 170.002 36.7333 168.829 35.432C167.655 34.1307 167.069 32.4027 167.069 30.248V19.592H171.261V29.896C171.261 30.984 171.581 31.8693 172.221 32.552C172.882 33.2133 173.735 33.544 174.781 33.544C175.826 33.544 176.669 33.2027 177.309 32.52C177.97 31.8373 178.301 30.9307 178.301 29.8V19.592H182.493V37H178.525V34.92C178.055 35.7307 177.394 36.3493 176.541 36.776C175.709 37.1813 174.738 37.384 173.629 37.384ZM186.39 19.592H190.326V21.768C190.774 20.936 191.414 20.3067 192.246 19.88C193.099 19.432 194.08 19.208 195.19 19.208C196.342 19.208 197.398 19.464 198.358 19.976C199.318 20.4667 200.054 21.1493 200.566 22.024C201.142 21.0853 201.888 20.3813 202.806 19.912C203.744 19.4427 204.8 19.208 205.974 19.208C207.19 19.208 208.288 19.4853 209.27 20.04C210.251 20.5947 211.019 21.3733 211.574 22.376C212.128 23.3787 212.406 24.52 212.406 25.8V37H208.214V26.792C208.214 25.64 207.904 24.7333 207.286 24.072C206.688 23.3893 205.878 23.048 204.854 23.048C203.851 23.048 203.04 23.3893 202.422 24.072C201.803 24.7547 201.494 25.6613 201.494 26.792V37H197.302V26.792C197.302 25.64 196.992 24.7333 196.374 24.072C195.776 23.3893 194.966 23.048 193.942 23.048C192.939 23.048 192.128 23.3893 191.51 24.072C190.891 24.7547 190.582 25.6613 190.582 26.792V37H186.39V19.592ZM225.456 37.384C224.325 37.384 223.269 37.1813 222.288 36.776C221.328 36.3707 220.528 35.7947 219.888 35.048V37H215.952V12.776H220.144V21.352C220.763 20.6693 221.531 20.1467 222.448 19.784C223.365 19.4 224.379 19.208 225.488 19.208C227.109 19.208 228.592 19.6133 229.936 20.424C231.28 21.2133 232.336 22.3013 233.104 23.688C233.872 25.0747 234.256 26.6107 234.256 28.296C234.256 29.9813 233.872 31.5173 233.104 32.904C232.336 34.2907 231.28 35.3893 229.936 36.2C228.613 36.9893 227.12 37.384 225.456 37.384ZM220.144 28.296C220.144 29.2987 220.347 30.2053 220.752 31.016C221.179 31.8053 221.755 32.424 222.48 32.872C223.227 33.32 224.059 33.544 224.976 33.544C226.405 33.544 227.579 33.0533 228.496 32.072C229.435 31.0693 229.904 29.8107 229.904 28.296C229.904 27.3147 229.691 26.4293 229.264 25.64C228.837 24.8293 228.251 24.2 227.504 23.752C226.757 23.2827 225.915 23.048 224.976 23.048C224.059 23.048 223.227 23.272 222.48 23.72C221.755 24.168 221.179 24.7973 220.752 25.608C220.347 26.3973 220.144 27.2933 220.144 28.296ZM243.98 37.352C242.231 37.352 240.684 36.936 239.34 36.104C238.017 35.272 237.079 34.1307 236.524 32.68L239.628 31.08C240.097 32.0187 240.716 32.7547 241.484 33.288C242.273 33.8 243.137 34.056 244.076 34.056C244.887 34.056 245.516 33.896 245.964 33.576C246.433 33.2347 246.668 32.776 246.668 32.2C246.668 31.7093 246.476 31.304 246.092 30.984C245.708 30.6427 245.207 30.4187 244.588 30.312L241.74 29.832C240.268 29.448 239.127 28.7973 238.316 27.88C237.527 26.9413 237.132 25.8427 237.132 24.584C237.132 23.5387 237.409 22.6107 237.964 21.8C238.519 20.968 239.287 20.328 240.268 19.88C241.271 19.432 242.401 19.208 243.66 19.208C245.26 19.208 246.668 19.592 247.884 20.36C249.1 21.1067 249.985 22.152 250.54 23.496L247.436 25.096C247.095 24.3493 246.572 23.752 245.868 23.304C245.164 22.856 244.385 22.632 243.532 22.632C242.828 22.632 242.263 22.792 241.836 23.112C241.431 23.432 241.228 23.848 241.228 24.36C241.228 25.2987 241.932 25.928 243.34 26.248L246.124 26.76C247.596 27.1653 248.737 27.8267 249.548 28.744C250.359 29.6613 250.764 30.7493 250.764 32.008C250.764 33.0533 250.476 33.9813 249.9 34.792C249.345 35.6027 248.556 36.232 247.532 36.68C246.508 37.128 245.324 37.352 243.98 37.352ZM254.754 26.472H268.354V30.152H254.754V26.472ZM281.461 37.384C279.754 37.384 278.197 36.9893 276.789 36.2C275.402 35.3893 274.314 34.2907 273.525 32.904C272.736 31.5173 272.341 29.9707 272.341 28.264C272.341 26.5573 272.736 25.0213 273.525 23.656C274.314 22.2693 275.402 21.1813 276.789 20.392C278.176 19.6027 279.733 19.208 281.461 19.208C283.317 19.208 284.97 19.688 286.421 20.648C287.872 21.5867 288.864 22.824 289.397 24.36L285.749 25.96C285.408 25.064 284.853 24.36 284.085 23.848C283.317 23.3147 282.442 23.048 281.461 23.048C280.565 23.048 279.754 23.272 279.029 23.72C278.304 24.168 277.728 24.7973 277.301 25.608C276.896 26.3973 276.693 27.2933 276.693 28.296C276.693 29.2987 276.896 30.2053 277.301 31.016C277.728 31.8053 278.304 32.424 279.029 32.872C279.754 33.32 280.565 33.544 281.461 33.544C282.464 33.544 283.338 33.288 284.085 32.776C284.853 32.2427 285.408 31.5173 285.749 30.6L289.397 32.264C288.885 33.7787 287.893 35.016 286.421 35.976C284.97 36.9147 283.317 37.384 281.461 37.384ZM301.058 37.384C299.372 37.384 297.826 36.9893 296.418 36.2C295.01 35.4107 293.89 34.3227 293.058 32.936C292.247 31.5493 291.842 30.0027 291.842 28.296C291.842 26.5893 292.247 25.0427 293.058 23.656C293.868 22.2693 294.978 21.1813 296.386 20.392C297.794 19.6027 299.351 19.208 301.058 19.208C302.743 19.208 304.279 19.6027 305.666 20.392C307.074 21.1813 308.183 22.2693 308.994 23.656C309.826 25.0427 310.242 26.5893 310.242 28.296C310.242 30.024 309.826 31.5813 308.994 32.968C308.183 34.3547 307.074 35.4427 305.666 36.232C304.258 37 302.722 37.384 301.058 37.384ZM296.194 28.296C296.194 29.8107 296.642 31.0693 297.538 32.072C298.455 33.0533 299.628 33.544 301.058 33.544C301.975 33.544 302.796 33.32 303.522 32.872C304.247 32.424 304.812 31.8053 305.218 31.016C305.644 30.2053 305.858 29.2987 305.858 28.296C305.858 27.3147 305.644 26.4293 305.218 25.64C304.812 24.8293 304.247 24.2 303.522 23.752C302.796 23.2827 301.975 23.048 301.058 23.048C300.119 23.048 299.276 23.2827 298.53 23.752C297.804 24.2 297.228 24.8187 296.802 25.608C296.396 26.3973 296.194 27.2933 296.194 28.296ZM313.421 19.592H317.357V21.768C317.805 20.936 318.445 20.3067 319.277 19.88C320.13 19.432 321.111 19.208 322.221 19.208C323.373 19.208 324.429 19.464 325.389 19.976C326.349 20.4667 327.085 21.1493 327.597 22.024C328.173 21.0853 328.919 20.3813 329.837 19.912C330.775 19.4427 331.831 19.208 333.005 19.208C334.221 19.208 335.319 19.4853 336.301 20.04C337.282 20.5947 338.05 21.3733 338.605 22.376C339.159 23.3787 339.437 24.52 339.437 25.8V37H335.245V26.792C335.245 25.64 334.935 24.7333 334.317 24.072C333.719 23.3893 332.909 23.048 331.885 23.048C330.882 23.048 330.071 23.3893 329.453 24.072C328.834 24.7547 328.525 25.6613 328.525 26.792V37H324.333V26.792C324.333 25.64 324.023 24.7333 323.405 24.072C322.807 23.3893 321.997 23.048 320.973 23.048C319.97 23.048 319.159 23.3893 318.541 24.072C317.922 24.7547 317.613 25.6613 317.613 26.792V37H313.421V19.592ZM342.983 19.592H346.919V21.768C347.367 20.936 348.007 20.3067 348.839 19.88C349.693 19.432 350.674 19.208 351.783 19.208C352.935 19.208 353.991 19.464 354.951 19.976C355.911 20.4667 356.647 21.1493 357.159 22.024C357.735 21.0853 358.482 20.3813 359.399 19.912C360.338 19.4427 361.394 19.208 362.567 19.208C363.783 19.208 364.882 19.4853 365.863 20.04C366.845 20.5947 367.613 21.3733 368.167 22.376C368.722 23.3787 368.999 24.52 368.999 25.8V37H364.807V26.792C364.807 25.64 364.498 24.7333 363.879 24.072C363.282 23.3893 362.471 23.048 361.447 23.048C360.445 23.048 359.634 23.3893 359.015 24.072C358.397 24.7547 358.087 25.6613 358.087 26.792V37H353.895V26.792C353.895 25.64 353.586 24.7333 352.967 24.072C352.37 23.3893 351.559 23.048 350.535 23.048C349.533 23.048 348.722 23.3893 348.103 24.072C347.485 24.7547 347.175 25.6613 347.175 26.792V37H342.983V19.592ZM378.754 37.384C376.727 37.384 375.127 36.7333 373.954 35.432C372.78 34.1307 372.194 32.4027 372.194 30.248V19.592H376.386V29.896C376.386 30.984 376.706 31.8693 377.346 32.552C378.007 33.2133 378.86 33.544 379.906 33.544C380.951 33.544 381.794 33.2027 382.434 32.52C383.095 31.8373 383.426 30.9307 383.426 29.8V19.592H387.618V37H383.65V34.92C383.18 35.7307 382.519 36.3493 381.666 36.776C380.834 37.1813 379.863 37.384 378.754 37.384ZM391.515 19.592H395.451V21.736C395.899 20.9253 396.549 20.3067 397.403 19.88C398.277 19.432 399.269 19.208 400.379 19.208C401.637 19.208 402.768 19.4853 403.771 20.04C404.773 20.5947 405.552 21.3733 406.107 22.376C406.661 23.3787 406.939 24.52 406.939 25.8V37H402.747V26.792C402.747 25.6613 402.416 24.7547 401.755 24.072C401.115 23.3893 400.272 23.048 399.227 23.048C398.181 23.048 397.328 23.3893 396.667 24.072C396.027 24.7547 395.707 25.6613 395.707 26.792V37H391.515V19.592ZM410.483 19.592H414.675V37H410.483V19.592ZM410.163 14.792C410.163 14.024 410.377 13.4267 410.803 13C411.23 12.5733 411.817 12.36 412.563 12.36C413.331 12.36 413.929 12.5733 414.355 13C414.782 13.4267 414.995 14.024 414.995 14.792C414.995 15.5387 414.782 16.1253 414.355 16.552C413.95 16.9787 413.353 17.192 412.563 17.192C411.817 17.192 411.23 16.9787 410.803 16.552C410.377 16.1253 410.163 15.5387 410.163 14.792ZM426.482 37.192C424.519 37.192 422.994 36.6587 421.906 35.592C420.839 34.504 420.306 32.9787 420.306 31.016V23.336H417.298V19.592H417.618C418.471 19.592 419.132 19.368 419.602 18.92C420.071 18.472 420.306 17.8213 420.306 16.968V15.624H424.498V19.592H428.498V23.336H424.498V30.792C424.498 32.6053 425.479 33.512 427.442 33.512C427.783 33.512 428.156 33.48 428.562 33.416V37.032C427.879 37.1387 427.186 37.192 426.482 37.192ZM436.949 36.744L430.165 19.592H434.677L439.189 31.592L443.669 19.592H448.213L438.805 43.4H434.293L436.949 36.744ZM459.699 11.88H464.275L453.651 38.28H449.075L459.699 11.88ZM465.102 19.592H469.518L473.166 30.568L477.038 19.592H480.75L484.59 30.536L488.238 19.592H492.654L486.67 37H482.926L478.894 25.256L474.798 37H471.086L465.102 19.592ZM502.896 37.384C501.146 37.384 499.589 36.9787 498.224 36.168C496.88 35.3573 495.824 34.2587 495.056 32.872C494.309 31.4853 493.936 29.9493 493.936 28.264C493.936 26.5573 494.309 25.0213 495.056 23.656C495.824 22.2693 496.858 21.1813 498.16 20.392C499.482 19.6027 500.954 19.208 502.576 19.208C504.325 19.208 505.84 19.592 507.12 20.36C508.4 21.1067 509.37 22.1307 510.032 23.432C510.714 24.7333 511.056 26.1627 511.056 27.72C511.056 28.4453 510.981 29.032 510.832 29.48H498.288C498.416 30.76 498.906 31.784 499.76 32.552C500.613 33.32 501.669 33.704 502.928 33.704C503.866 33.704 504.666 33.512 505.328 33.128C506.01 32.7227 506.554 32.168 506.96 31.464L510.352 33.128C509.818 34.408 508.88 35.4427 507.536 36.232C506.192 37 504.645 37.384 502.896 37.384ZM506.576 26.28C506.469 25.2133 506.053 24.3493 505.328 23.688C504.602 23.0053 503.685 22.664 502.576 22.664C501.509 22.664 500.602 22.984 499.856 23.624C499.109 24.2427 498.618 25.128 498.384 26.28H506.576ZM523.737 37.384C522.607 37.384 521.551 37.1813 520.569 36.776C519.609 36.3707 518.809 35.7947 518.169 35.048V37H514.233V12.776H518.425V21.352C519.044 20.6693 519.812 20.1467 520.729 19.784C521.647 19.4 522.66 19.208 523.769 19.208C525.391 19.208 526.873 19.6133 528.217 20.424C529.561 21.2133 530.617 22.3013 531.385 23.688C532.153 25.0747 532.537 26.6107 532.537 28.296C532.537 29.9813 532.153 31.5173 531.385 32.904C530.617 34.2907 529.561 35.3893 528.217 36.2C526.895 36.9893 525.401 37.384 523.737 37.384ZM518.425 28.296C518.425 29.2987 518.628 30.2053 519.033 31.016C519.46 31.8053 520.036 32.424 520.761 32.872C521.508 33.32 522.34 33.544 523.257 33.544C524.687 33.544 525.86 33.0533 526.777 32.072C527.716 31.0693 528.185 29.8107 528.185 28.296C528.185 27.3147 527.972 26.4293 527.545 25.64C527.119 24.8293 526.532 24.2 525.785 23.752C525.039 23.2827 524.196 23.048 523.257 23.048C522.34 23.048 521.508 23.272 520.761 23.72C520.036 24.168 519.46 24.7973 519.033 25.608C518.628 26.3973 518.425 27.2933 518.425 28.296ZM544.117 37.384C542.411 37.384 540.853 36.9893 539.445 36.2C538.059 35.3893 536.971 34.2907 536.181 32.904C535.392 31.5173 534.997 29.9707 534.997 28.264C534.997 26.5573 535.392 25.0213 536.181 23.656C536.971 22.2693 538.059 21.1813 539.445 20.392C540.832 19.6027 542.389 19.208 544.117 19.208C545.973 19.208 547.627 19.688 549.077 20.648C550.528 21.5867 551.52 22.824 552.053 24.36L548.405 25.96C548.064 25.064 547.509 24.36 546.741 23.848C545.973 23.3147 545.099 23.048 544.117 23.048C543.221 23.048 542.411 23.272 541.685 23.72C540.96 24.168 540.384 24.7973 539.957 25.608C539.552 26.3973 539.349 27.2933 539.349 28.296C539.349 29.2987 539.552 30.2053 539.957 31.016C540.384 31.8053 540.96 32.424 541.685 32.872C542.411 33.32 543.221 33.544 544.117 33.544C545.12 33.544 545.995 33.288 546.741 32.776C547.509 32.2427 548.064 31.5173 548.405 30.6L552.053 32.264C551.541 33.7787 550.549 35.016 549.077 35.976C547.627 36.9147 545.973 37.384 544.117 37.384ZM555.202 19.592H559.138V22.024C559.565 21.0853 560.173 20.4133 560.962 20.008C561.751 19.6027 562.711 19.4 563.842 19.4H564.866V23.112H563.362C562.167 23.112 561.207 23.4853 560.482 24.232C559.757 24.9787 559.394 26.0027 559.394 27.304V37H555.202V19.592ZM573.379 37.384C571.352 37.384 569.752 36.7333 568.579 35.432C567.405 34.1307 566.819 32.4027 566.819 30.248V19.592H571.011V29.896C571.011 30.984 571.331 31.8693 571.971 32.552C572.632 33.2133 573.485 33.544 574.531 33.544C575.576 33.544 576.419 33.2027 577.059 32.52C577.72 31.8373 578.051 30.9307 578.051 29.8V19.592H582.243V37H578.275V34.92C577.805 35.7307 577.144 36.3493 576.291 36.776C575.459 37.1813 574.488 37.384 573.379 37.384ZM586.14 19.592H590.076V21.768C590.524 20.936 591.164 20.3067 591.996 19.88C592.849 19.432 593.83 19.208 594.94 19.208C596.092 19.208 597.148 19.464 598.108 19.976C599.068 20.4667 599.804 21.1493 600.316 22.024C600.892 21.0853 601.638 20.3813 602.556 19.912C603.494 19.4427 604.55 19.208 605.724 19.208C606.94 19.208 608.038 19.4853 609.02 20.04C610.001 20.5947 610.769 21.3733 611.324 22.376C611.878 23.3787 612.156 24.52 612.156 25.8V37H607.964V26.792C607.964 25.64 607.654 24.7333 607.036 24.072C606.438 23.3893 605.628 23.048 604.604 23.048C603.601 23.048 602.79 23.3893 602.172 24.072C601.553 24.7547 601.244 25.6613 601.244 26.792V37H597.052V26.792C597.052 25.64 596.742 24.7333 596.124 24.072C595.526 23.3893 594.716 23.048 593.692 23.048C592.689 23.048 591.878 23.3893 591.26 24.072C590.641 24.7547 590.332 25.6613 590.332 26.792V37H586.14V19.592ZM625.206 37.384C624.075 37.384 623.019 37.1813 622.038 36.776C621.078 36.3707 620.278 35.7947 619.638 35.048V37H615.702V12.776H619.894V21.352C620.513 20.6693 621.281 20.1467 622.198 19.784C623.115 19.4 624.129 19.208 625.238 19.208C626.859 19.208 628.342 19.6133 629.686 20.424C631.03 21.2133 632.086 22.3013 632.854 23.688C633.622 25.0747 634.006 26.6107 634.006 28.296C634.006 29.9813 633.622 31.5173 632.854 32.904C632.086 34.2907 631.03 35.3893 629.686 36.2C628.363 36.9893 626.87 37.384 625.206 37.384ZM619.894 28.296C619.894 29.2987 620.097 30.2053 620.502 31.016C620.929 31.8053 621.505 32.424 622.23 32.872C622.977 33.32 623.809 33.544 624.726 33.544C626.155 33.544 627.329 33.0533 628.246 32.072C629.185 31.0693 629.654 29.8107 629.654 28.296C629.654 27.3147 629.441 26.4293 629.014 25.64C628.587 24.8293 628.001 24.2 627.254 23.752C626.507 23.2827 625.665 23.048 624.726 23.048C623.809 23.048 622.977 23.272 622.23 23.72C621.505 24.168 620.929 24.7973 620.502 25.608C620.097 26.3973 619.894 27.2933 619.894 28.296ZM643.73 37.352C641.981 37.352 640.434 36.936 639.09 36.104C637.767 35.272 636.829 34.1307 636.274 32.68L639.378 31.08C639.847 32.0187 640.466 32.7547 641.234 33.288C642.023 33.8 642.887 34.056 643.826 34.056C644.637 34.056 645.266 33.896 645.714 33.576C646.183 33.2347 646.418 32.776 646.418 32.2C646.418 31.7093 646.226 31.304 645.842 30.984C645.458 30.6427 644.957 30.4187 644.338 30.312L641.49 29.832C640.018 29.448 638.877 28.7973 638.066 27.88C637.277 26.9413 636.882 25.8427 636.882 24.584C636.882 23.5387 637.159 22.6107 637.714 21.8C638.269 20.968 639.037 20.328 640.018 19.88C641.021 19.432 642.151 19.208 643.41 19.208C645.01 19.208 646.418 19.592 647.634 20.36C648.85 21.1067 649.735 22.152 650.29 23.496L647.186 25.096C646.845 24.3493 646.322 23.752 645.618 23.304C644.914 22.856 644.135 22.632 643.282 22.632C642.578 22.632 642.013 22.792 641.586 23.112C641.181 23.432 640.978 23.848 640.978 24.36C640.978 25.2987 641.682 25.928 643.09 26.248L645.874 26.76C647.346 27.1653 648.487 27.8267 649.298 28.744C650.109 29.6613 650.514 30.7493 650.514 32.008C650.514 33.0533 650.226 33.9813 649.65 34.792C649.095 35.6027 648.306 36.232 647.282 36.68C646.258 37.128 645.074 37.352 643.73 37.352Z" fill="#131721"/>
<g clip-path="url(#clip0_115_943)">
<path d="M24 1C10.74 1 0 11.56 0 24.584C0 35.006 6.876 43.844 16.41 46.96C17.61 47.182 18.05 46.452 18.05 45.826C18.05 45.266 18.03 43.782 18.02 41.816C11.344 43.238 9.936 38.652 9.936 38.652C8.844 35.93 7.266 35.202 7.266 35.202C5.092 33.74 7.434 33.77 7.434 33.77C9.844 33.934 11.11 36.2 11.11 36.2C13.25 39.806 16.728 38.764 18.1 38.162C18.316 36.636 18.934 35.598 19.62 35.008C14.29 34.418 8.688 32.39 8.688 23.354C8.688 20.78 9.618 18.676 11.158 17.026C10.888 16.43 10.078 14.032 11.368 10.784C11.368 10.784 13.378 10.152 17.968 13.202C19.888 12.678 21.928 12.418 23.968 12.406C26.008 12.418 28.048 12.678 29.968 13.202C34.528 10.152 36.538 10.784 36.538 10.784C37.828 14.032 37.018 16.43 36.778 17.026C38.308 18.676 39.238 20.78 39.238 23.354C39.238 32.414 33.628 34.408 28.288 34.988C29.128 35.696 29.908 37.142 29.908 39.352C29.908 42.508 29.878 45.044 29.878 45.81C29.878 46.428 30.298 47.166 31.528 46.93C41.13 43.834 48 34.99 48 24.584C48 11.56 37.254 1 24 1Z" fill="black"/>
</g>
<defs>
<clipPath id="clip0_115_943">
<rect width="48" height="48" fill="white"/>
</clipPath>
</defs>
</svg>
