<?xml version="1.0" encoding="UTF-8"?><svg id="Camada_2" xmlns="http://www.w3.org/2000/svg" viewBox="0 0 923 923"><defs><style>.cls-1{fill:#fff;}.cls-2{fill:#1601ff;}</style></defs><g id="Camada_1-2"><rect class="cls-2" width="923" height="923"/><g><path class="cls-1" d="M412.32,732.03c-117.75,.19-228.69-99.15-249.59-225.48-24.05-145.33,71.19-282.89,216.4-310.64,66.42-12.7,128.88-.54,187.68,32.72,19.96,11.29,22.18,34.91,7.78,49.58-18.68,19.03-26.82,42.37-24.94,69.17,1.97,28.08,15.05,49.88,37.08,66.71,3.43,2.62,7.23,4.75,10.89,7.05,20,12.6,20.05,38.58-.25,50.91-12.14,7.36-22.91,16.03-31.17,27.62-27.74,38.9-20.88,91.69,15.89,122.28,2.81,2.34,5.67,4.7,8.79,6.58,16.97,10.25,18.81,36.75,.3,49.82-16.65,11.76-33.83,22.5-52.48,30.72-34.88,15.37-71.39,23.16-126.39,22.97Zm18.73-405.1c.26-19.66-16.13-36.52-35.86-36.86-19.49-.34-36.56,16.27-36.87,35.88-.31,19.43,16.39,36.63,35.9,36.96,19.43,.34,36.57-16.41,36.83-35.98Zm-138.56,60.98c-19.79,.07-36.43,16.76-36.22,36.35,.2,19.47,17.39,36.39,36.74,36.16,19.62-.24,36.19-17.1,36.06-36.68-.14-19.84-16.53-35.89-36.57-35.82Zm33.99,205.08c19.56,.18,36.45-16.5,36.58-36.13,.14-19.72-16.33-36.46-36.03-36.64-19.53-.18-36.51,16.52-36.71,36.1-.2,19.38,16.68,36.49,36.17,36.67Zm160.94,28.06c1.18-15.91-11.9-35.8-35.84-36.46-19.51-.54-36.14,16.56-36.26,36.33-.12,19.77,16.26,36.2,36.16,36.26,20.08,.06,35.96-15.91,35.93-36.13Zm-51.37-191.15c-20.14-.04-36.12,15.86-36.18,35.99-.06,19.81,16.44,36.49,36.09,36.49,19.58,0,36.36-16.78,36.38-36.39,.02-19.9-16.21-36.05-36.29-36.09Z"/><path class="cls-1" d="M724.18,546.46c-.15,22.88-17.8,39.92-41.04,39.61-21.56-.29-39.76-17.97-39.41-39.55,.39-24.15,17.37-40.17,40.37-40.96,22.15-.76,40.23,18.19,40.08,40.9Z"/><path class="cls-1" d="M781.34,478.07c-19.08-.11-34.38-15.57-34.11-34.45,.27-18.94,16.18-34.61,34.66-34.14,19.24,.49,34.3,15.83,34.09,34.7-.22,19.12-15.42,34-34.63,33.89Z"/><path class="cls-1" d="M678.18,376.46c-19.26,.09-34.55-14.82-34.63-33.79-.08-18.92,15.15-34.05,34.35-34.11,19.53-.06,34.35,14.54,34.32,33.82-.03,19.53-14.46,33.98-34.03,34.08Z"/></g></g></svg>