<svg width="173" height="40" viewBox="0 0 173 40" fill="none" xmlns="http://www.w3.org/2000/svg">
<g clip-path="url(#clip0_464_1005)">
<path d="M153 1H20C9.50659 1 1 9.50659 1 20C1 30.4934 9.50659 39 20 39H153C163.493 39 172 30.4934 172 20C172 9.50659 163.493 1 153 1Z" stroke="#EBEAED" stroke-width="2"/>
<path d="M24.1679 25.1925C23.3466 25.1925 22.6266 25.0485 22.0079 24.7605C21.3893 24.4725 20.9039 24.0618 20.5519 23.5285C20.2106 22.9952 20.0346 22.3605 20.0239 21.6245H21.8159C21.8266 22.2218 22.0346 22.7285 22.4399 23.1445C22.8453 23.5605 23.4159 23.7685 24.1519 23.7685C24.8026 23.7685 25.3093 23.6138 25.6719 23.3045C26.0453 22.9845 26.2319 22.5792 26.2319 22.0885C26.2319 21.6938 26.1413 21.3738 25.9599 21.1285C25.7893 20.8832 25.5493 20.6805 25.2399 20.5205C24.9413 20.3605 24.5946 20.2165 24.1999 20.0885C23.8053 19.9605 23.3893 19.8218 22.9519 19.6725C22.0879 19.3845 21.4373 19.0112 20.9999 18.5525C20.5733 18.0938 20.3599 17.4912 20.3599 16.7445C20.3493 16.1152 20.4933 15.5658 20.7919 15.0965C21.1013 14.6272 21.5279 14.2645 22.0719 14.0085C22.6266 13.7418 23.2719 13.6085 24.0079 13.6085C24.7333 13.6085 25.3679 13.7418 25.9119 14.0085C26.4666 14.2752 26.8986 14.6485 27.2079 15.1285C27.5173 15.5978 27.6773 16.1472 27.6879 16.7765H25.8959C25.8959 16.4885 25.8213 16.2165 25.6719 15.9605C25.5226 15.6938 25.3039 15.4752 25.0159 15.3045C24.7279 15.1338 24.3759 15.0485 23.9599 15.0485C23.4266 15.0378 22.9839 15.1712 22.6319 15.4485C22.2906 15.7258 22.1199 16.1098 22.1199 16.6005C22.1199 17.0378 22.2479 17.3738 22.5039 17.6085C22.7599 17.8432 23.1119 18.0405 23.5599 18.2005C24.0079 18.3498 24.5199 18.5258 25.0959 18.7285C25.6506 18.9098 26.1466 19.1285 26.5839 19.3845C27.0213 19.6405 27.3679 19.9765 27.6239 20.3925C27.8906 20.8085 28.0239 21.3365 28.0239 21.9765C28.0239 22.5418 27.8799 23.0698 27.5919 23.5605C27.3039 24.0405 26.8719 24.4352 26.2959 24.7445C25.7199 25.0432 25.0106 25.1925 24.1679 25.1925ZM33.5262 25.1925C32.7475 25.1925 32.0542 25.0218 31.4462 24.6805C30.8489 24.3285 30.3795 23.8432 30.0382 23.2245C29.6969 22.6058 29.5262 21.8858 29.5262 21.0645C29.5262 20.2325 29.6915 19.5018 30.0222 18.8725C30.3635 18.2432 30.8329 17.7525 31.4302 17.4005C32.0382 17.0485 32.7422 16.8725 33.5422 16.8725C34.3209 16.8725 34.9982 17.0485 35.5742 17.4005C36.1502 17.7418 36.5982 18.2005 36.9182 18.7765C37.2382 19.3525 37.3982 19.9872 37.3982 20.6805C37.3982 20.7872 37.3929 20.9045 37.3822 21.0325C37.3822 21.1498 37.3769 21.2832 37.3662 21.4325H31.1902C31.2435 22.2005 31.4942 22.7872 31.9422 23.1925C32.4009 23.5872 32.9289 23.7845 33.5262 23.7845C34.0062 23.7845 34.4062 23.6778 34.7262 23.4645C35.0569 23.2405 35.3022 22.9418 35.4622 22.5685H37.1582C36.9449 23.3152 36.5182 23.9392 35.8782 24.4405C35.2489 24.9418 34.4649 25.1925 33.5262 25.1925ZM33.5262 18.2645C32.9609 18.2645 32.4595 18.4352 32.0222 18.7765C31.5849 19.1072 31.3182 19.6085 31.2222 20.2805H35.7022C35.6702 19.6618 35.4515 19.1712 35.0462 18.8085C34.6409 18.4458 34.1342 18.2645 33.5262 18.2645ZM39.1579 25.0005V17.0645H40.6619L40.7899 18.4565C41.0353 17.9658 41.3926 17.5818 41.8619 17.3045C42.3419 17.0165 42.8913 16.8725 43.5099 16.8725C44.4699 16.8725 45.2219 17.1712 45.7659 17.7685C46.3206 18.3658 46.5979 19.2565 46.5979 20.4405V25.0005H44.9179V20.6165C44.9179 19.0805 44.2886 18.3125 43.0299 18.3125C42.4006 18.3125 41.8779 18.5365 41.4619 18.9845C41.0566 19.4325 40.8539 20.0725 40.8539 20.9045V25.0005H39.1579ZM52.2114 25.1925C51.4434 25.1925 50.7661 25.0112 50.1794 24.6485C49.5928 24.2858 49.1341 23.7898 48.8034 23.1605C48.4728 22.5312 48.3074 21.8165 48.3074 21.0165C48.3074 20.2165 48.4728 19.5072 48.8034 18.8885C49.1341 18.2592 49.5928 17.7685 50.1794 17.4165C50.7768 17.0538 51.4594 16.8725 52.2274 16.8725C52.8568 16.8725 53.4061 16.9952 53.8754 17.2405C54.3554 17.4858 54.7288 17.8325 54.9954 18.2805V13.4805H56.6914V25.0005H55.1714L54.9954 23.7685C54.7394 24.1418 54.3874 24.4725 53.9394 24.7605C53.4914 25.0485 52.9154 25.1925 52.2114 25.1925ZM52.5154 23.7205C53.2408 23.7205 53.8328 23.4698 54.2914 22.9685C54.7608 22.4672 54.9954 21.8218 54.9954 21.0325C54.9954 20.2325 54.7608 19.5872 54.2914 19.0965C53.8328 18.5952 53.2408 18.3445 52.5154 18.3445C51.7901 18.3445 51.1928 18.5952 50.7234 19.0965C50.2541 19.5872 50.0194 20.2325 50.0194 21.0325C50.0194 21.5552 50.1261 22.0192 50.3394 22.4245C50.5528 22.8298 50.8461 23.1498 51.2194 23.3845C51.6034 23.6085 52.0354 23.7205 52.5154 23.7205ZM66.5731 25.1925C65.8157 25.1925 65.1331 25.0218 64.5251 24.6805C63.9277 24.3285 63.4531 23.8432 63.1011 23.2245C62.7491 22.5952 62.5731 21.8645 62.5731 21.0325C62.5731 20.2005 62.7491 19.4752 63.1011 18.8565C63.4637 18.2272 63.9491 17.7418 64.5571 17.4005C65.1651 17.0485 65.8424 16.8725 66.5891 16.8725C67.3464 16.8725 68.0237 17.0485 68.6211 17.4005C69.2291 17.7418 69.7091 18.2272 70.0611 18.8565C70.4237 19.4752 70.6051 20.2005 70.6051 21.0325C70.6051 21.8645 70.4237 22.5952 70.0611 23.2245C69.7091 23.8432 69.2291 24.3285 68.6211 24.6805C68.0131 25.0218 67.3304 25.1925 66.5731 25.1925ZM66.5731 23.7365C66.9784 23.7365 67.3517 23.6352 67.6931 23.4325C68.0451 23.2298 68.3277 22.9312 68.5411 22.5365C68.7544 22.1312 68.8611 21.6298 68.8611 21.0325C68.8611 20.4352 68.7544 19.9392 68.5411 19.5445C68.3384 19.1392 68.0611 18.8352 67.7091 18.6325C67.3677 18.4298 66.9944 18.3285 66.5891 18.3285C66.1837 18.3285 65.8051 18.4298 65.4531 18.6325C65.1117 18.8352 64.8344 19.1392 64.6211 19.5445C64.4077 19.9392 64.3011 20.4352 64.3011 21.0325C64.3011 21.6298 64.4077 22.1312 64.6211 22.5365C64.8344 22.9312 65.1117 23.2298 65.4531 23.4325C65.7944 23.6352 66.1677 23.7365 66.5731 23.7365ZM72.4392 25.0005V17.0645H73.9432L74.0712 18.4565C74.3165 17.9658 74.6739 17.5818 75.1432 17.3045C75.6232 17.0165 76.1725 16.8725 76.7912 16.8725C77.7512 16.8725 78.5032 17.1712 79.0472 17.7685C79.6019 18.3658 79.8792 19.2565 79.8792 20.4405V25.0005H78.1992V20.6165C78.1992 19.0805 77.5699 18.3125 76.3112 18.3125C75.6819 18.3125 75.1592 18.5365 74.7432 18.9845C74.3379 19.4325 74.1352 20.0725 74.1352 20.9045V25.0005H72.4392ZM88.5959 25.0005V15.1765H85.2839V13.8005H93.5879V15.1765H90.2919V25.0005H88.5959ZM97.3856 25.1925C96.6069 25.1925 95.9136 25.0218 95.3056 24.6805C94.7082 24.3285 94.2389 23.8432 93.8976 23.2245C93.5562 22.6058 93.3856 21.8858 93.3856 21.0645C93.3856 20.2325 93.5509 19.5018 93.8816 18.8725C94.2229 18.2432 94.6922 17.7525 95.2896 17.4005C95.8976 17.0485 96.6016 16.8725 97.4016 16.8725C98.1802 16.8725 98.8576 17.0485 99.4336 17.4005C100.01 17.7418 100.458 18.2005 100.778 18.7765C101.098 19.3525 101.258 19.9872 101.258 20.6805C101.258 20.7872 101.252 20.9045 101.242 21.0325C101.242 21.1498 101.236 21.2832 101.226 21.4325H95.0496C95.1029 22.2005 95.3536 22.7872 95.8016 23.1925C96.2602 23.5872 96.7882 23.7845 97.3856 23.7845C97.8656 23.7845 98.2656 23.6778 98.5856 23.4645C98.9162 23.2405 99.1616 22.9418 99.3216 22.5685H101.018C100.804 23.3152 100.378 23.9392 99.7376 24.4405C99.1082 24.9418 98.3242 25.1925 97.3856 25.1925ZM97.3856 18.2645C96.8202 18.2645 96.3189 18.4352 95.8816 18.7765C95.4442 19.1072 95.1776 19.6085 95.0816 20.2805H99.5616C99.5296 19.6618 99.3109 19.1712 98.9056 18.8085C98.5002 18.4458 97.9936 18.2645 97.3856 18.2645ZM103.017 25.0005V13.4805H104.713V25.0005H103.017ZM110.573 25.1925C109.794 25.1925 109.101 25.0218 108.493 24.6805C107.896 24.3285 107.426 23.8432 107.085 23.2245C106.744 22.6058 106.573 21.8858 106.573 21.0645C106.573 20.2325 106.738 19.5018 107.069 18.8725C107.41 18.2432 107.88 17.7525 108.477 17.4005C109.085 17.0485 109.789 16.8725 110.589 16.8725C111.368 16.8725 112.045 17.0485 112.621 17.4005C113.197 17.7418 113.645 18.2005 113.965 18.7765C114.285 19.3525 114.445 19.9872 114.445 20.6805C114.445 20.7872 114.44 20.9045 114.429 21.0325C114.429 21.1498 114.424 21.2832 114.413 21.4325H108.237C108.29 22.2005 108.541 22.7872 108.989 23.1925C109.448 23.5872 109.976 23.7845 110.573 23.7845C111.053 23.7845 111.453 23.6778 111.773 23.4645C112.104 23.2405 112.349 22.9418 112.509 22.5685H114.205C113.992 23.3152 113.565 23.9392 112.925 24.4405C112.296 24.9418 111.512 25.1925 110.573 25.1925ZM110.573 18.2645C110.008 18.2645 109.506 18.4352 109.069 18.7765C108.632 19.1072 108.365 19.6085 108.269 20.2805H112.749C112.717 19.6618 112.498 19.1712 112.093 18.8085C111.688 18.4458 111.181 18.2645 110.573 18.2645ZM119.343 22.5685C118.927 22.5685 118.543 22.5205 118.191 22.4245L117.503 23.0965C117.621 23.1712 117.765 23.2352 117.935 23.2885C118.106 23.3418 118.346 23.3898 118.655 23.4325C118.965 23.4752 119.386 23.5178 119.919 23.5605C120.975 23.6565 121.738 23.9125 122.207 24.3285C122.677 24.7338 122.911 25.2778 122.911 25.9605C122.911 26.4298 122.783 26.8725 122.527 27.2885C122.282 27.7152 121.893 28.0565 121.359 28.3125C120.837 28.5792 120.165 28.7125 119.343 28.7125C118.234 28.7125 117.333 28.4992 116.639 28.0725C115.957 27.6565 115.615 27.0218 115.615 26.1685C115.615 25.8378 115.701 25.5072 115.871 25.1765C116.053 24.8565 116.335 24.5525 116.719 24.2645C116.495 24.1685 116.298 24.0672 116.127 23.9605C115.967 23.8432 115.823 23.7258 115.695 23.6085V23.2245L117.071 21.8165C116.453 21.2832 116.143 20.5845 116.143 19.7205C116.143 19.1978 116.266 18.7232 116.511 18.2965C116.767 17.8592 117.135 17.5125 117.615 17.2565C118.095 17.0005 118.671 16.8725 119.343 16.8725C119.791 16.8725 120.207 16.9365 120.591 17.0645H123.551V18.1845L122.143 18.2645C122.399 18.7018 122.527 19.1872 122.527 19.7205C122.527 20.2538 122.399 20.7338 122.143 21.1605C121.898 21.5872 121.535 21.9285 121.055 22.1845C120.586 22.4405 120.015 22.5685 119.343 22.5685ZM119.343 21.2405C119.834 21.2405 120.229 21.1125 120.527 20.8565C120.837 20.5898 120.991 20.2165 120.991 19.7365C120.991 19.2458 120.837 18.8725 120.527 18.6165C120.229 18.3605 119.834 18.2325 119.343 18.2325C118.842 18.2325 118.437 18.3605 118.127 18.6165C117.829 18.8725 117.679 19.2458 117.679 19.7365C117.679 20.2165 117.829 20.5898 118.127 20.8565C118.437 21.1125 118.842 21.2405 119.343 21.2405ZM117.215 26.0085C117.215 26.4672 117.418 26.8085 117.823 27.0325C118.229 27.2672 118.735 27.3845 119.343 27.3845C119.93 27.3845 120.405 27.2565 120.767 27.0005C121.13 26.7552 121.311 26.4245 121.311 26.0085C121.311 25.6992 121.189 25.4325 120.943 25.2085C120.698 24.9952 120.234 24.8618 119.551 24.8085C119.039 24.7765 118.586 24.7285 118.191 24.6645C117.818 24.8672 117.562 25.0858 117.423 25.3205C117.285 25.5552 117.215 25.7845 117.215 26.0085ZM125.064 25.0005V17.0645H126.584L126.728 18.5685C127.006 18.0458 127.39 17.6352 127.88 17.3365C128.382 17.0272 128.984 16.8725 129.688 16.8725V18.6485H129.224C128.755 18.6485 128.334 18.7285 127.96 18.8885C127.598 19.0378 127.304 19.2992 127.08 19.6725C126.867 20.0352 126.76 20.5418 126.76 21.1925V25.0005H125.064ZM133.83 25.1925C133.158 25.1925 132.604 25.0805 132.166 24.8565C131.729 24.6325 131.404 24.3392 131.19 23.9765C130.977 23.6032 130.87 23.1978 130.87 22.7605C130.87 21.9925 131.169 21.3845 131.766 20.9365C132.364 20.4885 133.217 20.2645 134.326 20.2645H136.406V20.1205C136.406 19.5018 136.236 19.0378 135.894 18.7285C135.564 18.4192 135.132 18.2645 134.598 18.2645C134.129 18.2645 133.718 18.3818 133.366 18.6165C133.025 18.8405 132.817 19.1765 132.742 19.6245H131.046C131.1 19.0485 131.292 18.5578 131.622 18.1525C131.964 17.7365 132.39 17.4218 132.902 17.2085C133.425 16.9845 133.996 16.8725 134.614 16.8725C135.724 16.8725 136.582 17.1658 137.19 17.7525C137.798 18.3285 138.102 19.1178 138.102 20.1205V25.0005H136.63L136.486 23.6405C136.262 24.0778 135.937 24.4458 135.51 24.7445C135.084 25.0432 134.524 25.1925 133.83 25.1925ZM134.166 23.8165C134.625 23.8165 135.009 23.7098 135.318 23.4965C135.638 23.2725 135.884 22.9792 136.054 22.6165C136.236 22.2538 136.348 21.8538 136.39 21.4165H134.502C133.83 21.4165 133.35 21.5338 133.062 21.7685C132.785 22.0032 132.646 22.2965 132.646 22.6485C132.646 23.0112 132.78 23.2992 133.046 23.5125C133.324 23.7152 133.697 23.8165 134.166 23.8165ZM140.08 25.0005V17.0645H141.584L141.728 18.1845C141.984 17.7792 142.32 17.4592 142.736 17.2245C143.162 16.9898 143.653 16.8725 144.208 16.8725C145.466 16.8725 146.341 17.3685 146.832 18.3605C147.12 17.9018 147.504 17.5392 147.984 17.2725C148.474 17.0058 149.002 16.8725 149.568 16.8725C150.56 16.8725 151.338 17.1712 151.904 17.7685C152.469 18.3658 152.752 19.2565 152.752 20.4405V25.0005H151.056V20.6165C151.056 19.0805 150.469 18.3125 149.296 18.3125C148.698 18.3125 148.208 18.5365 147.824 18.9845C147.45 19.4325 147.264 20.0725 147.264 20.9045V25.0005H145.568V20.6165C145.568 19.0805 144.976 18.3125 143.792 18.3125C143.205 18.3125 142.72 18.5365 142.336 18.9845C141.962 19.4325 141.776 20.0725 141.776 20.9045V25.0005H140.08Z" fill="white"/>
</g>
<defs>
<clipPath id="clip0_464_1005">
<rect width="173" height="40" fill="white"/>
</clipPath>
</defs>
</svg>
