<svg width="119" height="40" viewBox="0 0 119 40" fill="none" xmlns="http://www.w3.org/2000/svg">
<g clip-path="url(#clip0_464_1011)">
<path d="M99 1H20C9.50659 1 1 9.50659 1 20C1 30.4934 9.50659 39 20 39H99C109.493 39 118 30.4934 118 20C118 9.50659 109.493 1 99 1Z" stroke="#EBEAED" stroke-width="2"/>
<path d="M24.2539 25.1925C23.4325 25.1925 22.7125 25.0485 22.0939 24.7605C21.4752 24.4725 20.9899 24.0618 20.6379 23.5285C20.2965 22.9952 20.1205 22.3605 20.1099 21.6245H21.9019C21.9125 22.2218 22.1205 22.7285 22.5259 23.1445C22.9312 23.5605 23.5019 23.7685 24.2379 23.7685C24.8885 23.7685 25.3952 23.6138 25.7579 23.3045C26.1312 22.9845 26.3179 22.5792 26.3179 22.0885C26.3179 21.6938 26.2272 21.3738 26.0459 21.1285C25.8752 20.8832 25.6352 20.6805 25.3259 20.5205C25.0272 20.3605 24.6805 20.2165 24.2859 20.0885C23.8912 19.9605 23.4752 19.8218 23.0379 19.6725C22.1739 19.3845 21.5232 19.0112 21.0859 18.5525C20.6592 18.0938 20.4459 17.4912 20.4459 16.7445C20.4352 16.1152 20.5792 15.5658 20.8779 15.0965C21.1872 14.6272 21.6139 14.2645 22.1579 14.0085C22.7125 13.7418 23.3579 13.6085 24.0939 13.6085C24.8192 13.6085 25.4539 13.7418 25.9979 14.0085C26.5525 14.2752 26.9845 14.6485 27.2939 15.1285C27.6032 15.5978 27.7632 16.1472 27.7739 16.7765H25.9819C25.9819 16.4885 25.9072 16.2165 25.7579 15.9605C25.6085 15.6938 25.3899 15.4752 25.1019 15.3045C24.8139 15.1338 24.4619 15.0485 24.0459 15.0485C23.5125 15.0378 23.0699 15.1712 22.7179 15.4485C22.3765 15.7258 22.2059 16.1098 22.2059 16.6005C22.2059 17.0378 22.3339 17.3738 22.5899 17.6085C22.8459 17.8432 23.1979 18.0405 23.6459 18.2005C24.0939 18.3498 24.6059 18.5258 25.1819 18.7285C25.7365 18.9098 26.2325 19.1285 26.6699 19.3845C27.1072 19.6405 27.4539 19.9765 27.7099 20.3925C27.9765 20.8085 28.1099 21.3365 28.1099 21.9765C28.1099 22.5418 27.9659 23.0698 27.6779 23.5605C27.3899 24.0405 26.9579 24.4352 26.3819 24.7445C25.8059 25.0432 25.0965 25.1925 24.2539 25.1925ZM29.9001 25.0005V13.4805H31.5961V18.3445C31.8628 17.8858 32.2308 17.5285 32.7001 17.2725C33.1801 17.0058 33.7081 16.8725 34.2841 16.8725C35.2335 16.8725 35.9801 17.1712 36.5241 17.7685C37.0681 18.3658 37.3401 19.2565 37.3401 20.4405V25.0005H35.6601V20.6165C35.6601 19.0805 35.0468 18.3125 33.8201 18.3125C33.1801 18.3125 32.6468 18.5365 32.2201 18.9845C31.8041 19.4325 31.5961 20.0725 31.5961 20.9045V25.0005H29.9001ZM42.0256 25.1925C41.3536 25.1925 40.799 25.0805 40.3616 24.8565C39.9243 24.6325 39.599 24.3392 39.3856 23.9765C39.1723 23.6032 39.0656 23.1978 39.0656 22.7605C39.0656 21.9925 39.3643 21.3845 39.9616 20.9365C40.559 20.4885 41.4123 20.2645 42.5216 20.2645H44.6016V20.1205C44.6016 19.5018 44.431 19.0378 44.0896 18.7285C43.759 18.4192 43.327 18.2645 42.7936 18.2645C42.3243 18.2645 41.9136 18.3818 41.5616 18.6165C41.2203 18.8405 41.0123 19.1765 40.9376 19.6245H39.2416C39.295 19.0485 39.487 18.5578 39.8176 18.1525C40.159 17.7365 40.5856 17.4218 41.0976 17.2085C41.6203 16.9845 42.191 16.8725 42.8096 16.8725C43.919 16.8725 44.7776 17.1658 45.3856 17.7525C45.9936 18.3285 46.2976 19.1178 46.2976 20.1205V25.0005H44.8256L44.6816 23.6405C44.4576 24.0778 44.1323 24.4458 43.7056 24.7445C43.279 25.0432 42.719 25.1925 42.0256 25.1925ZM42.3616 23.8165C42.8203 23.8165 43.2043 23.7098 43.5136 23.4965C43.8336 23.2725 44.079 22.9792 44.2496 22.6165C44.431 22.2538 44.543 21.8538 44.5856 21.4165H42.6976C42.0256 21.4165 41.5456 21.5338 41.2576 21.7685C40.9803 22.0032 40.8416 22.2965 40.8416 22.6485C40.8416 23.0112 40.975 23.2992 41.2416 23.5125C41.519 23.7152 41.8923 23.8165 42.3616 23.8165ZM48.2751 25.0005V17.0645H49.7951L49.9391 18.5685C50.2165 18.0458 50.6005 17.6352 51.0911 17.3365C51.5925 17.0272 52.1951 16.8725 52.8991 16.8725V18.6485H52.4351C51.9658 18.6485 51.5445 18.7285 51.1711 18.8885C50.8085 19.0378 50.5151 19.2992 50.2911 19.6725C50.0778 20.0352 49.9711 20.5418 49.9711 21.1925V25.0005H48.2751ZM57.8465 25.1925C57.0678 25.1925 56.3745 25.0218 55.7665 24.6805C55.1692 24.3285 54.6998 23.8432 54.3585 23.2245C54.0172 22.6058 53.8465 21.8858 53.8465 21.0645C53.8465 20.2325 54.0118 19.5018 54.3425 18.8725C54.6838 18.2432 55.1532 17.7525 55.7505 17.4005C56.3585 17.0485 57.0625 16.8725 57.8625 16.8725C58.6412 16.8725 59.3185 17.0485 59.8945 17.4005C60.4705 17.7418 60.9185 18.2005 61.2385 18.7765C61.5585 19.3525 61.7185 19.9872 61.7185 20.6805C61.7185 20.7872 61.7132 20.9045 61.7025 21.0325C61.7025 21.1498 61.6972 21.2832 61.6865 21.4325H55.5105C55.5638 22.2005 55.8145 22.7872 56.2625 23.1925C56.7212 23.5872 57.2492 23.7845 57.8465 23.7845C58.3265 23.7845 58.7265 23.6778 59.0465 23.4645C59.3772 23.2405 59.6225 22.9418 59.7825 22.5685H61.4785C61.2652 23.3152 60.8385 23.9392 60.1985 24.4405C59.5692 24.9418 58.7852 25.1925 57.8465 25.1925ZM57.8465 18.2645C57.2812 18.2645 56.7798 18.4352 56.3425 18.7765C55.9052 19.1072 55.6385 19.6085 55.5425 20.2805H60.0225C59.9905 19.6618 59.7718 19.1712 59.3665 18.8085C58.9612 18.4458 58.4545 18.2645 57.8465 18.2645ZM71.2215 25.1925C70.4642 25.1925 69.7815 25.0218 69.1735 24.6805C68.5762 24.3285 68.1015 23.8432 67.7495 23.2245C67.3975 22.5952 67.2215 21.8645 67.2215 21.0325C67.2215 20.2005 67.3975 19.4752 67.7495 18.8565C68.1122 18.2272 68.5975 17.7418 69.2055 17.4005C69.8135 17.0485 70.4908 16.8725 71.2375 16.8725C71.9948 16.8725 72.6722 17.0485 73.2695 17.4005C73.8775 17.7418 74.3575 18.2272 74.7095 18.8565C75.0722 19.4752 75.2535 20.2005 75.2535 21.0325C75.2535 21.8645 75.0722 22.5952 74.7095 23.2245C74.3575 23.8432 73.8775 24.3285 73.2695 24.6805C72.6615 25.0218 71.9788 25.1925 71.2215 25.1925ZM71.2215 23.7365C71.6268 23.7365 72.0002 23.6352 72.3415 23.4325C72.6935 23.2298 72.9762 22.9312 73.1895 22.5365C73.4028 22.1312 73.5095 21.6298 73.5095 21.0325C73.5095 20.4352 73.4028 19.9392 73.1895 19.5445C72.9868 19.1392 72.7095 18.8352 72.3575 18.6325C72.0162 18.4298 71.6428 18.3285 71.2375 18.3285C70.8322 18.3285 70.4535 18.4298 70.1015 18.6325C69.7602 18.8352 69.4828 19.1392 69.2695 19.5445C69.0562 19.9392 68.9495 20.4352 68.9495 21.0325C68.9495 21.6298 69.0562 22.1312 69.2695 22.5365C69.4828 22.9312 69.7602 23.2298 70.1015 23.4325C70.4428 23.6352 70.8162 23.7365 71.2215 23.7365ZM77.0876 25.0005V17.0645H78.5916L78.7196 18.4565C78.965 17.9658 79.3223 17.5818 79.7916 17.3045C80.2716 17.0165 80.821 16.8725 81.4396 16.8725C82.3996 16.8725 83.1516 17.1712 83.6956 17.7685C84.2503 18.3658 84.5276 19.2565 84.5276 20.4405V25.0005H82.8476V20.6165C82.8476 19.0805 82.2183 18.3125 80.9596 18.3125C80.3303 18.3125 79.8076 18.5365 79.3916 18.9845C78.9863 19.4325 78.7836 20.0725 78.7836 20.9045V25.0005H77.0876ZM90.0604 25.0005L93.5164 19.3365L90.0284 13.8005H91.9644L94.6044 17.9925L97.0684 13.8005H98.9724L95.5004 19.4165L99.0204 25.0005H97.0844L94.4284 20.7765L91.9644 25.0005H90.0604Z" fill="white"/>
</g>
<defs>
<clipPath id="clip0_464_1011">
<rect width="119" height="40" fill="white"/>
</clipPath>
</defs>
</svg>
