<svg width="119" height="45" viewBox="0 0 119 45" fill="none" xmlns="http://www.w3.org/2000/svg">
<g clip-path="url(#clip0_464_1011)">
<path d="M99 1.125H20C9.50659 1.125 1 10.6949 1 22.5C1 34.3051 9.50659 43.875 20 43.875H99C109.493 43.875 118 34.3051 118 22.5C118 10.6949 109.493 1.125 99 1.125Z" stroke="#EBEAED" stroke-width="2"/>
<path d="M24.2539 28.341C23.4325 28.341 22.7125 28.179 22.0939 27.855C21.4752 27.531 20.9899 27.069 20.6379 26.469C20.2965 25.8691 20.1205 25.155 20.1099 24.327H21.9019C21.9125 24.999 22.1205 25.569 22.5259 26.037C22.9312 26.505 23.5019 26.739 24.2379 26.739C24.8885 26.739 25.3952 26.565 25.7579 26.217C26.1312 25.857 26.3179 25.4011 26.3179 24.849C26.3179 24.405 26.2272 24.045 26.0459 23.769C25.8752 23.4931 25.6352 23.265 25.3259 23.085C25.0272 22.905 24.6805 22.743 24.2859 22.599C23.8912 22.455 23.4752 22.299 23.0379 22.131C22.1739 21.807 21.5232 21.3871 21.0859 20.871C20.6592 20.355 20.4459 19.6771 20.4459 18.837C20.4352 18.1291 20.5792 17.511 20.8779 16.983C21.1872 16.4551 21.6139 16.047 22.1579 15.759C22.7125 15.459 23.3579 15.309 24.0939 15.309C24.8192 15.309 25.4539 15.459 25.9979 15.759C26.5525 16.0591 26.9845 16.479 27.2939 17.019C27.6032 17.547 27.7632 18.1651 27.7739 18.873H25.9819C25.9819 18.549 25.9072 18.243 25.7579 17.955C25.6085 17.655 25.3899 17.4091 25.1019 17.217C24.8139 17.025 24.4619 16.929 24.0459 16.929C23.5125 16.917 23.0699 17.0671 22.7179 17.379C22.3765 17.691 22.2059 18.123 22.2059 18.675C22.2059 19.167 22.3339 19.545 22.5899 19.809C22.8459 20.0731 23.1979 20.295 23.6459 20.475C24.0939 20.643 24.6059 20.841 25.1819 21.069C25.7365 21.273 26.2325 21.519 26.6699 21.807C27.1072 22.095 27.4539 22.473 27.7099 22.941C27.9765 23.409 28.1099 24.003 28.1099 24.723C28.1099 25.359 27.9659 25.953 27.6779 26.505C27.3899 27.045 26.9579 27.4891 26.3819 27.837C25.8059 28.1731 25.0965 28.341 24.2539 28.341ZM29.9001 28.125V15.165H31.5961V20.637C31.8628 20.121 32.2308 19.719 32.7001 19.431C33.1801 19.131 33.7081 18.981 34.2841 18.981C35.2335 18.981 35.9801 19.3171 36.5241 19.989C37.0681 20.661 37.3401 21.663 37.3401 22.995V28.125H35.6601V23.193C35.6601 21.465 35.0468 20.601 33.8201 20.601C33.1801 20.601 32.6468 20.853 32.2201 21.357C31.8041 21.861 31.5961 22.581 31.5961 23.517V28.125H29.9001ZM42.0256 28.341C41.3536 28.341 40.799 28.215 40.3616 27.963C39.9243 27.711 39.599 27.3811 39.3856 26.973C39.1723 26.5531 39.0656 26.097 39.0656 25.605C39.0656 24.741 39.3643 24.057 39.9616 23.553C40.559 23.049 41.4123 22.797 42.5216 22.797H44.6016V22.635C44.6016 21.939 44.431 21.417 44.0896 21.069C43.759 20.7211 43.327 20.547 42.7936 20.547C42.3243 20.547 41.9136 20.679 41.5616 20.943C41.2203 21.195 41.0123 21.573 40.9376 22.077H39.2416C39.295 21.429 39.487 20.877 39.8176 20.421C40.159 19.953 40.5856 19.599 41.0976 19.359C41.6203 19.107 42.191 18.981 42.8096 18.981C43.919 18.981 44.7776 19.311 45.3856 19.971C45.9936 20.619 46.2976 21.507 46.2976 22.635V28.125H44.8256L44.6816 26.595C44.4576 27.087 44.1323 27.501 43.7056 27.837C43.279 28.1731 42.719 28.341 42.0256 28.341ZM42.3616 26.793C42.8203 26.793 43.2043 26.673 43.5136 26.433C43.8336 26.181 44.079 25.8511 44.2496 25.443C44.431 25.035 44.543 24.585 44.5856 24.093H42.6976C42.0256 24.093 41.5456 24.225 41.2576 24.489C40.9803 24.7531 40.8416 25.083 40.8416 25.479C40.8416 25.8871 40.975 26.2111 41.2416 26.451C41.519 26.6791 41.8923 26.793 42.3616 26.793ZM48.2751 28.125V19.197H49.7951L49.9391 20.889C50.2165 20.301 50.6005 19.8391 51.0911 19.503C51.5925 19.1551 52.1951 18.981 52.8991 18.981V20.979H52.4351C51.9658 20.979 51.5445 21.069 51.1711 21.249C50.8085 21.417 50.5151 21.7111 50.2911 22.131C50.0778 22.5391 49.9711 23.109 49.9711 23.841V28.125H48.2751ZM57.8465 28.341C57.0678 28.341 56.3745 28.149 55.7665 27.765C55.1692 27.369 54.6998 26.8231 54.3585 26.127C54.0172 25.431 53.8465 24.621 53.8465 23.697C53.8465 22.761 54.0118 21.939 54.3425 21.231C54.6838 20.5231 55.1532 19.971 55.7505 19.575C56.3585 19.179 57.0625 18.981 57.8625 18.981C58.6412 18.981 59.3185 19.179 59.8945 19.575C60.4705 19.959 60.9185 20.475 61.2385 21.123C61.5585 21.771 61.7185 22.4851 61.7185 23.265C61.7185 23.3851 61.7132 23.517 61.7025 23.661C61.7025 23.793 61.6972 23.9431 61.6865 24.111H55.5105C55.5638 24.975 55.8145 25.6351 56.2625 26.091C56.7212 26.5351 57.2492 26.757 57.8465 26.757C58.3265 26.757 58.7265 26.637 59.0465 26.397C59.3772 26.145 59.6225 25.809 59.7825 25.389H61.4785C61.2652 26.2291 60.8385 26.9311 60.1985 27.495C59.5692 28.059 58.7852 28.341 57.8465 28.341ZM57.8465 20.547C57.2812 20.547 56.7798 20.7391 56.3425 21.123C55.9052 21.4951 55.6385 22.059 55.5425 22.815H60.0225C59.9905 22.119 59.7718 21.5671 59.3665 21.159C58.9612 20.751 58.4545 20.547 57.8465 20.547ZM71.2215 28.341C70.4642 28.341 69.7815 28.149 69.1735 27.765C68.5762 27.369 68.1015 26.8231 67.7495 26.127C67.3975 25.4191 67.2215 24.597 67.2215 23.661C67.2215 22.725 67.3975 21.9091 67.7495 21.213C68.1122 20.5051 68.5975 19.959 69.2055 19.575C69.8135 19.179 70.4908 18.981 71.2375 18.981C71.9948 18.981 72.6722 19.179 73.2695 19.575C73.8775 19.959 74.3575 20.5051 74.7095 21.213C75.0722 21.9091 75.2535 22.725 75.2535 23.661C75.2535 24.597 75.0722 25.4191 74.7095 26.127C74.3575 26.8231 73.8775 27.369 73.2695 27.765C72.6615 28.149 71.9788 28.341 71.2215 28.341ZM71.2215 26.703C71.6268 26.703 72.0002 26.5891 72.3415 26.361C72.6935 26.133 72.9762 25.7971 73.1895 25.353C73.4028 24.8971 73.5095 24.333 73.5095 23.661C73.5095 22.9891 73.4028 22.4311 73.1895 21.987C72.9868 21.5311 72.7095 21.1891 72.3575 20.961C72.0162 20.733 71.6428 20.619 71.2375 20.619C70.8322 20.619 70.4535 20.733 70.1015 20.961C69.7602 21.1891 69.4828 21.5311 69.2695 21.987C69.0562 22.4311 68.9495 22.9891 68.9495 23.661C68.9495 24.333 69.0562 24.8971 69.2695 25.353C69.4828 25.7971 69.7602 26.133 70.1015 26.361C70.4428 26.5891 70.8162 26.703 71.2215 26.703ZM77.0876 28.125V19.197H78.5916L78.7196 20.763C78.965 20.211 79.3223 19.779 79.7916 19.467C80.2716 19.143 80.821 18.981 81.4396 18.981C82.3996 18.981 83.1516 19.3171 83.6956 19.989C84.2503 20.661 84.5276 21.663 84.5276 22.995V28.125H82.8476V23.193C82.8476 21.465 82.2183 20.601 80.9596 20.601C80.3303 20.601 79.8076 20.853 79.3916 21.357C78.9863 21.861 78.7836 22.581 78.7836 23.517V28.125H77.0876ZM90.0604 28.125L93.5164 21.753L90.0284 15.525H91.9644L94.6044 20.241L97.0684 15.525H98.9724L95.5004 21.843L99.0204 28.125H97.0844L94.4284 23.373L91.9644 28.125H90.0604Z" fill="#7583FF"/>
</g>
<defs>
<clipPath id="clip0_464_1011">
<rect width="119" height="45" fill="white"/>
</clipPath>
</defs>
</svg>
