<svg width="158" height="40" viewBox="0 0 158 40" fill="none" xmlns="http://www.w3.org/2000/svg">
<g clip-path="url(#clip0_464_1000)">
<path d="M138 1H20C9.50659 1 1 9.50659 1 20C1 30.4934 9.50659 39 20 39H138C148.493 39 157 30.4934 157 20C157 9.50659 148.493 1 138 1Z" stroke="#EBEAED" stroke-width="2"/>
<path d="M24.0117 25.1925C23.1904 25.1925 22.4704 25.0485 21.8517 24.7605C21.233 24.4725 20.7477 24.0618 20.3957 23.5285C20.0544 22.9952 19.8784 22.3605 19.8677 21.6245H21.6597C21.6704 22.2218 21.8784 22.7285 22.2837 23.1445C22.689 23.5605 23.2597 23.7685 23.9957 23.7685C24.6464 23.7685 25.153 23.6138 25.5157 23.3045C25.889 22.9845 26.0757 22.5792 26.0757 22.0885C26.0757 21.6938 25.985 21.3738 25.8037 21.1285C25.633 20.8832 25.393 20.6805 25.0837 20.5205C24.785 20.3605 24.4384 20.2165 24.0437 20.0885C23.649 19.9605 23.233 19.8218 22.7957 19.6725C21.9317 19.3845 21.281 19.0112 20.8437 18.5525C20.417 18.0938 20.2037 17.4912 20.2037 16.7445C20.193 16.1152 20.337 15.5658 20.6357 15.0965C20.945 14.6272 21.3717 14.2645 21.9157 14.0085C22.4704 13.7418 23.1157 13.6085 23.8517 13.6085C24.577 13.6085 25.2117 13.7418 25.7557 14.0085C26.3104 14.2752 26.7424 14.6485 27.0517 15.1285C27.361 15.5978 27.521 16.1472 27.5317 16.7765H25.7397C25.7397 16.4885 25.665 16.2165 25.5157 15.9605C25.3664 15.6938 25.1477 15.4752 24.8597 15.3045C24.5717 15.1338 24.2197 15.0485 23.8037 15.0485C23.2704 15.0378 22.8277 15.1712 22.4757 15.4485C22.1344 15.7258 21.9637 16.1098 21.9637 16.6005C21.9637 17.0378 22.0917 17.3738 22.3477 17.6085C22.6037 17.8432 22.9557 18.0405 23.4037 18.2005C23.8517 18.3498 24.3637 18.5258 24.9397 18.7285C25.4944 18.9098 25.9904 19.1285 26.4277 19.3845C26.865 19.6405 27.2117 19.9765 27.4677 20.3925C27.7344 20.8085 27.8677 21.3365 27.8677 21.9765C27.8677 22.5418 27.7237 23.0698 27.4357 23.5605C27.1477 24.0405 26.7157 24.4352 26.1397 24.7445C25.5637 25.0432 24.8544 25.1925 24.0117 25.1925ZM29.6579 25.0005V13.4805H31.3539V18.3445C31.6206 17.8858 31.9886 17.5285 32.4579 17.2725C32.9379 17.0058 33.4659 16.8725 34.0419 16.8725C34.9913 16.8725 35.7379 17.1712 36.2819 17.7685C36.8259 18.3658 37.0979 19.2565 37.0979 20.4405V25.0005H35.4179V20.6165C35.4179 19.0805 34.8046 18.3125 33.5779 18.3125C32.9379 18.3125 32.4046 18.5365 31.9779 18.9845C31.5619 19.4325 31.3539 20.0725 31.3539 20.9045V25.0005H29.6579ZM41.7834 25.1925C41.1114 25.1925 40.5568 25.0805 40.1194 24.8565C39.6821 24.6325 39.3568 24.3392 39.1434 23.9765C38.9301 23.6032 38.8234 23.1978 38.8234 22.7605C38.8234 21.9925 39.1221 21.3845 39.7194 20.9365C40.3168 20.4885 41.1701 20.2645 42.2794 20.2645H44.3594V20.1205C44.3594 19.5018 44.1888 19.0378 43.8474 18.7285C43.5168 18.4192 43.0848 18.2645 42.5514 18.2645C42.0821 18.2645 41.6714 18.3818 41.3194 18.6165C40.9781 18.8405 40.7701 19.1765 40.6954 19.6245H38.9994C39.0528 19.0485 39.2448 18.5578 39.5754 18.1525C39.9168 17.7365 40.3434 17.4218 40.8554 17.2085C41.3781 16.9845 41.9488 16.8725 42.5674 16.8725C43.6768 16.8725 44.5354 17.1658 45.1434 17.7525C45.7514 18.3285 46.0554 19.1178 46.0554 20.1205V25.0005H44.5834L44.4394 23.6405C44.2154 24.0778 43.8901 24.4458 43.4634 24.7445C43.0368 25.0432 42.4768 25.1925 41.7834 25.1925ZM42.1194 23.8165C42.5781 23.8165 42.9621 23.7098 43.2714 23.4965C43.5914 23.2725 43.8368 22.9792 44.0074 22.6165C44.1888 22.2538 44.3008 21.8538 44.3434 21.4165H42.4554C41.7834 21.4165 41.3034 21.5338 41.0154 21.7685C40.7381 22.0032 40.5994 22.2965 40.5994 22.6485C40.5994 23.0112 40.7328 23.2992 40.9994 23.5125C41.2768 23.7152 41.6501 23.8165 42.1194 23.8165ZM48.0329 25.0005V17.0645H49.5529L49.6969 18.5685C49.9743 18.0458 50.3583 17.6352 50.8489 17.3365C51.3503 17.0272 51.9529 16.8725 52.6569 16.8725V18.6485H52.1929C51.7236 18.6485 51.3023 18.7285 50.9289 18.8885C50.5663 19.0378 50.2729 19.2992 50.0489 19.6725C49.8356 20.0352 49.7289 20.5418 49.7289 21.1925V25.0005H48.0329ZM57.6043 25.1925C56.8256 25.1925 56.1323 25.0218 55.5243 24.6805C54.927 24.3285 54.4576 23.8432 54.1163 23.2245C53.775 22.6058 53.6043 21.8858 53.6043 21.0645C53.6043 20.2325 53.7696 19.5018 54.1003 18.8725C54.4416 18.2432 54.911 17.7525 55.5083 17.4005C56.1163 17.0485 56.8203 16.8725 57.6203 16.8725C58.399 16.8725 59.0763 17.0485 59.6523 17.4005C60.2283 17.7418 60.6763 18.2005 60.9963 18.7765C61.3163 19.3525 61.4763 19.9872 61.4763 20.6805C61.4763 20.7872 61.471 20.9045 61.4603 21.0325C61.4603 21.1498 61.455 21.2832 61.4443 21.4325H55.2683C55.3216 22.2005 55.5723 22.7872 56.0203 23.1925C56.479 23.5872 57.007 23.7845 57.6043 23.7845C58.0843 23.7845 58.4843 23.6778 58.8043 23.4645C59.135 23.2405 59.3803 22.9418 59.5403 22.5685H61.2363C61.023 23.3152 60.5963 23.9392 59.9563 24.4405C59.327 24.9418 58.543 25.1925 57.6043 25.1925ZM57.6043 18.2645C57.039 18.2645 56.5376 18.4352 56.1003 18.7765C55.663 19.1072 55.3963 19.6085 55.3003 20.2805H59.7803C59.7483 19.6618 59.5296 19.1712 59.1243 18.8085C58.719 18.4458 58.2123 18.2645 57.6043 18.2645ZM70.9793 25.1925C70.222 25.1925 69.5393 25.0218 68.9313 24.6805C68.334 24.3285 67.8593 23.8432 67.5073 23.2245C67.1553 22.5952 66.9793 21.8645 66.9793 21.0325C66.9793 20.2005 67.1553 19.4752 67.5073 18.8565C67.87 18.2272 68.3553 17.7418 68.9633 17.4005C69.5713 17.0485 70.2486 16.8725 70.9953 16.8725C71.7526 16.8725 72.43 17.0485 73.0273 17.4005C73.6353 17.7418 74.1153 18.2272 74.4673 18.8565C74.83 19.4752 75.0113 20.2005 75.0113 21.0325C75.0113 21.8645 74.83 22.5952 74.4673 23.2245C74.1153 23.8432 73.6353 24.3285 73.0273 24.6805C72.4193 25.0218 71.7366 25.1925 70.9793 25.1925ZM70.9793 23.7365C71.3846 23.7365 71.758 23.6352 72.0993 23.4325C72.4513 23.2298 72.734 22.9312 72.9473 22.5365C73.1606 22.1312 73.2673 21.6298 73.2673 21.0325C73.2673 20.4352 73.1606 19.9392 72.9473 19.5445C72.7446 19.1392 72.4673 18.8352 72.1153 18.6325C71.774 18.4298 71.4006 18.3285 70.9953 18.3285C70.59 18.3285 70.2113 18.4298 69.8593 18.6325C69.518 18.8352 69.2406 19.1392 69.0273 19.5445C68.814 19.9392 68.7073 20.4352 68.7073 21.0325C68.7073 21.6298 68.814 22.1312 69.0273 22.5365C69.2406 22.9312 69.518 23.2298 69.8593 23.4325C70.2006 23.6352 70.574 23.7365 70.9793 23.7365ZM76.8454 25.0005V17.0645H78.3494L78.4774 18.4565C78.7228 17.9658 79.0801 17.5818 79.5494 17.3045C80.0294 17.0165 80.5788 16.8725 81.1974 16.8725C82.1574 16.8725 82.9094 17.1712 83.4534 17.7685C84.0081 18.3658 84.2854 19.2565 84.2854 20.4405V25.0005H82.6054V20.6165C82.6054 19.0805 81.9761 18.3125 80.7174 18.3125C80.0881 18.3125 79.5654 18.5365 79.1494 18.9845C78.7441 19.4325 78.5414 20.0725 78.5414 20.9045V25.0005H76.8454ZM90.3782 25.0005V13.8005H94.2342C95.1195 13.8005 95.8449 13.9498 96.4102 14.2485C96.9862 14.5472 97.4129 14.9525 97.6902 15.4645C97.9675 15.9658 98.1062 16.5258 98.1062 17.1445C98.1062 17.8378 97.9195 18.4672 97.5462 19.0325C97.1835 19.5978 96.6129 20.0032 95.8342 20.2485L98.2182 25.0005H96.2502L94.0742 20.4885H92.0742V25.0005H90.3782ZM92.0742 19.2085H94.1382C94.9062 19.2085 95.4662 19.0218 95.8182 18.6485C96.1809 18.2752 96.3622 17.7898 96.3622 17.1925C96.3622 16.5952 96.1862 16.1205 95.8342 15.7685C95.4822 15.4058 94.9115 15.2245 94.1222 15.2245H92.0742V19.2085ZM103.276 25.1925C102.498 25.1925 101.804 25.0218 101.196 24.6805C100.599 24.3285 100.13 23.8432 99.7882 23.2245C99.4469 22.6058 99.2762 21.8858 99.2762 21.0645C99.2762 20.2325 99.4415 19.5018 99.7722 18.8725C100.114 18.2432 100.583 17.7525 101.18 17.4005C101.788 17.0485 102.492 16.8725 103.292 16.8725C104.071 16.8725 104.748 17.0485 105.324 17.4005C105.9 17.7418 106.348 18.2005 106.668 18.7765C106.988 19.3525 107.148 19.9872 107.148 20.6805C107.148 20.7872 107.143 20.9045 107.132 21.0325C107.132 21.1498 107.127 21.2832 107.116 21.4325H100.94C100.994 22.2005 101.244 22.7872 101.692 23.1925C102.151 23.5872 102.679 23.7845 103.276 23.7845C103.756 23.7845 104.156 23.6778 104.476 23.4645C104.807 23.2405 105.052 22.9418 105.212 22.5685H106.908C106.695 23.3152 106.268 23.9392 105.628 24.4405C104.999 24.9418 104.215 25.1925 103.276 25.1925ZM103.276 18.2645C102.711 18.2645 102.21 18.4352 101.772 18.7765C101.335 19.1072 101.068 19.6085 100.972 20.2805H105.452C105.42 19.6618 105.202 19.1712 104.796 18.8085C104.391 18.4458 103.884 18.2645 103.276 18.2645ZM112.524 25.1925C111.756 25.1925 111.079 25.0112 110.492 24.6485C109.905 24.2858 109.447 23.7898 109.116 23.1605C108.785 22.5312 108.62 21.8165 108.62 21.0165C108.62 20.2165 108.785 19.5072 109.116 18.8885C109.447 18.2592 109.905 17.7685 110.492 17.4165C111.089 17.0538 111.772 16.8725 112.54 16.8725C113.169 16.8725 113.719 16.9952 114.188 17.2405C114.668 17.4858 115.041 17.8325 115.308 18.2805V13.4805H117.004V25.0005H115.484L115.308 23.7685C115.052 24.1418 114.7 24.4725 114.252 24.7605C113.804 25.0485 113.228 25.1925 112.524 25.1925ZM112.828 23.7205C113.553 23.7205 114.145 23.4698 114.604 22.9685C115.073 22.4672 115.308 21.8218 115.308 21.0325C115.308 20.2325 115.073 19.5872 114.604 19.0965C114.145 18.5952 113.553 18.3445 112.828 18.3445C112.103 18.3445 111.505 18.5952 111.036 19.0965C110.567 19.5872 110.332 20.2325 110.332 21.0325C110.332 21.5552 110.439 22.0192 110.652 22.4245C110.865 22.8298 111.159 23.1498 111.532 23.3845C111.916 23.6085 112.348 23.7205 112.828 23.7205ZM122.758 25.1925C121.99 25.1925 121.313 25.0112 120.726 24.6485C120.14 24.2858 119.681 23.7898 119.35 23.1605C119.02 22.5312 118.854 21.8165 118.854 21.0165C118.854 20.2165 119.02 19.5072 119.35 18.8885C119.681 18.2592 120.14 17.7685 120.726 17.4165C121.324 17.0538 122.006 16.8725 122.774 16.8725C123.404 16.8725 123.953 16.9952 124.422 17.2405C124.902 17.4858 125.276 17.8325 125.542 18.2805V13.4805H127.238V25.0005H125.718L125.542 23.7685C125.286 24.1418 124.934 24.4725 124.486 24.7605C124.038 25.0485 123.462 25.1925 122.758 25.1925ZM123.062 23.7205C123.788 23.7205 124.38 23.4698 124.838 22.9685C125.308 22.4672 125.542 21.8218 125.542 21.0325C125.542 20.2325 125.308 19.5872 124.838 19.0965C124.38 18.5952 123.788 18.3445 123.062 18.3445C122.337 18.3445 121.74 18.5952 121.27 19.0965C120.801 19.5872 120.566 20.2325 120.566 21.0325C120.566 21.5552 120.673 22.0192 120.886 22.4245C121.1 22.8298 121.393 23.1498 121.766 23.3845C122.15 23.6085 122.582 23.7205 123.062 23.7205ZM130.337 15.5605C130.017 15.5605 129.75 15.4645 129.537 15.2725C129.334 15.0698 129.233 14.8192 129.233 14.5205C129.233 14.2218 129.334 13.9765 129.537 13.7845C129.75 13.5818 130.017 13.4805 130.337 13.4805C130.657 13.4805 130.918 13.5818 131.121 13.7845C131.334 13.9765 131.441 14.2218 131.441 14.5205C131.441 14.8192 131.334 15.0698 131.121 15.2725C130.918 15.4645 130.657 15.5605 130.337 15.5605ZM129.489 25.0005V17.0645H131.185V25.0005H129.489ZM136.752 25.0005C135.973 25.0005 135.354 24.8138 134.896 24.4405C134.437 24.0565 134.208 23.3792 134.208 22.4085V18.4885H132.848V17.0645H134.208L134.416 15.0485H135.904V17.0645H138.144V18.4885H135.904V22.4085C135.904 22.8458 135.994 23.1498 136.176 23.3205C136.368 23.4805 136.693 23.5605 137.152 23.5605H138.064V25.0005H136.752Z" fill="white"/>
</g>
<defs>
<clipPath id="clip0_464_1000">
<rect width="158" height="40" fill="white"/>
</clipPath>
</defs>
</svg>
