<svg width="202" height="45" viewBox="0 0 202 45" fill="none" xmlns="http://www.w3.org/2000/svg">
<g clip-path="url(#clip0_464_988)">
<path d="M182 1.125H20C9.50659 1.125 1 10.6949 1 22.5C1 34.3051 9.50659 43.875 20 43.875H182C192.493 43.875 201 34.3051 201 22.5C201 10.6949 192.493 1.125 182 1.125Z" stroke="#EBEAED" stroke-width="2"/>
<path d="M23.9335 28.341C23.1121 28.341 22.3922 28.179 21.7736 27.855C21.1549 27.531 20.6696 27.069 20.3176 26.469C19.9762 25.8691 19.8002 25.155 19.7896 24.327H21.5816C21.5922 24.999 21.8002 25.569 22.2056 26.037C22.6109 26.505 23.1816 26.739 23.9176 26.739C24.5682 26.739 25.0748 26.565 25.4375 26.217C25.8108 25.857 25.9976 25.4011 25.9976 24.849C25.9976 24.405 25.9068 24.045 25.7255 23.769C25.5548 23.4931 25.3149 23.265 25.0056 23.085C24.7069 22.905 24.3601 22.743 23.9655 22.599C23.5708 22.455 23.1549 22.299 22.7176 22.131C21.8536 21.807 21.2029 21.3871 20.7656 20.871C20.3389 20.355 20.1256 19.6771 20.1256 18.837C20.1149 18.1291 20.2589 17.511 20.5576 16.983C20.8669 16.4551 21.2936 16.047 21.8376 15.759C22.3922 15.459 23.0376 15.309 23.7736 15.309C24.4989 15.309 25.1336 15.459 25.6776 15.759C26.2322 16.0591 26.6642 16.479 26.9736 17.019C27.2829 17.547 27.4429 18.1651 27.4536 18.873H25.6616C25.6616 18.549 25.5868 18.243 25.4375 17.955C25.2881 17.655 25.0696 17.4091 24.7816 17.217C24.4936 17.025 24.1415 16.929 23.7255 16.929C23.1921 16.917 22.7496 17.0671 22.3976 17.379C22.0562 17.691 21.8855 18.123 21.8855 18.675C21.8855 19.167 22.0136 19.545 22.2696 19.809C22.5256 20.0731 22.8776 20.295 23.3256 20.475C23.7736 20.643 24.2856 20.841 24.8616 21.069C25.4162 21.273 25.9122 21.519 26.3496 21.807C26.7869 22.095 27.1336 22.473 27.3896 22.941C27.6562 23.409 27.7896 24.003 27.7896 24.723C27.7896 25.359 27.6455 25.953 27.3575 26.505C27.0695 27.045 26.6376 27.4891 26.0616 27.837C25.4856 28.1731 24.7761 28.341 23.9335 28.341ZM29.5798 28.125V15.165H31.2758V20.637C31.5425 20.121 31.9104 19.719 32.3797 19.431C32.8597 19.131 33.3877 18.981 33.9637 18.981C34.913 18.981 35.6598 19.3171 36.2038 19.989C36.7478 20.661 37.0197 21.663 37.0197 22.995V28.125H35.3398V23.193C35.3398 21.465 34.7265 20.601 33.4998 20.601C32.8598 20.601 32.3264 20.853 31.8997 21.357C31.4837 21.861 31.2758 22.581 31.2758 23.517V28.125H29.5798ZM41.7052 28.341C41.0332 28.341 40.4786 28.215 40.0413 27.963C39.604 27.711 39.2786 27.3811 39.0653 26.973C38.852 26.5531 38.7453 26.097 38.7453 25.605C38.7453 24.741 39.044 24.057 39.6413 23.553C40.2386 23.049 41.092 22.797 42.2013 22.797H44.2812V22.635C44.2812 21.939 44.1105 21.417 43.7692 21.069C43.4385 20.7211 43.0066 20.547 42.4733 20.547C42.004 20.547 41.5932 20.679 41.2412 20.943C40.8999 21.195 40.6919 21.573 40.6172 22.077H38.9212C38.9745 21.429 39.1665 20.877 39.4972 20.421C39.8385 19.953 40.2653 19.599 40.7773 19.359C41.3 19.107 41.8706 18.981 42.4893 18.981C43.5986 18.981 44.4573 19.311 45.0653 19.971C45.6733 20.619 45.9772 21.507 45.9772 22.635V28.125H44.5052L44.3613 26.595C44.1373 27.087 43.812 27.501 43.3853 27.837C42.9586 28.1731 42.3985 28.341 41.7052 28.341ZM42.0413 26.793C42.5 26.793 42.8839 26.673 43.1932 26.433C43.5132 26.181 43.7585 25.8511 43.9292 25.443C44.1105 25.035 44.2226 24.585 44.2653 24.093H42.3773C41.7053 24.093 41.2253 24.225 40.9373 24.489C40.66 24.7531 40.5213 25.083 40.5213 25.479C40.5213 25.8871 40.6545 26.2111 40.9212 26.451C41.1985 26.6791 41.572 26.793 42.0413 26.793ZM47.9548 28.125V19.197H49.4748L49.6188 20.889C49.8961 20.301 50.2801 19.8391 50.7708 19.503C51.2721 19.1551 51.8748 18.981 52.5788 18.981V20.979H52.1147C51.6454 20.979 51.224 21.069 50.8507 21.249C50.488 21.417 50.1947 21.7111 49.9707 22.131C49.7574 22.5391 49.6507 23.109 49.6507 23.841V28.125H47.9548ZM57.5261 28.341C56.7474 28.341 56.0542 28.149 55.4462 27.765C54.8489 27.369 54.3795 26.8231 54.0382 26.127C53.6969 25.431 53.5261 24.621 53.5261 23.697C53.5261 22.761 53.6915 21.939 54.0222 21.231C54.3635 20.5231 54.8328 19.971 55.4301 19.575C56.0381 19.179 56.7421 18.981 57.5421 18.981C58.3208 18.981 58.9982 19.179 59.5742 19.575C60.1502 19.959 60.5982 20.475 60.9182 21.123C61.2382 21.771 61.3982 22.4851 61.3982 23.265C61.3982 23.3851 61.3928 23.517 61.3821 23.661C61.3821 23.793 61.3768 23.9431 61.3661 24.111H55.1902C55.2435 24.975 55.4942 25.6351 55.9422 26.091C56.4009 26.5351 56.9288 26.757 57.5261 26.757C58.0061 26.757 58.4062 26.637 58.7262 26.397C59.0569 26.145 59.3022 25.809 59.4622 25.389H61.1581C60.9448 26.2291 60.5182 26.9311 59.8782 27.495C59.2489 28.059 58.4648 28.341 57.5261 28.341ZM57.5261 20.547C56.9608 20.547 56.4595 20.7391 56.0222 21.123C55.5849 21.4951 55.3181 22.059 55.2221 22.815H59.7022C59.6702 22.119 59.4515 21.5671 59.0462 21.159C58.6409 20.751 58.1341 20.547 57.5261 20.547ZM70.9011 28.341C70.1438 28.341 69.4612 28.149 68.8532 27.765C68.2559 27.369 67.7811 26.8231 67.4291 26.127C67.0771 25.4191 66.9011 24.597 66.9011 23.661C66.9011 22.725 67.0771 21.9091 67.4291 21.213C67.7918 20.5051 68.2772 19.959 68.8852 19.575C69.4932 19.179 70.1704 18.981 70.9171 18.981C71.6744 18.981 72.3519 19.179 72.9492 19.575C73.5572 19.959 74.0371 20.5051 74.3891 21.213C74.7518 21.9091 74.9331 22.725 74.9331 23.661C74.9331 24.597 74.7518 25.4191 74.3891 26.127C74.0371 26.8231 73.5572 27.369 72.9492 27.765C72.3412 28.149 71.6584 28.341 70.9011 28.341ZM70.9011 26.703C71.3064 26.703 71.6799 26.5891 72.0212 26.361C72.3732 26.133 72.6559 25.7971 72.8692 25.353C73.0825 24.8971 73.1892 24.333 73.1892 23.661C73.1892 22.9891 73.0825 22.4311 72.8692 21.987C72.6665 21.5311 72.3892 21.1891 72.0372 20.961C71.6959 20.733 71.3224 20.619 70.9171 20.619C70.5118 20.619 70.1331 20.733 69.7811 20.961C69.4398 21.1891 69.1625 21.5311 68.9492 21.987C68.7359 22.4311 68.6292 22.9891 68.6292 23.661C68.6292 24.333 68.7359 24.8971 68.9492 25.353C69.1625 25.7971 69.4398 26.133 69.7811 26.361C70.1224 26.5891 70.4958 26.703 70.9011 26.703ZM76.7673 28.125V19.197H78.2713L78.3993 20.763C78.6446 20.211 79.0019 19.779 79.4712 19.467C79.9512 19.143 80.5006 18.981 81.1193 18.981C82.0793 18.981 82.8312 19.3171 83.3752 19.989C83.9299 20.661 84.2072 21.663 84.2072 22.995V28.125H82.5272V23.193C82.5272 21.465 81.8979 20.601 80.6392 20.601C80.0099 20.601 79.4872 20.853 79.0712 21.357C78.6659 21.861 78.4633 22.581 78.4633 23.517V28.125H76.7673ZM90.3 28.125V15.525H91.996V20.925H97.42V15.525H99.116V28.125H97.42V22.491H91.996V28.125H90.3ZM104.018 28.341C103.346 28.341 102.791 28.215 102.354 27.963C101.916 27.711 101.591 27.3811 101.378 26.973C101.164 26.5531 101.058 26.097 101.058 25.605C101.058 24.741 101.356 24.057 101.954 23.553C102.551 23.049 103.404 22.797 104.514 22.797H106.594V22.635C106.594 21.939 106.423 21.417 106.082 21.069C105.751 20.7211 105.319 20.547 104.786 20.547C104.316 20.547 103.906 20.679 103.554 20.943C103.212 21.195 103.004 21.573 102.93 22.077H101.234C101.287 21.429 101.479 20.877 101.81 20.421C102.151 19.953 102.578 19.599 103.09 19.359C103.612 19.107 104.183 18.981 104.802 18.981C105.911 18.981 106.77 19.311 107.378 19.971C107.986 20.619 108.29 21.507 108.29 22.635V28.125H106.818L106.674 26.595C106.45 27.087 106.124 27.501 105.698 27.837C105.271 28.1731 104.711 28.341 104.018 28.341ZM104.354 26.793C104.812 26.793 105.196 26.673 105.506 26.433C105.826 26.181 106.071 25.8511 106.242 25.443C106.423 25.035 106.535 24.585 106.578 24.093H104.69C104.018 24.093 103.538 24.225 103.25 24.489C102.972 24.7531 102.834 25.083 102.834 25.479C102.834 25.8871 102.967 26.2111 103.234 26.451C103.511 26.6791 103.884 26.793 104.354 26.793ZM114.027 28.341C113.249 28.341 112.55 28.143 111.931 27.747C111.323 27.351 110.843 26.8051 110.491 26.109C110.15 25.4011 109.979 24.585 109.979 23.661C109.979 22.7371 110.15 21.9271 110.491 21.231C110.843 20.5231 111.323 19.971 111.931 19.575C112.55 19.179 113.249 18.981 114.027 18.981C115.009 18.981 115.83 19.269 116.491 19.845C117.163 20.421 117.595 21.201 117.787 22.185H116.011C115.905 21.6931 115.67 21.309 115.307 21.033C114.945 20.7571 114.518 20.619 114.027 20.619C113.611 20.619 113.227 20.7391 112.875 20.979C112.523 21.2071 112.241 21.5491 112.027 22.005C111.814 22.4491 111.707 23.001 111.707 23.661C111.707 24.3211 111.814 24.8791 112.027 25.335C112.241 25.7791 112.523 26.1211 112.875 26.361C113.227 26.601 113.611 26.721 114.027 26.721C114.518 26.721 114.945 26.583 115.307 26.307C115.67 26.0311 115.905 25.641 116.011 25.137H117.787C117.606 26.097 117.179 26.871 116.507 27.459C115.835 28.0471 115.009 28.341 114.027 28.341ZM119.627 28.125V15.165H121.323V22.887L124.363 19.197H126.395L123.019 23.247L126.891 28.125H124.747L121.323 23.553V28.125H119.627ZM131.307 28.341C130.529 28.341 129.835 28.149 129.227 27.765C128.63 27.369 128.161 26.8231 127.819 26.127C127.478 25.431 127.307 24.621 127.307 23.697C127.307 22.761 127.473 21.939 127.803 21.231C128.145 20.5231 128.614 19.971 129.211 19.575C129.819 19.179 130.523 18.981 131.323 18.981C132.102 18.981 132.779 19.179 133.355 19.575C133.931 19.959 134.379 20.475 134.699 21.123C135.019 21.771 135.179 22.4851 135.179 23.265C135.179 23.3851 135.174 23.517 135.163 23.661C135.163 23.793 135.158 23.9431 135.147 24.111H128.971C129.025 24.975 129.275 25.6351 129.723 26.091C130.182 26.5351 130.71 26.757 131.307 26.757C131.787 26.757 132.187 26.637 132.507 26.397C132.838 26.145 133.083 25.809 133.243 25.389H134.939C134.726 26.2291 134.299 26.9311 133.659 27.495C133.03 28.059 132.246 28.341 131.307 28.341ZM131.307 20.547C130.742 20.547 130.241 20.7391 129.803 21.123C129.366 21.4951 129.099 22.059 129.003 22.815H133.483C133.451 22.119 133.233 21.5671 132.827 21.159C132.422 20.751 131.915 20.547 131.307 20.547ZM136.939 28.125V19.197H138.459L138.603 20.889C138.881 20.301 139.265 19.8391 139.755 19.503C140.257 19.1551 140.859 18.981 141.563 18.981V20.979H141.099C140.63 20.979 140.209 21.069 139.835 21.249C139.473 21.417 139.179 21.7111 138.955 22.131C138.742 22.5391 138.635 23.109 138.635 23.841V28.125H136.939ZM143.081 28.125V15.525H144.777L150.393 25.011V15.525H152.089V28.125H150.393L144.777 18.639V28.125H143.081ZM158.011 28.341C157.232 28.341 156.539 28.149 155.931 27.765C155.333 27.369 154.864 26.8231 154.523 26.127C154.181 25.431 154.011 24.621 154.011 23.697C154.011 22.761 154.176 21.939 154.507 21.231C154.848 20.5231 155.317 19.971 155.915 19.575C156.523 19.179 157.227 18.981 158.027 18.981C158.805 18.981 159.483 19.179 160.059 19.575C160.635 19.959 161.083 20.475 161.403 21.123C161.723 21.771 161.883 22.4851 161.883 23.265C161.883 23.3851 161.877 23.517 161.867 23.661C161.867 23.793 161.861 23.9431 161.851 24.111H155.675C155.728 24.975 155.979 25.6351 156.427 26.091C156.885 26.5351 157.413 26.757 158.011 26.757C158.491 26.757 158.891 26.637 159.211 26.397C159.541 26.145 159.787 25.809 159.947 25.389H161.643C161.429 26.2291 161.003 26.9311 160.363 27.495C159.733 28.059 158.949 28.341 158.011 28.341ZM158.011 20.547C157.445 20.547 156.944 20.7391 156.507 21.123C156.069 21.4951 155.803 22.059 155.707 22.815H160.187C160.155 22.119 159.936 21.5671 159.531 21.159C159.125 20.751 158.619 20.547 158.011 20.547ZM164.914 28.125L162.578 19.197H164.274L165.81 25.929L167.538 19.197H169.426L171.154 25.929L172.69 19.197H174.386L172.05 28.125H170.306L168.482 21.105L166.658 28.125H164.914ZM178.951 28.341C177.948 28.341 177.122 28.0651 176.471 27.513C175.82 26.961 175.447 26.2291 175.351 25.317H177.063C177.148 25.7251 177.351 26.079 177.671 26.379C177.991 26.667 178.412 26.811 178.935 26.811C179.447 26.811 179.82 26.691 180.055 26.451C180.29 26.2111 180.407 25.935 180.407 25.623C180.407 25.1671 180.242 24.8611 179.911 24.705C179.591 24.5371 179.143 24.387 178.567 24.255C178.119 24.147 177.671 24.003 177.223 23.823C176.786 23.643 176.418 23.391 176.119 23.067C175.831 22.731 175.687 22.281 175.687 21.717C175.687 20.9371 175.954 20.2891 176.487 19.773C177.02 19.2451 177.767 18.981 178.727 18.981C179.612 18.981 180.327 19.221 180.871 19.701C181.426 20.1811 181.751 20.859 181.847 21.735H180.215C180.162 21.3511 180.002 21.051 179.735 20.835C179.479 20.619 179.132 20.511 178.695 20.511C178.268 20.511 177.938 20.6131 177.703 20.817C177.468 21.0091 177.351 21.2611 177.351 21.573C177.351 21.885 177.511 22.131 177.831 22.311C178.162 22.491 178.594 22.653 179.127 22.797C179.66 22.929 180.151 23.085 180.599 23.265C181.058 23.433 181.426 23.685 181.703 24.021C181.98 24.3571 182.119 24.849 182.119 25.497C182.13 26.313 181.847 26.991 181.271 27.531C180.706 28.071 179.932 28.341 178.951 28.341Z" fill="#7583FF"/>
</g>
<defs>
<clipPath id="clip0_464_988">
<rect width="202" height="45" fill="white"/>
</clipPath>
</defs>
</svg>
