<svg width="157" height="40" viewBox="0 0 157 40" fill="none" xmlns="http://www.w3.org/2000/svg">
<g clip-path="url(#clip0_464_997)">
<path d="M137 1H20C9.50659 1 1 9.50659 1 20C1 30.4934 9.50659 39 20 39H137C147.493 39 156 30.4934 156 20C156 9.50659 147.493 1 137 1Z" stroke="#EBEAED" stroke-width="2"/>
<path d="M20.5423 25.0005V13.8005H24.4623C25.3369 13.8005 26.0623 13.9498 26.6383 14.2485C27.2143 14.5365 27.6409 14.9365 27.9183 15.4485C28.2063 15.9498 28.3503 16.5205 28.3503 17.1605C28.3503 17.7685 28.2116 18.3285 27.9343 18.8405C27.6676 19.3418 27.2463 19.7418 26.6703 20.0405C26.0943 20.3392 25.3583 20.4885 24.4623 20.4885H22.2383V25.0005H20.5423ZM22.2383 19.0965H24.3823C25.1823 19.0965 25.7529 18.9258 26.0943 18.5845C26.4463 18.2325 26.6223 17.7578 26.6223 17.1605C26.6223 16.5418 26.4463 16.0618 26.0943 15.7205C25.7529 15.3685 25.1823 15.1925 24.3823 15.1925H22.2383V19.0965ZM30.9226 15.5605C30.6026 15.5605 30.336 15.4645 30.1226 15.2725C29.92 15.0698 29.8186 14.8192 29.8186 14.5205C29.8186 14.2218 29.92 13.9765 30.1226 13.7845C30.336 13.5818 30.6026 13.4805 30.9226 13.4805C31.2426 13.4805 31.504 13.5818 31.7066 13.7845C31.92 13.9765 32.0266 14.2218 32.0266 14.5205C32.0266 14.8192 31.92 15.0698 31.7066 15.2725C31.504 15.4645 31.2426 15.5605 30.9226 15.5605ZM30.0746 25.0005V17.0645H31.7706V25.0005H30.0746ZM34.0095 25.0005V17.0645H35.5135L35.6415 18.4565C35.8868 17.9658 36.2442 17.5818 36.7135 17.3045C37.1935 17.0165 37.7428 16.8725 38.3615 16.8725C39.3215 16.8725 40.0735 17.1712 40.6175 17.7685C41.1722 18.3658 41.4495 19.2565 41.4495 20.4405V25.0005H39.7695V20.6165C39.7695 19.0805 39.1402 18.3125 37.8815 18.3125C37.2522 18.3125 36.7295 18.5365 36.3135 18.9845C35.9082 19.4325 35.7055 20.0725 35.7055 20.9045V25.0005H34.0095ZM51.1903 25.1925C50.4329 25.1925 49.7503 25.0218 49.1423 24.6805C48.5449 24.3285 48.0703 23.8432 47.7183 23.2245C47.3663 22.5952 47.1903 21.8645 47.1903 21.0325C47.1903 20.2005 47.3663 19.4752 47.7183 18.8565C48.0809 18.2272 48.5663 17.7418 49.1743 17.4005C49.7823 17.0485 50.4596 16.8725 51.2063 16.8725C51.9636 16.8725 52.6409 17.0485 53.2383 17.4005C53.8463 17.7418 54.3263 18.2272 54.6783 18.8565C55.0409 19.4752 55.2222 20.2005 55.2222 21.0325C55.2222 21.8645 55.0409 22.5952 54.6783 23.2245C54.3263 23.8432 53.8463 24.3285 53.2383 24.6805C52.6303 25.0218 51.9476 25.1925 51.1903 25.1925ZM51.1903 23.7365C51.5956 23.7365 51.9689 23.6352 52.3103 23.4325C52.6623 23.2298 52.9449 22.9312 53.1583 22.5365C53.3716 22.1312 53.4783 21.6298 53.4783 21.0325C53.4783 20.4352 53.3716 19.9392 53.1583 19.5445C52.9556 19.1392 52.6783 18.8352 52.3263 18.6325C51.9849 18.4298 51.6116 18.3285 51.2063 18.3285C50.8009 18.3285 50.4223 18.4298 50.0703 18.6325C49.7289 18.8352 49.4516 19.1392 49.2383 19.5445C49.0249 19.9392 48.9183 20.4352 48.9183 21.0325C48.9183 21.6298 49.0249 22.1312 49.2383 22.5365C49.4516 22.9312 49.7289 23.2298 50.0703 23.4325C50.4116 23.6352 50.7849 23.7365 51.1903 23.7365ZM57.0564 25.0005V17.0645H58.5604L58.6884 18.4565C58.9337 17.9658 59.291 17.5818 59.7604 17.3045C60.2404 17.0165 60.7897 16.8725 61.4084 16.8725C62.3684 16.8725 63.1204 17.1712 63.6644 17.7685C64.219 18.3658 64.4964 19.2565 64.4964 20.4405V25.0005H62.8164V20.6165C62.8164 19.0805 62.187 18.3125 60.9284 18.3125C60.299 18.3125 59.7764 18.5365 59.3604 18.9845C58.955 19.4325 58.7524 20.0725 58.7524 20.9045V25.0005H57.0564ZM70.5891 25.0005V13.8005H74.5091C75.3838 13.8005 76.1091 13.9498 76.6851 14.2485C77.2611 14.5365 77.6878 14.9365 77.9651 15.4485C78.2531 15.9498 78.3971 16.5205 78.3971 17.1605C78.3971 17.7685 78.2585 18.3285 77.9811 18.8405C77.7145 19.3418 77.2931 19.7418 76.7171 20.0405C76.1411 20.3392 75.4051 20.4885 74.5091 20.4885H72.2851V25.0005H70.5891ZM72.2851 19.0965H74.4291C75.2291 19.0965 75.7998 18.9258 76.1411 18.5845C76.4931 18.2325 76.6691 17.7578 76.6691 17.1605C76.6691 16.5418 76.4931 16.0618 76.1411 15.7205C75.7998 15.3685 75.2291 15.1925 74.4291 15.1925H72.2851V19.0965ZM80.9695 15.5605C80.6495 15.5605 80.3828 15.4645 80.1695 15.2725C79.9668 15.0698 79.8655 14.8192 79.8655 14.5205C79.8655 14.2218 79.9668 13.9765 80.1695 13.7845C80.3828 13.5818 80.6495 13.4805 80.9695 13.4805C81.2895 13.4805 81.5508 13.5818 81.7535 13.7845C81.9668 13.9765 82.0735 14.2218 82.0735 14.5205C82.0735 14.8192 81.9668 15.0698 81.7535 15.2725C81.5508 15.4645 81.2895 15.5605 80.9695 15.5605ZM80.1215 25.0005V17.0645H81.8175V25.0005H80.1215ZM84.0564 25.0005V17.0645H85.5604L85.6884 18.4565C85.9337 17.9658 86.291 17.5818 86.7604 17.3045C87.2404 17.0165 87.7897 16.8725 88.4084 16.8725C89.3684 16.8725 90.1204 17.1712 90.6644 17.7685C91.219 18.3658 91.4964 19.2565 91.4964 20.4405V25.0005H89.8164V20.6165C89.8164 19.0805 89.187 18.3125 87.9284 18.3125C87.299 18.3125 86.7764 18.5365 86.3604 18.9845C85.955 19.4325 85.7524 20.0725 85.7524 20.9045V25.0005H84.0564ZM96.8219 25.0005C96.0432 25.0005 95.4245 24.8138 94.9659 24.4405C94.5072 24.0565 94.2779 23.3792 94.2779 22.4085V18.4885H92.9179V17.0645H94.2779L94.4859 15.0485H95.9739V17.0645H98.2139V18.4885H95.9739V22.4085C95.9739 22.8458 96.0645 23.1498 96.2459 23.3205C96.4379 23.4805 96.7632 23.5605 97.2219 23.5605H98.1339V25.0005H96.8219ZM103.472 25.1925C102.693 25.1925 102 25.0218 101.392 24.6805C100.794 24.3285 100.325 23.8432 99.9835 23.2245C99.6422 22.6058 99.4715 21.8858 99.4715 21.0645C99.4715 20.2325 99.6368 19.5018 99.9675 18.8725C100.309 18.2432 100.778 17.7525 101.376 17.4005C101.984 17.0485 102.688 16.8725 103.488 16.8725C104.266 16.8725 104.944 17.0485 105.52 17.4005C106.096 17.7418 106.544 18.2005 106.864 18.7765C107.184 19.3525 107.344 19.9872 107.344 20.6805C107.344 20.7872 107.338 20.9045 107.328 21.0325C107.328 21.1498 107.322 21.2832 107.312 21.4325H101.136C101.189 22.2005 101.44 22.7872 101.888 23.1925C102.346 23.5872 102.874 23.7845 103.472 23.7845C103.952 23.7845 104.352 23.6778 104.672 23.4645C105.002 23.2405 105.248 22.9418 105.408 22.5685H107.104C106.89 23.3152 106.464 23.9392 105.824 24.4405C105.194 24.9418 104.41 25.1925 103.472 25.1925ZM103.472 18.2645C102.906 18.2645 102.405 18.4352 101.968 18.7765C101.53 19.1072 101.264 19.6085 101.168 20.2805H105.648C105.616 19.6618 105.397 19.1712 104.992 18.8085C104.586 18.4458 104.08 18.2645 103.472 18.2645ZM109.103 25.0005V17.0645H110.623L110.767 18.5685C111.045 18.0458 111.429 17.6352 111.919 17.3365C112.421 17.0272 113.023 16.8725 113.727 16.8725V18.6485H113.263C112.794 18.6485 112.373 18.7285 111.999 18.8885C111.637 19.0378 111.343 19.2992 111.119 19.6725C110.906 20.0352 110.799 20.5418 110.799 21.1925V25.0005H109.103ZM118.675 25.1925C117.896 25.1925 117.203 25.0218 116.595 24.6805C115.997 24.3285 115.528 23.8432 115.187 23.2245C114.845 22.6058 114.675 21.8858 114.675 21.0645C114.675 20.2325 114.84 19.5018 115.171 18.8725C115.512 18.2432 115.981 17.7525 116.579 17.4005C117.187 17.0485 117.891 16.8725 118.691 16.8725C119.469 16.8725 120.147 17.0485 120.723 17.4005C121.299 17.7418 121.747 18.2005 122.067 18.7765C122.387 19.3525 122.547 19.9872 122.547 20.6805C122.547 20.7872 122.541 20.9045 122.531 21.0325C122.531 21.1498 122.525 21.2832 122.515 21.4325H116.339C116.392 22.2005 116.643 22.7872 117.091 23.1925C117.549 23.5872 118.077 23.7845 118.675 23.7845C119.155 23.7845 119.555 23.6778 119.875 23.4645C120.205 23.2405 120.451 22.9418 120.611 22.5685H122.307C122.093 23.3152 121.667 23.9392 121.027 24.4405C120.397 24.9418 119.613 25.1925 118.675 25.1925ZM118.675 18.2645C118.109 18.2645 117.608 18.4352 117.171 18.7765C116.733 19.1072 116.467 19.6085 116.371 20.2805H120.851C120.819 19.6618 120.6 19.1712 120.195 18.8085C119.789 18.4458 119.283 18.2645 118.675 18.2645ZM127.474 25.1925C126.472 25.1925 125.645 24.9472 124.994 24.4565C124.344 23.9658 123.97 23.3152 123.874 22.5045H125.586C125.672 22.8672 125.874 23.1818 126.194 23.4485C126.514 23.7045 126.936 23.8325 127.458 23.8325C127.97 23.8325 128.344 23.7258 128.578 23.5125C128.813 23.2992 128.93 23.0538 128.93 22.7765C128.93 22.3712 128.765 22.0992 128.434 21.9605C128.114 21.8112 127.666 21.6778 127.09 21.5605C126.642 21.4645 126.194 21.3365 125.746 21.1765C125.309 21.0165 124.941 20.7925 124.642 20.5045C124.354 20.2058 124.21 19.8058 124.21 19.3045C124.21 18.6112 124.477 18.0352 125.01 17.5765C125.544 17.1072 126.29 16.8725 127.25 16.8725C128.136 16.8725 128.85 17.0858 129.394 17.5125C129.949 17.9392 130.274 18.5418 130.37 19.3205H128.738C128.685 18.9792 128.525 18.7125 128.258 18.5205C128.002 18.3285 127.656 18.2325 127.218 18.2325C126.792 18.2325 126.461 18.3232 126.226 18.5045C125.992 18.6752 125.874 18.8992 125.874 19.1765C125.874 19.4538 126.034 19.6725 126.354 19.8325C126.685 19.9925 127.117 20.1365 127.65 20.2645C128.184 20.3818 128.674 20.5205 129.122 20.6805C129.581 20.8298 129.949 21.0538 130.226 21.3525C130.504 21.6512 130.642 22.0885 130.642 22.6645C130.653 23.3898 130.37 23.9925 129.794 24.4725C129.229 24.9525 128.456 25.1925 127.474 25.1925ZM135.525 25.0005C134.746 25.0005 134.128 24.8138 133.669 24.4405C133.21 24.0565 132.981 23.3792 132.981 22.4085V18.4885H131.621V17.0645H132.981L133.189 15.0485H134.677V17.0645H136.917V18.4885H134.677V22.4085C134.677 22.8458 134.768 23.1498 134.949 23.3205C135.141 23.4805 135.466 23.5605 135.925 23.5605H136.837V25.0005H135.525Z" fill="white"/>
</g>
<defs>
<clipPath id="clip0_464_997">
<rect width="157" height="40" fill="white"/>
</clipPath>
</defs>
</svg>
