<svg width="184" height="40" viewBox="0 0 184 40" fill="none" xmlns="http://www.w3.org/2000/svg">
<g clip-path="url(#clip0_464_1008)">
<path d="M164 1H20C9.50659 1 1 9.50659 1 20C1 30.4934 9.50659 39 20 39H164C174.493 39 183 30.4934 183 20C183 9.50659 174.493 1 164 1Z" stroke="#EBEAED" stroke-width="2"/>
<path d="M24.0351 25.1925C23.2138 25.1925 22.4938 25.0485 21.8751 24.7605C21.2565 24.4725 20.7711 24.0618 20.4191 23.5285C20.0778 22.9952 19.9018 22.3605 19.8911 21.6245H21.6831C21.6938 22.2218 21.9018 22.7285 22.3071 23.1445C22.7125 23.5605 23.2831 23.7685 24.0191 23.7685C24.6698 23.7685 25.1765 23.6138 25.5391 23.3045C25.9125 22.9845 26.0991 22.5792 26.0991 22.0885C26.0991 21.6938 26.0085 21.3738 25.8271 21.1285C25.6565 20.8832 25.4165 20.6805 25.1071 20.5205C24.8085 20.3605 24.4618 20.2165 24.0671 20.0885C23.6725 19.9605 23.2565 19.8218 22.8191 19.6725C21.9551 19.3845 21.3045 19.0112 20.8671 18.5525C20.4405 18.0938 20.2271 17.4912 20.2271 16.7445C20.2165 16.1152 20.3605 15.5658 20.6591 15.0965C20.9685 14.6272 21.3951 14.2645 21.9391 14.0085C22.4938 13.7418 23.1391 13.6085 23.8751 13.6085C24.6005 13.6085 25.2351 13.7418 25.7791 14.0085C26.3338 14.2752 26.7658 14.6485 27.0751 15.1285C27.3845 15.5978 27.5445 16.1472 27.5551 16.7765H25.7631C25.7631 16.4885 25.6885 16.2165 25.5391 15.9605C25.3898 15.6938 25.1711 15.4752 24.8831 15.3045C24.5951 15.1338 24.2431 15.0485 23.8271 15.0485C23.2938 15.0378 22.8511 15.1712 22.4991 15.4485C22.1578 15.7258 21.9871 16.1098 21.9871 16.6005C21.9871 17.0378 22.1151 17.3738 22.3711 17.6085C22.6271 17.8432 22.9791 18.0405 23.4271 18.2005C23.8751 18.3498 24.3871 18.5258 24.9631 18.7285C25.5178 18.9098 26.0138 19.1285 26.4511 19.3845C26.8885 19.6405 27.2351 19.9765 27.4911 20.3925C27.7578 20.8085 27.8911 21.3365 27.8911 21.9765C27.8911 22.5418 27.7471 23.0698 27.4591 23.5605C27.1711 24.0405 26.7391 24.4352 26.1631 24.7445C25.5871 25.0432 24.8778 25.1925 24.0351 25.1925ZM33.3934 25.1925C32.6147 25.1925 31.9214 25.0218 31.3134 24.6805C30.716 24.3285 30.2467 23.8432 29.9054 23.2245C29.564 22.6058 29.3934 21.8858 29.3934 21.0645C29.3934 20.2325 29.5587 19.5018 29.8894 18.8725C30.2307 18.2432 30.7 17.7525 31.2974 17.4005C31.9054 17.0485 32.6094 16.8725 33.4094 16.8725C34.188 16.8725 34.8654 17.0485 35.4414 17.4005C36.0174 17.7418 36.4654 18.2005 36.7854 18.7765C37.1054 19.3525 37.2654 19.9872 37.2654 20.6805C37.2654 20.7872 37.26 20.9045 37.2494 21.0325C37.2494 21.1498 37.244 21.2832 37.2334 21.4325H31.0574C31.1107 22.2005 31.3614 22.7872 31.8094 23.1925C32.268 23.5872 32.796 23.7845 33.3934 23.7845C33.8734 23.7845 34.2734 23.6778 34.5934 23.4645C34.924 23.2405 35.1694 22.9418 35.3294 22.5685H37.0254C36.812 23.3152 36.3854 23.9392 35.7454 24.4405C35.116 24.9418 34.332 25.1925 33.3934 25.1925ZM33.3934 18.2645C32.828 18.2645 32.3267 18.4352 31.8894 18.7765C31.452 19.1072 31.1854 19.6085 31.0894 20.2805H35.5694C35.5374 19.6618 35.3187 19.1712 34.9134 18.8085C34.508 18.4458 34.0014 18.2645 33.3934 18.2645ZM39.0251 25.0005V17.0645H40.5291L40.6571 18.4565C40.9025 17.9658 41.2598 17.5818 41.7291 17.3045C42.2091 17.0165 42.7585 16.8725 43.3771 16.8725C44.3371 16.8725 45.0891 17.1712 45.6331 17.7685C46.1878 18.3658 46.4651 19.2565 46.4651 20.4405V25.0005H44.7851V20.6165C44.7851 19.0805 44.1558 18.3125 42.8971 18.3125C42.2678 18.3125 41.7451 18.5365 41.3291 18.9845C40.9238 19.4325 40.7211 20.0725 40.7211 20.9045V25.0005H39.0251ZM52.0786 25.1925C51.3106 25.1925 50.6333 25.0112 50.0466 24.6485C49.46 24.2858 49.0013 23.7898 48.6706 23.1605C48.34 22.5312 48.1746 21.8165 48.1746 21.0165C48.1746 20.2165 48.34 19.5072 48.6706 18.8885C49.0013 18.2592 49.46 17.7685 50.0466 17.4165C50.644 17.0538 51.3266 16.8725 52.0946 16.8725C52.724 16.8725 53.2733 16.9952 53.7426 17.2405C54.2226 17.4858 54.596 17.8325 54.8626 18.2805V13.4805H56.5586V25.0005H55.0386L54.8626 23.7685C54.6066 24.1418 54.2546 24.4725 53.8066 24.7605C53.3586 25.0485 52.7826 25.1925 52.0786 25.1925ZM52.3826 23.7205C53.108 23.7205 53.7 23.4698 54.1586 22.9685C54.628 22.4672 54.8626 21.8218 54.8626 21.0325C54.8626 20.2325 54.628 19.5872 54.1586 19.0965C53.7 18.5952 53.108 18.3445 52.3826 18.3445C51.6573 18.3445 51.06 18.5952 50.5906 19.0965C50.1213 19.5872 49.8866 20.2325 49.8866 21.0325C49.8866 21.5552 49.9933 22.0192 50.2066 22.4245C50.42 22.8298 50.7133 23.1498 51.0866 23.3845C51.4706 23.6085 51.9026 23.7205 52.3826 23.7205ZM66.4403 25.1925C65.6829 25.1925 65.0003 25.0218 64.3923 24.6805C63.7949 24.3285 63.3203 23.8432 62.9683 23.2245C62.6163 22.5952 62.4403 21.8645 62.4403 21.0325C62.4403 20.2005 62.6163 19.4752 62.9683 18.8565C63.3309 18.2272 63.8163 17.7418 64.4243 17.4005C65.0323 17.0485 65.7096 16.8725 66.4563 16.8725C67.2136 16.8725 67.8909 17.0485 68.4883 17.4005C69.0963 17.7418 69.5763 18.2272 69.9283 18.8565C70.2909 19.4752 70.4722 20.2005 70.4722 21.0325C70.4722 21.8645 70.2909 22.5952 69.9283 23.2245C69.5763 23.8432 69.0963 24.3285 68.4883 24.6805C67.8803 25.0218 67.1976 25.1925 66.4403 25.1925ZM66.4403 23.7365C66.8456 23.7365 67.2189 23.6352 67.5603 23.4325C67.9123 23.2298 68.1949 22.9312 68.4083 22.5365C68.6216 22.1312 68.7283 21.6298 68.7283 21.0325C68.7283 20.4352 68.6216 19.9392 68.4083 19.5445C68.2056 19.1392 67.9283 18.8352 67.5763 18.6325C67.2349 18.4298 66.8616 18.3285 66.4563 18.3285C66.0509 18.3285 65.6723 18.4298 65.3203 18.6325C64.9789 18.8352 64.7016 19.1392 64.4883 19.5445C64.2749 19.9392 64.1683 20.4352 64.1683 21.0325C64.1683 21.6298 64.2749 22.1312 64.4883 22.5365C64.7016 22.9312 64.9789 23.2298 65.3203 23.4325C65.6616 23.6352 66.0349 23.7365 66.4403 23.7365ZM72.3064 25.0005V17.0645H73.8104L73.9384 18.4565C74.1837 17.9658 74.541 17.5818 75.0104 17.3045C75.4904 17.0165 76.0397 16.8725 76.6584 16.8725C77.6184 16.8725 78.3704 17.1712 78.9144 17.7685C79.469 18.3658 79.7464 19.2565 79.7464 20.4405V25.0005H78.0664V20.6165C78.0664 19.0805 77.437 18.3125 76.1784 18.3125C75.549 18.3125 75.0264 18.5365 74.6104 18.9845C74.205 19.4325 74.0024 20.0725 74.0024 20.9045V25.0005H72.3064ZM88.1271 25.0165L85.1031 13.8005H86.9271L89.1511 23.0805L91.7111 13.8005H93.5831L96.0631 23.0805L98.2871 13.8005H100.111L97.0391 25.0005H95.0551L92.6071 16.2165L90.0791 25.0005L88.1271 25.0165ZM101.603 25.0005V13.4805H103.299V18.3445C103.566 17.8858 103.934 17.5285 104.403 17.2725C104.883 17.0058 105.411 16.8725 105.987 16.8725C106.937 16.8725 107.683 17.1712 108.227 17.7685C108.771 18.3658 109.043 19.2565 109.043 20.4405V25.0005H107.363V20.6165C107.363 19.0805 106.75 18.3125 105.523 18.3125C104.883 18.3125 104.35 18.5365 103.923 18.9845C103.507 19.4325 103.299 20.0725 103.299 20.9045V25.0005H101.603ZM113.729 25.1925C113.057 25.1925 112.502 25.0805 112.065 24.8565C111.627 24.6325 111.302 24.3392 111.089 23.9765C110.875 23.6032 110.769 23.1978 110.769 22.7605C110.769 21.9925 111.067 21.3845 111.665 20.9365C112.262 20.4885 113.115 20.2645 114.225 20.2645H116.305V20.1205C116.305 19.5018 116.134 19.0378 115.793 18.7285C115.462 18.4192 115.03 18.2645 114.497 18.2645C114.027 18.2645 113.617 18.3818 113.265 18.6165C112.923 18.8405 112.715 19.1765 112.641 19.6245H110.945C110.998 19.0485 111.19 18.5578 111.521 18.1525C111.862 17.7365 112.289 17.4218 112.801 17.2085C113.323 16.9845 113.894 16.8725 114.513 16.8725C115.622 16.8725 116.481 17.1658 117.089 17.7525C117.697 18.3285 118.001 19.1178 118.001 20.1205V25.0005H116.529L116.385 23.6405C116.161 24.0778 115.835 24.4458 115.409 24.7445C114.982 25.0432 114.422 25.1925 113.729 25.1925ZM114.065 23.8165C114.523 23.8165 114.907 23.7098 115.217 23.4965C115.537 23.2725 115.782 22.9792 115.953 22.6165C116.134 22.2538 116.246 21.8538 116.289 21.4165H114.401C113.729 21.4165 113.249 21.5338 112.961 21.7685C112.683 22.0032 112.545 22.2965 112.545 22.6485C112.545 23.0112 112.678 23.2992 112.945 23.5125C113.222 23.7152 113.595 23.8165 114.065 23.8165ZM123.15 25.0005C122.371 25.0005 121.753 24.8138 121.294 24.4405C120.835 24.0565 120.606 23.3792 120.606 22.4085V18.4885H119.246V17.0645H120.606L120.814 15.0485H122.302V17.0645H124.542V18.4885H122.302V22.4085C122.302 22.8458 122.393 23.1498 122.574 23.3205C122.766 23.4805 123.091 23.5605 123.55 23.5605H124.462V25.0005H123.15ZM129.459 25.1925C128.456 25.1925 127.629 24.9472 126.979 24.4565C126.328 23.9658 125.955 23.3152 125.859 22.5045H127.571C127.656 22.8672 127.859 23.1818 128.179 23.4485C128.499 23.7045 128.92 23.8325 129.443 23.8325C129.955 23.8325 130.328 23.7258 130.563 23.5125C130.797 23.2992 130.915 23.0538 130.915 22.7765C130.915 22.3712 130.749 22.0992 130.419 21.9605C130.099 21.8112 129.651 21.6778 129.075 21.5605C128.627 21.4645 128.179 21.3365 127.731 21.1765C127.293 21.0165 126.925 20.7925 126.627 20.5045C126.339 20.2058 126.195 19.8058 126.195 19.3045C126.195 18.6112 126.461 18.0352 126.995 17.5765C127.528 17.1072 128.275 16.8725 129.235 16.8725C130.12 16.8725 130.835 17.0858 131.379 17.5125C131.933 17.9392 132.259 18.5418 132.355 19.3205H130.723C130.669 18.9792 130.509 18.7125 130.243 18.5205C129.987 18.3285 129.64 18.2325 129.203 18.2325C128.776 18.2325 128.445 18.3232 128.211 18.5045C127.976 18.6752 127.859 18.8992 127.859 19.1765C127.859 19.4538 128.019 19.6725 128.339 19.8325C128.669 19.9925 129.101 20.1365 129.635 20.2645C130.168 20.3818 130.659 20.5205 131.107 20.6805C131.565 20.8298 131.933 21.0538 132.211 21.3525C132.488 21.6512 132.627 22.0885 132.627 22.6645C132.637 23.3898 132.355 23.9925 131.779 24.4725C131.213 24.9525 130.44 25.1925 129.459 25.1925ZM133.822 25.0005L137.95 13.8005H139.806L143.902 25.0005H142.11L141.15 22.2645H136.574L135.614 25.0005H133.822ZM137.054 20.9205H140.67L138.862 15.8165L137.054 20.9205ZM145.4 28.5205V17.0645H146.92L147.096 18.2965C147.352 17.9232 147.704 17.5925 148.152 17.3045C148.6 17.0165 149.176 16.8725 149.88 16.8725C150.648 16.8725 151.325 17.0538 151.912 17.4165C152.499 17.7792 152.957 18.2752 153.288 18.9045C153.629 19.5338 153.8 20.2485 153.8 21.0485C153.8 21.8485 153.629 22.5632 153.288 23.1925C152.957 23.8112 152.499 24.3018 151.912 24.6645C151.325 25.0165 150.643 25.1925 149.864 25.1925C149.245 25.1925 148.696 25.0698 148.216 24.8245C147.747 24.5792 147.373 24.2325 147.096 23.7845V28.5205H145.4ZM149.576 23.7205C150.301 23.7205 150.899 23.4752 151.368 22.9845C151.837 22.4832 152.072 21.8325 152.072 21.0325C152.072 20.5098 151.965 20.0458 151.752 19.6405C151.539 19.2352 151.245 18.9205 150.872 18.6965C150.499 18.4618 150.067 18.3445 149.576 18.3445C148.851 18.3445 148.253 18.5952 147.784 19.0965C147.325 19.5978 147.096 20.2432 147.096 21.0325C147.096 21.8325 147.325 22.4832 147.784 22.9845C148.253 23.4752 148.851 23.7205 149.576 23.7205ZM155.635 28.5205V17.0645H157.155L157.331 18.2965C157.587 17.9232 157.939 17.5925 158.387 17.3045C158.835 17.0165 159.411 16.8725 160.115 16.8725C160.883 16.8725 161.56 17.0538 162.147 17.4165C162.733 17.7792 163.192 18.2752 163.523 18.9045C163.864 19.5338 164.035 20.2485 164.035 21.0485C164.035 21.8485 163.864 22.5632 163.523 23.1925C163.192 23.8112 162.733 24.3018 162.147 24.6645C161.56 25.0165 160.877 25.1925 160.099 25.1925C159.48 25.1925 158.931 25.0698 158.451 24.8245C157.981 24.5792 157.608 24.2325 157.331 23.7845V28.5205H155.635ZM159.811 23.7205C160.536 23.7205 161.133 23.4752 161.603 22.9845C162.072 22.4832 162.307 21.8325 162.307 21.0325C162.307 20.5098 162.2 20.0458 161.987 19.6405C161.773 19.2352 161.48 18.9205 161.107 18.6965C160.733 18.4618 160.301 18.3445 159.811 18.3445C159.085 18.3445 158.488 18.5952 158.019 19.0965C157.56 19.5978 157.331 20.2432 157.331 21.0325C157.331 21.8325 157.56 22.4832 158.019 22.9845C158.488 23.4752 159.085 23.7205 159.811 23.7205Z" fill="white"/>
</g>
<defs>
<clipPath id="clip0_464_1008">
<rect width="184" height="40" fill="white"/>
</clipPath>
</defs>
</svg>
