<svg width="172" height="45" viewBox="0 0 172 45" fill="none" xmlns="http://www.w3.org/2000/svg">
<g clip-path="url(#clip0_464_991)">
<path d="M152 1.125H20C9.50659 1.125 1 10.6949 1 22.5C1 34.3051 9.50659 43.875 20 43.875H152C162.493 43.875 171 34.3051 171 22.5C171 10.6949 162.493 1.125 152 1.125Z" stroke="#EBEAED" stroke-width="2"/>
<path d="M24.2773 28.341C23.456 28.341 22.736 28.179 22.1173 27.855C21.4986 27.531 21.0133 27.069 20.6613 26.469C20.32 25.8691 20.144 25.155 20.1333 24.327H21.9253C21.936 24.999 22.144 25.569 22.5493 26.037C22.9546 26.505 23.5253 26.739 24.2613 26.739C24.912 26.739 25.4186 26.565 25.7813 26.217C26.1546 25.857 26.3413 25.4011 26.3413 24.849C26.3413 24.405 26.2506 24.045 26.0693 23.769C25.8986 23.4931 25.6586 23.265 25.3493 23.085C25.0506 22.905 24.704 22.743 24.3093 22.599C23.9146 22.455 23.4986 22.299 23.0613 22.131C22.1973 21.807 21.5466 21.3871 21.1093 20.871C20.6826 20.355 20.4693 19.6771 20.4693 18.837C20.4586 18.1291 20.6026 17.511 20.9013 16.983C21.2106 16.4551 21.6373 16.047 22.1813 15.759C22.736 15.459 23.3813 15.309 24.1173 15.309C24.8426 15.309 25.4773 15.459 26.0213 15.759C26.576 16.0591 27.008 16.479 27.3173 17.019C27.6266 17.547 27.7866 18.1651 27.7973 18.873H26.0053C26.0053 18.549 25.9306 18.243 25.7813 17.955C25.632 17.655 25.4133 17.4091 25.1253 17.217C24.8373 17.025 24.4853 16.929 24.0693 16.929C23.536 16.917 23.0933 17.0671 22.7413 17.379C22.4 17.691 22.2293 18.123 22.2293 18.675C22.2293 19.167 22.3573 19.545 22.6133 19.809C22.8693 20.0731 23.2213 20.295 23.6693 20.475C24.1173 20.643 24.6293 20.841 25.2053 21.069C25.76 21.273 26.256 21.519 26.6933 21.807C27.1306 22.095 27.4773 22.473 27.7333 22.941C28 23.409 28.1333 24.003 28.1333 24.723C28.1333 25.359 27.9893 25.953 27.7013 26.505C27.4133 27.045 26.9813 27.4891 26.4053 27.837C25.8293 28.1731 25.12 28.341 24.2773 28.341ZM29.9236 28.125V15.165H31.6196V20.637C31.8862 20.121 32.2542 19.719 32.7236 19.431C33.2036 19.131 33.7316 18.981 34.3076 18.981C35.2569 18.981 36.0036 19.3171 36.5476 19.989C37.0916 20.661 37.3636 21.663 37.3636 22.995V28.125H35.6836V23.193C35.6836 21.465 35.0702 20.601 33.8436 20.601C33.2036 20.601 32.6702 20.853 32.2436 21.357C31.8276 21.861 31.6196 22.581 31.6196 23.517V28.125H29.9236ZM42.0491 28.341C41.3771 28.341 40.8224 28.215 40.3851 27.963C39.9477 27.711 39.6224 27.3811 39.4091 26.973C39.1957 26.5531 39.0891 26.097 39.0891 25.605C39.0891 24.741 39.3877 24.057 39.9851 23.553C40.5824 23.049 41.4357 22.797 42.5451 22.797H44.6251V22.635C44.6251 21.939 44.4544 21.417 44.1131 21.069C43.7824 20.7211 43.3504 20.547 42.8171 20.547C42.3477 20.547 41.9371 20.679 41.5851 20.943C41.2437 21.195 41.0357 21.573 40.9611 22.077H39.2651C39.3184 21.429 39.5104 20.877 39.8411 20.421C40.1824 19.953 40.6091 19.599 41.1211 19.359C41.6437 19.107 42.2144 18.981 42.8331 18.981C43.9424 18.981 44.8011 19.311 45.4091 19.971C46.0171 20.619 46.3211 21.507 46.3211 22.635V28.125H44.8491L44.7051 26.595C44.4811 27.087 44.1557 27.501 43.7291 27.837C43.3024 28.1731 42.7424 28.341 42.0491 28.341ZM42.3851 26.793C42.8437 26.793 43.2277 26.673 43.5371 26.433C43.8571 26.181 44.1024 25.8511 44.2731 25.443C44.4544 25.035 44.5664 24.585 44.6091 24.093H42.7211C42.0491 24.093 41.5691 24.225 41.2811 24.489C41.0037 24.7531 40.8651 25.083 40.8651 25.479C40.8651 25.8871 40.9984 26.2111 41.2651 26.451C41.5424 26.6791 41.9157 26.793 42.3851 26.793ZM48.2986 28.125V19.197H49.8186L49.9626 20.889C50.2399 20.301 50.6239 19.8391 51.1146 19.503C51.6159 19.1551 52.2186 18.981 52.9226 18.981V20.979H52.4586C51.9892 20.979 51.5679 21.069 51.1946 21.249C50.8319 21.417 50.5386 21.7111 50.3146 22.131C50.1012 22.5391 49.9946 23.109 49.9946 23.841V28.125H48.2986ZM57.8699 28.341C57.0913 28.341 56.3979 28.149 55.7899 27.765C55.1926 27.369 54.7233 26.8231 54.3819 26.127C54.0406 25.431 53.8699 24.621 53.8699 23.697C53.8699 22.761 54.0353 21.939 54.3659 21.231C54.7073 20.5231 55.1766 19.971 55.7739 19.575C56.3819 19.179 57.0859 18.981 57.8859 18.981C58.6646 18.981 59.3419 19.179 59.9179 19.575C60.4939 19.959 60.9419 20.475 61.2619 21.123C61.5819 21.771 61.7419 22.4851 61.7419 23.265C61.7419 23.3851 61.7366 23.517 61.7259 23.661C61.7259 23.793 61.7206 23.9431 61.7099 24.111H55.5339C55.5873 24.975 55.8379 25.6351 56.2859 26.091C56.7446 26.5351 57.2726 26.757 57.8699 26.757C58.3499 26.757 58.7499 26.637 59.0699 26.397C59.4006 26.145 59.6459 25.809 59.8059 25.389H61.5019C61.2886 26.2291 60.8619 26.9311 60.2219 27.495C59.5926 28.059 58.8086 28.341 57.8699 28.341ZM57.8699 20.547C57.3046 20.547 56.8033 20.7391 56.3659 21.123C55.9286 21.4951 55.6619 22.059 55.5659 22.815H60.0459C60.0139 22.119 59.7953 21.5671 59.3899 21.159C58.9846 20.751 58.4779 20.547 57.8699 20.547ZM71.2449 28.341C70.4876 28.341 69.8049 28.149 69.1969 27.765C68.5996 27.369 68.1249 26.8231 67.7729 26.127C67.4209 25.4191 67.2449 24.597 67.2449 23.661C67.2449 22.725 67.4209 21.9091 67.7729 21.213C68.1356 20.5051 68.6209 19.959 69.2289 19.575C69.8369 19.179 70.5143 18.981 71.2609 18.981C72.0183 18.981 72.6956 19.179 73.2929 19.575C73.9009 19.959 74.3809 20.5051 74.7329 21.213C75.0956 21.9091 75.2769 22.725 75.2769 23.661C75.2769 24.597 75.0956 25.4191 74.7329 26.127C74.3809 26.8231 73.9009 27.369 73.2929 27.765C72.6849 28.149 72.0023 28.341 71.2449 28.341ZM71.2449 26.703C71.6503 26.703 72.0236 26.5891 72.3649 26.361C72.7169 26.133 72.9996 25.7971 73.2129 25.353C73.4263 24.8971 73.5329 24.333 73.5329 23.661C73.5329 22.9891 73.4263 22.4311 73.2129 21.987C73.0103 21.5311 72.7329 21.1891 72.3809 20.961C72.0396 20.733 71.6663 20.619 71.2609 20.619C70.8556 20.619 70.4769 20.733 70.1249 20.961C69.7836 21.1891 69.5063 21.5311 69.2929 21.987C69.0796 22.4311 68.9729 22.9891 68.9729 23.661C68.9729 24.333 69.0796 24.8971 69.2929 25.353C69.5063 25.7971 69.7836 26.133 70.1249 26.361C70.4663 26.5891 70.8396 26.703 71.2449 26.703ZM77.1111 28.125V19.197H78.6151L78.7431 20.763C78.9884 20.211 79.3457 19.779 79.8151 19.467C80.2951 19.143 80.8444 18.981 81.4631 18.981C82.4231 18.981 83.1751 19.3171 83.7191 19.989C84.2737 20.661 84.5511 21.663 84.5511 22.995V28.125H82.8711V23.193C82.8711 21.465 82.2417 20.601 80.9831 20.601C80.3537 20.601 79.8311 20.853 79.4151 21.357C79.0097 21.861 78.8071 22.581 78.8071 23.517V28.125H77.1111ZM90.6438 28.125V15.525H92.3398V26.613H97.4278V28.125H90.6438ZM100.149 17.505C99.8292 17.505 99.5625 17.397 99.3492 17.181C99.1465 16.953 99.0452 16.6711 99.0452 16.335C99.0452 15.999 99.1465 15.723 99.3492 15.507C99.5625 15.279 99.8292 15.165 100.149 15.165C100.469 15.165 100.731 15.279 100.933 15.507C101.147 15.723 101.253 15.999 101.253 16.335C101.253 16.6711 101.147 16.953 100.933 17.181C100.731 17.397 100.469 17.505 100.149 17.505ZM99.3012 28.125V19.197H100.997V28.125H99.3012ZM103.236 28.125V19.197H104.74L104.868 20.763C105.113 20.211 105.471 19.779 105.94 19.467C106.42 19.143 106.969 18.981 107.588 18.981C108.548 18.981 109.3 19.3171 109.844 19.989C110.399 20.661 110.676 21.663 110.676 22.995V28.125H108.996V23.193C108.996 21.465 108.367 20.601 107.108 20.601C106.479 20.601 105.956 20.853 105.54 21.357C105.135 21.861 104.932 22.581 104.932 23.517V28.125H103.236ZM112.674 28.125V15.165H114.37V22.887L117.41 19.197H119.442L116.066 23.247L119.938 28.125H117.794L114.37 23.553V28.125H112.674ZM124.354 28.341C123.576 28.341 122.882 28.149 122.274 27.765C121.677 27.369 121.208 26.8231 120.866 26.127C120.525 25.431 120.354 24.621 120.354 23.697C120.354 22.761 120.52 21.939 120.85 21.231C121.192 20.5231 121.661 19.971 122.258 19.575C122.866 19.179 123.57 18.981 124.37 18.981C125.149 18.981 125.826 19.179 126.402 19.575C126.978 19.959 127.426 20.475 127.746 21.123C128.066 21.771 128.226 22.4851 128.226 23.265C128.226 23.3851 128.221 23.517 128.21 23.661C128.21 23.793 128.205 23.9431 128.194 24.111H122.018C122.072 24.975 122.322 25.6351 122.77 26.091C123.229 26.5351 123.757 26.757 124.354 26.757C124.834 26.757 125.234 26.637 125.554 26.397C125.885 26.145 126.13 25.809 126.29 25.389H127.986C127.773 26.2291 127.346 26.9311 126.706 27.495C126.077 28.059 125.293 28.341 124.354 28.341ZM124.354 20.547C123.789 20.547 123.288 20.7391 122.85 21.123C122.413 21.4951 122.146 22.059 122.05 22.815H126.53C126.498 22.119 126.28 21.5671 125.874 21.159C125.469 20.751 124.962 20.547 124.354 20.547ZM133.602 28.341C132.834 28.341 132.157 28.1371 131.57 27.729C130.983 27.321 130.525 26.763 130.194 26.055C129.863 25.3471 129.698 24.543 129.698 23.643C129.698 22.743 129.863 21.9451 130.194 21.249C130.525 20.5411 130.983 19.989 131.57 19.593C132.167 19.185 132.85 18.981 133.618 18.981C134.247 18.981 134.797 19.1191 135.266 19.395C135.746 19.671 136.119 20.061 136.386 20.565V15.165H138.082V28.125H136.562L136.386 26.739C136.13 27.159 135.778 27.531 135.33 27.855C134.882 28.179 134.306 28.341 133.602 28.341ZM133.906 26.685C134.631 26.685 135.223 26.403 135.682 25.839C136.151 25.2751 136.386 24.549 136.386 23.661C136.386 22.761 136.151 22.0351 135.682 21.483C135.223 20.9191 134.631 20.637 133.906 20.637C133.181 20.637 132.583 20.9191 132.114 21.483C131.645 22.0351 131.41 22.761 131.41 23.661C131.41 24.2491 131.517 24.7711 131.73 25.227C131.943 25.683 132.237 26.043 132.61 26.307C132.994 26.559 133.426 26.685 133.906 26.685ZM140.284 28.125V15.525H141.98V28.125H140.284ZM144.189 28.125V19.197H145.693L145.821 20.763C146.067 20.211 146.424 19.779 146.893 19.467C147.373 19.143 147.923 18.981 148.541 18.981C149.501 18.981 150.253 19.3171 150.797 19.989C151.352 20.661 151.629 21.663 151.629 22.995V28.125H149.949V23.193C149.949 21.465 149.32 20.601 148.061 20.601C147.432 20.601 146.909 20.853 146.493 21.357C146.088 21.861 145.885 22.581 145.885 23.517V28.125H144.189Z" fill="#7583FF"/>
</g>
<defs>
<clipPath id="clip0_464_991">
<rect width="172" height="45" fill="white"/>
</clipPath>
</defs>
</svg>
