<svg width="202" height="40" viewBox="0 0 202 40" fill="none" xmlns="http://www.w3.org/2000/svg">
<g clip-path="url(#clip0_464_988)">
<path d="M182 1H20C9.50659 1 1 9.50659 1 20C1 30.4934 9.50659 39 20 39H182C192.493 39 201 30.4934 201 20C201 9.50659 192.493 1 182 1Z" stroke="#EBEAED" stroke-width="2"/>
<path d="M23.9336 25.1925C23.1122 25.1925 22.3922 25.0485 21.7736 24.7605C21.1549 24.4725 20.6696 24.0618 20.3176 23.5285C19.9762 22.9952 19.8002 22.3605 19.7896 21.6245H21.5816C21.5922 22.2218 21.8002 22.7285 22.2056 23.1445C22.6109 23.5605 23.1816 23.7685 23.9176 23.7685C24.5682 23.7685 25.0749 23.6138 25.4376 23.3045C25.8109 22.9845 25.9976 22.5792 25.9976 22.0885C25.9976 21.6938 25.9069 21.3738 25.7256 21.1285C25.5549 20.8832 25.3149 20.6805 25.0056 20.5205C24.7069 20.3605 24.3602 20.2165 23.9656 20.0885C23.5709 19.9605 23.1549 19.8218 22.7176 19.6725C21.8536 19.3845 21.2029 19.0112 20.7656 18.5525C20.3389 18.0938 20.1256 17.4912 20.1256 16.7445C20.1149 16.1152 20.2589 15.5658 20.5576 15.0965C20.8669 14.6272 21.2936 14.2645 21.8376 14.0085C22.3922 13.7418 23.0376 13.6085 23.7736 13.6085C24.4989 13.6085 25.1336 13.7418 25.6776 14.0085C26.2322 14.2752 26.6642 14.6485 26.9736 15.1285C27.2829 15.5978 27.4429 16.1472 27.4536 16.7765H25.6616C25.6616 16.4885 25.5869 16.2165 25.4376 15.9605C25.2882 15.6938 25.0696 15.4752 24.7816 15.3045C24.4936 15.1338 24.1416 15.0485 23.7256 15.0485C23.1922 15.0378 22.7496 15.1712 22.3976 15.4485C22.0562 15.7258 21.8856 16.1098 21.8856 16.6005C21.8856 17.0378 22.0136 17.3738 22.2696 17.6085C22.5256 17.8432 22.8776 18.0405 23.3256 18.2005C23.7736 18.3498 24.2856 18.5258 24.8616 18.7285C25.4162 18.9098 25.9122 19.1285 26.3496 19.3845C26.7869 19.6405 27.1336 19.9765 27.3896 20.3925C27.6562 20.8085 27.7896 21.3365 27.7896 21.9765C27.7896 22.5418 27.6456 23.0698 27.3576 23.5605C27.0696 24.0405 26.6376 24.4352 26.0616 24.7445C25.4856 25.0432 24.7762 25.1925 23.9336 25.1925ZM29.5798 25.0005V13.4805H31.2758V18.3445C31.5425 17.8858 31.9105 17.5285 32.3798 17.2725C32.8598 17.0058 33.3878 16.8725 33.9638 16.8725C34.9131 16.8725 35.6598 17.1712 36.2038 17.7685C36.7478 18.3658 37.0198 19.2565 37.0198 20.4405V25.0005H35.3398V20.6165C35.3398 19.0805 34.7265 18.3125 33.4998 18.3125C32.8598 18.3125 32.3265 18.5365 31.8998 18.9845C31.4838 19.4325 31.2758 20.0725 31.2758 20.9045V25.0005H29.5798ZM41.7053 25.1925C41.0333 25.1925 40.4786 25.0805 40.0413 24.8565C39.604 24.6325 39.2786 24.3392 39.0653 23.9765C38.852 23.6032 38.7453 23.1978 38.7453 22.7605C38.7453 21.9925 39.044 21.3845 39.6413 20.9365C40.2386 20.4885 41.092 20.2645 42.2013 20.2645H44.2813V20.1205C44.2813 19.5018 44.1106 19.0378 43.7693 18.7285C43.4386 18.4192 43.0066 18.2645 42.4733 18.2645C42.004 18.2645 41.5933 18.3818 41.2413 18.6165C40.9 18.8405 40.692 19.1765 40.6173 19.6245H38.9213C38.9746 19.0485 39.1666 18.5578 39.4973 18.1525C39.8386 17.7365 40.2653 17.4218 40.7773 17.2085C41.3 16.9845 41.8706 16.8725 42.4893 16.8725C43.5986 16.8725 44.4573 17.1658 45.0653 17.7525C45.6733 18.3285 45.9773 19.1178 45.9773 20.1205V25.0005H44.5053L44.3613 23.6405C44.1373 24.0778 43.812 24.4458 43.3853 24.7445C42.9586 25.0432 42.3986 25.1925 41.7053 25.1925ZM42.0413 23.8165C42.5 23.8165 42.884 23.7098 43.1933 23.4965C43.5133 23.2725 43.7586 22.9792 43.9293 22.6165C44.1106 22.2538 44.2226 21.8538 44.2653 21.4165H42.3773C41.7053 21.4165 41.2253 21.5338 40.9373 21.7685C40.66 22.0032 40.5213 22.2965 40.5213 22.6485C40.5213 23.0112 40.6546 23.2992 40.9213 23.5125C41.1986 23.7152 41.572 23.8165 42.0413 23.8165ZM47.9548 25.0005V17.0645H49.4748L49.6188 18.5685C49.8961 18.0458 50.2801 17.6352 50.7708 17.3365C51.2721 17.0272 51.8748 16.8725 52.5788 16.8725V18.6485H52.1148C51.6455 18.6485 51.2241 18.7285 50.8508 18.8885C50.4881 19.0378 50.1948 19.2992 49.9708 19.6725C49.7575 20.0352 49.6508 20.5418 49.6508 21.1925V25.0005H47.9548ZM57.5262 25.1925C56.7475 25.1925 56.0542 25.0218 55.4462 24.6805C54.8489 24.3285 54.3795 23.8432 54.0382 23.2245C53.6969 22.6058 53.5262 21.8858 53.5262 21.0645C53.5262 20.2325 53.6915 19.5018 54.0222 18.8725C54.3635 18.2432 54.8329 17.7525 55.4302 17.4005C56.0382 17.0485 56.7422 16.8725 57.5422 16.8725C58.3209 16.8725 58.9982 17.0485 59.5742 17.4005C60.1502 17.7418 60.5982 18.2005 60.9182 18.7765C61.2382 19.3525 61.3982 19.9872 61.3982 20.6805C61.3982 20.7872 61.3929 20.9045 61.3822 21.0325C61.3822 21.1498 61.3769 21.2832 61.3662 21.4325H55.1902C55.2435 22.2005 55.4942 22.7872 55.9422 23.1925C56.4009 23.5872 56.9289 23.7845 57.5262 23.7845C58.0062 23.7845 58.4062 23.6778 58.7262 23.4645C59.0569 23.2405 59.3022 22.9418 59.4622 22.5685H61.1582C60.9449 23.3152 60.5182 23.9392 59.8782 24.4405C59.2489 24.9418 58.4649 25.1925 57.5262 25.1925ZM57.5262 18.2645C56.9609 18.2645 56.4595 18.4352 56.0222 18.7765C55.5849 19.1072 55.3182 19.6085 55.2222 20.2805H59.7022C59.6702 19.6618 59.4515 19.1712 59.0462 18.8085C58.6409 18.4458 58.1342 18.2645 57.5262 18.2645ZM70.9012 25.1925C70.1439 25.1925 69.4612 25.0218 68.8532 24.6805C68.2559 24.3285 67.7812 23.8432 67.4292 23.2245C67.0772 22.5952 66.9012 21.8645 66.9012 21.0325C66.9012 20.2005 67.0772 19.4752 67.4292 18.8565C67.7919 18.2272 68.2772 17.7418 68.8852 17.4005C69.4932 17.0485 70.1705 16.8725 70.9172 16.8725C71.6745 16.8725 72.3519 17.0485 72.9492 17.4005C73.5572 17.7418 74.0372 18.2272 74.3892 18.8565C74.7519 19.4752 74.9332 20.2005 74.9332 21.0325C74.9332 21.8645 74.7519 22.5952 74.3892 23.2245C74.0372 23.8432 73.5572 24.3285 72.9492 24.6805C72.3412 25.0218 71.6585 25.1925 70.9012 25.1925ZM70.9012 23.7365C71.3065 23.7365 71.6799 23.6352 72.0212 23.4325C72.3732 23.2298 72.6559 22.9312 72.8692 22.5365C73.0825 22.1312 73.1892 21.6298 73.1892 21.0325C73.1892 20.4352 73.0825 19.9392 72.8692 19.5445C72.6665 19.1392 72.3892 18.8352 72.0372 18.6325C71.6959 18.4298 71.3225 18.3285 70.9172 18.3285C70.5119 18.3285 70.1332 18.4298 69.7812 18.6325C69.4399 18.8352 69.1625 19.1392 68.9492 19.5445C68.7359 19.9392 68.6292 20.4352 68.6292 21.0325C68.6292 21.6298 68.7359 22.1312 68.9492 22.5365C69.1625 22.9312 69.4399 23.2298 69.7812 23.4325C70.1225 23.6352 70.4959 23.7365 70.9012 23.7365ZM76.7673 25.0005V17.0645H78.2713L78.3993 18.4565C78.6446 17.9658 79.002 17.5818 79.4713 17.3045C79.9513 17.0165 80.5006 16.8725 81.1193 16.8725C82.0793 16.8725 82.8313 17.1712 83.3753 17.7685C83.93 18.3658 84.2073 19.2565 84.2073 20.4405V25.0005H82.5273V20.6165C82.5273 19.0805 81.898 18.3125 80.6393 18.3125C80.01 18.3125 79.4873 18.5365 79.0713 18.9845C78.666 19.4325 78.4633 20.0725 78.4633 20.9045V25.0005H76.7673ZM90.3001 25.0005V13.8005H91.9961V18.6005H97.4201V13.8005H99.1161V25.0005H97.4201V19.9925H91.9961V25.0005H90.3001ZM104.018 25.1925C103.346 25.1925 102.791 25.0805 102.354 24.8565C101.916 24.6325 101.591 24.3392 101.378 23.9765C101.164 23.6032 101.058 23.1978 101.058 22.7605C101.058 21.9925 101.356 21.3845 101.954 20.9365C102.551 20.4885 103.404 20.2645 104.514 20.2645H106.594V20.1205C106.594 19.5018 106.423 19.0378 106.082 18.7285C105.751 18.4192 105.319 18.2645 104.786 18.2645C104.316 18.2645 103.906 18.3818 103.554 18.6165C103.212 18.8405 103.004 19.1765 102.93 19.6245H101.234C101.287 19.0485 101.479 18.5578 101.81 18.1525C102.151 17.7365 102.578 17.4218 103.09 17.2085C103.612 16.9845 104.183 16.8725 104.802 16.8725C105.911 16.8725 106.77 17.1658 107.378 17.7525C107.986 18.3285 108.29 19.1178 108.29 20.1205V25.0005H106.818L106.674 23.6405C106.45 24.0778 106.124 24.4458 105.698 24.7445C105.271 25.0432 104.711 25.1925 104.018 25.1925ZM104.354 23.8165C104.812 23.8165 105.196 23.7098 105.506 23.4965C105.826 23.2725 106.071 22.9792 106.242 22.6165C106.423 22.2538 106.535 21.8538 106.578 21.4165H104.69C104.018 21.4165 103.538 21.5338 103.25 21.7685C102.972 22.0032 102.834 22.2965 102.834 22.6485C102.834 23.0112 102.967 23.2992 103.234 23.5125C103.511 23.7152 103.884 23.8165 104.354 23.8165ZM114.027 25.1925C113.249 25.1925 112.55 25.0165 111.931 24.6645C111.323 24.3125 110.843 23.8272 110.491 23.2085C110.15 22.5792 109.979 21.8538 109.979 21.0325C109.979 20.2112 110.15 19.4912 110.491 18.8725C110.843 18.2432 111.323 17.7525 111.931 17.4005C112.55 17.0485 113.249 16.8725 114.027 16.8725C115.009 16.8725 115.83 17.1285 116.491 17.6405C117.163 18.1525 117.595 18.8458 117.787 19.7205H116.011C115.905 19.2832 115.67 18.9418 115.307 18.6965C114.945 18.4512 114.518 18.3285 114.027 18.3285C113.611 18.3285 113.227 18.4352 112.875 18.6485C112.523 18.8512 112.241 19.1552 112.027 19.5605C111.814 19.9552 111.707 20.4458 111.707 21.0325C111.707 21.6192 111.814 22.1152 112.027 22.5205C112.241 22.9152 112.523 23.2192 112.875 23.4325C113.227 23.6458 113.611 23.7525 114.027 23.7525C114.518 23.7525 114.945 23.6298 115.307 23.3845C115.67 23.1392 115.905 22.7925 116.011 22.3445H117.787C117.606 23.1978 117.179 23.8858 116.507 24.4085C115.835 24.9312 115.009 25.1925 114.027 25.1925ZM119.627 25.0005V13.4805H121.323V20.3445L124.363 17.0645H126.395L123.019 20.6645L126.891 25.0005H124.747L121.323 20.9365V25.0005H119.627ZM131.307 25.1925C130.529 25.1925 129.835 25.0218 129.227 24.6805C128.63 24.3285 128.161 23.8432 127.819 23.2245C127.478 22.6058 127.307 21.8858 127.307 21.0645C127.307 20.2325 127.473 19.5018 127.803 18.8725C128.145 18.2432 128.614 17.7525 129.211 17.4005C129.819 17.0485 130.523 16.8725 131.323 16.8725C132.102 16.8725 132.779 17.0485 133.355 17.4005C133.931 17.7418 134.379 18.2005 134.699 18.7765C135.019 19.3525 135.179 19.9872 135.179 20.6805C135.179 20.7872 135.174 20.9045 135.163 21.0325C135.163 21.1498 135.158 21.2832 135.147 21.4325H128.971C129.025 22.2005 129.275 22.7872 129.723 23.1925C130.182 23.5872 130.71 23.7845 131.307 23.7845C131.787 23.7845 132.187 23.6778 132.507 23.4645C132.838 23.2405 133.083 22.9418 133.243 22.5685H134.939C134.726 23.3152 134.299 23.9392 133.659 24.4405C133.03 24.9418 132.246 25.1925 131.307 25.1925ZM131.307 18.2645C130.742 18.2645 130.241 18.4352 129.803 18.7765C129.366 19.1072 129.099 19.6085 129.003 20.2805H133.483C133.451 19.6618 133.233 19.1712 132.827 18.8085C132.422 18.4458 131.915 18.2645 131.307 18.2645ZM136.939 25.0005V17.0645H138.459L138.603 18.5685C138.881 18.0458 139.265 17.6352 139.755 17.3365C140.257 17.0272 140.859 16.8725 141.563 16.8725V18.6485H141.099C140.63 18.6485 140.209 18.7285 139.835 18.8885C139.473 19.0378 139.179 19.2992 138.955 19.6725C138.742 20.0352 138.635 20.5418 138.635 21.1925V25.0005H136.939ZM143.081 25.0005V13.8005H144.777L150.393 22.2325V13.8005H152.089V25.0005H150.393L144.777 16.5685V25.0005H143.081ZM158.011 25.1925C157.232 25.1925 156.539 25.0218 155.931 24.6805C155.333 24.3285 154.864 23.8432 154.523 23.2245C154.181 22.6058 154.011 21.8858 154.011 21.0645C154.011 20.2325 154.176 19.5018 154.507 18.8725C154.848 18.2432 155.317 17.7525 155.915 17.4005C156.523 17.0485 157.227 16.8725 158.027 16.8725C158.805 16.8725 159.483 17.0485 160.059 17.4005C160.635 17.7418 161.083 18.2005 161.403 18.7765C161.723 19.3525 161.883 19.9872 161.883 20.6805C161.883 20.7872 161.877 20.9045 161.867 21.0325C161.867 21.1498 161.861 21.2832 161.851 21.4325H155.675C155.728 22.2005 155.979 22.7872 156.427 23.1925C156.885 23.5872 157.413 23.7845 158.011 23.7845C158.491 23.7845 158.891 23.6778 159.211 23.4645C159.541 23.2405 159.787 22.9418 159.947 22.5685H161.643C161.429 23.3152 161.003 23.9392 160.363 24.4405C159.733 24.9418 158.949 25.1925 158.011 25.1925ZM158.011 18.2645C157.445 18.2645 156.944 18.4352 156.507 18.7765C156.069 19.1072 155.803 19.6085 155.707 20.2805H160.187C160.155 19.6618 159.936 19.1712 159.531 18.8085C159.125 18.4458 158.619 18.2645 158.011 18.2645ZM164.914 25.0005L162.578 17.0645H164.274L165.81 23.0485L167.538 17.0645H169.426L171.154 23.0485L172.69 17.0645H174.386L172.05 25.0005H170.306L168.482 18.7605L166.658 25.0005H164.914ZM178.951 25.1925C177.948 25.1925 177.122 24.9472 176.471 24.4565C175.82 23.9658 175.447 23.3152 175.351 22.5045H177.063C177.148 22.8672 177.351 23.1818 177.671 23.4485C177.991 23.7045 178.412 23.8325 178.935 23.8325C179.447 23.8325 179.82 23.7258 180.055 23.5125C180.29 23.2992 180.407 23.0538 180.407 22.7765C180.407 22.3712 180.242 22.0992 179.911 21.9605C179.591 21.8112 179.143 21.6778 178.567 21.5605C178.119 21.4645 177.671 21.3365 177.223 21.1765C176.786 21.0165 176.418 20.7925 176.119 20.5045C175.831 20.2058 175.687 19.8058 175.687 19.3045C175.687 18.6112 175.954 18.0352 176.487 17.5765C177.02 17.1072 177.767 16.8725 178.727 16.8725C179.612 16.8725 180.327 17.0858 180.871 17.5125C181.426 17.9392 181.751 18.5418 181.847 19.3205H180.215C180.162 18.9792 180.002 18.7125 179.735 18.5205C179.479 18.3285 179.132 18.2325 178.695 18.2325C178.268 18.2325 177.938 18.3232 177.703 18.5045C177.468 18.6752 177.351 18.8992 177.351 19.1765C177.351 19.4538 177.511 19.6725 177.831 19.8325C178.162 19.9925 178.594 20.1365 179.127 20.2645C179.66 20.3818 180.151 20.5205 180.599 20.6805C181.058 20.8298 181.426 21.0538 181.703 21.3525C181.98 21.6512 182.119 22.0885 182.119 22.6645C182.13 23.3898 181.847 23.9925 181.271 24.4725C180.706 24.9525 179.932 25.1925 178.951 25.1925Z" fill="white"/>
</g>
<defs>
<clipPath id="clip0_464_988">
<rect width="202" height="40" fill="white"/>
</clipPath>
</defs>
</svg>
