<svg width="184" height="45" viewBox="0 0 184 45" fill="none" xmlns="http://www.w3.org/2000/svg">
<g clip-path="url(#clip0_464_1008)">
<path d="M164 1.125H20C9.50659 1.125 1 10.6949 1 22.5C1 34.3051 9.50659 43.875 20 43.875H164C174.493 43.875 183 34.3051 183 22.5C183 10.6949 174.493 1.125 164 1.125Z" stroke="#EBEAED" stroke-width="2"/>
<path d="M24.0351 28.341C23.2138 28.341 22.4938 28.179 21.8751 27.855C21.2565 27.531 20.7711 27.069 20.4191 26.469C20.0778 25.8691 19.9018 25.155 19.8911 24.327H21.6831C21.6938 24.999 21.9018 25.569 22.3071 26.037C22.7125 26.505 23.2831 26.739 24.0191 26.739C24.6698 26.739 25.1765 26.565 25.5391 26.217C25.9125 25.857 26.0991 25.4011 26.0991 24.849C26.0991 24.405 26.0085 24.045 25.8271 23.769C25.6565 23.4931 25.4165 23.265 25.1071 23.085C24.8085 22.905 24.4618 22.743 24.0671 22.599C23.6725 22.455 23.2565 22.299 22.8191 22.131C21.9551 21.807 21.3045 21.3871 20.8671 20.871C20.4405 20.355 20.2271 19.6771 20.2271 18.837C20.2165 18.1291 20.3605 17.511 20.6591 16.983C20.9685 16.4551 21.3951 16.047 21.9391 15.759C22.4938 15.459 23.1391 15.309 23.8751 15.309C24.6005 15.309 25.2351 15.459 25.7791 15.759C26.3338 16.0591 26.7658 16.479 27.0751 17.019C27.3845 17.547 27.5445 18.1651 27.5551 18.873H25.7631C25.7631 18.549 25.6885 18.243 25.5391 17.955C25.3898 17.655 25.1711 17.4091 24.8831 17.217C24.5951 17.025 24.2431 16.929 23.8271 16.929C23.2938 16.917 22.8511 17.0671 22.4991 17.379C22.1578 17.691 21.9871 18.123 21.9871 18.675C21.9871 19.167 22.1151 19.545 22.3711 19.809C22.6271 20.0731 22.9791 20.295 23.4271 20.475C23.8751 20.643 24.3871 20.841 24.9631 21.069C25.5178 21.273 26.0138 21.519 26.4511 21.807C26.8885 22.095 27.2351 22.473 27.4911 22.941C27.7578 23.409 27.8911 24.003 27.8911 24.723C27.8911 25.359 27.7471 25.953 27.4591 26.505C27.1711 27.045 26.7391 27.4891 26.1631 27.837C25.5871 28.1731 24.8778 28.341 24.0351 28.341ZM33.3934 28.341C32.6147 28.341 31.9214 28.149 31.3134 27.765C30.716 27.369 30.2467 26.8231 29.9054 26.127C29.564 25.431 29.3934 24.621 29.3934 23.697C29.3934 22.761 29.5587 21.939 29.8894 21.231C30.2307 20.5231 30.7 19.971 31.2974 19.575C31.9054 19.179 32.6094 18.981 33.4094 18.981C34.188 18.981 34.8654 19.179 35.4414 19.575C36.0174 19.959 36.4654 20.475 36.7854 21.123C37.1054 21.771 37.2654 22.4851 37.2654 23.265C37.2654 23.3851 37.26 23.517 37.2494 23.661C37.2494 23.793 37.244 23.9431 37.2334 24.111H31.0574C31.1107 24.975 31.3614 25.6351 31.8094 26.091C32.268 26.5351 32.796 26.757 33.3934 26.757C33.8734 26.757 34.2734 26.637 34.5934 26.397C34.924 26.145 35.1694 25.809 35.3294 25.389H37.0254C36.812 26.2291 36.3854 26.9311 35.7454 27.495C35.116 28.059 34.332 28.341 33.3934 28.341ZM33.3934 20.547C32.828 20.547 32.3267 20.7391 31.8894 21.123C31.452 21.4951 31.1854 22.059 31.0894 22.815H35.5694C35.5374 22.119 35.3187 21.5671 34.9134 21.159C34.508 20.751 34.0014 20.547 33.3934 20.547ZM39.0251 28.125V19.197H40.5291L40.6571 20.763C40.9025 20.211 41.2598 19.779 41.7291 19.467C42.2091 19.143 42.7585 18.981 43.3771 18.981C44.3371 18.981 45.0891 19.3171 45.6331 19.989C46.1878 20.661 46.4651 21.663 46.4651 22.995V28.125H44.7851V23.193C44.7851 21.465 44.1558 20.601 42.8971 20.601C42.2678 20.601 41.7451 20.853 41.3291 21.357C40.9238 21.861 40.7211 22.581 40.7211 23.517V28.125H39.0251ZM52.0786 28.341C51.3106 28.341 50.6333 28.1371 50.0466 27.729C49.46 27.321 49.0013 26.763 48.6706 26.055C48.34 25.3471 48.1746 24.543 48.1746 23.643C48.1746 22.743 48.34 21.9451 48.6706 21.249C49.0013 20.5411 49.46 19.989 50.0466 19.593C50.644 19.185 51.3266 18.981 52.0946 18.981C52.724 18.981 53.2733 19.1191 53.7426 19.395C54.2226 19.671 54.596 20.061 54.8626 20.565V15.165H56.5586V28.125H55.0386L54.8626 26.739C54.6066 27.159 54.2546 27.531 53.8066 27.855C53.3586 28.179 52.7826 28.341 52.0786 28.341ZM52.3826 26.685C53.108 26.685 53.7 26.403 54.1586 25.839C54.628 25.2751 54.8626 24.549 54.8626 23.661C54.8626 22.761 54.628 22.0351 54.1586 21.483C53.7 20.9191 53.108 20.637 52.3826 20.637C51.6573 20.637 51.06 20.9191 50.5906 21.483C50.1213 22.0351 49.8866 22.761 49.8866 23.661C49.8866 24.2491 49.9933 24.7711 50.2066 25.227C50.42 25.683 50.7133 26.043 51.0866 26.307C51.4706 26.559 51.9026 26.685 52.3826 26.685ZM66.4403 28.341C65.6829 28.341 65.0003 28.149 64.3923 27.765C63.7949 27.369 63.3203 26.8231 62.9683 26.127C62.6163 25.4191 62.4403 24.597 62.4403 23.661C62.4403 22.725 62.6163 21.9091 62.9683 21.213C63.3309 20.5051 63.8163 19.959 64.4243 19.575C65.0323 19.179 65.7096 18.981 66.4563 18.981C67.2136 18.981 67.8909 19.179 68.4883 19.575C69.0963 19.959 69.5763 20.5051 69.9283 21.213C70.2909 21.9091 70.4722 22.725 70.4722 23.661C70.4722 24.597 70.2909 25.4191 69.9283 26.127C69.5763 26.8231 69.0963 27.369 68.4883 27.765C67.8803 28.149 67.1976 28.341 66.4403 28.341ZM66.4403 26.703C66.8456 26.703 67.2189 26.5891 67.5603 26.361C67.9123 26.133 68.1949 25.7971 68.4083 25.353C68.6216 24.8971 68.7283 24.333 68.7283 23.661C68.7283 22.9891 68.6216 22.4311 68.4083 21.987C68.2056 21.5311 67.9283 21.1891 67.5763 20.961C67.2349 20.733 66.8616 20.619 66.4563 20.619C66.0509 20.619 65.6723 20.733 65.3203 20.961C64.9789 21.1891 64.7016 21.5311 64.4883 21.987C64.2749 22.4311 64.1683 22.9891 64.1683 23.661C64.1683 24.333 64.2749 24.8971 64.4883 25.353C64.7016 25.7971 64.9789 26.133 65.3203 26.361C65.6616 26.5891 66.0349 26.703 66.4403 26.703ZM72.3064 28.125V19.197H73.8104L73.9384 20.763C74.1837 20.211 74.541 19.779 75.0104 19.467C75.4904 19.143 76.0397 18.981 76.6584 18.981C77.6184 18.981 78.3704 19.3171 78.9144 19.989C79.469 20.661 79.7464 21.663 79.7464 22.995V28.125H78.0664V23.193C78.0664 21.465 77.437 20.601 76.1784 20.601C75.549 20.601 75.0264 20.853 74.6104 21.357C74.205 21.861 74.0024 22.581 74.0024 23.517V28.125H72.3064ZM88.1271 28.143L85.1031 15.525H86.9271L89.1511 25.965L91.7111 15.525H93.5831L96.0631 25.965L98.2871 15.525H100.111L97.0391 28.125H95.0551L92.6071 18.243L90.0791 28.125L88.1271 28.143ZM101.603 28.125V15.165H103.299V20.637C103.566 20.121 103.934 19.719 104.403 19.431C104.883 19.131 105.411 18.981 105.987 18.981C106.937 18.981 107.683 19.3171 108.227 19.989C108.771 20.661 109.043 21.663 109.043 22.995V28.125H107.363V23.193C107.363 21.465 106.75 20.601 105.523 20.601C104.883 20.601 104.35 20.853 103.923 21.357C103.507 21.861 103.299 22.581 103.299 23.517V28.125H101.603ZM113.729 28.341C113.057 28.341 112.502 28.215 112.065 27.963C111.627 27.711 111.302 27.3811 111.089 26.973C110.875 26.5531 110.769 26.097 110.769 25.605C110.769 24.741 111.067 24.057 111.665 23.553C112.262 23.049 113.115 22.797 114.225 22.797H116.305V22.635C116.305 21.939 116.134 21.417 115.793 21.069C115.462 20.7211 115.03 20.547 114.497 20.547C114.027 20.547 113.617 20.679 113.265 20.943C112.923 21.195 112.715 21.573 112.641 22.077H110.945C110.998 21.429 111.19 20.877 111.521 20.421C111.862 19.953 112.289 19.599 112.801 19.359C113.323 19.107 113.894 18.981 114.513 18.981C115.622 18.981 116.481 19.311 117.089 19.971C117.697 20.619 118.001 21.507 118.001 22.635V28.125H116.529L116.385 26.595C116.161 27.087 115.835 27.501 115.409 27.837C114.982 28.1731 114.422 28.341 113.729 28.341ZM114.065 26.793C114.523 26.793 114.907 26.673 115.217 26.433C115.537 26.181 115.782 25.8511 115.953 25.443C116.134 25.035 116.246 24.585 116.289 24.093H114.401C113.729 24.093 113.249 24.225 112.961 24.489C112.683 24.7531 112.545 25.083 112.545 25.479C112.545 25.8871 112.678 26.2111 112.945 26.451C113.222 26.6791 113.595 26.793 114.065 26.793ZM123.15 28.125C122.371 28.125 121.753 27.915 121.294 27.495C120.835 27.063 120.606 26.3011 120.606 25.209V20.799H119.246V19.197H120.606L120.814 16.929H122.302V19.197H124.542V20.799H122.302V25.209C122.302 25.701 122.393 26.043 122.574 26.235C122.766 26.415 123.091 26.505 123.55 26.505H124.462V28.125H123.15ZM129.459 28.341C128.456 28.341 127.629 28.0651 126.979 27.513C126.328 26.961 125.955 26.2291 125.859 25.317H127.571C127.656 25.7251 127.859 26.079 128.179 26.379C128.499 26.667 128.92 26.811 129.443 26.811C129.955 26.811 130.328 26.691 130.563 26.451C130.797 26.2111 130.915 25.935 130.915 25.623C130.915 25.1671 130.749 24.8611 130.419 24.705C130.099 24.5371 129.651 24.387 129.075 24.255C128.627 24.147 128.179 24.003 127.731 23.823C127.293 23.643 126.925 23.391 126.627 23.067C126.339 22.731 126.195 22.281 126.195 21.717C126.195 20.9371 126.461 20.2891 126.995 19.773C127.528 19.2451 128.275 18.981 129.235 18.981C130.12 18.981 130.835 19.221 131.379 19.701C131.933 20.1811 132.259 20.859 132.355 21.735H130.723C130.669 21.3511 130.509 21.051 130.243 20.835C129.987 20.619 129.64 20.511 129.203 20.511C128.776 20.511 128.445 20.6131 128.211 20.817C127.976 21.0091 127.859 21.2611 127.859 21.573C127.859 21.885 128.019 22.131 128.339 22.311C128.669 22.491 129.101 22.653 129.635 22.797C130.168 22.929 130.659 23.085 131.107 23.265C131.565 23.433 131.933 23.685 132.211 24.021C132.488 24.3571 132.627 24.849 132.627 25.497C132.637 26.313 132.355 26.991 131.779 27.531C131.213 28.071 130.44 28.341 129.459 28.341ZM133.822 28.125L137.95 15.525H139.806L143.902 28.125H142.11L141.15 25.047H136.574L135.614 28.125H133.822ZM137.054 23.535H140.67L138.862 17.793L137.054 23.535ZM145.4 32.085V19.197H146.92L147.096 20.583C147.352 20.1631 147.704 19.791 148.152 19.467C148.6 19.143 149.176 18.981 149.88 18.981C150.648 18.981 151.325 19.185 151.912 19.593C152.499 20.0011 152.957 20.5591 153.288 21.267C153.629 21.975 153.8 22.779 153.8 23.679C153.8 24.579 153.629 25.3831 153.288 26.091C152.957 26.7871 152.499 27.339 151.912 27.747C151.325 28.143 150.643 28.341 149.864 28.341C149.245 28.341 148.696 28.203 148.216 27.927C147.747 27.6511 147.373 27.261 147.096 26.757V32.085H145.4ZM149.576 26.685C150.301 26.685 150.899 26.4091 151.368 25.857C151.837 25.2931 152.072 24.561 152.072 23.661C152.072 23.073 151.965 22.551 151.752 22.095C151.539 21.6391 151.245 21.285 150.872 21.033C150.499 20.769 150.067 20.637 149.576 20.637C148.851 20.637 148.253 20.9191 147.784 21.483C147.325 22.047 147.096 22.7731 147.096 23.661C147.096 24.561 147.325 25.2931 147.784 25.857C148.253 26.4091 148.851 26.685 149.576 26.685ZM155.635 32.085V19.197H157.155L157.331 20.583C157.587 20.1631 157.939 19.791 158.387 19.467C158.835 19.143 159.411 18.981 160.115 18.981C160.883 18.981 161.56 19.185 162.147 19.593C162.733 20.0011 163.192 20.5591 163.523 21.267C163.864 21.975 164.035 22.779 164.035 23.679C164.035 24.579 163.864 25.3831 163.523 26.091C163.192 26.7871 162.733 27.339 162.147 27.747C161.56 28.143 160.877 28.341 160.099 28.341C159.48 28.341 158.931 28.203 158.451 27.927C157.981 27.6511 157.608 27.261 157.331 26.757V32.085H155.635ZM159.811 26.685C160.536 26.685 161.133 26.4091 161.603 25.857C162.072 25.2931 162.307 24.561 162.307 23.661C162.307 23.073 162.2 22.551 161.987 22.095C161.773 21.6391 161.48 21.285 161.107 21.033C160.733 20.769 160.301 20.637 159.811 20.637C159.085 20.637 158.488 20.9191 158.019 21.483C157.56 22.047 157.331 22.7731 157.331 23.661C157.331 24.561 157.56 25.2931 158.019 25.857C158.488 26.4091 159.085 26.685 159.811 26.685Z" fill="#7583FF"/>
</g>
<defs>
<clipPath id="clip0_464_1008">
<rect width="184" height="45" fill="white"/>
</clipPath>
</defs>
</svg>
