<svg width="172" height="40" viewBox="0 0 172 40" fill="none" xmlns="http://www.w3.org/2000/svg">
<g clip-path="url(#clip0_464_991)">
<path d="M152 1H20C9.50659 1 1 9.50659 1 20C1 30.4934 9.50659 39 20 39H152C162.493 39 171 30.4934 171 20C171 9.50659 162.493 1 152 1Z" stroke="#EBEAED" stroke-width="2"/>
<path d="M24.2773 25.1925C23.456 25.1925 22.736 25.0485 22.1173 24.7605C21.4986 24.4725 21.0133 24.0618 20.6613 23.5285C20.32 22.9952 20.144 22.3605 20.1333 21.6245H21.9253C21.936 22.2218 22.144 22.7285 22.5493 23.1445C22.9546 23.5605 23.5253 23.7685 24.2613 23.7685C24.912 23.7685 25.4186 23.6138 25.7813 23.3045C26.1546 22.9845 26.3413 22.5792 26.3413 22.0885C26.3413 21.6938 26.2506 21.3738 26.0693 21.1285C25.8986 20.8832 25.6586 20.6805 25.3493 20.5205C25.0506 20.3605 24.704 20.2165 24.3093 20.0885C23.9146 19.9605 23.4986 19.8218 23.0613 19.6725C22.1973 19.3845 21.5466 19.0112 21.1093 18.5525C20.6826 18.0938 20.4693 17.4912 20.4693 16.7445C20.4586 16.1152 20.6026 15.5658 20.9013 15.0965C21.2106 14.6272 21.6373 14.2645 22.1813 14.0085C22.736 13.7418 23.3813 13.6085 24.1173 13.6085C24.8426 13.6085 25.4773 13.7418 26.0213 14.0085C26.576 14.2752 27.008 14.6485 27.3173 15.1285C27.6266 15.5978 27.7866 16.1472 27.7973 16.7765H26.0053C26.0053 16.4885 25.9306 16.2165 25.7813 15.9605C25.632 15.6938 25.4133 15.4752 25.1253 15.3045C24.8373 15.1338 24.4853 15.0485 24.0693 15.0485C23.536 15.0378 23.0933 15.1712 22.7413 15.4485C22.4 15.7258 22.2293 16.1098 22.2293 16.6005C22.2293 17.0378 22.3573 17.3738 22.6133 17.6085C22.8693 17.8432 23.2213 18.0405 23.6693 18.2005C24.1173 18.3498 24.6293 18.5258 25.2053 18.7285C25.76 18.9098 26.256 19.1285 26.6933 19.3845C27.1306 19.6405 27.4773 19.9765 27.7333 20.3925C28 20.8085 28.1333 21.3365 28.1333 21.9765C28.1333 22.5418 27.9893 23.0698 27.7013 23.5605C27.4133 24.0405 26.9813 24.4352 26.4053 24.7445C25.8293 25.0432 25.12 25.1925 24.2773 25.1925ZM29.9236 25.0005V13.4805H31.6196V18.3445C31.8862 17.8858 32.2542 17.5285 32.7236 17.2725C33.2036 17.0058 33.7316 16.8725 34.3076 16.8725C35.2569 16.8725 36.0036 17.1712 36.5476 17.7685C37.0916 18.3658 37.3636 19.2565 37.3636 20.4405V25.0005H35.6836V20.6165C35.6836 19.0805 35.0702 18.3125 33.8436 18.3125C33.2036 18.3125 32.6702 18.5365 32.2436 18.9845C31.8276 19.4325 31.6196 20.0725 31.6196 20.9045V25.0005H29.9236ZM42.0491 25.1925C41.3771 25.1925 40.8224 25.0805 40.3851 24.8565C39.9477 24.6325 39.6224 24.3392 39.4091 23.9765C39.1957 23.6032 39.0891 23.1978 39.0891 22.7605C39.0891 21.9925 39.3877 21.3845 39.9851 20.9365C40.5824 20.4885 41.4357 20.2645 42.5451 20.2645H44.6251V20.1205C44.6251 19.5018 44.4544 19.0378 44.1131 18.7285C43.7824 18.4192 43.3504 18.2645 42.8171 18.2645C42.3477 18.2645 41.9371 18.3818 41.5851 18.6165C41.2437 18.8405 41.0357 19.1765 40.9611 19.6245H39.2651C39.3184 19.0485 39.5104 18.5578 39.8411 18.1525C40.1824 17.7365 40.6091 17.4218 41.1211 17.2085C41.6437 16.9845 42.2144 16.8725 42.8331 16.8725C43.9424 16.8725 44.8011 17.1658 45.4091 17.7525C46.0171 18.3285 46.3211 19.1178 46.3211 20.1205V25.0005H44.8491L44.7051 23.6405C44.4811 24.0778 44.1557 24.4458 43.7291 24.7445C43.3024 25.0432 42.7424 25.1925 42.0491 25.1925ZM42.3851 23.8165C42.8437 23.8165 43.2277 23.7098 43.5371 23.4965C43.8571 23.2725 44.1024 22.9792 44.2731 22.6165C44.4544 22.2538 44.5664 21.8538 44.6091 21.4165H42.7211C42.0491 21.4165 41.5691 21.5338 41.2811 21.7685C41.0037 22.0032 40.8651 22.2965 40.8651 22.6485C40.8651 23.0112 40.9984 23.2992 41.2651 23.5125C41.5424 23.7152 41.9157 23.8165 42.3851 23.8165ZM48.2986 25.0005V17.0645H49.8186L49.9626 18.5685C50.2399 18.0458 50.6239 17.6352 51.1146 17.3365C51.6159 17.0272 52.2186 16.8725 52.9226 16.8725V18.6485H52.4586C51.9892 18.6485 51.5679 18.7285 51.1946 18.8885C50.8319 19.0378 50.5386 19.2992 50.3146 19.6725C50.1012 20.0352 49.9946 20.5418 49.9946 21.1925V25.0005H48.2986ZM57.8699 25.1925C57.0913 25.1925 56.3979 25.0218 55.7899 24.6805C55.1926 24.3285 54.7233 23.8432 54.3819 23.2245C54.0406 22.6058 53.8699 21.8858 53.8699 21.0645C53.8699 20.2325 54.0353 19.5018 54.3659 18.8725C54.7073 18.2432 55.1766 17.7525 55.7739 17.4005C56.3819 17.0485 57.0859 16.8725 57.8859 16.8725C58.6646 16.8725 59.3419 17.0485 59.9179 17.4005C60.4939 17.7418 60.9419 18.2005 61.2619 18.7765C61.5819 19.3525 61.7419 19.9872 61.7419 20.6805C61.7419 20.7872 61.7366 20.9045 61.7259 21.0325C61.7259 21.1498 61.7206 21.2832 61.7099 21.4325H55.5339C55.5873 22.2005 55.8379 22.7872 56.2859 23.1925C56.7446 23.5872 57.2726 23.7845 57.8699 23.7845C58.3499 23.7845 58.7499 23.6778 59.0699 23.4645C59.4006 23.2405 59.6459 22.9418 59.8059 22.5685H61.5019C61.2886 23.3152 60.8619 23.9392 60.2219 24.4405C59.5926 24.9418 58.8086 25.1925 57.8699 25.1925ZM57.8699 18.2645C57.3046 18.2645 56.8033 18.4352 56.3659 18.7765C55.9286 19.1072 55.6619 19.6085 55.5659 20.2805H60.0459C60.0139 19.6618 59.7953 19.1712 59.3899 18.8085C58.9846 18.4458 58.4779 18.2645 57.8699 18.2645ZM71.2449 25.1925C70.4876 25.1925 69.8049 25.0218 69.1969 24.6805C68.5996 24.3285 68.1249 23.8432 67.7729 23.2245C67.4209 22.5952 67.2449 21.8645 67.2449 21.0325C67.2449 20.2005 67.4209 19.4752 67.7729 18.8565C68.1356 18.2272 68.6209 17.7418 69.2289 17.4005C69.8369 17.0485 70.5143 16.8725 71.2609 16.8725C72.0183 16.8725 72.6956 17.0485 73.2929 17.4005C73.9009 17.7418 74.3809 18.2272 74.7329 18.8565C75.0956 19.4752 75.2769 20.2005 75.2769 21.0325C75.2769 21.8645 75.0956 22.5952 74.7329 23.2245C74.3809 23.8432 73.9009 24.3285 73.2929 24.6805C72.6849 25.0218 72.0023 25.1925 71.2449 25.1925ZM71.2449 23.7365C71.6503 23.7365 72.0236 23.6352 72.3649 23.4325C72.7169 23.2298 72.9996 22.9312 73.2129 22.5365C73.4263 22.1312 73.5329 21.6298 73.5329 21.0325C73.5329 20.4352 73.4263 19.9392 73.2129 19.5445C73.0103 19.1392 72.7329 18.8352 72.3809 18.6325C72.0396 18.4298 71.6663 18.3285 71.2609 18.3285C70.8556 18.3285 70.4769 18.4298 70.1249 18.6325C69.7836 18.8352 69.5063 19.1392 69.2929 19.5445C69.0796 19.9392 68.9729 20.4352 68.9729 21.0325C68.9729 21.6298 69.0796 22.1312 69.2929 22.5365C69.5063 22.9312 69.7836 23.2298 70.1249 23.4325C70.4663 23.6352 70.8396 23.7365 71.2449 23.7365ZM77.1111 25.0005V17.0645H78.6151L78.7431 18.4565C78.9884 17.9658 79.3457 17.5818 79.8151 17.3045C80.2951 17.0165 80.8444 16.8725 81.4631 16.8725C82.4231 16.8725 83.1751 17.1712 83.7191 17.7685C84.2737 18.3658 84.5511 19.2565 84.5511 20.4405V25.0005H82.8711V20.6165C82.8711 19.0805 82.2417 18.3125 80.9831 18.3125C80.3537 18.3125 79.8311 18.5365 79.4151 18.9845C79.0097 19.4325 78.8071 20.0725 78.8071 20.9045V25.0005H77.1111ZM90.6438 25.0005V13.8005H92.3398V23.6565H97.4278V25.0005H90.6438ZM100.149 15.5605C99.8292 15.5605 99.5625 15.4645 99.3492 15.2725C99.1465 15.0698 99.0452 14.8192 99.0452 14.5205C99.0452 14.2218 99.1465 13.9765 99.3492 13.7845C99.5625 13.5818 99.8292 13.4805 100.149 13.4805C100.469 13.4805 100.731 13.5818 100.933 13.7845C101.147 13.9765 101.253 14.2218 101.253 14.5205C101.253 14.8192 101.147 15.0698 100.933 15.2725C100.731 15.4645 100.469 15.5605 100.149 15.5605ZM99.3012 25.0005V17.0645H100.997V25.0005H99.3012ZM103.236 25.0005V17.0645H104.74L104.868 18.4565C105.113 17.9658 105.471 17.5818 105.94 17.3045C106.42 17.0165 106.969 16.8725 107.588 16.8725C108.548 16.8725 109.3 17.1712 109.844 17.7685C110.399 18.3658 110.676 19.2565 110.676 20.4405V25.0005H108.996V20.6165C108.996 19.0805 108.367 18.3125 107.108 18.3125C106.479 18.3125 105.956 18.5365 105.54 18.9845C105.135 19.4325 104.932 20.0725 104.932 20.9045V25.0005H103.236ZM112.674 25.0005V13.4805H114.37V20.3445L117.41 17.0645H119.442L116.066 20.6645L119.938 25.0005H117.794L114.37 20.9365V25.0005H112.674ZM124.354 25.1925C123.576 25.1925 122.882 25.0218 122.274 24.6805C121.677 24.3285 121.208 23.8432 120.866 23.2245C120.525 22.6058 120.354 21.8858 120.354 21.0645C120.354 20.2325 120.52 19.5018 120.85 18.8725C121.192 18.2432 121.661 17.7525 122.258 17.4005C122.866 17.0485 123.57 16.8725 124.37 16.8725C125.149 16.8725 125.826 17.0485 126.402 17.4005C126.978 17.7418 127.426 18.2005 127.746 18.7765C128.066 19.3525 128.226 19.9872 128.226 20.6805C128.226 20.7872 128.221 20.9045 128.21 21.0325C128.21 21.1498 128.205 21.2832 128.194 21.4325H122.018C122.072 22.2005 122.322 22.7872 122.77 23.1925C123.229 23.5872 123.757 23.7845 124.354 23.7845C124.834 23.7845 125.234 23.6778 125.554 23.4645C125.885 23.2405 126.13 22.9418 126.29 22.5685H127.986C127.773 23.3152 127.346 23.9392 126.706 24.4405C126.077 24.9418 125.293 25.1925 124.354 25.1925ZM124.354 18.2645C123.789 18.2645 123.288 18.4352 122.85 18.7765C122.413 19.1072 122.146 19.6085 122.05 20.2805H126.53C126.498 19.6618 126.28 19.1712 125.874 18.8085C125.469 18.4458 124.962 18.2645 124.354 18.2645ZM133.602 25.1925C132.834 25.1925 132.157 25.0112 131.57 24.6485C130.983 24.2858 130.525 23.7898 130.194 23.1605C129.863 22.5312 129.698 21.8165 129.698 21.0165C129.698 20.2165 129.863 19.5072 130.194 18.8885C130.525 18.2592 130.983 17.7685 131.57 17.4165C132.167 17.0538 132.85 16.8725 133.618 16.8725C134.247 16.8725 134.797 16.9952 135.266 17.2405C135.746 17.4858 136.119 17.8325 136.386 18.2805V13.4805H138.082V25.0005H136.562L136.386 23.7685C136.13 24.1418 135.778 24.4725 135.33 24.7605C134.882 25.0485 134.306 25.1925 133.602 25.1925ZM133.906 23.7205C134.631 23.7205 135.223 23.4698 135.682 22.9685C136.151 22.4672 136.386 21.8218 136.386 21.0325C136.386 20.2325 136.151 19.5872 135.682 19.0965C135.223 18.5952 134.631 18.3445 133.906 18.3445C133.181 18.3445 132.583 18.5952 132.114 19.0965C131.645 19.5872 131.41 20.2325 131.41 21.0325C131.41 21.5552 131.517 22.0192 131.73 22.4245C131.943 22.8298 132.237 23.1498 132.61 23.3845C132.994 23.6085 133.426 23.7205 133.906 23.7205ZM140.284 25.0005V13.8005H141.98V25.0005H140.284ZM144.189 25.0005V17.0645H145.693L145.821 18.4565C146.067 17.9658 146.424 17.5818 146.893 17.3045C147.373 17.0165 147.923 16.8725 148.541 16.8725C149.501 16.8725 150.253 17.1712 150.797 17.7685C151.352 18.3658 151.629 19.2565 151.629 20.4405V25.0005H149.949V20.6165C149.949 19.0805 149.32 18.3125 148.061 18.3125C147.432 18.3125 146.909 18.5365 146.493 18.9845C146.088 19.4325 145.885 20.0725 145.885 20.9045V25.0005H144.189Z" fill="white"/>
</g>
<defs>
<clipPath id="clip0_464_991">
<rect width="172" height="40" fill="white"/>
</clipPath>
</defs>
</svg>
