<svg width="182" height="40" viewBox="0 0 182 40" fill="none" xmlns="http://www.w3.org/2000/svg">
<g clip-path="url(#clip0_464_985)">
<path d="M162 1H20C9.50659 1 1 9.50659 1 20C1 30.4934 9.50659 39 20 39H162C172.493 39 181 30.4934 181 20C181 9.50659 172.493 1 162 1Z" stroke="#EBEAED" stroke-width="2"/>
<path d="M23.957 25.1925C23.1357 25.1925 22.4157 25.0485 21.797 24.7605C21.1783 24.4725 20.693 24.0618 20.341 23.5285C19.9997 22.9952 19.8237 22.3605 19.813 21.6245H21.605C21.6157 22.2218 21.8237 22.7285 22.229 23.1445C22.6343 23.5605 23.205 23.7685 23.941 23.7685C24.5917 23.7685 25.0983 23.6138 25.461 23.3045C25.8343 22.9845 26.021 22.5792 26.021 22.0885C26.021 21.6938 25.9303 21.3738 25.749 21.1285C25.5783 20.8832 25.3383 20.6805 25.029 20.5205C24.7303 20.3605 24.3837 20.2165 23.989 20.0885C23.5943 19.9605 23.1783 19.8218 22.741 19.6725C21.877 19.3845 21.2263 19.0112 20.789 18.5525C20.3623 18.0938 20.149 17.4912 20.149 16.7445C20.1383 16.1152 20.2823 15.5658 20.581 15.0965C20.8903 14.6272 21.317 14.2645 21.861 14.0085C22.4157 13.7418 23.061 13.6085 23.797 13.6085C24.5223 13.6085 25.157 13.7418 25.701 14.0085C26.2557 14.2752 26.6877 14.6485 26.997 15.1285C27.3063 15.5978 27.4663 16.1472 27.477 16.7765H25.685C25.685 16.4885 25.6103 16.2165 25.461 15.9605C25.3117 15.6938 25.093 15.4752 24.805 15.3045C24.517 15.1338 24.165 15.0485 23.749 15.0485C23.2157 15.0378 22.773 15.1712 22.421 15.4485C22.0797 15.7258 21.909 16.1098 21.909 16.6005C21.909 17.0378 22.037 17.3738 22.293 17.6085C22.549 17.8432 22.901 18.0405 23.349 18.2005C23.797 18.3498 24.309 18.5258 24.885 18.7285C25.4397 18.9098 25.9357 19.1285 26.373 19.3845C26.8103 19.6405 27.157 19.9765 27.413 20.3925C27.6797 20.8085 27.813 21.3365 27.813 21.9765C27.813 22.5418 27.669 23.0698 27.381 23.5605C27.093 24.0405 26.661 24.4352 26.085 24.7445C25.509 25.0432 24.7997 25.1925 23.957 25.1925ZM29.6033 25.0005V13.4805H31.2993V18.3445C31.5659 17.8858 31.9339 17.5285 32.4033 17.2725C32.8833 17.0058 33.4113 16.8725 33.9873 16.8725C34.9366 16.8725 35.6833 17.1712 36.2273 17.7685C36.7713 18.3658 37.0433 19.2565 37.0433 20.4405V25.0005H35.3633V20.6165C35.3633 19.0805 34.7499 18.3125 33.5233 18.3125C32.8833 18.3125 32.3499 18.5365 31.9233 18.9845C31.5073 19.4325 31.2993 20.0725 31.2993 20.9045V25.0005H29.6033ZM41.7288 25.1925C41.0568 25.1925 40.5021 25.0805 40.0648 24.8565C39.6274 24.6325 39.3021 24.3392 39.0888 23.9765C38.8754 23.6032 38.7688 23.1978 38.7688 22.7605C38.7688 21.9925 39.0674 21.3845 39.6648 20.9365C40.2621 20.4885 41.1154 20.2645 42.2248 20.2645H44.3048V20.1205C44.3048 19.5018 44.1341 19.0378 43.7928 18.7285C43.4621 18.4192 43.0301 18.2645 42.4968 18.2645C42.0274 18.2645 41.6168 18.3818 41.2648 18.6165C40.9234 18.8405 40.7154 19.1765 40.6408 19.6245H38.9448C38.9981 19.0485 39.1901 18.5578 39.5208 18.1525C39.8621 17.7365 40.2888 17.4218 40.8008 17.2085C41.3234 16.9845 41.8941 16.8725 42.5128 16.8725C43.6221 16.8725 44.4808 17.1658 45.0888 17.7525C45.6968 18.3285 46.0008 19.1178 46.0008 20.1205V25.0005H44.5288L44.3848 23.6405C44.1608 24.0778 43.8354 24.4458 43.4088 24.7445C42.9821 25.0432 42.4221 25.1925 41.7288 25.1925ZM42.0648 23.8165C42.5234 23.8165 42.9074 23.7098 43.2168 23.4965C43.5368 23.2725 43.7821 22.9792 43.9528 22.6165C44.1341 22.2538 44.2461 21.8538 44.2888 21.4165H42.4008C41.7288 21.4165 41.2488 21.5338 40.9608 21.7685C40.6834 22.0032 40.5448 22.2965 40.5448 22.6485C40.5448 23.0112 40.6781 23.2992 40.9448 23.5125C41.2221 23.7152 41.5954 23.8165 42.0648 23.8165ZM47.9783 25.0005V17.0645H49.4983L49.6423 18.5685C49.9196 18.0458 50.3036 17.6352 50.7943 17.3365C51.2956 17.0272 51.8983 16.8725 52.6023 16.8725V18.6485H52.1383C51.6689 18.6485 51.2476 18.7285 50.8743 18.8885C50.5116 19.0378 50.2183 19.2992 49.9943 19.6725C49.7809 20.0352 49.6743 20.5418 49.6743 21.1925V25.0005H47.9783ZM57.5496 25.1925C56.771 25.1925 56.0776 25.0218 55.4696 24.6805C54.8723 24.3285 54.403 23.8432 54.0616 23.2245C53.7203 22.6058 53.5496 21.8858 53.5496 21.0645C53.5496 20.2325 53.715 19.5018 54.0456 18.8725C54.387 18.2432 54.8563 17.7525 55.4536 17.4005C56.0616 17.0485 56.7656 16.8725 57.5656 16.8725C58.3443 16.8725 59.0216 17.0485 59.5976 17.4005C60.1736 17.7418 60.6216 18.2005 60.9416 18.7765C61.2616 19.3525 61.4216 19.9872 61.4216 20.6805C61.4216 20.7872 61.4163 20.9045 61.4056 21.0325C61.4056 21.1498 61.4003 21.2832 61.3896 21.4325H55.2136C55.267 22.2005 55.5176 22.7872 55.9656 23.1925C56.4243 23.5872 56.9523 23.7845 57.5496 23.7845C58.0296 23.7845 58.4296 23.6778 58.7496 23.4645C59.0803 23.2405 59.3256 22.9418 59.4856 22.5685H61.1816C60.9683 23.3152 60.5416 23.9392 59.9016 24.4405C59.2723 24.9418 58.4883 25.1925 57.5496 25.1925ZM57.5496 18.2645C56.9843 18.2645 56.483 18.4352 56.0456 18.7765C55.6083 19.1072 55.3416 19.6085 55.2456 20.2805H59.7256C59.6936 19.6618 59.475 19.1712 59.0696 18.8085C58.6643 18.4458 58.1576 18.2645 57.5496 18.2645ZM70.9246 25.1925C70.1673 25.1925 69.4846 25.0218 68.8766 24.6805C68.2793 24.3285 67.8046 23.8432 67.4526 23.2245C67.1006 22.5952 66.9246 21.8645 66.9246 21.0325C66.9246 20.2005 67.1006 19.4752 67.4526 18.8565C67.8153 18.2272 68.3006 17.7418 68.9086 17.4005C69.5166 17.0485 70.194 16.8725 70.9406 16.8725C71.698 16.8725 72.3753 17.0485 72.9726 17.4005C73.5806 17.7418 74.0606 18.2272 74.4126 18.8565C74.7753 19.4752 74.9566 20.2005 74.9566 21.0325C74.9566 21.8645 74.7753 22.5952 74.4126 23.2245C74.0606 23.8432 73.5806 24.3285 72.9726 24.6805C72.3646 25.0218 71.682 25.1925 70.9246 25.1925ZM70.9246 23.7365C71.33 23.7365 71.7033 23.6352 72.0446 23.4325C72.3966 23.2298 72.6793 22.9312 72.8926 22.5365C73.106 22.1312 73.2126 21.6298 73.2126 21.0325C73.2126 20.4352 73.106 19.9392 72.8926 19.5445C72.69 19.1392 72.4126 18.8352 72.0606 18.6325C71.7193 18.4298 71.346 18.3285 70.9406 18.3285C70.5353 18.3285 70.1566 18.4298 69.8046 18.6325C69.4633 18.8352 69.186 19.1392 68.9726 19.5445C68.7593 19.9392 68.6526 20.4352 68.6526 21.0325C68.6526 21.6298 68.7593 22.1312 68.9726 22.5365C69.186 22.9312 69.4633 23.2298 69.8046 23.4325C70.146 23.6352 70.5193 23.7365 70.9246 23.7365ZM76.7908 25.0005V17.0645H78.2948L78.4228 18.4565C78.6681 17.9658 79.0254 17.5818 79.4948 17.3045C79.9748 17.0165 80.5241 16.8725 81.1428 16.8725C82.1028 16.8725 82.8548 17.1712 83.3988 17.7685C83.9534 18.3658 84.2308 19.2565 84.2308 20.4405V25.0005H82.5508V20.6165C82.5508 19.0805 81.9214 18.3125 80.6628 18.3125C80.0334 18.3125 79.5108 18.5365 79.0948 18.9845C78.6894 19.4325 78.4868 20.0725 78.4868 20.9045V25.0005H76.7908ZM90.3235 25.0005V13.8005H97.3475V15.1765H92.0195V18.7125H96.4355V20.0725H92.0195V25.0005H90.3235ZM101.026 25.1925C100.354 25.1925 99.799 25.0805 99.3616 24.8565C98.9243 24.6325 98.599 24.3392 98.3856 23.9765C98.1723 23.6032 98.0656 23.1978 98.0656 22.7605C98.0656 21.9925 98.3643 21.3845 98.9616 20.9365C99.559 20.4885 100.412 20.2645 101.522 20.2645H103.602V20.1205C103.602 19.5018 103.431 19.0378 103.09 18.7285C102.759 18.4192 102.327 18.2645 101.794 18.2645C101.324 18.2645 100.914 18.3818 100.562 18.6165C100.22 18.8405 100.012 19.1765 99.9376 19.6245H98.2416C98.295 19.0485 98.487 18.5578 98.8176 18.1525C99.159 17.7365 99.5856 17.4218 100.098 17.2085C100.62 16.9845 101.191 16.8725 101.81 16.8725C102.919 16.8725 103.778 17.1658 104.386 17.7525C104.994 18.3285 105.298 19.1178 105.298 20.1205V25.0005H103.826L103.682 23.6405C103.458 24.0778 103.132 24.4458 102.706 24.7445C102.279 25.0432 101.719 25.1925 101.026 25.1925ZM101.362 23.8165C101.82 23.8165 102.204 23.7098 102.514 23.4965C102.834 23.2725 103.079 22.9792 103.25 22.6165C103.431 22.2538 103.543 21.8538 103.586 21.4165H101.698C101.026 21.4165 100.546 21.5338 100.258 21.7685C99.9803 22.0032 99.8416 22.2965 99.8416 22.6485C99.8416 23.0112 99.975 23.2992 100.242 23.5125C100.519 23.7152 100.892 23.8165 101.362 23.8165ZM111.035 25.1925C110.256 25.1925 109.558 25.0165 108.939 24.6645C108.331 24.3125 107.851 23.8272 107.499 23.2085C107.158 22.5792 106.987 21.8538 106.987 21.0325C106.987 20.2112 107.158 19.4912 107.499 18.8725C107.851 18.2432 108.331 17.7525 108.939 17.4005C109.558 17.0485 110.256 16.8725 111.035 16.8725C112.016 16.8725 112.838 17.1285 113.499 17.6405C114.171 18.1525 114.603 18.8458 114.795 19.7205H113.019C112.912 19.2832 112.678 18.9418 112.315 18.6965C111.952 18.4512 111.526 18.3285 111.035 18.3285C110.619 18.3285 110.235 18.4352 109.883 18.6485C109.531 18.8512 109.248 19.1552 109.035 19.5605C108.822 19.9552 108.715 20.4458 108.715 21.0325C108.715 21.6192 108.822 22.1152 109.035 22.5205C109.248 22.9152 109.531 23.2192 109.883 23.4325C110.235 23.6458 110.619 23.7525 111.035 23.7525C111.526 23.7525 111.952 23.6298 112.315 23.3845C112.678 23.1392 112.912 22.7925 113.019 22.3445H114.795C114.614 23.1978 114.187 23.8858 113.515 24.4085C112.843 24.9312 112.016 25.1925 111.035 25.1925ZM120.347 25.1925C119.568 25.1925 118.875 25.0218 118.267 24.6805C117.669 24.3285 117.2 23.8432 116.859 23.2245C116.517 22.6058 116.347 21.8858 116.347 21.0645C116.347 20.2325 116.512 19.5018 116.843 18.8725C117.184 18.2432 117.653 17.7525 118.251 17.4005C118.859 17.0485 119.563 16.8725 120.363 16.8725C121.141 16.8725 121.819 17.0485 122.395 17.4005C122.971 17.7418 123.419 18.2005 123.739 18.7765C124.059 19.3525 124.219 19.9872 124.219 20.6805C124.219 20.7872 124.213 20.9045 124.203 21.0325C124.203 21.1498 124.197 21.2832 124.187 21.4325H118.011C118.064 22.2005 118.315 22.7872 118.763 23.1925C119.221 23.5872 119.749 23.7845 120.347 23.7845C120.827 23.7845 121.227 23.6778 121.547 23.4645C121.877 23.2405 122.123 22.9418 122.283 22.5685H123.979C123.765 23.3152 123.339 23.9392 122.699 24.4405C122.069 24.9418 121.285 25.1925 120.347 25.1925ZM120.347 18.2645C119.781 18.2645 119.28 18.4352 118.843 18.7765C118.405 19.1072 118.139 19.6085 118.043 20.2805H122.523C122.491 19.6618 122.272 19.1712 121.867 18.8085C121.461 18.4458 120.955 18.2645 120.347 18.2645ZM130.442 25.1925C129.824 25.1925 129.274 25.0698 128.794 24.8245C128.325 24.5792 127.952 24.2325 127.674 23.7845L127.498 25.0005H125.978V13.4805H127.674V18.2965C127.93 17.9232 128.282 17.5925 128.73 17.3045C129.178 17.0165 129.754 16.8725 130.458 16.8725C131.226 16.8725 131.904 17.0538 132.49 17.4165C133.077 17.7792 133.536 18.2752 133.866 18.9045C134.208 19.5338 134.378 20.2485 134.378 21.0485C134.378 21.8485 134.208 22.5632 133.866 23.1925C133.536 23.8112 133.077 24.3018 132.49 24.6645C131.904 25.0165 131.221 25.1925 130.442 25.1925ZM130.154 23.7205C130.88 23.7205 131.477 23.4752 131.946 22.9845C132.416 22.4832 132.65 21.8325 132.65 21.0325C132.65 20.5098 132.544 20.0458 132.33 19.6405C132.117 19.2352 131.824 18.9205 131.45 18.6965C131.077 18.4618 130.645 18.3445 130.154 18.3445C129.429 18.3445 128.832 18.5952 128.362 19.0965C127.904 19.5978 127.674 20.2432 127.674 21.0325C127.674 21.8325 127.904 22.4832 128.362 22.9845C128.832 23.4752 129.429 23.7205 130.154 23.7205ZM139.925 25.1925C139.167 25.1925 138.485 25.0218 137.877 24.6805C137.279 24.3285 136.805 23.8432 136.453 23.2245C136.101 22.5952 135.925 21.8645 135.925 21.0325C135.925 20.2005 136.101 19.4752 136.453 18.8565C136.815 18.2272 137.301 17.7418 137.909 17.4005C138.517 17.0485 139.194 16.8725 139.941 16.8725C140.698 16.8725 141.375 17.0485 141.973 17.4005C142.581 17.7418 143.061 18.2272 143.413 18.8565C143.775 19.4752 143.957 20.2005 143.957 21.0325C143.957 21.8645 143.775 22.5952 143.413 23.2245C143.061 23.8432 142.581 24.3285 141.973 24.6805C141.365 25.0218 140.682 25.1925 139.925 25.1925ZM139.925 23.7365C140.33 23.7365 140.703 23.6352 141.045 23.4325C141.397 23.2298 141.679 22.9312 141.893 22.5365C142.106 22.1312 142.213 21.6298 142.213 21.0325C142.213 20.4352 142.106 19.9392 141.893 19.5445C141.69 19.1392 141.413 18.8352 141.061 18.6325C140.719 18.4298 140.346 18.3285 139.941 18.3285C139.535 18.3285 139.157 18.4298 138.805 18.6325C138.463 18.8352 138.186 19.1392 137.973 19.5445C137.759 19.9392 137.653 20.4352 137.653 21.0325C137.653 21.6298 137.759 22.1312 137.973 22.5365C138.186 22.9312 138.463 23.2298 138.805 23.4325C139.146 23.6352 139.519 23.7365 139.925 23.7365ZM149.503 25.1925C148.745 25.1925 148.063 25.0218 147.455 24.6805C146.857 24.3285 146.383 23.8432 146.031 23.2245C145.679 22.5952 145.503 21.8645 145.503 21.0325C145.503 20.2005 145.679 19.4752 146.031 18.8565C146.393 18.2272 146.879 17.7418 147.487 17.4005C148.095 17.0485 148.772 16.8725 149.519 16.8725C150.276 16.8725 150.953 17.0485 151.551 17.4005C152.159 17.7418 152.639 18.2272 152.991 18.8565C153.353 19.4752 153.535 20.2005 153.535 21.0325C153.535 21.8645 153.353 22.5952 152.991 23.2245C152.639 23.8432 152.159 24.3285 151.551 24.6805C150.943 25.0218 150.26 25.1925 149.503 25.1925ZM149.503 23.7365C149.908 23.7365 150.281 23.6352 150.623 23.4325C150.975 23.2298 151.257 22.9312 151.471 22.5365C151.684 22.1312 151.791 21.6298 151.791 21.0325C151.791 20.4352 151.684 19.9392 151.471 19.5445C151.268 19.1392 150.991 18.8352 150.639 18.6325C150.297 18.4298 149.924 18.3285 149.519 18.3285C149.113 18.3285 148.735 18.4298 148.383 18.6325C148.041 18.8352 147.764 19.1392 147.551 19.5445C147.337 19.9392 147.231 20.4352 147.231 21.0325C147.231 21.6298 147.337 22.1312 147.551 22.5365C147.764 22.9312 148.041 23.2298 148.383 23.4325C148.724 23.6352 149.097 23.7365 149.503 23.7365ZM155.369 25.0005V13.4805H157.065V20.3445L160.105 17.0645H162.137L158.761 20.6645L162.633 25.0005H160.489L157.065 20.9365V25.0005H155.369Z" fill="white"/>
</g>
<defs>
<clipPath id="clip0_464_985">
<rect width="182" height="40" fill="white"/>
</clipPath>
</defs>
</svg>
