<svg width="232" height="38" viewBox="0 0 232 38" fill="none" xmlns="http://www.w3.org/2000/svg">
<path d="M11.0178 24.5535C11.2499 24.3213 11.2499 23.9642 11.0178 23.732L3.99995 16.7142L11.0178 9.6963C11.2499 9.46415 11.2499 9.10701 11.0178 8.87487L10.1249 7.98201C9.89281 7.74987 9.53567 7.74987 9.30352 7.98201L0.982091 16.3035C0.749948 16.5356 0.749948 16.8928 0.982091 17.1249L9.30352 25.4463C9.53567 25.6785 9.89281 25.6785 10.1249 25.4463L11.0178 24.5535ZM21.5713 5.49987C21.6606 5.1963 21.482 4.87487 21.1785 4.78558L20.0713 4.48201C19.7856 4.39273 19.4642 4.5713 19.3749 4.87487L12.7142 27.9285C12.6249 28.232 12.8035 28.5535 13.107 28.6428L14.2142 28.9463C14.4999 29.0356 14.8213 28.857 14.9106 28.5535L21.5713 5.49987ZM33.3035 17.1249C33.5356 16.8928 33.5356 16.5356 33.3035 16.3035L24.982 7.98201C24.7499 7.74987 24.3928 7.74987 24.1606 7.98201L23.2678 8.87487C23.0356 9.10701 23.0356 9.46415 23.2678 9.6963L30.2856 16.7142L23.2678 23.732C23.0356 23.9642 23.0356 24.3213 23.2678 24.5535L24.1606 25.4463C24.3928 25.6785 24.7499 25.6785 24.982 25.4463L33.3035 17.1249Z" fill="white"/>
<path d="M117 29.286C117.286 29.286 117.571 29.1789 117.786 28.9646L128.911 18.2503C129.071 18.0896 133 14.5003 133 10.2146C133 4.98242 129.804 1.85742 124.464 1.85742C121.339 1.85742 118.411 4.32171 117 5.71456C115.589 4.32171 112.661 1.85742 109.536 1.85742C104.196 1.85742 101 4.98242 101 10.2146C101 14.5003 104.929 18.0896 105.071 18.2146L116.214 28.9646C116.429 29.1789 116.714 29.286 117 29.286Z" fill="#E93A7D"/>
<path d="M222.304 17.4997L223.589 25.0176L216.857 21.464L210.107 25.0176L211.411 17.4997L205.946 12.1961L213.482 11.089L216.857 4.26758L220.232 11.089L227.768 12.1961L222.304 17.4997ZM231.714 11.1247C231.714 10.589 231.143 10.3747 230.714 10.3033L221.75 8.99972L217.732 0.874719C217.571 0.535434 217.268 0.142578 216.857 0.142578C216.446 0.142578 216.143 0.535434 215.982 0.874719L211.964 8.99972L203 10.3033C202.554 10.3747 202 10.589 202 11.1247C202 11.4461 202.232 11.7497 202.446 11.9818L208.946 18.3033L207.411 27.2318C207.393 27.3568 207.375 27.464 207.375 27.589C207.375 28.0533 207.607 28.4818 208.125 28.4818C208.375 28.4818 208.607 28.3926 208.839 28.2676L216.857 24.0533L224.875 28.2676C225.089 28.3926 225.339 28.4818 225.589 28.4818C226.107 28.4818 226.321 28.0711 226.321 27.589C226.321 27.464 226.321 27.3568 226.304 27.2318L224.768 18.3033L231.25 11.9818C231.482 11.7497 231.714 11.4461 231.714 11.1247Z" fill="white"/>
</svg>
