<svg width="365" height="55" viewBox="0 0 365 55" fill="none" xmlns="http://www.w3.org/2000/svg">
<g clip-path="url(#clip0_464_1036)">
<path d="M43.3932 25.4929C43.698 22.3377 47.7972 20.8779 50.2126 22.8395C52.3155 24.3753 52.4832 27.6218 50.4412 29.302C47.462 31.9174 43.0504 29.3324 43.3856 25.5385V25.4853L43.3932 25.4929Z" fill="#0500FF"/>
<path d="M38.8902 5.7481C41.1913 5.73289 43.1037 7.97577 42.6542 10.2338C42.0141 13.8072 37.3968 14.8488 35.591 11.5415C34.1662 9.03259 35.8196 5.67967 38.8369 5.7481H38.8902Z" fill="#0500FF"/>
<path d="M54.9518 13.0011C54.8147 15.4721 51.7136 16.9851 49.6335 15.6317C47.302 14.2556 47.7287 10.4237 50.2888 9.54175C52.4908 8.6446 55.1423 10.5986 54.9518 12.9479V13.0011Z" fill="#0500FF"/>
<path d="M24.9239 54.9996C22.4476 54.9312 20.5123 54.7183 18.5998 54.2165C16.9845 53.7907 15.3997 53.2661 13.9063 52.5362C10.8814 51.0613 8.22988 49.0997 6.00502 46.5527C4.35924 44.6671 3.01823 42.5991 1.98961 40.3334C1.33435 38.8889 0.861947 37.3683 0.526695 35.8173C0.153346 34.099 -0.0447572 32.3655 0.00857838 30.6244C0.0542946 29.2179 0.260017 27.8113 0.450502 26.4124C0.679083 24.7397 1.20482 23.1355 1.85247 21.5769C2.8887 19.0755 4.29066 16.7946 6.05836 14.7342C7.64318 12.8867 9.47183 11.3052 11.5367 10.0203C13.3425 8.89514 15.2854 8.0208 17.3426 7.43537C18.7522 7.03241 20.1694 6.71309 21.6323 6.62185C22.8362 6.54582 24.0553 6.43178 25.2439 6.57623C27.0192 6.78912 27.9869 8.60623 27.4916 10.2484C26.9659 12.0047 27.2021 13.7154 27.964 15.35C28.726 16.9847 29.9146 18.2316 31.5147 19.0907C32.7185 19.7446 34.0214 19.965 35.3701 19.9955C36.353 20.0183 37.1835 20.3832 37.7244 21.2271C38.334 22.1699 38.3111 23.1735 37.7473 24.1315C36.8711 25.6217 36.4139 27.2259 36.5511 28.9518C36.8025 31.993 38.6464 34.7605 41.656 35.7793C42.5704 36.091 43.5456 36.2202 44.5057 36.3799C45.0848 36.4787 45.5267 36.7829 45.8924 37.201C46.7991 38.235 46.8143 39.5047 46.22 40.5539C45.6486 41.5575 45.1305 42.5915 44.5514 43.5875C43.8276 44.8344 42.9285 45.9597 41.938 47.0165C40.1474 48.9476 38.014 50.4074 35.7891 51.7759C33.3509 53.2813 30.7451 54.3077 27.9107 54.7031C26.7526 54.8628 25.5792 54.9312 24.9163 54.992L24.9239 54.9996ZM16.4664 28.8073C16.5502 25.4316 12.5043 23.3864 10.0128 25.865C8.29845 27.4692 8.62608 30.3279 10.569 31.5748C12.8167 33.179 16.3674 31.6584 16.4664 28.8529V28.8073ZM31.5604 43.7168C34.09 43.6179 35.2939 40.7288 33.9757 38.6988C32.2918 36.0226 28.4898 37.1402 28.1393 40.1586C27.8802 42.0745 29.5946 43.846 31.5147 43.7168H31.5604ZM13.3958 40.8581C13.3653 42.7284 15.5673 44.1501 17.2664 43.329C19.2551 42.5079 19.4075 39.4439 17.4874 38.4631C15.773 37.4975 13.3882 38.8433 13.3958 40.8124V40.8581ZM16.6569 20.7634C16.6264 22.4284 18.5846 23.6829 20.0932 22.953C21.8609 22.2231 21.9905 19.5089 20.2913 18.6345C18.7675 17.7754 16.6493 18.9767 16.6645 20.7253V20.7634H16.6569ZM23.8039 32.8901C25.0992 32.9129 26.0821 31.3923 25.5182 30.2139C24.9468 28.8377 22.8286 28.7389 22.1428 30.0618C21.4723 31.2479 22.4095 32.8901 23.7734 32.8825H23.8039V32.8901Z" fill="#0500FF"/>
<path d="M66.1675 15.0763C66.7618 15.4641 67.0666 16.0951 67.2723 16.7718C67.5238 17.6157 67.7828 18.6801 68.1029 19.889C69.6724 25.8574 72.2554 35.9237 72.9107 39.117C73.0707 39.786 73.3221 41.3674 73.7107 39.7556C74.3736 36.7905 76.8575 27.7809 78.4042 22.284C78.8919 20.5657 79.3567 18.8778 79.7681 17.4485C79.9129 16.9543 80.0729 16.4525 80.3319 16.0115C81.3987 14.164 84.6521 14.0651 86.275 15.2284C87.418 16.0799 87.6161 17.6005 88.0046 18.8854C89.4599 24.2683 92.4315 34.9885 93.3153 38.9801C93.4068 39.3146 93.5896 40.4703 93.8944 39.6492C94.7249 36.5472 96.7212 28.64 98.1384 23.6069C98.6413 21.7593 99.0146 20.3908 99.4565 18.7714C99.8451 17.4104 100.127 15.715 101.491 15.0155C102.809 14.278 105.133 14.354 106.116 14.5289C106.771 14.643 106.885 15.0079 106.68 15.6161C105.392 19.7598 103.525 25.8422 101.963 30.8525C99.8528 37.5431 98.1384 43.4127 97.1936 46.0965C96.9422 46.6743 96.3402 46.7884 95.7002 46.8492C94.7173 46.9252 93.1553 47.0165 91.8981 46.5907C90.5343 46.1497 89.818 45.1157 89.3533 43.7548C87.2884 36.5396 84.934 27.3551 83.9664 23.5156C83.5702 21.8658 83.3721 21.2575 82.9301 23.356C82.0387 27.2259 80.8805 31.2935 79.6462 35.764C78.8766 38.3339 78.1757 41.4739 77.1851 44.0969C76.1565 46.8872 73.4821 47.0469 71.0363 46.872C70.1068 46.8264 69.322 46.6515 69.1162 45.6859C67.7905 41.1926 61.7635 20.5961 60.354 15.7758C59.9958 14.719 60.4302 14.5289 61.4359 14.4529C62.8074 14.3768 64.9484 14.3008 66.1523 15.0687L66.1828 15.0915L66.1675 15.0763Z" fill="white"/>
<path d="M113.248 32.769C113.027 36.5781 115.472 41.0638 119.069 42.0446C121.362 42.7365 124.311 42.3791 126.3 41.0258C127.77 40.045 128.204 38.6385 129.911 38.1519C131.237 37.7489 133.378 37.7717 134.193 38.2279C135.092 38.7145 134.437 39.8169 134.102 40.5012C131.923 44.8425 127.343 47.4579 122.185 47.6252C112.615 48.3323 106.916 40.889 106.687 32.0923C106.101 20.6574 112.989 11.511 125.271 14.0048C129.896 14.9324 133.302 18.3765 134.711 22.6342C135.184 24.0027 135.489 25.4245 135.641 26.8615C135.763 28.0703 135.824 29.3932 135.725 30.2904C135.679 30.6629 135.603 31.0507 135.382 31.3396C135.077 31.7426 134.544 31.8034 134.018 31.8262C130.292 31.849 119.153 31.8262 115.008 31.8338C114.269 31.8338 113.415 31.8718 113.248 32.731V32.769ZM129.385 26.5345C129.751 24.7934 128.486 21.7522 127.122 20.4217C123.8 17.0384 117.095 17.6086 114.688 21.8131C113.971 23.0143 112.562 26.1696 113.644 27.0439C114.352 27.4773 115.198 27.3328 116.074 27.3709C117.705 27.3709 119.419 27.3709 121.141 27.3709C122.787 27.3709 124.44 27.3709 125.812 27.3709C127.45 27.2872 128.898 27.675 129.378 26.5649V26.5345H129.385Z" fill="white"/>
<path d="M140.129 0.136854C140.548 0.030412 141.279 0.00760299 142.133 0C143.336 0.0684269 144.769 -0.205281 145.538 0.539812C145.782 0.86674 145.782 1.31532 145.798 1.76389C145.813 4.88112 145.798 13.2672 145.798 16.6962C145.813 17.0915 145.782 17.7834 145.973 17.9811C146.057 18.0571 146.171 18.0039 146.339 17.867C146.727 17.5325 147.161 17.0231 147.58 16.6429C148.685 15.5633 150.506 14.5673 152.426 14.1492C159.886 12.3625 166.347 16.1868 168.427 23.5769C171.178 32.6548 167.703 45.6635 158.126 47.2982C155.444 47.8304 152.129 47.6707 149.63 46.4847C148.601 46.0665 147.428 44.9184 146.78 44.4851C146.133 44.0441 145.874 44.5307 145.668 45.0629C145.447 45.6103 145.135 46.2033 144.578 46.4999C143.192 47.1765 140.243 47.2297 139.649 45.4659C139.473 44.9336 139.458 44.3102 139.458 43.7324C139.458 41.8468 139.481 39.4519 139.481 37.6652C139.473 30.7845 139.481 10.9331 139.481 0.988388C139.481 0.570224 139.603 0.243296 140.075 0.144457H140.106L140.129 0.136854ZM163.208 30.1382C163.269 22.809 159.261 17.198 151.626 19.2964C146.902 20.5509 145.698 26.4584 145.843 31.1494C145.843 37.1406 148.175 42.5463 154.545 42.4627C160.937 42.5007 163.307 35.8557 163.215 30.2067V30.1382H163.208Z" fill="white"/>
<path d="M199.072 37.597C200.047 38.8895 196.977 43.17 195.872 44.1051C193.22 46.8118 188.489 47.9598 184.649 47.6405C175.841 47.2376 170.88 39.5053 171.147 30.625C170.987 21.7523 177.052 13.275 186.515 13.6476C189.502 13.6628 193.007 14.5903 195.278 16.4074C197.358 18.0041 198.6 20.1025 199.255 22.0184C199.423 22.5431 199.636 23.1589 199.445 23.6683C198.912 24.7935 196.162 24.7099 194.737 24.2385C193.556 23.8736 192.939 22.8396 192.253 21.8436C191.689 21.0377 190.95 20.3154 190.005 19.8212C188.176 18.8404 185.708 18.6503 183.75 19.2814C177.692 21.1441 176.862 30.4274 178.393 35.8559C179.033 38.1748 180.336 40.4329 182.5 41.5885C184.778 42.8126 187.872 42.7366 190.135 41.3452C191.742 40.4481 192.519 38.4485 194.028 37.5894C195.346 36.8823 197.899 36.5478 199.065 37.5894L199.087 37.6122L199.072 37.597Z" fill="white"/>
<path d="M202.829 22.2534C202.829 20.9381 202.813 19.2198 202.806 17.8133C202.836 16.6652 202.608 15.2967 203.75 14.6885C204.84 14.1106 207.118 14.0878 208.154 14.7265C209.252 15.4032 208.993 16.9846 209.214 18.0642C209.503 19.8661 210.433 18.4367 211.332 17.4484C212.437 16.1863 213.846 15.1827 215.408 14.5516C216.894 13.9966 218.265 13.5328 219.225 14.3387C220.559 15.7605 220.216 18.68 218.463 19.6152C217.747 20.003 216.871 20.1626 216.086 20.4135C212.109 21.4855 209.915 24.9981 209.427 29.1341C209.107 31.377 209.183 32.9204 209.168 35.5739C209.168 38.4022 209.168 42.3785 209.168 44.629C209.145 45.2449 209.168 45.9063 208.871 46.4233C208.208 47.3509 206.463 47.1456 205.32 47.176C204.093 47.1152 202.92 47.1456 202.867 45.8303C202.798 40.455 202.867 29.1265 202.836 22.2991V22.2534H202.829Z" fill="white"/>
<path d="M248.545 37.9007C248.545 39.178 248.56 41.0179 248.568 42.4397C248.499 43.6714 248.888 45.2376 247.729 45.9979C246.625 46.6061 244.628 46.5757 243.562 46.0283C242.952 45.7166 242.685 45.0247 242.518 44.4088C242.388 43.8766 242.144 43.1772 241.535 43.5953C240.796 44.1047 239.417 45.5797 238.243 46.0207C232.59 48.3776 225.245 47.1459 223.332 40.1588C222.829 38.3873 222.608 36.5017 222.593 34.7454C222.57 30.4878 222.593 22.7251 222.593 17.8972C222.624 16.9012 222.464 15.4947 222.989 15.221C223.424 14.9245 224.01 14.9169 224.544 14.8788C225.527 14.8408 226.753 14.8332 227.515 14.9625C228.666 15.0689 228.673 16.0497 228.651 17.0153C228.651 17.8516 228.651 18.954 228.651 20.2009C228.75 26.1009 228.437 30.9363 228.811 35.7871C229.092 37.8094 229.87 40.0067 231.805 40.9951C234.822 42.5081 239.196 41.9607 240.91 38.8359C241.405 37.9843 241.741 36.9275 241.946 35.9011C242.563 32.6546 242.426 30.8375 242.449 27.3782C242.449 25.1049 242.449 22.7327 242.449 20.4594C242.525 18.878 242.266 16.7872 242.632 15.6011C243.158 14.6508 244.804 14.9169 245.886 14.856C247.082 14.9397 248.392 14.6964 248.514 15.9889C248.59 20.8548 248.514 31.5522 248.545 37.8551V37.9007Z" fill="white"/>
<path d="M254.64 22.0254C254.64 20.8089 254.64 19.5468 254.625 18.3075C254.64 16.8857 254.564 15.7529 255.387 14.9926C256.758 13.8597 259.821 13.9358 260.583 15.7985C261.079 17.0606 261.101 18.1706 262.351 17.053C265.216 13.9206 270.184 12.8333 274.115 14.2551C275.723 14.7645 277.056 15.943 278.199 17.091C280.851 19.6456 281.224 14.3767 288.226 13.6773C295.686 12.7649 299.739 17.7297 300.113 24.9601C300.295 30.0389 300.12 36.357 300.181 42.5762C300.181 43.2225 300.181 43.8307 300.181 44.4618C300.174 45.9748 300.227 46.6894 299.13 46.9555C297.903 47.2064 296.143 47.1684 295.076 46.9707C294.413 46.8491 294.017 46.3929 293.994 45.7163C293.926 44.1881 293.971 42.3709 293.956 39.8468C293.956 36.5547 293.956 33.1485 293.956 29.8564C294.154 24.5571 293.568 18.8929 287.091 19.1134C280.378 19.6988 280.485 27.0661 280.546 32.4795C280.546 34.9808 280.546 37.5506 280.546 40.0064C280.546 41.3597 280.546 42.485 280.546 43.7015C280.538 45.146 280.607 46.0508 280.074 46.4766C279.662 46.7959 279.106 46.8415 278.588 46.8947C277.613 46.9631 276.401 46.9555 275.624 46.7959C274.291 46.621 274.458 45.2525 274.458 44.1805C274.458 40.417 274.458 32.6847 274.458 28.9897C274.443 25.9257 274.557 22.147 271.898 20.0486C268.203 17.532 263.128 19.2351 261.741 23.5916C260.591 26.9825 260.759 29.385 260.743 33.255C260.743 35.8248 260.743 38.1589 260.743 40.5994C260.652 42.3253 260.941 44.5986 260.56 45.9063C260.05 46.9251 258.358 46.697 257.254 46.7427C255.715 46.697 254.511 46.6894 254.655 44.956C254.655 40.1585 254.655 28.7236 254.655 22.4359V22.033L254.64 22.0254Z" fill="white"/>
<path d="M306.566 0.136854C306.985 0.030412 307.717 0.00760299 308.57 0C309.774 0.0684269 311.206 -0.205281 311.976 0.539812C312.22 0.86674 312.22 1.31532 312.235 1.76389C312.25 4.88112 312.235 13.2672 312.235 16.6962C312.25 17.0915 312.22 17.7834 312.41 17.9811C312.494 18.0571 312.608 18.0039 312.776 17.867C313.165 17.5325 313.599 17.0231 314.018 16.6429C315.123 15.5633 316.944 14.5673 318.864 14.1492C326.323 12.3625 332.784 16.1868 334.864 23.5769C337.615 32.6548 334.141 45.6635 324.563 47.2982C321.881 47.8304 318.567 47.6707 316.068 46.4847C315.039 46.0665 313.866 44.9184 313.218 44.4851C312.57 44.0441 312.311 44.5307 312.105 45.0629C311.884 45.6103 311.572 46.2033 311.016 46.4999C309.629 47.1765 306.68 47.2297 306.086 45.4659C305.911 44.9336 305.896 44.3102 305.896 43.7324C305.896 41.8468 305.919 39.4519 305.919 37.6652C305.911 30.7845 305.919 10.9331 305.919 0.988388C305.919 0.570224 306.04 0.243296 306.513 0.144457H306.543L306.566 0.136854ZM329.31 30.1382C329.371 22.809 325.363 17.198 317.729 19.2964C313.005 20.5509 311.801 26.4584 311.945 31.1494C311.945 37.1406 314.277 42.5463 320.647 42.4627C327.039 42.5007 329.409 35.8557 329.318 30.2067V30.1382H329.31Z" fill="white"/>
<path d="M342.933 38.3109C343.893 38.8888 344.442 39.8544 345.242 40.6375C346.629 42.1124 349.212 42.8347 351.414 42.7207C353.364 42.6294 355.048 42.1657 356.161 41.0328C357.387 39.7631 357.616 37.6419 356.763 36.1973C355.78 34.6235 354.004 33.9772 352.259 33.331C348.054 31.9549 342.697 31.1033 339.756 27.6059C338.308 25.7888 338.034 23.3255 338.491 21.0902C339.368 16.2243 344.663 13.6088 350.172 13.6469C355.269 13.5024 360.755 15.502 362.584 20.3299C362.873 21.037 363.148 22.0482 362.363 22.5195C360.984 23.3027 357.822 23.1734 356.618 21.6604C355.322 19.9573 353.639 18.8321 351.338 18.5508C348.419 18.0566 344.053 19.714 344.93 23.1886C345.524 25.1578 348.099 26.0017 350.195 26.6708C355.711 28.1458 363.711 30.0845 363.978 36.6535C364.786 46.7503 352.907 49.3733 344.655 46.7579C341.272 45.6174 339.086 43.481 337.912 40.7895C337.577 39.976 337.089 38.8812 337.851 38.1969C338.827 37.3758 341.554 37.4518 342.911 38.2957L342.949 38.3185L342.933 38.3109Z" fill="white"/>
</g>
<defs>
<clipPath id="clip0_464_1036">
<rect width="365" height="55" fill="white"/>
</clipPath>
</defs>
</svg>
