<svg width="794" height="121" viewBox="0 0 794 121" fill="none" xmlns="http://www.w3.org/2000/svg">
<g clip-path="url(#clip0_464_1050)">
<path d="M138.9 39.0001V6.76212H127.884V1.20012H156.882V6.76212H145.812V39.0001H138.9ZM160.84 39.0001V0.120117H167.752V16.3201C168.652 14.8441 169.858 13.6921 171.37 12.8641C172.918 12.0001 174.682 11.5681 176.662 11.5681C179.974 11.5681 182.53 12.6121 184.33 14.7001C186.166 16.7881 187.084 19.8481 187.084 23.8801V39.0001H180.226V24.5281C180.226 22.2241 179.758 20.4601 178.822 19.2361C177.922 18.0121 176.482 17.4001 174.502 17.4001C172.558 17.4001 170.938 18.0841 169.642 19.4521C168.382 20.8201 167.752 22.7281 167.752 25.1761V39.0001H160.84ZM205.708 39.6481C203.008 39.6481 200.614 39.0721 198.526 37.9201C196.438 36.7681 194.8 35.1481 193.612 33.0601C192.424 30.9721 191.83 28.5601 191.83 25.8241C191.83 23.0521 192.406 20.5861 193.558 18.4261C194.746 16.2661 196.366 14.5921 198.418 13.4041C200.506 12.1801 202.954 11.5681 205.762 11.5681C208.39 11.5681 210.712 12.1441 212.728 13.2961C214.744 14.4481 216.31 16.0321 217.426 18.0481C218.578 20.0281 219.154 22.2421 219.154 24.6901C219.154 25.0861 219.136 25.5001 219.1 25.9321C219.1 26.3641 219.082 26.8141 219.046 27.2821H198.688C198.832 29.3701 199.552 31.0081 200.848 32.1961C202.18 33.3841 203.782 33.9781 205.654 33.9781C207.058 33.9781 208.228 33.6721 209.164 33.0601C210.136 32.4121 210.856 31.5841 211.324 30.5761H218.344C217.84 32.2681 216.994 33.8161 215.806 35.2201C214.654 36.5881 213.214 37.6681 211.486 38.4601C209.794 39.2521 207.868 39.6481 205.708 39.6481ZM205.762 17.1841C204.07 17.1841 202.576 17.6701 201.28 18.6421C199.984 19.5781 199.156 21.0181 198.796 22.9621H212.134C212.026 21.1981 211.378 19.7941 210.19 18.7501C209.002 17.7061 207.526 17.1841 205.762 17.1841ZM235.834 39.0001V12.2161H241.936L242.476 16.7521C243.304 15.1681 244.492 13.9081 246.04 12.9721C247.624 12.0361 249.478 11.5681 251.602 11.5681C254.914 11.5681 257.488 12.6121 259.324 14.7001C261.16 16.7881 262.078 19.8481 262.078 23.8801V39.0001H255.166V24.5281C255.166 22.2241 254.698 20.4601 253.762 19.2361C252.826 18.0121 251.368 17.4001 249.388 17.4001C247.444 17.4001 245.842 18.0841 244.582 19.4521C243.358 20.8201 242.746 22.7281 242.746 25.1761V39.0001H235.834ZM280.702 39.6481C278.002 39.6481 275.608 39.0721 273.52 37.9201C271.432 36.7681 269.794 35.1481 268.606 33.0601C267.418 30.9721 266.824 28.5601 266.824 25.8241C266.824 23.0521 267.4 20.5861 268.552 18.4261C269.74 16.2661 271.36 14.5921 273.412 13.4041C275.5 12.1801 277.948 11.5681 280.756 11.5681C283.384 11.5681 285.706 12.1441 287.722 13.2961C289.738 14.4481 291.304 16.0321 292.42 18.0481C293.572 20.0281 294.148 22.2421 294.148 24.6901C294.148 25.0861 294.13 25.5001 294.094 25.9321C294.094 26.3641 294.076 26.8141 294.04 27.2821H273.682C273.826 29.3701 274.546 31.0081 275.842 32.1961C277.174 33.3841 278.776 33.9781 280.648 33.9781C282.052 33.9781 283.222 33.6721 284.158 33.0601C285.13 32.4121 285.85 31.5841 286.318 30.5761H293.338C292.834 32.2681 291.988 33.8161 290.8 35.2201C289.648 36.5881 288.208 37.6681 286.48 38.4601C284.788 39.2521 282.862 39.6481 280.702 39.6481ZM280.756 17.1841C279.064 17.1841 277.57 17.6701 276.274 18.6421C274.978 19.5781 274.15 21.0181 273.79 22.9621H287.128C287.02 21.1981 286.372 19.7941 285.184 18.7501C283.996 17.7061 282.52 17.1841 280.756 17.1841ZM294.577 39.0001L304.297 25.6081L294.577 12.2161H301.975L308.779 21.7201L315.529 12.2161H322.981L313.207 25.6081L322.981 39.0001H315.529L308.779 29.4961L301.975 39.0001H294.577ZM338.319 39.0001C335.511 39.0001 333.261 38.3161 331.569 36.9481C329.877 35.5801 329.031 33.1501 329.031 29.6581V17.9941H324.441V12.2161H329.031L329.841 5.03412H335.943V12.2161H343.179V17.9941H335.943V29.7121C335.943 31.0081 336.213 31.9081 336.753 32.4121C337.329 32.8801 338.301 33.1141 339.669 33.1141H343.017V39.0001H338.319ZM359.981 39.0001V12.2161H366.137L366.785 17.2381C367.757 15.5101 369.071 14.1421 370.727 13.1341C372.419 12.0901 374.399 11.5681 376.667 11.5681V18.8581H374.723C373.211 18.8581 371.861 19.0921 370.673 19.5601C369.485 20.0281 368.549 20.8381 367.865 21.9901C367.217 23.1421 366.893 24.7441 366.893 26.7961V39.0001H359.981ZM392.93 39.6481C390.23 39.6481 387.836 39.0721 385.748 37.9201C383.66 36.7681 382.022 35.1481 380.834 33.0601C379.646 30.9721 379.052 28.5601 379.052 25.8241C379.052 23.0521 379.628 20.5861 380.78 18.4261C381.968 16.2661 383.588 14.5921 385.64 13.4041C387.728 12.1801 390.176 11.5681 392.984 11.5681C395.612 11.5681 397.934 12.1441 399.95 13.2961C401.966 14.4481 403.532 16.0321 404.648 18.0481C405.8 20.0281 406.376 22.2421 406.376 24.6901C406.376 25.0861 406.358 25.5001 406.322 25.9321C406.322 26.3641 406.304 26.8141 406.268 27.2821H385.91C386.054 29.3701 386.774 31.0081 388.07 32.1961C389.402 33.3841 391.004 33.9781 392.876 33.9781C394.28 33.9781 395.45 33.6721 396.386 33.0601C397.358 32.4121 398.078 31.5841 398.546 30.5761H405.566C405.062 32.2681 404.216 33.8161 403.028 35.2201C401.876 36.5881 400.436 37.6681 398.708 38.4601C397.016 39.2521 395.09 39.6481 392.93 39.6481ZM392.984 17.1841C391.292 17.1841 389.798 17.6701 388.502 18.6421C387.206 19.5781 386.378 21.0181 386.018 22.9621H399.356C399.248 21.1981 398.6 19.7941 397.412 18.7501C396.224 17.7061 394.748 17.1841 392.984 17.1841ZM417.371 39.0001L407.543 12.2161H414.779L421.583 32.4661L428.387 12.2161H435.623L425.741 39.0001H417.371ZM450.516 39.6481C447.924 39.6481 445.584 39.0541 443.496 37.8661C441.444 36.6781 439.806 35.0401 438.582 32.9521C437.394 30.8281 436.8 28.3801 436.8 25.6081C436.8 22.8361 437.412 20.4061 438.636 18.3181C439.86 16.1941 441.498 14.5381 443.55 13.3501C445.638 12.1621 447.978 11.5681 450.57 11.5681C453.126 11.5681 455.43 12.1621 457.482 13.3501C459.57 14.5381 461.208 16.1941 462.396 18.3181C463.62 20.4061 464.232 22.8361 464.232 25.6081C464.232 28.3801 463.62 30.8281 462.396 32.9521C461.208 35.0401 459.57 36.6781 457.482 37.8661C455.394 39.0541 453.072 39.6481 450.516 39.6481ZM450.516 33.6541C452.316 33.6541 453.882 32.9881 455.214 31.6561C456.546 30.2881 457.212 28.2721 457.212 25.6081C457.212 22.9441 456.546 20.9461 455.214 19.6141C453.882 18.2461 452.334 17.5621 450.57 17.5621C448.734 17.5621 447.15 18.2461 445.818 19.6141C444.522 20.9461 443.874 22.9441 443.874 25.6081C443.874 28.2721 444.522 30.2881 445.818 31.6561C447.15 32.9881 448.716 33.6541 450.516 33.6541ZM469.412 39.0001V0.120117H476.324V39.0001H469.412ZM492.431 39.6481C489.083 39.6481 486.491 38.6041 484.655 36.5161C482.855 34.4281 481.955 31.3681 481.955 27.3361V12.2161H488.813V26.6881C488.813 28.9921 489.281 30.7561 490.217 31.9801C491.153 33.2041 492.629 33.8161 494.645 33.8161C496.553 33.8161 498.119 33.1321 499.343 31.7641C500.603 30.3961 501.233 28.4881 501.233 26.0401V12.2161H508.145V39.0001H502.043L501.503 34.4641C500.675 36.0481 499.469 37.3081 497.885 38.2441C496.337 39.1801 494.519 39.6481 492.431 39.6481ZM526.174 39.0001C523.366 39.0001 521.116 38.3161 519.424 36.9481C517.732 35.5801 516.886 33.1501 516.886 29.6581V17.9941H512.296V12.2161H516.886L517.696 5.03412H523.798V12.2161H531.034V17.9941H523.798V29.7121C523.798 31.0081 524.068 31.9081 524.608 32.4121C525.184 32.8801 526.156 33.1141 527.524 33.1141H530.872V39.0001H526.174ZM539.695 8.05812C538.435 8.05812 537.391 7.68012 536.563 6.92412C535.771 6.16812 535.375 5.21412 535.375 4.06212C535.375 2.91012 535.771 1.97412 536.563 1.25412C537.391 0.498117 538.435 0.120117 539.695 0.120117C540.955 0.120117 541.981 0.498117 542.773 1.25412C543.601 1.97412 544.015 2.91012 544.015 4.06212C544.015 5.21412 543.601 6.16812 542.773 6.92412C541.981 7.68012 540.955 8.05812 539.695 8.05812ZM536.239 39.0001V12.2161H543.151V39.0001H536.239ZM562.217 39.6481C559.625 39.6481 557.285 39.0541 555.197 37.8661C553.145 36.6781 551.507 35.0401 550.283 32.9521C549.095 30.8281 548.501 28.3801 548.501 25.6081C548.501 22.8361 549.113 20.4061 550.337 18.3181C551.561 16.1941 553.199 14.5381 555.251 13.3501C557.339 12.1621 559.679 11.5681 562.271 11.5681C564.827 11.5681 567.131 12.1621 569.183 13.3501C571.271 14.5381 572.909 16.1941 574.097 18.3181C575.321 20.4061 575.933 22.8361 575.933 25.6081C575.933 28.3801 575.321 30.8281 574.097 32.9521C572.909 35.0401 571.271 36.6781 569.183 37.8661C567.095 39.0541 564.773 39.6481 562.217 39.6481ZM562.217 33.6541C564.017 33.6541 565.583 32.9881 566.915 31.6561C568.247 30.2881 568.913 28.2721 568.913 25.6081C568.913 22.9441 568.247 20.9461 566.915 19.6141C565.583 18.2461 564.035 17.5621 562.271 17.5621C560.435 17.5621 558.851 18.2461 557.519 19.6141C556.223 20.9461 555.575 22.9441 555.575 25.6081C555.575 28.2721 556.223 30.2881 557.519 31.6561C558.851 32.9881 560.417 33.6541 562.217 33.6541ZM581.114 39.0001V12.2161H587.216L587.756 16.7521C588.584 15.1681 589.772 13.9081 591.32 12.9721C592.904 12.0361 594.758 11.5681 596.882 11.5681C600.194 11.5681 602.768 12.6121 604.604 14.7001C606.44 16.7881 607.358 19.8481 607.358 23.8801V39.0001H600.446V24.5281C600.446 22.2241 599.978 20.4601 599.042 19.2361C598.106 18.0121 596.648 17.4001 594.668 17.4001C592.724 17.4001 591.122 18.0841 589.862 19.4521C588.638 20.8201 588.026 22.7281 588.026 25.1761V39.0001H581.114ZM628.56 8.05812C627.3 8.05812 626.256 7.68012 625.428 6.92412C624.636 6.16812 624.24 5.21412 624.24 4.06212C624.24 2.91012 624.636 1.97412 625.428 1.25412C626.256 0.498117 627.3 0.120117 628.56 0.120117C629.82 0.120117 630.846 0.498117 631.638 1.25412C632.466 1.97412 632.88 2.91012 632.88 4.06212C632.88 5.21412 632.466 6.16812 631.638 6.92412C630.846 7.68012 629.82 8.05812 628.56 8.05812ZM625.104 39.0001V12.2161H632.016V39.0001H625.104ZM638.231 39.0001V12.2161H644.333L644.873 16.7521C645.701 15.1681 646.889 13.9081 648.437 12.9721C650.021 12.0361 651.875 11.5681 653.999 11.5681C657.311 11.5681 659.885 12.6121 661.721 14.7001C663.557 16.7881 664.475 19.8481 664.475 23.8801V39.0001H657.563V24.5281C657.563 22.2241 657.095 20.4601 656.159 19.2361C655.223 18.0121 653.765 17.4001 651.785 17.4001C649.841 17.4001 648.239 18.0841 646.979 19.4521C645.755 20.8201 645.143 22.7281 645.143 25.1761V39.0001H638.231ZM14.8537 109.648C12.1177 109.648 9.70568 109.054 7.61768 107.866C5.52968 106.678 3.87368 105.022 2.64968 102.898C1.46168 100.774 0.867676 98.3441 0.867676 95.6081C0.867676 92.8721 1.46168 90.4421 2.64968 88.3181C3.87368 86.1941 5.52968 84.5381 7.61768 83.3501C9.70568 82.1621 12.1177 81.5681 14.8537 81.5681C18.2737 81.5681 21.1537 82.4681 23.4937 84.2681C25.8337 86.0321 27.3277 88.4801 27.9757 91.6121H20.6857C20.3257 90.3161 19.6057 89.3081 18.5257 88.5881C17.4817 87.8321 16.2397 87.4541 14.7997 87.4541C12.8917 87.4541 11.2717 88.1741 9.93968 89.6141C8.60768 91.0541 7.94168 93.0521 7.94168 95.6081C7.94168 98.1641 8.60768 100.162 9.93968 101.602C11.2717 103.042 12.8917 103.762 14.7997 103.762C16.2397 103.762 17.4817 103.402 18.5257 102.682C19.6057 101.962 20.3257 100.936 20.6857 99.6041H27.9757C27.3277 102.628 25.8337 105.058 23.4937 106.894C21.1537 108.73 18.2737 109.648 14.8537 109.648ZM45.9626 109.648C43.3706 109.648 41.0306 109.054 38.9426 107.866C36.8906 106.678 35.2526 105.04 34.0286 102.952C32.8406 100.828 32.2466 98.3801 32.2466 95.6081C32.2466 92.8361 32.8586 90.4061 34.0826 88.3181C35.3066 86.1941 36.9446 84.5381 38.9966 83.3501C41.0846 82.1621 43.4246 81.5681 46.0166 81.5681C48.5726 81.5681 50.8766 82.1621 52.9286 83.3501C55.0166 84.5381 56.6546 86.1941 57.8426 88.3181C59.0666 90.4061 59.6786 92.8361 59.6786 95.6081C59.6786 98.3801 59.0666 100.828 57.8426 102.952C56.6546 105.04 55.0166 106.678 52.9286 107.866C50.8406 109.054 48.5186 109.648 45.9626 109.648ZM45.9626 103.654C47.7626 103.654 49.3286 102.988 50.6606 101.656C51.9926 100.288 52.6586 98.2721 52.6586 95.6081C52.6586 92.9441 51.9926 90.9461 50.6606 89.6141C49.3286 88.2461 47.7806 87.5621 46.0166 87.5621C44.1806 87.5621 42.5966 88.2461 41.2646 89.6141C39.9686 90.9461 39.3206 92.9441 39.3206 95.6081C39.3206 98.2721 39.9686 100.288 41.2646 101.656C42.5966 102.988 44.1626 103.654 45.9626 103.654ZM64.8586 109V70.1201H71.7706V109H64.8586ZM77.8332 109V70.1201H84.7452V109H77.8332ZM100.042 109.648C97.7379 109.648 95.8479 109.288 94.3719 108.568C92.8959 107.812 91.7979 106.822 91.0779 105.598C90.3579 104.374 89.9979 103.024 89.9979 101.548C89.9979 99.0641 90.9699 97.0481 92.9139 95.5001C94.8579 93.9521 97.7739 93.1781 101.662 93.1781H108.466V92.5301C108.466 90.6941 107.944 89.3441 106.9 88.4801C105.856 87.6161 104.56 87.1841 103.012 87.1841C101.608 87.1841 100.384 87.5261 99.3399 88.2101C98.2959 88.8581 97.6479 89.8301 97.3959 91.1261H90.6459C90.8259 89.1821 91.4739 87.4901 92.5899 86.0501C93.7419 84.6101 95.2179 83.5121 97.0179 82.7561C98.8179 81.9641 100.834 81.5681 103.066 81.5681C106.882 81.5681 109.888 82.5221 112.084 84.4301C114.28 86.3381 115.378 89.0381 115.378 92.5301V109H109.492L108.844 104.68C108.052 106.12 106.936 107.308 105.496 108.244C104.092 109.18 102.274 109.648 100.042 109.648ZM101.608 104.248C103.588 104.248 105.118 103.6 106.198 102.304C107.314 101.008 108.016 99.4061 108.304 97.4981H102.418C100.582 97.4981 99.2679 97.8401 98.4759 98.5241C97.6839 99.1721 97.2879 99.9821 97.2879 100.954C97.2879 101.998 97.6839 102.808 98.4759 103.384C99.2679 103.96 100.312 104.248 101.608 104.248ZM136.85 109.648C134.834 109.648 133.07 109.27 131.558 108.514C130.046 107.758 128.822 106.696 127.886 105.328L127.13 109H120.974V70.1201H127.886V86.0501C128.75 84.8621 129.884 83.8181 131.288 82.9181C132.728 82.0181 134.582 81.5681 136.85 81.5681C139.37 81.5681 141.62 82.1801 143.6 83.4041C145.58 84.6281 147.146 86.3021 148.298 88.4261C149.45 90.5501 150.026 92.9621 150.026 95.6621C150.026 98.3621 149.45 100.774 148.298 102.898C147.146 104.986 145.58 106.642 143.6 107.866C141.62 109.054 139.37 109.648 136.85 109.648ZM135.392 103.6C137.588 103.6 139.406 102.862 140.846 101.386C142.286 99.9101 143.006 98.0021 143.006 95.6621C143.006 93.3221 142.286 91.3961 140.846 89.8841C139.406 88.3721 137.588 87.6161 135.392 87.6161C133.16 87.6161 131.324 88.3721 129.884 89.8841C128.48 91.3601 127.778 93.2681 127.778 95.6081C127.778 97.9481 128.48 99.8741 129.884 101.386C131.324 102.862 133.16 103.6 135.392 103.6ZM168.052 109.648C165.46 109.648 163.12 109.054 161.032 107.866C158.98 106.678 157.342 105.04 156.118 102.952C154.93 100.828 154.336 98.3801 154.336 95.6081C154.336 92.8361 154.948 90.4061 156.172 88.3181C157.396 86.1941 159.034 84.5381 161.086 83.3501C163.174 82.1621 165.514 81.5681 168.106 81.5681C170.662 81.5681 172.966 82.1621 175.018 83.3501C177.106 84.5381 178.744 86.1941 179.932 88.3181C181.156 90.4061 181.768 92.8361 181.768 95.6081C181.768 98.3801 181.156 100.828 179.932 102.952C178.744 105.04 177.106 106.678 175.018 107.866C172.93 109.054 170.608 109.648 168.052 109.648ZM168.052 103.654C169.852 103.654 171.418 102.988 172.75 101.656C174.082 100.288 174.748 98.2721 174.748 95.6081C174.748 92.9441 174.082 90.9461 172.75 89.6141C171.418 88.2461 169.87 87.5621 168.106 87.5621C166.27 87.5621 164.686 88.2461 163.354 89.6141C162.058 90.9461 161.41 92.9441 161.41 95.6081C161.41 98.2721 162.058 100.288 163.354 101.656C164.686 102.988 166.252 103.654 168.052 103.654ZM186.948 109V82.2161H193.104L193.752 87.2381C194.724 85.5101 196.038 84.1421 197.694 83.1341C199.386 82.0901 201.366 81.5681 203.634 81.5681V88.8581H201.69C200.178 88.8581 198.828 89.0921 197.64 89.5601C196.452 90.0281 195.516 90.8381 194.832 91.9901C194.184 93.1421 193.86 94.7441 193.86 96.7961V109H186.948ZM216.593 109.648C214.289 109.648 212.399 109.288 210.923 108.568C209.447 107.812 208.349 106.822 207.629 105.598C206.909 104.374 206.549 103.024 206.549 101.548C206.549 99.0641 207.521 97.0481 209.465 95.5001C211.409 93.9521 214.325 93.1781 218.213 93.1781H225.017V92.5301C225.017 90.6941 224.495 89.3441 223.451 88.4801C222.407 87.6161 221.111 87.1841 219.563 87.1841C218.159 87.1841 216.935 87.5261 215.891 88.2101C214.847 88.8581 214.199 89.8301 213.947 91.1261H207.197C207.377 89.1821 208.025 87.4901 209.141 86.0501C210.293 84.6101 211.769 83.5121 213.569 82.7561C215.369 81.9641 217.385 81.5681 219.617 81.5681C223.433 81.5681 226.439 82.5221 228.635 84.4301C230.831 86.3381 231.929 89.0381 231.929 92.5301V109H226.043L225.395 104.68C224.603 106.12 223.487 107.308 222.047 108.244C220.643 109.18 218.825 109.648 216.593 109.648ZM218.159 104.248C220.139 104.248 221.669 103.6 222.749 102.304C223.865 101.008 224.567 99.4061 224.855 97.4981H218.969C217.133 97.4981 215.819 97.8401 215.027 98.5241C214.235 99.1721 213.839 99.9821 213.839 100.954C213.839 101.998 214.235 102.808 215.027 103.384C215.819 103.96 216.863 104.248 218.159 104.248ZM249.09 109C246.282 109 244.032 108.316 242.34 106.948C240.648 105.58 239.802 103.15 239.802 99.6581V87.9941H235.212V82.2161H239.802L240.612 75.0341H246.714V82.2161H253.95V87.9941H246.714V99.7121C246.714 101.008 246.984 101.908 247.524 102.412C248.1 102.88 249.072 103.114 250.44 103.114H253.788V109H249.09ZM262.61 78.0581C261.35 78.0581 260.306 77.6801 259.478 76.9241C258.686 76.1681 258.29 75.2141 258.29 74.0621C258.29 72.9101 258.686 71.9741 259.478 71.2541C260.306 70.4981 261.35 70.1201 262.61 70.1201C263.87 70.1201 264.896 70.4981 265.688 71.2541C266.516 71.9741 266.93 72.9101 266.93 74.0621C266.93 75.2141 266.516 76.1681 265.688 76.9241C264.896 77.6801 263.87 78.0581 262.61 78.0581ZM259.154 109V82.2161H266.066V109H259.154ZM279.517 109L269.689 82.2161H276.925L283.729 102.466L290.533 82.2161H297.769L287.887 109H279.517ZM312.824 109.648C310.124 109.648 307.73 109.072 305.642 107.92C303.554 106.768 301.916 105.148 300.728 103.06C299.54 100.972 298.946 98.5601 298.946 95.8241C298.946 93.0521 299.522 90.5861 300.674 88.4261C301.862 86.2661 303.482 84.5921 305.534 83.4041C307.622 82.1801 310.07 81.5681 312.878 81.5681C315.506 81.5681 317.828 82.1441 319.844 83.2961C321.86 84.4481 323.426 86.0321 324.542 88.0481C325.694 90.0281 326.27 92.2421 326.27 94.6901C326.27 95.0861 326.252 95.5001 326.216 95.9321C326.216 96.3641 326.198 96.8141 326.162 97.2821H305.804C305.948 99.3701 306.668 101.008 307.964 102.196C309.296 103.384 310.898 103.978 312.77 103.978C314.174 103.978 315.344 103.672 316.28 103.06C317.252 102.412 317.972 101.584 318.44 100.576H325.46C324.956 102.268 324.11 103.816 322.922 105.22C321.77 106.588 320.33 107.668 318.602 108.46C316.91 109.252 314.984 109.648 312.824 109.648ZM312.878 87.1841C311.186 87.1841 309.692 87.6701 308.396 88.6421C307.1 89.5781 306.272 91.0181 305.912 92.9621H319.25C319.142 91.1981 318.494 89.7941 317.306 88.7501C316.118 87.7061 314.642 87.1841 312.878 87.1841ZM348.188 109L340.358 82.2161H347.216L351.86 101.494L357.26 82.2161H364.928L370.328 101.494L375.026 82.2161H381.884L374 109H366.818L361.094 88.9661L355.37 109H348.188ZM397.31 109.648C394.61 109.648 392.216 109.072 390.128 107.92C388.04 106.768 386.402 105.148 385.214 103.06C384.026 100.972 383.432 98.5601 383.432 95.8241C383.432 93.0521 384.008 90.5861 385.16 88.4261C386.348 86.2661 387.968 84.5921 390.02 83.4041C392.108 82.1801 394.556 81.5681 397.364 81.5681C399.992 81.5681 402.314 82.1441 404.33 83.2961C406.346 84.4481 407.912 86.0321 409.028 88.0481C410.18 90.0281 410.756 92.2421 410.756 94.6901C410.756 95.0861 410.738 95.5001 410.702 95.9321C410.702 96.3641 410.684 96.8141 410.648 97.2821H390.29C390.434 99.3701 391.154 101.008 392.45 102.196C393.782 103.384 395.384 103.978 397.256 103.978C398.66 103.978 399.83 103.672 400.766 103.06C401.738 102.412 402.458 101.584 402.926 100.576H409.946C409.442 102.268 408.596 103.816 407.408 105.22C406.256 106.588 404.816 107.668 403.088 108.46C401.396 109.252 399.47 109.648 397.31 109.648ZM397.364 87.1841C395.672 87.1841 394.178 87.6701 392.882 88.6421C391.586 89.5781 390.758 91.0181 390.398 92.9621H403.736C403.628 91.1981 402.98 89.7941 401.792 88.7501C400.604 87.7061 399.128 87.1841 397.364 87.1841ZM431.446 109.648C429.43 109.648 427.666 109.27 426.154 108.514C424.642 107.758 423.418 106.696 422.482 105.328L421.726 109H415.57V70.1201H422.482V86.0501C423.346 84.8621 424.48 83.8181 425.884 82.9181C427.324 82.0181 429.178 81.5681 431.446 81.5681C433.966 81.5681 436.216 82.1801 438.196 83.4041C440.176 84.6281 441.742 86.3021 442.894 88.4261C444.046 90.5501 444.622 92.9621 444.622 95.6621C444.622 98.3621 444.046 100.774 442.894 102.898C441.742 104.986 440.176 106.642 438.196 107.866C436.216 109.054 433.966 109.648 431.446 109.648ZM429.988 103.6C432.184 103.6 434.002 102.862 435.442 101.386C436.882 99.9101 437.602 98.0021 437.602 95.6621C437.602 93.3221 436.882 91.3961 435.442 89.8841C434.002 88.3721 432.184 87.6161 429.988 87.6161C427.756 87.6161 425.92 88.3721 424.48 89.8841C423.076 91.3601 422.374 93.2681 422.374 95.6081C422.374 97.9481 423.076 99.8741 424.48 101.386C425.92 102.862 427.756 103.6 429.988 103.6ZM473.975 109.648C471.455 109.648 469.205 109.036 467.225 107.812C465.245 106.588 463.679 104.914 462.527 102.79C461.375 100.666 460.799 98.2541 460.799 95.5541C460.799 92.8541 461.375 90.4601 462.527 88.3721C463.679 86.2481 465.245 84.5921 467.225 83.4041C469.205 82.1801 471.455 81.5681 473.975 81.5681C475.991 81.5681 477.755 81.9461 479.267 82.7021C480.779 83.4581 482.003 84.5201 482.939 85.8881V70.1201H489.851V109H483.695L482.939 105.166C482.075 106.354 480.923 107.398 479.483 108.298C478.079 109.198 476.243 109.648 473.975 109.648ZM475.433 103.6C477.665 103.6 479.483 102.862 480.887 101.386C482.327 99.8741 483.047 97.9481 483.047 95.6081C483.047 93.2681 482.327 91.3601 480.887 89.8841C479.483 88.3721 477.665 87.6161 475.433 87.6161C473.237 87.6161 471.419 88.3541 469.979 89.8301C468.539 91.3061 467.819 93.2141 467.819 95.5541C467.819 97.8941 468.539 99.8201 469.979 101.332C471.419 102.844 473.237 103.6 475.433 103.6ZM508.904 109.648C506.204 109.648 503.81 109.072 501.722 107.92C499.634 106.768 497.996 105.148 496.808 103.06C495.62 100.972 495.026 98.5601 495.026 95.8241C495.026 93.0521 495.602 90.5861 496.754 88.4261C497.942 86.2661 499.562 84.5921 501.614 83.4041C503.702 82.1801 506.15 81.5681 508.958 81.5681C511.586 81.5681 513.908 82.1441 515.924 83.2961C517.94 84.4481 519.506 86.0321 520.622 88.0481C521.774 90.0281 522.35 92.2421 522.35 94.6901C522.35 95.0861 522.332 95.5001 522.296 95.9321C522.296 96.3641 522.278 96.8141 522.242 97.2821H501.884C502.028 99.3701 502.748 101.008 504.044 102.196C505.376 103.384 506.978 103.978 508.85 103.978C510.254 103.978 511.424 103.672 512.36 103.06C513.332 102.412 514.052 101.584 514.52 100.576H521.54C521.036 102.268 520.19 103.816 519.002 105.22C517.85 106.588 516.41 107.668 514.682 108.46C512.99 109.252 511.064 109.648 508.904 109.648ZM508.958 87.1841C507.266 87.1841 505.772 87.6701 504.476 88.6421C503.18 89.5781 502.352 91.0181 501.992 92.9621H515.33C515.222 91.1981 514.574 89.7941 513.386 88.7501C512.198 87.7061 510.722 87.1841 508.958 87.1841ZM533.345 109L523.517 82.2161H530.753L537.557 102.466L544.361 82.2161H551.597L541.715 109H533.345ZM566.652 109.648C563.952 109.648 561.558 109.072 559.47 107.92C557.382 106.768 555.744 105.148 554.556 103.06C553.368 100.972 552.774 98.5601 552.774 95.8241C552.774 93.0521 553.35 90.5861 554.502 88.4261C555.69 86.2661 557.31 84.5921 559.362 83.4041C561.45 82.1801 563.898 81.5681 566.706 81.5681C569.334 81.5681 571.656 82.1441 573.672 83.2961C575.688 84.4481 577.254 86.0321 578.37 88.0481C579.522 90.0281 580.098 92.2421 580.098 94.6901C580.098 95.0861 580.08 95.5001 580.044 95.9321C580.044 96.3641 580.026 96.8141 579.99 97.2821H559.632C559.776 99.3701 560.496 101.008 561.792 102.196C563.124 103.384 564.726 103.978 566.598 103.978C568.002 103.978 569.172 103.672 570.108 103.06C571.08 102.412 571.8 101.584 572.268 100.576H579.288C578.784 102.268 577.938 103.816 576.75 105.22C575.598 106.588 574.158 107.668 572.43 108.46C570.738 109.252 568.812 109.648 566.652 109.648ZM566.706 87.1841C565.014 87.1841 563.52 87.6701 562.224 88.6421C560.928 89.5781 560.1 91.0181 559.74 92.9621H573.078C572.97 91.1981 572.322 89.7941 571.134 88.7501C569.946 87.7061 568.47 87.1841 566.706 87.1841ZM584.911 109V70.1201H591.823V109H584.911ZM610.738 109.648C608.146 109.648 605.806 109.054 603.718 107.866C601.666 106.678 600.028 105.04 598.804 102.952C597.616 100.828 597.022 98.3801 597.022 95.6081C597.022 92.8361 597.634 90.4061 598.858 88.3181C600.082 86.1941 601.72 84.5381 603.772 83.3501C605.86 82.1621 608.2 81.5681 610.792 81.5681C613.348 81.5681 615.652 82.1621 617.704 83.3501C619.792 84.5381 621.43 86.1941 622.618 88.3181C623.842 90.4061 624.454 92.8361 624.454 95.6081C624.454 98.3801 623.842 100.828 622.618 102.952C621.43 105.04 619.792 106.678 617.704 107.866C615.616 109.054 613.294 109.648 610.738 109.648ZM610.738 103.654C612.538 103.654 614.104 102.988 615.436 101.656C616.768 100.288 617.434 98.2721 617.434 95.6081C617.434 92.9441 616.768 90.9461 615.436 89.6141C614.104 88.2461 612.556 87.5621 610.792 87.5621C608.956 87.5621 607.372 88.2461 606.04 89.6141C604.744 90.9461 604.096 92.9441 604.096 95.6081C604.096 98.2721 604.744 100.288 606.04 101.656C607.372 102.988 608.938 103.654 610.738 103.654ZM629.634 120.88V82.2161H635.79L636.546 86.0501C637.41 84.8621 638.544 83.8181 639.948 82.9181C641.388 82.0181 643.242 81.5681 645.51 81.5681C648.03 81.5681 650.28 82.1801 652.26 83.4041C654.24 84.6281 655.806 86.3021 656.958 88.4261C658.11 90.5501 658.686 92.9621 658.686 95.6621C658.686 98.3621 658.11 100.774 656.958 102.898C655.806 104.986 654.24 106.642 652.26 107.866C650.28 109.054 648.03 109.648 645.51 109.648C643.494 109.648 641.73 109.27 640.218 108.514C638.706 107.758 637.482 106.696 636.546 105.328V120.88H629.634ZM644.052 103.6C646.248 103.6 648.066 102.862 649.506 101.386C650.946 99.9101 651.666 98.0021 651.666 95.6621C651.666 93.3221 650.946 91.3961 649.506 89.8841C648.066 88.3721 646.248 87.6161 644.052 87.6161C641.82 87.6161 639.984 88.3721 638.544 89.8841C637.14 91.3601 636.438 93.2681 636.438 95.6081C636.438 97.9481 637.14 99.8741 638.544 101.386C639.984 102.862 641.82 103.6 644.052 103.6ZM663.861 109V82.2161H669.963L670.557 85.8341C671.421 84.5381 672.555 83.5121 673.959 82.7561C675.399 81.9641 677.055 81.5681 678.927 81.5681C683.067 81.5681 686.001 83.1701 687.729 86.3741C688.701 84.8981 689.997 83.7281 691.617 82.8641C693.273 82.0001 695.073 81.5681 697.017 81.5681C700.509 81.5681 703.191 82.6121 705.063 84.7001C706.935 86.7881 707.871 89.8481 707.871 93.8801V109H700.959V94.5281C700.959 92.2241 700.509 90.4601 699.609 89.2361C698.745 88.0121 697.395 87.4001 695.559 87.4001C693.687 87.4001 692.175 88.0841 691.023 89.4521C689.907 90.8201 689.349 92.7281 689.349 95.1761V109H682.437V94.5281C682.437 92.2241 681.987 90.4601 681.087 89.2361C680.187 88.0121 678.801 87.4001 676.929 87.4001C675.093 87.4001 673.599 88.0841 672.447 89.4521C671.331 90.8201 670.773 92.7281 670.773 95.1761V109H663.861ZM726.447 109.648C723.747 109.648 721.353 109.072 719.265 107.92C717.177 106.768 715.539 105.148 714.351 103.06C713.163 100.972 712.569 98.5601 712.569 95.8241C712.569 93.0521 713.145 90.5861 714.297 88.4261C715.485 86.2661 717.105 84.5921 719.157 83.4041C721.245 82.1801 723.693 81.5681 726.501 81.5681C729.129 81.5681 731.451 82.1441 733.467 83.2961C735.483 84.4481 737.049 86.0321 738.165 88.0481C739.317 90.0281 739.893 92.2421 739.893 94.6901C739.893 95.0861 739.875 95.5001 739.839 95.9321C739.839 96.3641 739.821 96.8141 739.785 97.2821H719.427C719.571 99.3701 720.291 101.008 721.587 102.196C722.919 103.384 724.521 103.978 726.393 103.978C727.797 103.978 728.967 103.672 729.903 103.06C730.875 102.412 731.595 101.584 732.063 100.576H739.083C738.579 102.268 737.733 103.816 736.545 105.22C735.393 106.588 733.953 107.668 732.225 108.46C730.533 109.252 728.607 109.648 726.447 109.648ZM726.501 87.1841C724.809 87.1841 723.315 87.6701 722.019 88.6421C720.723 89.5781 719.895 91.0181 719.535 92.9621H732.873C732.765 91.1981 732.117 89.7941 730.929 88.7501C729.741 87.7061 728.265 87.1841 726.501 87.1841ZM744.706 109V82.2161H750.808L751.348 86.7521C752.176 85.1681 753.364 83.9081 754.912 82.9721C756.496 82.0361 758.35 81.5681 760.474 81.5681C763.786 81.5681 766.36 82.6121 768.196 84.7001C770.032 86.7881 770.95 89.8481 770.95 93.8801V109H764.038V94.5281C764.038 92.2241 763.57 90.4601 762.634 89.2361C761.698 88.0121 760.24 87.4001 758.26 87.4001C756.316 87.4001 754.714 88.0841 753.454 89.4521C752.23 90.8201 751.618 92.7281 751.618 95.1761V109H744.706ZM788.494 109C785.686 109 783.436 108.316 781.744 106.948C780.052 105.58 779.206 103.15 779.206 99.6581V87.9941H774.616V82.2161H779.206L780.016 75.0341H786.118V82.2161H793.354V87.9941H786.118V99.7121C786.118 101.008 786.388 101.908 786.928 102.412C787.504 102.88 788.476 103.114 789.844 103.114H793.192V109H788.494Z" fill="white"/>
</g>
<defs>
<clipPath id="clip0_464_1050">
<rect width="794" height="121" fill="white"/>
</clipPath>
</defs>
</svg>
