<svg width="42" height="10" viewBox="0 0 42 10" fill="none" xmlns="http://www.w3.org/2000/svg">
<g clip-path="url(#clip0_464_1064)">
<path d="M0.952003 10.0002V0.200195H2.744L7.35 7.1022V0.200195H9.142V10.0002H7.35L2.744 3.1122V10.0002H0.952003ZM13.0418 10.0002V0.200195H19.4398V1.6422H14.8338V4.3302H19.0198V5.7302H14.8338V8.5582H19.4398V10.0002H13.0418ZM22.6596 10.0002L25.7256 5.0442L22.6176 0.200195H24.6756L26.8736 3.6162L28.8896 0.200195H30.9056L27.8396 5.1282L30.9756 10.0002H28.9176L26.6916 6.5422L24.6756 10.0002H22.6596ZM36.6461 10.0002V1.6422H33.7901V0.200195H41.3081V1.6422H38.4381V10.0002H36.6461Z" fill="white"/>
</g>
<defs>
<clipPath id="clip0_464_1064">
<rect width="42" height="10" fill="white"/>
</clipPath>
</defs>
</svg>
