<svg width="56" height="11" viewBox="0 0 56 11" fill="none" xmlns="http://www.w3.org/2000/svg">
<g clip-path="url(#clip0_464_1070)">
<path d="M3.79396 10.0002L0.209961 0.200226H2.12796L4.89996 8.16623L7.68596 0.200226H9.57596L5.99196 10.0002H3.79396ZM12.7411 10.0002V0.200226H14.5331V10.0002H12.7411ZM21.7785 10.1682C21.0598 10.1682 20.4251 10.0469 19.8745 9.80423C19.3238 9.55223 18.8898 9.19756 18.5725 8.74023C18.2551 8.27356 18.0918 7.7089 18.0825 7.04623H19.9725C19.9911 7.50356 20.1545 7.8909 20.4625 8.20823C20.7798 8.51623 21.2138 8.67023 21.7645 8.67023C22.2405 8.67023 22.6185 8.55823 22.8985 8.33423C23.1785 8.1009 23.3185 7.7929 23.3185 7.41023C23.3185 7.0089 23.1925 6.69623 22.9405 6.47223C22.6978 6.24823 22.3711 6.06623 21.9605 5.92623C21.5498 5.78623 21.1111 5.6369 20.6445 5.47823C19.8885 5.2169 19.3098 4.8809 18.9085 4.47023C18.5165 4.05956 18.3205 3.51356 18.3205 2.83223C18.3111 2.25356 18.4465 1.7589 18.7265 1.34823C19.0158 0.928226 19.4078 0.606226 19.9025 0.382226C20.3971 0.148893 20.9665 0.0322266 21.6105 0.0322266C22.2638 0.0322266 22.8378 0.148893 23.3325 0.382226C23.8365 0.61556 24.2285 0.942226 24.5085 1.36223C24.7978 1.78223 24.9518 2.28156 24.9705 2.86023H23.0525C23.0431 2.5149 22.9078 2.21156 22.6465 1.95023C22.3945 1.67956 22.0398 1.54423 21.5825 1.54423C21.1905 1.5349 20.8591 1.6329 20.5885 1.83823C20.3271 2.03423 20.1965 2.32356 20.1965 2.70623C20.1965 3.0329 20.2991 3.29423 20.5045 3.49023C20.7098 3.6769 20.9898 3.83556 21.3445 3.96623C21.6991 4.0969 22.1051 4.2369 22.5625 4.38623C23.0478 4.55423 23.4911 4.75023 23.8925 4.97423C24.2938 5.19823 24.6158 5.4969 24.8585 5.87023C25.1011 6.23423 25.2225 6.70556 25.2225 7.28423C25.2225 7.79756 25.0918 8.27356 24.8305 8.71223C24.5691 9.1509 24.1818 9.50556 23.6685 9.77623C23.1551 10.0375 22.5251 10.1682 21.7785 10.1682ZM28.786 10.0002V0.200226H30.578V10.0002H28.786ZM39.0694 10.1682C38.0894 10.1682 37.2307 9.95356 36.4934 9.52423C35.7654 9.0949 35.1914 8.50223 34.7714 7.74623C34.3607 6.9809 34.1554 6.0989 34.1554 5.10023C34.1554 4.10156 34.3607 3.22423 34.7714 2.46823C35.1914 1.7029 35.7654 1.10556 36.4934 0.676227C37.2307 0.246894 38.0894 0.0322266 39.0694 0.0322266C40.0401 0.0322266 40.8941 0.246894 41.6314 0.676227C42.3687 1.10556 42.9427 1.7029 43.3534 2.46823C43.7641 3.22423 43.9694 4.10156 43.9694 5.10023C43.9694 6.0989 43.7641 6.9809 43.3534 7.74623C42.9427 8.50223 42.3687 9.0949 41.6314 9.52423C40.8941 9.95356 40.0401 10.1682 39.0694 10.1682ZM39.0694 8.55823C40.0027 8.55823 40.7447 8.25023 41.2954 7.63423C41.8554 7.01823 42.1354 6.17356 42.1354 5.10023C42.1354 4.0269 41.8554 3.18223 41.2954 2.56623C40.7447 1.95023 40.0027 1.64223 39.0694 1.64223C38.1361 1.64223 37.3894 1.95023 36.8294 2.56623C36.2694 3.18223 35.9894 4.0269 35.9894 5.10023C35.9894 6.17356 36.2694 7.01823 36.8294 7.63423C37.3894 8.25023 38.1361 8.55823 39.0694 8.55823ZM47.5516 10.0002V0.200226H49.3436L53.9496 7.10223V0.200226H55.7416V10.0002H53.9496L49.3436 3.11223V10.0002H47.5516Z" fill="white"/>
</g>
<defs>
<clipPath id="clip0_464_1070">
<rect width="56" height="11" fill="white"/>
</clipPath>
</defs>
</svg>
