<svg width="109" height="11" viewBox="0 0 109 11" fill="none" xmlns="http://www.w3.org/2000/svg">
<g clip-path="url(#clip0_464_1068)">
<path d="M2.93998 10.0002L0.349976 0.200226H2.26798L4.03198 7.99823L6.10398 0.200226H8.07798L10.094 7.99823L11.858 0.200226H13.79L11.13 10.0002H9.00198L7.05598 2.73423L5.05398 10.0002H2.93998ZM17.0887 10.0002V0.200226H23.4867V1.64223H18.8807V4.33023H23.0667V5.73023H18.8807V8.55823H23.4867V10.0002H17.0887ZM31.8884 10.0002L35.4724 0.200226H37.4884L41.0724 10.0002H39.1684L38.3844 7.73223H34.5624L33.7644 10.0002H31.8884ZM35.0524 6.33223H37.8944L36.4664 2.25823L35.0524 6.33223ZM44.3348 10.0002V0.200226H47.9328C48.7168 0.200226 49.3608 0.33556 49.8648 0.606227C50.3781 0.86756 50.7608 1.2269 51.0128 1.68423C51.2648 2.13223 51.3908 2.63156 51.3908 3.18223C51.3908 3.77956 51.2321 4.32556 50.9148 4.82023C50.6068 5.3149 50.1215 5.67423 49.4588 5.89823L51.4888 10.0002H49.4308L47.6108 6.13623H46.1268V10.0002H44.3348ZM46.1268 4.82023H47.8208C48.4181 4.82023 48.8568 4.67556 49.1368 4.38623C49.4168 4.0969 49.5568 3.71423 49.5568 3.23823C49.5568 2.77156 49.4168 2.39823 49.1368 2.11823C48.8661 1.83823 48.4228 1.69823 47.8068 1.69823H46.1268V4.82023ZM55.0575 10.0002V0.200226H61.4555V1.64223H56.8495V4.33023H61.0355V5.73023H56.8495V8.55823H61.4555V10.0002H55.0575ZM70.4872 10.0002V0.200226H72.2792L76.8852 7.10223V0.200226H78.6772V10.0002H76.8852L72.2792 3.11223V10.0002H70.4872ZM87.169 10.1682C86.189 10.1682 85.3303 9.95356 84.593 9.52423C83.865 9.0949 83.291 8.50223 82.871 7.74623C82.4603 6.9809 82.255 6.0989 82.255 5.10023C82.255 4.10156 82.4603 3.22423 82.871 2.46823C83.291 1.7029 83.865 1.10556 84.593 0.676227C85.3303 0.246894 86.189 0.0322266 87.169 0.0322266C88.1397 0.0322266 88.9937 0.246894 89.731 0.676227C90.4683 1.10556 91.0423 1.7029 91.453 2.46823C91.8637 3.22423 92.069 4.10156 92.069 5.10023C92.069 6.0989 91.8637 6.9809 91.453 7.74623C91.0423 8.50223 90.4683 9.0949 89.731 9.52423C88.9937 9.95356 88.1397 10.1682 87.169 10.1682ZM87.169 8.55823C88.1023 8.55823 88.8443 8.25023 89.395 7.63423C89.955 7.01823 90.235 6.17356 90.235 5.10023C90.235 4.0269 89.955 3.18223 89.395 2.56623C88.8443 1.95023 88.1023 1.64223 87.169 1.64223C86.2357 1.64223 85.489 1.95023 84.929 2.56623C84.369 3.18223 84.089 4.0269 84.089 5.10023C84.089 6.17356 84.369 7.01823 84.929 7.63423C85.489 8.25023 86.2357 8.55823 87.169 8.55823ZM97.2154 10.0002L94.6254 0.200226H96.5434L98.3074 7.99823L100.379 0.200226H102.353L104.369 7.99823L106.133 0.200226H108.065L105.405 10.0002H103.277L101.331 2.73423L99.3294 10.0002H97.2154Z" fill="white"/>
</g>
<defs>
<clipPath id="clip0_464_1068">
<rect width="109" height="11" fill="white"/>
</clipPath>
</defs>
</svg>
