<svg width="202" height="11" viewBox="0 0 202 11" fill="none" xmlns="http://www.w3.org/2000/svg">
<g clip-path="url(#clip0_464_1062)">
<path d="M2.94001 10.0002L0.350006 0.200226H2.26801L4.03201 7.99823L6.10401 0.200226H8.07801L10.094 7.99823L11.858 0.200226H13.79L11.13 10.0002H9.00201L7.05601 2.73423L5.05401 10.0002H2.94001ZM17.0887 10.0002V0.200226H23.4867V1.64223H18.8807V4.33023H23.0667V5.73023H18.8807V8.55823H23.4867V10.0002H17.0887ZM31.8884 10.0002L35.4724 0.200226H37.4884L41.0724 10.0002H39.1684L38.3844 7.73223H34.5624L33.7644 10.0002H31.8884ZM35.0524 6.33223H37.8944L36.4664 2.25823L35.0524 6.33223ZM44.3348 10.0002V0.200226H47.9328C48.7168 0.200226 49.3608 0.33556 49.8648 0.606227C50.3781 0.86756 50.7608 1.2269 51.0128 1.68423C51.2648 2.13223 51.3908 2.63156 51.3908 3.18223C51.3908 3.77956 51.2321 4.32556 50.9148 4.82023C50.6068 5.3149 50.1215 5.67423 49.4588 5.89823L51.4888 10.0002H49.4308L47.6108 6.13623H46.1268V10.0002H44.3348ZM46.1268 4.82023H47.8208C48.4181 4.82023 48.8568 4.67556 49.1368 4.38623C49.4168 4.0969 49.5568 3.71423 49.5568 3.23823C49.5568 2.77156 49.4168 2.39823 49.1368 2.11823C48.8661 1.83823 48.4228 1.69823 47.8068 1.69823H46.1268V4.82023ZM55.0575 10.0002V0.200226H61.4555V1.64223H56.8495V4.33023H61.0355V5.73023H56.8495V8.55823H61.4555V10.0002H55.0575ZM74.7712 10.1682C73.8472 10.1682 73.0398 9.95823 72.3492 9.53823C71.6585 9.11823 71.1218 8.5349 70.7392 7.78823C70.3565 7.03223 70.1652 6.1549 70.1652 5.15623C70.1652 4.14823 70.3612 3.26156 70.7532 2.49623C71.1545 1.72156 71.7192 1.11956 72.4472 0.690227C73.1845 0.25156 74.0572 0.0322266 75.0652 0.0322266C76.2132 0.0322266 77.1652 0.30756 77.9212 0.858226C78.6772 1.4089 79.1672 2.16956 79.3912 3.14023H77.3892C77.2398 2.6829 76.9692 2.32823 76.5772 2.07623C76.1852 1.8149 75.6812 1.68423 75.0652 1.68423C74.0852 1.68423 73.3292 1.9969 72.7972 2.62223C72.2652 3.23823 71.9992 4.08756 71.9992 5.17023C71.9992 6.2529 72.2605 7.0929 72.7832 7.69023C73.3152 8.27823 74.0338 8.57223 74.9392 8.57223C75.8258 8.57223 76.4932 8.33423 76.9412 7.85823C77.3985 7.3729 77.6738 6.73823 77.7672 5.95423H75.2892V4.61023H79.5732V10.0002H77.9212L77.7812 8.71223C77.4638 9.1789 77.0672 9.53823 76.5912 9.79023C76.1152 10.0422 75.5085 10.1682 74.7712 10.1682ZM83.3153 10.0002V0.200226H86.9133C87.6973 0.200226 88.3413 0.33556 88.8453 0.606227C89.3586 0.86756 89.7413 1.2269 89.9933 1.68423C90.2453 2.13223 90.3713 2.63156 90.3713 3.18223C90.3713 3.77956 90.2126 4.32556 89.8953 4.82023C89.5873 5.3149 89.1019 5.67423 88.4393 5.89823L90.4693 10.0002H88.4113L86.5913 6.13623H85.1073V10.0002H83.3153ZM85.1073 4.82023H86.8013C87.3986 4.82023 87.8373 4.67556 88.1173 4.38623C88.3973 4.0969 88.5373 3.71423 88.5373 3.23823C88.5373 2.77156 88.3973 2.39823 88.1173 2.11823C87.8466 1.83823 87.4033 1.69823 86.7873 1.69823H85.1073V4.82023ZM98.6299 10.1682C97.6499 10.1682 96.7913 9.95356 96.0539 9.52423C95.3259 9.0949 94.7519 8.50223 94.3319 7.74623C93.9213 6.9809 93.7159 6.0989 93.7159 5.10023C93.7159 4.10156 93.9213 3.22423 94.3319 2.46823C94.7519 1.7029 95.3259 1.10556 96.0539 0.676227C96.7913 0.246894 97.6499 0.0322266 98.6299 0.0322266C99.6006 0.0322266 100.455 0.246894 101.192 0.676227C101.929 1.10556 102.503 1.7029 102.914 2.46823C103.325 3.22423 103.53 4.10156 103.53 5.10023C103.53 6.0989 103.325 6.9809 102.914 7.74623C102.503 8.50223 101.929 9.0949 101.192 9.52423C100.455 9.95356 99.6006 10.1682 98.6299 10.1682ZM98.6299 8.55823C99.5633 8.55823 100.305 8.25023 100.856 7.63423C101.416 7.01823 101.696 6.17356 101.696 5.10023C101.696 4.0269 101.416 3.18223 100.856 2.56623C100.305 1.95023 99.5633 1.64223 98.6299 1.64223C97.6966 1.64223 96.9499 1.95023 96.3899 2.56623C95.8299 3.18223 95.5499 4.0269 95.5499 5.10023C95.5499 6.17356 95.8299 7.01823 96.3899 7.63423C96.9499 8.25023 97.6966 8.55823 98.6299 8.55823ZM108.676 10.0002L106.086 0.200226H108.004L109.768 7.99823L111.84 0.200226H113.814L115.83 7.99823L117.594 0.200226H119.526L116.866 10.0002H114.738L112.792 2.73423L110.79 10.0002H108.676ZM122.825 10.0002V0.200226H124.617V10.0002H122.825ZM128.516 10.0002V0.200226H130.308L134.914 7.10223V0.200226H136.706V10.0002H134.914L130.308 3.11223V10.0002H128.516ZM144.89 10.1682C143.966 10.1682 143.159 9.95823 142.468 9.53823C141.778 9.11823 141.241 8.5349 140.858 7.78823C140.476 7.03223 140.284 6.1549 140.284 5.15623C140.284 4.14823 140.48 3.26156 140.872 2.49623C141.274 1.72156 141.838 1.11956 142.566 0.690227C143.304 0.25156 144.176 0.0322266 145.184 0.0322266C146.332 0.0322266 147.284 0.30756 148.04 0.858226C148.796 1.4089 149.286 2.16956 149.51 3.14023H147.508C147.359 2.6829 147.088 2.32823 146.696 2.07623C146.304 1.8149 145.8 1.68423 145.184 1.68423C144.204 1.68423 143.448 1.9969 142.916 2.62223C142.384 3.23823 142.118 4.08756 142.118 5.17023C142.118 6.2529 142.38 7.0929 142.902 7.69023C143.434 8.27823 144.153 8.57223 145.058 8.57223C145.945 8.57223 146.612 8.33423 147.06 7.85823C147.518 7.3729 147.793 6.73823 147.886 5.95423H145.408V4.61023H149.692V10.0002H148.04L147.9 8.71223C147.583 9.1789 147.186 9.53823 146.71 9.79023C146.234 10.0422 145.628 10.1682 144.89 10.1682ZM158.77 10.0002V0.200226H165.098V1.64223H160.562V4.38623H164.23V5.80023H160.562V10.0002H158.77ZM166.785 10.0002L170.369 0.200226H172.385L175.969 10.0002H174.065L173.281 7.73223H169.459L168.661 10.0002H166.785ZM169.949 6.33223H172.791L171.363 2.25823L169.949 6.33223ZM182.577 10.1682C181.859 10.1682 181.224 10.0469 180.673 9.80423C180.123 9.55223 179.689 9.19756 179.371 8.74023C179.054 8.27356 178.891 7.7089 178.881 7.04623H180.771C180.79 7.50356 180.953 7.8909 181.261 8.20823C181.579 8.51623 182.013 8.67023 182.563 8.67023C183.039 8.67023 183.417 8.55823 183.697 8.33423C183.977 8.1009 184.117 7.7929 184.117 7.41023C184.117 7.0089 183.991 6.69623 183.739 6.47223C183.497 6.24823 183.17 6.06623 182.759 5.92623C182.349 5.78623 181.91 5.6369 181.443 5.47823C180.687 5.2169 180.109 4.8809 179.707 4.47023C179.315 4.05956 179.119 3.51356 179.119 2.83223C179.11 2.25356 179.245 1.7589 179.525 1.34823C179.815 0.928226 180.207 0.606226 180.701 0.382226C181.196 0.148893 181.765 0.0322266 182.409 0.0322266C183.063 0.0322266 183.637 0.148893 184.131 0.382226C184.635 0.61556 185.027 0.942226 185.307 1.36223C185.597 1.78223 185.751 2.28156 185.769 2.86023H183.851C183.842 2.5149 183.707 2.21156 183.445 1.95023C183.193 1.67956 182.839 1.54423 182.381 1.54423C181.989 1.5349 181.658 1.6329 181.387 1.83823C181.126 2.03423 180.995 2.32356 180.995 2.70623C180.995 3.0329 181.098 3.29423 181.303 3.49023C181.509 3.6769 181.789 3.83556 182.143 3.96623C182.498 4.0969 182.904 4.2369 183.361 4.38623C183.847 4.55423 184.29 4.75023 184.691 4.97423C185.093 5.19823 185.415 5.4969 185.657 5.87023C185.9 6.23423 186.021 6.70556 186.021 7.28423C186.021 7.79756 185.891 8.27356 185.629 8.71223C185.368 9.1509 184.981 9.50556 184.467 9.77623C183.954 10.0375 183.324 10.1682 182.577 10.1682ZM191.744 10.0002V1.64223H188.888V0.200226H196.406V1.64223H193.536V10.0002H191.744ZM200.069 6.90623L199.873 0.200226H201.791L201.581 6.90623H200.069ZM200.867 10.0982C200.531 10.0982 200.256 9.99556 200.041 9.79023C199.836 9.5849 199.733 9.33756 199.733 9.04823C199.733 8.74956 199.836 8.49756 200.041 8.29223C200.256 8.0869 200.531 7.98423 200.867 7.98423C201.185 7.98423 201.446 8.0869 201.651 8.29223C201.866 8.49756 201.973 8.74956 201.973 9.04823C201.973 9.33756 201.866 9.5849 201.651 9.79023C201.446 9.99556 201.185 10.0982 200.867 10.0982Z" fill="white"/>
</g>
<defs>
<clipPath id="clip0_464_1062">
<rect width="202" height="11" fill="white"/>
</clipPath>
</defs>
</svg>
