<svg width="125" height="11" viewBox="0 0 125 11" fill="none" xmlns="http://www.w3.org/2000/svg">
<g clip-path="url(#clip0_464_1066)">
<path d="M0.952 10.0002V0.200226H2.744V4.27423H7.14V0.200226H8.932V10.0002H7.14V5.73023H2.744V10.0002H0.952ZM12.8368 10.0002V0.200226H19.2348V1.64223H14.6288V4.33023H18.8148V5.73023H14.6288V8.55823H19.2348V10.0002H12.8368ZM22.9305 10.0002V0.200226H24.7225V8.60023H29.0625V10.0002H22.9305ZM32.6415 10.0002V0.200226H36.2675C37.0515 0.200226 37.7001 0.330893 38.2135 0.592226C38.7268 0.85356 39.1095 1.2129 39.3615 1.67023C39.6135 2.12756 39.7395 2.6409 39.7395 3.21023C39.7395 3.75156 39.6181 4.2509 39.3755 4.70823C39.1328 5.15623 38.7548 5.52023 38.2415 5.80023C37.7281 6.0709 37.0701 6.20623 36.2675 6.20623H34.4335V10.0002H32.6415ZM34.4335 4.75023H36.1555C36.7808 4.75023 37.2288 4.6149 37.4995 4.34423C37.7795 4.06423 37.9195 3.68623 37.9195 3.21023C37.9195 2.7249 37.7795 2.3469 37.4995 2.07623C37.2288 1.79623 36.7808 1.65623 36.1555 1.65623H34.4335V4.75023ZM52.2613 10.1682C51.5426 10.1682 50.894 10.0282 50.3153 9.74823C49.7366 9.4589 49.2746 9.0249 48.9293 8.44623C48.5933 7.86756 48.4253 7.1349 48.4253 6.24823V0.200226H50.2173V6.26223C50.2173 7.02756 50.3993 7.5969 50.7633 7.97023C51.1366 8.34356 51.65 8.53023 52.3033 8.53023C52.9473 8.53023 53.456 8.34356 53.8293 7.97023C54.2026 7.5969 54.3893 7.02756 54.3893 6.26223V0.200226H56.1813V6.24823C56.1813 7.1349 56.004 7.86756 55.6493 8.44623C55.2946 9.0249 54.8186 9.4589 54.2213 9.74823C53.6333 10.0282 52.98 10.1682 52.2613 10.1682ZM63.3566 10.1682C62.6379 10.1682 62.0033 10.0469 61.4526 9.80423C60.9019 9.55223 60.4679 9.19756 60.1506 8.74023C59.8333 8.27356 59.6699 7.7089 59.6606 7.04623H61.5506C61.5693 7.50356 61.7326 7.8909 62.0406 8.20823C62.3579 8.51623 62.7919 8.67023 63.3426 8.67023C63.8186 8.67023 64.1966 8.55823 64.4766 8.33423C64.7566 8.1009 64.8966 7.7929 64.8966 7.41023C64.8966 7.0089 64.7706 6.69623 64.5186 6.47223C64.2759 6.24823 63.9493 6.06623 63.5386 5.92623C63.1279 5.78623 62.6893 5.6369 62.2226 5.47823C61.4666 5.2169 60.8879 4.8809 60.4866 4.47023C60.0946 4.05956 59.8986 3.51356 59.8986 2.83223C59.8893 2.25356 60.0246 1.7589 60.3046 1.34823C60.5939 0.928226 60.9859 0.606226 61.4806 0.382226C61.9753 0.148893 62.5446 0.0322266 63.1886 0.0322266C63.8419 0.0322266 64.4159 0.148893 64.9106 0.382226C65.4146 0.61556 65.8066 0.942226 66.0866 1.36223C66.3759 1.78223 66.5299 2.28156 66.5486 2.86023H64.6306C64.6213 2.5149 64.4859 2.21156 64.2246 1.95023C63.9726 1.67956 63.6179 1.54423 63.1606 1.54423C62.7686 1.5349 62.4373 1.6329 62.1666 1.83823C61.9053 2.03423 61.7746 2.32356 61.7746 2.70623C61.7746 3.0329 61.8773 3.29423 62.0826 3.49023C62.2879 3.6769 62.5679 3.83556 62.9226 3.96623C63.2773 4.0969 63.6833 4.2369 64.1406 4.38623C64.6259 4.55423 65.0693 4.75023 65.4706 4.97423C65.8719 5.19823 66.1939 5.4969 66.4366 5.87023C66.6793 6.23423 66.8006 6.70556 66.8006 7.28423C66.8006 7.79756 66.6699 8.27356 66.4086 8.71223C66.1473 9.1509 65.7599 9.50556 65.2466 9.77623C64.7333 10.0375 64.1033 10.1682 63.3566 10.1682ZM79.984 10.1682C79.06 10.1682 78.2527 9.95823 77.562 9.53823C76.8714 9.11823 76.3347 8.5349 75.952 7.78823C75.5694 7.03223 75.378 6.1549 75.378 5.15623C75.378 4.14823 75.574 3.26156 75.966 2.49623C76.3674 1.72156 76.932 1.11956 77.66 0.690227C78.3974 0.25156 79.27 0.0322266 80.278 0.0322266C81.426 0.0322266 82.378 0.30756 83.134 0.858226C83.89 1.4089 84.38 2.16956 84.604 3.14023H82.602C82.4527 2.6829 82.182 2.32823 81.79 2.07623C81.398 1.8149 80.894 1.68423 80.278 1.68423C79.298 1.68423 78.542 1.9969 78.01 2.62223C77.478 3.23823 77.212 4.08756 77.212 5.17023C77.212 6.2529 77.4734 7.0929 77.996 7.69023C78.528 8.27823 79.2467 8.57223 80.152 8.57223C81.0387 8.57223 81.706 8.33423 82.154 7.85823C82.6114 7.3729 82.8867 6.73823 82.98 5.95423H80.502V4.61023H84.786V10.0002H83.134L82.994 8.71223C82.6767 9.1789 82.28 9.53823 81.804 9.79023C81.328 10.0422 80.7214 10.1682 79.984 10.1682ZM88.5282 10.0002V0.200226H92.1262C92.9102 0.200226 93.5542 0.33556 94.0582 0.606227C94.5715 0.86756 94.9542 1.2269 95.2062 1.68423C95.4582 2.13223 95.5842 2.63156 95.5842 3.18223C95.5842 3.77956 95.4255 4.32556 95.1082 4.82023C94.8002 5.3149 94.3148 5.67423 93.6522 5.89823L95.6822 10.0002H93.6242L91.8042 6.13623H90.3202V10.0002H88.5282ZM90.3202 4.82023H92.0142C92.6115 4.82023 93.0502 4.67556 93.3302 4.38623C93.6102 4.0969 93.7502 3.71423 93.7502 3.23823C93.7502 2.77156 93.6102 2.39823 93.3302 2.11823C93.0595 1.83823 92.6162 1.69823 92.0002 1.69823H90.3202V4.82023ZM103.843 10.1682C102.863 10.1682 102.004 9.95356 101.267 9.52423C100.539 9.0949 99.9648 8.50223 99.5448 7.74623C99.1342 6.9809 98.9288 6.0989 98.9288 5.10023C98.9288 4.10156 99.1342 3.22423 99.5448 2.46823C99.9648 1.7029 100.539 1.10556 101.267 0.676227C102.004 0.246894 102.863 0.0322266 103.843 0.0322266C104.813 0.0322266 105.667 0.246894 106.405 0.676227C107.142 1.10556 107.716 1.7029 108.127 2.46823C108.537 3.22423 108.743 4.10156 108.743 5.10023C108.743 6.0989 108.537 6.9809 108.127 7.74623C107.716 8.50223 107.142 9.0949 106.405 9.52423C105.667 9.95356 104.813 10.1682 103.843 10.1682ZM103.843 8.55823C104.776 8.55823 105.518 8.25023 106.069 7.63423C106.629 7.01823 106.909 6.17356 106.909 5.10023C106.909 4.0269 106.629 3.18223 106.069 2.56623C105.518 1.95023 104.776 1.64223 103.843 1.64223C102.909 1.64223 102.163 1.95023 101.603 2.56623C101.043 3.18223 100.763 4.0269 100.763 5.10023C100.763 6.17356 101.043 7.01823 101.603 7.63423C102.163 8.25023 102.909 8.55823 103.843 8.55823ZM113.889 10.0002L111.299 0.200226H113.217L114.981 7.99823L117.053 0.200226H119.027L121.043 7.99823L122.807 0.200226H124.739L122.079 10.0002H119.951L118.005 2.73423L116.003 10.0002H113.889Z" fill="white"/>
</g>
<defs>
<clipPath id="clip0_464_1066">
<rect width="125" height="11" fill="white"/>
</clipPath>
</defs>
</svg>
