<svg width="119" height="11" viewBox="0 0 119 11" fill="none" xmlns="http://www.w3.org/2000/svg">
<g clip-path="url(#clip0_464_1060)">
<path d="M0.951996 10.0002V0.200226H2.744V4.16223L6.37 0.200226H8.582L4.97 4.09223L8.68 10.0002H6.482L3.682 5.46423L2.744 6.48623V10.0002H0.951996ZM11.9071 10.0002V0.200226H18.3051V1.64223H13.6991V4.33023H17.8851V5.73023H13.6991V8.55823H18.3051V10.0002H11.9071ZM24.5348 10.0002V6.51423L21.2448 0.200226H23.2748L25.4448 4.72223L27.6008 0.200226H29.6028L26.3268 6.51423V10.0002H24.5348ZM38.0868 10.0002V0.200226H44.4148V1.64223H39.8788V4.38623H43.5468V5.80023H39.8788V10.0002H38.0868ZM47.7977 10.0002V0.200226H54.1957V1.64223H49.5897V4.33023H53.7757V5.73023H49.5897V8.55823H54.1957V10.0002H47.7977ZM57.2615 10.0002L60.8455 0.200226H62.8615L66.4455 10.0002H64.5415L63.7575 7.73223H59.9355L59.1375 10.0002H57.2615ZM60.4255 6.33223H63.2675L61.8395 2.25823L60.4255 6.33223ZM70.9508 10.0002V1.64223H68.0948V0.200226H75.6128V1.64223H72.7428V10.0002H70.9508ZM82.7203 10.1682C82.0016 10.1682 81.3529 10.0282 80.7743 9.74823C80.1956 9.4589 79.7336 9.0249 79.3883 8.44623C79.0523 7.86756 78.8843 7.1349 78.8843 6.24823V0.200226H80.6763V6.26223C80.6763 7.02756 80.8583 7.5969 81.2223 7.97023C81.5956 8.34356 82.1089 8.53023 82.7623 8.53023C83.4063 8.53023 83.9149 8.34356 84.2883 7.97023C84.6616 7.5969 84.8483 7.02756 84.8483 6.26223V0.200226H86.6403V6.24823C86.6403 7.1349 86.4629 7.86756 86.1083 8.44623C85.7536 9.0249 85.2776 9.4589 84.6803 9.74823C84.0923 10.0282 83.4389 10.1682 82.7203 10.1682ZM90.4696 10.0002V0.200226H94.0676C94.8516 0.200226 95.4956 0.33556 95.9996 0.606227C96.5129 0.86756 96.8956 1.2269 97.1476 1.68423C97.3996 2.13223 97.5256 2.63156 97.5256 3.18223C97.5256 3.77956 97.3669 4.32556 97.0496 4.82023C96.7416 5.3149 96.2562 5.67423 95.5936 5.89823L97.6236 10.0002H95.5656L93.7456 6.13623H92.2616V10.0002H90.4696ZM92.2616 4.82023H93.9556C94.5529 4.82023 94.9916 4.67556 95.2716 4.38623C95.5516 4.0969 95.6916 3.71423 95.6916 3.23823C95.6916 2.77156 95.5516 2.39823 95.2716 2.11823C95.0009 1.83823 94.5576 1.69823 93.9416 1.69823H92.2616V4.82023ZM101.192 10.0002V0.200226H107.59V1.64223H102.984V4.33023H107.17V5.73023H102.984V8.55823H107.59V10.0002H101.192ZM114.632 10.1682C113.913 10.1682 113.279 10.0469 112.728 9.80423C112.177 9.55223 111.743 9.19756 111.426 8.74023C111.109 8.27356 110.945 7.7089 110.936 7.04623H112.826C112.845 7.50356 113.008 7.8909 113.316 8.20823C113.633 8.51623 114.067 8.67023 114.618 8.67023C115.094 8.67023 115.472 8.55823 115.752 8.33423C116.032 8.1009 116.172 7.7929 116.172 7.41023C116.172 7.0089 116.046 6.69623 115.794 6.47223C115.551 6.24823 115.225 6.06623 114.814 5.92623C114.403 5.78623 113.965 5.6369 113.498 5.47823C112.742 5.2169 112.163 4.8809 111.762 4.47023C111.37 4.05956 111.174 3.51356 111.174 2.83223C111.165 2.25356 111.3 1.7589 111.58 1.34823C111.869 0.928226 112.261 0.606226 112.756 0.382226C113.251 0.148893 113.82 0.0322266 114.464 0.0322266C115.117 0.0322266 115.691 0.148893 116.186 0.382226C116.69 0.61556 117.082 0.942226 117.362 1.36223C117.651 1.78223 117.805 2.28156 117.824 2.86023H115.906C115.897 2.5149 115.761 2.21156 115.5 1.95023C115.248 1.67956 114.893 1.54423 114.436 1.54423C114.044 1.5349 113.713 1.6329 113.442 1.83823C113.181 2.03423 113.05 2.32356 113.05 2.70623C113.05 3.0329 113.153 3.29423 113.358 3.49023C113.563 3.6769 113.843 3.83556 114.198 3.96623C114.553 4.0969 114.959 4.2369 115.416 4.38623C115.901 4.55423 116.345 4.75023 116.746 4.97423C117.147 5.19823 117.469 5.4969 117.712 5.87023C117.955 6.23423 118.076 6.70556 118.076 7.28423C118.076 7.79756 117.945 8.27356 117.684 8.71223C117.423 9.1509 117.035 9.50556 116.522 9.77623C116.009 10.0375 115.379 10.1682 114.632 10.1682Z" fill="white"/>
</g>
<defs>
<clipPath id="clip0_464_1060">
<rect width="119" height="11" fill="white"/>
</clipPath>
</defs>
</svg>
