<svg width="348" height="11" viewBox="0 0 348 11" fill="none" xmlns="http://www.w3.org/2000/svg">
<g clip-path="url(#clip0_464_1056)">
<path d="M0.322021 10.0002L3.90602 0.200226H5.92202L9.50602 10.0002H7.60202L6.81802 7.73223H2.99602L2.19802 10.0002H0.322021ZM3.48602 6.33223H6.32802L4.90002 2.25823L3.48602 6.33223ZM12.7684 10.0002V0.200226H14.5604L19.1664 7.10223V0.200226H20.9584V10.0002H19.1664L14.5604 3.11223V10.0002H12.7684ZM24.8583 10.0002V0.200226H28.2043C29.3523 0.200226 30.2949 0.40556 31.0323 0.816227C31.7789 1.21756 32.3296 1.7869 32.6843 2.52423C33.0483 3.25223 33.2303 4.1109 33.2303 5.10023C33.2303 6.08956 33.0483 6.9529 32.6843 7.69023C32.3296 8.41823 31.7789 8.98756 31.0323 9.39823C30.2949 9.79956 29.3523 10.0002 28.2043 10.0002H24.8583ZM26.6503 8.46023H28.1203C28.9416 8.46023 29.5903 8.32956 30.0663 8.06823C30.5423 7.79756 30.8829 7.4149 31.0883 6.92023C31.2936 6.41623 31.3963 5.80956 31.3963 5.10023C31.3963 4.40023 31.2936 3.79823 31.0883 3.29423C30.8829 2.79023 30.5423 2.4029 30.0663 2.13223C29.5903 1.86156 28.9416 1.72623 28.1203 1.72623H26.6503V8.46023ZM42.1473 10.0002V0.200226H45.7733C46.5573 0.200226 47.206 0.330893 47.7193 0.592226C48.2326 0.85356 48.6153 1.2129 48.8673 1.67023C49.1193 2.12756 49.2453 2.6409 49.2453 3.21023C49.2453 3.75156 49.124 4.2509 48.8813 4.70823C48.6386 5.15623 48.2606 5.52023 47.7473 5.80023C47.234 6.0709 46.576 6.20623 45.7733 6.20623H43.9393V10.0002H42.1473ZM43.9393 4.75023H45.6613C46.2866 4.75023 46.7346 4.6149 47.0053 4.34423C47.2853 4.06423 47.4253 3.68623 47.4253 3.21023C47.4253 2.7249 47.2853 2.3469 47.0053 2.07623C46.7346 1.79623 46.2866 1.65623 45.6613 1.65623H43.9393V4.75023ZM52.6512 10.0002V0.200226H59.0492V1.64223H54.4432V4.33023H58.6292V5.73023H54.4432V8.55823H59.0492V10.0002H52.6512ZM67.337 10.1682C66.357 10.1682 65.4983 9.95356 64.761 9.52423C64.033 9.0949 63.459 8.50223 63.039 7.74623C62.6283 6.9809 62.423 6.0989 62.423 5.10023C62.423 4.10156 62.6283 3.22423 63.039 2.46823C63.459 1.7029 64.033 1.10556 64.761 0.676227C65.4983 0.246894 66.357 0.0322266 67.337 0.0322266C68.3076 0.0322266 69.1616 0.246894 69.899 0.676227C70.6363 1.10556 71.2103 1.7029 71.621 2.46823C72.0316 3.22423 72.237 4.10156 72.237 5.10023C72.237 6.0989 72.0316 6.9809 71.621 7.74623C71.2103 8.50223 70.6363 9.0949 69.899 9.52423C69.1616 9.95356 68.3076 10.1682 67.337 10.1682ZM67.337 8.55823C68.2703 8.55823 69.0123 8.25023 69.563 7.63423C70.123 7.01823 70.403 6.17356 70.403 5.10023C70.403 4.0269 70.123 3.18223 69.563 2.56623C69.0123 1.95023 68.2703 1.64223 67.337 1.64223C66.4036 1.64223 65.657 1.95023 65.097 2.56623C64.537 3.18223 64.257 4.0269 64.257 5.10023C64.257 6.17356 64.537 7.01823 65.097 7.63423C65.657 8.25023 66.4036 8.55823 67.337 8.55823ZM75.8192 10.0002V0.200226H79.4452C80.2292 0.200226 80.8779 0.330893 81.3912 0.592226C81.9045 0.85356 82.2872 1.2129 82.5392 1.67023C82.7912 2.12756 82.9172 2.6409 82.9172 3.21023C82.9172 3.75156 82.7959 4.2509 82.5532 4.70823C82.3105 5.15623 81.9325 5.52023 81.4192 5.80023C80.9059 6.0709 80.2479 6.20623 79.4452 6.20623H77.6112V10.0002H75.8192ZM77.6112 4.75023H79.3332C79.9585 4.75023 80.4065 4.6149 80.6772 4.34423C80.9572 4.06423 81.0972 3.68623 81.0972 3.21023C81.0972 2.7249 80.9572 2.3469 80.6772 2.07623C80.4065 1.79623 79.9585 1.65623 79.3332 1.65623H77.6112V4.75023ZM86.3231 10.0002V0.200226H88.1151V8.60023H92.4551V10.0002H86.3231ZM96.034 10.0002V0.200226H102.432V1.64223H97.826V4.33023H102.012V5.73023H97.826V8.55823H102.432V10.0002H96.034ZM111.464 10.0002V0.200226H117.792V1.64223H113.256V4.38623H116.924V5.80023H113.256V10.0002H111.464ZM121.175 10.0002V0.200226H124.773C125.557 0.200226 126.201 0.33556 126.705 0.606227C127.218 0.86756 127.601 1.2269 127.853 1.68423C128.105 2.13223 128.231 2.63156 128.231 3.18223C128.231 3.77956 128.072 4.32556 127.755 4.82023C127.447 5.3149 126.961 5.67423 126.299 5.89823L128.329 10.0002H126.271L124.451 6.13623H122.967V10.0002H121.175ZM122.967 4.82023H124.661C125.258 4.82023 125.697 4.67556 125.977 4.38623C126.257 4.0969 126.397 3.71423 126.397 3.23823C126.397 2.77156 126.257 2.39823 125.977 2.11823C125.706 1.83823 125.263 1.69823 124.647 1.69823H122.967V4.82023ZM136.489 10.1682C135.509 10.1682 134.651 9.95356 133.913 9.52423C133.185 9.0949 132.611 8.50223 132.191 7.74623C131.781 6.9809 131.575 6.0989 131.575 5.10023C131.575 4.10156 131.781 3.22423 132.191 2.46823C132.611 1.7029 133.185 1.10556 133.913 0.676227C134.651 0.246894 135.509 0.0322266 136.489 0.0322266C137.46 0.0322266 138.314 0.246894 139.051 0.676227C139.789 1.10556 140.363 1.7029 140.773 2.46823C141.184 3.22423 141.389 4.10156 141.389 5.10023C141.389 6.0989 141.184 6.9809 140.773 7.74623C140.363 8.50223 139.789 9.0949 139.051 9.52423C138.314 9.95356 137.46 10.1682 136.489 10.1682ZM136.489 8.55823C137.423 8.55823 138.165 8.25023 138.715 7.63423C139.275 7.01823 139.555 6.17356 139.555 5.10023C139.555 4.0269 139.275 3.18223 138.715 2.56623C138.165 1.95023 137.423 1.64223 136.489 1.64223C135.556 1.64223 134.809 1.95023 134.249 2.56623C133.689 3.18223 133.409 4.0269 133.409 5.10023C133.409 6.17356 133.689 7.01823 134.249 7.63423C134.809 8.25023 135.556 8.55823 136.489 8.55823ZM144.972 10.0002V0.200226H147.1L150.222 6.41623L153.302 0.200226H155.43V10.0002H153.638V3.23823L150.908 8.60023H149.494L146.764 3.23823V10.0002H144.972ZM164.037 10.0002L167.621 0.200226H169.637L173.221 10.0002H171.317L170.533 7.73223H166.711L165.913 10.0002H164.037ZM167.201 6.33223H170.043L168.615 2.25823L167.201 6.33223ZM176.483 10.0002V0.200226H178.275V8.60023H182.615V10.0002H176.483ZM186.194 10.0002V0.200226H187.986V8.60023H192.326V10.0002H186.194ZM205.833 10.1682C204.853 10.1682 203.994 9.95356 203.257 9.52423C202.529 9.0949 201.955 8.50223 201.535 7.74623C201.124 6.9809 200.919 6.0989 200.919 5.10023C200.919 4.10156 201.124 3.22423 201.535 2.46823C201.955 1.7029 202.529 1.10556 203.257 0.676227C203.994 0.246894 204.853 0.0322266 205.833 0.0322266C206.804 0.0322266 207.658 0.246894 208.395 0.676227C209.132 1.10556 209.706 1.7029 210.117 2.46823C210.528 3.22423 210.733 4.10156 210.733 5.10023C210.733 6.0989 210.528 6.9809 210.117 7.74623C209.706 8.50223 209.132 9.0949 208.395 9.52423C207.658 9.95356 206.804 10.1682 205.833 10.1682ZM205.833 8.55823C206.766 8.55823 207.508 8.25023 208.059 7.63423C208.619 7.01823 208.899 6.17356 208.899 5.10023C208.899 4.0269 208.619 3.18223 208.059 2.56623C207.508 1.95023 206.766 1.64223 205.833 1.64223C204.9 1.64223 204.153 1.95023 203.593 2.56623C203.033 3.18223 202.753 4.0269 202.753 5.10023C202.753 6.17356 203.033 7.01823 203.593 7.63423C204.153 8.25023 204.9 8.55823 205.833 8.55823ZM216.829 10.0002L213.245 0.200226H215.163L217.935 8.16623L220.721 0.200226H222.611L219.027 10.0002H216.829ZM225.776 10.0002V0.200226H232.174V1.64223H227.568V4.33023H231.754V5.73023H227.568V8.55823H232.174V10.0002H225.776ZM235.87 10.0002V0.200226H239.468C240.252 0.200226 240.896 0.33556 241.4 0.606227C241.913 0.86756 242.296 1.2269 242.548 1.68423C242.8 2.13223 242.926 2.63156 242.926 3.18223C242.926 3.77956 242.767 4.32556 242.45 4.82023C242.142 5.3149 241.657 5.67423 240.994 5.89823L243.024 10.0002H240.966L239.146 6.13623H237.662V10.0002H235.87ZM237.662 4.82023H239.356C239.953 4.82023 240.392 4.67556 240.672 4.38623C240.952 4.0969 241.092 3.71423 241.092 3.23823C241.092 2.77156 240.952 2.39823 240.672 2.11823C240.401 1.83823 239.958 1.69823 239.342 1.69823H237.662V4.82023ZM254.211 10.0002V1.64223H251.355V0.200226H258.873V1.64223H256.003V10.0002H254.211ZM262.2 10.0002V0.200226H263.992V4.27423H268.388V0.200226H270.18V10.0002H268.388V5.73023H263.992V10.0002H262.2ZM274.085 10.0002V0.200226H280.483V1.64223H275.877V4.33023H280.063V5.73023H275.877V8.55823H280.483V10.0002H274.085ZM291.503 10.0002L288.913 0.200226H290.831L292.595 7.99823L294.667 0.200226H296.641L298.657 7.99823L300.421 0.200226H302.353L299.693 10.0002H297.565L295.619 2.73423L293.617 10.0002H291.503ZM309.819 10.1682C308.839 10.1682 307.981 9.95356 307.243 9.52423C306.515 9.0949 305.941 8.50223 305.521 7.74623C305.111 6.9809 304.905 6.0989 304.905 5.10023C304.905 4.10156 305.111 3.22423 305.521 2.46823C305.941 1.7029 306.515 1.10556 307.243 0.676227C307.981 0.246894 308.839 0.0322266 309.819 0.0322266C310.79 0.0322266 311.644 0.246894 312.381 0.676227C313.119 1.10556 313.693 1.7029 314.103 2.46823C314.514 3.22423 314.719 4.10156 314.719 5.10023C314.719 6.0989 314.514 6.9809 314.103 7.74623C313.693 8.50223 313.119 9.0949 312.381 9.52423C311.644 9.95356 310.79 10.1682 309.819 10.1682ZM309.819 8.55823C310.753 8.55823 311.495 8.25023 312.045 7.63423C312.605 7.01823 312.885 6.17356 312.885 5.10023C312.885 4.0269 312.605 3.18223 312.045 2.56623C311.495 1.95023 310.753 1.64223 309.819 1.64223C308.886 1.64223 308.139 1.95023 307.579 2.56623C307.019 3.18223 306.739 4.0269 306.739 5.10023C306.739 6.17356 307.019 7.01823 307.579 7.63423C308.139 8.25023 308.886 8.55823 309.819 8.55823ZM318.302 10.0002V0.200226H321.9C322.684 0.200226 323.328 0.33556 323.832 0.606227C324.345 0.86756 324.728 1.2269 324.98 1.68423C325.232 2.13223 325.358 2.63156 325.358 3.18223C325.358 3.77956 325.199 4.32556 324.882 4.82023C324.574 5.3149 324.088 5.67423 323.426 5.89823L325.456 10.0002H323.398L321.578 6.13623H320.094V10.0002H318.302ZM320.094 4.82023H321.788C322.385 4.82023 322.824 4.67556 323.104 4.38623C323.384 4.0969 323.524 3.71423 323.524 3.23823C323.524 2.77156 323.384 2.39823 323.104 2.11823C322.833 1.83823 322.39 1.69823 321.774 1.69823H320.094V4.82023ZM329.024 10.0002V0.200226H330.816V8.60023H335.156V10.0002H329.024ZM338.735 10.0002V0.200226H342.081C343.229 0.200226 344.172 0.40556 344.909 0.816227C345.656 1.21756 346.207 1.7869 346.561 2.52423C346.925 3.25223 347.107 4.1109 347.107 5.10023C347.107 6.08956 346.925 6.9529 346.561 7.69023C346.207 8.41823 345.656 8.98756 344.909 9.39823C344.172 9.79956 343.229 10.0002 342.081 10.0002H338.735ZM340.527 8.46023H341.997C342.819 8.46023 343.467 8.32956 343.943 8.06823C344.419 7.79756 344.76 7.4149 344.965 6.92023C345.171 6.41623 345.273 5.80956 345.273 5.10023C345.273 4.40023 345.171 3.79823 344.965 3.29423C344.76 2.79023 344.419 2.4029 343.943 2.13223C343.467 1.86156 342.819 1.72623 341.997 1.72623H340.527V8.46023Z" fill="white"/>
</g>
<defs>
<clipPath id="clip0_464_1056">
<rect width="348" height="11" fill="white"/>
</clipPath>
</defs>
</svg>
