<svg width="67" height="11" viewBox="0 0 67 11" fill="none" xmlns="http://www.w3.org/2000/svg">
<g clip-path="url(#clip0_464_1058)">
<path d="M0.952026 10.0002V0.200226H7.35003V1.64223H2.74403V4.33023H6.93003V5.73023H2.74403V8.55823H7.35003V10.0002H0.952026ZM11.0458 10.0002V0.200226H12.8378L17.4438 7.10223V0.200226H19.2358V10.0002H17.4438L12.8378 3.11223V10.0002H11.0458ZM27.4196 10.1682C26.4956 10.1682 25.6883 9.95823 24.9976 9.53823C24.3069 9.11823 23.7703 8.5349 23.3876 7.78823C23.0049 7.03223 22.8136 6.1549 22.8136 5.15623C22.8136 4.14823 23.0096 3.26156 23.4016 2.49623C23.8029 1.72156 24.3676 1.11956 25.0956 0.690227C25.8329 0.25156 26.7056 0.0322266 27.7136 0.0322266C28.8616 0.0322266 29.8136 0.30756 30.5696 0.858226C31.3256 1.4089 31.8156 2.16956 32.0396 3.14023H30.0376C29.8883 2.6829 29.6176 2.32823 29.2256 2.07623C28.8336 1.8149 28.3296 1.68423 27.7136 1.68423C26.7336 1.68423 25.9776 1.9969 25.4456 2.62223C24.9136 3.23823 24.6476 4.08756 24.6476 5.17023C24.6476 6.2529 24.9089 7.0929 25.4316 7.69023C25.9636 8.27823 26.6823 8.57223 27.5876 8.57223C28.4743 8.57223 29.1416 8.33423 29.5896 7.85823C30.0469 7.3729 30.3223 6.73823 30.4156 5.95423H27.9376V4.61023H32.2216V10.0002H30.5696L30.4296 8.71223C30.1123 9.1789 29.7156 9.53823 29.2396 9.79023C28.7636 10.0422 28.1569 10.1682 27.4196 10.1682ZM35.3337 10.0002L38.9177 0.200226H40.9337L44.5177 10.0002H42.6137L41.8297 7.73223H38.0077L37.2097 10.0002H35.3337ZM38.4977 6.33223H41.3397L39.9117 2.25823L38.4977 6.33223ZM51.5036 10.1682C50.5796 10.1682 49.7722 9.95823 49.0816 9.53823C48.3909 9.11823 47.8542 8.5349 47.4716 7.78823C47.0889 7.03223 46.8976 6.1549 46.8976 5.15623C46.8976 4.14823 47.0936 3.26156 47.4856 2.49623C47.8869 1.72156 48.4516 1.11956 49.1796 0.690227C49.9169 0.25156 50.7896 0.0322266 51.7976 0.0322266C52.9456 0.0322266 53.8976 0.30756 54.6536 0.858226C55.4096 1.4089 55.8996 2.16956 56.1236 3.14023H54.1216C53.9722 2.6829 53.7016 2.32823 53.3096 2.07623C52.9176 1.8149 52.4136 1.68423 51.7976 1.68423C50.8176 1.68423 50.0616 1.9969 49.5296 2.62223C48.9976 3.23823 48.7316 4.08756 48.7316 5.17023C48.7316 6.2529 48.9929 7.0929 49.5156 7.69023C50.0476 8.27823 50.7662 8.57223 51.6716 8.57223C52.5582 8.57223 53.2256 8.33423 53.6736 7.85823C54.1309 7.3729 54.4062 6.73823 54.4996 5.95423H52.0216V4.61023H56.3056V10.0002H54.6536L54.5136 8.71223C54.1962 9.1789 53.7996 9.53823 53.3236 9.79023C52.8476 10.0422 52.2409 10.1682 51.5036 10.1682ZM60.0477 10.0002V0.200226H66.4457V1.64223H61.8397V4.33023H66.0257V5.73023H61.8397V8.55823H66.4457V10.0002H60.0477Z" fill="white"/>
</g>
<defs>
<clipPath id="clip0_464_1058">
<rect width="67" height="11" fill="white"/>
</clipPath>
</defs>
</svg>
