<svg width="247" height="32" viewBox="0 0 247 32" fill="none" xmlns="http://www.w3.org/2000/svg">
<g clip-path="url(#clip0_464_1078)">
<path d="M14.275 31.5038C11.503 31.5038 9.081 30.8738 7.009 29.6138C4.937 28.3538 3.327 26.6038 2.179 24.3638C1.031 22.0958 0.457001 19.4638 0.457001 16.4678C0.457001 13.4438 1.045 10.7838 2.221 8.48777C3.425 6.16377 5.119 4.35777 7.303 3.06977C9.515 1.75377 12.133 1.09577 15.157 1.09577C18.601 1.09577 21.457 1.92177 23.725 3.57377C25.993 5.22577 27.463 7.50777 28.135 10.4198H22.129C21.681 9.04777 20.869 7.98377 19.693 7.22777C18.517 6.44377 17.005 6.05177 15.157 6.05177C12.217 6.05177 9.949 6.98977 8.353 8.86577C6.757 10.7138 5.959 13.2618 5.959 16.5098C5.959 19.7578 6.74301 22.2778 8.31101 24.0698C9.90701 25.8338 12.063 26.7158 14.779 26.7158C17.439 26.7158 19.441 26.0018 20.785 24.5738C22.157 23.1178 22.983 21.2138 23.263 18.8618H15.829V14.8298H28.681V30.9998H23.725L23.305 27.1358C22.353 28.5358 21.163 29.6138 19.735 30.3698C18.307 31.1258 16.487 31.5038 14.275 31.5038ZM43.5034 31.5038C41.4034 31.5038 39.5414 31.0558 37.9174 30.1598C36.2934 29.2638 35.0194 28.0038 34.0954 26.3798C33.1714 24.7558 32.7094 22.8798 32.7094 20.7518C32.7094 18.5958 33.1574 16.6778 34.0534 14.9978C34.9774 13.3178 36.2374 12.0158 37.8334 11.0918C39.4574 10.1398 41.3614 9.66377 43.5454 9.66377C45.5894 9.66377 47.3954 10.1118 48.9634 11.0078C50.5314 11.9038 51.7494 13.1358 52.6174 14.7038C53.5134 16.2438 53.9614 17.9658 53.9614 19.8698C53.9614 20.1778 53.9474 20.4998 53.9194 20.8358C53.9194 21.1718 53.9054 21.5218 53.8774 21.8858H38.0434C38.1554 23.5098 38.7154 24.7838 39.7234 25.7078C40.7594 26.6318 42.0054 27.0938 43.4614 27.0938C44.5534 27.0938 45.4634 26.8558 46.1914 26.3798C46.9474 25.8758 47.5074 25.2318 47.8714 24.4478H53.3314C52.9394 25.7638 52.2814 26.9678 51.3574 28.0598C50.4614 29.1238 49.3414 29.9638 47.9974 30.5798C46.6814 31.1958 45.1834 31.5038 43.5034 31.5038ZM43.5454 14.0318C42.2294 14.0318 41.0674 14.4098 40.0594 15.1658C39.0514 15.8938 38.4074 17.0138 38.1274 18.5258H48.5014C48.4174 17.1538 47.9134 16.0618 46.9894 15.2498C46.0654 14.4378 44.9174 14.0318 43.5454 14.0318ZM66.9958 30.9998C64.8118 30.9998 63.0618 30.4678 61.7458 29.4038C60.4298 28.3398 59.7718 26.4498 59.7718 23.7338V14.6618H56.2018V10.1678H59.7718L60.4018 4.58177H65.1478V10.1678H70.7758V14.6618H65.1478V23.7758C65.1478 24.7838 65.3578 25.4838 65.7778 25.8758C66.2258 26.2398 66.9818 26.4218 68.0458 26.4218H70.6498V30.9998H66.9958ZM87.4973 6.93377C86.5173 6.93377 85.7053 6.63977 85.0613 6.05177C84.4453 5.46377 84.1373 4.72177 84.1373 3.82577C84.1373 2.92977 84.4453 2.20177 85.0613 1.64177C85.7053 1.05377 86.5173 0.759766 87.4973 0.759766C88.4773 0.759766 89.2753 1.05377 89.8913 1.64177C90.5353 2.20177 90.8573 2.92977 90.8573 3.82577C90.8573 4.72177 90.5353 5.46377 89.8913 6.05177C89.2753 6.63977 88.4773 6.93377 87.4973 6.93377ZM84.8093 30.9998V10.1678H90.1853V30.9998H84.8093ZM95.3966 30.9998V10.1678H100.143L100.563 13.6958C101.207 12.4638 102.131 11.4838 103.335 10.7558C104.567 10.0278 106.009 9.66377 107.661 9.66377C110.237 9.66377 112.239 10.4758 113.667 12.0998C115.095 13.7238 115.809 16.1038 115.809 19.2398V30.9998H110.433V19.7438C110.433 17.9518 110.069 16.5798 109.341 15.6278C108.613 14.6758 107.479 14.1998 105.939 14.1998C104.427 14.1998 103.181 14.7318 102.201 15.7958C101.249 16.8598 100.773 18.3438 100.773 20.2478V30.9998H95.3966ZM125.972 30.9998L118.328 10.1678H123.956L129.248 25.9178L134.54 10.1678H140.168L132.482 30.9998H125.972ZM152.13 31.5038C150.114 31.5038 148.294 31.0418 146.67 30.1178C145.074 29.1938 143.8 27.9198 142.848 26.2958C141.924 24.6438 141.462 22.7398 141.462 20.5838C141.462 18.4278 141.938 16.5378 142.89 14.9138C143.842 13.2618 145.116 11.9738 146.712 11.0498C148.336 10.1258 150.156 9.66377 152.172 9.66377C154.16 9.66377 155.952 10.1258 157.548 11.0498C159.172 11.9738 160.446 13.2618 161.37 14.9138C162.322 16.5378 162.798 18.4278 162.798 20.5838C162.798 22.7398 162.322 24.6438 161.37 26.2958C160.446 27.9198 159.172 29.1938 157.548 30.1178C155.924 31.0418 154.118 31.5038 152.13 31.5038ZM152.13 26.8418C153.53 26.8418 154.748 26.3238 155.784 25.2878C156.82 24.2238 157.338 22.6558 157.338 20.5838C157.338 18.5118 156.82 16.9578 155.784 15.9218C154.748 14.8578 153.544 14.3258 152.172 14.3258C150.744 14.3258 149.512 14.8578 148.476 15.9218C147.468 16.9578 146.964 18.5118 146.964 20.5838C146.964 22.6558 147.468 24.2238 148.476 25.2878C149.512 26.3238 150.73 26.8418 152.13 26.8418ZM167.204 30.9998V0.759766H172.58V30.9998H167.204ZM183.302 30.9998L175.658 10.1678H181.286L186.578 25.9178L191.87 10.1678H197.498L189.812 30.9998H183.302ZM209.585 31.5038C207.485 31.5038 205.623 31.0558 203.999 30.1598C202.375 29.2638 201.101 28.0038 200.177 26.3798C199.253 24.7558 198.791 22.8798 198.791 20.7518C198.791 18.5958 199.239 16.6778 200.135 14.9978C201.059 13.3178 202.319 12.0158 203.915 11.0918C205.539 10.1398 207.443 9.66377 209.627 9.66377C211.671 9.66377 213.477 10.1118 215.045 11.0078C216.613 11.9038 217.831 13.1358 218.699 14.7038C219.595 16.2438 220.043 17.9658 220.043 19.8698C220.043 20.1778 220.029 20.4998 220.001 20.8358C220.001 21.1718 219.987 21.5218 219.959 21.8858H204.125C204.237 23.5098 204.797 24.7838 205.805 25.7078C206.841 26.6318 208.087 27.0938 209.543 27.0938C210.635 27.0938 211.545 26.8558 212.273 26.3798C213.029 25.8758 213.589 25.2318 213.953 24.4478H219.413C219.021 25.7638 218.363 26.9678 217.439 28.0598C216.543 29.1238 215.423 29.9638 214.079 30.5798C212.763 31.1958 211.265 31.5038 209.585 31.5038ZM209.627 14.0318C208.311 14.0318 207.149 14.4098 206.141 15.1658C205.133 15.8938 204.489 17.0138 204.209 18.5258H214.583C214.499 17.1538 213.995 16.0618 213.071 15.2498C212.147 14.4378 210.999 14.0318 209.627 14.0318ZM233.741 31.5038C231.781 31.5038 230.031 31.0278 228.491 30.0758C226.951 29.1238 225.733 27.8218 224.837 26.1698C223.941 24.5178 223.493 22.6418 223.493 20.5418C223.493 18.4418 223.941 16.5798 224.837 14.9558C225.733 13.3038 226.951 12.0158 228.491 11.0918C230.031 10.1398 231.781 9.66377 233.741 9.66377C235.309 9.66377 236.681 9.95777 237.857 10.5458C239.033 11.1338 239.985 11.9598 240.713 13.0238V0.759766H246.089V30.9998H241.301L240.713 28.0178C240.041 28.9418 239.145 29.7538 238.025 30.4538C236.933 31.1538 235.505 31.5038 233.741 31.5038ZM234.875 26.7998C236.611 26.7998 238.025 26.2258 239.117 25.0778C240.237 23.9018 240.797 22.4038 240.797 20.5838C240.797 18.7638 240.237 17.2798 239.117 16.1318C238.025 14.9558 236.611 14.3678 234.875 14.3678C233.167 14.3678 231.753 14.9418 230.633 16.0898C229.513 17.2378 228.953 18.7218 228.953 20.5418C228.953 22.3618 229.513 23.8598 230.633 25.0358C231.753 26.2118 233.167 26.7998 234.875 26.7998Z" fill="white"/>
</g>
<defs>
<clipPath id="clip0_464_1078">
<rect width="247" height="32" fill="white"/>
</clipPath>
</defs>
</svg>
