<svg width="310" height="32" viewBox="0 0 310 32" fill="none" xmlns="http://www.w3.org/2000/svg">
<g clip-path="url(#clip0_464_1074)">
<path d="M0.0587769 30.9998L10.8108 1.59977H16.8588L27.6108 30.9998H21.8988L19.5468 24.1958H8.08077L5.68677 30.9998H0.0587769ZM9.55077 19.9958H18.0768L13.7928 7.77377L9.55077 19.9958ZM30.872 30.9998V10.1678H35.618L36.038 13.6958C36.682 12.4638 37.606 11.4838 38.81 10.7558C40.042 10.0278 41.484 9.66377 43.136 9.66377C45.712 9.66377 47.714 10.4758 49.142 12.0998C50.57 13.7238 51.284 16.1038 51.284 19.2398V30.9998H45.908V19.7438C45.908 17.9518 45.544 16.5798 44.816 15.6278C44.088 14.6758 42.954 14.1998 41.414 14.1998C39.902 14.1998 38.656 14.7318 37.676 15.7958C36.724 16.8598 36.248 18.3438 36.248 20.2478V30.9998H30.872ZM65.7585 30.9998V1.59977H71.1345V30.9998H65.7585ZM76.3068 30.9998V10.1678H81.0528L81.4728 13.6958C82.1168 12.4638 83.0408 11.4838 84.2448 10.7558C85.4768 10.0278 86.9188 9.66377 88.5708 9.66377C91.1468 9.66377 93.1488 10.4758 94.5768 12.0998C96.0048 13.7238 96.7188 16.1038 96.7188 19.2398V30.9998H91.3428V19.7438C91.3428 17.9518 90.9788 16.5798 90.2508 15.6278C89.5228 14.6758 88.3888 14.1998 86.8488 14.1998C85.3368 14.1998 84.0908 14.7318 83.1108 15.7958C82.1588 16.8598 81.6828 18.3438 81.6828 20.2478V30.9998H76.3068ZM110.741 30.9998C108.557 30.9998 106.807 30.4678 105.491 29.4038C104.175 28.3398 103.517 26.4498 103.517 23.7338V14.6618H99.9475V10.1678H103.517L104.147 4.58177H108.893V10.1678H114.521V14.6618H108.893V23.7758C108.893 24.7838 109.103 25.4838 109.523 25.8758C109.971 26.2398 110.727 26.4218 111.791 26.4218H114.395V30.9998H110.741ZM118.737 30.9998V10.1678H123.525L124.029 14.0738C124.785 12.7298 125.807 11.6658 127.095 10.8818C128.411 10.0698 129.951 9.66377 131.715 9.66377V15.3338H130.203C129.027 15.3338 127.977 15.5158 127.053 15.8798C126.129 16.2438 125.401 16.8738 124.869 17.7698C124.365 18.6658 124.113 19.9118 124.113 21.5078V30.9998H118.737ZM144.616 31.5038C142.6 31.5038 140.78 31.0418 139.156 30.1178C137.56 29.1938 136.286 27.9198 135.334 26.2958C134.41 24.6438 133.948 22.7398 133.948 20.5838C133.948 18.4278 134.424 16.5378 135.376 14.9138C136.328 13.2618 137.602 11.9738 139.198 11.0498C140.822 10.1258 142.642 9.66377 144.658 9.66377C146.646 9.66377 148.438 10.1258 150.034 11.0498C151.658 11.9738 152.932 13.2618 153.856 14.9138C154.808 16.5378 155.284 18.4278 155.284 20.5838C155.284 22.7398 154.808 24.6438 153.856 26.2958C152.932 27.9198 151.658 29.1938 150.034 30.1178C148.41 31.0418 146.604 31.5038 144.616 31.5038ZM144.616 26.8418C146.016 26.8418 147.234 26.3238 148.27 25.2878C149.306 24.2238 149.824 22.6558 149.824 20.5838C149.824 18.5118 149.306 16.9578 148.27 15.9218C147.234 14.8578 146.03 14.3258 144.658 14.3258C143.23 14.3258 141.998 14.8578 140.962 15.9218C139.954 16.9578 139.45 18.5118 139.45 20.5838C139.45 22.6558 139.954 24.2238 140.962 25.2878C141.998 26.3238 143.216 26.8418 144.616 26.8418ZM169.267 31.5038C167.307 31.5038 165.557 31.0278 164.017 30.0758C162.477 29.1238 161.259 27.8218 160.363 26.1698C159.467 24.5178 159.019 22.6418 159.019 20.5418C159.019 18.4418 159.467 16.5798 160.363 14.9558C161.259 13.3038 162.477 12.0158 164.017 11.0918C165.557 10.1398 167.307 9.66377 169.267 9.66377C170.835 9.66377 172.207 9.95777 173.383 10.5458C174.559 11.1338 175.511 11.9598 176.239 13.0238V0.759766H181.615V30.9998H176.827L176.239 28.0178C175.567 28.9418 174.671 29.7538 173.551 30.4538C172.459 31.1538 171.031 31.5038 169.267 31.5038ZM170.401 26.7998C172.137 26.7998 173.551 26.2258 174.643 25.0778C175.763 23.9018 176.323 22.4038 176.323 20.5838C176.323 18.7638 175.763 17.2798 174.643 16.1318C173.551 14.9558 172.137 14.3678 170.401 14.3678C168.693 14.3678 167.279 14.9418 166.159 16.0898C165.039 17.2378 164.479 18.7218 164.479 20.5418C164.479 22.3618 165.039 23.8598 166.159 25.0358C167.279 26.2118 168.693 26.7998 170.401 26.7998ZM194.502 31.5038C191.898 31.5038 189.882 30.6918 188.454 29.0678C187.054 27.4438 186.354 25.0638 186.354 21.9278V10.1678H191.688V21.4238C191.688 23.2158 192.052 24.5878 192.78 25.5398C193.508 26.4918 194.656 26.9678 196.224 26.9678C197.708 26.9678 198.926 26.4358 199.878 25.3718C200.858 24.3078 201.348 22.8238 201.348 20.9198V10.1678H206.724V30.9998H201.978L201.558 27.4718C200.914 28.7038 199.976 29.6838 198.744 30.4118C197.54 31.1398 196.126 31.5038 194.502 31.5038ZM222.048 31.5038C219.92 31.5038 218.044 31.0418 216.42 30.1178C214.796 29.1938 213.508 27.9058 212.556 26.2538C211.632 24.6018 211.17 22.7118 211.17 20.5838C211.17 18.4558 211.632 16.5658 212.556 14.9138C213.508 13.2618 214.796 11.9738 216.42 11.0498C218.044 10.1258 219.92 9.66377 222.048 9.66377C224.708 9.66377 226.948 10.3638 228.768 11.7638C230.588 13.1358 231.75 15.0398 232.254 17.4758H226.584C226.304 16.4678 225.744 15.6838 224.904 15.1238C224.092 14.5358 223.126 14.2418 222.006 14.2418C220.522 14.2418 219.262 14.8018 218.226 15.9218C217.19 17.0418 216.672 18.5958 216.672 20.5838C216.672 22.5718 217.19 24.1258 218.226 25.2458C219.262 26.3658 220.522 26.9258 222.006 26.9258C223.126 26.9258 224.092 26.6458 224.904 26.0858C225.744 25.5258 226.304 24.7278 226.584 23.6918H232.254C231.75 26.0438 230.588 27.9338 228.768 29.3618C226.948 30.7898 224.708 31.5038 222.048 31.5038ZM245.621 30.9998C243.437 30.9998 241.687 30.4678 240.371 29.4038C239.055 28.3398 238.397 26.4498 238.397 23.7338V14.6618H234.827V10.1678H238.397L239.027 4.58177H243.773V10.1678H249.401V14.6618H243.773V23.7758C243.773 24.7838 243.983 25.4838 244.403 25.8758C244.851 26.2398 245.607 26.4218 246.671 26.4218H249.275V30.9998H245.621ZM256.515 6.93377C255.535 6.93377 254.723 6.63977 254.079 6.05177C253.463 5.46377 253.155 4.72177 253.155 3.82577C253.155 2.92977 253.463 2.20177 254.079 1.64177C254.723 1.05377 255.535 0.759766 256.515 0.759766C257.495 0.759766 258.293 1.05377 258.909 1.64177C259.553 2.20177 259.875 2.92977 259.875 3.82577C259.875 4.72177 259.553 5.46377 258.909 6.05177C258.293 6.63977 257.495 6.93377 256.515 6.93377ZM253.827 30.9998V10.1678H259.203V30.9998H253.827ZM274.41 31.5038C272.394 31.5038 270.574 31.0418 268.95 30.1178C267.354 29.1938 266.08 27.9198 265.128 26.2958C264.204 24.6438 263.742 22.7398 263.742 20.5838C263.742 18.4278 264.218 16.5378 265.17 14.9138C266.122 13.2618 267.396 11.9738 268.992 11.0498C270.616 10.1258 272.436 9.66377 274.452 9.66377C276.44 9.66377 278.232 10.1258 279.828 11.0498C281.452 11.9738 282.726 13.2618 283.65 14.9138C284.602 16.5378 285.078 18.4278 285.078 20.5838C285.078 22.7398 284.602 24.6438 283.65 26.2958C282.726 27.9198 281.452 29.1938 279.828 30.1178C278.204 31.0418 276.398 31.5038 274.41 31.5038ZM274.41 26.8418C275.81 26.8418 277.028 26.3238 278.064 25.2878C279.1 24.2238 279.618 22.6558 279.618 20.5838C279.618 18.5118 279.1 16.9578 278.064 15.9218C277.028 14.8578 275.824 14.3258 274.452 14.3258C273.024 14.3258 271.792 14.8578 270.756 15.9218C269.748 16.9578 269.244 18.5118 269.244 20.5838C269.244 22.6558 269.748 24.2238 270.756 25.2878C271.792 26.3238 273.01 26.8418 274.41 26.8418ZM289.485 30.9998V10.1678H294.231L294.651 13.6958C295.295 12.4638 296.219 11.4838 297.423 10.7558C298.655 10.0278 300.097 9.66377 301.749 9.66377C304.325 9.66377 306.327 10.4758 307.755 12.0998C309.183 13.7238 309.897 16.1038 309.897 19.2398V30.9998H304.521V19.7438C304.521 17.9518 304.157 16.5798 303.429 15.6278C302.701 14.6758 301.567 14.1998 300.027 14.1998C298.515 14.1998 297.269 14.7318 296.289 15.7958C295.337 16.8598 294.861 18.3438 294.861 20.2478V30.9998H289.485Z" fill="white"/>
</g>
<defs>
<clipPath id="clip0_464_1074">
<rect width="310" height="32" fill="white"/>
</clipPath>
</defs>
</svg>
