<svg width="536" height="41" viewBox="0 0 536 41" fill="none" xmlns="http://www.w3.org/2000/svg">
<g clip-path="url(#clip0_464_1076)">
<path d="M0.889603 30.9998V1.59977H11.7676C14.1196 1.59977 16.0656 1.99177 17.6056 2.77577C19.1456 3.55977 20.2936 4.63777 21.0496 6.00977C21.8056 7.38177 22.1836 8.92177 22.1836 10.6298C22.1836 12.2538 21.8196 13.7518 21.0916 15.1238C20.3636 16.4678 19.2296 17.5598 17.6896 18.3998C16.1496 19.2118 14.1756 19.6178 11.7676 19.6178H6.2656V30.9998H0.889603ZM6.2656 15.2498H11.4316C13.3076 15.2498 14.6516 14.8438 15.4636 14.0318C16.3036 13.1918 16.7236 12.0578 16.7236 10.6298C16.7236 9.17377 16.3036 8.03977 15.4636 7.22777C14.6516 6.38777 13.3076 5.96777 11.4316 5.96777H6.2656V15.2498ZM34.9309 31.5038C32.8309 31.5038 30.9689 31.0558 29.3449 30.1598C27.7209 29.2638 26.4469 28.0038 25.5229 26.3798C24.5989 24.7558 24.1369 22.8798 24.1369 20.7518C24.1369 18.5958 24.5849 16.6778 25.4809 14.9978C26.4049 13.3178 27.6649 12.0158 29.2609 11.0918C30.8849 10.1398 32.7889 9.66377 34.9729 9.66377C37.0169 9.66377 38.8229 10.1118 40.3909 11.0078C41.9589 11.9038 43.1769 13.1358 44.0449 14.7038C44.9409 16.2438 45.3889 17.9658 45.3889 19.8698C45.3889 20.1778 45.3749 20.4998 45.3469 20.8358C45.3469 21.1718 45.3329 21.5218 45.3049 21.8858H29.4709C29.5829 23.5098 30.1429 24.7838 31.1509 25.7078C32.1869 26.6318 33.4329 27.0938 34.8889 27.0938C35.9809 27.0938 36.8909 26.8558 37.6189 26.3798C38.3749 25.8758 38.9349 25.2318 39.2989 24.4478H44.7589C44.3669 25.7638 43.7089 26.9678 42.7849 28.0598C41.8889 29.1238 40.7689 29.9638 39.4249 30.5798C38.1089 31.1958 36.6109 31.5038 34.9309 31.5038ZM34.9729 14.0318C33.6569 14.0318 32.4949 14.4098 31.4869 15.1658C30.4789 15.8938 29.8349 17.0138 29.5549 18.5258H39.9289C39.8449 17.1538 39.3409 16.0618 38.4169 15.2498C37.4929 14.4378 36.3449 14.0318 34.9729 14.0318ZM59.5065 31.5038C57.4905 31.5038 55.6705 31.0418 54.0465 30.1178C52.4505 29.1938 51.1765 27.9198 50.2245 26.2958C49.3005 24.6438 48.8385 22.7398 48.8385 20.5838C48.8385 18.4278 49.3145 16.5378 50.2665 14.9138C51.2185 13.2618 52.4925 11.9738 54.0885 11.0498C55.7125 10.1258 57.5325 9.66377 59.5485 9.66377C61.5365 9.66377 63.3285 10.1258 64.9245 11.0498C66.5485 11.9738 67.8225 13.2618 68.7465 14.9138C69.6985 16.5378 70.1745 18.4278 70.1745 20.5838C70.1745 22.7398 69.6985 24.6438 68.7465 26.2958C67.8225 27.9198 66.5485 29.1938 64.9245 30.1178C63.3005 31.0418 61.4945 31.5038 59.5065 31.5038ZM59.5065 26.8418C60.9065 26.8418 62.1245 26.3238 63.1605 25.2878C64.1965 24.2238 64.7145 22.6558 64.7145 20.5838C64.7145 18.5118 64.1965 16.9578 63.1605 15.9218C62.1245 14.8578 60.9205 14.3258 59.5485 14.3258C58.1205 14.3258 56.8885 14.8578 55.8525 15.9218C54.8445 16.9578 54.3405 18.5118 54.3405 20.5838C54.3405 22.6558 54.8445 24.2238 55.8525 25.2878C56.8885 26.3238 58.1065 26.8418 59.5065 26.8418ZM74.5812 40.2398V10.1678H79.3692L79.9572 13.1498C80.6292 12.2258 81.5112 11.4138 82.6032 10.7138C83.7232 10.0138 85.1652 9.66377 86.9292 9.66377C88.8892 9.66377 90.6392 10.1398 92.1792 11.0918C93.7192 12.0438 94.9372 13.3458 95.8332 14.9978C96.7292 16.6498 97.1772 18.5258 97.1772 20.6258C97.1772 22.7258 96.7292 24.6018 95.8332 26.2538C94.9372 27.8778 93.7192 29.1658 92.1792 30.1178C90.6392 31.0418 88.8892 31.5038 86.9292 31.5038C85.3612 31.5038 83.9892 31.2098 82.8132 30.6218C81.6372 30.0338 80.6852 29.2078 79.9572 28.1438V40.2398H74.5812ZM85.7952 26.7998C87.5032 26.7998 88.9172 26.2258 90.0372 25.0778C91.1572 23.9298 91.7172 22.4458 91.7172 20.6258C91.7172 18.8058 91.1572 17.3078 90.0372 16.1318C88.9172 14.9558 87.5032 14.3678 85.7952 14.3678C84.0592 14.3678 82.6312 14.9558 81.5112 16.1318C80.4192 17.2798 79.8732 18.7638 79.8732 20.5838C79.8732 22.4038 80.4192 23.9018 81.5112 25.0778C82.6312 26.2258 84.0592 26.7998 85.7952 26.7998ZM101.58 30.9998V0.759766H106.956V30.9998H101.58ZM122.171 31.5038C120.071 31.5038 118.209 31.0558 116.585 30.1598C114.961 29.2638 113.687 28.0038 112.763 26.3798C111.839 24.7558 111.377 22.8798 111.377 20.7518C111.377 18.5958 111.825 16.6778 112.721 14.9978C113.645 13.3178 114.905 12.0158 116.501 11.0918C118.125 10.1398 120.029 9.66377 122.213 9.66377C124.257 9.66377 126.063 10.1118 127.631 11.0078C129.199 11.9038 130.417 13.1358 131.285 14.7038C132.181 16.2438 132.629 17.9658 132.629 19.8698C132.629 20.1778 132.615 20.4998 132.587 20.8358C132.587 21.1718 132.573 21.5218 132.545 21.8858H116.711C116.823 23.5098 117.383 24.7838 118.391 25.7078C119.427 26.6318 120.673 27.0938 122.129 27.0938C123.221 27.0938 124.131 26.8558 124.859 26.3798C125.615 25.8758 126.175 25.2318 126.539 24.4478H131.999C131.607 25.7638 130.949 26.9678 130.025 28.0598C129.129 29.1238 128.009 29.9638 126.665 30.5798C125.349 31.1958 123.851 31.5038 122.171 31.5038ZM122.213 14.0318C120.897 14.0318 119.735 14.4098 118.727 15.1658C117.719 15.8938 117.075 17.0138 116.795 18.5258H127.169C127.085 17.1538 126.581 16.0618 125.657 15.2498C124.733 14.4378 123.585 14.0318 122.213 14.0318ZM146.358 30.9998V10.1678H151.104L151.566 12.9818C152.238 11.9738 153.12 11.1758 154.212 10.5878C155.332 9.97177 156.62 9.66377 158.076 9.66377C161.296 9.66377 163.578 10.9098 164.922 13.4018C165.678 12.2538 166.686 11.3438 167.946 10.6718C169.234 9.99977 170.634 9.66377 172.146 9.66377C174.862 9.66377 176.948 10.4758 178.404 12.0998C179.86 13.7238 180.588 16.1038 180.588 19.2398V30.9998H175.212V19.7438C175.212 17.9518 174.862 16.5798 174.162 15.6278C173.49 14.6758 172.44 14.1998 171.012 14.1998C169.556 14.1998 168.38 14.7318 167.484 15.7958C166.616 16.8598 166.182 18.3438 166.182 20.2478V30.9998H160.806V19.7438C160.806 17.9518 160.456 16.5798 159.756 15.6278C159.056 14.6758 157.978 14.1998 156.522 14.1998C155.094 14.1998 153.932 14.7318 153.036 15.7958C152.168 16.8598 151.734 18.3438 151.734 20.2478V30.9998H146.358ZM192.474 31.5038C190.682 31.5038 189.212 31.2238 188.064 30.6638C186.916 30.0758 186.062 29.3058 185.502 28.3538C184.942 27.4018 184.662 26.3518 184.662 25.2038C184.662 23.2718 185.418 21.7038 186.93 20.4998C188.442 19.2958 190.71 18.6938 193.734 18.6938H199.026V18.1898C199.026 16.7618 198.62 15.7118 197.808 15.0398C196.996 14.3678 195.988 14.0318 194.784 14.0318C193.692 14.0318 192.74 14.2978 191.928 14.8298C191.116 15.3338 190.612 16.0898 190.416 17.0978H185.166C185.306 15.5858 185.81 14.2698 186.678 13.1498C187.574 12.0298 188.722 11.1758 190.122 10.5878C191.522 9.97177 193.09 9.66377 194.826 9.66377C197.794 9.66377 200.132 10.4058 201.84 11.8898C203.548 13.3738 204.402 15.4738 204.402 18.1898V30.9998H199.824L199.32 27.6398C198.704 28.7598 197.836 29.6838 196.716 30.4118C195.624 31.1398 194.21 31.5038 192.474 31.5038ZM193.692 27.3038C195.232 27.3038 196.422 26.7998 197.262 25.7918C198.13 24.7838 198.676 23.5378 198.9 22.0538H194.322C192.894 22.0538 191.872 22.3198 191.256 22.8518C190.64 23.3558 190.332 23.9858 190.332 24.7418C190.332 25.5538 190.64 26.1838 191.256 26.6318C191.872 27.0798 192.684 27.3038 193.692 27.3038ZM209.132 30.9998V0.759766H214.508V18.6098L221.9 10.1678H228.284L219.758 19.6598L229.67 30.9998H222.95L214.508 20.5418V30.9998H209.132ZM235.501 6.93377C234.521 6.93377 233.709 6.63977 233.065 6.05177C232.449 5.46377 232.141 4.72177 232.141 3.82577C232.141 2.92977 232.449 2.20177 233.065 1.64177C233.709 1.05377 234.521 0.759766 235.501 0.759766C236.481 0.759766 237.279 1.05377 237.895 1.64177C238.539 2.20177 238.861 2.92977 238.861 3.82577C238.861 4.72177 238.539 5.46377 237.895 6.05177C237.279 6.63977 236.481 6.93377 235.501 6.93377ZM232.813 30.9998V10.1678H238.189V30.9998H232.813ZM243.401 30.9998V10.1678H248.147L248.567 13.6958C249.211 12.4638 250.135 11.4838 251.339 10.7558C252.571 10.0278 254.013 9.66377 255.665 9.66377C258.241 9.66377 260.243 10.4758 261.671 12.0998C263.099 13.7238 263.813 16.1038 263.813 19.2398V30.9998H258.437V19.7438C258.437 17.9518 258.073 16.5798 257.345 15.6278C256.617 14.6758 255.483 14.1998 253.943 14.1998C252.431 14.1998 251.185 14.7318 250.205 15.7958C249.253 16.8598 248.777 18.3438 248.777 20.2478V30.9998H243.401ZM277.373 24.7838C276.365 24.7838 275.427 24.6718 274.559 24.4478L273.005 26.0018C273.481 26.2538 274.125 26.4638 274.937 26.6318C275.749 26.7998 277.065 26.9678 278.885 27.1358C281.657 27.3878 283.673 28.0458 284.933 29.1098C286.193 30.1738 286.823 31.6438 286.823 33.5198C286.823 34.7518 286.487 35.9138 285.815 37.0058C285.143 38.1258 284.107 39.0218 282.707 39.6938C281.307 40.3938 279.515 40.7438 277.331 40.7438C274.363 40.7438 271.969 40.1838 270.149 39.0638C268.329 37.9718 267.419 36.3198 267.419 34.1078C267.419 32.2318 268.329 30.6078 270.149 29.2358C269.589 28.9838 269.099 28.7178 268.679 28.4378C268.287 28.1578 267.937 27.8638 267.629 27.5558V26.5898L271.283 22.7258C269.659 21.2978 268.847 19.4638 268.847 17.2238C268.847 15.8238 269.183 14.5498 269.855 13.4018C270.555 12.2538 271.535 11.3438 272.795 10.6718C274.055 9.99977 275.581 9.66377 277.373 9.66377C278.549 9.66377 279.641 9.83177 280.649 10.1678H288.545V13.4438L284.975 13.6958C285.535 14.7598 285.815 15.9358 285.815 17.2238C285.815 18.6238 285.479 19.8978 284.807 21.0458C284.135 22.1938 283.155 23.1038 281.867 23.7758C280.607 24.4478 279.109 24.7838 277.373 24.7838ZM277.373 20.6678C278.465 20.6678 279.361 20.3738 280.061 19.7858C280.789 19.1978 281.153 18.3578 281.153 17.2658C281.153 16.1738 280.789 15.3338 280.061 14.7458C279.361 14.1578 278.465 13.8638 277.373 13.8638C276.225 13.8638 275.301 14.1578 274.601 14.7458C273.901 15.3338 273.551 16.1738 273.551 17.2658C273.551 18.3578 273.901 19.1978 274.601 19.7858C275.301 20.3738 276.225 20.6678 277.373 20.6678ZM272.333 33.5618C272.333 34.5978 272.809 35.3678 273.761 35.8718C274.741 36.4038 275.931 36.6698 277.331 36.6698C278.675 36.6698 279.767 36.3898 280.607 35.8298C281.447 35.2978 281.867 34.5698 281.867 33.6458C281.867 32.8898 281.587 32.2598 281.027 31.7558C280.495 31.2518 279.417 30.9438 277.793 30.8318C276.645 30.7478 275.581 30.6218 274.601 30.4538C273.789 30.9018 273.201 31.3918 272.837 31.9238C272.501 32.4558 272.333 33.0018 272.333 33.5618ZM305.747 30.9998L299.657 10.1678H304.991L308.603 25.1618L312.803 10.1678H318.767L322.967 25.1618L326.621 10.1678H331.955L325.823 30.9998H320.237L315.785 15.4178L311.333 30.9998H305.747ZM344.331 31.5038C342.231 31.5038 340.369 31.0558 338.745 30.1598C337.121 29.2638 335.847 28.0038 334.923 26.3798C333.999 24.7558 333.537 22.8798 333.537 20.7518C333.537 18.5958 333.985 16.6778 334.881 14.9978C335.805 13.3178 337.065 12.0158 338.661 11.0918C340.285 10.1398 342.189 9.66377 344.373 9.66377C346.417 9.66377 348.223 10.1118 349.791 11.0078C351.359 11.9038 352.577 13.1358 353.445 14.7038C354.341 16.2438 354.789 17.9658 354.789 19.8698C354.789 20.1778 354.775 20.4998 354.747 20.8358C354.747 21.1718 354.733 21.5218 354.705 21.8858H338.871C338.983 23.5098 339.543 24.7838 340.551 25.7078C341.587 26.6318 342.833 27.0938 344.289 27.0938C345.381 27.0938 346.291 26.8558 347.019 26.3798C347.775 25.8758 348.335 25.2318 348.699 24.4478H354.159C353.767 25.7638 353.109 26.9678 352.185 28.0598C351.289 29.1238 350.169 29.9638 348.825 30.5798C347.509 31.1958 346.011 31.5038 344.331 31.5038ZM344.373 14.0318C343.057 14.0318 341.895 14.4098 340.887 15.1658C339.879 15.8938 339.235 17.0138 338.955 18.5258H349.329C349.245 17.1538 348.741 16.0618 347.817 15.2498C346.893 14.4378 345.745 14.0318 344.373 14.0318ZM371.258 31.5038C369.69 31.5038 368.318 31.2098 367.142 30.6218C365.966 30.0338 365.014 29.2078 364.286 28.1438L363.698 30.9998H358.91V0.759766H364.286V13.1498C364.958 12.2258 365.84 11.4138 366.932 10.7138C368.052 10.0138 369.494 9.66377 371.258 9.66377C373.218 9.66377 374.968 10.1398 376.508 11.0918C378.048 12.0438 379.266 13.3458 380.162 14.9978C381.058 16.6498 381.506 18.5258 381.506 20.6258C381.506 22.7258 381.058 24.6018 380.162 26.2538C379.266 27.8778 378.048 29.1658 376.508 30.1178C374.968 31.0418 373.218 31.5038 371.258 31.5038ZM370.124 26.7998C371.832 26.7998 373.246 26.2258 374.366 25.0778C375.486 23.9298 376.046 22.4458 376.046 20.6258C376.046 18.8058 375.486 17.3078 374.366 16.1318C373.246 14.9558 371.832 14.3678 370.124 14.3678C368.388 14.3678 366.96 14.9558 365.84 16.1318C364.748 17.2798 364.202 18.7638 364.202 20.5838C364.202 22.4038 364.748 23.9018 365.84 25.0778C366.96 26.2258 368.388 26.7998 370.124 26.7998ZM396.115 31.5038C393.987 31.5038 392.111 31.0418 390.487 30.1178C388.863 29.1938 387.575 27.9058 386.623 26.2538C385.699 24.6018 385.237 22.7118 385.237 20.5838C385.237 18.4558 385.699 16.5658 386.623 14.9138C387.575 13.2618 388.863 11.9738 390.487 11.0498C392.111 10.1258 393.987 9.66377 396.115 9.66377C398.775 9.66377 401.015 10.3638 402.835 11.7638C404.655 13.1358 405.817 15.0398 406.321 17.4758H400.651C400.371 16.4678 399.811 15.6838 398.971 15.1238C398.159 14.5358 397.193 14.2418 396.073 14.2418C394.589 14.2418 393.329 14.8018 392.293 15.9218C391.257 17.0418 390.739 18.5958 390.739 20.5838C390.739 22.5718 391.257 24.1258 392.293 25.2458C393.329 26.3658 394.589 26.9258 396.073 26.9258C397.193 26.9258 398.159 26.6458 398.971 26.0858C399.811 25.5258 400.371 24.7278 400.651 23.6918H406.321C405.817 26.0438 404.655 27.9338 402.835 29.3618C401.015 30.7898 398.775 31.5038 396.115 31.5038ZM410.693 30.9998V10.1678H415.481L415.985 14.0738C416.741 12.7298 417.763 11.6658 419.051 10.8818C420.367 10.0698 421.907 9.66377 423.671 9.66377V15.3338H422.159C420.983 15.3338 419.933 15.5158 419.009 15.8798C418.085 16.2438 417.357 16.8738 416.825 17.7698C416.321 18.6658 416.069 19.9118 416.069 21.5078V30.9998H410.693ZM434.757 31.5038C432.153 31.5038 430.137 30.6918 428.709 29.0678C427.309 27.4438 426.609 25.0638 426.609 21.9278V10.1678H431.943V21.4238C431.943 23.2158 432.307 24.5878 433.035 25.5398C433.763 26.4918 434.911 26.9678 436.479 26.9678C437.963 26.9678 439.181 26.4358 440.133 25.3718C441.113 24.3078 441.603 22.8238 441.603 20.9198V10.1678H446.979V30.9998H442.233L441.813 27.4718C441.169 28.7038 440.231 29.6838 438.999 30.4118C437.795 31.1398 436.381 31.5038 434.757 31.5038ZM452.098 30.9998V10.1678H456.844L457.306 12.9818C457.978 11.9738 458.86 11.1758 459.952 10.5878C461.072 9.97177 462.36 9.66377 463.816 9.66377C467.036 9.66377 469.318 10.9098 470.662 13.4018C471.418 12.2538 472.426 11.3438 473.686 10.6718C474.974 9.99977 476.374 9.66377 477.886 9.66377C480.602 9.66377 482.688 10.4758 484.144 12.0998C485.6 13.7238 486.328 16.1038 486.328 19.2398V30.9998H480.952V19.7438C480.952 17.9518 480.602 16.5798 479.902 15.6278C479.23 14.6758 478.18 14.1998 476.752 14.1998C475.296 14.1998 474.12 14.7318 473.224 15.7958C472.356 16.8598 471.922 18.3438 471.922 20.2478V30.9998H466.546V19.7438C466.546 17.9518 466.196 16.5798 465.496 15.6278C464.796 14.6758 463.718 14.1998 462.262 14.1998C460.834 14.1998 459.672 14.7318 458.776 15.7958C457.908 16.8598 457.474 18.3438 457.474 20.2478V30.9998H452.098ZM503.38 31.5038C501.812 31.5038 500.44 31.2098 499.264 30.6218C498.088 30.0338 497.136 29.2078 496.408 28.1438L495.82 30.9998H491.032V0.759766H496.408V13.1498C497.08 12.2258 497.962 11.4138 499.054 10.7138C500.174 10.0138 501.616 9.66377 503.38 9.66377C505.34 9.66377 507.09 10.1398 508.63 11.0918C510.17 12.0438 511.388 13.3458 512.284 14.9978C513.18 16.6498 513.628 18.5258 513.628 20.6258C513.628 22.7258 513.18 24.6018 512.284 26.2538C511.388 27.8778 510.17 29.1658 508.63 30.1178C507.09 31.0418 505.34 31.5038 503.38 31.5038ZM502.246 26.7998C503.954 26.7998 505.368 26.2258 506.488 25.0778C507.608 23.9298 508.168 22.4458 508.168 20.6258C508.168 18.8058 507.608 17.3078 506.488 16.1318C505.368 14.9558 503.954 14.3678 502.246 14.3678C500.51 14.3678 499.082 14.9558 497.962 16.1318C496.87 17.2798 496.324 18.7638 496.324 20.5838C496.324 22.4038 496.87 23.9018 497.962 25.0778C499.082 26.2258 500.51 26.7998 502.246 26.7998ZM526.64 31.5038C524.792 31.5038 523.168 31.2098 521.768 30.6218C520.368 30.0058 519.248 29.1658 518.408 28.1018C517.568 27.0378 517.064 25.8058 516.896 24.4058H522.314C522.482 25.2178 522.93 25.9178 523.658 26.5058C524.414 27.0658 525.38 27.3458 526.556 27.3458C527.732 27.3458 528.586 27.1078 529.118 26.6318C529.678 26.1558 529.958 25.6098 529.958 24.9938C529.958 24.0978 529.566 23.4958 528.782 23.1878C527.998 22.8518 526.906 22.5298 525.506 22.2218C524.61 22.0258 523.7 21.7878 522.776 21.5078C521.852 21.2278 520.998 20.8778 520.214 20.4578C519.458 20.0098 518.842 19.4498 518.366 18.7778C517.89 18.0778 517.652 17.2238 517.652 16.2158C517.652 14.3678 518.38 12.8138 519.836 11.5538C521.32 10.2938 523.392 9.66377 526.052 9.66377C528.516 9.66377 530.476 10.2378 531.932 11.3858C533.416 12.5338 534.298 14.1158 534.578 16.1318H529.496C529.188 14.5918 528.026 13.8218 526.01 13.8218C525.002 13.8218 524.218 14.0178 523.658 14.4098C523.126 14.8018 522.86 15.2918 522.86 15.8798C522.86 16.4958 523.266 16.9858 524.078 17.3498C524.89 17.7138 525.968 18.0498 527.312 18.3578C528.768 18.6938 530.098 19.0718 531.302 19.4918C532.534 19.8838 533.514 20.4858 534.242 21.2978C534.97 22.0818 535.334 23.2158 535.334 24.6998C535.362 25.9878 535.026 27.1498 534.326 28.1858C533.626 29.2218 532.618 30.0338 531.302 30.6218C529.986 31.2098 528.432 31.5038 526.64 31.5038Z" fill="white"/>
</g>
<defs>
<clipPath id="clip0_464_1076">
<rect width="536" height="41" fill="white"/>
</clipPath>
</defs>
</svg>
