<svg width="119" height="40" viewBox="0 0 119 40" fill="none" xmlns="http://www.w3.org/2000/svg">
<rect x="1" y="1" width="117" height="38" rx="19" stroke="#EBEAED" stroke-width="2"/>
<path d="M24.2539 25.192C23.4325 25.192 22.7125 25.048 22.0939 24.76C21.4752 24.472 20.9899 24.0613 20.6379 23.528C20.2965 22.9947 20.1205 22.36 20.1099 21.624H21.9019C21.9125 22.2213 22.1205 22.728 22.5259 23.144C22.9312 23.56 23.5019 23.768 24.2379 23.768C24.8885 23.768 25.3952 23.6133 25.7579 23.304C26.1312 22.984 26.3179 22.5787 26.3179 22.088C26.3179 21.6933 26.2272 21.3733 26.0459 21.128C25.8752 20.8827 25.6352 20.68 25.3259 20.52C25.0272 20.36 24.6805 20.216 24.2859 20.088C23.8912 19.96 23.4752 19.8213 23.0379 19.672C22.1739 19.384 21.5232 19.0107 21.0859 18.552C20.6592 18.0933 20.4459 17.4907 20.4459 16.744C20.4352 16.1147 20.5792 15.5653 20.8779 15.096C21.1872 14.6267 21.6139 14.264 22.1579 14.008C22.7125 13.7413 23.3579 13.608 24.0939 13.608C24.8192 13.608 25.4539 13.7413 25.9979 14.008C26.5525 14.2747 26.9845 14.648 27.2939 15.128C27.6032 15.5973 27.7632 16.1467 27.7739 16.776H25.9819C25.9819 16.488 25.9072 16.216 25.7579 15.96C25.6085 15.6933 25.3899 15.4747 25.1019 15.304C24.8139 15.1333 24.4619 15.048 24.0459 15.048C23.5125 15.0373 23.0699 15.1707 22.7179 15.448C22.3765 15.7253 22.2059 16.1093 22.2059 16.6C22.2059 17.0373 22.3339 17.3733 22.5899 17.608C22.8459 17.8427 23.1979 18.04 23.6459 18.2C24.0939 18.3493 24.6059 18.5253 25.1819 18.728C25.7365 18.9093 26.2325 19.128 26.6699 19.384C27.1072 19.64 27.4539 19.976 27.7099 20.392C27.9765 20.808 28.1099 21.336 28.1099 21.976C28.1099 22.5413 27.9659 23.0693 27.6779 23.56C27.3899 24.04 26.9579 24.4347 26.3819 24.744C25.8059 25.0427 25.0965 25.192 24.2539 25.192ZM29.9001 25V13.48H31.5961V18.344C31.8628 17.8853 32.2308 17.528 32.7001 17.272C33.1801 17.0053 33.7081 16.872 34.2841 16.872C35.2335 16.872 35.9801 17.1707 36.5241 17.768C37.0681 18.3653 37.3401 19.256 37.3401 20.44V25H35.6601V20.616C35.6601 19.08 35.0468 18.312 33.8201 18.312C33.1801 18.312 32.6468 18.536 32.2201 18.984C31.8041 19.432 31.5961 20.072 31.5961 20.904V25H29.9001ZM42.0256 25.192C41.3536 25.192 40.799 25.08 40.3616 24.856C39.9243 24.632 39.599 24.3387 39.3856 23.976C39.1723 23.6027 39.0656 23.1973 39.0656 22.76C39.0656 21.992 39.3643 21.384 39.9616 20.936C40.559 20.488 41.4123 20.264 42.5216 20.264H44.6016V20.12C44.6016 19.5013 44.431 19.0373 44.0896 18.728C43.759 18.4187 43.327 18.264 42.7936 18.264C42.3243 18.264 41.9136 18.3813 41.5616 18.616C41.2203 18.84 41.0123 19.176 40.9376 19.624H39.2416C39.295 19.048 39.487 18.5573 39.8176 18.152C40.159 17.736 40.5856 17.4213 41.0976 17.208C41.6203 16.984 42.191 16.872 42.8096 16.872C43.919 16.872 44.7776 17.1653 45.3856 17.752C45.9936 18.328 46.2976 19.1173 46.2976 20.12V25H44.8256L44.6816 23.64C44.4576 24.0773 44.1323 24.4453 43.7056 24.744C43.279 25.0427 42.719 25.192 42.0256 25.192ZM42.3616 23.816C42.8203 23.816 43.2043 23.7093 43.5136 23.496C43.8336 23.272 44.079 22.9787 44.2496 22.616C44.431 22.2533 44.543 21.8533 44.5856 21.416H42.6976C42.0256 21.416 41.5456 21.5333 41.2576 21.768C40.9803 22.0027 40.8416 22.296 40.8416 22.648C40.8416 23.0107 40.975 23.2987 41.2416 23.512C41.519 23.7147 41.8923 23.816 42.3616 23.816ZM48.2751 25V17.064H49.7951L49.9391 18.568C50.2165 18.0453 50.6005 17.6347 51.0911 17.336C51.5925 17.0267 52.1951 16.872 52.8991 16.872V18.648H52.4351C51.9658 18.648 51.5445 18.728 51.1711 18.888C50.8085 19.0373 50.5151 19.2987 50.2911 19.672C50.0778 20.0347 49.9711 20.5413 49.9711 21.192V25H48.2751ZM57.8465 25.192C57.0678 25.192 56.3745 25.0213 55.7665 24.68C55.1692 24.328 54.6998 23.8427 54.3585 23.224C54.0172 22.6053 53.8465 21.8853 53.8465 21.064C53.8465 20.232 54.0118 19.5013 54.3425 18.872C54.6838 18.2427 55.1532 17.752 55.7505 17.4C56.3585 17.048 57.0625 16.872 57.8625 16.872C58.6412 16.872 59.3185 17.048 59.8945 17.4C60.4705 17.7413 60.9185 18.2 61.2385 18.776C61.5585 19.352 61.7185 19.9867 61.7185 20.68C61.7185 20.7867 61.7132 20.904 61.7025 21.032C61.7025 21.1493 61.6972 21.2827 61.6865 21.432H55.5105C55.5638 22.2 55.8145 22.7867 56.2625 23.192C56.7212 23.5867 57.2492 23.784 57.8465 23.784C58.3265 23.784 58.7265 23.6773 59.0465 23.464C59.3772 23.24 59.6225 22.9413 59.7825 22.568H61.4785C61.2652 23.3147 60.8385 23.9387 60.1985 24.44C59.5692 24.9413 58.7852 25.192 57.8465 25.192ZM57.8465 18.264C57.2812 18.264 56.7798 18.4347 56.3425 18.776C55.9052 19.1067 55.6385 19.608 55.5425 20.28H60.0225C59.9905 19.6613 59.7718 19.1707 59.3665 18.808C58.9612 18.4453 58.4545 18.264 57.8465 18.264ZM71.2215 25.192C70.4642 25.192 69.7815 25.0213 69.1735 24.68C68.5762 24.328 68.1015 23.8427 67.7495 23.224C67.3975 22.5947 67.2215 21.864 67.2215 21.032C67.2215 20.2 67.3975 19.4747 67.7495 18.856C68.1122 18.2267 68.5975 17.7413 69.2055 17.4C69.8135 17.048 70.4908 16.872 71.2375 16.872C71.9948 16.872 72.6722 17.048 73.2695 17.4C73.8775 17.7413 74.3575 18.2267 74.7095 18.856C75.0722 19.4747 75.2535 20.2 75.2535 21.032C75.2535 21.864 75.0722 22.5947 74.7095 23.224C74.3575 23.8427 73.8775 24.328 73.2695 24.68C72.6615 25.0213 71.9788 25.192 71.2215 25.192ZM71.2215 23.736C71.6268 23.736 72.0002 23.6347 72.3415 23.432C72.6935 23.2293 72.9762 22.9307 73.1895 22.536C73.4028 22.1307 73.5095 21.6293 73.5095 21.032C73.5095 20.4347 73.4028 19.9387 73.1895 19.544C72.9868 19.1387 72.7095 18.8347 72.3575 18.632C72.0162 18.4293 71.6428 18.328 71.2375 18.328C70.8322 18.328 70.4535 18.4293 70.1015 18.632C69.7602 18.8347 69.4828 19.1387 69.2695 19.544C69.0562 19.9387 68.9495 20.4347 68.9495 21.032C68.9495 21.6293 69.0562 22.1307 69.2695 22.536C69.4828 22.9307 69.7602 23.2293 70.1015 23.432C70.4428 23.6347 70.8162 23.736 71.2215 23.736ZM77.0876 25V17.064H78.5916L78.7196 18.456C78.965 17.9653 79.3223 17.5813 79.7916 17.304C80.2716 17.016 80.821 16.872 81.4396 16.872C82.3996 16.872 83.1516 17.1707 83.6956 17.768C84.2503 18.3653 84.5276 19.256 84.5276 20.44V25H82.8476V20.616C82.8476 19.08 82.2183 18.312 80.9596 18.312C80.3303 18.312 79.8076 18.536 79.3916 18.984C78.9863 19.432 78.7836 20.072 78.7836 20.904V25H77.0876ZM90.0604 25L93.5164 19.336L90.0284 13.8H91.9644L94.6044 17.992L97.0684 13.8H98.9724L95.5004 19.416L99.0204 25H97.0844L94.4284 20.776L91.9644 25H90.0604Z" fill="#1E0E62"/>
</svg>
