<svg width="182" height="40" viewBox="0 0 182 40" fill="none" xmlns="http://www.w3.org/2000/svg">
<rect x="1" y="1" width="180" height="38" rx="19" stroke="#EBEAED" stroke-width="2"/>
<path d="M23.957 25.192C23.1357 25.192 22.4157 25.048 21.797 24.76C21.1783 24.472 20.693 24.0613 20.341 23.528C19.9997 22.9947 19.8237 22.36 19.813 21.624H21.605C21.6157 22.2213 21.8237 22.728 22.229 23.144C22.6343 23.56 23.205 23.768 23.941 23.768C24.5917 23.768 25.0983 23.6133 25.461 23.304C25.8343 22.984 26.021 22.5787 26.021 22.088C26.021 21.6933 25.9303 21.3733 25.749 21.128C25.5783 20.8827 25.3383 20.68 25.029 20.52C24.7303 20.36 24.3837 20.216 23.989 20.088C23.5943 19.96 23.1783 19.8213 22.741 19.672C21.877 19.384 21.2263 19.0107 20.789 18.552C20.3623 18.0933 20.149 17.4907 20.149 16.744C20.1383 16.1147 20.2823 15.5653 20.581 15.096C20.8903 14.6267 21.317 14.264 21.861 14.008C22.4157 13.7413 23.061 13.608 23.797 13.608C24.5223 13.608 25.157 13.7413 25.701 14.008C26.2557 14.2747 26.6877 14.648 26.997 15.128C27.3063 15.5973 27.4663 16.1467 27.477 16.776H25.685C25.685 16.488 25.6103 16.216 25.461 15.96C25.3117 15.6933 25.093 15.4747 24.805 15.304C24.517 15.1333 24.165 15.048 23.749 15.048C23.2157 15.0373 22.773 15.1707 22.421 15.448C22.0797 15.7253 21.909 16.1093 21.909 16.6C21.909 17.0373 22.037 17.3733 22.293 17.608C22.549 17.8427 22.901 18.04 23.349 18.2C23.797 18.3493 24.309 18.5253 24.885 18.728C25.4397 18.9093 25.9357 19.128 26.373 19.384C26.8103 19.64 27.157 19.976 27.413 20.392C27.6797 20.808 27.813 21.336 27.813 21.976C27.813 22.5413 27.669 23.0693 27.381 23.56C27.093 24.04 26.661 24.4347 26.085 24.744C25.509 25.0427 24.7997 25.192 23.957 25.192ZM29.6033 25V13.48H31.2993V18.344C31.5659 17.8853 31.9339 17.528 32.4033 17.272C32.8833 17.0053 33.4113 16.872 33.9873 16.872C34.9366 16.872 35.6833 17.1707 36.2273 17.768C36.7713 18.3653 37.0433 19.256 37.0433 20.44V25H35.3633V20.616C35.3633 19.08 34.7499 18.312 33.5233 18.312C32.8833 18.312 32.3499 18.536 31.9233 18.984C31.5073 19.432 31.2993 20.072 31.2993 20.904V25H29.6033ZM41.7288 25.192C41.0568 25.192 40.5021 25.08 40.0648 24.856C39.6274 24.632 39.3021 24.3387 39.0888 23.976C38.8754 23.6027 38.7688 23.1973 38.7688 22.76C38.7688 21.992 39.0674 21.384 39.6648 20.936C40.2621 20.488 41.1154 20.264 42.2248 20.264H44.3048V20.12C44.3048 19.5013 44.1341 19.0373 43.7928 18.728C43.4621 18.4187 43.0301 18.264 42.4968 18.264C42.0274 18.264 41.6168 18.3813 41.2648 18.616C40.9234 18.84 40.7154 19.176 40.6408 19.624H38.9448C38.9981 19.048 39.1901 18.5573 39.5208 18.152C39.8621 17.736 40.2888 17.4213 40.8008 17.208C41.3234 16.984 41.8941 16.872 42.5128 16.872C43.6221 16.872 44.4808 17.1653 45.0888 17.752C45.6968 18.328 46.0008 19.1173 46.0008 20.12V25H44.5288L44.3848 23.64C44.1608 24.0773 43.8354 24.4453 43.4088 24.744C42.9821 25.0427 42.4221 25.192 41.7288 25.192ZM42.0648 23.816C42.5234 23.816 42.9074 23.7093 43.2168 23.496C43.5368 23.272 43.7821 22.9787 43.9528 22.616C44.1341 22.2533 44.2461 21.8533 44.2888 21.416H42.4008C41.7288 21.416 41.2488 21.5333 40.9608 21.768C40.6834 22.0027 40.5448 22.296 40.5448 22.648C40.5448 23.0107 40.6781 23.2987 40.9448 23.512C41.2221 23.7147 41.5954 23.816 42.0648 23.816ZM47.9783 25V17.064H49.4983L49.6423 18.568C49.9196 18.0453 50.3036 17.6347 50.7943 17.336C51.2956 17.0267 51.8983 16.872 52.6023 16.872V18.648H52.1383C51.6689 18.648 51.2476 18.728 50.8743 18.888C50.5116 19.0373 50.2183 19.2987 49.9943 19.672C49.7809 20.0347 49.6743 20.5413 49.6743 21.192V25H47.9783ZM57.5496 25.192C56.771 25.192 56.0776 25.0213 55.4696 24.68C54.8723 24.328 54.403 23.8427 54.0616 23.224C53.7203 22.6053 53.5496 21.8853 53.5496 21.064C53.5496 20.232 53.715 19.5013 54.0456 18.872C54.387 18.2427 54.8563 17.752 55.4536 17.4C56.0616 17.048 56.7656 16.872 57.5656 16.872C58.3443 16.872 59.0216 17.048 59.5976 17.4C60.1736 17.7413 60.6216 18.2 60.9416 18.776C61.2616 19.352 61.4216 19.9867 61.4216 20.68C61.4216 20.7867 61.4163 20.904 61.4056 21.032C61.4056 21.1493 61.4003 21.2827 61.3896 21.432H55.2136C55.267 22.2 55.5176 22.7867 55.9656 23.192C56.4243 23.5867 56.9523 23.784 57.5496 23.784C58.0296 23.784 58.4296 23.6773 58.7496 23.464C59.0803 23.24 59.3256 22.9413 59.4856 22.568H61.1816C60.9683 23.3147 60.5416 23.9387 59.9016 24.44C59.2723 24.9413 58.4883 25.192 57.5496 25.192ZM57.5496 18.264C56.9843 18.264 56.483 18.4347 56.0456 18.776C55.6083 19.1067 55.3416 19.608 55.2456 20.28H59.7256C59.6936 19.6613 59.475 19.1707 59.0696 18.808C58.6643 18.4453 58.1576 18.264 57.5496 18.264ZM70.9246 25.192C70.1673 25.192 69.4846 25.0213 68.8766 24.68C68.2793 24.328 67.8046 23.8427 67.4526 23.224C67.1006 22.5947 66.9246 21.864 66.9246 21.032C66.9246 20.2 67.1006 19.4747 67.4526 18.856C67.8153 18.2267 68.3006 17.7413 68.9086 17.4C69.5166 17.048 70.194 16.872 70.9406 16.872C71.698 16.872 72.3753 17.048 72.9726 17.4C73.5806 17.7413 74.0606 18.2267 74.4126 18.856C74.7753 19.4747 74.9566 20.2 74.9566 21.032C74.9566 21.864 74.7753 22.5947 74.4126 23.224C74.0606 23.8427 73.5806 24.328 72.9726 24.68C72.3646 25.0213 71.682 25.192 70.9246 25.192ZM70.9246 23.736C71.33 23.736 71.7033 23.6347 72.0446 23.432C72.3966 23.2293 72.6793 22.9307 72.8926 22.536C73.106 22.1307 73.2126 21.6293 73.2126 21.032C73.2126 20.4347 73.106 19.9387 72.8926 19.544C72.69 19.1387 72.4126 18.8347 72.0606 18.632C71.7193 18.4293 71.346 18.328 70.9406 18.328C70.5353 18.328 70.1566 18.4293 69.8046 18.632C69.4633 18.8347 69.186 19.1387 68.9726 19.544C68.7593 19.9387 68.6526 20.4347 68.6526 21.032C68.6526 21.6293 68.7593 22.1307 68.9726 22.536C69.186 22.9307 69.4633 23.2293 69.8046 23.432C70.146 23.6347 70.5193 23.736 70.9246 23.736ZM76.7908 25V17.064H78.2948L78.4228 18.456C78.6681 17.9653 79.0254 17.5813 79.4948 17.304C79.9748 17.016 80.5241 16.872 81.1428 16.872C82.1028 16.872 82.8548 17.1707 83.3988 17.768C83.9534 18.3653 84.2308 19.256 84.2308 20.44V25H82.5508V20.616C82.5508 19.08 81.9214 18.312 80.6628 18.312C80.0334 18.312 79.5108 18.536 79.0948 18.984C78.6894 19.432 78.4868 20.072 78.4868 20.904V25H76.7908ZM90.3235 25V13.8H97.3475V15.176H92.0195V18.712H96.4355V20.072H92.0195V25H90.3235ZM101.026 25.192C100.354 25.192 99.799 25.08 99.3616 24.856C98.9243 24.632 98.599 24.3387 98.3856 23.976C98.1723 23.6027 98.0656 23.1973 98.0656 22.76C98.0656 21.992 98.3643 21.384 98.9616 20.936C99.559 20.488 100.412 20.264 101.522 20.264H103.602V20.12C103.602 19.5013 103.431 19.0373 103.09 18.728C102.759 18.4187 102.327 18.264 101.794 18.264C101.324 18.264 100.914 18.3813 100.562 18.616C100.22 18.84 100.012 19.176 99.9376 19.624H98.2416C98.295 19.048 98.487 18.5573 98.8176 18.152C99.159 17.736 99.5856 17.4213 100.098 17.208C100.62 16.984 101.191 16.872 101.81 16.872C102.919 16.872 103.778 17.1653 104.386 17.752C104.994 18.328 105.298 19.1173 105.298 20.12V25H103.826L103.682 23.64C103.458 24.0773 103.132 24.4453 102.706 24.744C102.279 25.0427 101.719 25.192 101.026 25.192ZM101.362 23.816C101.82 23.816 102.204 23.7093 102.514 23.496C102.834 23.272 103.079 22.9787 103.25 22.616C103.431 22.2533 103.543 21.8533 103.586 21.416H101.698C101.026 21.416 100.546 21.5333 100.258 21.768C99.9803 22.0027 99.8416 22.296 99.8416 22.648C99.8416 23.0107 99.975 23.2987 100.242 23.512C100.519 23.7147 100.892 23.816 101.362 23.816ZM111.035 25.192C110.256 25.192 109.558 25.016 108.939 24.664C108.331 24.312 107.851 23.8267 107.499 23.208C107.158 22.5787 106.987 21.8533 106.987 21.032C106.987 20.2107 107.158 19.4907 107.499 18.872C107.851 18.2427 108.331 17.752 108.939 17.4C109.558 17.048 110.256 16.872 111.035 16.872C112.016 16.872 112.838 17.128 113.499 17.64C114.171 18.152 114.603 18.8453 114.795 19.72H113.019C112.912 19.2827 112.678 18.9413 112.315 18.696C111.952 18.4507 111.526 18.328 111.035 18.328C110.619 18.328 110.235 18.4347 109.883 18.648C109.531 18.8507 109.248 19.1547 109.035 19.56C108.822 19.9547 108.715 20.4453 108.715 21.032C108.715 21.6187 108.822 22.1147 109.035 22.52C109.248 22.9147 109.531 23.2187 109.883 23.432C110.235 23.6453 110.619 23.752 111.035 23.752C111.526 23.752 111.952 23.6293 112.315 23.384C112.678 23.1387 112.912 22.792 113.019 22.344H114.795C114.614 23.1973 114.187 23.8853 113.515 24.408C112.843 24.9307 112.016 25.192 111.035 25.192ZM120.347 25.192C119.568 25.192 118.875 25.0213 118.267 24.68C117.669 24.328 117.2 23.8427 116.859 23.224C116.517 22.6053 116.347 21.8853 116.347 21.064C116.347 20.232 116.512 19.5013 116.843 18.872C117.184 18.2427 117.653 17.752 118.251 17.4C118.859 17.048 119.563 16.872 120.363 16.872C121.141 16.872 121.819 17.048 122.395 17.4C122.971 17.7413 123.419 18.2 123.739 18.776C124.059 19.352 124.219 19.9867 124.219 20.68C124.219 20.7867 124.213 20.904 124.203 21.032C124.203 21.1493 124.197 21.2827 124.187 21.432H118.011C118.064 22.2 118.315 22.7867 118.763 23.192C119.221 23.5867 119.749 23.784 120.347 23.784C120.827 23.784 121.227 23.6773 121.547 23.464C121.877 23.24 122.123 22.9413 122.283 22.568H123.979C123.765 23.3147 123.339 23.9387 122.699 24.44C122.069 24.9413 121.285 25.192 120.347 25.192ZM120.347 18.264C119.781 18.264 119.28 18.4347 118.843 18.776C118.405 19.1067 118.139 19.608 118.043 20.28H122.523C122.491 19.6613 122.272 19.1707 121.867 18.808C121.461 18.4453 120.955 18.264 120.347 18.264ZM130.442 25.192C129.824 25.192 129.274 25.0693 128.794 24.824C128.325 24.5787 127.952 24.232 127.674 23.784L127.498 25H125.978V13.48H127.674V18.296C127.93 17.9227 128.282 17.592 128.73 17.304C129.178 17.016 129.754 16.872 130.458 16.872C131.226 16.872 131.904 17.0533 132.49 17.416C133.077 17.7787 133.536 18.2747 133.866 18.904C134.208 19.5333 134.378 20.248 134.378 21.048C134.378 21.848 134.208 22.5627 133.866 23.192C133.536 23.8107 133.077 24.3013 132.49 24.664C131.904 25.016 131.221 25.192 130.442 25.192ZM130.154 23.72C130.88 23.72 131.477 23.4747 131.946 22.984C132.416 22.4827 132.65 21.832 132.65 21.032C132.65 20.5093 132.544 20.0453 132.33 19.64C132.117 19.2347 131.824 18.92 131.45 18.696C131.077 18.4613 130.645 18.344 130.154 18.344C129.429 18.344 128.832 18.5947 128.362 19.096C127.904 19.5973 127.674 20.2427 127.674 21.032C127.674 21.832 127.904 22.4827 128.362 22.984C128.832 23.4747 129.429 23.72 130.154 23.72ZM139.925 25.192C139.167 25.192 138.485 25.0213 137.877 24.68C137.279 24.328 136.805 23.8427 136.453 23.224C136.101 22.5947 135.925 21.864 135.925 21.032C135.925 20.2 136.101 19.4747 136.453 18.856C136.815 18.2267 137.301 17.7413 137.909 17.4C138.517 17.048 139.194 16.872 139.941 16.872C140.698 16.872 141.375 17.048 141.973 17.4C142.581 17.7413 143.061 18.2267 143.413 18.856C143.775 19.4747 143.957 20.2 143.957 21.032C143.957 21.864 143.775 22.5947 143.413 23.224C143.061 23.8427 142.581 24.328 141.973 24.68C141.365 25.0213 140.682 25.192 139.925 25.192ZM139.925 23.736C140.33 23.736 140.703 23.6347 141.045 23.432C141.397 23.2293 141.679 22.9307 141.893 22.536C142.106 22.1307 142.213 21.6293 142.213 21.032C142.213 20.4347 142.106 19.9387 141.893 19.544C141.69 19.1387 141.413 18.8347 141.061 18.632C140.719 18.4293 140.346 18.328 139.941 18.328C139.535 18.328 139.157 18.4293 138.805 18.632C138.463 18.8347 138.186 19.1387 137.973 19.544C137.759 19.9387 137.653 20.4347 137.653 21.032C137.653 21.6293 137.759 22.1307 137.973 22.536C138.186 22.9307 138.463 23.2293 138.805 23.432C139.146 23.6347 139.519 23.736 139.925 23.736ZM149.503 25.192C148.745 25.192 148.063 25.0213 147.455 24.68C146.857 24.328 146.383 23.8427 146.031 23.224C145.679 22.5947 145.503 21.864 145.503 21.032C145.503 20.2 145.679 19.4747 146.031 18.856C146.393 18.2267 146.879 17.7413 147.487 17.4C148.095 17.048 148.772 16.872 149.519 16.872C150.276 16.872 150.953 17.048 151.551 17.4C152.159 17.7413 152.639 18.2267 152.991 18.856C153.353 19.4747 153.535 20.2 153.535 21.032C153.535 21.864 153.353 22.5947 152.991 23.224C152.639 23.8427 152.159 24.328 151.551 24.68C150.943 25.0213 150.26 25.192 149.503 25.192ZM149.503 23.736C149.908 23.736 150.281 23.6347 150.623 23.432C150.975 23.2293 151.257 22.9307 151.471 22.536C151.684 22.1307 151.791 21.6293 151.791 21.032C151.791 20.4347 151.684 19.9387 151.471 19.544C151.268 19.1387 150.991 18.8347 150.639 18.632C150.297 18.4293 149.924 18.328 149.519 18.328C149.113 18.328 148.735 18.4293 148.383 18.632C148.041 18.8347 147.764 19.1387 147.551 19.544C147.337 19.9387 147.231 20.4347 147.231 21.032C147.231 21.6293 147.337 22.1307 147.551 22.536C147.764 22.9307 148.041 23.2293 148.383 23.432C148.724 23.6347 149.097 23.736 149.503 23.736ZM155.369 25V13.48H157.065V20.344L160.105 17.064H162.137L158.761 20.664L162.633 25H160.489L157.065 20.936V25H155.369Z" fill="#1E0E62"/>
</svg>
