<svg width="173" height="40" viewBox="0 0 173 40" fill="none" xmlns="http://www.w3.org/2000/svg">
<rect x="1" y="1" width="171" height="38" rx="19" stroke="#EBEAED" stroke-width="2"/>
<path d="M24.1679 25.192C23.3466 25.192 22.6266 25.048 22.0079 24.76C21.3893 24.472 20.9039 24.0613 20.5519 23.528C20.2106 22.9947 20.0346 22.36 20.0239 21.624H21.8159C21.8266 22.2213 22.0346 22.728 22.4399 23.144C22.8453 23.56 23.4159 23.768 24.1519 23.768C24.8026 23.768 25.3093 23.6133 25.6719 23.304C26.0453 22.984 26.2319 22.5787 26.2319 22.088C26.2319 21.6933 26.1413 21.3733 25.9599 21.128C25.7893 20.8827 25.5493 20.68 25.2399 20.52C24.9413 20.36 24.5946 20.216 24.1999 20.088C23.8053 19.96 23.3893 19.8213 22.9519 19.672C22.0879 19.384 21.4373 19.0107 20.9999 18.552C20.5733 18.0933 20.3599 17.4907 20.3599 16.744C20.3493 16.1147 20.4933 15.5653 20.7919 15.096C21.1013 14.6267 21.5279 14.264 22.0719 14.008C22.6266 13.7413 23.2719 13.608 24.0079 13.608C24.7333 13.608 25.3679 13.7413 25.9119 14.008C26.4666 14.2747 26.8986 14.648 27.2079 15.128C27.5173 15.5973 27.6773 16.1467 27.6879 16.776H25.8959C25.8959 16.488 25.8213 16.216 25.6719 15.96C25.5226 15.6933 25.3039 15.4747 25.0159 15.304C24.7279 15.1333 24.3759 15.048 23.9599 15.048C23.4266 15.0373 22.9839 15.1707 22.6319 15.448C22.2906 15.7253 22.1199 16.1093 22.1199 16.6C22.1199 17.0373 22.2479 17.3733 22.5039 17.608C22.7599 17.8427 23.1119 18.04 23.5599 18.2C24.0079 18.3493 24.5199 18.5253 25.0959 18.728C25.6506 18.9093 26.1466 19.128 26.5839 19.384C27.0213 19.64 27.3679 19.976 27.6239 20.392C27.8906 20.808 28.0239 21.336 28.0239 21.976C28.0239 22.5413 27.8799 23.0693 27.5919 23.56C27.3039 24.04 26.8719 24.4347 26.2959 24.744C25.7199 25.0427 25.0106 25.192 24.1679 25.192ZM33.5262 25.192C32.7475 25.192 32.0542 25.0213 31.4462 24.68C30.8489 24.328 30.3795 23.8427 30.0382 23.224C29.6969 22.6053 29.5262 21.8853 29.5262 21.064C29.5262 20.232 29.6915 19.5013 30.0222 18.872C30.3635 18.2427 30.8329 17.752 31.4302 17.4C32.0382 17.048 32.7422 16.872 33.5422 16.872C34.3209 16.872 34.9982 17.048 35.5742 17.4C36.1502 17.7413 36.5982 18.2 36.9182 18.776C37.2382 19.352 37.3982 19.9867 37.3982 20.68C37.3982 20.7867 37.3929 20.904 37.3822 21.032C37.3822 21.1493 37.3769 21.2827 37.3662 21.432H31.1902C31.2435 22.2 31.4942 22.7867 31.9422 23.192C32.4009 23.5867 32.9289 23.784 33.5262 23.784C34.0062 23.784 34.4062 23.6773 34.7262 23.464C35.0569 23.24 35.3022 22.9413 35.4622 22.568H37.1582C36.9449 23.3147 36.5182 23.9387 35.8782 24.44C35.2489 24.9413 34.4649 25.192 33.5262 25.192ZM33.5262 18.264C32.9609 18.264 32.4595 18.4347 32.0222 18.776C31.5849 19.1067 31.3182 19.608 31.2222 20.28H35.7022C35.6702 19.6613 35.4515 19.1707 35.0462 18.808C34.6409 18.4453 34.1342 18.264 33.5262 18.264ZM39.1579 25V17.064H40.6619L40.7899 18.456C41.0353 17.9653 41.3926 17.5813 41.8619 17.304C42.3419 17.016 42.8913 16.872 43.5099 16.872C44.4699 16.872 45.2219 17.1707 45.7659 17.768C46.3206 18.3653 46.5979 19.256 46.5979 20.44V25H44.9179V20.616C44.9179 19.08 44.2886 18.312 43.0299 18.312C42.4006 18.312 41.8779 18.536 41.4619 18.984C41.0566 19.432 40.8539 20.072 40.8539 20.904V25H39.1579ZM52.2114 25.192C51.4434 25.192 50.7661 25.0107 50.1794 24.648C49.5928 24.2853 49.1341 23.7893 48.8034 23.16C48.4728 22.5307 48.3074 21.816 48.3074 21.016C48.3074 20.216 48.4728 19.5067 48.8034 18.888C49.1341 18.2587 49.5928 17.768 50.1794 17.416C50.7768 17.0533 51.4594 16.872 52.2274 16.872C52.8568 16.872 53.4061 16.9947 53.8754 17.24C54.3554 17.4853 54.7288 17.832 54.9954 18.28V13.48H56.6914V25H55.1714L54.9954 23.768C54.7394 24.1413 54.3874 24.472 53.9394 24.76C53.4914 25.048 52.9154 25.192 52.2114 25.192ZM52.5154 23.72C53.2408 23.72 53.8328 23.4693 54.2914 22.968C54.7608 22.4667 54.9954 21.8213 54.9954 21.032C54.9954 20.232 54.7608 19.5867 54.2914 19.096C53.8328 18.5947 53.2408 18.344 52.5154 18.344C51.7901 18.344 51.1928 18.5947 50.7234 19.096C50.2541 19.5867 50.0194 20.232 50.0194 21.032C50.0194 21.5547 50.1261 22.0187 50.3394 22.424C50.5528 22.8293 50.8461 23.1493 51.2194 23.384C51.6034 23.608 52.0354 23.72 52.5154 23.72ZM66.5731 25.192C65.8157 25.192 65.1331 25.0213 64.5251 24.68C63.9277 24.328 63.4531 23.8427 63.1011 23.224C62.7491 22.5947 62.5731 21.864 62.5731 21.032C62.5731 20.2 62.7491 19.4747 63.1011 18.856C63.4637 18.2267 63.9491 17.7413 64.5571 17.4C65.1651 17.048 65.8424 16.872 66.5891 16.872C67.3464 16.872 68.0237 17.048 68.6211 17.4C69.2291 17.7413 69.7091 18.2267 70.0611 18.856C70.4237 19.4747 70.6051 20.2 70.6051 21.032C70.6051 21.864 70.4237 22.5947 70.0611 23.224C69.7091 23.8427 69.2291 24.328 68.6211 24.68C68.0131 25.0213 67.3304 25.192 66.5731 25.192ZM66.5731 23.736C66.9784 23.736 67.3517 23.6347 67.6931 23.432C68.0451 23.2293 68.3277 22.9307 68.5411 22.536C68.7544 22.1307 68.8611 21.6293 68.8611 21.032C68.8611 20.4347 68.7544 19.9387 68.5411 19.544C68.3384 19.1387 68.0611 18.8347 67.7091 18.632C67.3677 18.4293 66.9944 18.328 66.5891 18.328C66.1837 18.328 65.8051 18.4293 65.4531 18.632C65.1117 18.8347 64.8344 19.1387 64.6211 19.544C64.4077 19.9387 64.3011 20.4347 64.3011 21.032C64.3011 21.6293 64.4077 22.1307 64.6211 22.536C64.8344 22.9307 65.1117 23.2293 65.4531 23.432C65.7944 23.6347 66.1677 23.736 66.5731 23.736ZM72.4392 25V17.064H73.9432L74.0712 18.456C74.3165 17.9653 74.6739 17.5813 75.1432 17.304C75.6232 17.016 76.1725 16.872 76.7912 16.872C77.7512 16.872 78.5032 17.1707 79.0472 17.768C79.6019 18.3653 79.8792 19.256 79.8792 20.44V25H78.1992V20.616C78.1992 19.08 77.5699 18.312 76.3112 18.312C75.6819 18.312 75.1592 18.536 74.7432 18.984C74.3379 19.432 74.1352 20.072 74.1352 20.904V25H72.4392ZM88.5959 25V15.176H85.2839V13.8H93.5879V15.176H90.2919V25H88.5959ZM97.3856 25.192C96.6069 25.192 95.9136 25.0213 95.3056 24.68C94.7082 24.328 94.2389 23.8427 93.8976 23.224C93.5562 22.6053 93.3856 21.8853 93.3856 21.064C93.3856 20.232 93.5509 19.5013 93.8816 18.872C94.2229 18.2427 94.6922 17.752 95.2896 17.4C95.8976 17.048 96.6016 16.872 97.4016 16.872C98.1802 16.872 98.8576 17.048 99.4336 17.4C100.01 17.7413 100.458 18.2 100.778 18.776C101.098 19.352 101.258 19.9867 101.258 20.68C101.258 20.7867 101.252 20.904 101.242 21.032C101.242 21.1493 101.236 21.2827 101.226 21.432H95.0496C95.1029 22.2 95.3536 22.7867 95.8016 23.192C96.2602 23.5867 96.7882 23.784 97.3856 23.784C97.8656 23.784 98.2656 23.6773 98.5856 23.464C98.9162 23.24 99.1616 22.9413 99.3216 22.568H101.018C100.804 23.3147 100.378 23.9387 99.7376 24.44C99.1082 24.9413 98.3242 25.192 97.3856 25.192ZM97.3856 18.264C96.8202 18.264 96.3189 18.4347 95.8816 18.776C95.4442 19.1067 95.1776 19.608 95.0816 20.28H99.5616C99.5296 19.6613 99.3109 19.1707 98.9056 18.808C98.5002 18.4453 97.9936 18.264 97.3856 18.264ZM103.017 25V13.48H104.713V25H103.017ZM110.573 25.192C109.794 25.192 109.101 25.0213 108.493 24.68C107.896 24.328 107.426 23.8427 107.085 23.224C106.744 22.6053 106.573 21.8853 106.573 21.064C106.573 20.232 106.738 19.5013 107.069 18.872C107.41 18.2427 107.88 17.752 108.477 17.4C109.085 17.048 109.789 16.872 110.589 16.872C111.368 16.872 112.045 17.048 112.621 17.4C113.197 17.7413 113.645 18.2 113.965 18.776C114.285 19.352 114.445 19.9867 114.445 20.68C114.445 20.7867 114.44 20.904 114.429 21.032C114.429 21.1493 114.424 21.2827 114.413 21.432H108.237C108.29 22.2 108.541 22.7867 108.989 23.192C109.448 23.5867 109.976 23.784 110.573 23.784C111.053 23.784 111.453 23.6773 111.773 23.464C112.104 23.24 112.349 22.9413 112.509 22.568H114.205C113.992 23.3147 113.565 23.9387 112.925 24.44C112.296 24.9413 111.512 25.192 110.573 25.192ZM110.573 18.264C110.008 18.264 109.506 18.4347 109.069 18.776C108.632 19.1067 108.365 19.608 108.269 20.28H112.749C112.717 19.6613 112.498 19.1707 112.093 18.808C111.688 18.4453 111.181 18.264 110.573 18.264ZM119.343 22.568C118.927 22.568 118.543 22.52 118.191 22.424L117.503 23.096C117.621 23.1707 117.765 23.2347 117.935 23.288C118.106 23.3413 118.346 23.3893 118.655 23.432C118.965 23.4747 119.386 23.5173 119.919 23.56C120.975 23.656 121.738 23.912 122.207 24.328C122.677 24.7333 122.911 25.2773 122.911 25.96C122.911 26.4293 122.783 26.872 122.527 27.288C122.282 27.7147 121.893 28.056 121.359 28.312C120.837 28.5787 120.165 28.712 119.343 28.712C118.234 28.712 117.333 28.4987 116.639 28.072C115.957 27.656 115.615 27.0213 115.615 26.168C115.615 25.8373 115.701 25.5067 115.871 25.176C116.053 24.856 116.335 24.552 116.719 24.264C116.495 24.168 116.298 24.0667 116.127 23.96C115.967 23.8427 115.823 23.7253 115.695 23.608V23.224L117.071 21.816C116.453 21.2827 116.143 20.584 116.143 19.72C116.143 19.1973 116.266 18.7227 116.511 18.296C116.767 17.8587 117.135 17.512 117.615 17.256C118.095 17 118.671 16.872 119.343 16.872C119.791 16.872 120.207 16.936 120.591 17.064H123.551V18.184L122.143 18.264C122.399 18.7013 122.527 19.1867 122.527 19.72C122.527 20.2533 122.399 20.7333 122.143 21.16C121.898 21.5867 121.535 21.928 121.055 22.184C120.586 22.44 120.015 22.568 119.343 22.568ZM119.343 21.24C119.834 21.24 120.229 21.112 120.527 20.856C120.837 20.5893 120.991 20.216 120.991 19.736C120.991 19.2453 120.837 18.872 120.527 18.616C120.229 18.36 119.834 18.232 119.343 18.232C118.842 18.232 118.437 18.36 118.127 18.616C117.829 18.872 117.679 19.2453 117.679 19.736C117.679 20.216 117.829 20.5893 118.127 20.856C118.437 21.112 118.842 21.24 119.343 21.24ZM117.215 26.008C117.215 26.4667 117.418 26.808 117.823 27.032C118.229 27.2667 118.735 27.384 119.343 27.384C119.93 27.384 120.405 27.256 120.767 27C121.13 26.7547 121.311 26.424 121.311 26.008C121.311 25.6987 121.189 25.432 120.943 25.208C120.698 24.9947 120.234 24.8613 119.551 24.808C119.039 24.776 118.586 24.728 118.191 24.664C117.818 24.8667 117.562 25.0853 117.423 25.32C117.285 25.5547 117.215 25.784 117.215 26.008ZM125.064 25V17.064H126.584L126.728 18.568C127.006 18.0453 127.39 17.6347 127.88 17.336C128.382 17.0267 128.984 16.872 129.688 16.872V18.648H129.224C128.755 18.648 128.334 18.728 127.96 18.888C127.598 19.0373 127.304 19.2987 127.08 19.672C126.867 20.0347 126.76 20.5413 126.76 21.192V25H125.064ZM133.83 25.192C133.158 25.192 132.604 25.08 132.166 24.856C131.729 24.632 131.404 24.3387 131.19 23.976C130.977 23.6027 130.87 23.1973 130.87 22.76C130.87 21.992 131.169 21.384 131.766 20.936C132.364 20.488 133.217 20.264 134.326 20.264H136.406V20.12C136.406 19.5013 136.236 19.0373 135.894 18.728C135.564 18.4187 135.132 18.264 134.598 18.264C134.129 18.264 133.718 18.3813 133.366 18.616C133.025 18.84 132.817 19.176 132.742 19.624H131.046C131.1 19.048 131.292 18.5573 131.622 18.152C131.964 17.736 132.39 17.4213 132.902 17.208C133.425 16.984 133.996 16.872 134.614 16.872C135.724 16.872 136.582 17.1653 137.19 17.752C137.798 18.328 138.102 19.1173 138.102 20.12V25H136.63L136.486 23.64C136.262 24.0773 135.937 24.4453 135.51 24.744C135.084 25.0427 134.524 25.192 133.83 25.192ZM134.166 23.816C134.625 23.816 135.009 23.7093 135.318 23.496C135.638 23.272 135.884 22.9787 136.054 22.616C136.236 22.2533 136.348 21.8533 136.39 21.416H134.502C133.83 21.416 133.35 21.5333 133.062 21.768C132.785 22.0027 132.646 22.296 132.646 22.648C132.646 23.0107 132.78 23.2987 133.046 23.512C133.324 23.7147 133.697 23.816 134.166 23.816ZM140.08 25V17.064H141.584L141.728 18.184C141.984 17.7787 142.32 17.4587 142.736 17.224C143.162 16.9893 143.653 16.872 144.208 16.872C145.466 16.872 146.341 17.368 146.832 18.36C147.12 17.9013 147.504 17.5387 147.984 17.272C148.474 17.0053 149.002 16.872 149.568 16.872C150.56 16.872 151.338 17.1707 151.904 17.768C152.469 18.3653 152.752 19.256 152.752 20.44V25H151.056V20.616C151.056 19.08 150.469 18.312 149.296 18.312C148.698 18.312 148.208 18.536 147.824 18.984C147.45 19.432 147.264 20.072 147.264 20.904V25H145.568V20.616C145.568 19.08 144.976 18.312 143.792 18.312C143.205 18.312 142.72 18.536 142.336 18.984C141.962 19.432 141.776 20.072 141.776 20.904V25H140.08Z" fill="#1E0E62"/>
</svg>
