<svg width="228" height="50" viewBox="0 0 228 50" fill="none" xmlns="http://www.w3.org/2000/svg">
<rect width="228" height="50" rx="25" fill="#482BE7"/>
<path d="M37.7241 31.216C36.8001 31.216 35.9901 31.054 35.2941 30.73C34.5981 30.406 34.0521 29.944 33.6561 29.344C33.2721 28.744 33.0741 28.03 33.0621 27.202H35.0781C35.0901 27.874 35.3241 28.444 35.7801 28.912C36.2361 29.38 36.8781 29.614 37.7061 29.614C38.4381 29.614 39.0081 29.44 39.4161 29.092C39.8361 28.732 40.0461 28.276 40.0461 27.724C40.0461 27.28 39.9441 26.92 39.7401 26.644C39.5481 26.368 39.2781 26.14 38.9301 25.96C38.5941 25.78 38.2041 25.618 37.7601 25.474C37.3161 25.33 36.8481 25.174 36.3561 25.006C35.3841 24.682 34.6521 24.262 34.1601 23.746C33.6801 23.23 33.4401 22.552 33.4401 21.712C33.4281 21.004 33.5901 20.386 33.9261 19.858C34.2741 19.33 34.7541 18.922 35.3661 18.634C35.9901 18.334 36.7161 18.184 37.5441 18.184C38.3601 18.184 39.0741 18.334 39.6861 18.634C40.3101 18.934 40.7961 19.354 41.1441 19.894C41.4921 20.422 41.6721 21.04 41.6841 21.748H39.6681C39.6681 21.424 39.5841 21.118 39.4161 20.83C39.2481 20.53 39.0021 20.284 38.6781 20.092C38.3541 19.9 37.9581 19.804 37.4901 19.804C36.8901 19.792 36.3921 19.942 35.9961 20.254C35.6121 20.566 35.4201 20.998 35.4201 21.55C35.4201 22.042 35.5641 22.42 35.8521 22.684C36.1401 22.948 36.5361 23.17 37.0401 23.35C37.5441 23.518 38.1201 23.716 38.7681 23.944C39.3921 24.148 39.9501 24.394 40.4421 24.682C40.9341 24.97 41.3241 25.348 41.6121 25.816C41.9121 26.284 42.0621 26.878 42.0621 27.598C42.0621 28.234 41.9001 28.828 41.5761 29.38C41.2521 29.92 40.7661 30.364 40.1181 30.712C39.4701 31.048 38.6721 31.216 37.7241 31.216ZM45.1561 20.38C44.7961 20.38 44.4961 20.272 44.2561 20.056C44.0281 19.828 43.9141 19.546 43.9141 19.21C43.9141 18.874 44.0281 18.598 44.2561 18.382C44.4961 18.154 44.7961 18.04 45.1561 18.04C45.5161 18.04 45.8101 18.154 46.0381 18.382C46.2781 18.598 46.3981 18.874 46.3981 19.21C46.3981 19.546 46.2781 19.828 46.0381 20.056C45.8101 20.272 45.5161 20.38 45.1561 20.38ZM44.2021 31V22.072H46.1101V31H44.2021ZM52.2829 28.264C51.8149 28.264 51.3829 28.21 50.9869 28.102L50.2129 28.858C50.3449 28.942 50.5069 29.014 50.6989 29.074C50.8909 29.134 51.1609 29.188 51.5089 29.236C51.8569 29.284 52.3309 29.332 52.9309 29.38C54.1189 29.488 54.9769 29.776 55.5049 30.244C56.0329 30.7 56.2969 31.312 56.2969 32.08C56.2969 32.608 56.1529 33.106 55.8649 33.574C55.5889 34.054 55.1509 34.438 54.5509 34.726C53.9629 35.026 53.2069 35.176 52.2829 35.176C51.0349 35.176 50.0209 34.936 49.2409 34.456C48.4729 33.988 48.0889 33.274 48.0889 32.314C48.0889 31.942 48.1849 31.57 48.3769 31.198C48.5809 30.838 48.8989 30.496 49.3309 30.172C49.0789 30.064 48.8569 29.95 48.6649 29.83C48.4849 29.698 48.3229 29.566 48.1789 29.434V29.002L49.7269 27.418C49.0309 26.818 48.6829 26.032 48.6829 25.06C48.6829 24.472 48.8209 23.938 49.0969 23.458C49.3849 22.966 49.7989 22.576 50.3389 22.288C50.8789 22 51.5269 21.856 52.2829 21.856C52.7869 21.856 53.2549 21.928 53.6869 22.072H57.0169V23.332L55.4329 23.422C55.7209 23.914 55.8649 24.46 55.8649 25.06C55.8649 25.66 55.7209 26.2 55.4329 26.68C55.1569 27.16 54.7489 27.544 54.2089 27.832C53.6809 28.12 53.0389 28.264 52.2829 28.264ZM52.2829 26.77C52.8349 26.77 53.2789 26.626 53.6149 26.338C53.9629 26.038 54.1369 25.618 54.1369 25.078C54.1369 24.526 53.9629 24.106 53.6149 23.818C53.2789 23.53 52.8349 23.386 52.2829 23.386C51.7189 23.386 51.2629 23.53 50.9149 23.818C50.5789 24.106 50.4109 24.526 50.4109 25.078C50.4109 25.618 50.5789 26.038 50.9149 26.338C51.2629 26.626 51.7189 26.77 52.2829 26.77ZM49.8889 32.134C49.8889 32.65 50.1169 33.034 50.5729 33.286C51.0289 33.55 51.5989 33.682 52.2829 33.682C52.9429 33.682 53.4769 33.538 53.8849 33.25C54.2929 32.974 54.4969 32.602 54.4969 32.134C54.4969 31.786 54.3589 31.486 54.0829 31.234C53.8069 30.994 53.2849 30.844 52.5169 30.784C51.9409 30.748 51.4309 30.694 50.9869 30.622C50.5669 30.85 50.2789 31.096 50.1229 31.36C49.9669 31.624 49.8889 31.882 49.8889 32.134ZM58.7187 31V22.072H60.4107L60.5547 23.638C60.8307 23.086 61.2327 22.654 61.7607 22.342C62.3007 22.018 62.9187 21.856 63.6147 21.856C64.6947 21.856 65.5407 22.192 66.1527 22.864C66.7767 23.536 67.0887 24.538 67.0887 25.87V31H65.1987V26.068C65.1987 24.34 64.4907 23.476 63.0747 23.476C62.3667 23.476 61.7787 23.728 61.3107 24.232C60.8547 24.736 60.6267 25.456 60.6267 26.392V31H58.7187ZM78.047 31.216C77.195 31.216 76.427 31.024 75.743 30.64C75.071 30.244 74.537 29.698 74.141 29.002C73.745 28.294 73.547 27.472 73.547 26.536C73.547 25.6 73.745 24.784 74.141 24.088C74.549 23.38 75.095 22.834 75.779 22.45C76.463 22.054 77.225 21.856 78.065 21.856C78.917 21.856 79.679 22.054 80.351 22.45C81.035 22.834 81.575 23.38 81.971 24.088C82.379 24.784 82.583 25.6 82.583 26.536C82.583 27.472 82.379 28.294 81.971 29.002C81.575 29.698 81.035 30.244 80.351 30.64C79.667 31.024 78.899 31.216 78.047 31.216ZM78.047 29.578C78.503 29.578 78.923 29.464 79.307 29.236C79.703 29.008 80.021 28.672 80.261 28.228C80.501 27.772 80.621 27.208 80.621 26.536C80.621 25.864 80.501 25.306 80.261 24.862C80.033 24.406 79.721 24.064 79.325 23.836C78.941 23.608 78.521 23.494 78.065 23.494C77.609 23.494 77.183 23.608 76.787 23.836C76.403 24.064 76.091 24.406 75.851 24.862C75.611 25.306 75.491 25.864 75.491 26.536C75.491 27.208 75.611 27.772 75.851 28.228C76.091 28.672 76.403 29.008 76.787 29.236C77.171 29.464 77.591 29.578 78.047 29.578ZM87.9404 31.216C86.8604 31.216 86.0084 30.88 85.3844 30.208C84.7724 29.536 84.4664 28.534 84.4664 27.202V22.072H86.3744V27.004C86.3744 28.732 87.0824 29.596 88.4984 29.596C89.2064 29.596 89.7884 29.344 90.2444 28.84C90.7004 28.336 90.9284 27.616 90.9284 26.68V22.072H92.8364V31H91.1444L91.0004 29.434C90.7244 29.986 90.3164 30.424 89.7764 30.748C89.2484 31.06 88.6364 31.216 87.9404 31.216ZM95.2636 31V22.072H96.9736L97.1356 23.764C97.4476 23.176 97.8796 22.714 98.4316 22.378C98.9956 22.03 99.6736 21.856 100.466 21.856V23.854H99.9436C99.4156 23.854 98.9416 23.944 98.5216 24.124C98.1136 24.292 97.7836 24.586 97.5316 25.006C97.2916 25.414 97.1716 25.984 97.1716 26.716V31H95.2636ZM106.637 31V22.072H108.329L108.473 23.638C108.749 23.086 109.151 22.654 109.679 22.342C110.219 22.018 110.837 21.856 111.533 21.856C112.613 21.856 113.459 22.192 114.071 22.864C114.695 23.536 115.007 24.538 115.007 25.87V31H113.117V26.068C113.117 24.34 112.409 23.476 110.993 23.476C110.285 23.476 109.697 23.728 109.229 24.232C108.773 24.736 108.545 25.456 108.545 26.392V31H106.637ZM121.43 31.216C120.554 31.216 119.774 31.024 119.09 30.64C118.418 30.244 117.89 29.698 117.506 29.002C117.122 28.306 116.93 27.496 116.93 26.572C116.93 25.636 117.116 24.814 117.488 24.106C117.872 23.398 118.4 22.846 119.072 22.45C119.756 22.054 120.548 21.856 121.448 21.856C122.324 21.856 123.086 22.054 123.734 22.45C124.382 22.834 124.886 23.35 125.246 23.998C125.606 24.646 125.786 25.36 125.786 26.14C125.786 26.26 125.78 26.392 125.768 26.536C125.768 26.668 125.762 26.818 125.75 26.986H118.802C118.862 27.85 119.144 28.51 119.648 28.966C120.164 29.41 120.758 29.632 121.43 29.632C121.97 29.632 122.42 29.512 122.78 29.272C123.152 29.02 123.428 28.684 123.608 28.264H125.516C125.276 29.104 124.796 29.806 124.076 30.37C123.368 30.934 122.486 31.216 121.43 31.216ZM121.43 23.422C120.794 23.422 120.23 23.614 119.738 23.998C119.246 24.37 118.946 24.934 118.838 25.69H123.878C123.842 24.994 123.596 24.442 123.14 24.034C122.684 23.626 122.114 23.422 121.43 23.422ZM129.196 31L126.568 22.072H128.476L130.204 28.804L132.148 22.072H134.272L136.216 28.804L137.944 22.072H139.852L137.224 31H135.262L133.21 23.98L131.158 31H129.196ZM144.988 31.216C143.86 31.216 142.93 30.94 142.198 30.388C141.466 29.836 141.046 29.104 140.938 28.192H142.864C142.96 28.6 143.188 28.954 143.548 29.254C143.908 29.542 144.382 29.686 144.97 29.686C145.546 29.686 145.966 29.566 146.23 29.326C146.494 29.086 146.626 28.81 146.626 28.498C146.626 28.042 146.44 27.736 146.068 27.58C145.708 27.412 145.204 27.262 144.556 27.13C144.052 27.022 143.548 26.878 143.044 26.698C142.552 26.518 142.138 26.266 141.802 25.942C141.478 25.606 141.316 25.156 141.316 24.592C141.316 23.812 141.616 23.164 142.216 22.648C142.816 22.12 143.656 21.856 144.736 21.856C145.732 21.856 146.536 22.096 147.148 22.576C147.772 23.056 148.138 23.734 148.246 24.61H146.41C146.35 24.226 146.17 23.926 145.87 23.71C145.582 23.494 145.192 23.386 144.7 23.386C144.22 23.386 143.848 23.488 143.584 23.692C143.32 23.884 143.188 24.136 143.188 24.448C143.188 24.76 143.368 25.006 143.728 25.186C144.1 25.366 144.586 25.528 145.186 25.672C145.786 25.804 146.338 25.96 146.842 26.14C147.358 26.308 147.772 26.56 148.084 26.896C148.396 27.232 148.552 27.724 148.552 28.372C148.564 29.188 148.246 29.866 147.598 30.406C146.962 30.946 146.092 31.216 144.988 31.216ZM150.635 31V18.04H152.543V31H150.635ZM159.135 31.216C158.259 31.216 157.479 31.024 156.795 30.64C156.123 30.244 155.595 29.698 155.211 29.002C154.827 28.306 154.635 27.496 154.635 26.572C154.635 25.636 154.821 24.814 155.193 24.106C155.577 23.398 156.105 22.846 156.777 22.45C157.461 22.054 158.253 21.856 159.153 21.856C160.029 21.856 160.791 22.054 161.439 22.45C162.087 22.834 162.591 23.35 162.951 23.998C163.311 24.646 163.491 25.36 163.491 26.14C163.491 26.26 163.485 26.392 163.473 26.536C163.473 26.668 163.467 26.818 163.455 26.986H156.507C156.567 27.85 156.849 28.51 157.353 28.966C157.869 29.41 158.463 29.632 159.135 29.632C159.675 29.632 160.125 29.512 160.485 29.272C160.857 29.02 161.133 28.684 161.313 28.264H163.221C162.981 29.104 162.501 29.806 161.781 30.37C161.073 30.934 160.191 31.216 159.135 31.216ZM159.135 23.422C158.499 23.422 157.935 23.614 157.443 23.998C156.951 24.37 156.651 24.934 156.543 25.69H161.583C161.547 24.994 161.301 24.442 160.845 24.034C160.389 23.626 159.819 23.422 159.135 23.422ZM168.986 31C168.11 31 167.414 30.79 166.898 30.37C166.382 29.938 166.124 29.176 166.124 28.084V23.674H164.594V22.072H166.124L166.358 19.804H168.032V22.072H170.552V23.674H168.032V28.084C168.032 28.576 168.134 28.918 168.338 29.11C168.554 29.29 168.92 29.38 169.436 29.38H170.462V31H168.986ZM176.263 31C175.387 31 174.691 30.79 174.175 30.37C173.659 29.938 173.401 29.176 173.401 28.084V23.674H171.871V22.072H173.401L173.635 19.804H175.309V22.072H177.829V23.674H175.309V28.084C175.309 28.576 175.411 28.918 175.615 29.11C175.831 29.29 176.197 29.38 176.713 29.38H177.739V31H176.263ZM183.744 31.216C182.868 31.216 182.088 31.024 181.404 30.64C180.732 30.244 180.204 29.698 179.82 29.002C179.436 28.306 179.244 27.496 179.244 26.572C179.244 25.636 179.43 24.814 179.802 24.106C180.186 23.398 180.714 22.846 181.386 22.45C182.07 22.054 182.862 21.856 183.762 21.856C184.638 21.856 185.4 22.054 186.048 22.45C186.696 22.834 187.2 23.35 187.56 23.998C187.92 24.646 188.1 25.36 188.1 26.14C188.1 26.26 188.094 26.392 188.082 26.536C188.082 26.668 188.076 26.818 188.064 26.986H181.116C181.176 27.85 181.458 28.51 181.962 28.966C182.478 29.41 183.072 29.632 183.744 29.632C184.284 29.632 184.734 29.512 185.094 29.272C185.466 29.02 185.742 28.684 185.922 28.264H187.83C187.59 29.104 187.11 29.806 186.39 30.37C185.682 30.934 184.8 31.216 183.744 31.216ZM183.744 23.422C183.108 23.422 182.544 23.614 182.052 23.998C181.56 24.37 181.26 24.934 181.152 25.69H186.192C186.156 24.994 185.91 24.442 185.454 24.034C184.998 23.626 184.428 23.422 183.744 23.422ZM190.08 31V22.072H191.79L191.952 23.764C192.264 23.176 192.696 22.714 193.248 22.378C193.812 22.03 194.49 21.856 195.282 21.856V23.854H194.76C194.232 23.854 193.758 23.944 193.338 24.124C192.93 24.292 192.6 24.586 192.348 25.006C192.108 25.414 191.988 25.984 191.988 26.716V31H190.08Z" fill="white"/>
</svg>
