<svg width="157" height="45" viewBox="0 0 157 45" fill="none" xmlns="http://www.w3.org/2000/svg">
<g clip-path="url(#clip0_464_997)">
<path d="M137 1.125H20C9.50659 1.125 1 10.6949 1 22.5C1 34.3051 9.50659 43.875 20 43.875H137C147.493 43.875 156 34.3051 156 22.5C156 10.6949 147.493 1.125 137 1.125Z" stroke="#EBEAED" stroke-width="2"/>
<path d="M20.5422 28.125V15.525H24.4622C25.3368 15.525 26.0622 15.693 26.6382 16.029C27.2142 16.353 27.6408 16.803 27.9182 17.379C28.2062 17.943 28.3502 18.585 28.3502 19.305C28.3502 19.989 28.2115 20.619 27.9342 21.195C27.6675 21.759 27.2462 22.209 26.6702 22.545C26.0942 22.8811 25.3582 23.049 24.4622 23.049H22.2382V28.125H20.5422ZM22.2382 21.483H24.3822C25.1822 21.483 25.7528 21.291 26.0942 20.907C26.4462 20.511 26.6222 19.977 26.6222 19.305C26.6222 18.609 26.4462 18.069 26.0942 17.685C25.7528 17.289 25.1822 17.091 24.3822 17.091H22.2382V21.483ZM30.9225 17.505C30.6025 17.505 30.3359 17.397 30.1225 17.181C29.9199 16.953 29.8185 16.6711 29.8185 16.335C29.8185 15.999 29.9199 15.723 30.1225 15.507C30.3359 15.279 30.6025 15.165 30.9225 15.165C31.2425 15.165 31.5039 15.279 31.7065 15.507C31.9199 15.723 32.0265 15.999 32.0265 16.335C32.0265 16.6711 31.9199 16.953 31.7065 17.181C31.5039 17.397 31.2425 17.505 30.9225 17.505ZM30.0745 28.125V19.197H31.7705V28.125H30.0745ZM34.0094 28.125V19.197H35.5134L35.6414 20.763C35.8867 20.211 36.2441 19.779 36.7134 19.467C37.1934 19.143 37.7427 18.981 38.3614 18.981C39.3214 18.981 40.0734 19.3171 40.6174 19.989C41.1721 20.661 41.4494 21.663 41.4494 22.995V28.125H39.7694V23.193C39.7694 21.465 39.1401 20.601 37.8814 20.601C37.2521 20.601 36.7294 20.853 36.3134 21.357C35.9081 21.861 35.7054 22.581 35.7054 23.517V28.125H34.0094ZM51.1902 28.341C50.4328 28.341 49.7502 28.149 49.1422 27.765C48.5448 27.369 48.0702 26.8231 47.7182 26.127C47.3662 25.4191 47.1902 24.597 47.1902 23.661C47.1902 22.725 47.3662 21.9091 47.7182 21.213C48.0808 20.5051 48.5662 19.959 49.1742 19.575C49.7822 19.179 50.4595 18.981 51.2062 18.981C51.9635 18.981 52.6408 19.179 53.2382 19.575C53.8462 19.959 54.3262 20.5051 54.6782 21.213C55.0408 21.9091 55.2221 22.725 55.2221 23.661C55.2221 24.597 55.0408 25.4191 54.6782 26.127C54.3262 26.8231 53.8462 27.369 53.2382 27.765C52.6302 28.149 51.9475 28.341 51.1902 28.341ZM51.1902 26.703C51.5955 26.703 51.9688 26.5891 52.3102 26.361C52.6622 26.133 52.9448 25.7971 53.1582 25.353C53.3715 24.8971 53.4782 24.333 53.4782 23.661C53.4782 22.9891 53.3715 22.4311 53.1582 21.987C52.9555 21.5311 52.6782 21.1891 52.3262 20.961C51.9848 20.733 51.6115 20.619 51.2062 20.619C50.8008 20.619 50.4222 20.733 50.0702 20.961C49.7288 21.1891 49.4515 21.5311 49.2382 21.987C49.0248 22.4311 48.9182 22.9891 48.9182 23.661C48.9182 24.333 49.0248 24.8971 49.2382 25.353C49.4515 25.7971 49.7288 26.133 50.0702 26.361C50.4115 26.5891 50.7848 26.703 51.1902 26.703ZM57.0563 28.125V19.197H58.5603L58.6883 20.763C58.9336 20.211 59.2909 19.779 59.7603 19.467C60.2403 19.143 60.7896 18.981 61.4083 18.981C62.3683 18.981 63.1203 19.3171 63.6643 19.989C64.2189 20.661 64.4963 21.663 64.4963 22.995V28.125H62.8163V23.193C62.8163 21.465 62.1869 20.601 60.9283 20.601C60.2989 20.601 59.7763 20.853 59.3603 21.357C58.9549 21.861 58.7523 22.581 58.7523 23.517V28.125H57.0563ZM70.589 28.125V15.525H74.509C75.3837 15.525 76.109 15.693 76.685 16.029C77.261 16.353 77.6877 16.803 77.965 17.379C78.253 17.943 78.397 18.585 78.397 19.305C78.397 19.989 78.2584 20.619 77.981 21.195C77.7144 21.759 77.293 22.209 76.717 22.545C76.141 22.8811 75.405 23.049 74.509 23.049H72.285V28.125H70.589ZM72.285 21.483H74.429C75.229 21.483 75.7997 21.291 76.141 20.907C76.493 20.511 76.669 19.977 76.669 19.305C76.669 18.609 76.493 18.069 76.141 17.685C75.7997 17.289 75.229 17.091 74.429 17.091H72.285V21.483ZM80.9694 17.505C80.6494 17.505 80.3827 17.397 80.1694 17.181C79.9667 16.953 79.8654 16.6711 79.8654 16.335C79.8654 15.999 79.9667 15.723 80.1694 15.507C80.3827 15.279 80.6494 15.165 80.9694 15.165C81.2894 15.165 81.5507 15.279 81.7534 15.507C81.9667 15.723 82.0734 15.999 82.0734 16.335C82.0734 16.6711 81.9667 16.953 81.7534 17.181C81.5507 17.397 81.2894 17.505 80.9694 17.505ZM80.1214 28.125V19.197H81.8174V28.125H80.1214ZM84.0563 28.125V19.197H85.5603L85.6883 20.763C85.9336 20.211 86.2909 19.779 86.7603 19.467C87.2403 19.143 87.7896 18.981 88.4083 18.981C89.3683 18.981 90.1203 19.3171 90.6643 19.989C91.2189 20.661 91.4963 21.663 91.4963 22.995V28.125H89.8163V23.193C89.8163 21.465 89.1869 20.601 87.9283 20.601C87.2989 20.601 86.7763 20.853 86.3603 21.357C85.9549 21.861 85.7523 22.581 85.7523 23.517V28.125H84.0563ZM96.8218 28.125C96.0431 28.125 95.4244 27.915 94.9658 27.495C94.5071 27.063 94.2778 26.3011 94.2778 25.209V20.799H92.9178V19.197H94.2778L94.4858 16.929H95.9738V19.197H98.2138V20.799H95.9738V25.209C95.9738 25.701 96.0644 26.043 96.2458 26.235C96.4378 26.415 96.7631 26.505 97.2218 26.505H98.1338V28.125H96.8218ZM103.472 28.341C102.693 28.341 102 28.149 101.392 27.765C100.794 27.369 100.325 26.8231 99.9834 26.127C99.6421 25.431 99.4714 24.621 99.4714 23.697C99.4714 22.761 99.6367 21.939 99.9674 21.231C100.309 20.5231 100.778 19.971 101.376 19.575C101.984 19.179 102.688 18.981 103.488 18.981C104.266 18.981 104.944 19.179 105.52 19.575C106.096 19.959 106.544 20.475 106.864 21.123C107.184 21.771 107.344 22.4851 107.344 23.265C107.344 23.3851 107.338 23.517 107.328 23.661C107.328 23.793 107.322 23.9431 107.312 24.111H101.136C101.189 24.975 101.44 25.6351 101.888 26.091C102.346 26.5351 102.874 26.757 103.472 26.757C103.952 26.757 104.352 26.637 104.672 26.397C105.002 26.145 105.248 25.809 105.408 25.389H107.104C106.89 26.2291 106.464 26.9311 105.824 27.495C105.194 28.059 104.41 28.341 103.472 28.341ZM103.472 20.547C102.906 20.547 102.405 20.7391 101.968 21.123C101.53 21.4951 101.264 22.059 101.168 22.815H105.648C105.616 22.119 105.397 21.5671 104.992 21.159C104.586 20.751 104.08 20.547 103.472 20.547ZM109.103 28.125V19.197H110.623L110.767 20.889C111.045 20.301 111.429 19.8391 111.919 19.503C112.421 19.1551 113.023 18.981 113.727 18.981V20.979H113.263C112.794 20.979 112.373 21.069 111.999 21.249C111.637 21.417 111.343 21.7111 111.119 22.131C110.906 22.5391 110.799 23.109 110.799 23.841V28.125H109.103ZM118.675 28.341C117.896 28.341 117.203 28.149 116.595 27.765C115.997 27.369 115.528 26.8231 115.187 26.127C114.845 25.431 114.675 24.621 114.675 23.697C114.675 22.761 114.84 21.939 115.171 21.231C115.512 20.5231 115.981 19.971 116.579 19.575C117.187 19.179 117.891 18.981 118.691 18.981C119.469 18.981 120.147 19.179 120.723 19.575C121.299 19.959 121.747 20.475 122.067 21.123C122.387 21.771 122.547 22.4851 122.547 23.265C122.547 23.3851 122.541 23.517 122.531 23.661C122.531 23.793 122.525 23.9431 122.515 24.111H116.339C116.392 24.975 116.643 25.6351 117.091 26.091C117.549 26.5351 118.077 26.757 118.675 26.757C119.155 26.757 119.555 26.637 119.875 26.397C120.205 26.145 120.451 25.809 120.611 25.389H122.307C122.093 26.2291 121.667 26.9311 121.027 27.495C120.397 28.059 119.613 28.341 118.675 28.341ZM118.675 20.547C118.109 20.547 117.608 20.7391 117.171 21.123C116.733 21.4951 116.467 22.059 116.371 22.815H120.851C120.819 22.119 120.6 21.5671 120.195 21.159C119.789 20.751 119.283 20.547 118.675 20.547ZM127.474 28.341C126.472 28.341 125.645 28.0651 124.994 27.513C124.344 26.961 123.97 26.2291 123.874 25.317H125.586C125.672 25.7251 125.874 26.079 126.194 26.379C126.514 26.667 126.936 26.811 127.458 26.811C127.97 26.811 128.344 26.691 128.578 26.451C128.813 26.2111 128.93 25.935 128.93 25.623C128.93 25.1671 128.765 24.8611 128.434 24.705C128.114 24.5371 127.666 24.387 127.09 24.255C126.642 24.147 126.194 24.003 125.746 23.823C125.309 23.643 124.941 23.391 124.642 23.067C124.354 22.731 124.21 22.281 124.21 21.717C124.21 20.9371 124.477 20.2891 125.01 19.773C125.544 19.2451 126.29 18.981 127.25 18.981C128.136 18.981 128.85 19.221 129.394 19.701C129.949 20.1811 130.274 20.859 130.37 21.735H128.738C128.685 21.3511 128.525 21.051 128.258 20.835C128.002 20.619 127.656 20.511 127.218 20.511C126.792 20.511 126.461 20.6131 126.226 20.817C125.992 21.0091 125.874 21.2611 125.874 21.573C125.874 21.885 126.034 22.131 126.354 22.311C126.685 22.491 127.117 22.653 127.65 22.797C128.184 22.929 128.674 23.085 129.122 23.265C129.581 23.433 129.949 23.685 130.226 24.021C130.504 24.3571 130.642 24.849 130.642 25.497C130.653 26.313 130.37 26.991 129.794 27.531C129.229 28.071 128.456 28.341 127.474 28.341ZM135.525 28.125C134.746 28.125 134.128 27.915 133.669 27.495C133.21 27.063 132.981 26.3011 132.981 25.209V20.799H131.621V19.197H132.981L133.189 16.929H134.677V19.197H136.917V20.799H134.677V25.209C134.677 25.701 134.768 26.043 134.949 26.235C135.141 26.415 135.466 26.505 135.925 26.505H136.837V28.125H135.525Z" fill="#7583FF"/>
</g>
<defs>
<clipPath id="clip0_464_997">
<rect width="157" height="45" fill="white"/>
</clipPath>
</defs>
</svg>
