<svg width="158" height="45" viewBox="0 0 158 45" fill="none" xmlns="http://www.w3.org/2000/svg">
<g clip-path="url(#clip0_464_1000)">
<path d="M138 1.125H20C9.50659 1.125 1 10.6949 1 22.5C1 34.3051 9.50659 43.875 20 43.875H138C148.493 43.875 157 34.3051 157 22.5C157 10.6949 148.493 1.125 138 1.125Z" stroke="#EBEAED" stroke-width="2"/>
<path d="M24.0117 28.341C23.1904 28.341 22.4704 28.179 21.8517 27.855C21.233 27.531 20.7477 27.069 20.3957 26.469C20.0544 25.8691 19.8784 25.155 19.8677 24.327H21.6597C21.6704 24.999 21.8784 25.569 22.2837 26.037C22.689 26.505 23.2597 26.739 23.9957 26.739C24.6464 26.739 25.153 26.565 25.5157 26.217C25.889 25.857 26.0757 25.4011 26.0757 24.849C26.0757 24.405 25.985 24.045 25.8037 23.769C25.633 23.4931 25.393 23.265 25.0837 23.085C24.785 22.905 24.4384 22.743 24.0437 22.599C23.649 22.455 23.233 22.299 22.7957 22.131C21.9317 21.807 21.281 21.3871 20.8437 20.871C20.417 20.355 20.2037 19.6771 20.2037 18.837C20.193 18.1291 20.337 17.511 20.6357 16.983C20.945 16.4551 21.3717 16.047 21.9157 15.759C22.4704 15.459 23.1157 15.309 23.8517 15.309C24.577 15.309 25.2117 15.459 25.7557 15.759C26.3104 16.0591 26.7424 16.479 27.0517 17.019C27.361 17.547 27.521 18.1651 27.5317 18.873H25.7397C25.7397 18.549 25.665 18.243 25.5157 17.955C25.3664 17.655 25.1477 17.4091 24.8597 17.217C24.5717 17.025 24.2197 16.929 23.8037 16.929C23.2704 16.917 22.8277 17.0671 22.4757 17.379C22.1344 17.691 21.9637 18.123 21.9637 18.675C21.9637 19.167 22.0917 19.545 22.3477 19.809C22.6037 20.0731 22.9557 20.295 23.4037 20.475C23.8517 20.643 24.3637 20.841 24.9397 21.069C25.4944 21.273 25.9904 21.519 26.4277 21.807C26.865 22.095 27.2117 22.473 27.4677 22.941C27.7344 23.409 27.8677 24.003 27.8677 24.723C27.8677 25.359 27.7237 25.953 27.4357 26.505C27.1477 27.045 26.7157 27.4891 26.1397 27.837C25.5637 28.1731 24.8544 28.341 24.0117 28.341ZM29.6579 28.125V15.165H31.3539V20.637C31.6206 20.121 31.9886 19.719 32.4579 19.431C32.9379 19.131 33.4659 18.981 34.0419 18.981C34.9913 18.981 35.7379 19.3171 36.2819 19.989C36.8259 20.661 37.0979 21.663 37.0979 22.995V28.125H35.4179V23.193C35.4179 21.465 34.8046 20.601 33.5779 20.601C32.9379 20.601 32.4046 20.853 31.9779 21.357C31.5619 21.861 31.3539 22.581 31.3539 23.517V28.125H29.6579ZM41.7834 28.341C41.1114 28.341 40.5568 28.215 40.1194 27.963C39.6821 27.711 39.3568 27.3811 39.1434 26.973C38.9301 26.5531 38.8234 26.097 38.8234 25.605C38.8234 24.741 39.1221 24.057 39.7194 23.553C40.3168 23.049 41.1701 22.797 42.2794 22.797H44.3594V22.635C44.3594 21.939 44.1888 21.417 43.8474 21.069C43.5168 20.7211 43.0848 20.547 42.5514 20.547C42.0821 20.547 41.6714 20.679 41.3194 20.943C40.9781 21.195 40.7701 21.573 40.6954 22.077H38.9994C39.0528 21.429 39.2448 20.877 39.5754 20.421C39.9168 19.953 40.3434 19.599 40.8554 19.359C41.3781 19.107 41.9488 18.981 42.5674 18.981C43.6768 18.981 44.5354 19.311 45.1434 19.971C45.7514 20.619 46.0554 21.507 46.0554 22.635V28.125H44.5834L44.4394 26.595C44.2154 27.087 43.8901 27.501 43.4634 27.837C43.0368 28.1731 42.4768 28.341 41.7834 28.341ZM42.1194 26.793C42.5781 26.793 42.9621 26.673 43.2714 26.433C43.5914 26.181 43.8368 25.8511 44.0074 25.443C44.1888 25.035 44.3008 24.585 44.3434 24.093H42.4554C41.7834 24.093 41.3034 24.225 41.0154 24.489C40.7381 24.7531 40.5994 25.083 40.5994 25.479C40.5994 25.8871 40.7328 26.2111 40.9994 26.451C41.2768 26.6791 41.6501 26.793 42.1194 26.793ZM48.0329 28.125V19.197H49.5529L49.6969 20.889C49.9743 20.301 50.3583 19.8391 50.8489 19.503C51.3503 19.1551 51.9529 18.981 52.6569 18.981V20.979H52.1929C51.7236 20.979 51.3023 21.069 50.9289 21.249C50.5663 21.417 50.2729 21.7111 50.0489 22.131C49.8356 22.5391 49.7289 23.109 49.7289 23.841V28.125H48.0329ZM57.6043 28.341C56.8256 28.341 56.1323 28.149 55.5243 27.765C54.927 27.369 54.4576 26.8231 54.1163 26.127C53.775 25.431 53.6043 24.621 53.6043 23.697C53.6043 22.761 53.7696 21.939 54.1003 21.231C54.4416 20.5231 54.911 19.971 55.5083 19.575C56.1163 19.179 56.8203 18.981 57.6203 18.981C58.399 18.981 59.0763 19.179 59.6523 19.575C60.2283 19.959 60.6763 20.475 60.9963 21.123C61.3163 21.771 61.4763 22.4851 61.4763 23.265C61.4763 23.3851 61.471 23.517 61.4603 23.661C61.4603 23.793 61.455 23.9431 61.4443 24.111H55.2683C55.3216 24.975 55.5723 25.6351 56.0203 26.091C56.479 26.5351 57.007 26.757 57.6043 26.757C58.0843 26.757 58.4843 26.637 58.8043 26.397C59.135 26.145 59.3803 25.809 59.5403 25.389H61.2363C61.023 26.2291 60.5963 26.9311 59.9563 27.495C59.327 28.059 58.543 28.341 57.6043 28.341ZM57.6043 20.547C57.039 20.547 56.5376 20.7391 56.1003 21.123C55.663 21.4951 55.3963 22.059 55.3003 22.815H59.7803C59.7483 22.119 59.5296 21.5671 59.1243 21.159C58.719 20.751 58.2123 20.547 57.6043 20.547ZM70.9793 28.341C70.222 28.341 69.5393 28.149 68.9313 27.765C68.334 27.369 67.8593 26.8231 67.5073 26.127C67.1553 25.4191 66.9793 24.597 66.9793 23.661C66.9793 22.725 67.1553 21.9091 67.5073 21.213C67.87 20.5051 68.3553 19.959 68.9633 19.575C69.5713 19.179 70.2486 18.981 70.9953 18.981C71.7526 18.981 72.43 19.179 73.0273 19.575C73.6353 19.959 74.1153 20.5051 74.4673 21.213C74.83 21.9091 75.0113 22.725 75.0113 23.661C75.0113 24.597 74.83 25.4191 74.4673 26.127C74.1153 26.8231 73.6353 27.369 73.0273 27.765C72.4193 28.149 71.7366 28.341 70.9793 28.341ZM70.9793 26.703C71.3846 26.703 71.758 26.5891 72.0993 26.361C72.4513 26.133 72.734 25.7971 72.9473 25.353C73.1606 24.8971 73.2673 24.333 73.2673 23.661C73.2673 22.9891 73.1606 22.4311 72.9473 21.987C72.7446 21.5311 72.4673 21.1891 72.1153 20.961C71.774 20.733 71.4006 20.619 70.9953 20.619C70.59 20.619 70.2113 20.733 69.8593 20.961C69.518 21.1891 69.2406 21.5311 69.0273 21.987C68.814 22.4311 68.7073 22.9891 68.7073 23.661C68.7073 24.333 68.814 24.8971 69.0273 25.353C69.2406 25.7971 69.518 26.133 69.8593 26.361C70.2006 26.5891 70.574 26.703 70.9793 26.703ZM76.8454 28.125V19.197H78.3494L78.4774 20.763C78.7228 20.211 79.0801 19.779 79.5494 19.467C80.0294 19.143 80.5788 18.981 81.1974 18.981C82.1574 18.981 82.9094 19.3171 83.4534 19.989C84.0081 20.661 84.2854 21.663 84.2854 22.995V28.125H82.6054V23.193C82.6054 21.465 81.9761 20.601 80.7174 20.601C80.0881 20.601 79.5654 20.853 79.1494 21.357C78.7441 21.861 78.5414 22.581 78.5414 23.517V28.125H76.8454ZM90.3782 28.125V15.525H94.2342C95.1195 15.525 95.8449 15.693 96.4102 16.029C96.9862 16.3651 97.4129 16.821 97.6902 17.397C97.9675 17.961 98.1062 18.591 98.1062 19.287C98.1062 20.067 97.9195 20.7751 97.5462 21.411C97.1835 22.047 96.6129 22.5031 95.8342 22.779L98.2182 28.125H96.2502L94.0742 23.049H92.0742V28.125H90.3782ZM92.0742 21.609H94.1382C94.9062 21.609 95.4662 21.399 95.8182 20.979C96.1809 20.5591 96.3622 20.013 96.3622 19.341C96.3622 18.6691 96.1862 18.135 95.8342 17.739C95.4822 17.331 94.9115 17.127 94.1222 17.127H92.0742V21.609ZM103.276 28.341C102.498 28.341 101.804 28.149 101.196 27.765C100.599 27.369 100.13 26.8231 99.7882 26.127C99.4469 25.431 99.2762 24.621 99.2762 23.697C99.2762 22.761 99.4415 21.939 99.7722 21.231C100.114 20.5231 100.583 19.971 101.18 19.575C101.788 19.179 102.492 18.981 103.292 18.981C104.071 18.981 104.748 19.179 105.324 19.575C105.9 19.959 106.348 20.475 106.668 21.123C106.988 21.771 107.148 22.4851 107.148 23.265C107.148 23.3851 107.143 23.517 107.132 23.661C107.132 23.793 107.127 23.9431 107.116 24.111H100.94C100.994 24.975 101.244 25.6351 101.692 26.091C102.151 26.5351 102.679 26.757 103.276 26.757C103.756 26.757 104.156 26.637 104.476 26.397C104.807 26.145 105.052 25.809 105.212 25.389H106.908C106.695 26.2291 106.268 26.9311 105.628 27.495C104.999 28.059 104.215 28.341 103.276 28.341ZM103.276 20.547C102.711 20.547 102.21 20.7391 101.772 21.123C101.335 21.4951 101.068 22.059 100.972 22.815H105.452C105.42 22.119 105.202 21.5671 104.796 21.159C104.391 20.751 103.884 20.547 103.276 20.547ZM112.524 28.341C111.756 28.341 111.079 28.1371 110.492 27.729C109.905 27.321 109.447 26.763 109.116 26.055C108.785 25.3471 108.62 24.543 108.62 23.643C108.62 22.743 108.785 21.9451 109.116 21.249C109.447 20.5411 109.905 19.989 110.492 19.593C111.089 19.185 111.772 18.981 112.54 18.981C113.169 18.981 113.719 19.1191 114.188 19.395C114.668 19.671 115.041 20.061 115.308 20.565V15.165H117.004V28.125H115.484L115.308 26.739C115.052 27.159 114.7 27.531 114.252 27.855C113.804 28.179 113.228 28.341 112.524 28.341ZM112.828 26.685C113.553 26.685 114.145 26.403 114.604 25.839C115.073 25.2751 115.308 24.549 115.308 23.661C115.308 22.761 115.073 22.0351 114.604 21.483C114.145 20.9191 113.553 20.637 112.828 20.637C112.103 20.637 111.505 20.9191 111.036 21.483C110.567 22.0351 110.332 22.761 110.332 23.661C110.332 24.2491 110.439 24.7711 110.652 25.227C110.865 25.683 111.159 26.043 111.532 26.307C111.916 26.559 112.348 26.685 112.828 26.685ZM122.758 28.341C121.99 28.341 121.313 28.1371 120.726 27.729C120.14 27.321 119.681 26.763 119.35 26.055C119.02 25.3471 118.854 24.543 118.854 23.643C118.854 22.743 119.02 21.9451 119.35 21.249C119.681 20.5411 120.14 19.989 120.726 19.593C121.324 19.185 122.006 18.981 122.774 18.981C123.404 18.981 123.953 19.1191 124.422 19.395C124.902 19.671 125.276 20.061 125.542 20.565V15.165H127.238V28.125H125.718L125.542 26.739C125.286 27.159 124.934 27.531 124.486 27.855C124.038 28.179 123.462 28.341 122.758 28.341ZM123.062 26.685C123.788 26.685 124.38 26.403 124.838 25.839C125.308 25.2751 125.542 24.549 125.542 23.661C125.542 22.761 125.308 22.0351 124.838 21.483C124.38 20.9191 123.788 20.637 123.062 20.637C122.337 20.637 121.74 20.9191 121.27 21.483C120.801 22.0351 120.566 22.761 120.566 23.661C120.566 24.2491 120.673 24.7711 120.886 25.227C121.1 25.683 121.393 26.043 121.766 26.307C122.15 26.559 122.582 26.685 123.062 26.685ZM130.337 17.505C130.017 17.505 129.75 17.397 129.537 17.181C129.334 16.953 129.233 16.6711 129.233 16.335C129.233 15.999 129.334 15.723 129.537 15.507C129.75 15.279 130.017 15.165 130.337 15.165C130.657 15.165 130.918 15.279 131.121 15.507C131.334 15.723 131.441 15.999 131.441 16.335C131.441 16.6711 131.334 16.953 131.121 17.181C130.918 17.397 130.657 17.505 130.337 17.505ZM129.489 28.125V19.197H131.185V28.125H129.489ZM136.752 28.125C135.973 28.125 135.354 27.915 134.896 27.495C134.437 27.063 134.208 26.3011 134.208 25.209V20.799H132.848V19.197H134.208L134.416 16.929H135.904V19.197H138.144V20.799H135.904V25.209C135.904 25.701 135.994 26.043 136.176 26.235C136.368 26.415 136.693 26.505 137.152 26.505H138.064V28.125H136.752Z" fill="#7583FF"/>
</g>
<defs>
<clipPath id="clip0_464_1000">
<rect width="158" height="45" fill="white"/>
</clipPath>
</defs>
</svg>
