<svg width="172" height="40" viewBox="0 0 172 40" fill="none" xmlns="http://www.w3.org/2000/svg">
<rect x="1" y="1" width="170" height="38" rx="19" stroke="#EBEAED" stroke-width="2"/>
<path d="M24.2773 25.192C23.456 25.192 22.736 25.048 22.1173 24.76C21.4986 24.472 21.0133 24.0613 20.6613 23.528C20.32 22.9947 20.144 22.36 20.1333 21.624H21.9253C21.936 22.2213 22.144 22.728 22.5493 23.144C22.9546 23.56 23.5253 23.768 24.2613 23.768C24.912 23.768 25.4186 23.6133 25.7813 23.304C26.1546 22.984 26.3413 22.5787 26.3413 22.088C26.3413 21.6933 26.2506 21.3733 26.0693 21.128C25.8986 20.8827 25.6586 20.68 25.3493 20.52C25.0506 20.36 24.704 20.216 24.3093 20.088C23.9146 19.96 23.4986 19.8213 23.0613 19.672C22.1973 19.384 21.5466 19.0107 21.1093 18.552C20.6826 18.0933 20.4693 17.4907 20.4693 16.744C20.4586 16.1147 20.6026 15.5653 20.9013 15.096C21.2106 14.6267 21.6373 14.264 22.1813 14.008C22.736 13.7413 23.3813 13.608 24.1173 13.608C24.8426 13.608 25.4773 13.7413 26.0213 14.008C26.576 14.2747 27.008 14.648 27.3173 15.128C27.6266 15.5973 27.7866 16.1467 27.7973 16.776H26.0053C26.0053 16.488 25.9306 16.216 25.7813 15.96C25.632 15.6933 25.4133 15.4747 25.1253 15.304C24.8373 15.1333 24.4853 15.048 24.0693 15.048C23.536 15.0373 23.0933 15.1707 22.7413 15.448C22.4 15.7253 22.2293 16.1093 22.2293 16.6C22.2293 17.0373 22.3573 17.3733 22.6133 17.608C22.8693 17.8427 23.2213 18.04 23.6693 18.2C24.1173 18.3493 24.6293 18.5253 25.2053 18.728C25.76 18.9093 26.256 19.128 26.6933 19.384C27.1306 19.64 27.4773 19.976 27.7333 20.392C28 20.808 28.1333 21.336 28.1333 21.976C28.1333 22.5413 27.9893 23.0693 27.7013 23.56C27.4133 24.04 26.9813 24.4347 26.4053 24.744C25.8293 25.0427 25.12 25.192 24.2773 25.192ZM29.9236 25V13.48H31.6196V18.344C31.8862 17.8853 32.2542 17.528 32.7236 17.272C33.2036 17.0053 33.7316 16.872 34.3076 16.872C35.2569 16.872 36.0036 17.1707 36.5476 17.768C37.0916 18.3653 37.3636 19.256 37.3636 20.44V25H35.6836V20.616C35.6836 19.08 35.0702 18.312 33.8436 18.312C33.2036 18.312 32.6702 18.536 32.2436 18.984C31.8276 19.432 31.6196 20.072 31.6196 20.904V25H29.9236ZM42.0491 25.192C41.3771 25.192 40.8224 25.08 40.3851 24.856C39.9477 24.632 39.6224 24.3387 39.4091 23.976C39.1957 23.6027 39.0891 23.1973 39.0891 22.76C39.0891 21.992 39.3877 21.384 39.9851 20.936C40.5824 20.488 41.4357 20.264 42.5451 20.264H44.6251V20.12C44.6251 19.5013 44.4544 19.0373 44.1131 18.728C43.7824 18.4187 43.3504 18.264 42.8171 18.264C42.3477 18.264 41.9371 18.3813 41.5851 18.616C41.2437 18.84 41.0357 19.176 40.9611 19.624H39.2651C39.3184 19.048 39.5104 18.5573 39.8411 18.152C40.1824 17.736 40.6091 17.4213 41.1211 17.208C41.6437 16.984 42.2144 16.872 42.8331 16.872C43.9424 16.872 44.8011 17.1653 45.4091 17.752C46.0171 18.328 46.3211 19.1173 46.3211 20.12V25H44.8491L44.7051 23.64C44.4811 24.0773 44.1557 24.4453 43.7291 24.744C43.3024 25.0427 42.7424 25.192 42.0491 25.192ZM42.3851 23.816C42.8437 23.816 43.2277 23.7093 43.5371 23.496C43.8571 23.272 44.1024 22.9787 44.2731 22.616C44.4544 22.2533 44.5664 21.8533 44.6091 21.416H42.7211C42.0491 21.416 41.5691 21.5333 41.2811 21.768C41.0037 22.0027 40.8651 22.296 40.8651 22.648C40.8651 23.0107 40.9984 23.2987 41.2651 23.512C41.5424 23.7147 41.9157 23.816 42.3851 23.816ZM48.2986 25V17.064H49.8186L49.9626 18.568C50.2399 18.0453 50.6239 17.6347 51.1146 17.336C51.6159 17.0267 52.2186 16.872 52.9226 16.872V18.648H52.4586C51.9892 18.648 51.5679 18.728 51.1946 18.888C50.8319 19.0373 50.5386 19.2987 50.3146 19.672C50.1012 20.0347 49.9946 20.5413 49.9946 21.192V25H48.2986ZM57.8699 25.192C57.0913 25.192 56.3979 25.0213 55.7899 24.68C55.1926 24.328 54.7233 23.8427 54.3819 23.224C54.0406 22.6053 53.8699 21.8853 53.8699 21.064C53.8699 20.232 54.0353 19.5013 54.3659 18.872C54.7073 18.2427 55.1766 17.752 55.7739 17.4C56.3819 17.048 57.0859 16.872 57.8859 16.872C58.6646 16.872 59.3419 17.048 59.9179 17.4C60.4939 17.7413 60.9419 18.2 61.2619 18.776C61.5819 19.352 61.7419 19.9867 61.7419 20.68C61.7419 20.7867 61.7366 20.904 61.7259 21.032C61.7259 21.1493 61.7206 21.2827 61.7099 21.432H55.5339C55.5873 22.2 55.8379 22.7867 56.2859 23.192C56.7446 23.5867 57.2726 23.784 57.8699 23.784C58.3499 23.784 58.7499 23.6773 59.0699 23.464C59.4006 23.24 59.6459 22.9413 59.8059 22.568H61.5019C61.2886 23.3147 60.8619 23.9387 60.2219 24.44C59.5926 24.9413 58.8086 25.192 57.8699 25.192ZM57.8699 18.264C57.3046 18.264 56.8033 18.4347 56.3659 18.776C55.9286 19.1067 55.6619 19.608 55.5659 20.28H60.0459C60.0139 19.6613 59.7953 19.1707 59.3899 18.808C58.9846 18.4453 58.4779 18.264 57.8699 18.264ZM71.2449 25.192C70.4876 25.192 69.8049 25.0213 69.1969 24.68C68.5996 24.328 68.1249 23.8427 67.7729 23.224C67.4209 22.5947 67.2449 21.864 67.2449 21.032C67.2449 20.2 67.4209 19.4747 67.7729 18.856C68.1356 18.2267 68.6209 17.7413 69.2289 17.4C69.8369 17.048 70.5143 16.872 71.2609 16.872C72.0183 16.872 72.6956 17.048 73.2929 17.4C73.9009 17.7413 74.3809 18.2267 74.7329 18.856C75.0956 19.4747 75.2769 20.2 75.2769 21.032C75.2769 21.864 75.0956 22.5947 74.7329 23.224C74.3809 23.8427 73.9009 24.328 73.2929 24.68C72.6849 25.0213 72.0023 25.192 71.2449 25.192ZM71.2449 23.736C71.6503 23.736 72.0236 23.6347 72.3649 23.432C72.7169 23.2293 72.9996 22.9307 73.2129 22.536C73.4263 22.1307 73.5329 21.6293 73.5329 21.032C73.5329 20.4347 73.4263 19.9387 73.2129 19.544C73.0103 19.1387 72.7329 18.8347 72.3809 18.632C72.0396 18.4293 71.6663 18.328 71.2609 18.328C70.8556 18.328 70.4769 18.4293 70.1249 18.632C69.7836 18.8347 69.5063 19.1387 69.2929 19.544C69.0796 19.9387 68.9729 20.4347 68.9729 21.032C68.9729 21.6293 69.0796 22.1307 69.2929 22.536C69.5063 22.9307 69.7836 23.2293 70.1249 23.432C70.4663 23.6347 70.8396 23.736 71.2449 23.736ZM77.1111 25V17.064H78.6151L78.7431 18.456C78.9884 17.9653 79.3457 17.5813 79.8151 17.304C80.2951 17.016 80.8444 16.872 81.4631 16.872C82.4231 16.872 83.1751 17.1707 83.7191 17.768C84.2737 18.3653 84.5511 19.256 84.5511 20.44V25H82.8711V20.616C82.8711 19.08 82.2417 18.312 80.9831 18.312C80.3537 18.312 79.8311 18.536 79.4151 18.984C79.0097 19.432 78.8071 20.072 78.8071 20.904V25H77.1111ZM90.6438 25V13.8H92.3398V23.656H97.4278V25H90.6438ZM100.149 15.56C99.8292 15.56 99.5625 15.464 99.3492 15.272C99.1465 15.0693 99.0452 14.8187 99.0452 14.52C99.0452 14.2213 99.1465 13.976 99.3492 13.784C99.5625 13.5813 99.8292 13.48 100.149 13.48C100.469 13.48 100.731 13.5813 100.933 13.784C101.147 13.976 101.253 14.2213 101.253 14.52C101.253 14.8187 101.147 15.0693 100.933 15.272C100.731 15.464 100.469 15.56 100.149 15.56ZM99.3012 25V17.064H100.997V25H99.3012ZM103.236 25V17.064H104.74L104.868 18.456C105.113 17.9653 105.471 17.5813 105.94 17.304C106.42 17.016 106.969 16.872 107.588 16.872C108.548 16.872 109.3 17.1707 109.844 17.768C110.399 18.3653 110.676 19.256 110.676 20.44V25H108.996V20.616C108.996 19.08 108.367 18.312 107.108 18.312C106.479 18.312 105.956 18.536 105.54 18.984C105.135 19.432 104.932 20.072 104.932 20.904V25H103.236ZM112.674 25V13.48H114.37V20.344L117.41 17.064H119.442L116.066 20.664L119.938 25H117.794L114.37 20.936V25H112.674ZM124.354 25.192C123.576 25.192 122.882 25.0213 122.274 24.68C121.677 24.328 121.208 23.8427 120.866 23.224C120.525 22.6053 120.354 21.8853 120.354 21.064C120.354 20.232 120.52 19.5013 120.85 18.872C121.192 18.2427 121.661 17.752 122.258 17.4C122.866 17.048 123.57 16.872 124.37 16.872C125.149 16.872 125.826 17.048 126.402 17.4C126.978 17.7413 127.426 18.2 127.746 18.776C128.066 19.352 128.226 19.9867 128.226 20.68C128.226 20.7867 128.221 20.904 128.21 21.032C128.21 21.1493 128.205 21.2827 128.194 21.432H122.018C122.072 22.2 122.322 22.7867 122.77 23.192C123.229 23.5867 123.757 23.784 124.354 23.784C124.834 23.784 125.234 23.6773 125.554 23.464C125.885 23.24 126.13 22.9413 126.29 22.568H127.986C127.773 23.3147 127.346 23.9387 126.706 24.44C126.077 24.9413 125.293 25.192 124.354 25.192ZM124.354 18.264C123.789 18.264 123.288 18.4347 122.85 18.776C122.413 19.1067 122.146 19.608 122.05 20.28H126.53C126.498 19.6613 126.28 19.1707 125.874 18.808C125.469 18.4453 124.962 18.264 124.354 18.264ZM133.602 25.192C132.834 25.192 132.157 25.0107 131.57 24.648C130.983 24.2853 130.525 23.7893 130.194 23.16C129.863 22.5307 129.698 21.816 129.698 21.016C129.698 20.216 129.863 19.5067 130.194 18.888C130.525 18.2587 130.983 17.768 131.57 17.416C132.167 17.0533 132.85 16.872 133.618 16.872C134.247 16.872 134.797 16.9947 135.266 17.24C135.746 17.4853 136.119 17.832 136.386 18.28V13.48H138.082V25H136.562L136.386 23.768C136.13 24.1413 135.778 24.472 135.33 24.76C134.882 25.048 134.306 25.192 133.602 25.192ZM133.906 23.72C134.631 23.72 135.223 23.4693 135.682 22.968C136.151 22.4667 136.386 21.8213 136.386 21.032C136.386 20.232 136.151 19.5867 135.682 19.096C135.223 18.5947 134.631 18.344 133.906 18.344C133.181 18.344 132.583 18.5947 132.114 19.096C131.645 19.5867 131.41 20.232 131.41 21.032C131.41 21.5547 131.517 22.0187 131.73 22.424C131.943 22.8293 132.237 23.1493 132.61 23.384C132.994 23.608 133.426 23.72 133.906 23.72ZM140.284 25V13.8H141.98V25H140.284ZM144.189 25V17.064H145.693L145.821 18.456C146.067 17.9653 146.424 17.5813 146.893 17.304C147.373 17.016 147.923 16.872 148.541 16.872C149.501 16.872 150.253 17.1707 150.797 17.768C151.352 18.3653 151.629 19.256 151.629 20.44V25H149.949V20.616C149.949 19.08 149.32 18.312 148.061 18.312C147.432 18.312 146.909 18.536 146.493 18.984C146.088 19.432 145.885 20.072 145.885 20.904V25H144.189Z" fill="#1E0E62"/>
</svg>
