<svg width="184" height="40" viewBox="0 0 184 40" fill="none" xmlns="http://www.w3.org/2000/svg">
<rect x="1" y="1" width="182" height="38" rx="19" stroke="#EBEAED" stroke-width="2"/>
<path d="M24.0351 25.192C23.2138 25.192 22.4938 25.048 21.8751 24.76C21.2565 24.472 20.7711 24.0613 20.4191 23.528C20.0778 22.9947 19.9018 22.36 19.8911 21.624H21.6831C21.6938 22.2213 21.9018 22.728 22.3071 23.144C22.7125 23.56 23.2831 23.768 24.0191 23.768C24.6698 23.768 25.1765 23.6133 25.5391 23.304C25.9125 22.984 26.0991 22.5787 26.0991 22.088C26.0991 21.6933 26.0085 21.3733 25.8271 21.128C25.6565 20.8827 25.4165 20.68 25.1071 20.52C24.8085 20.36 24.4618 20.216 24.0671 20.088C23.6725 19.96 23.2565 19.8213 22.8191 19.672C21.9551 19.384 21.3045 19.0107 20.8671 18.552C20.4405 18.0933 20.2271 17.4907 20.2271 16.744C20.2165 16.1147 20.3605 15.5653 20.6591 15.096C20.9685 14.6267 21.3951 14.264 21.9391 14.008C22.4938 13.7413 23.1391 13.608 23.8751 13.608C24.6005 13.608 25.2351 13.7413 25.7791 14.008C26.3338 14.2747 26.7658 14.648 27.0751 15.128C27.3845 15.5973 27.5445 16.1467 27.5551 16.776H25.7631C25.7631 16.488 25.6885 16.216 25.5391 15.96C25.3898 15.6933 25.1711 15.4747 24.8831 15.304C24.5951 15.1333 24.2431 15.048 23.8271 15.048C23.2938 15.0373 22.8511 15.1707 22.4991 15.448C22.1578 15.7253 21.9871 16.1093 21.9871 16.6C21.9871 17.0373 22.1151 17.3733 22.3711 17.608C22.6271 17.8427 22.9791 18.04 23.4271 18.2C23.8751 18.3493 24.3871 18.5253 24.9631 18.728C25.5178 18.9093 26.0138 19.128 26.4511 19.384C26.8885 19.64 27.2351 19.976 27.4911 20.392C27.7578 20.808 27.8911 21.336 27.8911 21.976C27.8911 22.5413 27.7471 23.0693 27.4591 23.56C27.1711 24.04 26.7391 24.4347 26.1631 24.744C25.5871 25.0427 24.8778 25.192 24.0351 25.192ZM33.3934 25.192C32.6147 25.192 31.9214 25.0213 31.3134 24.68C30.716 24.328 30.2467 23.8427 29.9054 23.224C29.564 22.6053 29.3934 21.8853 29.3934 21.064C29.3934 20.232 29.5587 19.5013 29.8894 18.872C30.2307 18.2427 30.7 17.752 31.2974 17.4C31.9054 17.048 32.6094 16.872 33.4094 16.872C34.188 16.872 34.8654 17.048 35.4414 17.4C36.0174 17.7413 36.4654 18.2 36.7854 18.776C37.1054 19.352 37.2654 19.9867 37.2654 20.68C37.2654 20.7867 37.26 20.904 37.2494 21.032C37.2494 21.1493 37.244 21.2827 37.2334 21.432H31.0574C31.1107 22.2 31.3614 22.7867 31.8094 23.192C32.268 23.5867 32.796 23.784 33.3934 23.784C33.8734 23.784 34.2734 23.6773 34.5934 23.464C34.924 23.24 35.1694 22.9413 35.3294 22.568H37.0254C36.812 23.3147 36.3854 23.9387 35.7454 24.44C35.116 24.9413 34.332 25.192 33.3934 25.192ZM33.3934 18.264C32.828 18.264 32.3267 18.4347 31.8894 18.776C31.452 19.1067 31.1854 19.608 31.0894 20.28H35.5694C35.5374 19.6613 35.3187 19.1707 34.9134 18.808C34.508 18.4453 34.0014 18.264 33.3934 18.264ZM39.0251 25V17.064H40.5291L40.6571 18.456C40.9025 17.9653 41.2598 17.5813 41.7291 17.304C42.2091 17.016 42.7585 16.872 43.3771 16.872C44.3371 16.872 45.0891 17.1707 45.6331 17.768C46.1878 18.3653 46.4651 19.256 46.4651 20.44V25H44.7851V20.616C44.7851 19.08 44.1558 18.312 42.8971 18.312C42.2678 18.312 41.7451 18.536 41.3291 18.984C40.9238 19.432 40.7211 20.072 40.7211 20.904V25H39.0251ZM52.0786 25.192C51.3106 25.192 50.6333 25.0107 50.0466 24.648C49.46 24.2853 49.0013 23.7893 48.6706 23.16C48.34 22.5307 48.1746 21.816 48.1746 21.016C48.1746 20.216 48.34 19.5067 48.6706 18.888C49.0013 18.2587 49.46 17.768 50.0466 17.416C50.644 17.0533 51.3266 16.872 52.0946 16.872C52.724 16.872 53.2733 16.9947 53.7426 17.24C54.2226 17.4853 54.596 17.832 54.8626 18.28V13.48H56.5586V25H55.0386L54.8626 23.768C54.6066 24.1413 54.2546 24.472 53.8066 24.76C53.3586 25.048 52.7826 25.192 52.0786 25.192ZM52.3826 23.72C53.108 23.72 53.7 23.4693 54.1586 22.968C54.628 22.4667 54.8626 21.8213 54.8626 21.032C54.8626 20.232 54.628 19.5867 54.1586 19.096C53.7 18.5947 53.108 18.344 52.3826 18.344C51.6573 18.344 51.06 18.5947 50.5906 19.096C50.1213 19.5867 49.8866 20.232 49.8866 21.032C49.8866 21.5547 49.9933 22.0187 50.2066 22.424C50.42 22.8293 50.7133 23.1493 51.0866 23.384C51.4706 23.608 51.9026 23.72 52.3826 23.72ZM66.4403 25.192C65.6829 25.192 65.0003 25.0213 64.3923 24.68C63.7949 24.328 63.3203 23.8427 62.9683 23.224C62.6163 22.5947 62.4403 21.864 62.4403 21.032C62.4403 20.2 62.6163 19.4747 62.9683 18.856C63.3309 18.2267 63.8163 17.7413 64.4243 17.4C65.0323 17.048 65.7096 16.872 66.4563 16.872C67.2136 16.872 67.8909 17.048 68.4883 17.4C69.0963 17.7413 69.5763 18.2267 69.9283 18.856C70.2909 19.4747 70.4722 20.2 70.4722 21.032C70.4722 21.864 70.2909 22.5947 69.9283 23.224C69.5763 23.8427 69.0963 24.328 68.4883 24.68C67.8803 25.0213 67.1976 25.192 66.4403 25.192ZM66.4403 23.736C66.8456 23.736 67.2189 23.6347 67.5603 23.432C67.9123 23.2293 68.1949 22.9307 68.4083 22.536C68.6216 22.1307 68.7283 21.6293 68.7283 21.032C68.7283 20.4347 68.6216 19.9387 68.4083 19.544C68.2056 19.1387 67.9283 18.8347 67.5763 18.632C67.2349 18.4293 66.8616 18.328 66.4563 18.328C66.0509 18.328 65.6723 18.4293 65.3203 18.632C64.9789 18.8347 64.7016 19.1387 64.4883 19.544C64.2749 19.9387 64.1683 20.4347 64.1683 21.032C64.1683 21.6293 64.2749 22.1307 64.4883 22.536C64.7016 22.9307 64.9789 23.2293 65.3203 23.432C65.6616 23.6347 66.0349 23.736 66.4403 23.736ZM72.3064 25V17.064H73.8104L73.9384 18.456C74.1837 17.9653 74.541 17.5813 75.0104 17.304C75.4904 17.016 76.0397 16.872 76.6584 16.872C77.6184 16.872 78.3704 17.1707 78.9144 17.768C79.469 18.3653 79.7464 19.256 79.7464 20.44V25H78.0664V20.616C78.0664 19.08 77.437 18.312 76.1784 18.312C75.549 18.312 75.0264 18.536 74.6104 18.984C74.205 19.432 74.0024 20.072 74.0024 20.904V25H72.3064ZM88.1271 25.016L85.1031 13.8H86.9271L89.1511 23.08L91.7111 13.8H93.5831L96.0631 23.08L98.2871 13.8H100.111L97.0391 25H95.0551L92.6071 16.216L90.0791 25L88.1271 25.016ZM101.603 25V13.48H103.299V18.344C103.566 17.8853 103.934 17.528 104.403 17.272C104.883 17.0053 105.411 16.872 105.987 16.872C106.937 16.872 107.683 17.1707 108.227 17.768C108.771 18.3653 109.043 19.256 109.043 20.44V25H107.363V20.616C107.363 19.08 106.75 18.312 105.523 18.312C104.883 18.312 104.35 18.536 103.923 18.984C103.507 19.432 103.299 20.072 103.299 20.904V25H101.603ZM113.729 25.192C113.057 25.192 112.502 25.08 112.065 24.856C111.627 24.632 111.302 24.3387 111.089 23.976C110.875 23.6027 110.769 23.1973 110.769 22.76C110.769 21.992 111.067 21.384 111.665 20.936C112.262 20.488 113.115 20.264 114.225 20.264H116.305V20.12C116.305 19.5013 116.134 19.0373 115.793 18.728C115.462 18.4187 115.03 18.264 114.497 18.264C114.027 18.264 113.617 18.3813 113.265 18.616C112.923 18.84 112.715 19.176 112.641 19.624H110.945C110.998 19.048 111.19 18.5573 111.521 18.152C111.862 17.736 112.289 17.4213 112.801 17.208C113.323 16.984 113.894 16.872 114.513 16.872C115.622 16.872 116.481 17.1653 117.089 17.752C117.697 18.328 118.001 19.1173 118.001 20.12V25H116.529L116.385 23.64C116.161 24.0773 115.835 24.4453 115.409 24.744C114.982 25.0427 114.422 25.192 113.729 25.192ZM114.065 23.816C114.523 23.816 114.907 23.7093 115.217 23.496C115.537 23.272 115.782 22.9787 115.953 22.616C116.134 22.2533 116.246 21.8533 116.289 21.416H114.401C113.729 21.416 113.249 21.5333 112.961 21.768C112.683 22.0027 112.545 22.296 112.545 22.648C112.545 23.0107 112.678 23.2987 112.945 23.512C113.222 23.7147 113.595 23.816 114.065 23.816ZM123.15 25C122.371 25 121.753 24.8133 121.294 24.44C120.835 24.056 120.606 23.3787 120.606 22.408V18.488H119.246V17.064H120.606L120.814 15.048H122.302V17.064H124.542V18.488H122.302V22.408C122.302 22.8453 122.393 23.1493 122.574 23.32C122.766 23.48 123.091 23.56 123.55 23.56H124.462V25H123.15ZM129.459 25.192C128.456 25.192 127.629 24.9467 126.979 24.456C126.328 23.9653 125.955 23.3147 125.859 22.504H127.571C127.656 22.8667 127.859 23.1813 128.179 23.448C128.499 23.704 128.92 23.832 129.443 23.832C129.955 23.832 130.328 23.7253 130.563 23.512C130.797 23.2987 130.915 23.0533 130.915 22.776C130.915 22.3707 130.749 22.0987 130.419 21.96C130.099 21.8107 129.651 21.6773 129.075 21.56C128.627 21.464 128.179 21.336 127.731 21.176C127.293 21.016 126.925 20.792 126.627 20.504C126.339 20.2053 126.195 19.8053 126.195 19.304C126.195 18.6107 126.461 18.0347 126.995 17.576C127.528 17.1067 128.275 16.872 129.235 16.872C130.12 16.872 130.835 17.0853 131.379 17.512C131.933 17.9387 132.259 18.5413 132.355 19.32H130.723C130.669 18.9787 130.509 18.712 130.243 18.52C129.987 18.328 129.64 18.232 129.203 18.232C128.776 18.232 128.445 18.3227 128.211 18.504C127.976 18.6747 127.859 18.8987 127.859 19.176C127.859 19.4533 128.019 19.672 128.339 19.832C128.669 19.992 129.101 20.136 129.635 20.264C130.168 20.3813 130.659 20.52 131.107 20.68C131.565 20.8293 131.933 21.0533 132.211 21.352C132.488 21.6507 132.627 22.088 132.627 22.664C132.637 23.3893 132.355 23.992 131.779 24.472C131.213 24.952 130.44 25.192 129.459 25.192ZM133.822 25L137.95 13.8H139.806L143.902 25H142.11L141.15 22.264H136.574L135.614 25H133.822ZM137.054 20.92H140.67L138.862 15.816L137.054 20.92ZM145.4 28.52V17.064H146.92L147.096 18.296C147.352 17.9227 147.704 17.592 148.152 17.304C148.6 17.016 149.176 16.872 149.88 16.872C150.648 16.872 151.325 17.0533 151.912 17.416C152.499 17.7787 152.957 18.2747 153.288 18.904C153.629 19.5333 153.8 20.248 153.8 21.048C153.8 21.848 153.629 22.5627 153.288 23.192C152.957 23.8107 152.499 24.3013 151.912 24.664C151.325 25.016 150.643 25.192 149.864 25.192C149.245 25.192 148.696 25.0693 148.216 24.824C147.747 24.5787 147.373 24.232 147.096 23.784V28.52H145.4ZM149.576 23.72C150.301 23.72 150.899 23.4747 151.368 22.984C151.837 22.4827 152.072 21.832 152.072 21.032C152.072 20.5093 151.965 20.0453 151.752 19.64C151.539 19.2347 151.245 18.92 150.872 18.696C150.499 18.4613 150.067 18.344 149.576 18.344C148.851 18.344 148.253 18.5947 147.784 19.096C147.325 19.5973 147.096 20.2427 147.096 21.032C147.096 21.832 147.325 22.4827 147.784 22.984C148.253 23.4747 148.851 23.72 149.576 23.72ZM155.635 28.52V17.064H157.155L157.331 18.296C157.587 17.9227 157.939 17.592 158.387 17.304C158.835 17.016 159.411 16.872 160.115 16.872C160.883 16.872 161.56 17.0533 162.147 17.416C162.733 17.7787 163.192 18.2747 163.523 18.904C163.864 19.5333 164.035 20.248 164.035 21.048C164.035 21.848 163.864 22.5627 163.523 23.192C163.192 23.8107 162.733 24.3013 162.147 24.664C161.56 25.016 160.877 25.192 160.099 25.192C159.48 25.192 158.931 25.0693 158.451 24.824C157.981 24.5787 157.608 24.232 157.331 23.784V28.52H155.635ZM159.811 23.72C160.536 23.72 161.133 23.4747 161.603 22.984C162.072 22.4827 162.307 21.832 162.307 21.032C162.307 20.5093 162.2 20.0453 161.987 19.64C161.773 19.2347 161.48 18.92 161.107 18.696C160.733 18.4613 160.301 18.344 159.811 18.344C159.085 18.344 158.488 18.5947 158.019 19.096C157.56 19.5973 157.331 20.2427 157.331 21.032C157.331 21.832 157.56 22.4827 158.019 22.984C158.488 23.4747 159.085 23.72 159.811 23.72Z" fill="#1E0E62"/>
</svg>
