<svg width="202" height="40" viewBox="0 0 202 40" fill="none" xmlns="http://www.w3.org/2000/svg">
<rect x="1" y="1" width="200" height="38" rx="19" stroke="#EBEAED" stroke-width="2"/>
<path d="M23.9336 25.192C23.1122 25.192 22.3922 25.048 21.7736 24.76C21.1549 24.472 20.6696 24.0613 20.3176 23.528C19.9762 22.9947 19.8002 22.36 19.7896 21.624H21.5816C21.5922 22.2213 21.8002 22.728 22.2056 23.144C22.6109 23.56 23.1816 23.768 23.9176 23.768C24.5682 23.768 25.0749 23.6133 25.4376 23.304C25.8109 22.984 25.9976 22.5787 25.9976 22.088C25.9976 21.6933 25.9069 21.3733 25.7256 21.128C25.5549 20.8827 25.3149 20.68 25.0056 20.52C24.7069 20.36 24.3602 20.216 23.9656 20.088C23.5709 19.96 23.1549 19.8213 22.7176 19.672C21.8536 19.384 21.2029 19.0107 20.7656 18.552C20.3389 18.0933 20.1256 17.4907 20.1256 16.744C20.1149 16.1147 20.2589 15.5653 20.5576 15.096C20.8669 14.6267 21.2936 14.264 21.8376 14.008C22.3922 13.7413 23.0376 13.608 23.7736 13.608C24.4989 13.608 25.1336 13.7413 25.6776 14.008C26.2322 14.2747 26.6642 14.648 26.9736 15.128C27.2829 15.5973 27.4429 16.1467 27.4536 16.776H25.6616C25.6616 16.488 25.5869 16.216 25.4376 15.96C25.2882 15.6933 25.0696 15.4747 24.7816 15.304C24.4936 15.1333 24.1416 15.048 23.7256 15.048C23.1922 15.0373 22.7496 15.1707 22.3976 15.448C22.0562 15.7253 21.8856 16.1093 21.8856 16.6C21.8856 17.0373 22.0136 17.3733 22.2696 17.608C22.5256 17.8427 22.8776 18.04 23.3256 18.2C23.7736 18.3493 24.2856 18.5253 24.8616 18.728C25.4162 18.9093 25.9122 19.128 26.3496 19.384C26.7869 19.64 27.1336 19.976 27.3896 20.392C27.6562 20.808 27.7896 21.336 27.7896 21.976C27.7896 22.5413 27.6456 23.0693 27.3576 23.56C27.0696 24.04 26.6376 24.4347 26.0616 24.744C25.4856 25.0427 24.7762 25.192 23.9336 25.192ZM29.5798 25V13.48H31.2758V18.344C31.5425 17.8853 31.9105 17.528 32.3798 17.272C32.8598 17.0053 33.3878 16.872 33.9638 16.872C34.9131 16.872 35.6598 17.1707 36.2038 17.768C36.7478 18.3653 37.0198 19.256 37.0198 20.44V25H35.3398V20.616C35.3398 19.08 34.7265 18.312 33.4998 18.312C32.8598 18.312 32.3265 18.536 31.8998 18.984C31.4838 19.432 31.2758 20.072 31.2758 20.904V25H29.5798ZM41.7053 25.192C41.0333 25.192 40.4786 25.08 40.0413 24.856C39.604 24.632 39.2786 24.3387 39.0653 23.976C38.852 23.6027 38.7453 23.1973 38.7453 22.76C38.7453 21.992 39.044 21.384 39.6413 20.936C40.2386 20.488 41.092 20.264 42.2013 20.264H44.2813V20.12C44.2813 19.5013 44.1106 19.0373 43.7693 18.728C43.4386 18.4187 43.0066 18.264 42.4733 18.264C42.004 18.264 41.5933 18.3813 41.2413 18.616C40.9 18.84 40.692 19.176 40.6173 19.624H38.9213C38.9746 19.048 39.1666 18.5573 39.4973 18.152C39.8386 17.736 40.2653 17.4213 40.7773 17.208C41.3 16.984 41.8706 16.872 42.4893 16.872C43.5986 16.872 44.4573 17.1653 45.0653 17.752C45.6733 18.328 45.9773 19.1173 45.9773 20.12V25H44.5053L44.3613 23.64C44.1373 24.0773 43.812 24.4453 43.3853 24.744C42.9586 25.0427 42.3986 25.192 41.7053 25.192ZM42.0413 23.816C42.5 23.816 42.884 23.7093 43.1933 23.496C43.5133 23.272 43.7586 22.9787 43.9293 22.616C44.1106 22.2533 44.2226 21.8533 44.2653 21.416H42.3773C41.7053 21.416 41.2253 21.5333 40.9373 21.768C40.66 22.0027 40.5213 22.296 40.5213 22.648C40.5213 23.0107 40.6546 23.2987 40.9213 23.512C41.1986 23.7147 41.572 23.816 42.0413 23.816ZM47.9548 25V17.064H49.4748L49.6188 18.568C49.8961 18.0453 50.2801 17.6347 50.7708 17.336C51.2721 17.0267 51.8748 16.872 52.5788 16.872V18.648H52.1148C51.6455 18.648 51.2241 18.728 50.8508 18.888C50.4881 19.0373 50.1948 19.2987 49.9708 19.672C49.7575 20.0347 49.6508 20.5413 49.6508 21.192V25H47.9548ZM57.5262 25.192C56.7475 25.192 56.0542 25.0213 55.4462 24.68C54.8489 24.328 54.3795 23.8427 54.0382 23.224C53.6969 22.6053 53.5262 21.8853 53.5262 21.064C53.5262 20.232 53.6915 19.5013 54.0222 18.872C54.3635 18.2427 54.8329 17.752 55.4302 17.4C56.0382 17.048 56.7422 16.872 57.5422 16.872C58.3209 16.872 58.9982 17.048 59.5742 17.4C60.1502 17.7413 60.5982 18.2 60.9182 18.776C61.2382 19.352 61.3982 19.9867 61.3982 20.68C61.3982 20.7867 61.3929 20.904 61.3822 21.032C61.3822 21.1493 61.3769 21.2827 61.3662 21.432H55.1902C55.2435 22.2 55.4942 22.7867 55.9422 23.192C56.4009 23.5867 56.9289 23.784 57.5262 23.784C58.0062 23.784 58.4062 23.6773 58.7262 23.464C59.0569 23.24 59.3022 22.9413 59.4622 22.568H61.1582C60.9449 23.3147 60.5182 23.9387 59.8782 24.44C59.2489 24.9413 58.4649 25.192 57.5262 25.192ZM57.5262 18.264C56.9609 18.264 56.4595 18.4347 56.0222 18.776C55.5849 19.1067 55.3182 19.608 55.2222 20.28H59.7022C59.6702 19.6613 59.4515 19.1707 59.0462 18.808C58.6409 18.4453 58.1342 18.264 57.5262 18.264ZM70.9012 25.192C70.1439 25.192 69.4612 25.0213 68.8532 24.68C68.2559 24.328 67.7812 23.8427 67.4292 23.224C67.0772 22.5947 66.9012 21.864 66.9012 21.032C66.9012 20.2 67.0772 19.4747 67.4292 18.856C67.7919 18.2267 68.2772 17.7413 68.8852 17.4C69.4932 17.048 70.1705 16.872 70.9172 16.872C71.6745 16.872 72.3519 17.048 72.9492 17.4C73.5572 17.7413 74.0372 18.2267 74.3892 18.856C74.7519 19.4747 74.9332 20.2 74.9332 21.032C74.9332 21.864 74.7519 22.5947 74.3892 23.224C74.0372 23.8427 73.5572 24.328 72.9492 24.68C72.3412 25.0213 71.6585 25.192 70.9012 25.192ZM70.9012 23.736C71.3065 23.736 71.6799 23.6347 72.0212 23.432C72.3732 23.2293 72.6559 22.9307 72.8692 22.536C73.0825 22.1307 73.1892 21.6293 73.1892 21.032C73.1892 20.4347 73.0825 19.9387 72.8692 19.544C72.6665 19.1387 72.3892 18.8347 72.0372 18.632C71.6959 18.4293 71.3225 18.328 70.9172 18.328C70.5119 18.328 70.1332 18.4293 69.7812 18.632C69.4399 18.8347 69.1625 19.1387 68.9492 19.544C68.7359 19.9387 68.6292 20.4347 68.6292 21.032C68.6292 21.6293 68.7359 22.1307 68.9492 22.536C69.1625 22.9307 69.4399 23.2293 69.7812 23.432C70.1225 23.6347 70.4959 23.736 70.9012 23.736ZM76.7673 25V17.064H78.2713L78.3993 18.456C78.6446 17.9653 79.002 17.5813 79.4713 17.304C79.9513 17.016 80.5006 16.872 81.1193 16.872C82.0793 16.872 82.8313 17.1707 83.3753 17.768C83.93 18.3653 84.2073 19.256 84.2073 20.44V25H82.5273V20.616C82.5273 19.08 81.898 18.312 80.6393 18.312C80.01 18.312 79.4873 18.536 79.0713 18.984C78.666 19.432 78.4633 20.072 78.4633 20.904V25H76.7673ZM90.3001 25V13.8H91.9961V18.6H97.4201V13.8H99.1161V25H97.4201V19.992H91.9961V25H90.3001ZM104.018 25.192C103.346 25.192 102.791 25.08 102.354 24.856C101.916 24.632 101.591 24.3387 101.378 23.976C101.164 23.6027 101.058 23.1973 101.058 22.76C101.058 21.992 101.356 21.384 101.954 20.936C102.551 20.488 103.404 20.264 104.514 20.264H106.594V20.12C106.594 19.5013 106.423 19.0373 106.082 18.728C105.751 18.4187 105.319 18.264 104.786 18.264C104.316 18.264 103.906 18.3813 103.554 18.616C103.212 18.84 103.004 19.176 102.93 19.624H101.234C101.287 19.048 101.479 18.5573 101.81 18.152C102.151 17.736 102.578 17.4213 103.09 17.208C103.612 16.984 104.183 16.872 104.802 16.872C105.911 16.872 106.77 17.1653 107.378 17.752C107.986 18.328 108.29 19.1173 108.29 20.12V25H106.818L106.674 23.64C106.45 24.0773 106.124 24.4453 105.698 24.744C105.271 25.0427 104.711 25.192 104.018 25.192ZM104.354 23.816C104.812 23.816 105.196 23.7093 105.506 23.496C105.826 23.272 106.071 22.9787 106.242 22.616C106.423 22.2533 106.535 21.8533 106.578 21.416H104.69C104.018 21.416 103.538 21.5333 103.25 21.768C102.972 22.0027 102.834 22.296 102.834 22.648C102.834 23.0107 102.967 23.2987 103.234 23.512C103.511 23.7147 103.884 23.816 104.354 23.816ZM114.027 25.192C113.249 25.192 112.55 25.016 111.931 24.664C111.323 24.312 110.843 23.8267 110.491 23.208C110.15 22.5787 109.979 21.8533 109.979 21.032C109.979 20.2107 110.15 19.4907 110.491 18.872C110.843 18.2427 111.323 17.752 111.931 17.4C112.55 17.048 113.249 16.872 114.027 16.872C115.009 16.872 115.83 17.128 116.491 17.64C117.163 18.152 117.595 18.8453 117.787 19.72H116.011C115.905 19.2827 115.67 18.9413 115.307 18.696C114.945 18.4507 114.518 18.328 114.027 18.328C113.611 18.328 113.227 18.4347 112.875 18.648C112.523 18.8507 112.241 19.1547 112.027 19.56C111.814 19.9547 111.707 20.4453 111.707 21.032C111.707 21.6187 111.814 22.1147 112.027 22.52C112.241 22.9147 112.523 23.2187 112.875 23.432C113.227 23.6453 113.611 23.752 114.027 23.752C114.518 23.752 114.945 23.6293 115.307 23.384C115.67 23.1387 115.905 22.792 116.011 22.344H117.787C117.606 23.1973 117.179 23.8853 116.507 24.408C115.835 24.9307 115.009 25.192 114.027 25.192ZM119.627 25V13.48H121.323V20.344L124.363 17.064H126.395L123.019 20.664L126.891 25H124.747L121.323 20.936V25H119.627ZM131.307 25.192C130.529 25.192 129.835 25.0213 129.227 24.68C128.63 24.328 128.161 23.8427 127.819 23.224C127.478 22.6053 127.307 21.8853 127.307 21.064C127.307 20.232 127.473 19.5013 127.803 18.872C128.145 18.2427 128.614 17.752 129.211 17.4C129.819 17.048 130.523 16.872 131.323 16.872C132.102 16.872 132.779 17.048 133.355 17.4C133.931 17.7413 134.379 18.2 134.699 18.776C135.019 19.352 135.179 19.9867 135.179 20.68C135.179 20.7867 135.174 20.904 135.163 21.032C135.163 21.1493 135.158 21.2827 135.147 21.432H128.971C129.025 22.2 129.275 22.7867 129.723 23.192C130.182 23.5867 130.71 23.784 131.307 23.784C131.787 23.784 132.187 23.6773 132.507 23.464C132.838 23.24 133.083 22.9413 133.243 22.568H134.939C134.726 23.3147 134.299 23.9387 133.659 24.44C133.03 24.9413 132.246 25.192 131.307 25.192ZM131.307 18.264C130.742 18.264 130.241 18.4347 129.803 18.776C129.366 19.1067 129.099 19.608 129.003 20.28H133.483C133.451 19.6613 133.233 19.1707 132.827 18.808C132.422 18.4453 131.915 18.264 131.307 18.264ZM136.939 25V17.064H138.459L138.603 18.568C138.881 18.0453 139.265 17.6347 139.755 17.336C140.257 17.0267 140.859 16.872 141.563 16.872V18.648H141.099C140.63 18.648 140.209 18.728 139.835 18.888C139.473 19.0373 139.179 19.2987 138.955 19.672C138.742 20.0347 138.635 20.5413 138.635 21.192V25H136.939ZM143.081 25V13.8H144.777L150.393 22.232V13.8H152.089V25H150.393L144.777 16.568V25H143.081ZM158.011 25.192C157.232 25.192 156.539 25.0213 155.931 24.68C155.333 24.328 154.864 23.8427 154.523 23.224C154.181 22.6053 154.011 21.8853 154.011 21.064C154.011 20.232 154.176 19.5013 154.507 18.872C154.848 18.2427 155.317 17.752 155.915 17.4C156.523 17.048 157.227 16.872 158.027 16.872C158.805 16.872 159.483 17.048 160.059 17.4C160.635 17.7413 161.083 18.2 161.403 18.776C161.723 19.352 161.883 19.9867 161.883 20.68C161.883 20.7867 161.877 20.904 161.867 21.032C161.867 21.1493 161.861 21.2827 161.851 21.432H155.675C155.728 22.2 155.979 22.7867 156.427 23.192C156.885 23.5867 157.413 23.784 158.011 23.784C158.491 23.784 158.891 23.6773 159.211 23.464C159.541 23.24 159.787 22.9413 159.947 22.568H161.643C161.429 23.3147 161.003 23.9387 160.363 24.44C159.733 24.9413 158.949 25.192 158.011 25.192ZM158.011 18.264C157.445 18.264 156.944 18.4347 156.507 18.776C156.069 19.1067 155.803 19.608 155.707 20.28H160.187C160.155 19.6613 159.936 19.1707 159.531 18.808C159.125 18.4453 158.619 18.264 158.011 18.264ZM164.914 25L162.578 17.064H164.274L165.81 23.048L167.538 17.064H169.426L171.154 23.048L172.69 17.064H174.386L172.05 25H170.306L168.482 18.76L166.658 25H164.914ZM178.951 25.192C177.948 25.192 177.122 24.9467 176.471 24.456C175.82 23.9653 175.447 23.3147 175.351 22.504H177.063C177.148 22.8667 177.351 23.1813 177.671 23.448C177.991 23.704 178.412 23.832 178.935 23.832C179.447 23.832 179.82 23.7253 180.055 23.512C180.29 23.2987 180.407 23.0533 180.407 22.776C180.407 22.3707 180.242 22.0987 179.911 21.96C179.591 21.8107 179.143 21.6773 178.567 21.56C178.119 21.464 177.671 21.336 177.223 21.176C176.786 21.016 176.418 20.792 176.119 20.504C175.831 20.2053 175.687 19.8053 175.687 19.304C175.687 18.6107 175.954 18.0347 176.487 17.576C177.02 17.1067 177.767 16.872 178.727 16.872C179.612 16.872 180.327 17.0853 180.871 17.512C181.426 17.9387 181.751 18.5413 181.847 19.32H180.215C180.162 18.9787 180.002 18.712 179.735 18.52C179.479 18.328 179.132 18.232 178.695 18.232C178.268 18.232 177.938 18.3227 177.703 18.504C177.468 18.6747 177.351 18.8987 177.351 19.176C177.351 19.4533 177.511 19.672 177.831 19.832C178.162 19.992 178.594 20.136 179.127 20.264C179.66 20.3813 180.151 20.52 180.599 20.68C181.058 20.8293 181.426 21.0533 181.703 21.352C181.98 21.6507 182.119 22.088 182.119 22.664C182.13 23.3893 181.847 23.992 181.271 24.472C180.706 24.952 179.932 25.192 178.951 25.192Z" fill="#1E0E62"/>
</svg>
