<svg width="157" height="40" viewBox="0 0 157 40" fill="none" xmlns="http://www.w3.org/2000/svg">
<rect x="1" y="1" width="155" height="38" rx="19" stroke="#EBEAED" stroke-width="2"/>
<path d="M20.5423 25V13.8H24.4623C25.3369 13.8 26.0623 13.9493 26.6383 14.248C27.2143 14.536 27.6409 14.936 27.9183 15.448C28.2063 15.9493 28.3503 16.52 28.3503 17.16C28.3503 17.768 28.2116 18.328 27.9343 18.84C27.6676 19.3413 27.2463 19.7413 26.6703 20.04C26.0943 20.3387 25.3583 20.488 24.4623 20.488H22.2383V25H20.5423ZM22.2383 19.096H24.3823C25.1823 19.096 25.7529 18.9253 26.0943 18.584C26.4463 18.232 26.6223 17.7573 26.6223 17.16C26.6223 16.5413 26.4463 16.0613 26.0943 15.72C25.7529 15.368 25.1823 15.192 24.3823 15.192H22.2383V19.096ZM30.9226 15.56C30.6026 15.56 30.336 15.464 30.1226 15.272C29.92 15.0693 29.8186 14.8187 29.8186 14.52C29.8186 14.2213 29.92 13.976 30.1226 13.784C30.336 13.5813 30.6026 13.48 30.9226 13.48C31.2426 13.48 31.504 13.5813 31.7066 13.784C31.92 13.976 32.0266 14.2213 32.0266 14.52C32.0266 14.8187 31.92 15.0693 31.7066 15.272C31.504 15.464 31.2426 15.56 30.9226 15.56ZM30.0746 25V17.064H31.7706V25H30.0746ZM34.0095 25V17.064H35.5135L35.6415 18.456C35.8868 17.9653 36.2442 17.5813 36.7135 17.304C37.1935 17.016 37.7428 16.872 38.3615 16.872C39.3215 16.872 40.0735 17.1707 40.6175 17.768C41.1722 18.3653 41.4495 19.256 41.4495 20.44V25H39.7695V20.616C39.7695 19.08 39.1402 18.312 37.8815 18.312C37.2522 18.312 36.7295 18.536 36.3135 18.984C35.9082 19.432 35.7055 20.072 35.7055 20.904V25H34.0095ZM51.1903 25.192C50.4329 25.192 49.7503 25.0213 49.1423 24.68C48.5449 24.328 48.0703 23.8427 47.7183 23.224C47.3663 22.5947 47.1903 21.864 47.1903 21.032C47.1903 20.2 47.3663 19.4747 47.7183 18.856C48.0809 18.2267 48.5663 17.7413 49.1743 17.4C49.7823 17.048 50.4596 16.872 51.2063 16.872C51.9636 16.872 52.6409 17.048 53.2383 17.4C53.8463 17.7413 54.3263 18.2267 54.6783 18.856C55.0409 19.4747 55.2222 20.2 55.2222 21.032C55.2222 21.864 55.0409 22.5947 54.6783 23.224C54.3263 23.8427 53.8463 24.328 53.2383 24.68C52.6303 25.0213 51.9476 25.192 51.1903 25.192ZM51.1903 23.736C51.5956 23.736 51.9689 23.6347 52.3103 23.432C52.6623 23.2293 52.9449 22.9307 53.1583 22.536C53.3716 22.1307 53.4783 21.6293 53.4783 21.032C53.4783 20.4347 53.3716 19.9387 53.1583 19.544C52.9556 19.1387 52.6783 18.8347 52.3263 18.632C51.9849 18.4293 51.6116 18.328 51.2063 18.328C50.8009 18.328 50.4223 18.4293 50.0703 18.632C49.7289 18.8347 49.4516 19.1387 49.2383 19.544C49.0249 19.9387 48.9183 20.4347 48.9183 21.032C48.9183 21.6293 49.0249 22.1307 49.2383 22.536C49.4516 22.9307 49.7289 23.2293 50.0703 23.432C50.4116 23.6347 50.7849 23.736 51.1903 23.736ZM57.0564 25V17.064H58.5604L58.6884 18.456C58.9337 17.9653 59.291 17.5813 59.7604 17.304C60.2404 17.016 60.7897 16.872 61.4084 16.872C62.3684 16.872 63.1204 17.1707 63.6644 17.768C64.219 18.3653 64.4964 19.256 64.4964 20.44V25H62.8164V20.616C62.8164 19.08 62.187 18.312 60.9284 18.312C60.299 18.312 59.7764 18.536 59.3604 18.984C58.955 19.432 58.7524 20.072 58.7524 20.904V25H57.0564ZM70.5891 25V13.8H74.5091C75.3838 13.8 76.1091 13.9493 76.6851 14.248C77.2611 14.536 77.6878 14.936 77.9651 15.448C78.2531 15.9493 78.3971 16.52 78.3971 17.16C78.3971 17.768 78.2585 18.328 77.9811 18.84C77.7145 19.3413 77.2931 19.7413 76.7171 20.04C76.1411 20.3387 75.4051 20.488 74.5091 20.488H72.2851V25H70.5891ZM72.2851 19.096H74.4291C75.2291 19.096 75.7998 18.9253 76.1411 18.584C76.4931 18.232 76.6691 17.7573 76.6691 17.16C76.6691 16.5413 76.4931 16.0613 76.1411 15.72C75.7998 15.368 75.2291 15.192 74.4291 15.192H72.2851V19.096ZM80.9695 15.56C80.6495 15.56 80.3828 15.464 80.1695 15.272C79.9668 15.0693 79.8655 14.8187 79.8655 14.52C79.8655 14.2213 79.9668 13.976 80.1695 13.784C80.3828 13.5813 80.6495 13.48 80.9695 13.48C81.2895 13.48 81.5508 13.5813 81.7535 13.784C81.9668 13.976 82.0735 14.2213 82.0735 14.52C82.0735 14.8187 81.9668 15.0693 81.7535 15.272C81.5508 15.464 81.2895 15.56 80.9695 15.56ZM80.1215 25V17.064H81.8175V25H80.1215ZM84.0564 25V17.064H85.5604L85.6884 18.456C85.9337 17.9653 86.291 17.5813 86.7604 17.304C87.2404 17.016 87.7897 16.872 88.4084 16.872C89.3684 16.872 90.1204 17.1707 90.6644 17.768C91.219 18.3653 91.4964 19.256 91.4964 20.44V25H89.8164V20.616C89.8164 19.08 89.187 18.312 87.9284 18.312C87.299 18.312 86.7764 18.536 86.3604 18.984C85.955 19.432 85.7524 20.072 85.7524 20.904V25H84.0564ZM96.8219 25C96.0432 25 95.4245 24.8133 94.9659 24.44C94.5072 24.056 94.2779 23.3787 94.2779 22.408V18.488H92.9179V17.064H94.2779L94.4859 15.048H95.9739V17.064H98.2139V18.488H95.9739V22.408C95.9739 22.8453 96.0645 23.1493 96.2459 23.32C96.4379 23.48 96.7632 23.56 97.2219 23.56H98.1339V25H96.8219ZM103.472 25.192C102.693 25.192 102 25.0213 101.392 24.68C100.794 24.328 100.325 23.8427 99.9835 23.224C99.6422 22.6053 99.4715 21.8853 99.4715 21.064C99.4715 20.232 99.6368 19.5013 99.9675 18.872C100.309 18.2427 100.778 17.752 101.376 17.4C101.984 17.048 102.688 16.872 103.488 16.872C104.266 16.872 104.944 17.048 105.52 17.4C106.096 17.7413 106.544 18.2 106.864 18.776C107.184 19.352 107.344 19.9867 107.344 20.68C107.344 20.7867 107.338 20.904 107.328 21.032C107.328 21.1493 107.322 21.2827 107.312 21.432H101.136C101.189 22.2 101.44 22.7867 101.888 23.192C102.346 23.5867 102.874 23.784 103.472 23.784C103.952 23.784 104.352 23.6773 104.672 23.464C105.002 23.24 105.248 22.9413 105.408 22.568H107.104C106.89 23.3147 106.464 23.9387 105.824 24.44C105.194 24.9413 104.41 25.192 103.472 25.192ZM103.472 18.264C102.906 18.264 102.405 18.4347 101.968 18.776C101.53 19.1067 101.264 19.608 101.168 20.28H105.648C105.616 19.6613 105.397 19.1707 104.992 18.808C104.586 18.4453 104.08 18.264 103.472 18.264ZM109.103 25V17.064H110.623L110.767 18.568C111.045 18.0453 111.429 17.6347 111.919 17.336C112.421 17.0267 113.023 16.872 113.727 16.872V18.648H113.263C112.794 18.648 112.373 18.728 111.999 18.888C111.637 19.0373 111.343 19.2987 111.119 19.672C110.906 20.0347 110.799 20.5413 110.799 21.192V25H109.103ZM118.675 25.192C117.896 25.192 117.203 25.0213 116.595 24.68C115.997 24.328 115.528 23.8427 115.187 23.224C114.845 22.6053 114.675 21.8853 114.675 21.064C114.675 20.232 114.84 19.5013 115.171 18.872C115.512 18.2427 115.981 17.752 116.579 17.4C117.187 17.048 117.891 16.872 118.691 16.872C119.469 16.872 120.147 17.048 120.723 17.4C121.299 17.7413 121.747 18.2 122.067 18.776C122.387 19.352 122.547 19.9867 122.547 20.68C122.547 20.7867 122.541 20.904 122.531 21.032C122.531 21.1493 122.525 21.2827 122.515 21.432H116.339C116.392 22.2 116.643 22.7867 117.091 23.192C117.549 23.5867 118.077 23.784 118.675 23.784C119.155 23.784 119.555 23.6773 119.875 23.464C120.205 23.24 120.451 22.9413 120.611 22.568H122.307C122.093 23.3147 121.667 23.9387 121.027 24.44C120.397 24.9413 119.613 25.192 118.675 25.192ZM118.675 18.264C118.109 18.264 117.608 18.4347 117.171 18.776C116.733 19.1067 116.467 19.608 116.371 20.28H120.851C120.819 19.6613 120.6 19.1707 120.195 18.808C119.789 18.4453 119.283 18.264 118.675 18.264ZM127.474 25.192C126.472 25.192 125.645 24.9467 124.994 24.456C124.344 23.9653 123.97 23.3147 123.874 22.504H125.586C125.672 22.8667 125.874 23.1813 126.194 23.448C126.514 23.704 126.936 23.832 127.458 23.832C127.97 23.832 128.344 23.7253 128.578 23.512C128.813 23.2987 128.93 23.0533 128.93 22.776C128.93 22.3707 128.765 22.0987 128.434 21.96C128.114 21.8107 127.666 21.6773 127.09 21.56C126.642 21.464 126.194 21.336 125.746 21.176C125.309 21.016 124.941 20.792 124.642 20.504C124.354 20.2053 124.21 19.8053 124.21 19.304C124.21 18.6107 124.477 18.0347 125.01 17.576C125.544 17.1067 126.29 16.872 127.25 16.872C128.136 16.872 128.85 17.0853 129.394 17.512C129.949 17.9387 130.274 18.5413 130.37 19.32H128.738C128.685 18.9787 128.525 18.712 128.258 18.52C128.002 18.328 127.656 18.232 127.218 18.232C126.792 18.232 126.461 18.3227 126.226 18.504C125.992 18.6747 125.874 18.8987 125.874 19.176C125.874 19.4533 126.034 19.672 126.354 19.832C126.685 19.992 127.117 20.136 127.65 20.264C128.184 20.3813 128.674 20.52 129.122 20.68C129.581 20.8293 129.949 21.0533 130.226 21.352C130.504 21.6507 130.642 22.088 130.642 22.664C130.653 23.3893 130.37 23.992 129.794 24.472C129.229 24.952 128.456 25.192 127.474 25.192ZM135.525 25C134.746 25 134.128 24.8133 133.669 24.44C133.21 24.056 132.981 23.3787 132.981 22.408V18.488H131.621V17.064H132.981L133.189 15.048H134.677V17.064H136.917V18.488H134.677V22.408C134.677 22.8453 134.768 23.1493 134.949 23.32C135.141 23.48 135.466 23.56 135.925 23.56H136.837V25H135.525Z" fill="#1E0E62"/>
</svg>
