<svg width="173" height="45" viewBox="0 0 173 45" fill="none" xmlns="http://www.w3.org/2000/svg">
<g clip-path="url(#clip0_464_1005)">
<path d="M153 1.125H20C9.50659 1.125 1 10.6949 1 22.5C1 34.3051 9.50659 43.875 20 43.875H153C163.493 43.875 172 34.3051 172 22.5C172 10.6949 163.493 1.125 153 1.125Z" stroke="#EBEAED" stroke-width="2"/>
<path d="M24.1679 28.341C23.3466 28.341 22.6266 28.179 22.0079 27.855C21.3893 27.531 20.9039 27.069 20.5519 26.469C20.2106 25.8691 20.0346 25.155 20.0239 24.327H21.8159C21.8266 24.999 22.0346 25.569 22.4399 26.037C22.8453 26.505 23.4159 26.739 24.1519 26.739C24.8026 26.739 25.3093 26.565 25.6719 26.217C26.0453 25.857 26.2319 25.4011 26.2319 24.849C26.2319 24.405 26.1413 24.045 25.9599 23.769C25.7893 23.4931 25.5493 23.265 25.2399 23.085C24.9413 22.905 24.5946 22.743 24.1999 22.599C23.8053 22.455 23.3893 22.299 22.9519 22.131C22.0879 21.807 21.4373 21.3871 20.9999 20.871C20.5733 20.355 20.3599 19.6771 20.3599 18.837C20.3493 18.1291 20.4933 17.511 20.7919 16.983C21.1013 16.4551 21.5279 16.047 22.0719 15.759C22.6266 15.459 23.2719 15.309 24.0079 15.309C24.7333 15.309 25.3679 15.459 25.9119 15.759C26.4666 16.0591 26.8986 16.479 27.2079 17.019C27.5173 17.547 27.6773 18.1651 27.6879 18.873H25.8959C25.8959 18.549 25.8213 18.243 25.6719 17.955C25.5226 17.655 25.3039 17.4091 25.0159 17.217C24.7279 17.025 24.3759 16.929 23.9599 16.929C23.4266 16.917 22.9839 17.0671 22.6319 17.379C22.2906 17.691 22.1199 18.123 22.1199 18.675C22.1199 19.167 22.2479 19.545 22.5039 19.809C22.7599 20.0731 23.1119 20.295 23.5599 20.475C24.0079 20.643 24.5199 20.841 25.0959 21.069C25.6506 21.273 26.1466 21.519 26.5839 21.807C27.0213 22.095 27.3679 22.473 27.6239 22.941C27.8906 23.409 28.0239 24.003 28.0239 24.723C28.0239 25.359 27.8799 25.953 27.5919 26.505C27.3039 27.045 26.8719 27.4891 26.2959 27.837C25.7199 28.1731 25.0106 28.341 24.1679 28.341ZM33.5262 28.341C32.7475 28.341 32.0542 28.149 31.4462 27.765C30.8489 27.369 30.3795 26.8231 30.0382 26.127C29.6969 25.431 29.5262 24.621 29.5262 23.697C29.5262 22.761 29.6915 21.939 30.0222 21.231C30.3635 20.5231 30.8329 19.971 31.4302 19.575C32.0382 19.179 32.7422 18.981 33.5422 18.981C34.3209 18.981 34.9982 19.179 35.5742 19.575C36.1502 19.959 36.5982 20.475 36.9182 21.123C37.2382 21.771 37.3982 22.4851 37.3982 23.265C37.3982 23.3851 37.3929 23.517 37.3822 23.661C37.3822 23.793 37.3769 23.9431 37.3662 24.111H31.1902C31.2435 24.975 31.4942 25.6351 31.9422 26.091C32.4009 26.5351 32.9289 26.757 33.5262 26.757C34.0062 26.757 34.4062 26.637 34.7262 26.397C35.0569 26.145 35.3022 25.809 35.4622 25.389H37.1582C36.9449 26.2291 36.5182 26.9311 35.8782 27.495C35.2489 28.059 34.4649 28.341 33.5262 28.341ZM33.5262 20.547C32.9609 20.547 32.4595 20.7391 32.0222 21.123C31.5849 21.4951 31.3182 22.059 31.2222 22.815H35.7022C35.6702 22.119 35.4515 21.5671 35.0462 21.159C34.6409 20.751 34.1342 20.547 33.5262 20.547ZM39.1579 28.125V19.197H40.6619L40.7899 20.763C41.0353 20.211 41.3926 19.779 41.8619 19.467C42.3419 19.143 42.8913 18.981 43.5099 18.981C44.4699 18.981 45.2219 19.3171 45.7659 19.989C46.3206 20.661 46.5979 21.663 46.5979 22.995V28.125H44.9179V23.193C44.9179 21.465 44.2886 20.601 43.0299 20.601C42.4006 20.601 41.8779 20.853 41.4619 21.357C41.0566 21.861 40.8539 22.581 40.8539 23.517V28.125H39.1579ZM52.2114 28.341C51.4434 28.341 50.7661 28.1371 50.1794 27.729C49.5928 27.321 49.1341 26.763 48.8034 26.055C48.4728 25.3471 48.3074 24.543 48.3074 23.643C48.3074 22.743 48.4728 21.9451 48.8034 21.249C49.1341 20.5411 49.5928 19.989 50.1794 19.593C50.7768 19.185 51.4594 18.981 52.2274 18.981C52.8568 18.981 53.4061 19.1191 53.8754 19.395C54.3554 19.671 54.7288 20.061 54.9954 20.565V15.165H56.6914V28.125H55.1714L54.9954 26.739C54.7394 27.159 54.3874 27.531 53.9394 27.855C53.4914 28.179 52.9154 28.341 52.2114 28.341ZM52.5154 26.685C53.2408 26.685 53.8328 26.403 54.2914 25.839C54.7608 25.2751 54.9954 24.549 54.9954 23.661C54.9954 22.761 54.7608 22.0351 54.2914 21.483C53.8328 20.9191 53.2408 20.637 52.5154 20.637C51.7901 20.637 51.1928 20.9191 50.7234 21.483C50.2541 22.0351 50.0194 22.761 50.0194 23.661C50.0194 24.2491 50.1261 24.7711 50.3394 25.227C50.5528 25.683 50.8461 26.043 51.2194 26.307C51.6034 26.559 52.0354 26.685 52.5154 26.685ZM66.5731 28.341C65.8157 28.341 65.1331 28.149 64.5251 27.765C63.9277 27.369 63.4531 26.8231 63.1011 26.127C62.7491 25.4191 62.5731 24.597 62.5731 23.661C62.5731 22.725 62.7491 21.9091 63.1011 21.213C63.4637 20.5051 63.9491 19.959 64.5571 19.575C65.1651 19.179 65.8424 18.981 66.5891 18.981C67.3464 18.981 68.0237 19.179 68.6211 19.575C69.2291 19.959 69.7091 20.5051 70.0611 21.213C70.4237 21.9091 70.6051 22.725 70.6051 23.661C70.6051 24.597 70.4237 25.4191 70.0611 26.127C69.7091 26.8231 69.2291 27.369 68.6211 27.765C68.0131 28.149 67.3304 28.341 66.5731 28.341ZM66.5731 26.703C66.9784 26.703 67.3517 26.5891 67.6931 26.361C68.0451 26.133 68.3277 25.7971 68.5411 25.353C68.7544 24.8971 68.8611 24.333 68.8611 23.661C68.8611 22.9891 68.7544 22.4311 68.5411 21.987C68.3384 21.5311 68.0611 21.1891 67.7091 20.961C67.3677 20.733 66.9944 20.619 66.5891 20.619C66.1837 20.619 65.8051 20.733 65.4531 20.961C65.1117 21.1891 64.8344 21.5311 64.6211 21.987C64.4077 22.4311 64.3011 22.9891 64.3011 23.661C64.3011 24.333 64.4077 24.8971 64.6211 25.353C64.8344 25.7971 65.1117 26.133 65.4531 26.361C65.7944 26.5891 66.1677 26.703 66.5731 26.703ZM72.4392 28.125V19.197H73.9432L74.0712 20.763C74.3165 20.211 74.6739 19.779 75.1432 19.467C75.6232 19.143 76.1725 18.981 76.7912 18.981C77.7512 18.981 78.5032 19.3171 79.0472 19.989C79.6019 20.661 79.8792 21.663 79.8792 22.995V28.125H78.1992V23.193C78.1992 21.465 77.5699 20.601 76.3112 20.601C75.6819 20.601 75.1592 20.853 74.7432 21.357C74.3379 21.861 74.1352 22.581 74.1352 23.517V28.125H72.4392ZM88.5959 28.125V17.073H85.2839V15.525H93.5879V17.073H90.2919V28.125H88.5959ZM97.3856 28.341C96.6069 28.341 95.9136 28.149 95.3056 27.765C94.7082 27.369 94.2389 26.8231 93.8976 26.127C93.5562 25.431 93.3856 24.621 93.3856 23.697C93.3856 22.761 93.5509 21.939 93.8816 21.231C94.2229 20.5231 94.6922 19.971 95.2896 19.575C95.8976 19.179 96.6016 18.981 97.4016 18.981C98.1802 18.981 98.8576 19.179 99.4336 19.575C100.01 19.959 100.458 20.475 100.778 21.123C101.098 21.771 101.258 22.4851 101.258 23.265C101.258 23.3851 101.252 23.517 101.242 23.661C101.242 23.793 101.236 23.9431 101.226 24.111H95.0496C95.1029 24.975 95.3536 25.6351 95.8016 26.091C96.2602 26.5351 96.7882 26.757 97.3856 26.757C97.8656 26.757 98.2656 26.637 98.5856 26.397C98.9162 26.145 99.1616 25.809 99.3216 25.389H101.018C100.804 26.2291 100.378 26.9311 99.7376 27.495C99.1082 28.059 98.3242 28.341 97.3856 28.341ZM97.3856 20.547C96.8202 20.547 96.3189 20.7391 95.8816 21.123C95.4442 21.4951 95.1776 22.059 95.0816 22.815H99.5616C99.5296 22.119 99.3109 21.5671 98.9056 21.159C98.5002 20.751 97.9936 20.547 97.3856 20.547ZM103.017 28.125V15.165H104.713V28.125H103.017ZM110.573 28.341C109.794 28.341 109.101 28.149 108.493 27.765C107.896 27.369 107.426 26.8231 107.085 26.127C106.744 25.431 106.573 24.621 106.573 23.697C106.573 22.761 106.738 21.939 107.069 21.231C107.41 20.5231 107.88 19.971 108.477 19.575C109.085 19.179 109.789 18.981 110.589 18.981C111.368 18.981 112.045 19.179 112.621 19.575C113.197 19.959 113.645 20.475 113.965 21.123C114.285 21.771 114.445 22.4851 114.445 23.265C114.445 23.3851 114.44 23.517 114.429 23.661C114.429 23.793 114.424 23.9431 114.413 24.111H108.237C108.29 24.975 108.541 25.6351 108.989 26.091C109.448 26.5351 109.976 26.757 110.573 26.757C111.053 26.757 111.453 26.637 111.773 26.397C112.104 26.145 112.349 25.809 112.509 25.389H114.205C113.992 26.2291 113.565 26.9311 112.925 27.495C112.296 28.059 111.512 28.341 110.573 28.341ZM110.573 20.547C110.008 20.547 109.506 20.7391 109.069 21.123C108.632 21.4951 108.365 22.059 108.269 22.815H112.749C112.717 22.119 112.498 21.5671 112.093 21.159C111.688 20.751 111.181 20.547 110.573 20.547ZM119.343 25.389C118.927 25.389 118.543 25.335 118.191 25.227L117.503 25.983C117.621 26.0671 117.765 26.1391 117.935 26.199C118.106 26.259 118.346 26.313 118.655 26.361C118.965 26.4091 119.386 26.457 119.919 26.505C120.975 26.613 121.738 26.901 122.207 27.369C122.677 27.825 122.911 28.437 122.911 29.205C122.911 29.733 122.783 30.231 122.527 30.699C122.282 31.1791 121.893 31.563 121.359 31.851C120.837 32.1511 120.165 32.301 119.343 32.301C118.234 32.301 117.333 32.0611 116.639 31.581C115.957 31.113 115.615 30.399 115.615 29.439C115.615 29.067 115.701 28.6951 115.871 28.323C116.053 27.963 116.335 27.621 116.719 27.297C116.495 27.189 116.298 27.0751 116.127 26.955C115.967 26.8231 115.823 26.691 115.695 26.559V26.127L117.071 24.543C116.453 23.9431 116.143 23.157 116.143 22.185C116.143 21.597 116.266 21.0631 116.511 20.583C116.767 20.0911 117.135 19.701 117.615 19.413C118.095 19.125 118.671 18.981 119.343 18.981C119.791 18.981 120.207 19.053 120.591 19.197H123.551V20.457L122.143 20.547C122.399 21.039 122.527 21.5851 122.527 22.185C122.527 22.785 122.399 23.325 122.143 23.805C121.898 24.2851 121.535 24.669 121.055 24.957C120.586 25.245 120.015 25.389 119.343 25.389ZM119.343 23.895C119.834 23.895 120.229 23.751 120.527 23.463C120.837 23.163 120.991 22.743 120.991 22.203C120.991 21.651 120.837 21.231 120.527 20.943C120.229 20.655 119.834 20.511 119.343 20.511C118.842 20.511 118.437 20.655 118.127 20.943C117.829 21.231 117.679 21.651 117.679 22.203C117.679 22.743 117.829 23.163 118.127 23.463C118.437 23.751 118.842 23.895 119.343 23.895ZM117.215 29.259C117.215 29.7751 117.418 30.159 117.823 30.411C118.229 30.6751 118.735 30.807 119.343 30.807C119.93 30.807 120.405 30.663 120.767 30.375C121.13 30.0991 121.311 29.727 121.311 29.259C121.311 28.9111 121.189 28.611 120.943 28.359C120.698 28.1191 120.234 27.969 119.551 27.909C119.039 27.873 118.586 27.819 118.191 27.747C117.818 27.9751 117.562 28.221 117.423 28.485C117.285 28.7491 117.215 29.007 117.215 29.259ZM125.064 28.125V19.197H126.584L126.728 20.889C127.006 20.301 127.39 19.8391 127.88 19.503C128.382 19.1551 128.984 18.981 129.688 18.981V20.979H129.224C128.755 20.979 128.334 21.069 127.96 21.249C127.598 21.417 127.304 21.7111 127.08 22.131C126.867 22.5391 126.76 23.109 126.76 23.841V28.125H125.064ZM133.83 28.341C133.158 28.341 132.604 28.215 132.166 27.963C131.729 27.711 131.404 27.3811 131.19 26.973C130.977 26.5531 130.87 26.097 130.87 25.605C130.87 24.741 131.169 24.057 131.766 23.553C132.364 23.049 133.217 22.797 134.326 22.797H136.406V22.635C136.406 21.939 136.236 21.417 135.894 21.069C135.564 20.7211 135.132 20.547 134.598 20.547C134.129 20.547 133.718 20.679 133.366 20.943C133.025 21.195 132.817 21.573 132.742 22.077H131.046C131.1 21.429 131.292 20.877 131.622 20.421C131.964 19.953 132.39 19.599 132.902 19.359C133.425 19.107 133.996 18.981 134.614 18.981C135.724 18.981 136.582 19.311 137.19 19.971C137.798 20.619 138.102 21.507 138.102 22.635V28.125H136.63L136.486 26.595C136.262 27.087 135.937 27.501 135.51 27.837C135.084 28.1731 134.524 28.341 133.83 28.341ZM134.166 26.793C134.625 26.793 135.009 26.673 135.318 26.433C135.638 26.181 135.884 25.8511 136.054 25.443C136.236 25.035 136.348 24.585 136.39 24.093H134.502C133.83 24.093 133.35 24.225 133.062 24.489C132.785 24.7531 132.646 25.083 132.646 25.479C132.646 25.8871 132.78 26.2111 133.046 26.451C133.324 26.6791 133.697 26.793 134.166 26.793ZM140.08 28.125V19.197H141.584L141.728 20.457C141.984 20.0011 142.32 19.6411 142.736 19.377C143.162 19.113 143.653 18.981 144.208 18.981C145.466 18.981 146.341 19.539 146.832 20.655C147.12 20.139 147.504 19.7311 147.984 19.431C148.474 19.131 149.002 18.981 149.568 18.981C150.56 18.981 151.338 19.3171 151.904 19.989C152.469 20.661 152.752 21.663 152.752 22.995V28.125H151.056V23.193C151.056 21.465 150.469 20.601 149.296 20.601C148.698 20.601 148.208 20.853 147.824 21.357C147.45 21.861 147.264 22.581 147.264 23.517V28.125H145.568V23.193C145.568 21.465 144.976 20.601 143.792 20.601C143.205 20.601 142.72 20.853 142.336 21.357C141.962 21.861 141.776 22.581 141.776 23.517V28.125H140.08Z" fill="#7583FF"/>
</g>
<defs>
<clipPath id="clip0_464_1005">
<rect width="173" height="45" fill="white"/>
</clipPath>
</defs>
</svg>
