<svg width="182" height="45" viewBox="0 0 182 45" fill="none" xmlns="http://www.w3.org/2000/svg">
<g clip-path="url(#clip0_464_985)">
<path d="M162 1.125H20C9.50659 1.125 1 10.6949 1 22.5C1 34.3051 9.50659 43.875 20 43.875H162C172.493 43.875 181 34.3051 181 22.5C181 10.6949 172.493 1.125 162 1.125Z" stroke="#EBEAED" stroke-width="2"/>
<path d="M23.957 28.341C23.1357 28.341 22.4157 28.179 21.797 27.855C21.1783 27.531 20.693 27.069 20.341 26.469C19.9997 25.8691 19.8237 25.155 19.813 24.327H21.605C21.6157 24.999 21.8237 25.569 22.229 26.037C22.6343 26.505 23.205 26.739 23.941 26.739C24.5917 26.739 25.0983 26.565 25.461 26.217C25.8343 25.857 26.021 25.4011 26.021 24.849C26.021 24.405 25.9303 24.045 25.749 23.769C25.5783 23.4931 25.3383 23.265 25.029 23.085C24.7303 22.905 24.3837 22.743 23.989 22.599C23.5943 22.455 23.1783 22.299 22.741 22.131C21.877 21.807 21.2263 21.3871 20.789 20.871C20.3623 20.355 20.149 19.6771 20.149 18.837C20.1383 18.1291 20.2823 17.511 20.581 16.983C20.8903 16.4551 21.317 16.047 21.861 15.759C22.4157 15.459 23.061 15.309 23.797 15.309C24.5223 15.309 25.157 15.459 25.701 15.759C26.2557 16.0591 26.6877 16.479 26.997 17.019C27.3063 17.547 27.4663 18.1651 27.477 18.873H25.685C25.685 18.549 25.6103 18.243 25.461 17.955C25.3117 17.655 25.093 17.4091 24.805 17.217C24.517 17.025 24.165 16.929 23.749 16.929C23.2157 16.917 22.773 17.0671 22.421 17.379C22.0797 17.691 21.909 18.123 21.909 18.675C21.909 19.167 22.037 19.545 22.293 19.809C22.549 20.0731 22.901 20.295 23.349 20.475C23.797 20.643 24.309 20.841 24.885 21.069C25.4397 21.273 25.9357 21.519 26.373 21.807C26.8103 22.095 27.157 22.473 27.413 22.941C27.6797 23.409 27.813 24.003 27.813 24.723C27.813 25.359 27.669 25.953 27.381 26.505C27.093 27.045 26.661 27.4891 26.085 27.837C25.509 28.1731 24.7997 28.341 23.957 28.341ZM29.6033 28.125V15.165H31.2993V20.637C31.5659 20.121 31.9339 19.719 32.4033 19.431C32.8833 19.131 33.4113 18.981 33.9873 18.981C34.9366 18.981 35.6833 19.3171 36.2273 19.989C36.7713 20.661 37.0433 21.663 37.0433 22.995V28.125H35.3633V23.193C35.3633 21.465 34.7499 20.601 33.5233 20.601C32.8833 20.601 32.3499 20.853 31.9233 21.357C31.5073 21.861 31.2993 22.581 31.2993 23.517V28.125H29.6033ZM41.7288 28.341C41.0568 28.341 40.5021 28.215 40.0648 27.963C39.6274 27.711 39.3021 27.3811 39.0888 26.973C38.8754 26.5531 38.7688 26.097 38.7688 25.605C38.7688 24.741 39.0674 24.057 39.6648 23.553C40.2621 23.049 41.1154 22.797 42.2248 22.797H44.3048V22.635C44.3048 21.939 44.1341 21.417 43.7928 21.069C43.4621 20.7211 43.0301 20.547 42.4968 20.547C42.0274 20.547 41.6168 20.679 41.2648 20.943C40.9234 21.195 40.7154 21.573 40.6408 22.077H38.9448C38.9981 21.429 39.1901 20.877 39.5208 20.421C39.8621 19.953 40.2888 19.599 40.8008 19.359C41.3234 19.107 41.8941 18.981 42.5128 18.981C43.6221 18.981 44.4808 19.311 45.0888 19.971C45.6968 20.619 46.0008 21.507 46.0008 22.635V28.125H44.5288L44.3848 26.595C44.1608 27.087 43.8354 27.501 43.4088 27.837C42.9821 28.1731 42.4221 28.341 41.7288 28.341ZM42.0648 26.793C42.5234 26.793 42.9074 26.673 43.2168 26.433C43.5368 26.181 43.7821 25.8511 43.9528 25.443C44.1341 25.035 44.2461 24.585 44.2888 24.093H42.4008C41.7288 24.093 41.2488 24.225 40.9608 24.489C40.6834 24.7531 40.5448 25.083 40.5448 25.479C40.5448 25.8871 40.6781 26.2111 40.9448 26.451C41.2221 26.6791 41.5954 26.793 42.0648 26.793ZM47.9783 28.125V19.197H49.4983L49.6423 20.889C49.9196 20.301 50.3036 19.8391 50.7943 19.503C51.2956 19.1551 51.8983 18.981 52.6023 18.981V20.979H52.1383C51.6689 20.979 51.2476 21.069 50.8743 21.249C50.5116 21.417 50.2183 21.7111 49.9943 22.131C49.7809 22.5391 49.6743 23.109 49.6743 23.841V28.125H47.9783ZM57.5496 28.341C56.771 28.341 56.0776 28.149 55.4696 27.765C54.8723 27.369 54.403 26.8231 54.0616 26.127C53.7203 25.431 53.5496 24.621 53.5496 23.697C53.5496 22.761 53.715 21.939 54.0456 21.231C54.387 20.5231 54.8563 19.971 55.4536 19.575C56.0616 19.179 56.7656 18.981 57.5656 18.981C58.3443 18.981 59.0216 19.179 59.5976 19.575C60.1736 19.959 60.6216 20.475 60.9416 21.123C61.2616 21.771 61.4216 22.4851 61.4216 23.265C61.4216 23.3851 61.4163 23.517 61.4056 23.661C61.4056 23.793 61.4003 23.9431 61.3896 24.111H55.2136C55.267 24.975 55.5176 25.6351 55.9656 26.091C56.4243 26.5351 56.9523 26.757 57.5496 26.757C58.0296 26.757 58.4296 26.637 58.7496 26.397C59.0803 26.145 59.3256 25.809 59.4856 25.389H61.1816C60.9683 26.2291 60.5416 26.9311 59.9016 27.495C59.2723 28.059 58.4883 28.341 57.5496 28.341ZM57.5496 20.547C56.9843 20.547 56.483 20.7391 56.0456 21.123C55.6083 21.4951 55.3416 22.059 55.2456 22.815H59.7256C59.6936 22.119 59.475 21.5671 59.0696 21.159C58.6643 20.751 58.1576 20.547 57.5496 20.547ZM70.9246 28.341C70.1673 28.341 69.4846 28.149 68.8766 27.765C68.2793 27.369 67.8046 26.8231 67.4526 26.127C67.1006 25.4191 66.9246 24.597 66.9246 23.661C66.9246 22.725 67.1006 21.9091 67.4526 21.213C67.8153 20.5051 68.3006 19.959 68.9086 19.575C69.5166 19.179 70.194 18.981 70.9406 18.981C71.698 18.981 72.3753 19.179 72.9726 19.575C73.5806 19.959 74.0606 20.5051 74.4126 21.213C74.7753 21.9091 74.9566 22.725 74.9566 23.661C74.9566 24.597 74.7753 25.4191 74.4126 26.127C74.0606 26.8231 73.5806 27.369 72.9726 27.765C72.3646 28.149 71.682 28.341 70.9246 28.341ZM70.9246 26.703C71.33 26.703 71.7033 26.5891 72.0446 26.361C72.3966 26.133 72.6793 25.7971 72.8926 25.353C73.106 24.8971 73.2126 24.333 73.2126 23.661C73.2126 22.9891 73.106 22.4311 72.8926 21.987C72.69 21.5311 72.4126 21.1891 72.0606 20.961C71.7193 20.733 71.346 20.619 70.9406 20.619C70.5353 20.619 70.1566 20.733 69.8046 20.961C69.4633 21.1891 69.186 21.5311 68.9726 21.987C68.7593 22.4311 68.6526 22.9891 68.6526 23.661C68.6526 24.333 68.7593 24.8971 68.9726 25.353C69.186 25.7971 69.4633 26.133 69.8046 26.361C70.146 26.5891 70.5193 26.703 70.9246 26.703ZM76.7908 28.125V19.197H78.2948L78.4228 20.763C78.6681 20.211 79.0254 19.779 79.4948 19.467C79.9748 19.143 80.5241 18.981 81.1428 18.981C82.1028 18.981 82.8548 19.3171 83.3988 19.989C83.9534 20.661 84.2308 21.663 84.2308 22.995V28.125H82.5508V23.193C82.5508 21.465 81.9214 20.601 80.6628 20.601C80.0334 20.601 79.5108 20.853 79.0948 21.357C78.6894 21.861 78.4868 22.581 78.4868 23.517V28.125H76.7908ZM90.3235 28.125V15.525H97.3475V17.073H92.0195V21.051H96.4355V22.581H92.0195V28.125H90.3235ZM101.026 28.341C100.354 28.341 99.799 28.215 99.3616 27.963C98.9243 27.711 98.599 27.3811 98.3856 26.973C98.1723 26.5531 98.0656 26.097 98.0656 25.605C98.0656 24.741 98.3643 24.057 98.9616 23.553C99.559 23.049 100.412 22.797 101.522 22.797H103.602V22.635C103.602 21.939 103.431 21.417 103.09 21.069C102.759 20.7211 102.327 20.547 101.794 20.547C101.324 20.547 100.914 20.679 100.562 20.943C100.22 21.195 100.012 21.573 99.9376 22.077H98.2416C98.295 21.429 98.487 20.877 98.8176 20.421C99.159 19.953 99.5856 19.599 100.098 19.359C100.62 19.107 101.191 18.981 101.81 18.981C102.919 18.981 103.778 19.311 104.386 19.971C104.994 20.619 105.298 21.507 105.298 22.635V28.125H103.826L103.682 26.595C103.458 27.087 103.132 27.501 102.706 27.837C102.279 28.1731 101.719 28.341 101.026 28.341ZM101.362 26.793C101.82 26.793 102.204 26.673 102.514 26.433C102.834 26.181 103.079 25.8511 103.25 25.443C103.431 25.035 103.543 24.585 103.586 24.093H101.698C101.026 24.093 100.546 24.225 100.258 24.489C99.9803 24.7531 99.8416 25.083 99.8416 25.479C99.8416 25.8871 99.975 26.2111 100.242 26.451C100.519 26.6791 100.892 26.793 101.362 26.793ZM111.035 28.341C110.256 28.341 109.558 28.143 108.939 27.747C108.331 27.351 107.851 26.8051 107.499 26.109C107.158 25.4011 106.987 24.585 106.987 23.661C106.987 22.7371 107.158 21.9271 107.499 21.231C107.851 20.5231 108.331 19.971 108.939 19.575C109.558 19.179 110.256 18.981 111.035 18.981C112.016 18.981 112.838 19.269 113.499 19.845C114.171 20.421 114.603 21.201 114.795 22.185H113.019C112.912 21.6931 112.678 21.309 112.315 21.033C111.952 20.7571 111.526 20.619 111.035 20.619C110.619 20.619 110.235 20.7391 109.883 20.979C109.531 21.2071 109.248 21.5491 109.035 22.005C108.822 22.4491 108.715 23.001 108.715 23.661C108.715 24.3211 108.822 24.8791 109.035 25.335C109.248 25.7791 109.531 26.1211 109.883 26.361C110.235 26.601 110.619 26.721 111.035 26.721C111.526 26.721 111.952 26.583 112.315 26.307C112.678 26.0311 112.912 25.641 113.019 25.137H114.795C114.614 26.097 114.187 26.871 113.515 27.459C112.843 28.0471 112.016 28.341 111.035 28.341ZM120.347 28.341C119.568 28.341 118.875 28.149 118.267 27.765C117.669 27.369 117.2 26.8231 116.859 26.127C116.517 25.431 116.347 24.621 116.347 23.697C116.347 22.761 116.512 21.939 116.843 21.231C117.184 20.5231 117.653 19.971 118.251 19.575C118.859 19.179 119.563 18.981 120.363 18.981C121.141 18.981 121.819 19.179 122.395 19.575C122.971 19.959 123.419 20.475 123.739 21.123C124.059 21.771 124.219 22.4851 124.219 23.265C124.219 23.3851 124.213 23.517 124.203 23.661C124.203 23.793 124.197 23.9431 124.187 24.111H118.011C118.064 24.975 118.315 25.6351 118.763 26.091C119.221 26.5351 119.749 26.757 120.347 26.757C120.827 26.757 121.227 26.637 121.547 26.397C121.877 26.145 122.123 25.809 122.283 25.389H123.979C123.765 26.2291 123.339 26.9311 122.699 27.495C122.069 28.059 121.285 28.341 120.347 28.341ZM120.347 20.547C119.781 20.547 119.28 20.7391 118.843 21.123C118.405 21.4951 118.139 22.059 118.043 22.815H122.523C122.491 22.119 122.272 21.5671 121.867 21.159C121.461 20.751 120.955 20.547 120.347 20.547ZM130.442 28.341C129.824 28.341 129.274 28.203 128.794 27.927C128.325 27.6511 127.952 27.261 127.674 26.757L127.498 28.125H125.978V15.165H127.674V20.583C127.93 20.1631 128.282 19.791 128.73 19.467C129.178 19.143 129.754 18.981 130.458 18.981C131.226 18.981 131.904 19.185 132.49 19.593C133.077 20.0011 133.536 20.5591 133.866 21.267C134.208 21.975 134.378 22.779 134.378 23.679C134.378 24.579 134.208 25.3831 133.866 26.091C133.536 26.7871 133.077 27.339 132.49 27.747C131.904 28.143 131.221 28.341 130.442 28.341ZM130.154 26.685C130.88 26.685 131.477 26.4091 131.946 25.857C132.416 25.2931 132.65 24.561 132.65 23.661C132.65 23.073 132.544 22.551 132.33 22.095C132.117 21.6391 131.824 21.285 131.45 21.033C131.077 20.769 130.645 20.637 130.154 20.637C129.429 20.637 128.832 20.9191 128.362 21.483C127.904 22.047 127.674 22.7731 127.674 23.661C127.674 24.561 127.904 25.2931 128.362 25.857C128.832 26.4091 129.429 26.685 130.154 26.685ZM139.925 28.341C139.167 28.341 138.485 28.149 137.877 27.765C137.279 27.369 136.805 26.8231 136.453 26.127C136.101 25.4191 135.925 24.597 135.925 23.661C135.925 22.725 136.101 21.9091 136.453 21.213C136.815 20.5051 137.301 19.959 137.909 19.575C138.517 19.179 139.194 18.981 139.941 18.981C140.698 18.981 141.375 19.179 141.973 19.575C142.581 19.959 143.061 20.5051 143.413 21.213C143.775 21.9091 143.957 22.725 143.957 23.661C143.957 24.597 143.775 25.4191 143.413 26.127C143.061 26.8231 142.581 27.369 141.973 27.765C141.365 28.149 140.682 28.341 139.925 28.341ZM139.925 26.703C140.33 26.703 140.703 26.5891 141.045 26.361C141.397 26.133 141.679 25.7971 141.893 25.353C142.106 24.8971 142.213 24.333 142.213 23.661C142.213 22.9891 142.106 22.4311 141.893 21.987C141.69 21.5311 141.413 21.1891 141.061 20.961C140.719 20.733 140.346 20.619 139.941 20.619C139.535 20.619 139.157 20.733 138.805 20.961C138.463 21.1891 138.186 21.5311 137.973 21.987C137.759 22.4311 137.653 22.9891 137.653 23.661C137.653 24.333 137.759 24.8971 137.973 25.353C138.186 25.7971 138.463 26.133 138.805 26.361C139.146 26.5891 139.519 26.703 139.925 26.703ZM149.503 28.341C148.745 28.341 148.063 28.149 147.455 27.765C146.857 27.369 146.383 26.8231 146.031 26.127C145.679 25.4191 145.503 24.597 145.503 23.661C145.503 22.725 145.679 21.9091 146.031 21.213C146.393 20.5051 146.879 19.959 147.487 19.575C148.095 19.179 148.772 18.981 149.519 18.981C150.276 18.981 150.953 19.179 151.551 19.575C152.159 19.959 152.639 20.5051 152.991 21.213C153.353 21.9091 153.535 22.725 153.535 23.661C153.535 24.597 153.353 25.4191 152.991 26.127C152.639 26.8231 152.159 27.369 151.551 27.765C150.943 28.149 150.26 28.341 149.503 28.341ZM149.503 26.703C149.908 26.703 150.281 26.5891 150.623 26.361C150.975 26.133 151.257 25.7971 151.471 25.353C151.684 24.8971 151.791 24.333 151.791 23.661C151.791 22.9891 151.684 22.4311 151.471 21.987C151.268 21.5311 150.991 21.1891 150.639 20.961C150.297 20.733 149.924 20.619 149.519 20.619C149.113 20.619 148.735 20.733 148.383 20.961C148.041 21.1891 147.764 21.5311 147.551 21.987C147.337 22.4311 147.231 22.9891 147.231 23.661C147.231 24.333 147.337 24.8971 147.551 25.353C147.764 25.7971 148.041 26.133 148.383 26.361C148.724 26.5891 149.097 26.703 149.503 26.703ZM155.369 28.125V15.165H157.065V22.887L160.105 19.197H162.137L158.761 23.247L162.633 28.125H160.489L157.065 23.553V28.125H155.369Z" fill="#7583FF"/>
</g>
<defs>
<clipPath id="clip0_464_985">
<rect width="182" height="45" fill="white"/>
</clipPath>
</defs>
</svg>
