<svg width="202" height="50" viewBox="0 0 202 50" fill="none" xmlns="http://www.w3.org/2000/svg">
<rect width="202" height="50" rx="25" fill="#25DAC5"/>
<path d="M36.7126 31.216C35.5366 31.216 34.6006 30.886 33.9046 30.226C33.2206 29.566 32.8786 28.636 32.8786 27.436H34.7866C34.7866 28.036 34.9306 28.534 35.2186 28.93C35.5186 29.326 36.0046 29.524 36.6766 29.524C37.3366 29.524 37.8046 29.338 38.0806 28.966C38.3566 28.582 38.4946 28.096 38.4946 27.508V18.4H40.4026V27.508C40.4026 28.696 40.0726 29.614 39.4126 30.262C38.7526 30.898 37.8526 31.216 36.7126 31.216ZM47.0558 31.216C46.2038 31.216 45.4358 31.024 44.7518 30.64C44.0798 30.244 43.5458 29.698 43.1498 29.002C42.7538 28.294 42.5558 27.472 42.5558 26.536C42.5558 25.6 42.7538 24.784 43.1498 24.088C43.5578 23.38 44.1038 22.834 44.7878 22.45C45.4718 22.054 46.2338 21.856 47.0738 21.856C47.9258 21.856 48.6878 22.054 49.3598 22.45C50.0438 22.834 50.5838 23.38 50.9798 24.088C51.3878 24.784 51.5918 25.6 51.5918 26.536C51.5918 27.472 51.3878 28.294 50.9798 29.002C50.5838 29.698 50.0438 30.244 49.3598 30.64C48.6758 31.024 47.9078 31.216 47.0558 31.216ZM47.0558 29.578C47.5118 29.578 47.9318 29.464 48.3158 29.236C48.7118 29.008 49.0298 28.672 49.2698 28.228C49.5098 27.772 49.6298 27.208 49.6298 26.536C49.6298 25.864 49.5098 25.306 49.2698 24.862C49.0418 24.406 48.7298 24.064 48.3338 23.836C47.9498 23.608 47.5298 23.494 47.0738 23.494C46.6178 23.494 46.1918 23.608 45.7958 23.836C45.4118 24.064 45.0998 24.406 44.8598 24.862C44.6198 25.306 44.4998 25.864 44.4998 26.536C44.4998 27.208 44.6198 27.772 44.8598 28.228C45.0998 28.672 45.4118 29.008 45.7958 29.236C46.1798 29.464 46.5998 29.578 47.0558 29.578ZM54.7352 20.38C54.3752 20.38 54.0752 20.272 53.8352 20.056C53.6072 19.828 53.4932 19.546 53.4932 19.21C53.4932 18.874 53.6072 18.598 53.8352 18.382C54.0752 18.154 54.3752 18.04 54.7352 18.04C55.0952 18.04 55.3892 18.154 55.6172 18.382C55.8572 18.598 55.9772 18.874 55.9772 19.21C55.9772 19.546 55.8572 19.828 55.6172 20.056C55.3892 20.272 55.0952 20.38 54.7352 20.38ZM53.7812 31V22.072H55.6892V31H53.7812ZM58.208 31V22.072H59.9L60.044 23.638C60.32 23.086 60.722 22.654 61.25 22.342C61.79 22.018 62.408 21.856 63.104 21.856C64.184 21.856 65.03 22.192 65.642 22.864C66.266 23.536 66.578 24.538 66.578 25.87V31H64.688V26.068C64.688 24.34 63.98 23.476 62.564 23.476C61.856 23.476 61.268 23.728 60.8 24.232C60.344 24.736 60.116 25.456 60.116 26.392V31H58.208ZM77.5363 31.216C76.6843 31.216 75.9163 31.024 75.2323 30.64C74.5603 30.244 74.0263 29.698 73.6303 29.002C73.2343 28.294 73.0363 27.472 73.0363 26.536C73.0363 25.6 73.2343 24.784 73.6303 24.088C74.0383 23.38 74.5843 22.834 75.2683 22.45C75.9523 22.054 76.7143 21.856 77.5543 21.856C78.4063 21.856 79.1683 22.054 79.8403 22.45C80.5243 22.834 81.0643 23.38 81.4603 24.088C81.8683 24.784 82.0723 25.6 82.0723 26.536C82.0723 27.472 81.8683 28.294 81.4603 29.002C81.0643 29.698 80.5243 30.244 79.8403 30.64C79.1563 31.024 78.3883 31.216 77.5363 31.216ZM77.5363 29.578C77.9923 29.578 78.4123 29.464 78.7963 29.236C79.1923 29.008 79.5103 28.672 79.7503 28.228C79.9903 27.772 80.1103 27.208 80.1103 26.536C80.1103 25.864 79.9903 25.306 79.7503 24.862C79.5223 24.406 79.2103 24.064 78.8143 23.836C78.4303 23.608 78.0103 23.494 77.5543 23.494C77.0983 23.494 76.6723 23.608 76.2763 23.836C75.8923 24.064 75.5803 24.406 75.3403 24.862C75.1003 25.306 74.9803 25.864 74.9803 26.536C74.9803 27.208 75.1003 27.772 75.3403 28.228C75.5803 28.672 75.8923 29.008 76.2763 29.236C76.6603 29.464 77.0803 29.578 77.5363 29.578ZM87.4297 31.216C86.3497 31.216 85.4977 30.88 84.8737 30.208C84.2617 29.536 83.9557 28.534 83.9557 27.202V22.072H85.8637V27.004C85.8637 28.732 86.5717 29.596 87.9877 29.596C88.6957 29.596 89.2777 29.344 89.7337 28.84C90.1897 28.336 90.4177 27.616 90.4177 26.68V22.072H92.3257V31H90.6337L90.4897 29.434C90.2137 29.986 89.8057 30.424 89.2657 30.748C88.7377 31.06 88.1257 31.216 87.4297 31.216ZM94.7529 31V22.072H96.4629L96.6249 23.764C96.9369 23.176 97.3689 22.714 97.9209 22.378C98.4849 22.03 99.1629 21.856 99.9549 21.856V23.854H99.4329C98.9049 23.854 98.4309 23.944 98.0109 24.124C97.6029 24.292 97.2729 24.586 97.0209 25.006C96.7809 25.414 96.6609 25.984 96.6609 26.716V31H94.7529ZM110.194 31.216C109.33 31.216 108.568 31.012 107.908 30.604C107.248 30.196 106.732 29.638 106.36 28.93C105.988 28.222 105.802 27.418 105.802 26.518C105.802 25.618 105.988 24.82 106.36 24.124C106.732 23.416 107.248 22.864 107.908 22.468C108.58 22.06 109.348 21.856 110.212 21.856C110.92 21.856 111.538 21.994 112.066 22.27C112.606 22.546 113.026 22.936 113.326 23.44V18.04H115.234V31H113.524L113.326 29.614C113.038 30.034 112.642 30.406 112.138 30.73C111.634 31.054 110.986 31.216 110.194 31.216ZM110.536 29.56C111.352 29.56 112.018 29.278 112.534 28.714C113.062 28.15 113.326 27.424 113.326 26.536C113.326 25.636 113.062 24.91 112.534 24.358C112.018 23.794 111.352 23.512 110.536 23.512C109.72 23.512 109.048 23.794 108.52 24.358C107.992 24.91 107.728 25.636 107.728 26.536C107.728 27.124 107.848 27.646 108.088 28.102C108.328 28.558 108.658 28.918 109.078 29.182C109.51 29.434 109.996 29.56 110.536 29.56ZM118.72 20.38C118.36 20.38 118.06 20.272 117.82 20.056C117.592 19.828 117.478 19.546 117.478 19.21C117.478 18.874 117.592 18.598 117.82 18.382C118.06 18.154 118.36 18.04 118.72 18.04C119.08 18.04 119.374 18.154 119.602 18.382C119.842 18.598 119.962 18.874 119.962 19.21C119.962 19.546 119.842 19.828 119.602 20.056C119.374 20.272 119.08 20.38 118.72 20.38ZM117.766 31V22.072H119.674V31H117.766ZM125.756 31.216C124.628 31.216 123.698 30.94 122.966 30.388C122.234 29.836 121.814 29.104 121.706 28.192H123.632C123.728 28.6 123.956 28.954 124.316 29.254C124.676 29.542 125.15 29.686 125.738 29.686C126.314 29.686 126.734 29.566 126.998 29.326C127.262 29.086 127.394 28.81 127.394 28.498C127.394 28.042 127.208 27.736 126.836 27.58C126.476 27.412 125.972 27.262 125.324 27.13C124.82 27.022 124.316 26.878 123.812 26.698C123.32 26.518 122.906 26.266 122.57 25.942C122.246 25.606 122.084 25.156 122.084 24.592C122.084 23.812 122.384 23.164 122.984 22.648C123.584 22.12 124.424 21.856 125.504 21.856C126.5 21.856 127.304 22.096 127.916 22.576C128.54 23.056 128.906 23.734 129.014 24.61H127.178C127.118 24.226 126.938 23.926 126.638 23.71C126.35 23.494 125.96 23.386 125.468 23.386C124.988 23.386 124.616 23.488 124.352 23.692C124.088 23.884 123.956 24.136 123.956 24.448C123.956 24.76 124.136 25.006 124.496 25.186C124.868 25.366 125.354 25.528 125.954 25.672C126.554 25.804 127.106 25.96 127.61 26.14C128.126 26.308 128.54 26.56 128.852 26.896C129.164 27.232 129.32 27.724 129.32 28.372C129.332 29.188 129.014 29.866 128.366 30.406C127.73 30.946 126.86 31.216 125.756 31.216ZM135.633 31.216C134.757 31.216 133.971 31.018 133.275 30.622C132.591 30.226 132.051 29.68 131.655 28.984C131.271 28.276 131.079 27.46 131.079 26.536C131.079 25.612 131.271 24.802 131.655 24.106C132.051 23.398 132.591 22.846 133.275 22.45C133.971 22.054 134.757 21.856 135.633 21.856C136.737 21.856 137.661 22.144 138.405 22.72C139.161 23.296 139.647 24.076 139.863 25.06H137.865C137.745 24.568 137.481 24.184 137.073 23.908C136.665 23.632 136.185 23.494 135.633 23.494C135.165 23.494 134.733 23.614 134.337 23.854C133.941 24.082 133.623 24.424 133.383 24.88C133.143 25.324 133.023 25.876 133.023 26.536C133.023 27.196 133.143 27.754 133.383 28.21C133.623 28.654 133.941 28.996 134.337 29.236C134.733 29.476 135.165 29.596 135.633 29.596C136.185 29.596 136.665 29.458 137.073 29.182C137.481 28.906 137.745 28.516 137.865 28.012H139.863C139.659 28.972 139.179 29.746 138.423 30.334C137.667 30.922 136.737 31.216 135.633 31.216ZM146.109 31.216C145.257 31.216 144.489 31.024 143.805 30.64C143.133 30.244 142.599 29.698 142.203 29.002C141.807 28.294 141.609 27.472 141.609 26.536C141.609 25.6 141.807 24.784 142.203 24.088C142.611 23.38 143.157 22.834 143.841 22.45C144.525 22.054 145.287 21.856 146.127 21.856C146.979 21.856 147.741 22.054 148.413 22.45C149.097 22.834 149.637 23.38 150.033 24.088C150.441 24.784 150.645 25.6 150.645 26.536C150.645 27.472 150.441 28.294 150.033 29.002C149.637 29.698 149.097 30.244 148.413 30.64C147.729 31.024 146.961 31.216 146.109 31.216ZM146.109 29.578C146.565 29.578 146.985 29.464 147.369 29.236C147.765 29.008 148.083 28.672 148.323 28.228C148.563 27.772 148.683 27.208 148.683 26.536C148.683 25.864 148.563 25.306 148.323 24.862C148.095 24.406 147.783 24.064 147.387 23.836C147.003 23.608 146.583 23.494 146.127 23.494C145.671 23.494 145.245 23.608 144.849 23.836C144.465 24.064 144.153 24.406 143.913 24.862C143.673 25.306 143.553 25.864 143.553 26.536C143.553 27.208 143.673 27.772 143.913 28.228C144.153 28.672 144.465 29.008 144.849 29.236C145.233 29.464 145.653 29.578 146.109 29.578ZM152.708 31V22.072H154.418L154.58 23.764C154.892 23.176 155.324 22.714 155.876 22.378C156.44 22.03 157.118 21.856 157.91 21.856V23.854H157.388C156.86 23.854 156.386 23.944 155.966 24.124C155.558 24.292 155.228 24.586 154.976 25.006C154.736 25.414 154.616 25.984 154.616 26.716V31H152.708ZM163.368 31.216C162.504 31.216 161.742 31.012 161.082 30.604C160.422 30.196 159.906 29.638 159.534 28.93C159.162 28.222 158.976 27.418 158.976 26.518C158.976 25.618 159.162 24.82 159.534 24.124C159.906 23.416 160.422 22.864 161.082 22.468C161.754 22.06 162.522 21.856 163.386 21.856C164.094 21.856 164.712 21.994 165.24 22.27C165.78 22.546 166.2 22.936 166.5 23.44V18.04H168.408V31H166.698L166.5 29.614C166.212 30.034 165.816 30.406 165.312 30.73C164.808 31.054 164.16 31.216 163.368 31.216ZM163.71 29.56C164.526 29.56 165.192 29.278 165.708 28.714C166.236 28.15 166.5 27.424 166.5 26.536C166.5 25.636 166.236 24.91 165.708 24.358C165.192 23.794 164.526 23.512 163.71 23.512C162.894 23.512 162.222 23.794 161.694 24.358C161.166 24.91 160.902 25.636 160.902 26.536C160.902 27.124 161.022 27.646 161.262 28.102C161.502 28.558 161.832 28.918 162.252 29.182C162.684 29.434 163.17 29.56 163.71 29.56Z" fill="white"/>
</svg>
