<svg width="158" height="40" viewBox="0 0 158 40" fill="none" xmlns="http://www.w3.org/2000/svg">
<rect x="1" y="1" width="156" height="38" rx="19" stroke="#EBEAED" stroke-width="2"/>
<path d="M24.0117 25.192C23.1904 25.192 22.4704 25.048 21.8517 24.76C21.233 24.472 20.7477 24.0613 20.3957 23.528C20.0544 22.9947 19.8784 22.36 19.8677 21.624H21.6597C21.6704 22.2213 21.8784 22.728 22.2837 23.144C22.689 23.56 23.2597 23.768 23.9957 23.768C24.6464 23.768 25.153 23.6133 25.5157 23.304C25.889 22.984 26.0757 22.5787 26.0757 22.088C26.0757 21.6933 25.985 21.3733 25.8037 21.128C25.633 20.8827 25.393 20.68 25.0837 20.52C24.785 20.36 24.4384 20.216 24.0437 20.088C23.649 19.96 23.233 19.8213 22.7957 19.672C21.9317 19.384 21.281 19.0107 20.8437 18.552C20.417 18.0933 20.2037 17.4907 20.2037 16.744C20.193 16.1147 20.337 15.5653 20.6357 15.096C20.945 14.6267 21.3717 14.264 21.9157 14.008C22.4704 13.7413 23.1157 13.608 23.8517 13.608C24.577 13.608 25.2117 13.7413 25.7557 14.008C26.3104 14.2747 26.7424 14.648 27.0517 15.128C27.361 15.5973 27.521 16.1467 27.5317 16.776H25.7397C25.7397 16.488 25.665 16.216 25.5157 15.96C25.3664 15.6933 25.1477 15.4747 24.8597 15.304C24.5717 15.1333 24.2197 15.048 23.8037 15.048C23.2704 15.0373 22.8277 15.1707 22.4757 15.448C22.1344 15.7253 21.9637 16.1093 21.9637 16.6C21.9637 17.0373 22.0917 17.3733 22.3477 17.608C22.6037 17.8427 22.9557 18.04 23.4037 18.2C23.8517 18.3493 24.3637 18.5253 24.9397 18.728C25.4944 18.9093 25.9904 19.128 26.4277 19.384C26.865 19.64 27.2117 19.976 27.4677 20.392C27.7344 20.808 27.8677 21.336 27.8677 21.976C27.8677 22.5413 27.7237 23.0693 27.4357 23.56C27.1477 24.04 26.7157 24.4347 26.1397 24.744C25.5637 25.0427 24.8544 25.192 24.0117 25.192ZM29.6579 25V13.48H31.3539V18.344C31.6206 17.8853 31.9886 17.528 32.4579 17.272C32.9379 17.0053 33.4659 16.872 34.0419 16.872C34.9913 16.872 35.7379 17.1707 36.2819 17.768C36.8259 18.3653 37.0979 19.256 37.0979 20.44V25H35.4179V20.616C35.4179 19.08 34.8046 18.312 33.5779 18.312C32.9379 18.312 32.4046 18.536 31.9779 18.984C31.5619 19.432 31.3539 20.072 31.3539 20.904V25H29.6579ZM41.7834 25.192C41.1114 25.192 40.5568 25.08 40.1194 24.856C39.6821 24.632 39.3568 24.3387 39.1434 23.976C38.9301 23.6027 38.8234 23.1973 38.8234 22.76C38.8234 21.992 39.1221 21.384 39.7194 20.936C40.3168 20.488 41.1701 20.264 42.2794 20.264H44.3594V20.12C44.3594 19.5013 44.1888 19.0373 43.8474 18.728C43.5168 18.4187 43.0848 18.264 42.5514 18.264C42.0821 18.264 41.6714 18.3813 41.3194 18.616C40.9781 18.84 40.7701 19.176 40.6954 19.624H38.9994C39.0528 19.048 39.2448 18.5573 39.5754 18.152C39.9168 17.736 40.3434 17.4213 40.8554 17.208C41.3781 16.984 41.9488 16.872 42.5674 16.872C43.6768 16.872 44.5354 17.1653 45.1434 17.752C45.7514 18.328 46.0554 19.1173 46.0554 20.12V25H44.5834L44.4394 23.64C44.2154 24.0773 43.8901 24.4453 43.4634 24.744C43.0368 25.0427 42.4768 25.192 41.7834 25.192ZM42.1194 23.816C42.5781 23.816 42.9621 23.7093 43.2714 23.496C43.5914 23.272 43.8368 22.9787 44.0074 22.616C44.1888 22.2533 44.3008 21.8533 44.3434 21.416H42.4554C41.7834 21.416 41.3034 21.5333 41.0154 21.768C40.7381 22.0027 40.5994 22.296 40.5994 22.648C40.5994 23.0107 40.7328 23.2987 40.9994 23.512C41.2768 23.7147 41.6501 23.816 42.1194 23.816ZM48.0329 25V17.064H49.5529L49.6969 18.568C49.9743 18.0453 50.3583 17.6347 50.8489 17.336C51.3503 17.0267 51.9529 16.872 52.6569 16.872V18.648H52.1929C51.7236 18.648 51.3023 18.728 50.9289 18.888C50.5663 19.0373 50.2729 19.2987 50.0489 19.672C49.8356 20.0347 49.7289 20.5413 49.7289 21.192V25H48.0329ZM57.6043 25.192C56.8256 25.192 56.1323 25.0213 55.5243 24.68C54.927 24.328 54.4576 23.8427 54.1163 23.224C53.775 22.6053 53.6043 21.8853 53.6043 21.064C53.6043 20.232 53.7696 19.5013 54.1003 18.872C54.4416 18.2427 54.911 17.752 55.5083 17.4C56.1163 17.048 56.8203 16.872 57.6203 16.872C58.399 16.872 59.0763 17.048 59.6523 17.4C60.2283 17.7413 60.6763 18.2 60.9963 18.776C61.3163 19.352 61.4763 19.9867 61.4763 20.68C61.4763 20.7867 61.471 20.904 61.4603 21.032C61.4603 21.1493 61.455 21.2827 61.4443 21.432H55.2683C55.3216 22.2 55.5723 22.7867 56.0203 23.192C56.479 23.5867 57.007 23.784 57.6043 23.784C58.0843 23.784 58.4843 23.6773 58.8043 23.464C59.135 23.24 59.3803 22.9413 59.5403 22.568H61.2363C61.023 23.3147 60.5963 23.9387 59.9563 24.44C59.327 24.9413 58.543 25.192 57.6043 25.192ZM57.6043 18.264C57.039 18.264 56.5376 18.4347 56.1003 18.776C55.663 19.1067 55.3963 19.608 55.3003 20.28H59.7803C59.7483 19.6613 59.5296 19.1707 59.1243 18.808C58.719 18.4453 58.2123 18.264 57.6043 18.264ZM70.9793 25.192C70.222 25.192 69.5393 25.0213 68.9313 24.68C68.334 24.328 67.8593 23.8427 67.5073 23.224C67.1553 22.5947 66.9793 21.864 66.9793 21.032C66.9793 20.2 67.1553 19.4747 67.5073 18.856C67.87 18.2267 68.3553 17.7413 68.9633 17.4C69.5713 17.048 70.2486 16.872 70.9953 16.872C71.7526 16.872 72.43 17.048 73.0273 17.4C73.6353 17.7413 74.1153 18.2267 74.4673 18.856C74.83 19.4747 75.0113 20.2 75.0113 21.032C75.0113 21.864 74.83 22.5947 74.4673 23.224C74.1153 23.8427 73.6353 24.328 73.0273 24.68C72.4193 25.0213 71.7366 25.192 70.9793 25.192ZM70.9793 23.736C71.3846 23.736 71.758 23.6347 72.0993 23.432C72.4513 23.2293 72.734 22.9307 72.9473 22.536C73.1606 22.1307 73.2673 21.6293 73.2673 21.032C73.2673 20.4347 73.1606 19.9387 72.9473 19.544C72.7446 19.1387 72.4673 18.8347 72.1153 18.632C71.774 18.4293 71.4006 18.328 70.9953 18.328C70.59 18.328 70.2113 18.4293 69.8593 18.632C69.518 18.8347 69.2406 19.1387 69.0273 19.544C68.814 19.9387 68.7073 20.4347 68.7073 21.032C68.7073 21.6293 68.814 22.1307 69.0273 22.536C69.2406 22.9307 69.518 23.2293 69.8593 23.432C70.2006 23.6347 70.574 23.736 70.9793 23.736ZM76.8454 25V17.064H78.3494L78.4774 18.456C78.7228 17.9653 79.0801 17.5813 79.5494 17.304C80.0294 17.016 80.5788 16.872 81.1974 16.872C82.1574 16.872 82.9094 17.1707 83.4534 17.768C84.0081 18.3653 84.2854 19.256 84.2854 20.44V25H82.6054V20.616C82.6054 19.08 81.9761 18.312 80.7174 18.312C80.0881 18.312 79.5654 18.536 79.1494 18.984C78.7441 19.432 78.5414 20.072 78.5414 20.904V25H76.8454ZM90.3782 25V13.8H94.2342C95.1195 13.8 95.8449 13.9493 96.4102 14.248C96.9862 14.5467 97.4129 14.952 97.6902 15.464C97.9675 15.9653 98.1062 16.5253 98.1062 17.144C98.1062 17.8373 97.9195 18.4667 97.5462 19.032C97.1835 19.5973 96.6129 20.0027 95.8342 20.248L98.2182 25H96.2502L94.0742 20.488H92.0742V25H90.3782ZM92.0742 19.208H94.1382C94.9062 19.208 95.4662 19.0213 95.8182 18.648C96.1809 18.2747 96.3622 17.7893 96.3622 17.192C96.3622 16.5947 96.1862 16.12 95.8342 15.768C95.4822 15.4053 94.9115 15.224 94.1222 15.224H92.0742V19.208ZM103.276 25.192C102.498 25.192 101.804 25.0213 101.196 24.68C100.599 24.328 100.13 23.8427 99.7882 23.224C99.4469 22.6053 99.2762 21.8853 99.2762 21.064C99.2762 20.232 99.4415 19.5013 99.7722 18.872C100.114 18.2427 100.583 17.752 101.18 17.4C101.788 17.048 102.492 16.872 103.292 16.872C104.071 16.872 104.748 17.048 105.324 17.4C105.9 17.7413 106.348 18.2 106.668 18.776C106.988 19.352 107.148 19.9867 107.148 20.68C107.148 20.7867 107.143 20.904 107.132 21.032C107.132 21.1493 107.127 21.2827 107.116 21.432H100.94C100.994 22.2 101.244 22.7867 101.692 23.192C102.151 23.5867 102.679 23.784 103.276 23.784C103.756 23.784 104.156 23.6773 104.476 23.464C104.807 23.24 105.052 22.9413 105.212 22.568H106.908C106.695 23.3147 106.268 23.9387 105.628 24.44C104.999 24.9413 104.215 25.192 103.276 25.192ZM103.276 18.264C102.711 18.264 102.21 18.4347 101.772 18.776C101.335 19.1067 101.068 19.608 100.972 20.28H105.452C105.42 19.6613 105.202 19.1707 104.796 18.808C104.391 18.4453 103.884 18.264 103.276 18.264ZM112.524 25.192C111.756 25.192 111.079 25.0107 110.492 24.648C109.905 24.2853 109.447 23.7893 109.116 23.16C108.785 22.5307 108.62 21.816 108.62 21.016C108.62 20.216 108.785 19.5067 109.116 18.888C109.447 18.2587 109.905 17.768 110.492 17.416C111.089 17.0533 111.772 16.872 112.54 16.872C113.169 16.872 113.719 16.9947 114.188 17.24C114.668 17.4853 115.041 17.832 115.308 18.28V13.48H117.004V25H115.484L115.308 23.768C115.052 24.1413 114.7 24.472 114.252 24.76C113.804 25.048 113.228 25.192 112.524 25.192ZM112.828 23.72C113.553 23.72 114.145 23.4693 114.604 22.968C115.073 22.4667 115.308 21.8213 115.308 21.032C115.308 20.232 115.073 19.5867 114.604 19.096C114.145 18.5947 113.553 18.344 112.828 18.344C112.103 18.344 111.505 18.5947 111.036 19.096C110.567 19.5867 110.332 20.232 110.332 21.032C110.332 21.5547 110.439 22.0187 110.652 22.424C110.865 22.8293 111.159 23.1493 111.532 23.384C111.916 23.608 112.348 23.72 112.828 23.72ZM122.758 25.192C121.99 25.192 121.313 25.0107 120.726 24.648C120.14 24.2853 119.681 23.7893 119.35 23.16C119.02 22.5307 118.854 21.816 118.854 21.016C118.854 20.216 119.02 19.5067 119.35 18.888C119.681 18.2587 120.14 17.768 120.726 17.416C121.324 17.0533 122.006 16.872 122.774 16.872C123.404 16.872 123.953 16.9947 124.422 17.24C124.902 17.4853 125.276 17.832 125.542 18.28V13.48H127.238V25H125.718L125.542 23.768C125.286 24.1413 124.934 24.472 124.486 24.76C124.038 25.048 123.462 25.192 122.758 25.192ZM123.062 23.72C123.788 23.72 124.38 23.4693 124.838 22.968C125.308 22.4667 125.542 21.8213 125.542 21.032C125.542 20.232 125.308 19.5867 124.838 19.096C124.38 18.5947 123.788 18.344 123.062 18.344C122.337 18.344 121.74 18.5947 121.27 19.096C120.801 19.5867 120.566 20.232 120.566 21.032C120.566 21.5547 120.673 22.0187 120.886 22.424C121.1 22.8293 121.393 23.1493 121.766 23.384C122.15 23.608 122.582 23.72 123.062 23.72ZM130.337 15.56C130.017 15.56 129.75 15.464 129.537 15.272C129.334 15.0693 129.233 14.8187 129.233 14.52C129.233 14.2213 129.334 13.976 129.537 13.784C129.75 13.5813 130.017 13.48 130.337 13.48C130.657 13.48 130.918 13.5813 131.121 13.784C131.334 13.976 131.441 14.2213 131.441 14.52C131.441 14.8187 131.334 15.0693 131.121 15.272C130.918 15.464 130.657 15.56 130.337 15.56ZM129.489 25V17.064H131.185V25H129.489ZM136.752 25C135.973 25 135.354 24.8133 134.896 24.44C134.437 24.056 134.208 23.3787 134.208 22.408V18.488H132.848V17.064H134.208L134.416 15.048H135.904V17.064H138.144V18.488H135.904V22.408C135.904 22.8453 135.994 23.1493 136.176 23.32C136.368 23.48 136.693 23.56 137.152 23.56H138.064V25H136.752Z" fill="#1E0E62"/>
</svg>
