<?xml version="1.0" encoding="UTF-8"?>
<svg id="Camada_2" data-name="Camada 2" xmlns="http://www.w3.org/2000/svg" viewBox="0 0 1893.88 1481.38">
  <defs>
    <style>
      .cls-1 {
        fill: #999;
        stroke-width: 2px;
      }

      .cls-1, .cls-2, .cls-3 {
        stroke: #000;
        stroke-miterlimit: 10;
      }

      .cls-2 {
        fill: #d8d8d8;
      }

      .cls-2, .cls-3 {
        stroke-width: 8px;
      }

      .cls-3 {
        fill: #f4f4f4;
      }

      .cls-4 {
        stroke-width: 0px;
      }

      .cls-5 {
        font-family: BradleyHandITCTT-Bold, 'Bradley Hand';
        font-size: 100px;
        font-weight: 700;
      }
    </style>
  </defs>
  <g id="Layer_1" data-name="Layer 1">
    <g>
      <path class="cls-3" d="m803.3,1332.09C228.71,1859.45-397.53,800.38,338.5,549.77c32.85,176.55,164.49,318.35,335.4,365.94-29.33,150.8,24.93,314.52,129.41,416.38Z"/>
      <path class="cls-3" d="m1605.24,1000.51c14.37,409.33-528.38,626.41-802.19,331.56,104.93-102.18,159.11-266.93,129.11-418.11,168.5-49.37,297.72-190.67,329.68-365.9,198.06,55.12,343.4,236.82,343.4,452.45Z"/>
      <path class="cls-2" d="m940.28,1000.51c0,129.42-52.36,246.62-137.06,331.58-104.5-101.83-158.72-265.61-129.41-416.38,81.66,23.34,177.31,22.71,258.51-1.74,5.23,28.05,7.96,56.98,7.96,86.54Z"/>
      <path class="cls-3" d="m1267.44,463.24c0,28.96-2.62,57.3-7.65,84.81-160.02-47.32-348.02,5.29-458.78,120.87-112.06-117.16-303.74-169.28-464.85-119.14-112.13-662.25,919.74-758.13,931.28-86.55Z"/>
      <path class="cls-2" d="m803.22,668.93c-65.76,65.94-112.01,151.33-129.41,246.78-170.9-47.59-302.55-189.39-335.43-365.92,161.14-50.11,352.77,1.96,464.84,119.14Z"/>
      <path class="cls-2" d="m1262,548.06c-31.96,175.24-161.19,316.54-329.68,365.91-17.65-94.75-63.75-179.49-129.1-245.04,110.7-115.59,298.83-168.18,458.78-120.87Z"/>
      <path class="cls-1" d="m932.32,913.96c-41.96,12.31-86.36,18.9-132.29,18.9s-86.06-5.98-126.22-17.16c17.4-95.45,63.65-180.84,129.41-246.78,65.35,65.55,111.45,150.29,129.1,245.04Z"/>
      <text class="cls-5" transform="translate(552.68 436.55)"><tspan x="0" y="0">open source</tspan></text>
      <text class="cls-5" transform="translate(301.92 1061.46)"><tspan x="0" y="0">easy</tspan></text>
      <text class="cls-5" transform="translate(1037.31 1061.46)"><tspan x="0" y="0">modern</tspan></text>
      <text/>
      <path class="cls-4" d="m1373.96,477.2c-72.14-14.83-143.79-12.54-214.85,8.13-70.89,20.62-134.64,55.95-191.13,105.97-56.67,50.17-101.07,110.67-133.71,182.05-6.95-5.88-13.48-11.8-20.44-17.07-2.3-1.74-7.04-3.44-8.32-2.27-2.05,1.88-3.01,6.21-2.91,9.45.59,18.09,1.65,36.16,2.52,54.24.41,8.48,1.72,10.16,9.73,9.32,18.37-1.94,36.76-3.9,55-6.81,4.85-.77,9.64-4.39,13.68-7.76,3.85-3.21.6-10.34-5.41-11.44-11.46-2.09-21.35-7.16-29.97-15.51-2.66-2.58-3.66-4.39-1.92-8.17,61.18-132.64,155.93-225.29,287.57-273.69,61.97-22.78,125.98-31.84,191.5-28.59,13.52.67,26.99,2.48,40.49,3.77,2.72.26,5.44.56,8.16.84,0-.83,0-1.65.01-2.48Z"/>
      <text class="cls-5" transform="translate(1410.08 502.72)"><tspan x="0" y="0">we are here!</tspan></text>
    </g>
  </g>
</svg>