<svg width="232" height="38" viewBox="0 0 232 38" fill="none" xmlns="http://www.w3.org/2000/svg">
<path d="M11.0179 24.5536C11.25 24.3214 11.25 23.9643 11.0179 23.7321L4 16.7143L11.0179 9.69643C11.25 9.46428 11.25 9.10714 11.0179 8.875L10.125 7.98214C9.89286 7.75 9.53572 7.75 9.30357 7.98214L0.982143 16.3036C0.75 16.5357 0.75 16.8929 0.982143 17.125L9.30357 25.4464C9.53572 25.6786 9.89286 25.6786 10.125 25.4464L11.0179 24.5536ZM21.5714 5.5C21.6607 5.19643 21.4821 4.875 21.1786 4.78571L20.0714 4.48214C19.7857 4.39286 19.4643 4.57143 19.375 4.875L12.7143 27.9286C12.625 28.2321 12.8036 28.5536 13.1071 28.6429L14.2143 28.9464C14.5 29.0357 14.8214 28.8571 14.9107 28.5536L21.5714 5.5ZM33.3036 17.125C33.5357 16.8929 33.5357 16.5357 33.3036 16.3036L24.9821 7.98214C24.75 7.75 24.3929 7.75 24.1607 7.98214L23.2679 8.875C23.0357 9.10714 23.0357 9.46428 23.2679 9.69643L30.2857 16.7143L23.2679 23.7321C23.0357 23.9643 23.0357 24.3214 23.2679 24.5536L24.1607 25.4464C24.3929 25.6786 24.75 25.6786 24.9821 25.4464L33.3036 17.125Z" fill="#1E0E62"/>
<path d="M117 29.2857C117.286 29.2857 117.571 29.1786 117.786 28.9643L128.911 18.25C129.071 18.0893 133 14.5 133 10.2143C133 4.98214 129.804 1.85714 124.464 1.85714C121.339 1.85714 118.411 4.32143 117 5.71428C115.589 4.32143 112.661 1.85714 109.536 1.85714C104.196 1.85714 101 4.98214 101 10.2143C101 14.5 104.929 18.0893 105.071 18.2143L116.214 28.9643C116.429 29.1786 116.714 29.2857 117 29.2857Z" fill="#E93A7D"/>
<path d="M222.304 17.5L223.589 25.0179L216.857 21.4643L210.107 25.0179L211.411 17.5L205.946 12.1964L213.482 11.0893L216.857 4.26786L220.232 11.0893L227.768 12.1964L222.304 17.5ZM231.714 11.125C231.714 10.5893 231.143 10.375 230.714 10.3036L221.75 9L217.732 0.874998C217.571 0.535713 217.268 0.142857 216.857 0.142857C216.446 0.142857 216.143 0.535713 215.982 0.874998L211.964 9L203 10.3036C202.554 10.375 202 10.5893 202 11.125C202 11.4464 202.232 11.75 202.446 11.9821L208.946 18.3036L207.411 27.2321C207.393 27.3571 207.375 27.4643 207.375 27.5893C207.375 28.0536 207.607 28.4821 208.125 28.4821C208.375 28.4821 208.607 28.3929 208.839 28.2679L216.857 24.0536L224.875 28.2679C225.089 28.3929 225.339 28.4821 225.589 28.4821C226.107 28.4821 226.321 28.0714 226.321 27.5893C226.321 27.4643 226.321 27.3571 226.304 27.2321L224.768 18.3036L231.25 11.9821C231.482 11.75 231.714 11.4464 231.714 11.125Z" fill="#1E0E62"/>
</svg>
