<svg width="365" height="55" viewBox="0 0 365 55" fill="none" xmlns="http://www.w3.org/2000/svg">
<path d="M43.3932 25.4928C43.698 22.3376 47.7972 20.8778 50.2126 22.8394C52.3155 24.3752 52.4832 27.6217 50.4412 29.3019C47.462 31.9173 43.0504 29.3323 43.3856 25.5384V25.4852L43.3932 25.4928Z" fill="#0500FF"/>
<path d="M38.8902 5.74786C41.1913 5.73265 43.1037 7.97553 42.6542 10.2336C42.0141 13.807 37.3968 14.8486 35.591 11.5413C34.1662 9.03235 35.8196 5.67943 38.8369 5.74786H38.8902Z" fill="#0500FF"/>
<path d="M54.9518 13.0011C54.8147 15.4721 51.7136 16.9851 49.6335 15.6317C47.302 14.2556 47.7287 10.4237 50.2888 9.54175C52.4908 8.6446 55.1423 10.5986 54.9518 12.9479V13.0011Z" fill="#0500FF"/>
<path d="M24.9239 55C22.4476 54.9316 20.5123 54.7187 18.5998 54.2169C16.9845 53.7911 15.3997 53.2665 13.9063 52.5366C10.8814 51.0617 8.22988 49.1001 6.00502 46.5531C4.35924 44.6675 3.01823 42.5995 1.98961 40.3338C1.33435 38.8893 0.861947 37.3687 0.526695 35.8177C0.153346 34.0994 -0.0447572 32.3659 0.00857837 30.6248C0.0542946 29.2183 0.260017 27.8117 0.450502 26.4128C0.679083 24.7401 1.20482 23.1359 1.85247 21.5773C2.8887 19.0759 4.29066 16.795 6.05836 14.7346C7.64318 12.8871 9.47183 11.3056 11.5367 10.0207C13.3425 8.89549 15.2854 8.02115 17.3426 7.43572C18.7522 7.03276 20.1694 6.71344 21.6323 6.6222C22.8362 6.54617 24.0553 6.43213 25.2439 6.57658C27.0192 6.78947 27.9869 8.60658 27.4916 10.2488C26.9659 12.0051 27.2021 13.7158 27.964 15.3504C28.726 16.9851 29.9146 18.232 31.5147 19.0911C32.7185 19.745 34.0214 19.9654 35.3701 19.9959C36.353 20.0187 37.1835 20.3836 37.7244 21.2275C38.334 22.1703 38.3111 23.1739 37.7473 24.1319C36.8711 25.6221 36.4139 27.2263 36.5511 28.9522C36.8025 31.9934 38.6464 34.7609 41.656 35.7797C42.5704 36.0914 43.5456 36.2206 44.5057 36.3803C45.0848 36.4791 45.5267 36.7833 45.8924 37.2014C46.7991 38.2354 46.8143 39.5051 46.22 40.5543C45.6486 41.5579 45.1305 42.5919 44.5514 43.5879C43.8276 44.8348 42.9285 45.9601 41.938 47.0169C40.1474 48.948 38.014 50.4078 35.7891 51.7763C33.3509 53.2817 30.7451 54.3081 27.9107 54.7035C26.7526 54.8632 25.5792 54.9316 24.9163 54.9924L24.9239 55ZM16.4664 28.8077C16.5502 25.432 12.5043 23.3868 10.0128 25.8654C8.29845 27.4696 8.62608 30.3283 10.569 31.5752C12.8167 33.1794 16.3674 31.6588 16.4664 28.8533V28.8077ZM31.5604 43.7172C34.09 43.6183 35.2939 40.7292 33.9757 38.6992C32.2918 36.023 28.4898 37.1406 28.1393 40.159C27.8802 42.0749 29.5946 43.8464 31.5147 43.7172H31.5604ZM13.3958 40.8585C13.3653 42.7288 15.5673 44.1505 17.2664 43.3294C19.2551 42.5083 19.4075 39.4443 17.4874 38.4635C15.773 37.4979 13.3882 38.8437 13.3958 40.8128V40.8585ZM16.6569 20.7638C16.6264 22.4288 18.5846 23.6833 20.0932 22.9534C21.8609 22.2235 21.9905 19.5093 20.2913 18.6349C18.7675 17.7758 16.6493 18.9771 16.6645 20.7257V20.7638H16.6569ZM23.8039 32.8905C25.0992 32.9133 26.0821 31.3927 25.5182 30.2143C24.9468 28.8381 22.8286 28.7393 22.1428 30.0622C21.4723 31.2483 22.4095 32.8905 23.7734 32.8829H23.8039V32.8905Z" fill="#0500FF"/>
<path d="M66.1675 15.0767C66.7618 15.4645 67.0666 16.0955 67.2723 16.7722C67.5238 17.6161 67.7828 18.6805 68.1029 19.8894C69.6724 25.8578 72.2554 35.9241 72.9107 39.1174C73.0707 39.7864 73.3221 41.3678 73.7107 39.756C74.3736 36.7909 76.8575 27.7813 78.4042 22.2844C78.8919 20.5661 79.3567 18.8782 79.7681 17.4489C79.9129 16.9547 80.0729 16.4529 80.3319 16.0119C81.3987 14.1644 84.6521 14.0655 86.275 15.2288C87.418 16.0803 87.6161 17.6009 88.0046 18.8858C89.4599 24.2687 92.4315 34.9889 93.3153 38.9805C93.4068 39.315 93.5896 40.4707 93.8944 39.6496C94.7249 36.5476 96.7212 28.6404 98.1384 23.6073C98.6413 21.7597 99.0146 20.3912 99.4565 18.7718C99.8451 17.4108 100.127 15.7154 101.491 15.0159C102.809 14.2784 105.133 14.3544 106.116 14.5293C106.771 14.6434 106.885 15.0083 106.68 15.6165C105.392 19.7602 103.525 25.8426 101.963 30.8529C99.8528 37.5435 98.1384 43.4131 97.1936 46.0969C96.9422 46.6747 96.3402 46.7888 95.7002 46.8496C94.7173 46.9256 93.1553 47.0169 91.8981 46.5911C90.5343 46.1501 89.818 45.1161 89.3533 43.7552C87.2884 36.54 84.934 27.3555 83.9664 23.516C83.5702 21.8662 83.3721 21.2579 82.9301 23.3564C82.0387 27.2263 80.8805 31.2939 79.6462 35.7644C78.8766 38.3343 78.1757 41.4743 77.1851 44.0973C76.1565 46.8876 73.4821 47.0473 71.0363 46.8724C70.1068 46.8268 69.322 46.6519 69.1162 45.6863C67.7905 41.193 61.7635 20.5965 60.354 15.7762C59.9958 14.7194 60.4302 14.5293 61.4359 14.4533C62.8074 14.3772 64.9484 14.3012 66.1523 15.0691L66.1828 15.0919L66.1675 15.0767Z" fill="#1E0E62"/>
<path d="M113.248 32.7689C113.027 36.578 115.472 41.0637 119.069 42.0445C121.362 42.7364 124.311 42.379 126.3 41.0257C127.77 40.0449 128.204 38.6384 129.911 38.1518C131.237 37.7488 133.378 37.7716 134.193 38.2278C135.092 38.7144 134.437 39.8168 134.102 40.5011C131.923 44.8424 127.343 47.4578 122.185 47.6251C112.615 48.3322 106.916 40.8889 106.687 32.0922C106.101 20.6573 112.989 11.5109 125.271 14.0047C129.896 14.9323 133.302 18.3764 134.711 22.6341C135.184 24.0026 135.489 25.4244 135.641 26.8614C135.763 28.0702 135.824 29.3931 135.725 30.2903C135.679 30.6628 135.603 31.0506 135.382 31.3395C135.077 31.7425 134.544 31.8033 134.018 31.8261C130.292 31.8489 119.153 31.8261 115.008 31.8337C114.269 31.8337 113.415 31.8717 113.248 32.7309V32.7689ZM129.385 26.5344C129.751 24.7933 128.486 21.7521 127.122 20.4216C123.8 17.0383 117.095 17.6085 114.688 21.813C113.971 23.0142 112.562 26.1695 113.644 27.0438C114.352 27.4772 115.198 27.3327 116.074 27.3708C117.705 27.3708 119.419 27.3708 121.141 27.3708C122.787 27.3708 124.44 27.3708 125.812 27.3708C127.45 27.2871 128.898 27.6749 129.378 26.5648V26.5344H129.385Z" fill="#1E0E62"/>
<path d="M140.129 0.136854C140.548 0.030412 141.279 0.00760299 142.133 0C143.336 0.0684269 144.769 -0.205281 145.538 0.539812C145.782 0.86674 145.782 1.31532 145.798 1.76389C145.813 4.88112 145.798 13.2672 145.798 16.6962C145.813 17.0915 145.782 17.7834 145.973 17.9811C146.057 18.0571 146.171 18.0039 146.339 17.867C146.727 17.5325 147.161 17.0231 147.58 16.6429C148.685 15.5633 150.506 14.5673 152.426 14.1492C159.886 12.3625 166.347 16.1868 168.427 23.5769C171.178 32.6548 167.703 45.6635 158.126 47.2982C155.444 47.8304 152.129 47.6707 149.63 46.4847C148.601 46.0665 147.428 44.9184 146.78 44.4851C146.133 44.0441 145.874 44.5307 145.668 45.0629C145.447 45.6103 145.135 46.2033 144.578 46.4999C143.192 47.1765 140.243 47.2297 139.649 45.4659C139.473 44.9336 139.458 44.3102 139.458 43.7324C139.458 41.8468 139.481 39.4519 139.481 37.6652C139.473 30.7845 139.481 10.9331 139.481 0.988388C139.481 0.570224 139.603 0.243296 140.075 0.144457H140.106L140.129 0.136854ZM163.208 30.1382C163.269 22.809 159.261 17.198 151.626 19.2964C146.902 20.5509 145.698 26.4584 145.843 31.1494C145.843 37.1406 148.175 42.5463 154.545 42.4627C160.937 42.5007 163.307 35.8557 163.215 30.2067V30.1382H163.208Z" fill="#1E0E62"/>
<path d="M199.072 37.5968C200.047 38.8893 196.977 43.1698 195.872 44.1049C193.22 46.8116 188.489 47.9596 184.649 47.6403C175.841 47.2374 170.88 39.5051 171.147 30.6248C170.987 21.7521 177.052 13.2748 186.515 13.6474C189.502 13.6626 193.007 14.5901 195.278 16.4072C197.358 18.0039 198.6 20.1023 199.255 22.0182C199.423 22.5429 199.636 23.1587 199.445 23.6681C198.912 24.7933 196.162 24.7097 194.737 24.2383C193.556 23.8734 192.939 22.8394 192.253 21.8434C191.689 21.0375 190.95 20.3152 190.005 19.821C188.176 18.8402 185.708 18.6501 183.75 19.2812C177.692 21.1439 176.862 30.4272 178.393 35.8557C179.033 38.1746 180.336 40.4327 182.5 41.5883C184.778 42.8124 187.872 42.7364 190.135 41.345C191.742 40.4479 192.519 38.4483 194.028 37.5892C195.346 36.8821 197.899 36.5476 199.065 37.5892L199.087 37.612L199.072 37.5968Z" fill="#1E0E62"/>
<path d="M202.829 22.2539C202.829 20.9386 202.813 19.2203 202.806 17.8138C202.836 16.6657 202.608 15.2972 203.75 14.689C204.84 14.1111 207.118 14.0883 208.154 14.727C209.252 15.4037 208.993 16.9851 209.214 18.0647C209.503 19.8666 210.433 18.4372 211.332 17.4489C212.437 16.1868 213.846 15.1832 215.408 14.5521C216.894 13.9971 218.265 13.5333 219.225 14.3392C220.559 15.761 220.216 18.6805 218.463 19.6157C217.747 20.0035 216.871 20.1631 216.086 20.414C212.109 21.486 209.915 24.9986 209.427 29.1346C209.107 31.3775 209.183 32.9209 209.168 35.5744C209.168 38.4027 209.168 42.379 209.168 44.6295C209.145 45.2454 209.168 45.9068 208.871 46.4238C208.208 47.3514 206.463 47.1461 205.32 47.1765C204.093 47.1157 202.92 47.1461 202.867 45.8308C202.798 40.4555 202.867 29.127 202.836 22.2996V22.2539H202.829Z" fill="#1E0E62"/>
<path d="M248.545 37.9009C248.545 39.1782 248.56 41.0181 248.568 42.4399C248.499 43.6716 248.888 45.2378 247.729 45.9981C246.625 46.6063 244.628 46.5759 243.562 46.0285C242.952 45.7168 242.685 45.0249 242.518 44.409C242.388 43.8768 242.144 43.1774 241.535 43.5955C240.796 44.1049 239.417 45.5799 238.243 46.0209C232.59 48.3778 225.245 47.1461 223.332 40.159C222.829 38.3875 222.608 36.5019 222.593 34.7456C222.57 30.488 222.593 22.7253 222.593 17.8974C222.624 16.9014 222.464 15.4949 222.989 15.2212C223.424 14.9247 224.01 14.9171 224.544 14.879C225.527 14.841 226.753 14.8334 227.515 14.9627C228.666 15.0691 228.673 16.0499 228.651 17.0155C228.651 17.8518 228.651 18.9542 228.651 20.2011C228.75 26.1011 228.437 30.9365 228.811 35.7873C229.092 37.8096 229.87 40.0069 231.805 40.9953C234.822 42.5083 239.196 41.9609 240.91 38.8361C241.405 37.9845 241.741 36.9277 241.946 35.9013C242.563 32.6548 242.426 30.8377 242.449 27.3784C242.449 25.1051 242.449 22.7329 242.449 20.4596C242.525 18.8782 242.266 16.7874 242.632 15.6013C243.158 14.651 244.804 14.9171 245.886 14.8562C247.082 14.9399 248.392 14.6966 248.514 15.9891C248.59 20.855 248.514 31.5524 248.545 37.8553V37.9009Z" fill="#1E0E62"/>
<path d="M254.64 22.0259C254.64 20.8094 254.64 19.5473 254.625 18.308C254.64 16.8862 254.564 15.7534 255.387 14.9931C256.758 13.8602 259.821 13.9363 260.583 15.799C261.079 17.0611 261.101 18.1711 262.351 17.0535C265.216 13.9211 270.184 12.8338 274.115 14.2556C275.723 14.765 277.056 15.9435 278.199 17.0915C280.851 19.6461 281.224 14.3772 288.226 13.6778C295.686 12.7654 299.739 17.7302 300.113 24.9606C300.295 30.0394 300.12 36.3575 300.181 42.5767C300.181 43.223 300.181 43.8312 300.181 44.4623C300.174 45.9753 300.227 46.6899 299.13 46.956C297.903 47.2069 296.143 47.1689 295.076 46.9712C294.413 46.8496 294.017 46.3934 293.994 45.7168C293.926 44.1886 293.971 42.3714 293.956 39.8473C293.956 36.5552 293.956 33.149 293.956 29.8569C294.154 24.5576 293.568 18.8934 287.091 19.1139C280.378 19.6993 280.485 27.0666 280.546 32.48C280.546 34.9813 280.546 37.5511 280.546 40.0069C280.546 41.3602 280.546 42.4855 280.546 43.702C280.538 45.1465 280.607 46.0513 280.074 46.4771C279.662 46.7964 279.106 46.842 278.588 46.8952C277.613 46.9636 276.401 46.956 275.624 46.7964C274.291 46.6215 274.458 45.253 274.458 44.181C274.458 40.4175 274.458 32.6852 274.458 28.9902C274.443 25.9262 274.557 22.1475 271.898 20.0491C268.203 17.5325 263.128 19.2356 261.741 23.5921C260.591 26.983 260.759 29.3855 260.743 33.2555C260.743 35.8253 260.743 38.1594 260.743 40.5999C260.652 42.3258 260.941 44.5991 260.56 45.9068C260.05 46.9256 258.358 46.6975 257.254 46.7432C255.715 46.6975 254.511 46.6899 254.655 44.9565C254.655 40.159 254.655 28.7241 254.655 22.4364V22.0335L254.64 22.0259Z" fill="#1E0E62"/>
<path d="M306.566 0.136854C306.985 0.030412 307.717 0.00760299 308.57 0C309.774 0.0684269 311.206 -0.205281 311.976 0.539812C312.22 0.86674 312.22 1.31532 312.235 1.76389C312.25 4.88112 312.235 13.2672 312.235 16.6962C312.25 17.0915 312.22 17.7834 312.41 17.9811C312.494 18.0571 312.608 18.0039 312.776 17.867C313.165 17.5325 313.599 17.0231 314.018 16.6429C315.123 15.5633 316.944 14.5673 318.864 14.1492C326.323 12.3625 332.784 16.1868 334.864 23.5769C337.615 32.6548 334.141 45.6635 324.563 47.2982C321.881 47.8304 318.567 47.6707 316.068 46.4847C315.039 46.0665 313.866 44.9184 313.218 44.4851C312.57 44.0441 312.311 44.5307 312.105 45.0629C311.884 45.6103 311.572 46.2033 311.016 46.4999C309.629 47.1765 306.68 47.2297 306.086 45.4659C305.911 44.9336 305.896 44.3102 305.896 43.7324C305.896 41.8468 305.919 39.4519 305.919 37.6652C305.911 30.7845 305.919 10.9331 305.919 0.988388C305.919 0.570224 306.04 0.243296 306.513 0.144457H306.543L306.566 0.136854ZM329.31 30.1382C329.371 22.809 325.363 17.198 317.729 19.2964C313.005 20.5509 311.801 26.4584 311.945 31.1494C311.945 37.1406 314.277 42.5463 320.647 42.4627C327.039 42.5007 329.409 35.8557 329.318 30.2067V30.1382H329.31Z" fill="#1E0E62"/>
<path d="M342.933 38.3114C343.893 38.8893 344.442 39.8549 345.242 40.638C346.629 42.1129 349.212 42.8352 351.414 42.7212C353.364 42.6299 355.048 42.1662 356.161 41.0333C357.387 39.7636 357.616 37.6424 356.763 36.1978C355.78 34.624 354.004 33.9777 352.259 33.3315C348.054 31.9554 342.697 31.1038 339.756 27.6064C338.308 25.7893 338.034 23.326 338.491 21.0907C339.368 16.2248 344.663 13.6093 350.172 13.6474C355.269 13.5029 360.755 15.5025 362.584 20.3304C362.873 21.0375 363.148 22.0487 362.363 22.52C360.984 23.3032 357.822 23.1739 356.618 21.6609C355.322 19.9578 353.639 18.8326 351.338 18.5513C348.419 18.0571 344.053 19.7145 344.93 23.1891C345.524 25.1583 348.099 26.0022 350.195 26.6713C355.711 28.1463 363.711 30.085 363.978 36.654C364.786 46.7508 352.907 49.3738 344.655 46.7584C341.272 45.6179 339.086 43.4815 337.912 40.79C337.577 39.9765 337.089 38.8817 337.851 38.1974C338.827 37.3763 341.554 37.4523 342.911 38.2962L342.949 38.319L342.933 38.3114Z" fill="#1E0E62"/>
</svg>
