<svg width="794" height="121" viewBox="0 0 794 121" fill="none" xmlns="http://www.w3.org/2000/svg">
<path d="M138.9 39V6.762H127.884V1.2H156.882V6.762H145.812V39H138.9ZM160.84 39V0.119998H167.752V16.32C168.652 14.844 169.858 13.692 171.37 12.864C172.918 12 174.682 11.568 176.662 11.568C179.974 11.568 182.53 12.612 184.33 14.7C186.166 16.788 187.084 19.848 187.084 23.88V39H180.226V24.528C180.226 22.224 179.758 20.46 178.822 19.236C177.922 18.012 176.482 17.4 174.502 17.4C172.558 17.4 170.938 18.084 169.642 19.452C168.382 20.82 167.752 22.728 167.752 25.176V39H160.84ZM205.708 39.648C203.008 39.648 200.614 39.072 198.526 37.92C196.438 36.768 194.8 35.148 193.612 33.06C192.424 30.972 191.83 28.56 191.83 25.824C191.83 23.052 192.406 20.586 193.558 18.426C194.746 16.266 196.366 14.592 198.418 13.404C200.506 12.18 202.954 11.568 205.762 11.568C208.39 11.568 210.712 12.144 212.728 13.296C214.744 14.448 216.31 16.032 217.426 18.048C218.578 20.028 219.154 22.242 219.154 24.69C219.154 25.086 219.136 25.5 219.1 25.932C219.1 26.364 219.082 26.814 219.046 27.282H198.688C198.832 29.37 199.552 31.008 200.848 32.196C202.18 33.384 203.782 33.978 205.654 33.978C207.058 33.978 208.228 33.672 209.164 33.06C210.136 32.412 210.856 31.584 211.324 30.576H218.344C217.84 32.268 216.994 33.816 215.806 35.22C214.654 36.588 213.214 37.668 211.486 38.46C209.794 39.252 207.868 39.648 205.708 39.648ZM205.762 17.184C204.07 17.184 202.576 17.67 201.28 18.642C199.984 19.578 199.156 21.018 198.796 22.962H212.134C212.026 21.198 211.378 19.794 210.19 18.75C209.002 17.706 207.526 17.184 205.762 17.184ZM235.834 39V12.216H241.936L242.476 16.752C243.304 15.168 244.492 13.908 246.04 12.972C247.624 12.036 249.478 11.568 251.602 11.568C254.914 11.568 257.488 12.612 259.324 14.7C261.16 16.788 262.078 19.848 262.078 23.88V39H255.166V24.528C255.166 22.224 254.698 20.46 253.762 19.236C252.826 18.012 251.368 17.4 249.388 17.4C247.444 17.4 245.842 18.084 244.582 19.452C243.358 20.82 242.746 22.728 242.746 25.176V39H235.834ZM280.702 39.648C278.002 39.648 275.608 39.072 273.52 37.92C271.432 36.768 269.794 35.148 268.606 33.06C267.418 30.972 266.824 28.56 266.824 25.824C266.824 23.052 267.4 20.586 268.552 18.426C269.74 16.266 271.36 14.592 273.412 13.404C275.5 12.18 277.948 11.568 280.756 11.568C283.384 11.568 285.706 12.144 287.722 13.296C289.738 14.448 291.304 16.032 292.42 18.048C293.572 20.028 294.148 22.242 294.148 24.69C294.148 25.086 294.13 25.5 294.094 25.932C294.094 26.364 294.076 26.814 294.04 27.282H273.682C273.826 29.37 274.546 31.008 275.842 32.196C277.174 33.384 278.776 33.978 280.648 33.978C282.052 33.978 283.222 33.672 284.158 33.06C285.13 32.412 285.85 31.584 286.318 30.576H293.338C292.834 32.268 291.988 33.816 290.8 35.22C289.648 36.588 288.208 37.668 286.48 38.46C284.788 39.252 282.862 39.648 280.702 39.648ZM280.756 17.184C279.064 17.184 277.57 17.67 276.274 18.642C274.978 19.578 274.15 21.018 273.79 22.962H287.128C287.02 21.198 286.372 19.794 285.184 18.75C283.996 17.706 282.52 17.184 280.756 17.184ZM294.577 39L304.297 25.608L294.577 12.216H301.975L308.779 21.72L315.529 12.216H322.981L313.207 25.608L322.981 39H315.529L308.779 29.496L301.975 39H294.577ZM338.319 39C335.511 39 333.261 38.316 331.569 36.948C329.877 35.58 329.031 33.15 329.031 29.658V17.994H324.441V12.216H329.031L329.841 5.034H335.943V12.216H343.179V17.994H335.943V29.712C335.943 31.008 336.213 31.908 336.753 32.412C337.329 32.88 338.301 33.114 339.669 33.114H343.017V39H338.319ZM359.981 39V12.216H366.137L366.785 17.238C367.757 15.51 369.071 14.142 370.727 13.134C372.419 12.09 374.399 11.568 376.667 11.568V18.858H374.723C373.211 18.858 371.861 19.092 370.673 19.56C369.485 20.028 368.549 20.838 367.865 21.99C367.217 23.142 366.893 24.744 366.893 26.796V39H359.981ZM392.93 39.648C390.23 39.648 387.836 39.072 385.748 37.92C383.66 36.768 382.022 35.148 380.834 33.06C379.646 30.972 379.052 28.56 379.052 25.824C379.052 23.052 379.628 20.586 380.78 18.426C381.968 16.266 383.588 14.592 385.64 13.404C387.728 12.18 390.176 11.568 392.984 11.568C395.612 11.568 397.934 12.144 399.95 13.296C401.966 14.448 403.532 16.032 404.648 18.048C405.8 20.028 406.376 22.242 406.376 24.69C406.376 25.086 406.358 25.5 406.322 25.932C406.322 26.364 406.304 26.814 406.268 27.282H385.91C386.054 29.37 386.774 31.008 388.07 32.196C389.402 33.384 391.004 33.978 392.876 33.978C394.28 33.978 395.45 33.672 396.386 33.06C397.358 32.412 398.078 31.584 398.546 30.576H405.566C405.062 32.268 404.216 33.816 403.028 35.22C401.876 36.588 400.436 37.668 398.708 38.46C397.016 39.252 395.09 39.648 392.93 39.648ZM392.984 17.184C391.292 17.184 389.798 17.67 388.502 18.642C387.206 19.578 386.378 21.018 386.018 22.962H399.356C399.248 21.198 398.6 19.794 397.412 18.75C396.224 17.706 394.748 17.184 392.984 17.184ZM417.371 39L407.543 12.216H414.779L421.583 32.466L428.387 12.216H435.623L425.741 39H417.371ZM450.516 39.648C447.924 39.648 445.584 39.054 443.496 37.866C441.444 36.678 439.806 35.04 438.582 32.952C437.394 30.828 436.8 28.38 436.8 25.608C436.8 22.836 437.412 20.406 438.636 18.318C439.86 16.194 441.498 14.538 443.55 13.35C445.638 12.162 447.978 11.568 450.57 11.568C453.126 11.568 455.43 12.162 457.482 13.35C459.57 14.538 461.208 16.194 462.396 18.318C463.62 20.406 464.232 22.836 464.232 25.608C464.232 28.38 463.62 30.828 462.396 32.952C461.208 35.04 459.57 36.678 457.482 37.866C455.394 39.054 453.072 39.648 450.516 39.648ZM450.516 33.654C452.316 33.654 453.882 32.988 455.214 31.656C456.546 30.288 457.212 28.272 457.212 25.608C457.212 22.944 456.546 20.946 455.214 19.614C453.882 18.246 452.334 17.562 450.57 17.562C448.734 17.562 447.15 18.246 445.818 19.614C444.522 20.946 443.874 22.944 443.874 25.608C443.874 28.272 444.522 30.288 445.818 31.656C447.15 32.988 448.716 33.654 450.516 33.654ZM469.412 39V0.119998H476.324V39H469.412ZM492.431 39.648C489.083 39.648 486.491 38.604 484.655 36.516C482.855 34.428 481.955 31.368 481.955 27.336V12.216H488.813V26.688C488.813 28.992 489.281 30.756 490.217 31.98C491.153 33.204 492.629 33.816 494.645 33.816C496.553 33.816 498.119 33.132 499.343 31.764C500.603 30.396 501.233 28.488 501.233 26.04V12.216H508.145V39H502.043L501.503 34.464C500.675 36.048 499.469 37.308 497.885 38.244C496.337 39.18 494.519 39.648 492.431 39.648ZM526.174 39C523.366 39 521.116 38.316 519.424 36.948C517.732 35.58 516.886 33.15 516.886 29.658V17.994H512.296V12.216H516.886L517.696 5.034H523.798V12.216H531.034V17.994H523.798V29.712C523.798 31.008 524.068 31.908 524.608 32.412C525.184 32.88 526.156 33.114 527.524 33.114H530.872V39H526.174ZM539.695 8.058C538.435 8.058 537.391 7.68 536.563 6.924C535.771 6.168 535.375 5.214 535.375 4.062C535.375 2.91 535.771 1.974 536.563 1.254C537.391 0.497998 538.435 0.119998 539.695 0.119998C540.955 0.119998 541.981 0.497998 542.773 1.254C543.601 1.974 544.015 2.91 544.015 4.062C544.015 5.214 543.601 6.168 542.773 6.924C541.981 7.68 540.955 8.058 539.695 8.058ZM536.239 39V12.216H543.151V39H536.239ZM562.217 39.648C559.625 39.648 557.285 39.054 555.197 37.866C553.145 36.678 551.507 35.04 550.283 32.952C549.095 30.828 548.501 28.38 548.501 25.608C548.501 22.836 549.113 20.406 550.337 18.318C551.561 16.194 553.199 14.538 555.251 13.35C557.339 12.162 559.679 11.568 562.271 11.568C564.827 11.568 567.131 12.162 569.183 13.35C571.271 14.538 572.909 16.194 574.097 18.318C575.321 20.406 575.933 22.836 575.933 25.608C575.933 28.38 575.321 30.828 574.097 32.952C572.909 35.04 571.271 36.678 569.183 37.866C567.095 39.054 564.773 39.648 562.217 39.648ZM562.217 33.654C564.017 33.654 565.583 32.988 566.915 31.656C568.247 30.288 568.913 28.272 568.913 25.608C568.913 22.944 568.247 20.946 566.915 19.614C565.583 18.246 564.035 17.562 562.271 17.562C560.435 17.562 558.851 18.246 557.519 19.614C556.223 20.946 555.575 22.944 555.575 25.608C555.575 28.272 556.223 30.288 557.519 31.656C558.851 32.988 560.417 33.654 562.217 33.654ZM581.114 39V12.216H587.216L587.756 16.752C588.584 15.168 589.772 13.908 591.32 12.972C592.904 12.036 594.758 11.568 596.882 11.568C600.194 11.568 602.768 12.612 604.604 14.7C606.44 16.788 607.358 19.848 607.358 23.88V39H600.446V24.528C600.446 22.224 599.978 20.46 599.042 19.236C598.106 18.012 596.648 17.4 594.668 17.4C592.724 17.4 591.122 18.084 589.862 19.452C588.638 20.82 588.026 22.728 588.026 25.176V39H581.114ZM628.56 8.058C627.3 8.058 626.256 7.68 625.428 6.924C624.636 6.168 624.24 5.214 624.24 4.062C624.24 2.91 624.636 1.974 625.428 1.254C626.256 0.497998 627.3 0.119998 628.56 0.119998C629.82 0.119998 630.846 0.497998 631.638 1.254C632.466 1.974 632.88 2.91 632.88 4.062C632.88 5.214 632.466 6.168 631.638 6.924C630.846 7.68 629.82 8.058 628.56 8.058ZM625.104 39V12.216H632.016V39H625.104ZM638.231 39V12.216H644.333L644.873 16.752C645.701 15.168 646.889 13.908 648.437 12.972C650.021 12.036 651.875 11.568 653.999 11.568C657.311 11.568 659.885 12.612 661.721 14.7C663.557 16.788 664.475 19.848 664.475 23.88V39H657.563V24.528C657.563 22.224 657.095 20.46 656.159 19.236C655.223 18.012 653.765 17.4 651.785 17.4C649.841 17.4 648.239 18.084 646.979 19.452C645.755 20.82 645.143 22.728 645.143 25.176V39H638.231ZM14.8537 109.648C12.1177 109.648 9.70568 109.054 7.61768 107.866C5.52968 106.678 3.87368 105.022 2.64968 102.898C1.46168 100.774 0.86768 98.344 0.86768 95.608C0.86768 92.872 1.46168 90.442 2.64968 88.318C3.87368 86.194 5.52968 84.538 7.61768 83.35C9.70568 82.162 12.1177 81.568 14.8537 81.568C18.2737 81.568 21.1537 82.468 23.4937 84.268C25.8337 86.032 27.3277 88.48 27.9757 91.612H20.6857C20.3257 90.316 19.6057 89.308 18.5257 88.588C17.4817 87.832 16.2397 87.454 14.7997 87.454C12.8917 87.454 11.2717 88.174 9.93968 89.614C8.60768 91.054 7.94168 93.052 7.94168 95.608C7.94168 98.164 8.60768 100.162 9.93968 101.602C11.2717 103.042 12.8917 103.762 14.7997 103.762C16.2397 103.762 17.4817 103.402 18.5257 102.682C19.6057 101.962 20.3257 100.936 20.6857 99.604H27.9757C27.3277 102.628 25.8337 105.058 23.4937 106.894C21.1537 108.73 18.2737 109.648 14.8537 109.648ZM45.9626 109.648C43.3706 109.648 41.0306 109.054 38.9426 107.866C36.8906 106.678 35.2526 105.04 34.0286 102.952C32.8406 100.828 32.2466 98.38 32.2466 95.608C32.2466 92.836 32.8586 90.406 34.0826 88.318C35.3066 86.194 36.9446 84.538 38.9966 83.35C41.0846 82.162 43.4246 81.568 46.0166 81.568C48.5726 81.568 50.8766 82.162 52.9286 83.35C55.0166 84.538 56.6546 86.194 57.8426 88.318C59.0666 90.406 59.6786 92.836 59.6786 95.608C59.6786 98.38 59.0666 100.828 57.8426 102.952C56.6546 105.04 55.0166 106.678 52.9286 107.866C50.8406 109.054 48.5186 109.648 45.9626 109.648ZM45.9626 103.654C47.7626 103.654 49.3286 102.988 50.6606 101.656C51.9926 100.288 52.6586 98.272 52.6586 95.608C52.6586 92.944 51.9926 90.946 50.6606 89.614C49.3286 88.246 47.7806 87.562 46.0166 87.562C44.1806 87.562 42.5966 88.246 41.2646 89.614C39.9686 90.946 39.3206 92.944 39.3206 95.608C39.3206 98.272 39.9686 100.288 41.2646 101.656C42.5966 102.988 44.1626 103.654 45.9626 103.654ZM64.8586 109V70.12H71.7706V109H64.8586ZM77.8332 109V70.12H84.7452V109H77.8332ZM100.042 109.648C97.7379 109.648 95.8479 109.288 94.3719 108.568C92.8959 107.812 91.7979 106.822 91.0779 105.598C90.3579 104.374 89.9979 103.024 89.9979 101.548C89.9979 99.064 90.9699 97.048 92.9139 95.5C94.8579 93.952 97.7739 93.178 101.662 93.178H108.466V92.53C108.466 90.694 107.944 89.344 106.9 88.48C105.856 87.616 104.56 87.184 103.012 87.184C101.608 87.184 100.384 87.526 99.3399 88.21C98.2959 88.858 97.6479 89.83 97.3959 91.126H90.6459C90.8259 89.182 91.4739 87.49 92.5899 86.05C93.7419 84.61 95.2179 83.512 97.0179 82.756C98.8179 81.964 100.834 81.568 103.066 81.568C106.882 81.568 109.888 82.522 112.084 84.43C114.28 86.338 115.378 89.038 115.378 92.53V109H109.492L108.844 104.68C108.052 106.12 106.936 107.308 105.496 108.244C104.092 109.18 102.274 109.648 100.042 109.648ZM101.608 104.248C103.588 104.248 105.118 103.6 106.198 102.304C107.314 101.008 108.016 99.406 108.304 97.498H102.418C100.582 97.498 99.2679 97.84 98.4759 98.524C97.6839 99.172 97.2879 99.982 97.2879 100.954C97.2879 101.998 97.6839 102.808 98.4759 103.384C99.2679 103.96 100.312 104.248 101.608 104.248ZM136.85 109.648C134.834 109.648 133.07 109.27 131.558 108.514C130.046 107.758 128.822 106.696 127.886 105.328L127.13 109H120.974V70.12H127.886V86.05C128.75 84.862 129.884 83.818 131.288 82.918C132.728 82.018 134.582 81.568 136.85 81.568C139.37 81.568 141.62 82.18 143.6 83.404C145.58 84.628 147.146 86.302 148.298 88.426C149.45 90.55 150.026 92.962 150.026 95.662C150.026 98.362 149.45 100.774 148.298 102.898C147.146 104.986 145.58 106.642 143.6 107.866C141.62 109.054 139.37 109.648 136.85 109.648ZM135.392 103.6C137.588 103.6 139.406 102.862 140.846 101.386C142.286 99.91 143.006 98.002 143.006 95.662C143.006 93.322 142.286 91.396 140.846 89.884C139.406 88.372 137.588 87.616 135.392 87.616C133.16 87.616 131.324 88.372 129.884 89.884C128.48 91.36 127.778 93.268 127.778 95.608C127.778 97.948 128.48 99.874 129.884 101.386C131.324 102.862 133.16 103.6 135.392 103.6ZM168.052 109.648C165.46 109.648 163.12 109.054 161.032 107.866C158.98 106.678 157.342 105.04 156.118 102.952C154.93 100.828 154.336 98.38 154.336 95.608C154.336 92.836 154.948 90.406 156.172 88.318C157.396 86.194 159.034 84.538 161.086 83.35C163.174 82.162 165.514 81.568 168.106 81.568C170.662 81.568 172.966 82.162 175.018 83.35C177.106 84.538 178.744 86.194 179.932 88.318C181.156 90.406 181.768 92.836 181.768 95.608C181.768 98.38 181.156 100.828 179.932 102.952C178.744 105.04 177.106 106.678 175.018 107.866C172.93 109.054 170.608 109.648 168.052 109.648ZM168.052 103.654C169.852 103.654 171.418 102.988 172.75 101.656C174.082 100.288 174.748 98.272 174.748 95.608C174.748 92.944 174.082 90.946 172.75 89.614C171.418 88.246 169.87 87.562 168.106 87.562C166.27 87.562 164.686 88.246 163.354 89.614C162.058 90.946 161.41 92.944 161.41 95.608C161.41 98.272 162.058 100.288 163.354 101.656C164.686 102.988 166.252 103.654 168.052 103.654ZM186.948 109V82.216H193.104L193.752 87.238C194.724 85.51 196.038 84.142 197.694 83.134C199.386 82.09 201.366 81.568 203.634 81.568V88.858H201.69C200.178 88.858 198.828 89.092 197.64 89.56C196.452 90.028 195.516 90.838 194.832 91.99C194.184 93.142 193.86 94.744 193.86 96.796V109H186.948ZM216.593 109.648C214.289 109.648 212.399 109.288 210.923 108.568C209.447 107.812 208.349 106.822 207.629 105.598C206.909 104.374 206.549 103.024 206.549 101.548C206.549 99.064 207.521 97.048 209.465 95.5C211.409 93.952 214.325 93.178 218.213 93.178H225.017V92.53C225.017 90.694 224.495 89.344 223.451 88.48C222.407 87.616 221.111 87.184 219.563 87.184C218.159 87.184 216.935 87.526 215.891 88.21C214.847 88.858 214.199 89.83 213.947 91.126H207.197C207.377 89.182 208.025 87.49 209.141 86.05C210.293 84.61 211.769 83.512 213.569 82.756C215.369 81.964 217.385 81.568 219.617 81.568C223.433 81.568 226.439 82.522 228.635 84.43C230.831 86.338 231.929 89.038 231.929 92.53V109H226.043L225.395 104.68C224.603 106.12 223.487 107.308 222.047 108.244C220.643 109.18 218.825 109.648 216.593 109.648ZM218.159 104.248C220.139 104.248 221.669 103.6 222.749 102.304C223.865 101.008 224.567 99.406 224.855 97.498H218.969C217.133 97.498 215.819 97.84 215.027 98.524C214.235 99.172 213.839 99.982 213.839 100.954C213.839 101.998 214.235 102.808 215.027 103.384C215.819 103.96 216.863 104.248 218.159 104.248ZM249.09 109C246.282 109 244.032 108.316 242.34 106.948C240.648 105.58 239.802 103.15 239.802 99.658V87.994H235.212V82.216H239.802L240.612 75.034H246.714V82.216H253.95V87.994H246.714V99.712C246.714 101.008 246.984 101.908 247.524 102.412C248.1 102.88 249.072 103.114 250.44 103.114H253.788V109H249.09ZM262.61 78.058C261.35 78.058 260.306 77.68 259.478 76.924C258.686 76.168 258.29 75.214 258.29 74.062C258.29 72.91 258.686 71.974 259.478 71.254C260.306 70.498 261.35 70.12 262.61 70.12C263.87 70.12 264.896 70.498 265.688 71.254C266.516 71.974 266.93 72.91 266.93 74.062C266.93 75.214 266.516 76.168 265.688 76.924C264.896 77.68 263.87 78.058 262.61 78.058ZM259.154 109V82.216H266.066V109H259.154ZM279.517 109L269.689 82.216H276.925L283.729 102.466L290.533 82.216H297.769L287.887 109H279.517ZM312.824 109.648C310.124 109.648 307.73 109.072 305.642 107.92C303.554 106.768 301.916 105.148 300.728 103.06C299.54 100.972 298.946 98.56 298.946 95.824C298.946 93.052 299.522 90.586 300.674 88.426C301.862 86.266 303.482 84.592 305.534 83.404C307.622 82.18 310.07 81.568 312.878 81.568C315.506 81.568 317.828 82.144 319.844 83.296C321.86 84.448 323.426 86.032 324.542 88.048C325.694 90.028 326.27 92.242 326.27 94.69C326.27 95.086 326.252 95.5 326.216 95.932C326.216 96.364 326.198 96.814 326.162 97.282H305.804C305.948 99.37 306.668 101.008 307.964 102.196C309.296 103.384 310.898 103.978 312.77 103.978C314.174 103.978 315.344 103.672 316.28 103.06C317.252 102.412 317.972 101.584 318.44 100.576H325.46C324.956 102.268 324.11 103.816 322.922 105.22C321.77 106.588 320.33 107.668 318.602 108.46C316.91 109.252 314.984 109.648 312.824 109.648ZM312.878 87.184C311.186 87.184 309.692 87.67 308.396 88.642C307.1 89.578 306.272 91.018 305.912 92.962H319.25C319.142 91.198 318.494 89.794 317.306 88.75C316.118 87.706 314.642 87.184 312.878 87.184ZM348.188 109L340.358 82.216H347.216L351.86 101.494L357.26 82.216H364.928L370.328 101.494L375.026 82.216H381.884L374 109H366.818L361.094 88.966L355.37 109H348.188ZM397.31 109.648C394.61 109.648 392.216 109.072 390.128 107.92C388.04 106.768 386.402 105.148 385.214 103.06C384.026 100.972 383.432 98.56 383.432 95.824C383.432 93.052 384.008 90.586 385.16 88.426C386.348 86.266 387.968 84.592 390.02 83.404C392.108 82.18 394.556 81.568 397.364 81.568C399.992 81.568 402.314 82.144 404.33 83.296C406.346 84.448 407.912 86.032 409.028 88.048C410.18 90.028 410.756 92.242 410.756 94.69C410.756 95.086 410.738 95.5 410.702 95.932C410.702 96.364 410.684 96.814 410.648 97.282H390.29C390.434 99.37 391.154 101.008 392.45 102.196C393.782 103.384 395.384 103.978 397.256 103.978C398.66 103.978 399.83 103.672 400.766 103.06C401.738 102.412 402.458 101.584 402.926 100.576H409.946C409.442 102.268 408.596 103.816 407.408 105.22C406.256 106.588 404.816 107.668 403.088 108.46C401.396 109.252 399.47 109.648 397.31 109.648ZM397.364 87.184C395.672 87.184 394.178 87.67 392.882 88.642C391.586 89.578 390.758 91.018 390.398 92.962H403.736C403.628 91.198 402.98 89.794 401.792 88.75C400.604 87.706 399.128 87.184 397.364 87.184ZM431.446 109.648C429.43 109.648 427.666 109.27 426.154 108.514C424.642 107.758 423.418 106.696 422.482 105.328L421.726 109H415.57V70.12H422.482V86.05C423.346 84.862 424.48 83.818 425.884 82.918C427.324 82.018 429.178 81.568 431.446 81.568C433.966 81.568 436.216 82.18 438.196 83.404C440.176 84.628 441.742 86.302 442.894 88.426C444.046 90.55 444.622 92.962 444.622 95.662C444.622 98.362 444.046 100.774 442.894 102.898C441.742 104.986 440.176 106.642 438.196 107.866C436.216 109.054 433.966 109.648 431.446 109.648ZM429.988 103.6C432.184 103.6 434.002 102.862 435.442 101.386C436.882 99.91 437.602 98.002 437.602 95.662C437.602 93.322 436.882 91.396 435.442 89.884C434.002 88.372 432.184 87.616 429.988 87.616C427.756 87.616 425.92 88.372 424.48 89.884C423.076 91.36 422.374 93.268 422.374 95.608C422.374 97.948 423.076 99.874 424.48 101.386C425.92 102.862 427.756 103.6 429.988 103.6ZM473.975 109.648C471.455 109.648 469.205 109.036 467.225 107.812C465.245 106.588 463.679 104.914 462.527 102.79C461.375 100.666 460.799 98.254 460.799 95.554C460.799 92.854 461.375 90.46 462.527 88.372C463.679 86.248 465.245 84.592 467.225 83.404C469.205 82.18 471.455 81.568 473.975 81.568C475.991 81.568 477.755 81.946 479.267 82.702C480.779 83.458 482.003 84.52 482.939 85.888V70.12H489.851V109H483.695L482.939 105.166C482.075 106.354 480.923 107.398 479.483 108.298C478.079 109.198 476.243 109.648 473.975 109.648ZM475.433 103.6C477.665 103.6 479.483 102.862 480.887 101.386C482.327 99.874 483.047 97.948 483.047 95.608C483.047 93.268 482.327 91.36 480.887 89.884C479.483 88.372 477.665 87.616 475.433 87.616C473.237 87.616 471.419 88.354 469.979 89.83C468.539 91.306 467.819 93.214 467.819 95.554C467.819 97.894 468.539 99.82 469.979 101.332C471.419 102.844 473.237 103.6 475.433 103.6ZM508.904 109.648C506.204 109.648 503.81 109.072 501.722 107.92C499.634 106.768 497.996 105.148 496.808 103.06C495.62 100.972 495.026 98.56 495.026 95.824C495.026 93.052 495.602 90.586 496.754 88.426C497.942 86.266 499.562 84.592 501.614 83.404C503.702 82.18 506.15 81.568 508.958 81.568C511.586 81.568 513.908 82.144 515.924 83.296C517.94 84.448 519.506 86.032 520.622 88.048C521.774 90.028 522.35 92.242 522.35 94.69C522.35 95.086 522.332 95.5 522.296 95.932C522.296 96.364 522.278 96.814 522.242 97.282H501.884C502.028 99.37 502.748 101.008 504.044 102.196C505.376 103.384 506.978 103.978 508.85 103.978C510.254 103.978 511.424 103.672 512.36 103.06C513.332 102.412 514.052 101.584 514.52 100.576H521.54C521.036 102.268 520.19 103.816 519.002 105.22C517.85 106.588 516.41 107.668 514.682 108.46C512.99 109.252 511.064 109.648 508.904 109.648ZM508.958 87.184C507.266 87.184 505.772 87.67 504.476 88.642C503.18 89.578 502.352 91.018 501.992 92.962H515.33C515.222 91.198 514.574 89.794 513.386 88.75C512.198 87.706 510.722 87.184 508.958 87.184ZM533.345 109L523.517 82.216H530.753L537.557 102.466L544.361 82.216H551.597L541.715 109H533.345ZM566.652 109.648C563.952 109.648 561.558 109.072 559.47 107.92C557.382 106.768 555.744 105.148 554.556 103.06C553.368 100.972 552.774 98.56 552.774 95.824C552.774 93.052 553.35 90.586 554.502 88.426C555.69 86.266 557.31 84.592 559.362 83.404C561.45 82.18 563.898 81.568 566.706 81.568C569.334 81.568 571.656 82.144 573.672 83.296C575.688 84.448 577.254 86.032 578.37 88.048C579.522 90.028 580.098 92.242 580.098 94.69C580.098 95.086 580.08 95.5 580.044 95.932C580.044 96.364 580.026 96.814 579.99 97.282H559.632C559.776 99.37 560.496 101.008 561.792 102.196C563.124 103.384 564.726 103.978 566.598 103.978C568.002 103.978 569.172 103.672 570.108 103.06C571.08 102.412 571.8 101.584 572.268 100.576H579.288C578.784 102.268 577.938 103.816 576.75 105.22C575.598 106.588 574.158 107.668 572.43 108.46C570.738 109.252 568.812 109.648 566.652 109.648ZM566.706 87.184C565.014 87.184 563.52 87.67 562.224 88.642C560.928 89.578 560.1 91.018 559.74 92.962H573.078C572.97 91.198 572.322 89.794 571.134 88.75C569.946 87.706 568.47 87.184 566.706 87.184ZM584.911 109V70.12H591.823V109H584.911ZM610.738 109.648C608.146 109.648 605.806 109.054 603.718 107.866C601.666 106.678 600.028 105.04 598.804 102.952C597.616 100.828 597.022 98.38 597.022 95.608C597.022 92.836 597.634 90.406 598.858 88.318C600.082 86.194 601.72 84.538 603.772 83.35C605.86 82.162 608.2 81.568 610.792 81.568C613.348 81.568 615.652 82.162 617.704 83.35C619.792 84.538 621.43 86.194 622.618 88.318C623.842 90.406 624.454 92.836 624.454 95.608C624.454 98.38 623.842 100.828 622.618 102.952C621.43 105.04 619.792 106.678 617.704 107.866C615.616 109.054 613.294 109.648 610.738 109.648ZM610.738 103.654C612.538 103.654 614.104 102.988 615.436 101.656C616.768 100.288 617.434 98.272 617.434 95.608C617.434 92.944 616.768 90.946 615.436 89.614C614.104 88.246 612.556 87.562 610.792 87.562C608.956 87.562 607.372 88.246 606.04 89.614C604.744 90.946 604.096 92.944 604.096 95.608C604.096 98.272 604.744 100.288 606.04 101.656C607.372 102.988 608.938 103.654 610.738 103.654ZM629.634 120.88V82.216H635.79L636.546 86.05C637.41 84.862 638.544 83.818 639.948 82.918C641.388 82.018 643.242 81.568 645.51 81.568C648.03 81.568 650.28 82.18 652.26 83.404C654.24 84.628 655.806 86.302 656.958 88.426C658.11 90.55 658.686 92.962 658.686 95.662C658.686 98.362 658.11 100.774 656.958 102.898C655.806 104.986 654.24 106.642 652.26 107.866C650.28 109.054 648.03 109.648 645.51 109.648C643.494 109.648 641.73 109.27 640.218 108.514C638.706 107.758 637.482 106.696 636.546 105.328V120.88H629.634ZM644.052 103.6C646.248 103.6 648.066 102.862 649.506 101.386C650.946 99.91 651.666 98.002 651.666 95.662C651.666 93.322 650.946 91.396 649.506 89.884C648.066 88.372 646.248 87.616 644.052 87.616C641.82 87.616 639.984 88.372 638.544 89.884C637.14 91.36 636.438 93.268 636.438 95.608C636.438 97.948 637.14 99.874 638.544 101.386C639.984 102.862 641.82 103.6 644.052 103.6ZM663.861 109V82.216H669.963L670.557 85.834C671.421 84.538 672.555 83.512 673.959 82.756C675.399 81.964 677.055 81.568 678.927 81.568C683.067 81.568 686.001 83.17 687.729 86.374C688.701 84.898 689.997 83.728 691.617 82.864C693.273 82 695.073 81.568 697.017 81.568C700.509 81.568 703.191 82.612 705.063 84.7C706.935 86.788 707.871 89.848 707.871 93.88V109H700.959V94.528C700.959 92.224 700.509 90.46 699.609 89.236C698.745 88.012 697.395 87.4 695.559 87.4C693.687 87.4 692.175 88.084 691.023 89.452C689.907 90.82 689.349 92.728 689.349 95.176V109H682.437V94.528C682.437 92.224 681.987 90.46 681.087 89.236C680.187 88.012 678.801 87.4 676.929 87.4C675.093 87.4 673.599 88.084 672.447 89.452C671.331 90.82 670.773 92.728 670.773 95.176V109H663.861ZM726.447 109.648C723.747 109.648 721.353 109.072 719.265 107.92C717.177 106.768 715.539 105.148 714.351 103.06C713.163 100.972 712.569 98.56 712.569 95.824C712.569 93.052 713.145 90.586 714.297 88.426C715.485 86.266 717.105 84.592 719.157 83.404C721.245 82.18 723.693 81.568 726.501 81.568C729.129 81.568 731.451 82.144 733.467 83.296C735.483 84.448 737.049 86.032 738.165 88.048C739.317 90.028 739.893 92.242 739.893 94.69C739.893 95.086 739.875 95.5 739.839 95.932C739.839 96.364 739.821 96.814 739.785 97.282H719.427C719.571 99.37 720.291 101.008 721.587 102.196C722.919 103.384 724.521 103.978 726.393 103.978C727.797 103.978 728.967 103.672 729.903 103.06C730.875 102.412 731.595 101.584 732.063 100.576H739.083C738.579 102.268 737.733 103.816 736.545 105.22C735.393 106.588 733.953 107.668 732.225 108.46C730.533 109.252 728.607 109.648 726.447 109.648ZM726.501 87.184C724.809 87.184 723.315 87.67 722.019 88.642C720.723 89.578 719.895 91.018 719.535 92.962H732.873C732.765 91.198 732.117 89.794 730.929 88.75C729.741 87.706 728.265 87.184 726.501 87.184ZM744.706 109V82.216H750.808L751.348 86.752C752.176 85.168 753.364 83.908 754.912 82.972C756.496 82.036 758.35 81.568 760.474 81.568C763.786 81.568 766.36 82.612 768.196 84.7C770.032 86.788 770.95 89.848 770.95 93.88V109H764.038V94.528C764.038 92.224 763.57 90.46 762.634 89.236C761.698 88.012 760.24 87.4 758.26 87.4C756.316 87.4 754.714 88.084 753.454 89.452C752.23 90.82 751.618 92.728 751.618 95.176V109H744.706ZM788.494 109C785.686 109 783.436 108.316 781.744 106.948C780.052 105.58 779.206 103.15 779.206 99.658V87.994H774.616V82.216H779.206L780.016 75.034H786.118V82.216H793.354V87.994H786.118V99.712C786.118 101.008 786.388 101.908 786.928 102.412C787.504 102.88 788.476 103.114 789.844 103.114H793.192V109H788.494Z" fill="#1E0E62"/>
</svg>
