<svg width="780" height="121" viewBox="0 0 780 121" fill="none" xmlns="http://www.w3.org/2000/svg">
<path d="M131.9 39V6.762H120.884V1.2H149.882V6.762H138.812V39H131.9ZM153.84 39V0.119998H160.752V16.32C161.652 14.844 162.858 13.692 164.37 12.864C165.918 12 167.682 11.568 169.662 11.568C172.974 11.568 175.53 12.612 177.33 14.7C179.166 16.788 180.084 19.848 180.084 23.88V39H173.226V24.528C173.226 22.224 172.758 20.46 171.822 19.236C170.922 18.012 169.482 17.4 167.502 17.4C165.558 17.4 163.938 18.084 162.642 19.452C161.382 20.82 160.752 22.728 160.752 25.176V39H153.84ZM198.708 39.648C196.008 39.648 193.614 39.072 191.526 37.92C189.438 36.768 187.8 35.148 186.612 33.06C185.424 30.972 184.83 28.56 184.83 25.824C184.83 23.052 185.406 20.586 186.558 18.426C187.746 16.266 189.366 14.592 191.418 13.404C193.506 12.18 195.954 11.568 198.762 11.568C201.39 11.568 203.712 12.144 205.728 13.296C207.744 14.448 209.31 16.032 210.426 18.048C211.578 20.028 212.154 22.242 212.154 24.69C212.154 25.086 212.136 25.5 212.1 25.932C212.1 26.364 212.082 26.814 212.046 27.282H191.688C191.832 29.37 192.552 31.008 193.848 32.196C195.18 33.384 196.782 33.978 198.654 33.978C200.058 33.978 201.228 33.672 202.164 33.06C203.136 32.412 203.856 31.584 204.324 30.576H211.344C210.84 32.268 209.994 33.816 208.806 35.22C207.654 36.588 206.214 37.668 204.486 38.46C202.794 39.252 200.868 39.648 198.708 39.648ZM198.762 17.184C197.07 17.184 195.576 17.67 194.28 18.642C192.984 19.578 192.156 21.018 191.796 22.962H205.134C205.026 21.198 204.378 19.794 203.19 18.75C202.002 17.706 200.526 17.184 198.762 17.184ZM228.834 39V12.216H234.936L235.476 16.752C236.304 15.168 237.492 13.908 239.04 12.972C240.624 12.036 242.478 11.568 244.602 11.568C247.914 11.568 250.488 12.612 252.324 14.7C254.16 16.788 255.078 19.848 255.078 23.88V39H248.166V24.528C248.166 22.224 247.698 20.46 246.762 19.236C245.826 18.012 244.368 17.4 242.388 17.4C240.444 17.4 238.842 18.084 237.582 19.452C236.358 20.82 235.746 22.728 235.746 25.176V39H228.834ZM273.702 39.648C271.002 39.648 268.608 39.072 266.52 37.92C264.432 36.768 262.794 35.148 261.606 33.06C260.418 30.972 259.824 28.56 259.824 25.824C259.824 23.052 260.4 20.586 261.552 18.426C262.74 16.266 264.36 14.592 266.412 13.404C268.5 12.18 270.948 11.568 273.756 11.568C276.384 11.568 278.706 12.144 280.722 13.296C282.738 14.448 284.304 16.032 285.42 18.048C286.572 20.028 287.148 22.242 287.148 24.69C287.148 25.086 287.13 25.5 287.094 25.932C287.094 26.364 287.076 26.814 287.04 27.282H266.682C266.826 29.37 267.546 31.008 268.842 32.196C270.174 33.384 271.776 33.978 273.648 33.978C275.052 33.978 276.222 33.672 277.158 33.06C278.13 32.412 278.85 31.584 279.318 30.576H286.338C285.834 32.268 284.988 33.816 283.8 35.22C282.648 36.588 281.208 37.668 279.48 38.46C277.788 39.252 275.862 39.648 273.702 39.648ZM273.756 17.184C272.064 17.184 270.57 17.67 269.274 18.642C267.978 19.578 267.15 21.018 266.79 22.962H280.128C280.02 21.198 279.372 19.794 278.184 18.75C276.996 17.706 275.52 17.184 273.756 17.184ZM287.577 39L297.297 25.608L287.577 12.216H294.975L301.779 21.72L308.529 12.216H315.981L306.207 25.608L315.981 39H308.529L301.779 29.496L294.975 39H287.577ZM331.319 39C328.511 39 326.261 38.316 324.569 36.948C322.877 35.58 322.031 33.15 322.031 29.658V17.994H317.441V12.216H322.031L322.841 5.034H328.943V12.216H336.179V17.994H328.943V29.712C328.943 31.008 329.213 31.908 329.753 32.412C330.329 32.88 331.301 33.114 332.669 33.114H336.017V39H331.319ZM352.981 39V12.216H359.137L359.785 17.238C360.757 15.51 362.071 14.142 363.727 13.134C365.419 12.09 367.399 11.568 369.667 11.568V18.858H367.723C366.211 18.858 364.861 19.092 363.673 19.56C362.485 20.028 361.549 20.838 360.865 21.99C360.217 23.142 359.893 24.744 359.893 26.796V39H352.981ZM385.93 39.648C383.23 39.648 380.836 39.072 378.748 37.92C376.66 36.768 375.022 35.148 373.834 33.06C372.646 30.972 372.052 28.56 372.052 25.824C372.052 23.052 372.628 20.586 373.78 18.426C374.968 16.266 376.588 14.592 378.64 13.404C380.728 12.18 383.176 11.568 385.984 11.568C388.612 11.568 390.934 12.144 392.95 13.296C394.966 14.448 396.532 16.032 397.648 18.048C398.8 20.028 399.376 22.242 399.376 24.69C399.376 25.086 399.358 25.5 399.322 25.932C399.322 26.364 399.304 26.814 399.268 27.282H378.91C379.054 29.37 379.774 31.008 381.07 32.196C382.402 33.384 384.004 33.978 385.876 33.978C387.28 33.978 388.45 33.672 389.386 33.06C390.358 32.412 391.078 31.584 391.546 30.576H398.566C398.062 32.268 397.216 33.816 396.028 35.22C394.876 36.588 393.436 37.668 391.708 38.46C390.016 39.252 388.09 39.648 385.93 39.648ZM385.984 17.184C384.292 17.184 382.798 17.67 381.502 18.642C380.206 19.578 379.378 21.018 379.018 22.962H392.356C392.248 21.198 391.6 19.794 390.412 18.75C389.224 17.706 387.748 17.184 385.984 17.184ZM410.371 39L400.543 12.216H407.779L414.583 32.466L421.387 12.216H428.623L418.741 39H410.371ZM443.516 39.648C440.924 39.648 438.584 39.054 436.496 37.866C434.444 36.678 432.806 35.04 431.582 32.952C430.394 30.828 429.8 28.38 429.8 25.608C429.8 22.836 430.412 20.406 431.636 18.318C432.86 16.194 434.498 14.538 436.55 13.35C438.638 12.162 440.978 11.568 443.57 11.568C446.126 11.568 448.43 12.162 450.482 13.35C452.57 14.538 454.208 16.194 455.396 18.318C456.62 20.406 457.232 22.836 457.232 25.608C457.232 28.38 456.62 30.828 455.396 32.952C454.208 35.04 452.57 36.678 450.482 37.866C448.394 39.054 446.072 39.648 443.516 39.648ZM443.516 33.654C445.316 33.654 446.882 32.988 448.214 31.656C449.546 30.288 450.212 28.272 450.212 25.608C450.212 22.944 449.546 20.946 448.214 19.614C446.882 18.246 445.334 17.562 443.57 17.562C441.734 17.562 440.15 18.246 438.818 19.614C437.522 20.946 436.874 22.944 436.874 25.608C436.874 28.272 437.522 30.288 438.818 31.656C440.15 32.988 441.716 33.654 443.516 33.654ZM462.412 39V0.119998H469.324V39H462.412ZM485.431 39.648C482.083 39.648 479.491 38.604 477.655 36.516C475.855 34.428 474.955 31.368 474.955 27.336V12.216H481.813V26.688C481.813 28.992 482.281 30.756 483.217 31.98C484.153 33.204 485.629 33.816 487.645 33.816C489.553 33.816 491.119 33.132 492.343 31.764C493.603 30.396 494.233 28.488 494.233 26.04V12.216H501.145V39H495.043L494.503 34.464C493.675 36.048 492.469 37.308 490.885 38.244C489.337 39.18 487.519 39.648 485.431 39.648ZM519.174 39C516.366 39 514.116 38.316 512.424 36.948C510.732 35.58 509.886 33.15 509.886 29.658V17.994H505.296V12.216H509.886L510.696 5.034H516.798V12.216H524.034V17.994H516.798V29.712C516.798 31.008 517.068 31.908 517.608 32.412C518.184 32.88 519.156 33.114 520.524 33.114H523.872V39H519.174ZM532.695 8.058C531.435 8.058 530.391 7.68 529.563 6.924C528.771 6.168 528.375 5.214 528.375 4.062C528.375 2.91 528.771 1.974 529.563 1.254C530.391 0.497998 531.435 0.119998 532.695 0.119998C533.955 0.119998 534.981 0.497998 535.773 1.254C536.601 1.974 537.015 2.91 537.015 4.062C537.015 5.214 536.601 6.168 535.773 6.924C534.981 7.68 533.955 8.058 532.695 8.058ZM529.239 39V12.216H536.151V39H529.239ZM555.217 39.648C552.625 39.648 550.285 39.054 548.197 37.866C546.145 36.678 544.507 35.04 543.283 32.952C542.095 30.828 541.501 28.38 541.501 25.608C541.501 22.836 542.113 20.406 543.337 18.318C544.561 16.194 546.199 14.538 548.251 13.35C550.339 12.162 552.679 11.568 555.271 11.568C557.827 11.568 560.131 12.162 562.183 13.35C564.271 14.538 565.909 16.194 567.097 18.318C568.321 20.406 568.933 22.836 568.933 25.608C568.933 28.38 568.321 30.828 567.097 32.952C565.909 35.04 564.271 36.678 562.183 37.866C560.095 39.054 557.773 39.648 555.217 39.648ZM555.217 33.654C557.017 33.654 558.583 32.988 559.915 31.656C561.247 30.288 561.913 28.272 561.913 25.608C561.913 22.944 561.247 20.946 559.915 19.614C558.583 18.246 557.035 17.562 555.271 17.562C553.435 17.562 551.851 18.246 550.519 19.614C549.223 20.946 548.575 22.944 548.575 25.608C548.575 28.272 549.223 30.288 550.519 31.656C551.851 32.988 553.417 33.654 555.217 33.654ZM574.114 39V12.216H580.216L580.756 16.752C581.584 15.168 582.772 13.908 584.32 12.972C585.904 12.036 587.758 11.568 589.882 11.568C593.194 11.568 595.768 12.612 597.604 14.7C599.44 16.788 600.358 19.848 600.358 23.88V39H593.446V24.528C593.446 22.224 592.978 20.46 592.042 19.236C591.106 18.012 589.648 17.4 587.668 17.4C585.724 17.4 584.122 18.084 582.862 19.452C581.638 20.82 581.026 22.728 581.026 25.176V39H574.114ZM621.56 8.058C620.3 8.058 619.256 7.68 618.428 6.924C617.636 6.168 617.24 5.214 617.24 4.062C617.24 2.91 617.636 1.974 618.428 1.254C619.256 0.497998 620.3 0.119998 621.56 0.119998C622.82 0.119998 623.846 0.497998 624.638 1.254C625.466 1.974 625.88 2.91 625.88 4.062C625.88 5.214 625.466 6.168 624.638 6.924C623.846 7.68 622.82 8.058 621.56 8.058ZM618.104 39V12.216H625.016V39H618.104ZM631.231 39V12.216H637.333L637.873 16.752C638.701 15.168 639.889 13.908 641.437 12.972C643.021 12.036 644.875 11.568 646.999 11.568C650.311 11.568 652.885 12.612 654.721 14.7C656.557 16.788 657.475 19.848 657.475 23.88V39H650.563V24.528C650.563 22.224 650.095 20.46 649.159 19.236C648.223 18.012 646.765 17.4 644.785 17.4C642.841 17.4 641.239 18.084 639.979 19.452C638.755 20.82 638.143 22.728 638.143 25.176V39H631.231ZM14.341 109.648C11.605 109.648 9.19298 109.054 7.10498 107.866C5.01698 106.678 3.36098 105.022 2.13698 102.898C0.948985 100.774 0.354985 98.344 0.354985 95.608C0.354985 92.872 0.948985 90.442 2.13698 88.318C3.36098 86.194 5.01698 84.538 7.10498 83.35C9.19298 82.162 11.605 81.568 14.341 81.568C17.761 81.568 20.641 82.468 22.981 84.268C25.321 86.032 26.815 88.48 27.463 91.612H20.173C19.813 90.316 19.093 89.308 18.013 88.588C16.969 87.832 15.727 87.454 14.287 87.454C12.379 87.454 10.759 88.174 9.42698 89.614C8.09498 91.054 7.42898 93.052 7.42898 95.608C7.42898 98.164 8.09498 100.162 9.42698 101.602C10.759 103.042 12.379 103.762 14.287 103.762C15.727 103.762 16.969 103.402 18.013 102.682C19.093 101.962 19.813 100.936 20.173 99.604H27.463C26.815 102.628 25.321 105.058 22.981 106.894C20.641 108.73 17.761 109.648 14.341 109.648ZM45.4499 109.648C42.8579 109.648 40.5179 109.054 38.4299 107.866C36.3779 106.678 34.7399 105.04 33.5159 102.952C32.3279 100.828 31.7339 98.38 31.7339 95.608C31.7339 92.836 32.3459 90.406 33.5699 88.318C34.7939 86.194 36.4319 84.538 38.4839 83.35C40.5719 82.162 42.9119 81.568 45.5039 81.568C48.0599 81.568 50.3639 82.162 52.4159 83.35C54.5039 84.538 56.1419 86.194 57.3299 88.318C58.5539 90.406 59.1659 92.836 59.1659 95.608C59.1659 98.38 58.5539 100.828 57.3299 102.952C56.1419 105.04 54.5039 106.678 52.4159 107.866C50.3279 109.054 48.0059 109.648 45.4499 109.648ZM45.4499 103.654C47.2499 103.654 48.8159 102.988 50.1479 101.656C51.4799 100.288 52.1459 98.272 52.1459 95.608C52.1459 92.944 51.4799 90.946 50.1479 89.614C48.8159 88.246 47.2679 87.562 45.5039 87.562C43.6679 87.562 42.0839 88.246 40.7519 89.614C39.4559 90.946 38.8079 92.944 38.8079 95.608C38.8079 98.272 39.4559 100.288 40.7519 101.656C42.0839 102.988 43.6499 103.654 45.4499 103.654ZM64.3459 109V70.12H71.2579V109H64.3459ZM86.5545 109.648C84.2505 109.648 82.3605 109.288 80.8845 108.568C79.4085 107.812 78.3105 106.822 77.5905 105.598C76.8705 104.374 76.5105 103.024 76.5105 101.548C76.5105 99.064 77.4825 97.048 79.4265 95.5C81.3705 93.952 84.2865 93.178 88.1745 93.178H94.9785V92.53C94.9785 90.694 94.4565 89.344 93.4125 88.48C92.3685 87.616 91.0725 87.184 89.5245 87.184C88.1205 87.184 86.8965 87.526 85.8525 88.21C84.8085 88.858 84.1605 89.83 83.9085 91.126H77.1585C77.3385 89.182 77.9865 87.49 79.1025 86.05C80.2545 84.61 81.7305 83.512 83.5305 82.756C85.3305 81.964 87.3465 81.568 89.5785 81.568C93.3945 81.568 96.4005 82.522 98.5965 84.43C100.793 86.338 101.891 89.038 101.891 92.53V109H96.0045L95.3565 104.68C94.5645 106.12 93.4485 107.308 92.0085 108.244C90.6045 109.18 88.7865 109.648 86.5545 109.648ZM88.1205 104.248C90.1005 104.248 91.6305 103.6 92.7105 102.304C93.8265 101.008 94.5285 99.406 94.8165 97.498H88.9305C87.0945 97.498 85.7805 97.84 84.9885 98.524C84.1965 99.172 83.8005 99.982 83.8005 100.954C83.8005 101.998 84.1965 102.808 84.9885 103.384C85.7805 103.96 86.8245 104.248 88.1205 104.248ZM123.363 109.648C121.347 109.648 119.583 109.27 118.071 108.514C116.559 107.758 115.335 106.696 114.399 105.328L113.643 109H107.487V70.12H114.399V86.05C115.263 84.862 116.397 83.818 117.801 82.918C119.241 82.018 121.095 81.568 123.363 81.568C125.883 81.568 128.133 82.18 130.113 83.404C132.093 84.628 133.659 86.302 134.811 88.426C135.963 90.55 136.539 92.962 136.539 95.662C136.539 98.362 135.963 100.774 134.811 102.898C133.659 104.986 132.093 106.642 130.113 107.866C128.133 109.054 125.883 109.648 123.363 109.648ZM121.905 103.6C124.101 103.6 125.919 102.862 127.359 101.386C128.799 99.91 129.519 98.002 129.519 95.662C129.519 93.322 128.799 91.396 127.359 89.884C125.919 88.372 124.101 87.616 121.905 87.616C119.673 87.616 117.837 88.372 116.397 89.884C114.993 91.36 114.291 93.268 114.291 95.608C114.291 97.948 114.993 99.874 116.397 101.386C117.837 102.862 119.673 103.6 121.905 103.6ZM154.565 109.648C151.973 109.648 149.633 109.054 147.545 107.866C145.493 106.678 143.855 105.04 142.631 102.952C141.443 100.828 140.849 98.38 140.849 95.608C140.849 92.836 141.461 90.406 142.685 88.318C143.909 86.194 145.547 84.538 147.599 83.35C149.687 82.162 152.027 81.568 154.619 81.568C157.175 81.568 159.479 82.162 161.531 83.35C163.619 84.538 165.257 86.194 166.445 88.318C167.669 90.406 168.281 92.836 168.281 95.608C168.281 98.38 167.669 100.828 166.445 102.952C165.257 105.04 163.619 106.678 161.531 107.866C159.443 109.054 157.121 109.648 154.565 109.648ZM154.565 103.654C156.365 103.654 157.931 102.988 159.263 101.656C160.595 100.288 161.261 98.272 161.261 95.608C161.261 92.944 160.595 90.946 159.263 89.614C157.931 88.246 156.383 87.562 154.619 87.562C152.783 87.562 151.199 88.246 149.867 89.614C148.571 90.946 147.923 92.944 147.923 95.608C147.923 98.272 148.571 100.288 149.867 101.656C151.199 102.988 152.765 103.654 154.565 103.654ZM173.461 109V82.216H179.617L180.265 87.238C181.237 85.51 182.551 84.142 184.207 83.134C185.899 82.09 187.879 81.568 190.147 81.568V88.858H188.203C186.691 88.858 185.341 89.092 184.153 89.56C182.965 90.028 182.029 90.838 181.345 91.99C180.697 93.142 180.373 94.744 180.373 96.796V109H173.461ZM203.105 109.648C200.801 109.648 198.911 109.288 197.435 108.568C195.959 107.812 194.861 106.822 194.141 105.598C193.421 104.374 193.061 103.024 193.061 101.548C193.061 99.064 194.033 97.048 195.977 95.5C197.921 93.952 200.837 93.178 204.725 93.178H211.529V92.53C211.529 90.694 211.007 89.344 209.963 88.48C208.919 87.616 207.623 87.184 206.075 87.184C204.671 87.184 203.447 87.526 202.403 88.21C201.359 88.858 200.711 89.83 200.459 91.126H193.709C193.889 89.182 194.537 87.49 195.653 86.05C196.805 84.61 198.281 83.512 200.081 82.756C201.881 81.964 203.897 81.568 206.129 81.568C209.945 81.568 212.951 82.522 215.147 84.43C217.343 86.338 218.441 89.038 218.441 92.53V109H212.555L211.907 104.68C211.115 106.12 209.999 107.308 208.559 108.244C207.155 109.18 205.337 109.648 203.105 109.648ZM204.671 104.248C206.651 104.248 208.181 103.6 209.261 102.304C210.377 101.008 211.079 99.406 211.367 97.498H205.481C203.645 97.498 202.331 97.84 201.539 98.524C200.747 99.172 200.351 99.982 200.351 100.954C200.351 101.998 200.747 102.808 201.539 103.384C202.331 103.96 203.375 104.248 204.671 104.248ZM235.602 109C232.794 109 230.544 108.316 228.852 106.948C227.16 105.58 226.314 103.15 226.314 99.658V87.994H221.724V82.216H226.314L227.124 75.034H233.226V82.216H240.462V87.994H233.226V99.712C233.226 101.008 233.496 101.908 234.036 102.412C234.612 102.88 235.584 103.114 236.952 103.114H240.3V109H235.602ZM249.123 78.058C247.863 78.058 246.819 77.68 245.991 76.924C245.199 76.168 244.803 75.214 244.803 74.062C244.803 72.91 245.199 71.974 245.991 71.254C246.819 70.498 247.863 70.12 249.123 70.12C250.383 70.12 251.409 70.498 252.201 71.254C253.029 71.974 253.443 72.91 253.443 74.062C253.443 75.214 253.029 76.168 252.201 76.924C251.409 77.68 250.383 78.058 249.123 78.058ZM245.667 109V82.216H252.579V109H245.667ZM266.029 109L256.201 82.216H263.437L270.241 102.466L277.045 82.216H284.281L274.399 109H266.029ZM299.337 109.648C296.637 109.648 294.243 109.072 292.155 107.92C290.067 106.768 288.429 105.148 287.241 103.06C286.053 100.972 285.459 98.56 285.459 95.824C285.459 93.052 286.035 90.586 287.187 88.426C288.375 86.266 289.995 84.592 292.047 83.404C294.135 82.18 296.583 81.568 299.391 81.568C302.019 81.568 304.341 82.144 306.357 83.296C308.373 84.448 309.939 86.032 311.055 88.048C312.207 90.028 312.783 92.242 312.783 94.69C312.783 95.086 312.765 95.5 312.729 95.932C312.729 96.364 312.711 96.814 312.675 97.282H292.317C292.461 99.37 293.181 101.008 294.477 102.196C295.809 103.384 297.411 103.978 299.283 103.978C300.687 103.978 301.857 103.672 302.793 103.06C303.765 102.412 304.485 101.584 304.953 100.576H311.973C311.469 102.268 310.623 103.816 309.435 105.22C308.283 106.588 306.843 107.668 305.115 108.46C303.423 109.252 301.497 109.648 299.337 109.648ZM299.391 87.184C297.699 87.184 296.205 87.67 294.909 88.642C293.613 89.578 292.785 91.018 292.425 92.962H305.763C305.655 91.198 305.007 89.794 303.819 88.75C302.631 87.706 301.155 87.184 299.391 87.184ZM334.701 109L326.871 82.216H333.729L338.373 101.494L343.773 82.216H351.441L356.841 101.494L361.539 82.216H368.397L360.513 109H353.331L347.607 88.966L341.883 109H334.701ZM383.823 109.648C381.123 109.648 378.729 109.072 376.641 107.92C374.553 106.768 372.915 105.148 371.727 103.06C370.539 100.972 369.945 98.56 369.945 95.824C369.945 93.052 370.521 90.586 371.673 88.426C372.861 86.266 374.481 84.592 376.533 83.404C378.621 82.18 381.069 81.568 383.877 81.568C386.505 81.568 388.827 82.144 390.843 83.296C392.859 84.448 394.425 86.032 395.541 88.048C396.693 90.028 397.269 92.242 397.269 94.69C397.269 95.086 397.251 95.5 397.215 95.932C397.215 96.364 397.197 96.814 397.161 97.282H376.803C376.947 99.37 377.667 101.008 378.963 102.196C380.295 103.384 381.897 103.978 383.769 103.978C385.173 103.978 386.343 103.672 387.279 103.06C388.251 102.412 388.971 101.584 389.439 100.576H396.459C395.955 102.268 395.109 103.816 393.921 105.22C392.769 106.588 391.329 107.668 389.601 108.46C387.909 109.252 385.983 109.648 383.823 109.648ZM383.877 87.184C382.185 87.184 380.691 87.67 379.395 88.642C378.099 89.578 377.271 91.018 376.911 92.962H390.249C390.141 91.198 389.493 89.794 388.305 88.75C387.117 87.706 385.641 87.184 383.877 87.184ZM417.958 109.648C415.942 109.648 414.178 109.27 412.666 108.514C411.154 107.758 409.93 106.696 408.994 105.328L408.238 109H402.082V70.12H408.994V86.05C409.858 84.862 410.992 83.818 412.396 82.918C413.836 82.018 415.69 81.568 417.958 81.568C420.478 81.568 422.728 82.18 424.708 83.404C426.688 84.628 428.254 86.302 429.406 88.426C430.558 90.55 431.134 92.962 431.134 95.662C431.134 98.362 430.558 100.774 429.406 102.898C428.254 104.986 426.688 106.642 424.708 107.866C422.728 109.054 420.478 109.648 417.958 109.648ZM416.5 103.6C418.696 103.6 420.514 102.862 421.954 101.386C423.394 99.91 424.114 98.002 424.114 95.662C424.114 93.322 423.394 91.396 421.954 89.884C420.514 88.372 418.696 87.616 416.5 87.616C414.268 87.616 412.432 88.372 410.992 89.884C409.588 91.36 408.886 93.268 408.886 95.608C408.886 97.948 409.588 99.874 410.992 101.386C412.432 102.862 414.268 103.6 416.5 103.6ZM460.488 109.648C457.968 109.648 455.718 109.036 453.738 107.812C451.758 106.588 450.192 104.914 449.04 102.79C447.888 100.666 447.312 98.254 447.312 95.554C447.312 92.854 447.888 90.46 449.04 88.372C450.192 86.248 451.758 84.592 453.738 83.404C455.718 82.18 457.968 81.568 460.488 81.568C462.504 81.568 464.268 81.946 465.78 82.702C467.292 83.458 468.516 84.52 469.452 85.888V70.12H476.364V109H470.208L469.452 105.166C468.588 106.354 467.436 107.398 465.996 108.298C464.592 109.198 462.756 109.648 460.488 109.648ZM461.946 103.6C464.178 103.6 465.996 102.862 467.4 101.386C468.84 99.874 469.56 97.948 469.56 95.608C469.56 93.268 468.84 91.36 467.4 89.884C465.996 88.372 464.178 87.616 461.946 87.616C459.75 87.616 457.932 88.354 456.492 89.83C455.052 91.306 454.332 93.214 454.332 95.554C454.332 97.894 455.052 99.82 456.492 101.332C457.932 102.844 459.75 103.6 461.946 103.6ZM495.417 109.648C492.717 109.648 490.323 109.072 488.235 107.92C486.147 106.768 484.509 105.148 483.321 103.06C482.133 100.972 481.539 98.56 481.539 95.824C481.539 93.052 482.115 90.586 483.267 88.426C484.455 86.266 486.075 84.592 488.127 83.404C490.215 82.18 492.663 81.568 495.471 81.568C498.099 81.568 500.421 82.144 502.437 83.296C504.453 84.448 506.019 86.032 507.135 88.048C508.287 90.028 508.863 92.242 508.863 94.69C508.863 95.086 508.845 95.5 508.809 95.932C508.809 96.364 508.791 96.814 508.755 97.282H488.397C488.541 99.37 489.261 101.008 490.557 102.196C491.889 103.384 493.491 103.978 495.363 103.978C496.767 103.978 497.937 103.672 498.873 103.06C499.845 102.412 500.565 101.584 501.033 100.576H508.053C507.549 102.268 506.703 103.816 505.515 105.22C504.363 106.588 502.923 107.668 501.195 108.46C499.503 109.252 497.577 109.648 495.417 109.648ZM495.471 87.184C493.779 87.184 492.285 87.67 490.989 88.642C489.693 89.578 488.865 91.018 488.505 92.962H501.843C501.735 91.198 501.087 89.794 499.899 88.75C498.711 87.706 497.235 87.184 495.471 87.184ZM519.857 109L510.029 82.216H517.265L524.069 102.466L530.873 82.216H538.109L528.227 109H519.857ZM553.165 109.648C550.465 109.648 548.071 109.072 545.983 107.92C543.895 106.768 542.257 105.148 541.069 103.06C539.881 100.972 539.287 98.56 539.287 95.824C539.287 93.052 539.863 90.586 541.015 88.426C542.203 86.266 543.823 84.592 545.875 83.404C547.963 82.18 550.411 81.568 553.219 81.568C555.847 81.568 558.169 82.144 560.185 83.296C562.201 84.448 563.767 86.032 564.883 88.048C566.035 90.028 566.611 92.242 566.611 94.69C566.611 95.086 566.593 95.5 566.557 95.932C566.557 96.364 566.539 96.814 566.503 97.282H546.145C546.289 99.37 547.009 101.008 548.305 102.196C549.637 103.384 551.239 103.978 553.111 103.978C554.515 103.978 555.685 103.672 556.621 103.06C557.593 102.412 558.313 101.584 558.781 100.576H565.801C565.297 102.268 564.451 103.816 563.263 105.22C562.111 106.588 560.671 107.668 558.943 108.46C557.251 109.252 555.325 109.648 553.165 109.648ZM553.219 87.184C551.527 87.184 550.033 87.67 548.737 88.642C547.441 89.578 546.613 91.018 546.253 92.962H559.591C559.483 91.198 558.835 89.794 557.647 88.75C556.459 87.706 554.983 87.184 553.219 87.184ZM571.424 109V70.12H578.336V109H571.424ZM597.251 109.648C594.659 109.648 592.319 109.054 590.231 107.866C588.179 106.678 586.541 105.04 585.317 102.952C584.129 100.828 583.535 98.38 583.535 95.608C583.535 92.836 584.147 90.406 585.371 88.318C586.595 86.194 588.233 84.538 590.285 83.35C592.373 82.162 594.713 81.568 597.305 81.568C599.861 81.568 602.165 82.162 604.217 83.35C606.305 84.538 607.943 86.194 609.131 88.318C610.355 90.406 610.967 92.836 610.967 95.608C610.967 98.38 610.355 100.828 609.131 102.952C607.943 105.04 606.305 106.678 604.217 107.866C602.129 109.054 599.807 109.648 597.251 109.648ZM597.251 103.654C599.051 103.654 600.617 102.988 601.949 101.656C603.281 100.288 603.947 98.272 603.947 95.608C603.947 92.944 603.281 90.946 601.949 89.614C600.617 88.246 599.069 87.562 597.305 87.562C595.469 87.562 593.885 88.246 592.553 89.614C591.257 90.946 590.609 92.944 590.609 95.608C590.609 98.272 591.257 100.288 592.553 101.656C593.885 102.988 595.451 103.654 597.251 103.654ZM616.147 120.88V82.216H622.303L623.059 86.05C623.923 84.862 625.057 83.818 626.461 82.918C627.901 82.018 629.755 81.568 632.023 81.568C634.543 81.568 636.793 82.18 638.773 83.404C640.753 84.628 642.319 86.302 643.471 88.426C644.623 90.55 645.199 92.962 645.199 95.662C645.199 98.362 644.623 100.774 643.471 102.898C642.319 104.986 640.753 106.642 638.773 107.866C636.793 109.054 634.543 109.648 632.023 109.648C630.007 109.648 628.243 109.27 626.731 108.514C625.219 107.758 623.995 106.696 623.059 105.328V120.88H616.147ZM630.565 103.6C632.761 103.6 634.579 102.862 636.019 101.386C637.459 99.91 638.179 98.002 638.179 95.662C638.179 93.322 637.459 91.396 636.019 89.884C634.579 88.372 632.761 87.616 630.565 87.616C628.333 87.616 626.497 88.372 625.057 89.884C623.653 91.36 622.951 93.268 622.951 95.608C622.951 97.948 623.653 99.874 625.057 101.386C626.497 102.862 628.333 103.6 630.565 103.6ZM650.373 109V82.216H656.475L657.069 85.834C657.933 84.538 659.067 83.512 660.471 82.756C661.911 81.964 663.567 81.568 665.439 81.568C669.579 81.568 672.513 83.17 674.241 86.374C675.213 84.898 676.509 83.728 678.129 82.864C679.785 82 681.585 81.568 683.529 81.568C687.021 81.568 689.703 82.612 691.575 84.7C693.447 86.788 694.383 89.848 694.383 93.88V109H687.471V94.528C687.471 92.224 687.021 90.46 686.121 89.236C685.257 88.012 683.907 87.4 682.071 87.4C680.199 87.4 678.687 88.084 677.535 89.452C676.419 90.82 675.861 92.728 675.861 95.176V109H668.949V94.528C668.949 92.224 668.499 90.46 667.599 89.236C666.699 88.012 665.313 87.4 663.441 87.4C661.605 87.4 660.111 88.084 658.959 89.452C657.843 90.82 657.285 92.728 657.285 95.176V109H650.373ZM712.96 109.648C710.26 109.648 707.866 109.072 705.778 107.92C703.69 106.768 702.052 105.148 700.864 103.06C699.676 100.972 699.082 98.56 699.082 95.824C699.082 93.052 699.658 90.586 700.81 88.426C701.998 86.266 703.618 84.592 705.67 83.404C707.758 82.18 710.206 81.568 713.014 81.568C715.642 81.568 717.964 82.144 719.98 83.296C721.996 84.448 723.562 86.032 724.678 88.048C725.83 90.028 726.406 92.242 726.406 94.69C726.406 95.086 726.388 95.5 726.352 95.932C726.352 96.364 726.334 96.814 726.298 97.282H705.94C706.084 99.37 706.804 101.008 708.1 102.196C709.432 103.384 711.034 103.978 712.906 103.978C714.31 103.978 715.48 103.672 716.416 103.06C717.388 102.412 718.108 101.584 718.576 100.576H725.596C725.092 102.268 724.246 103.816 723.058 105.22C721.906 106.588 720.466 107.668 718.738 108.46C717.046 109.252 715.12 109.648 712.96 109.648ZM713.014 87.184C711.322 87.184 709.828 87.67 708.532 88.642C707.236 89.578 706.408 91.018 706.048 92.962H719.386C719.278 91.198 718.63 89.794 717.442 88.75C716.254 87.706 714.778 87.184 713.014 87.184ZM731.219 109V82.216H737.321L737.861 86.752C738.689 85.168 739.877 83.908 741.425 82.972C743.009 82.036 744.863 81.568 746.987 81.568C750.299 81.568 752.873 82.612 754.709 84.7C756.545 86.788 757.463 89.848 757.463 93.88V109H750.551V94.528C750.551 92.224 750.083 90.46 749.147 89.236C748.211 88.012 746.753 87.4 744.773 87.4C742.829 87.4 741.227 88.084 739.967 89.452C738.743 90.82 738.131 92.728 738.131 95.176V109H731.219ZM775.007 109C772.199 109 769.949 108.316 768.257 106.948C766.565 105.58 765.719 103.15 765.719 99.658V87.994H761.129V82.216H765.719L766.529 75.034H772.631V82.216H779.867V87.994H772.631V99.712C772.631 101.008 772.901 101.908 773.44 102.412C774.017 102.88 774.989 103.114 776.357 103.114H779.705V109H775.007Z" fill="#1E0E62"/>
</svg>
