<svg width="109" height="11" viewBox="0 0 109 11" fill="none" xmlns="http://www.w3.org/2000/svg">
<path d="M2.94 10L0.35 0.199999H2.268L4.032 7.998L6.104 0.199999H8.078L10.094 7.998L11.858 0.199999H13.79L11.13 10H9.002L7.056 2.734L5.054 10H2.94ZM17.0887 10V0.199999H23.4867V1.642H18.8807V4.33H23.0667V5.73H18.8807V8.558H23.4867V10H17.0887ZM31.8884 10L35.4724 0.199999H37.4884L41.0724 10H39.1684L38.3844 7.732H34.5624L33.7644 10H31.8884ZM35.0524 6.332H37.8944L36.4664 2.258L35.0524 6.332ZM44.3348 10V0.199999H47.9328C48.7168 0.199999 49.3608 0.335333 49.8648 0.606C50.3781 0.867333 50.7608 1.22667 51.0128 1.684C51.2648 2.132 51.3908 2.63133 51.3908 3.182C51.3908 3.77933 51.2321 4.32533 50.9148 4.82C50.6068 5.31467 50.1215 5.674 49.4588 5.898L51.4888 10H49.4308L47.6108 6.136H46.1268V10H44.3348ZM46.1268 4.82H47.8208C48.4181 4.82 48.8568 4.67533 49.1368 4.386C49.4168 4.09667 49.5568 3.714 49.5568 3.238C49.5568 2.77133 49.4168 2.398 49.1368 2.118C48.8661 1.838 48.4228 1.698 47.8068 1.698H46.1268V4.82ZM55.0575 10V0.199999H61.4555V1.642H56.8495V4.33H61.0355V5.73H56.8495V8.558H61.4555V10H55.0575ZM70.4872 10V0.199999H72.2792L76.8852 7.102V0.199999H78.6772V10H76.8852L72.2792 3.112V10H70.4872ZM87.169 10.168C86.189 10.168 85.3303 9.95333 84.593 9.524C83.865 9.09467 83.291 8.502 82.871 7.746C82.4603 6.98067 82.255 6.09867 82.255 5.1C82.255 4.10133 82.4603 3.224 82.871 2.468C83.291 1.70267 83.865 1.10533 84.593 0.676C85.3303 0.246667 86.189 0.0319998 87.169 0.0319998C88.1397 0.0319998 88.9937 0.246667 89.731 0.676C90.4683 1.10533 91.0423 1.70267 91.453 2.468C91.8637 3.224 92.069 4.10133 92.069 5.1C92.069 6.09867 91.8637 6.98067 91.453 7.746C91.0423 8.502 90.4683 9.09467 89.731 9.524C88.9937 9.95333 88.1397 10.168 87.169 10.168ZM87.169 8.558C88.1023 8.558 88.8443 8.25 89.395 7.634C89.955 7.018 90.235 6.17333 90.235 5.1C90.235 4.02667 89.955 3.182 89.395 2.566C88.8443 1.95 88.1023 1.642 87.169 1.642C86.2357 1.642 85.489 1.95 84.929 2.566C84.369 3.182 84.089 4.02667 84.089 5.1C84.089 6.17333 84.369 7.018 84.929 7.634C85.489 8.25 86.2357 8.558 87.169 8.558ZM97.2154 10L94.6254 0.199999H96.5434L98.3074 7.998L100.379 0.199999H102.353L104.369 7.998L106.133 0.199999H108.065L105.405 10H103.277L101.331 2.734L99.3294 10H97.2154Z" fill="#1E0E62"/>
</svg>
