<svg width="119" height="11" viewBox="0 0 119 11" fill="none" xmlns="http://www.w3.org/2000/svg">
<path d="M0.952 10V0.199999H2.744V4.162L6.37 0.199999H8.582L4.97 4.092L8.68 10H6.482L3.682 5.464L2.744 6.486V10H0.952ZM11.9071 10V0.199999H18.3051V1.642H13.6991V4.33H17.8851V5.73H13.6991V8.558H18.3051V10H11.9071ZM24.5348 10V6.514L21.2448 0.199999H23.2748L25.4448 4.722L27.6008 0.199999H29.6028L26.3268 6.514V10H24.5348ZM38.0868 10V0.199999H44.4148V1.642H39.8788V4.386H43.5468V5.8H39.8788V10H38.0868ZM47.7977 10V0.199999H54.1957V1.642H49.5897V4.33H53.7757V5.73H49.5897V8.558H54.1957V10H47.7977ZM57.2615 10L60.8455 0.199999H62.8615L66.4455 10H64.5415L63.7575 7.732H59.9355L59.1375 10H57.2615ZM60.4255 6.332H63.2675L61.8395 2.258L60.4255 6.332ZM70.9508 10V1.642H68.0948V0.199999H75.6128V1.642H72.7428V10H70.9508ZM82.7203 10.168C82.0016 10.168 81.3529 10.028 80.7743 9.748C80.1956 9.45867 79.7336 9.02467 79.3883 8.446C79.0523 7.86733 78.8843 7.13467 78.8843 6.248V0.199999H80.6763V6.262C80.6763 7.02733 80.8583 7.59667 81.2223 7.97C81.5956 8.34333 82.1089 8.53 82.7623 8.53C83.4063 8.53 83.9149 8.34333 84.2883 7.97C84.6616 7.59667 84.8483 7.02733 84.8483 6.262V0.199999H86.6403V6.248C86.6403 7.13467 86.4629 7.86733 86.1083 8.446C85.7536 9.02467 85.2776 9.45867 84.6803 9.748C84.0923 10.028 83.4389 10.168 82.7203 10.168ZM90.4696 10V0.199999H94.0676C94.8516 0.199999 95.4956 0.335333 95.9996 0.606C96.5129 0.867333 96.8956 1.22667 97.1476 1.684C97.3996 2.132 97.5256 2.63133 97.5256 3.182C97.5256 3.77933 97.3669 4.32533 97.0496 4.82C96.7416 5.31467 96.2562 5.674 95.5936 5.898L97.6236 10H95.5656L93.7456 6.136H92.2616V10H90.4696ZM92.2616 4.82H93.9556C94.5529 4.82 94.9916 4.67533 95.2716 4.386C95.5516 4.09667 95.6916 3.714 95.6916 3.238C95.6916 2.77133 95.5516 2.398 95.2716 2.118C95.0009 1.838 94.5576 1.698 93.9416 1.698H92.2616V4.82ZM101.192 10V0.199999H107.59V1.642H102.984V4.33H107.17V5.73H102.984V8.558H107.59V10H101.192ZM114.632 10.168C113.913 10.168 113.279 10.0467 112.728 9.804C112.177 9.552 111.743 9.19733 111.426 8.74C111.109 8.27333 110.945 7.70867 110.936 7.046H112.826C112.845 7.50333 113.008 7.89067 113.316 8.208C113.633 8.516 114.067 8.67 114.618 8.67C115.094 8.67 115.472 8.558 115.752 8.334C116.032 8.10067 116.172 7.79267 116.172 7.41C116.172 7.00867 116.046 6.696 115.794 6.472C115.551 6.248 115.225 6.066 114.814 5.926C114.403 5.786 113.965 5.63667 113.498 5.478C112.742 5.21667 112.163 4.88067 111.762 4.47C111.37 4.05933 111.174 3.51333 111.174 2.832C111.165 2.25333 111.3 1.75867 111.58 1.348C111.869 0.927999 112.261 0.605999 112.756 0.381999C113.251 0.148666 113.82 0.0319998 114.464 0.0319998C115.117 0.0319998 115.691 0.148666 116.186 0.381999C116.69 0.615333 117.082 0.941999 117.362 1.362C117.651 1.782 117.805 2.28133 117.824 2.86H115.906C115.897 2.51467 115.761 2.21133 115.5 1.95C115.248 1.67933 114.893 1.544 114.436 1.544C114.044 1.53467 113.713 1.63267 113.442 1.838C113.181 2.034 113.05 2.32333 113.05 2.706C113.05 3.03267 113.153 3.294 113.358 3.49C113.563 3.67667 113.843 3.83533 114.198 3.966C114.553 4.09667 114.959 4.23667 115.416 4.386C115.901 4.554 116.345 4.75 116.746 4.974C117.147 5.198 117.469 5.49667 117.712 5.87C117.955 6.234 118.076 6.70533 118.076 7.284C118.076 7.79733 117.945 8.27333 117.684 8.712C117.423 9.15067 117.035 9.50533 116.522 9.776C116.009 10.0373 115.379 10.168 114.632 10.168Z" fill="#1E0E62"/>
</svg>
