<svg width="56" height="11" viewBox="0 0 56 11" fill="none" xmlns="http://www.w3.org/2000/svg">
<path d="M3.794 10L0.21 0.199999H2.128L4.9 8.166L7.686 0.199999H9.576L5.992 10H3.794ZM12.7411 10V0.199999H14.5331V10H12.7411ZM21.7785 10.168C21.0598 10.168 20.4251 10.0467 19.8745 9.804C19.3238 9.552 18.8898 9.19733 18.5725 8.74C18.2551 8.27333 18.0918 7.70867 18.0825 7.046H19.9725C19.9911 7.50333 20.1545 7.89067 20.4625 8.208C20.7798 8.516 21.2138 8.67 21.7645 8.67C22.2405 8.67 22.6185 8.558 22.8985 8.334C23.1785 8.10067 23.3185 7.79267 23.3185 7.41C23.3185 7.00867 23.1925 6.696 22.9405 6.472C22.6978 6.248 22.3711 6.066 21.9605 5.926C21.5498 5.786 21.1111 5.63667 20.6445 5.478C19.8885 5.21667 19.3098 4.88067 18.9085 4.47C18.5165 4.05933 18.3205 3.51333 18.3205 2.832C18.3111 2.25333 18.4465 1.75867 18.7265 1.348C19.0158 0.927999 19.4078 0.605999 19.9025 0.381999C20.3971 0.148666 20.9665 0.0319998 21.6105 0.0319998C22.2638 0.0319998 22.8378 0.148666 23.3325 0.381999C23.8365 0.615333 24.2285 0.941999 24.5085 1.362C24.7978 1.782 24.9518 2.28133 24.9705 2.86H23.0525C23.0431 2.51467 22.9078 2.21133 22.6465 1.95C22.3945 1.67933 22.0398 1.544 21.5825 1.544C21.1905 1.53467 20.8591 1.63267 20.5885 1.838C20.3271 2.034 20.1965 2.32333 20.1965 2.706C20.1965 3.03267 20.2991 3.294 20.5045 3.49C20.7098 3.67667 20.9898 3.83533 21.3445 3.966C21.6991 4.09667 22.1051 4.23667 22.5625 4.386C23.0478 4.554 23.4911 4.75 23.8925 4.974C24.2938 5.198 24.6158 5.49667 24.8585 5.87C25.1011 6.234 25.2225 6.70533 25.2225 7.284C25.2225 7.79733 25.0918 8.27333 24.8305 8.712C24.5691 9.15067 24.1818 9.50533 23.6685 9.776C23.1551 10.0373 22.5251 10.168 21.7785 10.168ZM28.786 10V0.199999H30.578V10H28.786ZM39.0694 10.168C38.0894 10.168 37.2307 9.95333 36.4934 9.524C35.7654 9.09467 35.1914 8.502 34.7714 7.746C34.3607 6.98067 34.1554 6.09867 34.1554 5.1C34.1554 4.10133 34.3607 3.224 34.7714 2.468C35.1914 1.70267 35.7654 1.10533 36.4934 0.676C37.2307 0.246667 38.0894 0.0319998 39.0694 0.0319998C40.0401 0.0319998 40.8941 0.246667 41.6314 0.676C42.3687 1.10533 42.9427 1.70267 43.3534 2.468C43.7641 3.224 43.9694 4.10133 43.9694 5.1C43.9694 6.09867 43.7641 6.98067 43.3534 7.746C42.9427 8.502 42.3687 9.09467 41.6314 9.524C40.8941 9.95333 40.0401 10.168 39.0694 10.168ZM39.0694 8.558C40.0027 8.558 40.7447 8.25 41.2954 7.634C41.8554 7.018 42.1354 6.17333 42.1354 5.1C42.1354 4.02667 41.8554 3.182 41.2954 2.566C40.7447 1.95 40.0027 1.642 39.0694 1.642C38.1361 1.642 37.3894 1.95 36.8294 2.566C36.2694 3.182 35.9894 4.02667 35.9894 5.1C35.9894 6.17333 36.2694 7.018 36.8294 7.634C37.3894 8.25 38.1361 8.558 39.0694 8.558ZM47.5516 10V0.199999H49.3436L53.9496 7.102V0.199999H55.7416V10H53.9496L49.3436 3.112V10H47.5516Z" fill="#1E0E62"/>
</svg>
