<svg width="42" height="10" viewBox="0 0 42 10" fill="none" xmlns="http://www.w3.org/2000/svg">
<path d="M0.952 10V0.199999H2.744L7.35 7.102V0.199999H9.142V10H7.35L2.744 3.112V10H0.952ZM13.0418 10V0.199999H19.4398V1.642H14.8338V4.33H19.0198V5.73H14.8338V8.558H19.4398V10H13.0418ZM22.6596 10L25.7256 5.044L22.6176 0.199999H24.6756L26.8736 3.616L28.8896 0.199999H30.9056L27.8396 5.128L30.9756 10H28.9176L26.6916 6.542L24.6756 10H22.6596ZM36.6461 10V1.642H33.7901V0.199999H41.3081V1.642H38.4381V10H36.6461Z" fill="#1E0E62"/>
</svg>
