<svg width="125" height="11" viewBox="0 0 125 11" fill="none" xmlns="http://www.w3.org/2000/svg">
<path d="M0.952 10V0.199999H2.744V4.274H7.14V0.199999H8.932V10H7.14V5.73H2.744V10H0.952ZM12.8368 10V0.199999H19.2348V1.642H14.6288V4.33H18.8148V5.73H14.6288V8.558H19.2348V10H12.8368ZM22.9305 10V0.199999H24.7225V8.6H29.0625V10H22.9305ZM32.6415 10V0.199999H36.2675C37.0515 0.199999 37.7001 0.330666 38.2135 0.591999C38.7268 0.853333 39.1095 1.21267 39.3615 1.67C39.6135 2.12733 39.7395 2.64067 39.7395 3.21C39.7395 3.75133 39.6181 4.25067 39.3755 4.708C39.1328 5.156 38.7548 5.52 38.2415 5.8C37.7281 6.07067 37.0701 6.206 36.2675 6.206H34.4335V10H32.6415ZM34.4335 4.75H36.1555C36.7808 4.75 37.2288 4.61467 37.4995 4.344C37.7795 4.064 37.9195 3.686 37.9195 3.21C37.9195 2.72467 37.7795 2.34667 37.4995 2.076C37.2288 1.796 36.7808 1.656 36.1555 1.656H34.4335V4.75ZM52.2613 10.168C51.5426 10.168 50.894 10.028 50.3153 9.748C49.7366 9.45867 49.2746 9.02467 48.9293 8.446C48.5933 7.86733 48.4253 7.13467 48.4253 6.248V0.199999H50.2173V6.262C50.2173 7.02733 50.3993 7.59667 50.7633 7.97C51.1366 8.34333 51.65 8.53 52.3033 8.53C52.9473 8.53 53.456 8.34333 53.8293 7.97C54.2026 7.59667 54.3893 7.02733 54.3893 6.262V0.199999H56.1813V6.248C56.1813 7.13467 56.004 7.86733 55.6493 8.446C55.2946 9.02467 54.8186 9.45867 54.2213 9.748C53.6333 10.028 52.98 10.168 52.2613 10.168ZM63.3566 10.168C62.6379 10.168 62.0033 10.0467 61.4526 9.804C60.9019 9.552 60.4679 9.19733 60.1506 8.74C59.8333 8.27333 59.6699 7.70867 59.6606 7.046H61.5506C61.5693 7.50333 61.7326 7.89067 62.0406 8.208C62.3579 8.516 62.7919 8.67 63.3426 8.67C63.8186 8.67 64.1966 8.558 64.4766 8.334C64.7566 8.10067 64.8966 7.79267 64.8966 7.41C64.8966 7.00867 64.7706 6.696 64.5186 6.472C64.2759 6.248 63.9493 6.066 63.5386 5.926C63.1279 5.786 62.6893 5.63667 62.2226 5.478C61.4666 5.21667 60.8879 4.88067 60.4866 4.47C60.0946 4.05933 59.8986 3.51333 59.8986 2.832C59.8893 2.25333 60.0246 1.75867 60.3046 1.348C60.5939 0.927999 60.9859 0.605999 61.4806 0.381999C61.9753 0.148666 62.5446 0.0319998 63.1886 0.0319998C63.8419 0.0319998 64.4159 0.148666 64.9106 0.381999C65.4146 0.615333 65.8066 0.941999 66.0866 1.362C66.3759 1.782 66.5299 2.28133 66.5486 2.86H64.6306C64.6213 2.51467 64.4859 2.21133 64.2246 1.95C63.9726 1.67933 63.6179 1.544 63.1606 1.544C62.7686 1.53467 62.4373 1.63267 62.1666 1.838C61.9053 2.034 61.7746 2.32333 61.7746 2.706C61.7746 3.03267 61.8773 3.294 62.0826 3.49C62.2879 3.67667 62.5679 3.83533 62.9226 3.966C63.2773 4.09667 63.6833 4.23667 64.1406 4.386C64.6259 4.554 65.0693 4.75 65.4706 4.974C65.8719 5.198 66.1939 5.49667 66.4366 5.87C66.6793 6.234 66.8006 6.70533 66.8006 7.284C66.8006 7.79733 66.6699 8.27333 66.4086 8.712C66.1473 9.15067 65.7599 9.50533 65.2466 9.776C64.7333 10.0373 64.1033 10.168 63.3566 10.168ZM79.984 10.168C79.06 10.168 78.2527 9.958 77.562 9.538C76.8714 9.118 76.3347 8.53467 75.952 7.788C75.5694 7.032 75.378 6.15467 75.378 5.156C75.378 4.148 75.574 3.26133 75.966 2.496C76.3674 1.72133 76.932 1.11933 77.66 0.69C78.3974 0.251333 79.27 0.0319998 80.278 0.0319998C81.426 0.0319998 82.378 0.307333 83.134 0.857999C83.89 1.40867 84.38 2.16933 84.604 3.14H82.602C82.4527 2.68267 82.182 2.328 81.79 2.076C81.398 1.81467 80.894 1.684 80.278 1.684C79.298 1.684 78.542 1.99667 78.01 2.622C77.478 3.238 77.212 4.08733 77.212 5.17C77.212 6.25267 77.4734 7.09267 77.996 7.69C78.528 8.278 79.2467 8.572 80.152 8.572C81.0387 8.572 81.706 8.334 82.154 7.858C82.6114 7.37267 82.8867 6.738 82.98 5.954H80.502V4.61H84.786V10H83.134L82.994 8.712C82.6767 9.17867 82.28 9.538 81.804 9.79C81.328 10.042 80.7214 10.168 79.984 10.168ZM88.5282 10V0.199999H92.1262C92.9102 0.199999 93.5542 0.335333 94.0582 0.606C94.5715 0.867333 94.9542 1.22667 95.2062 1.684C95.4582 2.132 95.5842 2.63133 95.5842 3.182C95.5842 3.77933 95.4255 4.32533 95.1082 4.82C94.8002 5.31467 94.3148 5.674 93.6522 5.898L95.6822 10H93.6242L91.8042 6.136H90.3202V10H88.5282ZM90.3202 4.82H92.0142C92.6115 4.82 93.0502 4.67533 93.3302 4.386C93.6102 4.09667 93.7502 3.714 93.7502 3.238C93.7502 2.77133 93.6102 2.398 93.3302 2.118C93.0595 1.838 92.6162 1.698 92.0002 1.698H90.3202V4.82ZM103.843 10.168C102.863 10.168 102.004 9.95333 101.267 9.524C100.539 9.09467 99.9648 8.502 99.5448 7.746C99.1342 6.98067 98.9288 6.09867 98.9288 5.1C98.9288 4.10133 99.1342 3.224 99.5448 2.468C99.9648 1.70267 100.539 1.10533 101.267 0.676C102.004 0.246667 102.863 0.0319998 103.843 0.0319998C104.813 0.0319998 105.667 0.246667 106.405 0.676C107.142 1.10533 107.716 1.70267 108.127 2.468C108.537 3.224 108.743 4.10133 108.743 5.1C108.743 6.09867 108.537 6.98067 108.127 7.746C107.716 8.502 107.142 9.09467 106.405 9.524C105.667 9.95333 104.813 10.168 103.843 10.168ZM103.843 8.558C104.776 8.558 105.518 8.25 106.069 7.634C106.629 7.018 106.909 6.17333 106.909 5.1C106.909 4.02667 106.629 3.182 106.069 2.566C105.518 1.95 104.776 1.642 103.843 1.642C102.909 1.642 102.163 1.95 101.603 2.566C101.043 3.182 100.763 4.02667 100.763 5.1C100.763 6.17333 101.043 7.018 101.603 7.634C102.163 8.25 102.909 8.558 103.843 8.558ZM113.889 10L111.299 0.199999H113.217L114.981 7.998L117.053 0.199999H119.027L121.043 7.998L122.807 0.199999H124.739L122.079 10H119.951L118.005 2.734L116.003 10H113.889Z" fill="#1E0E62"/>
</svg>
