<svg width="67" height="11" viewBox="0 0 67 11" fill="none" xmlns="http://www.w3.org/2000/svg">
<path d="M0.952 10V0.199999H7.35V1.642H2.744V4.33H6.93V5.73H2.744V8.558H7.35V10H0.952ZM11.0458 10V0.199999H12.8378L17.4438 7.102V0.199999H19.2358V10H17.4438L12.8378 3.112V10H11.0458ZM27.4196 10.168C26.4956 10.168 25.6883 9.958 24.9976 9.538C24.3069 9.118 23.7703 8.53467 23.3876 7.788C23.0049 7.032 22.8136 6.15467 22.8136 5.156C22.8136 4.148 23.0096 3.26133 23.4016 2.496C23.8029 1.72133 24.3676 1.11933 25.0956 0.69C25.8329 0.251333 26.7056 0.0319998 27.7136 0.0319998C28.8616 0.0319998 29.8136 0.307333 30.5696 0.857999C31.3256 1.40867 31.8156 2.16933 32.0396 3.14H30.0376C29.8883 2.68267 29.6176 2.328 29.2256 2.076C28.8336 1.81467 28.3296 1.684 27.7136 1.684C26.7336 1.684 25.9776 1.99667 25.4456 2.622C24.9136 3.238 24.6476 4.08733 24.6476 5.17C24.6476 6.25267 24.9089 7.09267 25.4316 7.69C25.9636 8.278 26.6823 8.572 27.5876 8.572C28.4743 8.572 29.1416 8.334 29.5896 7.858C30.0469 7.37267 30.3223 6.738 30.4156 5.954H27.9376V4.61H32.2216V10H30.5696L30.4296 8.712C30.1123 9.17867 29.7156 9.538 29.2396 9.79C28.7636 10.042 28.1569 10.168 27.4196 10.168ZM35.3337 10L38.9177 0.199999H40.9337L44.5177 10H42.6137L41.8297 7.732H38.0077L37.2097 10H35.3337ZM38.4977 6.332H41.3397L39.9117 2.258L38.4977 6.332ZM51.5036 10.168C50.5796 10.168 49.7722 9.958 49.0816 9.538C48.3909 9.118 47.8542 8.53467 47.4716 7.788C47.0889 7.032 46.8976 6.15467 46.8976 5.156C46.8976 4.148 47.0936 3.26133 47.4856 2.496C47.8869 1.72133 48.4516 1.11933 49.1796 0.69C49.9169 0.251333 50.7896 0.0319998 51.7976 0.0319998C52.9456 0.0319998 53.8976 0.307333 54.6536 0.857999C55.4096 1.40867 55.8996 2.16933 56.1236 3.14H54.1216C53.9722 2.68267 53.7016 2.328 53.3096 2.076C52.9176 1.81467 52.4136 1.684 51.7976 1.684C50.8176 1.684 50.0616 1.99667 49.5296 2.622C48.9976 3.238 48.7316 4.08733 48.7316 5.17C48.7316 6.25267 48.9929 7.09267 49.5156 7.69C50.0476 8.278 50.7662 8.572 51.6716 8.572C52.5582 8.572 53.2256 8.334 53.6736 7.858C54.1309 7.37267 54.4062 6.738 54.4996 5.954H52.0216V4.61H56.3056V10H54.6536L54.5136 8.712C54.1962 9.17867 53.7996 9.538 53.3236 9.79C52.8476 10.042 52.2409 10.168 51.5036 10.168ZM60.0477 10V0.199999H66.4457V1.642H61.8397V4.33H66.0257V5.73H61.8397V8.558H66.4457V10H60.0477Z" fill="#1E0E62"/>
</svg>
