<svg width="202" height="11" viewBox="0 0 202 11" fill="none" xmlns="http://www.w3.org/2000/svg">
<path d="M2.94 10L0.35 0.199999H2.268L4.032 7.998L6.104 0.199999H8.078L10.094 7.998L11.858 0.199999H13.79L11.13 10H9.002L7.056 2.734L5.054 10H2.94ZM17.0887 10V0.199999H23.4867V1.642H18.8807V4.33H23.0667V5.73H18.8807V8.558H23.4867V10H17.0887ZM31.8884 10L35.4724 0.199999H37.4884L41.0724 10H39.1684L38.3844 7.732H34.5624L33.7644 10H31.8884ZM35.0524 6.332H37.8944L36.4664 2.258L35.0524 6.332ZM44.3348 10V0.199999H47.9328C48.7168 0.199999 49.3608 0.335333 49.8648 0.606C50.3781 0.867333 50.7608 1.22667 51.0128 1.684C51.2648 2.132 51.3908 2.63133 51.3908 3.182C51.3908 3.77933 51.2321 4.32533 50.9148 4.82C50.6068 5.31467 50.1215 5.674 49.4588 5.898L51.4888 10H49.4308L47.6108 6.136H46.1268V10H44.3348ZM46.1268 4.82H47.8208C48.4181 4.82 48.8568 4.67533 49.1368 4.386C49.4168 4.09667 49.5568 3.714 49.5568 3.238C49.5568 2.77133 49.4168 2.398 49.1368 2.118C48.8661 1.838 48.4228 1.698 47.8068 1.698H46.1268V4.82ZM55.0575 10V0.199999H61.4555V1.642H56.8495V4.33H61.0355V5.73H56.8495V8.558H61.4555V10H55.0575ZM74.7712 10.168C73.8472 10.168 73.0398 9.958 72.3492 9.538C71.6585 9.118 71.1218 8.53467 70.7392 7.788C70.3565 7.032 70.1652 6.15467 70.1652 5.156C70.1652 4.148 70.3612 3.26133 70.7532 2.496C71.1545 1.72133 71.7192 1.11933 72.4472 0.69C73.1845 0.251333 74.0572 0.0319998 75.0652 0.0319998C76.2132 0.0319998 77.1652 0.307333 77.9212 0.857999C78.6772 1.40867 79.1672 2.16933 79.3912 3.14H77.3892C77.2398 2.68267 76.9692 2.328 76.5772 2.076C76.1852 1.81467 75.6812 1.684 75.0652 1.684C74.0852 1.684 73.3292 1.99667 72.7972 2.622C72.2652 3.238 71.9992 4.08733 71.9992 5.17C71.9992 6.25267 72.2605 7.09267 72.7832 7.69C73.3152 8.278 74.0338 8.572 74.9392 8.572C75.8258 8.572 76.4932 8.334 76.9412 7.858C77.3985 7.37267 77.6738 6.738 77.7672 5.954H75.2892V4.61H79.5732V10H77.9212L77.7812 8.712C77.4638 9.17867 77.0672 9.538 76.5912 9.79C76.1152 10.042 75.5085 10.168 74.7712 10.168ZM83.3153 10V0.199999H86.9133C87.6973 0.199999 88.3413 0.335333 88.8453 0.606C89.3586 0.867333 89.7413 1.22667 89.9933 1.684C90.2453 2.132 90.3713 2.63133 90.3713 3.182C90.3713 3.77933 90.2126 4.32533 89.8953 4.82C89.5873 5.31467 89.1019 5.674 88.4393 5.898L90.4693 10H88.4113L86.5913 6.136H85.1073V10H83.3153ZM85.1073 4.82H86.8013C87.3986 4.82 87.8373 4.67533 88.1173 4.386C88.3973 4.09667 88.5373 3.714 88.5373 3.238C88.5373 2.77133 88.3973 2.398 88.1173 2.118C87.8466 1.838 87.4033 1.698 86.7873 1.698H85.1073V4.82ZM98.6299 10.168C97.6499 10.168 96.7913 9.95333 96.0539 9.524C95.3259 9.09467 94.7519 8.502 94.3319 7.746C93.9213 6.98067 93.7159 6.09867 93.7159 5.1C93.7159 4.10133 93.9213 3.224 94.3319 2.468C94.7519 1.70267 95.3259 1.10533 96.0539 0.676C96.7913 0.246667 97.6499 0.0319998 98.6299 0.0319998C99.6006 0.0319998 100.455 0.246667 101.192 0.676C101.929 1.10533 102.503 1.70267 102.914 2.468C103.325 3.224 103.53 4.10133 103.53 5.1C103.53 6.09867 103.325 6.98067 102.914 7.746C102.503 8.502 101.929 9.09467 101.192 9.524C100.455 9.95333 99.6006 10.168 98.6299 10.168ZM98.6299 8.558C99.5633 8.558 100.305 8.25 100.856 7.634C101.416 7.018 101.696 6.17333 101.696 5.1C101.696 4.02667 101.416 3.182 100.856 2.566C100.305 1.95 99.5633 1.642 98.6299 1.642C97.6966 1.642 96.9499 1.95 96.3899 2.566C95.8299 3.182 95.5499 4.02667 95.5499 5.1C95.5499 6.17333 95.8299 7.018 96.3899 7.634C96.9499 8.25 97.6966 8.558 98.6299 8.558ZM108.676 10L106.086 0.199999H108.004L109.768 7.998L111.84 0.199999H113.814L115.83 7.998L117.594 0.199999H119.526L116.866 10H114.738L112.792 2.734L110.79 10H108.676ZM122.825 10V0.199999H124.617V10H122.825ZM128.516 10V0.199999H130.308L134.914 7.102V0.199999H136.706V10H134.914L130.308 3.112V10H128.516ZM144.89 10.168C143.966 10.168 143.159 9.958 142.468 9.538C141.778 9.118 141.241 8.53467 140.858 7.788C140.476 7.032 140.284 6.15467 140.284 5.156C140.284 4.148 140.48 3.26133 140.872 2.496C141.274 1.72133 141.838 1.11933 142.566 0.69C143.304 0.251333 144.176 0.0319998 145.184 0.0319998C146.332 0.0319998 147.284 0.307333 148.04 0.857999C148.796 1.40867 149.286 2.16933 149.51 3.14H147.508C147.359 2.68267 147.088 2.328 146.696 2.076C146.304 1.81467 145.8 1.684 145.184 1.684C144.204 1.684 143.448 1.99667 142.916 2.622C142.384 3.238 142.118 4.08733 142.118 5.17C142.118 6.25267 142.38 7.09267 142.902 7.69C143.434 8.278 144.153 8.572 145.058 8.572C145.945 8.572 146.612 8.334 147.06 7.858C147.518 7.37267 147.793 6.738 147.886 5.954H145.408V4.61H149.692V10H148.04L147.9 8.712C147.583 9.17867 147.186 9.538 146.71 9.79C146.234 10.042 145.628 10.168 144.89 10.168ZM158.77 10V0.199999H165.098V1.642H160.562V4.386H164.23V5.8H160.562V10H158.77ZM166.785 10L170.369 0.199999H172.385L175.969 10H174.065L173.281 7.732H169.459L168.661 10H166.785ZM169.949 6.332H172.791L171.363 2.258L169.949 6.332ZM182.577 10.168C181.859 10.168 181.224 10.0467 180.673 9.804C180.123 9.552 179.689 9.19733 179.371 8.74C179.054 8.27333 178.891 7.70867 178.881 7.046H180.771C180.79 7.50333 180.953 7.89067 181.261 8.208C181.579 8.516 182.013 8.67 182.563 8.67C183.039 8.67 183.417 8.558 183.697 8.334C183.977 8.10067 184.117 7.79267 184.117 7.41C184.117 7.00867 183.991 6.696 183.739 6.472C183.497 6.248 183.17 6.066 182.759 5.926C182.349 5.786 181.91 5.63667 181.443 5.478C180.687 5.21667 180.109 4.88067 179.707 4.47C179.315 4.05933 179.119 3.51333 179.119 2.832C179.11 2.25333 179.245 1.75867 179.525 1.348C179.815 0.927999 180.207 0.605999 180.701 0.381999C181.196 0.148666 181.765 0.0319998 182.409 0.0319998C183.063 0.0319998 183.637 0.148666 184.131 0.381999C184.635 0.615333 185.027 0.941999 185.307 1.362C185.597 1.782 185.751 2.28133 185.769 2.86H183.851C183.842 2.51467 183.707 2.21133 183.445 1.95C183.193 1.67933 182.839 1.544 182.381 1.544C181.989 1.53467 181.658 1.63267 181.387 1.838C181.126 2.034 180.995 2.32333 180.995 2.706C180.995 3.03267 181.098 3.294 181.303 3.49C181.509 3.67667 181.789 3.83533 182.143 3.966C182.498 4.09667 182.904 4.23667 183.361 4.386C183.847 4.554 184.29 4.75 184.691 4.974C185.093 5.198 185.415 5.49667 185.657 5.87C185.9 6.234 186.021 6.70533 186.021 7.284C186.021 7.79733 185.891 8.27333 185.629 8.712C185.368 9.15067 184.981 9.50533 184.467 9.776C183.954 10.0373 183.324 10.168 182.577 10.168ZM191.744 10V1.642H188.888V0.199999H196.406V1.642H193.536V10H191.744ZM200.069 6.906L199.873 0.199999H201.791L201.581 6.906H200.069ZM200.867 10.098C200.531 10.098 200.256 9.99533 200.041 9.79C199.836 9.58467 199.733 9.33733 199.733 9.048C199.733 8.74933 199.836 8.49733 200.041 8.292C200.256 8.08667 200.531 7.984 200.867 7.984C201.185 7.984 201.446 8.08667 201.651 8.292C201.866 8.49733 201.973 8.74933 201.973 9.048C201.973 9.33733 201.866 9.58467 201.651 9.79C201.446 9.99533 201.185 10.098 200.867 10.098Z" fill="#1E0E62"/>
</svg>
