<svg width="348" height="11" viewBox="0 0 348 11" fill="none" xmlns="http://www.w3.org/2000/svg">
<path d="M0.322 10L3.906 0.199999H5.922L9.506 10H7.602L6.818 7.732H2.996L2.198 10H0.322ZM3.486 6.332H6.328L4.9 2.258L3.486 6.332ZM12.7684 10V0.199999H14.5604L19.1664 7.102V0.199999H20.9584V10H19.1664L14.5604 3.112V10H12.7684ZM24.8583 10V0.199999H28.2043C29.3523 0.199999 30.2949 0.405333 31.0323 0.816C31.7789 1.21733 32.3296 1.78667 32.6843 2.524C33.0483 3.252 33.2303 4.11067 33.2303 5.1C33.2303 6.08933 33.0483 6.95267 32.6843 7.69C32.3296 8.418 31.7789 8.98733 31.0323 9.398C30.2949 9.79933 29.3523 10 28.2043 10H24.8583ZM26.6503 8.46H28.1203C28.9416 8.46 29.5903 8.32933 30.0663 8.068C30.5423 7.79733 30.8829 7.41467 31.0883 6.92C31.2936 6.416 31.3963 5.80933 31.3963 5.1C31.3963 4.4 31.2936 3.798 31.0883 3.294C30.8829 2.79 30.5423 2.40267 30.0663 2.132C29.5903 1.86133 28.9416 1.726 28.1203 1.726H26.6503V8.46ZM42.1473 10V0.199999H45.7733C46.5573 0.199999 47.206 0.330666 47.7193 0.591999C48.2326 0.853333 48.6153 1.21267 48.8673 1.67C49.1193 2.12733 49.2453 2.64067 49.2453 3.21C49.2453 3.75133 49.124 4.25067 48.8813 4.708C48.6386 5.156 48.2606 5.52 47.7473 5.8C47.234 6.07067 46.576 6.206 45.7733 6.206H43.9393V10H42.1473ZM43.9393 4.75H45.6613C46.2866 4.75 46.7346 4.61467 47.0053 4.344C47.2853 4.064 47.4253 3.686 47.4253 3.21C47.4253 2.72467 47.2853 2.34667 47.0053 2.076C46.7346 1.796 46.2866 1.656 45.6613 1.656H43.9393V4.75ZM52.6512 10V0.199999H59.0492V1.642H54.4432V4.33H58.6292V5.73H54.4432V8.558H59.0492V10H52.6512ZM67.337 10.168C66.357 10.168 65.4983 9.95333 64.761 9.524C64.033 9.09467 63.459 8.502 63.039 7.746C62.6283 6.98067 62.423 6.09867 62.423 5.1C62.423 4.10133 62.6283 3.224 63.039 2.468C63.459 1.70267 64.033 1.10533 64.761 0.676C65.4983 0.246667 66.357 0.0319998 67.337 0.0319998C68.3076 0.0319998 69.1616 0.246667 69.899 0.676C70.6363 1.10533 71.2103 1.70267 71.621 2.468C72.0316 3.224 72.237 4.10133 72.237 5.1C72.237 6.09867 72.0316 6.98067 71.621 7.746C71.2103 8.502 70.6363 9.09467 69.899 9.524C69.1616 9.95333 68.3076 10.168 67.337 10.168ZM67.337 8.558C68.2703 8.558 69.0123 8.25 69.563 7.634C70.123 7.018 70.403 6.17333 70.403 5.1C70.403 4.02667 70.123 3.182 69.563 2.566C69.0123 1.95 68.2703 1.642 67.337 1.642C66.4036 1.642 65.657 1.95 65.097 2.566C64.537 3.182 64.257 4.02667 64.257 5.1C64.257 6.17333 64.537 7.018 65.097 7.634C65.657 8.25 66.4036 8.558 67.337 8.558ZM75.8192 10V0.199999H79.4452C80.2292 0.199999 80.8779 0.330666 81.3912 0.591999C81.9045 0.853333 82.2872 1.21267 82.5392 1.67C82.7912 2.12733 82.9172 2.64067 82.9172 3.21C82.9172 3.75133 82.7959 4.25067 82.5532 4.708C82.3105 5.156 81.9325 5.52 81.4192 5.8C80.9059 6.07067 80.2479 6.206 79.4452 6.206H77.6112V10H75.8192ZM77.6112 4.75H79.3332C79.9585 4.75 80.4065 4.61467 80.6772 4.344C80.9572 4.064 81.0972 3.686 81.0972 3.21C81.0972 2.72467 80.9572 2.34667 80.6772 2.076C80.4065 1.796 79.9585 1.656 79.3332 1.656H77.6112V4.75ZM86.3231 10V0.199999H88.1151V8.6H92.4551V10H86.3231ZM96.034 10V0.199999H102.432V1.642H97.826V4.33H102.012V5.73H97.826V8.558H102.432V10H96.034ZM111.464 10V0.199999H117.792V1.642H113.256V4.386H116.924V5.8H113.256V10H111.464ZM121.175 10V0.199999H124.773C125.557 0.199999 126.201 0.335333 126.705 0.606C127.218 0.867333 127.601 1.22667 127.853 1.684C128.105 2.132 128.231 2.63133 128.231 3.182C128.231 3.77933 128.072 4.32533 127.755 4.82C127.447 5.31467 126.961 5.674 126.299 5.898L128.329 10H126.271L124.451 6.136H122.967V10H121.175ZM122.967 4.82H124.661C125.258 4.82 125.697 4.67533 125.977 4.386C126.257 4.09667 126.397 3.714 126.397 3.238C126.397 2.77133 126.257 2.398 125.977 2.118C125.706 1.838 125.263 1.698 124.647 1.698H122.967V4.82ZM136.489 10.168C135.509 10.168 134.651 9.95333 133.913 9.524C133.185 9.09467 132.611 8.502 132.191 7.746C131.781 6.98067 131.575 6.09867 131.575 5.1C131.575 4.10133 131.781 3.224 132.191 2.468C132.611 1.70267 133.185 1.10533 133.913 0.676C134.651 0.246667 135.509 0.0319998 136.489 0.0319998C137.46 0.0319998 138.314 0.246667 139.051 0.676C139.789 1.10533 140.363 1.70267 140.773 2.468C141.184 3.224 141.389 4.10133 141.389 5.1C141.389 6.09867 141.184 6.98067 140.773 7.746C140.363 8.502 139.789 9.09467 139.051 9.524C138.314 9.95333 137.46 10.168 136.489 10.168ZM136.489 8.558C137.423 8.558 138.165 8.25 138.715 7.634C139.275 7.018 139.555 6.17333 139.555 5.1C139.555 4.02667 139.275 3.182 138.715 2.566C138.165 1.95 137.423 1.642 136.489 1.642C135.556 1.642 134.809 1.95 134.249 2.566C133.689 3.182 133.409 4.02667 133.409 5.1C133.409 6.17333 133.689 7.018 134.249 7.634C134.809 8.25 135.556 8.558 136.489 8.558ZM144.972 10V0.199999H147.1L150.222 6.416L153.302 0.199999H155.43V10H153.638V3.238L150.908 8.6H149.494L146.764 3.238V10H144.972ZM164.037 10L167.621 0.199999H169.637L173.221 10H171.317L170.533 7.732H166.711L165.913 10H164.037ZM167.201 6.332H170.043L168.615 2.258L167.201 6.332ZM176.483 10V0.199999H178.275V8.6H182.615V10H176.483ZM186.194 10V0.199999H187.986V8.6H192.326V10H186.194ZM205.833 10.168C204.853 10.168 203.994 9.95333 203.257 9.524C202.529 9.09467 201.955 8.502 201.535 7.746C201.124 6.98067 200.919 6.09867 200.919 5.1C200.919 4.10133 201.124 3.224 201.535 2.468C201.955 1.70267 202.529 1.10533 203.257 0.676C203.994 0.246667 204.853 0.0319998 205.833 0.0319998C206.804 0.0319998 207.658 0.246667 208.395 0.676C209.132 1.10533 209.706 1.70267 210.117 2.468C210.528 3.224 210.733 4.10133 210.733 5.1C210.733 6.09867 210.528 6.98067 210.117 7.746C209.706 8.502 209.132 9.09467 208.395 9.524C207.658 9.95333 206.804 10.168 205.833 10.168ZM205.833 8.558C206.766 8.558 207.508 8.25 208.059 7.634C208.619 7.018 208.899 6.17333 208.899 5.1C208.899 4.02667 208.619 3.182 208.059 2.566C207.508 1.95 206.766 1.642 205.833 1.642C204.9 1.642 204.153 1.95 203.593 2.566C203.033 3.182 202.753 4.02667 202.753 5.1C202.753 6.17333 203.033 7.018 203.593 7.634C204.153 8.25 204.9 8.558 205.833 8.558ZM216.829 10L213.245 0.199999H215.163L217.935 8.166L220.721 0.199999H222.611L219.027 10H216.829ZM225.776 10V0.199999H232.174V1.642H227.568V4.33H231.754V5.73H227.568V8.558H232.174V10H225.776ZM235.87 10V0.199999H239.468C240.252 0.199999 240.896 0.335333 241.4 0.606C241.913 0.867333 242.296 1.22667 242.548 1.684C242.8 2.132 242.926 2.63133 242.926 3.182C242.926 3.77933 242.767 4.32533 242.45 4.82C242.142 5.31467 241.657 5.674 240.994 5.898L243.024 10H240.966L239.146 6.136H237.662V10H235.87ZM237.662 4.82H239.356C239.953 4.82 240.392 4.67533 240.672 4.386C240.952 4.09667 241.092 3.714 241.092 3.238C241.092 2.77133 240.952 2.398 240.672 2.118C240.401 1.838 239.958 1.698 239.342 1.698H237.662V4.82ZM254.211 10V1.642H251.355V0.199999H258.873V1.642H256.003V10H254.211ZM262.2 10V0.199999H263.992V4.274H268.388V0.199999H270.18V10H268.388V5.73H263.992V10H262.2ZM274.085 10V0.199999H280.483V1.642H275.877V4.33H280.063V5.73H275.877V8.558H280.483V10H274.085ZM291.503 10L288.913 0.199999H290.831L292.595 7.998L294.667 0.199999H296.641L298.657 7.998L300.421 0.199999H302.353L299.693 10H297.565L295.619 2.734L293.617 10H291.503ZM309.819 10.168C308.839 10.168 307.981 9.95333 307.243 9.524C306.515 9.09467 305.941 8.502 305.521 7.746C305.111 6.98067 304.905 6.09867 304.905 5.1C304.905 4.10133 305.111 3.224 305.521 2.468C305.941 1.70267 306.515 1.10533 307.243 0.676C307.981 0.246667 308.839 0.0319998 309.819 0.0319998C310.79 0.0319998 311.644 0.246667 312.381 0.676C313.119 1.10533 313.693 1.70267 314.103 2.468C314.514 3.224 314.719 4.10133 314.719 5.1C314.719 6.09867 314.514 6.98067 314.103 7.746C313.693 8.502 313.119 9.09467 312.381 9.524C311.644 9.95333 310.79 10.168 309.819 10.168ZM309.819 8.558C310.753 8.558 311.495 8.25 312.045 7.634C312.605 7.018 312.885 6.17333 312.885 5.1C312.885 4.02667 312.605 3.182 312.045 2.566C311.495 1.95 310.753 1.642 309.819 1.642C308.886 1.642 308.139 1.95 307.579 2.566C307.019 3.182 306.739 4.02667 306.739 5.1C306.739 6.17333 307.019 7.018 307.579 7.634C308.139 8.25 308.886 8.558 309.819 8.558ZM318.302 10V0.199999H321.9C322.684 0.199999 323.328 0.335333 323.832 0.606C324.345 0.867333 324.728 1.22667 324.98 1.684C325.232 2.132 325.358 2.63133 325.358 3.182C325.358 3.77933 325.199 4.32533 324.882 4.82C324.574 5.31467 324.088 5.674 323.426 5.898L325.456 10H323.398L321.578 6.136H320.094V10H318.302ZM320.094 4.82H321.788C322.385 4.82 322.824 4.67533 323.104 4.386C323.384 4.09667 323.524 3.714 323.524 3.238C323.524 2.77133 323.384 2.398 323.104 2.118C322.833 1.838 322.39 1.698 321.774 1.698H320.094V4.82ZM329.024 10V0.199999H330.816V8.6H335.156V10H329.024ZM338.735 10V0.199999H342.081C343.229 0.199999 344.172 0.405333 344.909 0.816C345.656 1.21733 346.207 1.78667 346.561 2.524C346.925 3.252 347.107 4.11067 347.107 5.1C347.107 6.08933 346.925 6.95267 346.561 7.69C346.207 8.418 345.656 8.98733 344.909 9.398C344.172 9.79933 343.229 10 342.081 10H338.735ZM340.527 8.46H341.997C342.819 8.46 343.467 8.32933 343.943 8.068C344.419 7.79733 344.76 7.41467 344.965 6.92C345.171 6.416 345.273 5.80933 345.273 5.1C345.273 4.4 345.171 3.798 344.965 3.294C344.76 2.79 344.419 2.40267 343.943 2.132C343.467 1.86133 342.819 1.726 341.997 1.726H340.527V8.46Z" fill="#1E0E62"/>
</svg>
