<svg width="310" height="32" viewBox="0 0 310 32" fill="none" xmlns="http://www.w3.org/2000/svg">
<path d="M0.0587735 31L10.8108 1.6H16.8588L27.6108 31H21.8988L19.5468 24.196H8.08077L5.68677 31H0.0587735ZM9.55077 19.996H18.0768L13.7928 7.774L9.55077 19.996ZM30.872 31V10.168H35.618L36.038 13.696C36.682 12.464 37.606 11.484 38.81 10.756C40.042 10.028 41.484 9.664 43.136 9.664C45.712 9.664 47.714 10.476 49.142 12.1C50.57 13.724 51.284 16.104 51.284 19.24V31H45.908V19.744C45.908 17.952 45.544 16.58 44.816 15.628C44.088 14.676 42.954 14.2 41.414 14.2C39.902 14.2 38.656 14.732 37.676 15.796C36.724 16.86 36.248 18.344 36.248 20.248V31H30.872ZM65.7585 31V1.6H71.1345V31H65.7585ZM76.3068 31V10.168H81.0528L81.4728 13.696C82.1168 12.464 83.0408 11.484 84.2448 10.756C85.4768 10.028 86.9188 9.664 88.5708 9.664C91.1468 9.664 93.1488 10.476 94.5768 12.1C96.0048 13.724 96.7188 16.104 96.7188 19.24V31H91.3428V19.744C91.3428 17.952 90.9788 16.58 90.2508 15.628C89.5228 14.676 88.3888 14.2 86.8488 14.2C85.3368 14.2 84.0908 14.732 83.1108 15.796C82.1588 16.86 81.6828 18.344 81.6828 20.248V31H76.3068ZM110.741 31C108.557 31 106.807 30.468 105.491 29.404C104.175 28.34 103.517 26.45 103.517 23.734V14.662H99.9475V10.168H103.517L104.147 4.582H108.893V10.168H114.521V14.662H108.893V23.776C108.893 24.784 109.103 25.484 109.523 25.876C109.971 26.24 110.727 26.422 111.791 26.422H114.395V31H110.741ZM118.737 31V10.168H123.525L124.029 14.074C124.785 12.73 125.807 11.666 127.095 10.882C128.411 10.07 129.951 9.664 131.715 9.664V15.334H130.203C129.027 15.334 127.977 15.516 127.053 15.88C126.129 16.244 125.401 16.874 124.869 17.77C124.365 18.666 124.113 19.912 124.113 21.508V31H118.737ZM144.616 31.504C142.6 31.504 140.78 31.042 139.156 30.118C137.56 29.194 136.286 27.92 135.334 26.296C134.41 24.644 133.948 22.74 133.948 20.584C133.948 18.428 134.424 16.538 135.376 14.914C136.328 13.262 137.602 11.974 139.198 11.05C140.822 10.126 142.642 9.664 144.658 9.664C146.646 9.664 148.438 10.126 150.034 11.05C151.658 11.974 152.932 13.262 153.856 14.914C154.808 16.538 155.284 18.428 155.284 20.584C155.284 22.74 154.808 24.644 153.856 26.296C152.932 27.92 151.658 29.194 150.034 30.118C148.41 31.042 146.604 31.504 144.616 31.504ZM144.616 26.842C146.016 26.842 147.234 26.324 148.27 25.288C149.306 24.224 149.824 22.656 149.824 20.584C149.824 18.512 149.306 16.958 148.27 15.922C147.234 14.858 146.03 14.326 144.658 14.326C143.23 14.326 141.998 14.858 140.962 15.922C139.954 16.958 139.45 18.512 139.45 20.584C139.45 22.656 139.954 24.224 140.962 25.288C141.998 26.324 143.216 26.842 144.616 26.842ZM169.267 31.504C167.307 31.504 165.557 31.028 164.017 30.076C162.477 29.124 161.259 27.822 160.363 26.17C159.467 24.518 159.019 22.642 159.019 20.542C159.019 18.442 159.467 16.58 160.363 14.956C161.259 13.304 162.477 12.016 164.017 11.092C165.557 10.14 167.307 9.664 169.267 9.664C170.835 9.664 172.207 9.958 173.383 10.546C174.559 11.134 175.511 11.96 176.239 13.024V0.759999H181.615V31H176.827L176.239 28.018C175.567 28.942 174.671 29.754 173.551 30.454C172.459 31.154 171.031 31.504 169.267 31.504ZM170.401 26.8C172.137 26.8 173.551 26.226 174.643 25.078C175.763 23.902 176.323 22.404 176.323 20.584C176.323 18.764 175.763 17.28 174.643 16.132C173.551 14.956 172.137 14.368 170.401 14.368C168.693 14.368 167.279 14.942 166.159 16.09C165.039 17.238 164.479 18.722 164.479 20.542C164.479 22.362 165.039 23.86 166.159 25.036C167.279 26.212 168.693 26.8 170.401 26.8ZM194.502 31.504C191.898 31.504 189.882 30.692 188.454 29.068C187.054 27.444 186.354 25.064 186.354 21.928V10.168H191.688V21.424C191.688 23.216 192.052 24.588 192.78 25.54C193.508 26.492 194.656 26.968 196.224 26.968C197.708 26.968 198.926 26.436 199.878 25.372C200.858 24.308 201.348 22.824 201.348 20.92V10.168H206.724V31H201.978L201.558 27.472C200.914 28.704 199.976 29.684 198.744 30.412C197.54 31.14 196.126 31.504 194.502 31.504ZM222.048 31.504C219.92 31.504 218.044 31.042 216.42 30.118C214.796 29.194 213.508 27.906 212.556 26.254C211.632 24.602 211.17 22.712 211.17 20.584C211.17 18.456 211.632 16.566 212.556 14.914C213.508 13.262 214.796 11.974 216.42 11.05C218.044 10.126 219.92 9.664 222.048 9.664C224.708 9.664 226.948 10.364 228.768 11.764C230.588 13.136 231.75 15.04 232.254 17.476H226.584C226.304 16.468 225.744 15.684 224.904 15.124C224.092 14.536 223.126 14.242 222.006 14.242C220.522 14.242 219.262 14.802 218.226 15.922C217.19 17.042 216.672 18.596 216.672 20.584C216.672 22.572 217.19 24.126 218.226 25.246C219.262 26.366 220.522 26.926 222.006 26.926C223.126 26.926 224.092 26.646 224.904 26.086C225.744 25.526 226.304 24.728 226.584 23.692H232.254C231.75 26.044 230.588 27.934 228.768 29.362C226.948 30.79 224.708 31.504 222.048 31.504ZM245.621 31C243.437 31 241.687 30.468 240.371 29.404C239.055 28.34 238.397 26.45 238.397 23.734V14.662H234.827V10.168H238.397L239.027 4.582H243.773V10.168H249.401V14.662H243.773V23.776C243.773 24.784 243.983 25.484 244.403 25.876C244.851 26.24 245.607 26.422 246.671 26.422H249.275V31H245.621ZM256.515 6.934C255.535 6.934 254.723 6.64 254.079 6.052C253.463 5.464 253.155 4.722 253.155 3.826C253.155 2.93 253.463 2.202 254.079 1.642C254.723 1.054 255.535 0.759999 256.515 0.759999C257.495 0.759999 258.293 1.054 258.909 1.642C259.553 2.202 259.875 2.93 259.875 3.826C259.875 4.722 259.553 5.464 258.909 6.052C258.293 6.64 257.495 6.934 256.515 6.934ZM253.827 31V10.168H259.203V31H253.827ZM274.41 31.504C272.394 31.504 270.574 31.042 268.95 30.118C267.354 29.194 266.08 27.92 265.128 26.296C264.204 24.644 263.742 22.74 263.742 20.584C263.742 18.428 264.218 16.538 265.17 14.914C266.122 13.262 267.396 11.974 268.992 11.05C270.616 10.126 272.436 9.664 274.452 9.664C276.44 9.664 278.232 10.126 279.828 11.05C281.452 11.974 282.726 13.262 283.65 14.914C284.602 16.538 285.078 18.428 285.078 20.584C285.078 22.74 284.602 24.644 283.65 26.296C282.726 27.92 281.452 29.194 279.828 30.118C278.204 31.042 276.398 31.504 274.41 31.504ZM274.41 26.842C275.81 26.842 277.028 26.324 278.064 25.288C279.1 24.224 279.618 22.656 279.618 20.584C279.618 18.512 279.1 16.958 278.064 15.922C277.028 14.858 275.824 14.326 274.452 14.326C273.024 14.326 271.792 14.858 270.756 15.922C269.748 16.958 269.244 18.512 269.244 20.584C269.244 22.656 269.748 24.224 270.756 25.288C271.792 26.324 273.01 26.842 274.41 26.842ZM289.485 31V10.168H294.231L294.651 13.696C295.295 12.464 296.219 11.484 297.423 10.756C298.655 10.028 300.097 9.664 301.749 9.664C304.325 9.664 306.327 10.476 307.755 12.1C309.183 13.724 309.897 16.104 309.897 19.24V31H304.521V19.744C304.521 17.952 304.157 16.58 303.429 15.628C302.701 14.676 301.567 14.2 300.027 14.2C298.515 14.2 297.269 14.732 296.289 15.796C295.337 16.86 294.861 18.344 294.861 20.248V31H289.485Z" fill="#1E0E62"/>
</svg>
