<svg width="247" height="32" viewBox="0 0 247 32" fill="none" xmlns="http://www.w3.org/2000/svg">
<path d="M14.275 31.504C11.503 31.504 9.08099 30.874 7.00899 29.614C4.93699 28.354 3.32699 26.604 2.17899 24.364C1.03099 22.096 0.456986 19.464 0.456986 16.468C0.456986 13.444 1.04499 10.784 2.22099 8.488C3.42499 6.164 5.11899 4.358 7.30299 3.07C9.51499 1.754 12.133 1.096 15.157 1.096C18.601 1.096 21.457 1.922 23.725 3.574C25.993 5.226 27.463 7.508 28.135 10.42H22.129C21.681 9.048 20.869 7.984 19.693 7.228C18.517 6.444 17.005 6.052 15.157 6.052C12.217 6.052 9.94899 6.99 8.35299 8.866C6.75699 10.714 5.95899 13.262 5.95899 16.51C5.95899 19.758 6.74299 22.278 8.31099 24.07C9.90699 25.834 12.063 26.716 14.779 26.716C17.439 26.716 19.441 26.002 20.785 24.574C22.157 23.118 22.983 21.214 23.263 18.862H15.829V14.83H28.681V31H23.725L23.305 27.136C22.353 28.536 21.163 29.614 19.735 30.37C18.307 31.126 16.487 31.504 14.275 31.504ZM43.5034 31.504C41.4034 31.504 39.5414 31.056 37.9174 30.16C36.2934 29.264 35.0194 28.004 34.0954 26.38C33.1714 24.756 32.7094 22.88 32.7094 20.752C32.7094 18.596 33.1574 16.678 34.0534 14.998C34.9774 13.318 36.2374 12.016 37.8334 11.092C39.4574 10.14 41.3614 9.664 43.5454 9.664C45.5894 9.664 47.3954 10.112 48.9634 11.008C50.5314 11.904 51.7494 13.136 52.6174 14.704C53.5134 16.244 53.9614 17.966 53.9614 19.87C53.9614 20.178 53.9474 20.5 53.9194 20.836C53.9194 21.172 53.9054 21.522 53.8774 21.886H38.0434C38.1554 23.51 38.7154 24.784 39.7234 25.708C40.7594 26.632 42.0054 27.094 43.4614 27.094C44.5534 27.094 45.4634 26.856 46.1914 26.38C46.9474 25.876 47.5074 25.232 47.8714 24.448H53.3314C52.9394 25.764 52.2814 26.968 51.3574 28.06C50.4614 29.124 49.3414 29.964 47.9974 30.58C46.6814 31.196 45.1834 31.504 43.5034 31.504ZM43.5454 14.032C42.2294 14.032 41.0674 14.41 40.0594 15.166C39.0514 15.894 38.4074 17.014 38.1274 18.526H48.5014C48.4174 17.154 47.9134 16.062 46.9894 15.25C46.0654 14.438 44.9174 14.032 43.5454 14.032ZM66.9958 31C64.8118 31 63.0618 30.468 61.7458 29.404C60.4298 28.34 59.7718 26.45 59.7718 23.734V14.662H56.2018V10.168H59.7718L60.4018 4.582H65.1478V10.168H70.7758V14.662H65.1478V23.776C65.1478 24.784 65.3578 25.484 65.7778 25.876C66.2258 26.24 66.9818 26.422 68.0458 26.422H70.6498V31H66.9958ZM87.4973 6.934C86.5173 6.934 85.7053 6.64 85.0613 6.052C84.4453 5.464 84.1373 4.722 84.1373 3.826C84.1373 2.93 84.4453 2.202 85.0613 1.642C85.7053 1.054 86.5173 0.759999 87.4973 0.759999C88.4773 0.759999 89.2753 1.054 89.8913 1.642C90.5353 2.202 90.8573 2.93 90.8573 3.826C90.8573 4.722 90.5353 5.464 89.8913 6.052C89.2753 6.64 88.4773 6.934 87.4973 6.934ZM84.8093 31V10.168H90.1853V31H84.8093ZM95.3966 31V10.168H100.143L100.563 13.696C101.207 12.464 102.131 11.484 103.335 10.756C104.567 10.028 106.009 9.664 107.661 9.664C110.237 9.664 112.239 10.476 113.667 12.1C115.095 13.724 115.809 16.104 115.809 19.24V31H110.433V19.744C110.433 17.952 110.069 16.58 109.341 15.628C108.613 14.676 107.479 14.2 105.939 14.2C104.427 14.2 103.181 14.732 102.201 15.796C101.249 16.86 100.773 18.344 100.773 20.248V31H95.3966ZM125.972 31L118.328 10.168H123.956L129.248 25.918L134.54 10.168H140.168L132.482 31H125.972ZM152.13 31.504C150.114 31.504 148.294 31.042 146.67 30.118C145.074 29.194 143.8 27.92 142.848 26.296C141.924 24.644 141.462 22.74 141.462 20.584C141.462 18.428 141.938 16.538 142.89 14.914C143.842 13.262 145.116 11.974 146.712 11.05C148.336 10.126 150.156 9.664 152.172 9.664C154.16 9.664 155.952 10.126 157.548 11.05C159.172 11.974 160.446 13.262 161.37 14.914C162.322 16.538 162.798 18.428 162.798 20.584C162.798 22.74 162.322 24.644 161.37 26.296C160.446 27.92 159.172 29.194 157.548 30.118C155.924 31.042 154.118 31.504 152.13 31.504ZM152.13 26.842C153.53 26.842 154.748 26.324 155.784 25.288C156.82 24.224 157.338 22.656 157.338 20.584C157.338 18.512 156.82 16.958 155.784 15.922C154.748 14.858 153.544 14.326 152.172 14.326C150.744 14.326 149.512 14.858 148.476 15.922C147.468 16.958 146.964 18.512 146.964 20.584C146.964 22.656 147.468 24.224 148.476 25.288C149.512 26.324 150.73 26.842 152.13 26.842ZM167.204 31V0.759999H172.58V31H167.204ZM183.302 31L175.658 10.168H181.286L186.578 25.918L191.87 10.168H197.498L189.812 31H183.302ZM209.585 31.504C207.485 31.504 205.623 31.056 203.999 30.16C202.375 29.264 201.101 28.004 200.177 26.38C199.253 24.756 198.791 22.88 198.791 20.752C198.791 18.596 199.239 16.678 200.135 14.998C201.059 13.318 202.319 12.016 203.915 11.092C205.539 10.14 207.443 9.664 209.627 9.664C211.671 9.664 213.477 10.112 215.045 11.008C216.613 11.904 217.831 13.136 218.699 14.704C219.595 16.244 220.043 17.966 220.043 19.87C220.043 20.178 220.029 20.5 220.001 20.836C220.001 21.172 219.987 21.522 219.959 21.886H204.125C204.237 23.51 204.797 24.784 205.805 25.708C206.841 26.632 208.087 27.094 209.543 27.094C210.635 27.094 211.545 26.856 212.273 26.38C213.029 25.876 213.589 25.232 213.953 24.448H219.413C219.021 25.764 218.363 26.968 217.439 28.06C216.543 29.124 215.423 29.964 214.079 30.58C212.763 31.196 211.265 31.504 209.585 31.504ZM209.627 14.032C208.311 14.032 207.149 14.41 206.141 15.166C205.133 15.894 204.489 17.014 204.209 18.526H214.583C214.499 17.154 213.995 16.062 213.071 15.25C212.147 14.438 210.999 14.032 209.627 14.032ZM233.741 31.504C231.781 31.504 230.031 31.028 228.491 30.076C226.951 29.124 225.733 27.822 224.837 26.17C223.941 24.518 223.493 22.642 223.493 20.542C223.493 18.442 223.941 16.58 224.837 14.956C225.733 13.304 226.951 12.016 228.491 11.092C230.031 10.14 231.781 9.664 233.741 9.664C235.309 9.664 236.681 9.958 237.857 10.546C239.033 11.134 239.985 11.96 240.713 13.024V0.759999H246.089V31H241.301L240.713 28.018C240.041 28.942 239.145 29.754 238.025 30.454C236.933 31.154 235.505 31.504 233.741 31.504ZM234.875 26.8C236.611 26.8 238.025 26.226 239.117 25.078C240.237 23.902 240.797 22.404 240.797 20.584C240.797 18.764 240.237 17.28 239.117 16.132C238.025 14.956 236.611 14.368 234.875 14.368C233.167 14.368 231.753 14.942 230.633 16.09C229.513 17.238 228.953 18.722 228.953 20.542C228.953 22.362 229.513 23.86 230.633 25.036C231.753 26.212 233.167 26.8 234.875 26.8Z" fill="#1E0E62"/>
</svg>
