<svg width="536" height="41" viewBox="0 0 536 41" fill="none" xmlns="http://www.w3.org/2000/svg">
<path d="M0.8896 31V1.6H11.7676C14.1196 1.6 16.0656 1.992 17.6056 2.776C19.1456 3.56 20.2936 4.638 21.0496 6.01C21.8056 7.382 22.1836 8.922 22.1836 10.63C22.1836 12.254 21.8196 13.752 21.0916 15.124C20.3636 16.468 19.2296 17.56 17.6896 18.4C16.1496 19.212 14.1756 19.618 11.7676 19.618H6.2656V31H0.8896ZM6.2656 15.25H11.4316C13.3076 15.25 14.6516 14.844 15.4636 14.032C16.3036 13.192 16.7236 12.058 16.7236 10.63C16.7236 9.174 16.3036 8.04 15.4636 7.228C14.6516 6.388 13.3076 5.968 11.4316 5.968H6.2656V15.25ZM34.9309 31.504C32.8309 31.504 30.9689 31.056 29.3449 30.16C27.7209 29.264 26.4469 28.004 25.5229 26.38C24.5989 24.756 24.1369 22.88 24.1369 20.752C24.1369 18.596 24.5849 16.678 25.4809 14.998C26.4049 13.318 27.6649 12.016 29.2609 11.092C30.8849 10.14 32.7889 9.664 34.9729 9.664C37.0169 9.664 38.8229 10.112 40.3909 11.008C41.9589 11.904 43.1769 13.136 44.0449 14.704C44.9409 16.244 45.3889 17.966 45.3889 19.87C45.3889 20.178 45.3749 20.5 45.3469 20.836C45.3469 21.172 45.3329 21.522 45.3049 21.886H29.4709C29.5829 23.51 30.1429 24.784 31.1509 25.708C32.1869 26.632 33.4329 27.094 34.8889 27.094C35.9809 27.094 36.8909 26.856 37.6189 26.38C38.3749 25.876 38.9349 25.232 39.2989 24.448H44.7589C44.3669 25.764 43.7089 26.968 42.7849 28.06C41.8889 29.124 40.7689 29.964 39.4249 30.58C38.1089 31.196 36.6109 31.504 34.9309 31.504ZM34.9729 14.032C33.6569 14.032 32.4949 14.41 31.4869 15.166C30.4789 15.894 29.8349 17.014 29.5549 18.526H39.9289C39.8449 17.154 39.3409 16.062 38.4169 15.25C37.4929 14.438 36.3449 14.032 34.9729 14.032ZM59.5065 31.504C57.4905 31.504 55.6705 31.042 54.0465 30.118C52.4505 29.194 51.1765 27.92 50.2245 26.296C49.3005 24.644 48.8385 22.74 48.8385 20.584C48.8385 18.428 49.3145 16.538 50.2665 14.914C51.2185 13.262 52.4925 11.974 54.0885 11.05C55.7125 10.126 57.5325 9.664 59.5485 9.664C61.5365 9.664 63.3285 10.126 64.9245 11.05C66.5485 11.974 67.8225 13.262 68.7465 14.914C69.6985 16.538 70.1745 18.428 70.1745 20.584C70.1745 22.74 69.6985 24.644 68.7465 26.296C67.8225 27.92 66.5485 29.194 64.9245 30.118C63.3005 31.042 61.4945 31.504 59.5065 31.504ZM59.5065 26.842C60.9065 26.842 62.1245 26.324 63.1605 25.288C64.1965 24.224 64.7145 22.656 64.7145 20.584C64.7145 18.512 64.1965 16.958 63.1605 15.922C62.1245 14.858 60.9205 14.326 59.5485 14.326C58.1205 14.326 56.8885 14.858 55.8525 15.922C54.8445 16.958 54.3405 18.512 54.3405 20.584C54.3405 22.656 54.8445 24.224 55.8525 25.288C56.8885 26.324 58.1065 26.842 59.5065 26.842ZM74.5812 40.24V10.168H79.3692L79.9572 13.15C80.6292 12.226 81.5112 11.414 82.6032 10.714C83.7232 10.014 85.1652 9.664 86.9292 9.664C88.8892 9.664 90.6392 10.14 92.1792 11.092C93.7192 12.044 94.9372 13.346 95.8332 14.998C96.7292 16.65 97.1772 18.526 97.1772 20.626C97.1772 22.726 96.7292 24.602 95.8332 26.254C94.9372 27.878 93.7192 29.166 92.1792 30.118C90.6392 31.042 88.8892 31.504 86.9292 31.504C85.3612 31.504 83.9892 31.21 82.8132 30.622C81.6372 30.034 80.6852 29.208 79.9572 28.144V40.24H74.5812ZM85.7952 26.8C87.5032 26.8 88.9172 26.226 90.0372 25.078C91.1572 23.93 91.7172 22.446 91.7172 20.626C91.7172 18.806 91.1572 17.308 90.0372 16.132C88.9172 14.956 87.5032 14.368 85.7952 14.368C84.0592 14.368 82.6312 14.956 81.5112 16.132C80.4192 17.28 79.8732 18.764 79.8732 20.584C79.8732 22.404 80.4192 23.902 81.5112 25.078C82.6312 26.226 84.0592 26.8 85.7952 26.8ZM101.58 31V0.759999H106.956V31H101.58ZM122.171 31.504C120.071 31.504 118.209 31.056 116.585 30.16C114.961 29.264 113.687 28.004 112.763 26.38C111.839 24.756 111.377 22.88 111.377 20.752C111.377 18.596 111.825 16.678 112.721 14.998C113.645 13.318 114.905 12.016 116.501 11.092C118.125 10.14 120.029 9.664 122.213 9.664C124.257 9.664 126.063 10.112 127.631 11.008C129.199 11.904 130.417 13.136 131.285 14.704C132.181 16.244 132.629 17.966 132.629 19.87C132.629 20.178 132.615 20.5 132.587 20.836C132.587 21.172 132.573 21.522 132.545 21.886H116.711C116.823 23.51 117.383 24.784 118.391 25.708C119.427 26.632 120.673 27.094 122.129 27.094C123.221 27.094 124.131 26.856 124.859 26.38C125.615 25.876 126.175 25.232 126.539 24.448H131.999C131.607 25.764 130.949 26.968 130.025 28.06C129.129 29.124 128.009 29.964 126.665 30.58C125.349 31.196 123.851 31.504 122.171 31.504ZM122.213 14.032C120.897 14.032 119.735 14.41 118.727 15.166C117.719 15.894 117.075 17.014 116.795 18.526H127.169C127.085 17.154 126.581 16.062 125.657 15.25C124.733 14.438 123.585 14.032 122.213 14.032ZM146.358 31V10.168H151.104L151.566 12.982C152.238 11.974 153.12 11.176 154.212 10.588C155.332 9.972 156.62 9.664 158.076 9.664C161.296 9.664 163.578 10.91 164.922 13.402C165.678 12.254 166.686 11.344 167.946 10.672C169.234 10 170.634 9.664 172.146 9.664C174.862 9.664 176.948 10.476 178.404 12.1C179.86 13.724 180.588 16.104 180.588 19.24V31H175.212V19.744C175.212 17.952 174.862 16.58 174.162 15.628C173.49 14.676 172.44 14.2 171.012 14.2C169.556 14.2 168.38 14.732 167.484 15.796C166.616 16.86 166.182 18.344 166.182 20.248V31H160.806V19.744C160.806 17.952 160.456 16.58 159.756 15.628C159.056 14.676 157.978 14.2 156.522 14.2C155.094 14.2 153.932 14.732 153.036 15.796C152.168 16.86 151.734 18.344 151.734 20.248V31H146.358ZM192.474 31.504C190.682 31.504 189.212 31.224 188.064 30.664C186.916 30.076 186.062 29.306 185.502 28.354C184.942 27.402 184.662 26.352 184.662 25.204C184.662 23.272 185.418 21.704 186.93 20.5C188.442 19.296 190.71 18.694 193.734 18.694H199.026V18.19C199.026 16.762 198.62 15.712 197.808 15.04C196.996 14.368 195.988 14.032 194.784 14.032C193.692 14.032 192.74 14.298 191.928 14.83C191.116 15.334 190.612 16.09 190.416 17.098H185.166C185.306 15.586 185.81 14.27 186.678 13.15C187.574 12.03 188.722 11.176 190.122 10.588C191.522 9.972 193.09 9.664 194.826 9.664C197.794 9.664 200.132 10.406 201.84 11.89C203.548 13.374 204.402 15.474 204.402 18.19V31H199.824L199.32 27.64C198.704 28.76 197.836 29.684 196.716 30.412C195.624 31.14 194.21 31.504 192.474 31.504ZM193.692 27.304C195.232 27.304 196.422 26.8 197.262 25.792C198.13 24.784 198.676 23.538 198.9 22.054H194.322C192.894 22.054 191.872 22.32 191.256 22.852C190.64 23.356 190.332 23.986 190.332 24.742C190.332 25.554 190.64 26.184 191.256 26.632C191.872 27.08 192.684 27.304 193.692 27.304ZM209.132 31V0.759999H214.508V18.61L221.9 10.168H228.284L219.758 19.66L229.67 31H222.95L214.508 20.542V31H209.132ZM235.501 6.934C234.521 6.934 233.709 6.64 233.065 6.052C232.449 5.464 232.141 4.722 232.141 3.826C232.141 2.93 232.449 2.202 233.065 1.642C233.709 1.054 234.521 0.759999 235.501 0.759999C236.481 0.759999 237.279 1.054 237.895 1.642C238.539 2.202 238.861 2.93 238.861 3.826C238.861 4.722 238.539 5.464 237.895 6.052C237.279 6.64 236.481 6.934 235.501 6.934ZM232.813 31V10.168H238.189V31H232.813ZM243.401 31V10.168H248.147L248.567 13.696C249.211 12.464 250.135 11.484 251.339 10.756C252.571 10.028 254.013 9.664 255.665 9.664C258.241 9.664 260.243 10.476 261.671 12.1C263.099 13.724 263.813 16.104 263.813 19.24V31H258.437V19.744C258.437 17.952 258.073 16.58 257.345 15.628C256.617 14.676 255.483 14.2 253.943 14.2C252.431 14.2 251.185 14.732 250.205 15.796C249.253 16.86 248.777 18.344 248.777 20.248V31H243.401ZM277.373 24.784C276.365 24.784 275.427 24.672 274.559 24.448L273.005 26.002C273.481 26.254 274.125 26.464 274.937 26.632C275.749 26.8 277.065 26.968 278.885 27.136C281.657 27.388 283.673 28.046 284.933 29.11C286.193 30.174 286.823 31.644 286.823 33.52C286.823 34.752 286.487 35.914 285.815 37.006C285.143 38.126 284.107 39.022 282.707 39.694C281.307 40.394 279.515 40.744 277.331 40.744C274.363 40.744 271.969 40.184 270.149 39.064C268.329 37.972 267.419 36.32 267.419 34.108C267.419 32.232 268.329 30.608 270.149 29.236C269.589 28.984 269.099 28.718 268.679 28.438C268.287 28.158 267.937 27.864 267.629 27.556V26.59L271.283 22.726C269.659 21.298 268.847 19.464 268.847 17.224C268.847 15.824 269.183 14.55 269.855 13.402C270.555 12.254 271.535 11.344 272.795 10.672C274.055 10 275.581 9.664 277.373 9.664C278.549 9.664 279.641 9.832 280.649 10.168H288.545V13.444L284.975 13.696C285.535 14.76 285.815 15.936 285.815 17.224C285.815 18.624 285.479 19.898 284.807 21.046C284.135 22.194 283.155 23.104 281.867 23.776C280.607 24.448 279.109 24.784 277.373 24.784ZM277.373 20.668C278.465 20.668 279.361 20.374 280.061 19.786C280.789 19.198 281.153 18.358 281.153 17.266C281.153 16.174 280.789 15.334 280.061 14.746C279.361 14.158 278.465 13.864 277.373 13.864C276.225 13.864 275.301 14.158 274.601 14.746C273.901 15.334 273.551 16.174 273.551 17.266C273.551 18.358 273.901 19.198 274.601 19.786C275.301 20.374 276.225 20.668 277.373 20.668ZM272.333 33.562C272.333 34.598 272.809 35.368 273.761 35.872C274.741 36.404 275.931 36.67 277.331 36.67C278.675 36.67 279.767 36.39 280.607 35.83C281.447 35.298 281.867 34.57 281.867 33.646C281.867 32.89 281.587 32.26 281.027 31.756C280.495 31.252 279.417 30.944 277.793 30.832C276.645 30.748 275.581 30.622 274.601 30.454C273.789 30.902 273.201 31.392 272.837 31.924C272.501 32.456 272.333 33.002 272.333 33.562ZM305.747 31L299.657 10.168H304.991L308.603 25.162L312.803 10.168H318.767L322.967 25.162L326.621 10.168H331.955L325.823 31H320.237L315.785 15.418L311.333 31H305.747ZM344.331 31.504C342.231 31.504 340.369 31.056 338.745 30.16C337.121 29.264 335.847 28.004 334.923 26.38C333.999 24.756 333.537 22.88 333.537 20.752C333.537 18.596 333.985 16.678 334.881 14.998C335.805 13.318 337.065 12.016 338.661 11.092C340.285 10.14 342.189 9.664 344.373 9.664C346.417 9.664 348.223 10.112 349.791 11.008C351.359 11.904 352.577 13.136 353.445 14.704C354.341 16.244 354.789 17.966 354.789 19.87C354.789 20.178 354.775 20.5 354.747 20.836C354.747 21.172 354.733 21.522 354.705 21.886H338.871C338.983 23.51 339.543 24.784 340.551 25.708C341.587 26.632 342.833 27.094 344.289 27.094C345.381 27.094 346.291 26.856 347.019 26.38C347.775 25.876 348.335 25.232 348.699 24.448H354.159C353.767 25.764 353.109 26.968 352.185 28.06C351.289 29.124 350.169 29.964 348.825 30.58C347.509 31.196 346.011 31.504 344.331 31.504ZM344.373 14.032C343.057 14.032 341.895 14.41 340.887 15.166C339.879 15.894 339.235 17.014 338.955 18.526H349.329C349.245 17.154 348.741 16.062 347.817 15.25C346.893 14.438 345.745 14.032 344.373 14.032ZM371.258 31.504C369.69 31.504 368.318 31.21 367.142 30.622C365.966 30.034 365.014 29.208 364.286 28.144L363.698 31H358.91V0.759999H364.286V13.15C364.958 12.226 365.84 11.414 366.932 10.714C368.052 10.014 369.494 9.664 371.258 9.664C373.218 9.664 374.968 10.14 376.508 11.092C378.048 12.044 379.266 13.346 380.162 14.998C381.058 16.65 381.506 18.526 381.506 20.626C381.506 22.726 381.058 24.602 380.162 26.254C379.266 27.878 378.048 29.166 376.508 30.118C374.968 31.042 373.218 31.504 371.258 31.504ZM370.124 26.8C371.832 26.8 373.246 26.226 374.366 25.078C375.486 23.93 376.046 22.446 376.046 20.626C376.046 18.806 375.486 17.308 374.366 16.132C373.246 14.956 371.832 14.368 370.124 14.368C368.388 14.368 366.96 14.956 365.84 16.132C364.748 17.28 364.202 18.764 364.202 20.584C364.202 22.404 364.748 23.902 365.84 25.078C366.96 26.226 368.388 26.8 370.124 26.8ZM396.115 31.504C393.987 31.504 392.111 31.042 390.487 30.118C388.863 29.194 387.575 27.906 386.623 26.254C385.699 24.602 385.237 22.712 385.237 20.584C385.237 18.456 385.699 16.566 386.623 14.914C387.575 13.262 388.863 11.974 390.487 11.05C392.111 10.126 393.987 9.664 396.115 9.664C398.775 9.664 401.015 10.364 402.835 11.764C404.655 13.136 405.817 15.04 406.321 17.476H400.651C400.371 16.468 399.811 15.684 398.971 15.124C398.159 14.536 397.193 14.242 396.073 14.242C394.589 14.242 393.329 14.802 392.293 15.922C391.257 17.042 390.739 18.596 390.739 20.584C390.739 22.572 391.257 24.126 392.293 25.246C393.329 26.366 394.589 26.926 396.073 26.926C397.193 26.926 398.159 26.646 398.971 26.086C399.811 25.526 400.371 24.728 400.651 23.692H406.321C405.817 26.044 404.655 27.934 402.835 29.362C401.015 30.79 398.775 31.504 396.115 31.504ZM410.693 31V10.168H415.481L415.985 14.074C416.741 12.73 417.763 11.666 419.051 10.882C420.367 10.07 421.907 9.664 423.671 9.664V15.334H422.159C420.983 15.334 419.933 15.516 419.009 15.88C418.085 16.244 417.357 16.874 416.825 17.77C416.321 18.666 416.069 19.912 416.069 21.508V31H410.693ZM434.757 31.504C432.153 31.504 430.137 30.692 428.709 29.068C427.309 27.444 426.609 25.064 426.609 21.928V10.168H431.943V21.424C431.943 23.216 432.307 24.588 433.035 25.54C433.763 26.492 434.911 26.968 436.479 26.968C437.963 26.968 439.181 26.436 440.133 25.372C441.113 24.308 441.603 22.824 441.603 20.92V10.168H446.979V31H442.233L441.813 27.472C441.169 28.704 440.231 29.684 438.999 30.412C437.795 31.14 436.381 31.504 434.757 31.504ZM452.098 31V10.168H456.844L457.306 12.982C457.978 11.974 458.86 11.176 459.952 10.588C461.072 9.972 462.36 9.664 463.816 9.664C467.036 9.664 469.318 10.91 470.662 13.402C471.418 12.254 472.426 11.344 473.686 10.672C474.974 10 476.374 9.664 477.886 9.664C480.602 9.664 482.688 10.476 484.144 12.1C485.6 13.724 486.328 16.104 486.328 19.24V31H480.952V19.744C480.952 17.952 480.602 16.58 479.902 15.628C479.23 14.676 478.18 14.2 476.752 14.2C475.296 14.2 474.12 14.732 473.224 15.796C472.356 16.86 471.922 18.344 471.922 20.248V31H466.546V19.744C466.546 17.952 466.196 16.58 465.496 15.628C464.796 14.676 463.718 14.2 462.262 14.2C460.834 14.2 459.672 14.732 458.776 15.796C457.908 16.86 457.474 18.344 457.474 20.248V31H452.098ZM503.38 31.504C501.812 31.504 500.44 31.21 499.264 30.622C498.088 30.034 497.136 29.208 496.408 28.144L495.82 31H491.032V0.759999H496.408V13.15C497.08 12.226 497.962 11.414 499.054 10.714C500.174 10.014 501.616 9.664 503.38 9.664C505.34 9.664 507.09 10.14 508.63 11.092C510.17 12.044 511.388 13.346 512.284 14.998C513.18 16.65 513.628 18.526 513.628 20.626C513.628 22.726 513.18 24.602 512.284 26.254C511.388 27.878 510.17 29.166 508.63 30.118C507.09 31.042 505.34 31.504 503.38 31.504ZM502.246 26.8C503.954 26.8 505.368 26.226 506.488 25.078C507.608 23.93 508.168 22.446 508.168 20.626C508.168 18.806 507.608 17.308 506.488 16.132C505.368 14.956 503.954 14.368 502.246 14.368C500.51 14.368 499.082 14.956 497.962 16.132C496.87 17.28 496.324 18.764 496.324 20.584C496.324 22.404 496.87 23.902 497.962 25.078C499.082 26.226 500.51 26.8 502.246 26.8ZM526.64 31.504C524.792 31.504 523.168 31.21 521.768 30.622C520.368 30.006 519.248 29.166 518.408 28.102C517.568 27.038 517.064 25.806 516.896 24.406H522.314C522.482 25.218 522.93 25.918 523.658 26.506C524.414 27.066 525.38 27.346 526.556 27.346C527.732 27.346 528.586 27.108 529.118 26.632C529.678 26.156 529.958 25.61 529.958 24.994C529.958 24.098 529.566 23.496 528.782 23.188C527.998 22.852 526.906 22.53 525.506 22.222C524.61 22.026 523.7 21.788 522.776 21.508C521.852 21.228 520.998 20.878 520.214 20.458C519.458 20.01 518.842 19.45 518.366 18.778C517.89 18.078 517.652 17.224 517.652 16.216C517.652 14.368 518.38 12.814 519.836 11.554C521.32 10.294 523.392 9.664 526.052 9.664C528.516 9.664 530.476 10.238 531.932 11.386C533.416 12.534 534.298 14.116 534.578 16.132H529.496C529.188 14.592 528.026 13.822 526.01 13.822C525.002 13.822 524.218 14.018 523.658 14.41C523.126 14.802 522.86 15.292 522.86 15.88C522.86 16.496 523.266 16.986 524.078 17.35C524.89 17.714 525.968 18.05 527.312 18.358C528.768 18.694 530.098 19.072 531.302 19.492C532.534 19.884 533.514 20.486 534.242 21.298C534.97 22.082 535.334 23.216 535.334 24.7C535.362 25.988 535.026 27.15 534.326 28.186C533.626 29.222 532.618 30.034 531.302 30.622C529.986 31.21 528.432 31.504 526.64 31.504Z" fill="#1E0E62"/>
</svg>
