<svg width="231" height="543" viewBox="0 0 231 543" fill="none" xmlns="http://www.w3.org/2000/svg">
<g clip-path="url(#clip0_184_898)">
<g opacity="0.05">
<g clip-path="url(#clip1_184_898)">
<path d="M-62.032 467.965C-147.544 468.095 -228.126 395.944 -243.303 304.206C-260.781 198.654 -191.58 98.7442 -86.1258 78.5743C-37.8734 69.3648 7.49283 78.1851 50.2 102.344C64.6952 110.548 66.3166 127.702 55.8425 138.371C42.2877 152.185 36.3534 169.145 37.7154 188.601C39.1422 208.998 48.6435 224.823 64.6628 237.048C67.1597 238.961 69.9161 240.485 72.5751 242.172C87.1027 251.316 87.1351 270.189 72.3805 279.139C63.5602 284.49 55.7452 290.781 49.7461 299.212C29.6085 327.456 34.5699 365.818 61.2903 388.031C63.3332 389.718 65.4086 391.436 67.6786 392.798C80.0011 400.224 81.3306 419.486 67.9056 428.987C55.81 437.516 43.3254 445.331 29.7706 451.298C4.44465 462.453 -22.0812 468.128 -62.032 467.998V467.965ZM-48.4124 173.749C-48.2179 159.481 -60.1188 147.224 -74.4518 146.964C-88.6227 146.705 -101.01 158.768 -101.237 173.036C-101.464 187.142 -89.3361 199.627 -75.1652 199.886C-61.0592 200.145 -48.607 187.953 -48.4124 173.749ZM-149.068 218.046C-163.433 218.11 -175.529 230.206 -175.367 244.442C-175.205 258.58 -162.72 270.87 -148.679 270.708C-134.443 270.546 -122.38 258.288 -122.477 244.053C-122.574 229.655 -134.475 217.981 -149.035 218.046H-149.068ZM-124.39 367.018C-110.187 367.148 -97.9294 355.052 -97.8321 340.784C-97.7349 326.451 -109.701 314.291 -124.001 314.161C-138.172 314.031 -150.527 326.159 -150.657 340.395C-150.819 354.469 -138.529 366.888 -124.39 367.018ZM-7.48872 387.415C-6.6456 375.871 -16.1145 361.408 -33.5281 360.922C-47.699 360.533 -59.7621 372.952 -59.8594 387.318C-59.9567 401.683 -48.0557 413.617 -33.593 413.649C-19.0005 413.682 -7.48872 402.105 -7.48872 387.415ZM-44.813 248.592C-59.4378 248.592 -71.0469 260.104 -71.0793 274.729C-71.1118 289.127 -59.146 301.222 -44.8778 301.222C-30.6421 301.222 -18.4817 289.03 -18.4493 274.794C-18.4493 260.331 -30.2205 248.625 -44.813 248.592Z" fill="#3A57E8"/>
<path d="M164.508 333.164C164.41 349.767 151.569 362.154 134.707 361.927C119.044 361.732 105.814 348.859 106.073 333.196C106.365 315.653 118.687 304.011 135.388 303.46C151.472 302.909 164.605 316.658 164.508 333.164Z" fill="#3A57E8"/>
<path d="M206.015 283.484C192.168 283.419 181.045 272.167 181.24 258.45C181.434 244.701 192.979 233.319 206.404 233.643C220.38 234 231.308 245.155 231.146 258.839C230.984 272.718 219.958 283.549 205.982 283.452L206.015 283.484Z" fill="#3A57E8"/>
<path d="M131.074 209.712C117.098 209.777 105.975 198.946 105.91 185.164C105.846 171.415 116.903 160.422 130.847 160.389C145.018 160.357 155.784 170.961 155.784 184.969C155.784 199.14 145.278 209.647 131.074 209.712Z" fill="#3A57E8"/>
</g>
</g>
</g>
<defs>
<clipPath id="clip0_184_898">
<rect width="231" height="543" fill="white"/>
</clipPath>
<clipPath id="clip1_184_898">
<rect x="-312" width="543" height="543" fill="white"/>
</clipPath>
</defs>
</svg>
