<svg width="24" height="25" viewBox="0 0 24 25" fill="none" xmlns="http://www.w3.org/2000/svg">
<path opacity="0.4" d="M16.0756 2.01318H19.4616C20.8639 2.01318 22.0001 3.15904 22.0001 4.57315V7.98771C22.0001 9.40182 20.8639 10.5477 19.4616 10.5477H16.0756C14.6734 10.5477 13.5371 9.40182 13.5371 7.98771V4.57315C13.5371 3.15904 14.6734 2.01318 16.0756 2.01318Z" fill="#8A92A6"/>
<path fill-rule="evenodd" clip-rule="evenodd" d="M4.53852 2.01318H7.92449C9.32676 2.01318 10.463 3.15904 10.463 4.57315V7.98771C10.463 9.40182 9.32676 10.5477 7.92449 10.5477H4.53852C3.13626 10.5477 2 9.40182 2 7.98771V4.57315C2 3.15904 3.13626 2.01318 4.53852 2.01318ZM4.53852 13.4787H7.92449C9.32676 13.4787 10.463 14.6245 10.463 16.0387V19.4532C10.463 20.8664 9.32676 22.0132 7.92449 22.0132H4.53852C3.13626 22.0132 2 20.8664 2 19.4532V16.0387C2 14.6245 3.13626 13.4787 4.53852 13.4787ZM19.4615 13.4787H16.0755C14.6732 13.4787 13.537 14.6245 13.537 16.0387V19.4532C13.537 20.8664 14.6732 22.0132 16.0755 22.0132H19.4615C20.8637 22.0132 22 20.8664 22 19.4532V16.0387C22 14.6245 20.8637 13.4787 19.4615 13.4787Z" fill="#8A92A6"/>
</svg>
