<svg width="24" height="25" viewBox="0 0 24 25" fill="none" xmlns="http://www.w3.org/2000/svg">
<path opacity="0.4" d="M11.9912 18.6349L5.49945 21.8775C5.00921 22.1436 4.39768 21.9659 4.12348 21.4777C4.0434 21.3242 4.00106 21.1536 4 20.9802V13.7222C4 14.4418 4.40573 14.8859 5.47299 15.3834L11.9912 18.6349Z" fill="#8A92A6"/>
<path fill-rule="evenodd" clip-rule="evenodd" d="M8.89526 2.01318H15.0695C17.7773 2.01318 19.9735 3.07924 20 5.80655V20.98C19.9989 21.1506 19.9565 21.3183 19.8765 21.4686C19.7479 21.7138 19.5259 21.8959 19.2615 21.9729C18.997 22.05 18.7128 22.0155 18.4741 21.8773L11.9912 18.6347L5.47299 15.3833C4.40573 14.8858 4 14.4416 4 13.722V5.80655C4 3.07924 6.19625 2.01318 8.89526 2.01318ZM8.22492 9.63545H15.7486C16.1822 9.63545 16.5336 9.28147 16.5336 8.8448C16.5336 8.40813 16.1822 8.05414 15.7486 8.05414H8.22492C7.79137 8.05414 7.43991 8.40813 7.43991 8.8448C7.43991 9.28147 7.79137 9.63545 8.22492 9.63545Z" fill="#8A92A6"/>
</svg>
