<svg width="179" height="31" viewBox="0 0 179 31" fill="none" xmlns="http://www.w3.org/2000/svg">
<path d="M13.2552 29.4975C7.09396 29.5068 1.28783 24.3662 0.194356 17.8302C-1.065 10.3099 3.92103 3.1917 11.5192 1.75465C14.996 1.09851 18.2647 1.72693 21.3418 3.44815C22.3861 4.03267 22.503 5.25486 21.7483 6.01497C20.7717 6.99919 20.3441 8.20751 20.4422 9.59373C20.5451 11.0469 21.2296 12.1744 22.3838 13.0454C22.5637 13.1817 22.7623 13.2903 22.954 13.4105C24.0007 14.062 24.003 15.4066 22.9399 16.0443C22.3044 16.4255 21.7413 16.8737 21.3091 17.4744C19.8581 19.4867 20.2156 22.2199 22.1409 23.8025C22.288 23.9226 22.4376 24.0451 22.6011 24.1421C23.4889 24.6712 23.5848 26.0435 22.6175 26.7205C21.746 27.3281 20.8464 27.8849 19.8698 28.31C18.045 29.1048 16.1338 29.5091 13.2552 29.4998V29.4975ZM14.2366 8.53558C14.2505 7.51902 13.393 6.6457 12.3604 6.62722C11.3393 6.60873 10.4468 7.46819 10.4304 8.48475C10.4141 9.48976 11.2879 10.3793 12.3089 10.3977C13.3253 10.4162 14.2225 9.54752 14.2366 8.53558ZM6.98414 11.6915C5.94909 11.6962 5.07758 12.5579 5.08926 13.5722C5.10094 14.5795 6.00049 15.4551 7.01218 15.4436C8.03789 15.432 8.90706 14.5587 8.90005 13.5445C8.89304 12.5187 8.03555 11.6869 6.98648 11.6915H6.98414ZM8.7622 22.3054C9.78557 22.3146 10.6688 21.4528 10.6758 20.4363C10.6828 19.4151 9.82062 18.5487 8.79023 18.5395C7.7692 18.5302 6.879 19.3943 6.86965 20.4086C6.85797 21.4113 7.7435 22.2961 8.7622 22.3054ZM17.1852 23.7586C17.2459 22.9361 16.5637 21.9057 15.3089 21.871C14.2879 21.8433 13.4188 22.7282 13.4118 23.7517C13.4048 24.7751 14.2623 25.6254 15.3043 25.6277C16.3557 25.63 17.1852 24.8052 17.1852 23.7586ZM14.4959 13.8679C13.4422 13.8679 12.6057 14.6881 12.6033 15.7301C12.601 16.7559 13.4632 17.6176 14.4912 17.6176C15.517 17.6176 16.3932 16.7489 16.3955 15.7347C16.3955 14.7043 15.5473 13.8702 14.4959 13.8679Z" fill="#182FFF"/>
<path d="M29.5778 19.8932C29.5708 21.0762 28.6455 21.9587 27.4306 21.9425C26.3021 21.9287 25.3487 21.0115 25.3675 19.8956C25.3885 18.6456 26.2763 17.8162 27.4797 17.777C28.6385 17.7377 29.5848 18.7173 29.5778 19.8932Z" fill="#182FFF"/>
<path d="M32.5684 16.3538C31.5708 16.3491 30.7693 15.5474 30.7834 14.5702C30.7974 13.5906 31.6291 12.7796 32.5964 12.8027C33.6035 12.8281 34.3909 13.6229 34.3792 14.5979C34.3675 15.5867 33.5732 16.3584 32.5661 16.3514L32.5684 16.3538Z" fill="#182FFF"/>
<path d="M27.169 11.0976C26.162 11.1022 25.3606 10.3305 25.3559 9.34861C25.3512 8.36902 26.1479 7.58581 27.1526 7.5835C28.1736 7.58118 28.9494 8.33667 28.9494 9.33475C28.9494 10.3444 28.1923 11.093 27.169 11.0976Z" fill="#182FFF"/>
<path d="M47.077 22.2968L43.1813 9.20593H45.8445L48.4388 18.8195H48.5682L51.171 9.20593H53.8344L56.4201 18.7769H56.5493L59.1264 9.20593H61.7897L57.9026 22.2968H55.2737L52.5846 12.8451H52.3863L49.6972 22.2968H47.077ZM69.5383 22.561C68.2339 22.561 67.1105 22.2854 66.1682 21.7343C65.2315 21.1775 64.5076 20.3962 63.9961 19.3906C63.4905 18.3792 63.2377 17.1945 63.2377 15.8366C63.2377 14.4957 63.4905 13.3138 63.9961 12.2911C64.5076 11.2684 65.2201 10.4701 66.1337 9.89623C67.0531 9.32243 68.1276 9.03543 69.3572 9.03543C70.1042 9.03543 70.8282 9.15763 71.5292 9.40193C72.2302 9.64623 72.8595 10.0298 73.4168 10.5525C73.9741 11.0752 74.4137 11.7542 74.7355 12.5894C75.0573 13.419 75.2181 14.4275 75.2181 15.615V16.5184H64.6943V14.6093H72.6928C72.6928 13.9388 72.5549 13.3451 72.2791 12.828C72.0033 12.3053 71.6154 11.8934 71.1155 11.5923C70.6214 11.2911 70.041 11.1406 69.3744 11.1406C68.6505 11.1406 68.0184 11.3167 67.4783 11.669C66.9439 12.0155 66.5302 12.4701 66.2372 13.0326C65.9499 13.5894 65.8062 14.1945 65.8062 14.8479V16.3394C65.8062 17.2144 65.9613 17.9587 66.2716 18.5724C66.5877 19.186 67.0272 19.6548 67.5903 19.9786C68.1534 20.2968 68.8113 20.4559 69.5641 20.4559C70.0525 20.4559 70.4978 20.3877 70.9001 20.2513C71.3023 20.1093 71.6499 19.8991 71.9429 19.6207C72.236 19.3423 72.4601 18.9985 72.6152 18.5894L75.0544 19.0241C74.859 19.7343 74.5085 20.3565 74.0029 20.8906C73.503 21.419 72.8738 21.8309 72.1154 22.1263C71.3625 22.4161 70.5036 22.561 69.5383 22.561ZM78.2844 22.2968V4.84229H80.8615V11.328H81.0166C81.166 11.0553 81.3815 10.74 81.663 10.382C81.9446 10.0241 82.3353 9.71164 82.8352 9.44454C83.3351 9.17184 83.9959 9.03543 84.8176 9.03543C85.8863 9.03543 86.8402 9.30253 87.6792 9.83663C88.518 10.3707 89.176 11.1405 89.6529 12.1462C90.1356 13.1519 90.3769 14.3621 90.3769 15.7769C90.3769 17.1917 90.1384 18.4048 89.6615 19.4161C89.1846 20.4218 88.5296 21.1974 87.6963 21.7428C86.8632 22.2826 85.9122 22.5525 84.8435 22.5525C84.039 22.5525 83.3811 22.419 82.8697 22.1519C82.3641 21.8849 81.9675 21.5724 81.6803 21.2144C81.393 20.8565 81.1718 20.5383 81.0166 20.2599H80.8011V22.2968H78.2844ZM80.8098 15.7513C80.8098 16.6718 80.9448 17.4786 81.2148 18.1718C81.485 18.865 81.8756 19.4076 82.387 19.7996C82.8984 20.186 83.5247 20.3792 84.266 20.3792C85.0359 20.3792 85.6795 20.1775 86.1967 19.7741C86.7138 19.365 87.1045 18.811 87.3689 18.1121C87.6389 17.4133 87.7739 16.6263 87.7739 15.7513C87.7739 14.8877 87.6417 14.1121 87.3775 13.4246C87.1189 12.7371 86.7281 12.1945 86.2053 11.7968C85.6881 11.3991 85.0417 11.2002 84.266 11.2002C83.519 11.2002 82.8869 11.3905 82.3698 11.7712C81.8584 12.1519 81.4706 12.6832 81.2062 13.365C80.9419 14.0468 80.8098 14.8423 80.8098 15.7513ZM98.8472 22.561C97.5659 22.561 96.4626 22.2741 95.5376 21.7002C94.6182 21.1207 93.9114 20.3224 93.4173 19.3053C92.923 18.2883 92.676 17.1235 92.676 15.811C92.676 14.4815 92.9288 13.3082 93.4345 12.2911C93.9401 11.2684 94.6527 10.4701 95.5721 9.89623C96.4914 9.32243 97.5745 9.03543 98.8214 9.03543C99.8269 9.03543 100.723 9.22013 101.51 9.58943C102.298 9.95303 102.933 10.4644 103.415 11.1235C103.904 11.7826 104.194 12.5525 104.286 13.4332H101.778C101.64 12.8195 101.324 12.2911 100.83 11.8479C100.341 11.4048 99.6861 11.1832 98.8644 11.1832C98.1462 11.1832 97.5171 11.3707 96.9769 11.7457C96.4426 12.115 96.0259 12.6434 95.7272 13.3309C95.4283 14.0127 95.279 14.8195 95.279 15.7513C95.279 16.7059 95.4255 17.5298 95.7185 18.2229C96.0116 18.9161 96.4253 19.453 96.9597 19.8337C97.4998 20.2144 98.1348 20.4048 98.8644 20.4048C99.3529 20.4048 99.7953 20.3167 100.192 20.1406C100.594 19.9587 100.93 19.7002 101.201 19.365C101.476 19.0298 101.669 18.6263 101.778 18.1548H104.286C104.194 19.0013 103.915 19.757 103.45 20.4218C102.985 21.0866 102.361 21.6093 101.58 21.99C100.804 22.3707 99.893 22.561 98.8472 22.561ZM107.042 22.2968V9.20593H109.533V11.2854H109.67C109.912 10.5809 110.337 10.0269 110.947 9.62353C111.561 9.21443 112.256 9.00994 113.032 9.00994C113.193 9.00994 113.383 9.01553 113.601 9.02693C113.825 9.03833 114.001 9.05253 114.127 9.06953V11.507C114.023 11.4786 113.839 11.4474 113.575 11.4133C113.311 11.3735 113.046 11.3536 112.782 11.3536C112.173 11.3536 111.63 11.4815 111.153 11.7371C110.682 11.9871 110.308 12.3366 110.032 12.7854C109.757 13.2286 109.619 13.7343 109.619 14.3025V22.2968H107.042ZM124.743 16.8678V9.20593H127.329V22.2968H124.795V20.0298H124.657C124.352 20.7286 123.864 21.311 123.191 21.7769C122.525 22.2371 121.695 22.4673 120.701 22.4673C119.85 22.4673 119.098 22.2826 118.442 21.9133C117.793 21.5383 117.282 20.9843 116.908 20.2513C116.541 19.5184 116.357 18.6121 116.357 17.5326V9.20593H118.934V17.2258C118.934 18.1178 119.184 18.828 119.684 19.3565C120.184 19.8849 120.833 20.1491 121.632 20.1491C122.114 20.1491 122.594 20.0298 123.071 19.7911C123.553 19.5525 123.953 19.1917 124.269 18.7087C124.591 18.2258 124.749 17.6121 124.743 16.8678ZM130.791 22.2968V9.20593H133.265V11.3366H133.429C133.705 10.615 134.156 10.0525 134.782 9.64913C135.409 9.24003 136.158 9.03543 137.032 9.03543C137.917 9.03543 138.658 9.24003 139.256 9.64913C139.859 10.0582 140.305 10.6207 140.592 11.3366H140.729C141.045 10.6377 141.548 10.0809 142.237 9.66613C142.927 9.24573 143.749 9.03543 144.703 9.03543C145.903 9.03543 146.883 9.40763 147.642 10.1519C148.406 10.8962 148.788 12.0184 148.788 13.5184V22.2968H146.211V13.757C146.211 12.8707 145.967 12.2286 145.478 11.8309C144.99 11.4332 144.406 11.2343 143.729 11.2343C142.889 11.2343 142.237 11.49 141.772 12.0013C141.307 12.507 141.074 13.1576 141.074 13.953V22.2968H138.505V13.5951C138.505 12.8849 138.282 12.3138 137.833 11.882C137.385 11.4502 136.801 11.2343 136.083 11.2343C135.595 11.2343 135.144 11.3621 134.73 11.6178C134.323 11.8678 133.992 12.2173 133.739 12.6661C133.492 13.115 133.369 13.6349 133.369 14.2258V22.2968H130.791ZM152.449 22.2968V4.84229H155.026V11.328H155.181C155.33 11.0553 155.546 10.74 155.828 10.382C156.109 10.0241 156.5 9.71164 157 9.44454C157.5 9.17184 158.16 9.03543 158.982 9.03543C160.051 9.03543 161.005 9.30253 161.844 9.83663C162.683 10.3707 163.341 11.1405 163.817 12.1462C164.3 13.1519 164.541 14.3621 164.541 15.7769C164.541 17.1917 164.303 18.4048 163.826 19.4161C163.349 20.4218 162.694 21.1974 161.861 21.7428C161.028 22.2826 160.076 22.5525 159.009 22.5525C158.204 22.5525 157.546 22.419 157.034 22.1519C156.529 21.8849 156.132 21.5724 155.845 21.2144C155.558 20.8565 155.337 20.5383 155.181 20.2599H154.965V22.2968H152.449ZM154.974 15.7513C154.974 16.6718 155.109 17.4786 155.379 18.1718C155.65 18.865 156.04 19.4076 156.552 19.7996C157.063 20.186 157.69 20.3792 158.431 20.3792C159.201 20.3792 159.844 20.1775 160.362 19.7741C160.878 19.365 161.269 18.811 161.534 18.1121C161.804 17.4133 161.938 16.6263 161.938 15.7513C161.938 14.8877 161.807 14.1121 161.542 13.4246C161.284 12.7371 160.893 12.1945 160.37 11.7968C159.853 11.3991 159.207 11.2002 158.431 11.2002C157.684 11.2002 157.052 11.3905 156.535 11.7712C156.023 12.1519 155.635 12.6832 155.371 13.365C155.107 14.0468 154.974 14.8423 154.974 15.7513ZM177.356 12.4019L175.02 12.811C174.922 12.5155 174.768 12.2343 174.554 11.9673C174.348 11.7002 174.066 11.4815 173.71 11.311C173.354 11.1405 172.909 11.0553 172.374 11.0553C171.645 11.0553 171.035 11.2173 170.546 11.5411C170.058 11.8593 169.814 12.2712 169.814 12.7769C169.814 13.2144 169.978 13.5667 170.306 13.8337C170.633 14.1008 171.161 14.3195 171.891 14.49L173.994 14.9673C175.213 15.2457 176.121 15.6746 176.718 16.2542C177.316 16.8337 177.614 17.5866 177.614 18.5127C177.614 19.2968 177.385 19.9957 176.925 20.6093C176.471 21.2173 175.836 21.6945 175.02 22.0411C174.209 22.3877 173.271 22.561 172.202 22.561C170.719 22.561 169.51 22.2485 168.573 21.6235C167.636 20.9928 167.062 20.0979 166.849 18.9388L169.34 18.5638C169.496 19.2059 169.814 19.6917 170.297 20.0212C170.779 20.3451 171.409 20.507 172.185 20.507C173.029 20.507 173.704 20.3337 174.209 19.9871C174.715 19.6349 174.968 19.2059 174.968 18.7002C174.968 18.2911 174.813 17.9474 174.503 17.669C174.198 17.3905 173.73 17.1803 173.098 17.0383L170.857 16.5525C169.622 16.2741 168.708 15.8309 168.116 15.2229C167.53 14.615 167.237 13.8451 167.237 12.9133C167.237 12.1405 167.456 11.4644 167.892 10.8849C168.329 10.3053 168.932 9.85363 169.702 9.52983C170.472 9.20023 171.354 9.03543 172.349 9.03543C173.779 9.03543 174.905 9.34233 175.726 9.95593C176.549 10.5638 177.092 11.3792 177.356 12.4019Z" fill="#232D42"/>
</svg>
