<svg id="Layer_1" enable-background="new 0 0 512 512" viewBox="0 0 512 512" xmlns="http://www.w3.org/2000/svg"><circle cx="256" cy="256" fill="#f0f0f0" r="256"/><g fill="#6da544"><path d="m435.138 73.144c-46.173-45.24-109.391-73.144-179.138-73.144-22.261 0-87.394 27.904-133.565 73.144z"/><path d="m256 219.429h253.388c-3.694-25.825-11.237-50.405-22.038-73.143h-242.48z"/><path d="m24.651 365.715h462.698c10.802-22.737 18.345-47.319 22.039-73.144h-506.776c3.695 25.826 11.236 50.408 22.039 73.144z"/><path d="m76.862 438.856c46.173 45.24 109.391 73.144 179.138 73.144s132.965-27.904 179.138-73.144z"/></g><path d="m256 0c-128.966 0-235.64 95.371-253.388 219.429h253.388z" fill="#d80027"/><g fill="#f0f0f0"><path d="m128 196.267-11.13-22.26v-44.522l27.826-22.261 27.826 22.261v33.391l11.13-11.13v22.261l-22.261 22.26z"/><path d="m68.135 128 2.947 9.07h9.536l-7.715 5.607 2.948 9.069-7.716-5.606-7.716 5.606 2.948-9.069-7.715-5.607h9.536z"/><path d="m90.396 105.739 2.947 9.07h9.537l-7.716 5.607 2.947 9.069-7.715-5.605-7.715 5.605 2.948-9.069-7.716-5.607h9.535z"/><path d="m112.657 83.478 2.947 9.07h9.535l-7.714 5.607 2.946 9.069-7.714-5.605-7.716 5.605 2.947-9.069-7.714-5.607h9.535z"/><path d="m221.256 128-2.947 9.07h-9.535l7.714 5.607-2.947 9.069 7.715-5.606 7.716 5.606-2.947-9.069 7.714-5.607h-9.535z"/><path d="m198.995 105.739-2.947 9.07h-9.535l7.714 5.607-2.947 9.069 7.715-5.605 7.716 5.605-2.948-9.069 7.715-5.607h-9.535z"/><path d="m176.735 83.478-2.948 9.07h-9.535l7.714 5.607-2.947 9.069 7.716-5.605 7.715 5.605-2.947-9.069 7.714-5.607h-9.535z"/><path d="m144.696 72.348-2.948 9.07h-9.535l7.714 5.606-2.947 9.069 7.716-5.605 7.715 5.605-2.947-9.069 7.714-5.606h-9.535z"/></g><g/><g/><g/><g/><g/><g/><g/><g/><g/><g/><g/><g/><g/><g/><g/></svg>