<svg id="Layer_1" enable-background="new 0 0 512 512" viewBox="0 0 512 512" xmlns="http://www.w3.org/2000/svg"><circle cx="256" cy="256" fill="#f0f0f0" r="256"/><g fill="#0052b4"><path d="m380.196 32.112c-36.784-20.448-79.126-32.112-124.196-32.112-141.374 0-255.982 114.598-256 255.97l178.087-89.013z"/><path d="m0 256.03c.018 141.372 114.626 255.97 256 255.97 45.07 0 87.412-11.662 124.196-32.112l-202.109-134.845z"/></g><path d="m401.53 45.382c-6.876-4.759-14.001-9.185-21.343-13.266l-380.187 223.854v.03s0 .021 0 .03l380.188 223.853c7.342-4.082 14.466-8.507 21.343-13.266l-357.709-210.617z" fill="#d80027"/><path d="m445.217 246.453h-30.494c7.929-9.52 7.44-23.683-1.493-32.614 9.462-9.461 9.462-24.802 0-34.265l-.57.572c9.461-9.461 10.032-25.374.57-34.835l-137.056 137.056c9.462 9.463 24.534 9.35 33.995-.112l2.638-2.411 65.628-5.966v28.226h22.261v-30.25l33.391-3.035z" fill="#a2001d"/><path d="m278.269 311.652-22.269-11.13 22.269-11.131h144.695v22.261z" fill="#ffda44"/><g/><g/><g/><g/><g/><g/><g/><g/><g/><g/><g/><g/><g/><g/><g/></svg>