<svg id="Layer_1" enable-background="new 0 0 512 512" viewBox="0 0 512 512" xmlns="http://www.w3.org/2000/svg"><path d="m0 256c0-141.384 114.616-256 256-256s256 114.616 256 256c-11.13 0-256 33.391-256 33.391z" fill="#d80027"/><path d="m512 256c0 141.384-114.616 256-256 256s-256-114.616-256-256"/><g fill="#ffda44"><path d="m220.898 203.612 21.702 15.75-8.27 25.508 21.686-15.776 21.704 15.75-8.302-25.5 21.684-15.774-26.815.016-8.303-25.499-8.271 25.508z"/><path d="m320 145.149c-20.173-11.647-42.23-17.144-64-17.106v33.384c16.091-.029 32.393 4.031 47.304 12.641 45.178 26.084 60.713 84.06 34.628 129.238-26.083 45.178-84.058 60.713-129.237 34.629-13.162-7.599-23.787-17.917-31.619-29.824l-27.876 18.404c10.597 16.109 24.993 30.056 42.8 40.336 61.124 35.29 139.561 14.273 174.85-46.851 35.29-61.124 14.274-139.561-46.85-174.851z"/><path d="m182.19 233.739c-8.85 16.179-2.908 36.47 13.27 45.32l108.449 59.26c-7.375 13.481-3.458 29.89 10.023 37.265l29.295 16.025c13.481 7.376 30.392 2.424 37.767-11.058l16.025-29.294z"/></g><g/><g/><g/><g/><g/><g/><g/><g/><g/><g/><g/><g/><g/><g/><g/></svg>