<svg id="Layer_1" enable-background="new 0 0 512 512" viewBox="0 0 512 512" xmlns="http://www.w3.org/2000/svg"><path d="m512 256c0 141.384-114.616 256-256 256s-256-114.616-256-256c0 .06 256-255.971 256-256 141.384 0 256 114.616 256 256z" fill="#0052b4"/><g fill="#f0f0f0"><path d="m256 0c-.014 0-.029.001-.043.001z"/><path d="m255.315 256h.685c0-.232 0-.454 0-.685-.228.229-.456.457-.685.685z"/><path d="m256 133.566c0-45.045 0-74.562 0-133.565h-.043c-141.365.023-255.957 114.628-255.957 255.999h133.565v-75.212l75.212 75.212h46.539c.229-.228.457-.456.685-.685 0-17.247 0-32.636 0-46.536l-75.213-75.213z"/></g><g fill="#d80027"><path d="m129.515 33.391c-40.039 22.799-73.325 56.085-96.124 96.124v126.485h66.783v-155.825-.001h155.826c0-21.063 0-41.129 0-66.783z"/><path d="m256 224.519-90.953-90.952h-31.481c0-.001 0 0 0 0l122.433 122.433h.001s0-21.705 0-31.481z"/></g><g fill="#f0f0f0"><path d="m154.395 300.522 14.05 29.378 31.727-7.333-14.208 29.302 25.514 20.233-31.767 7.16.089 32.564-25.405-20.373-25.404 20.373.089-32.564-31.768-7.16 25.515-20.233-14.21-29.302 31.729 7.333z"/><path d="m383.284 356.174 7.025 14.689 15.864-3.667-7.105 14.651 12.758 10.117-15.884 3.58.044 16.282-12.702-10.187-12.702 10.187.044-16.282-15.883-3.58 12.757-10.117-7.104-14.651 15.863 3.667z"/><path d="m317.933 200.348 7.024 14.69 15.864-3.668-7.104 14.651 12.757 10.117-15.883 3.58.043 16.282-12.701-10.187-12.702 10.187.043-16.282-15.883-3.58 12.757-10.117-7.104-14.651 15.864 3.668z"/><path d="m383.284 111.304 7.025 14.69 15.864-3.667-7.104 14.651 12.756 10.116-15.883 3.581.044 16.282-12.702-10.187-12.702 10.187.044-16.282-15.883-3.581 12.756-10.116-7.103-14.651 15.863 3.667z"/><path d="m440.368 178.087 7.024 14.69 15.864-3.668-7.104 14.651 12.757 10.117-15.884 3.581.044 16.281-12.701-10.186-12.702 10.186.043-16.281-15.883-3.581 12.757-10.117-7.104-14.651 15.863 3.668z"/><path d="m399.55 256 5.525 17.006h17.882l-14.467 10.511 5.527 17.005-14.467-10.51-14.466 10.51 5.525-17.005-14.466-10.511h17.881z"/></g><g/><g/><g/><g/><g/><g/><g/><g/><g/><g/><g/><g/><g/><g/><g/></svg>