<svg id="Layer_1" enable-background="new 0 0 512 512" viewBox="0 0 512 512" xmlns="http://www.w3.org/2000/svg"><circle cx="256" cy="256" fill="#fcfcfc" r="256"/><g fill="#a2001d"><path d="m105.739 237.449-27.826-50.483 27.826-49.691 27.826 49.691z"/><path d="m50.087 237.449-27.826-50.483 27.826-49.691 27.826 49.691z"/><path d="m105.739 374.725-27.826-50.483 27.826-49.691 27.826 49.691z"/><path d="m50.087 374.725-27.826-50.483 27.826-49.691 27.826 49.691z"/><path d="m133.565 49.692-7.878-14.068c-14.13 8.372-27.383 18.065-39.594 28.909l19.646 35.641z"/><path d="m105.739 411.826-19.854 35.456c12.2 10.858 25.444 20.566 39.568 28.955l8.113-14.719z"/></g><path d="m155.826 322.783v168.863c30.769 13.097 64.622 20.354 100.174 20.354 110.071 0 203.906-69.472 240.077-166.957z" fill="#6da544"/><path d="m496.077 345.043c10.291-27.733 15.923-57.729 15.923-89.043 0-141.384-114.616-256-256-256-35.549 0-69.405 7.253-100.174 20.348v324.696h340.251z" fill="#a2001d"/><g/><g/><g/><g/><g/><g/><g/><g/><g/><g/><g/><g/><g/><g/><g/></svg>