<svg id="Layer_1" enable-background="new 0 0 512 512" viewBox="0 0 512 512" xmlns="http://www.w3.org/2000/svg"><path d="m512 256c0 141.384-114.616 256-256 256s-256-114.616-256-256c0 .061 256-255.972 256-256 141.384 0 256 114.616 256 256z" fill="#d80027"/><g fill="#0052b4"><path d="m256 122.435v86.343l-89.043-86.343z"/><path d="m133.565 256h75.211l-75.211-100.174-11.13 77.913z"/></g><g fill="#f0f0f0"><path d="m256 0c-.016 0-.028 0-.043 0z"/><path d="m255.315 256h.685c0-.23 0-.454 0-.685-.228.229-.456.457-.685.685z"/><path d="m256 133.565c0-45.045 0-74.56 0-133.565h-.043c-141.366.024-255.957 114.629-255.957 256h133.565v-75.211l75.211 75.211h46.54c.228-.228.456-.456.685-.685 0-17.247 0-32.636 0-46.537l-75.213-75.213z"/></g><g fill="#d80027"><path d="m129.515 33.391c-40.039 22.799-73.326 56.085-96.124 96.124v137.615h66.783v-166.954-.002h166.956c0-21.063 0-41.129 0-66.783z"/><path d="m266.177 234.694-101.132-101.129h-31.48v.002l132.609 132.609h.002c.001.001.001-21.706.001-31.482z"/></g><path d="m289.391 133.565v122.434c0 59.64 155.826 59.64 155.826 0v-122.434z" fill="#f3f3f3"/><path d="m289.391 256v-.001c0 59.64 77.913 77.914 77.913 77.914s77.913-18.274 77.913-77.914v.001z" fill="#6da544"/><path d="m367.304 207.026-36.174 15.583v33.391l36.174 22.261 36.174-22.261v-33.391z" fill="#a2001d"/><path d="m331.13 189.217h72.348v33.391h-72.348z" fill="#338af3"/><g/><g/><g/><g/><g/><g/><g/><g/><g/><g/><g/><g/><g/><g/><g/></svg>