<svg id="Layer_1" enable-background="new 0 0 512 512" viewBox="0 0 512 512" xmlns="http://www.w3.org/2000/svg"><circle cx="256" cy="256" fill="#f0f0f0" r="256"/><path d="m74.98 74.98c-54.865 54.865-79.612 128.439-74.259 200.185l274.443-274.443c-71.746-5.354-145.319 19.393-200.184 74.258z" fill="#ffda44"/><path d="m91.41 452.071c100.581 84.622 250.94 79.617 345.61-15.052s99.675-245.029 15.052-345.609z" fill="#0052b4"/><path d="m255.087 245.689 22.061-11.95-22.061-11.95c-5.151-33.461-31.589-59.9-65.05-65.05l-11.951-22.062-11.95 22.061c-33.46 5.15-59.898 31.589-65.05 65.05l-22.062 11.951 22.061 11.95c5.151 33.461 31.589 59.9 65.05 65.05l11.951 22.062 11.95-22.061c33.462-5.151 59.9-31.59 65.051-65.051zm-77 32.572c-24.589 0-44.522-19.932-44.522-44.522s19.932-44.522 44.522-44.522 44.522 19.932 44.522 44.522-19.933 44.522-44.522 44.522z"/><path d="m178.087 200.348 9.639 16.695h19.279l-9.64 16.696 9.64 16.696h-19.279l-9.639 16.695-9.639-16.695h-19.278l9.639-16.696-9.639-16.696h19.278z" fill="#d80027"/><g/><g/><g/><g/><g/><g/><g/><g/><g/><g/><g/><g/><g/><g/><g/></svg>