<svg id="Layer_1" enable-background="new 0 0 512 512" viewBox="0 0 512 512" xmlns="http://www.w3.org/2000/svg"><circle cx="256" cy="256" fill="#6da544" r="256"/><path d="m256 100.174 211.478 155.826-211.478 155.826-211.478-155.826z" fill="#ffda44"/><circle cx="256" cy="256" fill="#f0f0f0" r="89.043"/><g fill="#0052b4"><path d="m211.478 250.435c-15.484 0-30.427 2.355-44.493 6.725.623 48.64 40.227 87.884 89.015 87.884 30.168 0 56.812-15.017 72.919-37.968-27.557-34.497-69.958-56.641-117.441-56.641z"/><path d="m343.393 273.06c1.072-5.524 1.651-11.223 1.651-17.06 0-49.178-39.866-89.043-89.043-89.043-36.694 0-68.194 22.201-81.826 53.899 12.05-2.497 24.526-3.812 37.305-3.812 51.717-.001 98.503 21.497 131.913 56.016z"/></g><g/><g/><g/><g/><g/><g/><g/><g/><g/><g/><g/><g/><g/><g/><g/></svg>