<svg id="Layer_1" enable-background="new 0 0 512 512" viewBox="0 0 512 512" xmlns="http://www.w3.org/2000/svg"><path d="m512 256c0 141.384-114.616 256-256 256s-256-114.616-256-256c0 .061 256-255.972 256-256 141.384 0 256 114.616 256 256z" fill="#0052b4"/><g fill="#f0f0f0"><path d="m256 0c-.016 0-.028 0-.043 0z"/><path d="m255.315 256h.685c0-.23 0-.454 0-.685-.228.229-.456.457-.685.685z"/><path d="m256 133.565c0-45.045 0-74.56 0-133.565h-.043c-141.366.024-255.957 114.629-255.957 256h133.565v-75.211l75.211 75.211h46.54c.228-.228.456-.456.685-.685 0-17.247 0-32.636 0-46.537l-75.213-75.213z"/></g><path d="m129.515 33.391c-40.039 22.799-73.326 56.085-96.124 96.124v126.485h66.783v-155.824-.002h155.826c0-21.063 0-41.129 0-66.783z" fill="#d80027"/><path d="m367.304 256-69.193 69.193c12.968 25.011 39.076 42.111 69.193 42.111s56.225-17.1 69.193-42.111z" fill="#ffda44"/><path d="m256 224.519-90.955-90.953h-31.48v.002l122.433 122.432h.002s0-21.707 0-31.481z" fill="#d80027"/><path d="m289.391 133.565v122.434.001c.001 59.639 77.913 77.913 77.913 77.913s77.912-18.274 77.913-77.913v-.001-122.434z" fill="#6da544"/><g fill="#496e2d"><path d="m445.217 256v-.001z"/><path d="m289.391 256v-.001z"/></g><path d="m350.609 189.217h33.391v89.043h-33.391z" fill="#f0f0f0"/><circle cx="367.304" cy="189.217" fill="#a2001d" r="16.696"/><g fill="#ffda44"><path d="m311.652 155.826h22.261v22.261h-22.261z"/><path d="m311.652 205.913h22.261v22.261h-22.261z"/><path d="m311.652 256h22.261v22.261h-22.261z"/><path d="m400.696 155.826h22.261v22.261h-22.261z"/><path d="m400.696 205.913h22.261v22.261h-22.261z"/><path d="m400.696 256h22.261v22.261h-22.261z"/></g><g/><g/><g/><g/><g/><g/><g/><g/><g/><g/><g/><g/><g/><g/><g/></svg>