<svg id="Layer_1" enable-background="new 0 0 512 512" viewBox="0 0 512 512" xmlns="http://www.w3.org/2000/svg"><path d="m512 256c0-31.314-5.632-61.311-15.923-89.043l-240.077-11.131-240.077 11.13c-10.29 27.733-15.923 57.73-15.923 89.044s5.633 61.311 15.923 89.043l240.077 11.131 240.077-11.13c10.291-27.733 15.923-57.73 15.923-89.044z" fill="#496e2d"/><path d="m256 512c110.071 0 203.906-69.472 240.077-166.957h-480.154c36.171 97.485 130.006 166.957 240.077 166.957z" fill="#d80027"/><path d="m15.923 166.957h480.155c-36.172-97.485-130.007-166.957-240.078-166.957s-203.906 69.472-240.077 166.957z" fill="#f0f0f0"/><g/><g/><g/><g/><g/><g/><g/><g/><g/><g/><g/><g/><g/><g/><g/></svg>