<svg id="Layer_1" enable-background="new 0 0 512 512" viewBox="0 0 512 512" xmlns="http://www.w3.org/2000/svg"><path d="m367.304 25.402c-33.656-16.274-71.414-25.402-111.304-25.402s-77.648 9.128-111.304 25.402l-22.261 230.598 22.261 230.598c33.656 16.274 71.414 25.402 111.304 25.402s77.648-9.128 111.304-25.402l22.261-230.598z" fill="#d80027"/><path d="m255.998 166.957 22.1 68.019h71.528l-57.864 42.044 22.101 68.023-57.865-42.041-57.865 42.041 22.105-68.023-57.864-42.044h71.523z" fill="#ffda44"/><path d="m144.696 25.411c-85.63 41.406-144.696 129.095-144.696 230.589s59.066 189.183 144.696 230.589z" fill="#496e2d"/><path d="m367.304 25.411v461.178c85.63-41.406 144.696-129.096 144.696-230.589s-59.066-189.183-144.696-230.589z" fill="#ffda44"/><g/><g/><g/><g/><g/><g/><g/><g/><g/><g/><g/><g/><g/><g/><g/></svg>