<svg id="Layer_1" enable-background="new 0 0 512 512" viewBox="0 0 512 512" xmlns="http://www.w3.org/2000/svg"><circle cx="256" cy="256" fill="#f0f0f0" r="256"/><g fill="#0052b4"><path d="m480.873 133.565c-33.08-60.629-89.963-106.398-158.09-124.76l-11.13 124.76z"/><path d="m31.127 133.565h169.22l-11.13-124.76c-68.127 18.362-125.009 64.132-158.09 124.76z"/></g><g fill="#6da544"><path d="m311.652 256v122.435h169.22c19.845-36.371 31.128-78.085 31.128-122.435z"/><path d="m200.348 256h-200.348c0 44.35 11.283 86.064 31.127 122.435h169.22v-122.435z"/></g><g fill="#ffda44"><path d="m31.127 378.435c33.081 60.629 89.963 106.398 158.09 124.76l11.13-109.109z"/><path d="m322.783 503.195c68.127-18.362 125.01-64.131 158.09-124.76l-169.22 15.649z"/><path d="m311.652 394.084 169.221-15.649h-169.221z"/><path d="m200.348 378.435h-169.221l169.221 15.649z"/></g><path d="m256 0c-23.107 0-45.489 3.08-66.783 8.819v494.363c21.294 5.738 43.676 8.818 66.783 8.818s45.489-3.08 66.783-8.819v-494.362c-21.294-5.739-43.676-8.819-66.783-8.819z" fill="#d80027"/><path d="m137.698 55.652 6.906 21.257h22.353l-18.082 13.138 6.907 21.257-18.084-13.137-18.083 13.137 6.909-21.257-18.082-13.138h22.351z" fill="#ffda44"/><g/><g/><g/><g/><g/><g/><g/><g/><g/><g/><g/><g/><g/><g/><g/></svg>