<svg id="Layer_1" enable-background="new 0 0 512 512" viewBox="0 0 512 512" xmlns="http://www.w3.org/2000/svg"><circle cx="256" cy="256" fill="#f0f0f0" r="256"/><path d="m511.991 255.259h-277.51c-55.097 55.098-88.415 97.635-122.435 131.655l144.696 13.04 224.534-22.261c19.595-36.195 30.724-77.644 30.724-121.693 0-.248-.009-.493-.009-.741z" fill="#d80027"/><path d="m112.047 132.824h368.412c-43.538-79.168-127.728-132.824-224.459-132.824-70.505 0-134.341 28.511-180.636 74.624z" fill="#ffda44"/><path d="m123.177 377.693c-23.014 23.014-31.908 42.296-48.559 58.946 46.355 46.547 110.5 75.361 181.382 75.361 97.336 0 181.98-54.325 225.277-134.307z" fill="#0052b4"/><path d="m74.98 74.239c-99.974 99.974-99.974 262.065 0 362.04 41.313-41.313 81.046-81.046 181.02-181.02z" fill="#6da544"/><g fill="#f0f0f0"><path d="m67.525 255.259c0-37.298 26.213-68.457 61.217-76.101-5.38-1.175-10.962-1.812-16.696-1.812-43.031 0-77.913 34.882-77.913 77.913s34.882 77.913 77.913 77.913c5.733 0 11.315-.637 16.696-1.812-35.004-7.645-61.217-38.803-61.217-76.101z"/><path d="m127.883 188.476 4.145 12.754h13.41l-10.85 7.883 4.145 12.754-10.85-7.882-10.85 7.882 4.145-12.754-10.85-7.883h13.41z"/><path d="m127.883 221.867 4.145 12.755h13.41l-10.85 7.882 4.145 12.755-10.85-7.883-10.85 7.883 4.145-12.755-10.85-7.882h13.41z"/><path d="m127.883 255.259 4.145 12.754h13.41l-10.85 7.883 4.145 12.754-10.85-7.883-10.85 7.883 4.145-12.754-10.85-7.883h13.41z"/><path d="m127.883 288.65 4.145 12.754h13.41l-10.85 7.883 4.145 12.754-10.85-7.882-10.85 7.882 4.145-12.754-10.85-7.883h13.41z"/></g><g/><g/><g/><g/><g/><g/><g/><g/><g/><g/><g/><g/><g/><g/><g/></svg>