<svg id="Layer_1" enable-background="new 0 0 512 512" viewBox="0 0 512 512" xmlns="http://www.w3.org/2000/svg"><circle cx="256" cy="256" fill="#ffda44" r="256"/><g fill="#0052b4"><path d="m256 512c84 0 158.549-40.458 205.229-102.949h-410.458c46.68 62.491 121.229 102.949 205.229 102.949z"/><path d="m512 256c0-141.384-114.616-256-256-256s-256 114.616-256 256c0 30.273 5.269 59.312 14.916 86.269h482.167c9.648-26.957 14.917-55.996 14.917-86.269z"/></g><g fill="#f0f0f0"><path d="m175.222 164.182 13.813 42.512h44.704l-36.165 26.278 13.813 42.514-36.165-26.276-36.165 26.276 13.815-42.514-36.165-26.278h44.702z"/><path d="m98.454 119.66 8.288 25.508h26.823l-21.699 15.766 8.288 25.509-21.7-15.766-21.699 15.766 8.289-25.509-21.698-15.766h26.822z"/></g><g/><g/><g/><g/><g/><g/><g/><g/><g/><g/><g/><g/><g/><g/><g/></svg>