<svg id="Layer_1" enable-background="new 0 0 512 512" viewBox="0 0 512 512" xmlns="http://www.w3.org/2000/svg"><circle cx="256" cy="256" fill="#fcfcfc" r="256"/><path d="m400.696 222.609c-7.791 0-17.438 0-33.391 0 0 61.472-49.834 111.304-111.304 111.304-61.473 0-111.304-49.832-111.304-111.304-10.76 0-22.633 0-33.391 0 0 66.215 44.476 122.042 105.186 139.235-6.656 12.644-5.642 28.563 3.866 40.428 12.488-10.009 25.417-20.37 36.385-29.158 10.968 8.789 23.898 19.15 36.385 29.158 9.602-11.983 10.547-28.104 3.67-40.809 60.045-17.615 103.898-73.11 103.898-138.854z" fill="#6da544"/><path d="m166.957 211.478s0 55.652 55.652 55.652l11.13 11.13h22.261s11.13-33.391 33.391-33.391c0 0 0-22.261 22.261-22.261s33.391 0 33.391 0-11.13-44.522 44.522-77.913l-22.261-11.13s-77.913 55.652-133.565 44.522v22.261h-22.261l-11.13-11.13z" fill="#ffda44"/><g/><g/><g/><g/><g/><g/><g/><g/><g/><g/><g/><g/><g/><g/><g/></svg>