<svg id="Layer_1" enable-background="new 0 0 512 512" viewBox="0 0 512 512" xmlns="http://www.w3.org/2000/svg"><path d="m233.739 278.261s-158.609-203.316-158.759-203.28c46.326-46.327 110.327-74.981 181.02-74.981 141.384 0 256 114.616 256 256z" fill="#338af3"/><path d="m233.739 256s-158.609 181.055-158.759 181.019c46.326 46.327 110.327 74.981 181.02 74.981 141.384 0 256-114.616 256-256z" fill="#6da544"/><path d="m74.98 74.98c-99.974 99.974-99.974 262.065 0 362.04 41.313-41.313 81.046-81.046 181.02-181.02z" fill="#f0f0f0"/><path d="m103.61 189.217 16.575 51.016h53.646l-43.398 31.532 16.574 51.018-43.397-31.531-43.399 31.531 16.578-51.018-43.398-31.532h53.642z" fill="#d80027"/><g/><g/><g/><g/><g/><g/><g/><g/><g/><g/><g/><g/><g/><g/><g/></svg>