<svg id="Layer_1" enable-background="new 0 0 512 512" viewBox="0 0 512 512" xmlns="http://www.w3.org/2000/svg"><circle cx="256" cy="256" fill="#ffda44" r="256"/><path d="m256 0c-62.677 0-120.083 22.537-164.585 59.934l275.889 196.066-275.889 196.066c44.502 37.397 101.908 59.934 164.585 59.934 141.384 0 256-114.616 256-256s-114.616-256-256-256z" fill="#d80027"/><path d="m74.98 74.98c-99.974 99.974-99.974 262.065 0 362.04 41.313-41.313 81.046-81.046 181.02-181.02z"/><path d="m70.979 197.355 38.96 36.872 47.108-25.664-23.025 48.45 38.961 36.873-53.194-6.928-23.028 48.449-9.847-52.732-53.194-6.93 47.106-25.661z" fill="#f0f0f0"/><g/><g/><g/><g/><g/><g/><g/><g/><g/><g/><g/><g/><g/><g/><g/></svg>