<svg id="Layer_1" enable-background="new 0 0 512 512" viewBox="0 0 512 512" xmlns="http://www.w3.org/2000/svg"><path d="m0 256c0-141.384 114.616-256 256-256s256 114.616 256 256l-256 22.261z" fill="#ffda44"/><path d="m34.256 384c44.265 76.516 126.989 128 221.744 128s177.479-51.484 221.744-128l-221.744-16.696z" fill="#d80027"/><path d="m477.744 384c21.782-37.654 34.256-81.369 34.256-128h-512c0 46.631 12.474 90.346 34.256 128z" fill="#0052b4"/><circle cx="256" cy="256" fill="#ffda44" r="89.043"/><path d="m256 311.652c-30.687 0-55.652-24.966-55.652-55.652v-33.391c0-30.687 24.966-55.652 55.652-55.652s55.652 24.966 55.652 55.652v33.391c0 30.687-24.965 55.652-55.652 55.652z" fill="#338af3"/><path d="m345.043 122.435h-66.783c0-12.294-9.967-22.261-22.261-22.261s-22.261 9.967-22.261 22.261h-66.783c0 12.295 10.709 22.261 23.002 22.261h-.741c0 12.295 9.966 22.261 22.261 22.261 0 12.295 9.966 22.261 22.261 22.261h44.522c12.295 0 22.261-9.966 22.261-22.261 12.295 0 22.261-9.966 22.261-22.261h-.741c12.294 0 23.002-9.967 23.002-22.261z"/><g/><g/><g/><g/><g/><g/><g/><g/><g/><g/><g/><g/><g/><g/><g/></svg>