<svg id="Layer_1" enable-background="new 0 0 512 512" viewBox="0 0 512 512" xmlns="http://www.w3.org/2000/svg"><circle cx="256" cy="256" fill="#f0f0f0" r="256"/><g fill="#0052b4"><path d="m256 0c-101.494 0-189.19 59.065-230.598 144.696h461.195c-41.407-85.631-129.104-144.696-230.597-144.696z"/><path d="m256 512c101.493 0 189.19-59.065 230.598-144.696h-461.196c41.408 85.631 129.104 144.696 230.598 144.696z"/></g><path d="m204.59 267.13 51.41-89.043 51.41 89.043z" fill="#ffda44"/><path d="m322.783 296.531-66.783 33.392-66.783-33.392v-44.521h133.566z" fill="#6da544"/><path d="m318.963 181.907-23.611 23.611c10.071 10.071 16.301 23.984 16.301 39.352 0 30.736-24.917 55.652-55.652 55.652s-55.652-24.917-55.652-55.652c0-15.368 6.23-29.281 16.301-39.352l-23.611-23.611c-16.115 16.112-26.081 38.373-26.081 62.963 0 49.178 39.866 89.043 89.043 89.043s89.043-39.866 89.043-89.043c-.001-24.59-9.967-46.851-26.081-62.963z" fill="#ffda44"/><g/><g/><g/><g/><g/><g/><g/><g/><g/><g/><g/><g/><g/><g/><g/></svg>