<svg id="Layer_1" enable-background="new 0 0 512 512" viewBox="0 0 512 512" xmlns="http://www.w3.org/2000/svg"><path d="m0 256c0 31.316 5.633 61.312 15.924 89.046l240.076 22.258 240.076-22.259c10.292-27.733 15.924-57.73 15.924-89.045 0-30.885-5.471-60.492-15.494-87.905l-240.506-23.399-240.506 23.4c-10.023 27.412-15.494 57.019-15.494 87.904z" fill="#ffda44"/><path d="m256 512c110.071 0 203.906-69.472 240.077-166.957h-480.154c36.171 97.485 130.006 166.957 240.077 166.957z" fill="#d80027"/><path d="m256 0c-110.071 0-203.906 69.472-240.077 166.957h480.155c-36.172-97.485-130.007-166.957-240.078-166.957z" fill="#6da544"/><circle cx="256" cy="256" fill="#0052b4" r="122.435"/><g fill="#ffda44"><path d="m255.974 161.191 22.102 68.022h71.637l-57.978 42.041 22.276 68.224-58.037-42.241-57.948 42.163 22.186-68.146-57.925-42.041h71.585z"/><path d="m344.124 272.93-70.116-22.784 43.333-59.64-18.008-13.086-43.335 59.644-43.331-59.643-18.01 13.084 43.332 59.645-70.113 22.779 6.878 21.173 70.116-22.781v73.722h22.26v-73.723l70.113 22.782z"/></g><g/><g/><g/><g/><g/><g/><g/><g/><g/><g/><g/><g/><g/><g/><g/></svg>