<svg id="Layer_1" enable-background="new 0 0 512 512" viewBox="0 0 512 512" xmlns="http://www.w3.org/2000/svg"><circle cx="256" cy="256" fill="#f0f0f0" r="256"/><path d="m500.87 256 8.959-33.391c-1.488-11.381-3.72-22.529-6.647-33.391h-269.443v-188.244c-11.36.978-22.505 2.707-33.391 5.121l-44.522 27.296-22.261-2.247c-11.715 6.392-22.876 13.672-33.391 21.751v136.322h-91.355c-2.927 10.862-5.159 22.01-6.647 33.391l8.958 33.392-8.959 33.391c1.488 11.381 3.72 22.529 6.647 33.391h91.355v136.322c10.515 8.08 21.677 15.359 33.391 21.751l33.391-2.247 33.391 27.296c10.887 2.413 22.032 4.142 33.391 5.121v-188.242h269.442c2.927-10.862 5.159-22.01 6.647-33.391z" fill="#0052b4"/><path d="m509.833 222.609h-309.484-.001v-216.524c-23.658 5.246-46.087 13.749-66.783 25.042v191.481h-131.398c-1.423 10.931-2.167 22.075-2.167 33.392s.744 22.461 2.167 33.391h131.397.001v191.481c20.696 11.292 43.125 19.797 66.783 25.042v-216.52-.002h309.485c1.423-10.931 2.167-22.075 2.167-33.392s-.744-22.461-2.167-33.391z" fill="#d80027"/><g/><g/><g/><g/><g/><g/><g/><g/><g/><g/><g/><g/><g/><g/><g/></svg>