<svg id="Layer_1" enable-background="new 0 0 512 512" viewBox="0 0 512 512" xmlns="http://www.w3.org/2000/svg"><path d="m512 256c0 141.384-114.616 256-256 256s-256-114.616-256-256c0 .061 256-255.972 256-256 141.384 0 256 114.616 256 256z" fill="#338af3"/><g fill="#0052b4"><path d="m256 122.435v86.343l-89.043-86.343z"/><path d="m133.565 256h75.212l-75.212-100.174-11.13 77.913z"/></g><g fill="#f0f0f0"><path d="m256 0c-.016 0-.029 0-.043 0z"/><path d="m255.315 256h.685c0-.23 0-.454 0-.685-.228.229-.456.457-.685.685z"/><path d="m256 133.565c0-45.045 0-74.56 0-133.565h-.043c-141.365.024-255.957 114.629-255.957 256h133.565v-75.211l75.212 75.211h46.54c.228-.228.456-.456.685-.685 0-17.247 0-32.636 0-46.537l-75.214-75.213z"/></g><g fill="#d80027"><path d="m129.515 33.391c-40.039 22.799-73.325 56.085-96.124 96.124v126.485h66.783v-155.824-.002h155.826c0-21.063 0-41.129 0-66.783z"/><path d="m256 224.519-90.953-90.953h-31.481v.002l122.432 122.432h.002s0-21.707 0-31.481z"/></g><path d="m289.391 166.957v89.042c0 59.64 77.913 77.914 77.913 77.914s77.913-18.274 77.913-77.914v-89.042l-77.913-22.261z" fill="#f3f3f3"/><path d="m445.217 166.957v-33.391h-155.826v33.391h66.781v66.784h-66.781v22.259.002l66.781.001v74.497c6.718 2.376 11.132 3.414 11.132 3.414s4.412-1.036 11.129-3.414v-74.498h66.784v-.002-22.26h-66.784v-66.784h66.784z" fill="#d80027"/><g/><g/><g/><g/><g/><g/><g/><g/><g/><g/><g/><g/><g/><g/><g/></svg>