<svg id="Layer_1" enable-background="new 0 0 512 512" viewBox="0 0 512 512" xmlns="http://www.w3.org/2000/svg"><circle cx="256" cy="256" fill="#f9f9f9" r="256"/><g fill="#d80027"><path d="m256 512c110.07 0 203.906-69.472 240.076-166.957h-480.154c36.172 97.485 130.006 166.957 240.078 166.957z"/><path d="m356.174 211.478v-33.391h11.13v-22.261h-22.261v11.131h-22.26v-11.131h-22.261v22.261h11.13v33.391h-22.261v-77.911h11.131v-22.26h-22.261v11.128h-11.131v-11.128h-22.26v11.128h-11.131v-11.128h-22.261v22.26h11.131v77.911h-22.261v-33.391h11.13v-22.261h-22.261v11.131h-22.26v-11.131h-22.261v22.261h11.13v33.391h-22.261v89.044h244.87v-89.044z"/></g><path d="m256 289.391c-18.441 0-33.391 14.95-33.391 33.391 0 14.536 9.294 26.9 22.261 31.484v46.43h-33.391v44.522h55.652v-90.951c12.967-4.584 22.261-16.947 22.261-31.484-.001-18.441-14.951-33.392-33.392-33.392zm0 44.522c-6.147 0-11.13-4.984-11.13-11.13 0-6.147 4.983-11.13 11.13-11.13s11.13 4.983 11.13 11.13c0 6.146-4.983 11.13-11.13 11.13z" fill="#ffda44"/><g/><g/><g/><g/><g/><g/><g/><g/><g/><g/><g/><g/><g/><g/><g/></svg>