<svg id="Layer_1" enable-background="new 0 0 512 512" viewBox="0 0 512 512" xmlns="http://www.w3.org/2000/svg"><path d="m256 0c-23.106 0-45.49 3.08-66.783 8.819l-22.26 247.181 22.261 247.181c21.292 5.739 43.676 8.819 66.782 8.819 141.384 0 256-114.616 256-256s-114.616-256-256-256z" fill="#ffda44"/><path d="m166.957 256 22.261 247.181c21.292 5.739 43.676 8.819 66.782 8.819 141.384 0 256-114.616 256-256z" fill="#6da544"/><g fill="#d80027"><path d="m0 256c0 97.035 53.99 181.455 133.565 224.873v-449.746c-79.575 43.418-133.565 127.838-133.565 224.873z"/><path d="m0 256c0 118.279 80.221 217.805 189.217 247.181v-494.362c-108.996 29.376-189.217 128.902-189.217 247.181z"/></g><path d="m96.736 189.217 16.575 51.016h53.646l-43.398 31.532 16.574 51.018-43.397-31.531-43.399 31.531 16.578-51.018-43.398-31.532h53.643z"/><g/><g/><g/><g/><g/><g/><g/><g/><g/><g/><g/><g/><g/><g/><g/></svg>