<svg id="Layer_1" enable-background="new 0 0 512 512" viewBox="0 0 512 512" xmlns="http://www.w3.org/2000/svg"><circle cx="256" cy="256" fill="#f0f0f0" r="256"/><path d="m256 0c-45.261 0-87.769 11.762-124.661 32.372v447.256c36.893 20.61 79.4 32.372 124.661 32.372 141.384 0 256-114.616 256-256s-114.616-256-256-256z" fill="#6da544"/><path d="m132.092 31.951c-16.105 8.925-31.143 19.533-44.882 31.593 1.389-1.218 2.792-2.422 4.206-3.61l196.065 196.066-196.066 196.066c-1.415-1.188-2.817-2.392-4.206-3.61 13.739 12.06 28.778 22.667 44.882 31.593l379.909-224.049z" fill="#f0f0f0"/><path d="m110.47 45.382c-7.807 5.406-15.305 11.223-22.45 17.44l167.98 193.178-167.981 193.178c7.145 6.217 14.643 12.035 22.45 17.44l357.709-210.618z" fill="#ffda44"/><path d="m91.415 59.934c-5.691 4.782-11.183 9.795-16.435 15.046l158.759 181.02-158.759 181.02c5.252 5.252 10.743 10.266 16.435 15.046l196.066-196.066z"/><path d="m74.98 74.98c-99.974 99.974-99.974 262.065 0 362.04 41.313-41.313 81.046-81.046 181.02-181.02z" fill="#d80027"/><g/><g/><g/><g/><g/><g/><g/><g/><g/><g/><g/><g/><g/><g/><g/></svg>