<svg id="Layer_1" enable-background="new 0 0 512 512" viewBox="0 0 512 512" xmlns="http://www.w3.org/2000/svg"><path d="m512 256c0 141.384-114.616 256-256 256s-256-114.616-256-256 256-256 256-256 256 114.616 256 256z" fill="#a2001d"/><path d="m0 256c0-141.384 114.616-256 256-256s256 114.616 256 256" fill="#0052b4"/><path d="m345.043 322.783-89.043-11.131-89.043 11.131v-133.566h178.086z" fill="#f0f0f0"/><circle cx="256" cy="267.13" fill="#0052b4" r="44.522"/><circle cx="256" cy="267.13" fill="#a2001d" r="22.261"/><path d="m222.609 211.478h66.782l-33.391 33.392z" fill="#6da544"/><path d="m244.87 233.739h22.261v66.783h-22.261z" fill="#ffda44"/><path d="m291.617 293.843h-71.236l-53.424 28.94h178.086z" fill="#6da544"/><g/><g/><g/><g/><g/><g/><g/><g/><g/><g/><g/><g/><g/><g/><g/></svg>