<svg id="Layer_1" enable-background="new 0 0 512 512" viewBox="0 0 512 512" xmlns="http://www.w3.org/2000/svg"><circle cx="256" cy="256" fill="#f0f0f0" r="256"/><path d="m339.147 189.217h-33.494c.277 3.681.434 7.395.434 11.13 0 24.764-6.19 48.767-16.981 65.853-3.329 5.27-8.923 12.712-16.411 17.732v-94.716h-33.391v94.716c-7.487-5.02-13.082-12.461-16.411-17.732-10.792-17.086-16.981-41.089-16.981-65.853 0-3.735.158-7.45.434-11.13h-33.494c-.215 3.663-.332 7.373-.332 11.13 0 68.656 36.668 122.435 83.478 122.435s83.478-53.779 83.478-122.435c.002-3.757-.115-7.467-.329-11.13z" fill="#d80027"/><path d="m105.739 122.435h33.391v22.261h33.391v-22.261h33.391v22.261h33.391v-22.261h33.391v22.261h33.391v-22.261h33.391v22.261h33.391v-22.261h33.391v22.261h80.337c-41.405-85.631-129.102-144.696-230.595-144.696s-189.19 59.065-230.598 144.696h80.337z" fill="#6da544"/><path d="m406.261 367.304v22.261h-33.391v-22.261h-33.391v22.261h-33.391v-22.261h-33.391v22.261h-33.391v-22.261h-33.391v22.261h-33.391v-22.261h-33.394v22.261h-33.391v-22.261h-80.337c41.408 85.631 129.104 144.696 230.598 144.696s189.19-59.065 230.598-144.696z" fill="#d80027"/><g/><g/><g/><g/><g/><g/><g/><g/><g/><g/><g/><g/><g/><g/><g/></svg>