<svg id="Layer_1" enable-background="new 0 0 512 512" viewBox="0 0 512 512" xmlns="http://www.w3.org/2000/svg"><circle cx="256" cy="256" fill="#f0f0f0" r="256"/><g fill="#0052b4"><path d="m352.393 200.348h-64.263l-32.13-55.652-32.129 55.652h-64.264l32.134 55.652-32.134 55.652h64.264l32.129 55.652 32.13-55.652h64.263l-32.134-55.652zm-56.918 55.652-19.736 34.188h-39.475l-19.739-34.188 19.738-34.188h39.475zm-39.475-68.377 7.346 12.724h-14.69zm-59.214 34.189h14.692l-7.346 12.724zm0 68.376 7.347-12.724 7.346 12.724zm59.214 34.188-7.345-12.724h14.691zm59.214-34.188h-14.692l7.347-12.724zm-14.692-68.376h14.692l-7.346 12.724z"/><path d="m415.357 55.652h-318.714c-23.363 18.608-43.399 41.21-59.069 66.783h436.852c-15.671-25.572-35.707-48.175-59.069-66.783z"/><path d="m96.643 456.348h318.713c23.363-18.608 43.399-41.21 59.069-66.783h-436.851c15.671 25.572 35.707 48.175 59.069 66.783z"/></g><g/><g/><g/><g/><g/><g/><g/><g/><g/><g/><g/><g/><g/><g/><g/></svg>