<svg id="Layer_1" enable-background="new 0 0 512 512" viewBox="0 0 512 512" xmlns="http://www.w3.org/2000/svg"><circle cx="256" cy="256" fill="#f0f0f0" r="256"/><path d="m256 0c-101.494 0-189.19 59.065-230.598 144.696h461.195c-41.407-85.631-129.104-144.696-230.597-144.696z"/><path d="m256 512c-101.494 0-189.19-59.065-230.598-144.696h461.195c-41.407 85.631-129.104 144.696-230.597 144.696z" fill="#496e2d"/><path d="m499.911 178.087h-487.822c-7.842 24.569-12.089 50.744-12.089 77.913s4.247 53.344 12.089 77.913h487.821c7.843-24.569 12.09-50.744 12.09-77.913s-4.247-53.344-12.089-77.913z" fill="#a2001d"/><g fill="#f0f0f0"><path d="m335.715 118.301-30.317-13.993-49.398 111.851-49.398-111.851-30.317 13.993 61.328 137.699-61.328 137.699 30.317 13.993 49.398-111.851 49.398 111.851 30.317-13.993-61.328-137.699z"/><path d="m276.591 131.489c-11.736-12.817-20.591-20.185-20.591-20.185s-8.855 7.367-20.591 20.185v249.02c11.736 12.819 20.591 20.187 20.591 20.187s8.855-7.367 20.591-20.186z"/></g><g fill="#a2001d"><path d="m200.348 179.243v153.512c12.402 21.975 27.581 39.987 38.957 51.929v-257.369c-11.376 11.941-26.556 29.954-38.957 51.928z"/><path d="m311.652 179.243c-12.403-21.975-27.581-39.987-38.957-51.928v257.369c11.375-11.942 26.554-29.954 38.957-51.929z"/></g><path d="m311.652 179.243v153.512c12.555-22.249 22.261-48.558 22.261-76.755s-9.706-54.507-22.261-76.757z"/><path d="m200.348 179.243v153.512c-12.555-22.249-22.261-48.558-22.261-76.755s9.706-54.507 22.261-76.757z"/><g/><g/><g/><g/><g/><g/><g/><g/><g/><g/><g/><g/><g/><g/><g/></svg>