<svg id="Layer_1" enable-background="new 0 0 512 512" viewBox="0 0 512 512" xmlns="http://www.w3.org/2000/svg"><path d="m0 256c0-141.384 114.616-256 256-256s256 114.616 256 256" fill="#d80027"/><g fill="#ffda44"><path d="m345.043 238.078-36.385 17.113 19.376 35.239-39.509-7.559-5.006 39.912-27.519-29.355-27.52 29.355-5.005-39.912-39.509 7.557 19.375-35.237-36.384-17.113 36.384-17.116-19.375-35.235 39.508 7.556 5.007-39.91 27.519 29.353 27.52-29.353 5.005 39.91 39.51-7.556-19.374 35.238z"/><path d="m322.783 83.478h-50.087c0-9.219-7.476-16.696-16.696-16.696s-16.696 7.476-16.696 16.696h-50.087c0 9.22 8.032 16.696 17.252 16.696h-.557c0 9.22 7.474 16.696 16.696 16.696 0 9.22 7.474 16.696 16.696 16.696h33.391c9.219 0 16.696-7.475 16.696-16.696 9.219 0 16.696-7.475 16.696-16.696h-.557c9.221 0 17.253-7.475 17.253-16.696z"/></g><path d="m512 256c0 141.384-114.616 256-256 256s-256-114.616-256-256z" fill="#f0f0f0"/><g fill="#0052b4"><path d="m256 512c80.022 0 151.456-36.724 198.402-94.228-8.444-5.757-13.003-15.063-27.739-15.063-21.333 0-21.333 19.506-42.665 19.506s-21.333-19.506-42.665-19.506c-21.333 0-21.333 19.506-42.667 19.506s-21.335-19.506-42.67-19.506c-21.333 0-21.333 19.506-42.665 19.506-21.33 0-21.33-19.506-42.663-19.506-21.335 0-21.335 19.506-42.67 19.506s-21.335-19.506-42.67-19.506c-14.734 0-19.293 9.304-27.733 15.061 46.944 57.506 118.382 94.23 198.405 94.23z"/><path d="m469.33 288.65c-21.333 0-21.333-19.506-42.667-19.506-21.333 0-21.333 19.506-42.665 19.506s-21.333-19.506-42.665-19.506c-21.333 0-21.333 19.506-42.667 19.506s-21.335-19.506-42.67-19.506c-21.333 0-21.333 19.506-42.665 19.506-21.33 0-21.33-19.506-42.663-19.506-21.335 0-21.335 19.506-42.67 19.506s-21.335-19.506-42.67-19.506c-21.33 0-21.33 19.506-42.663 19.506-21.218 0-21.341-19.291-42.332-19.497.591 11.71 1.989 23.206 4.103 34.448 17.004 2.499 18.493 19.182 38.23 19.182 21.333 0 21.333-19.504 42.663-19.504 21.335 0 21.335 19.504 42.67 19.504s21.335-19.504 42.67-19.504c21.333 0 21.333 19.504 42.663 19.504 21.333 0 21.333-19.504 42.665-19.504 21.335 0 21.335 19.504 42.67 19.504s21.335-19.504 42.667-19.504c21.333 0 21.333 19.504 42.665 19.504s21.333-19.504 42.665-19.504c21.335 0 21.335 19.504 42.667 19.504 19.739 0 21.228-16.682 38.233-19.181 2.115-11.243 3.511-22.738 4.105-34.448-20.995.207-21.12 19.496-42.339 19.496z"/><path d="m426.663 335.927c-21.333 0-21.333 19.506-42.665 19.506s-21.333-19.506-42.665-19.506c-21.333 0-21.333 19.506-42.667 19.506-21.335 0-21.335-19.506-42.67-19.506-21.333 0-21.333 19.506-42.665 19.506-21.33 0-21.33-19.506-42.663-19.506-21.335 0-21.335 19.506-42.67 19.506s-21.335-19.506-42.67-19.506c-21.33 0-21.33 19.506-42.663 19.506-15.243 0-19.597-9.956-28.622-15.644 6.008 17.359 13.824 33.872 23.237 49.308 1.637.302 3.419.469 5.385.469 21.333 0 21.333-19.504 42.663-19.504 21.335 0 21.335 19.504 42.67 19.504s21.335-19.504 42.67-19.504c21.333 0 21.333 19.504 42.663 19.504 21.333 0 21.333-19.504 42.665-19.504 21.335 0 21.335 19.504 42.67 19.504s21.335-19.504 42.667-19.504c21.333 0 21.333 19.504 42.665 19.504s21.333-19.504 42.665-19.504c21.335 0 21.335 19.504 42.667 19.504 1.968 0 3.75-.167 5.387-.47 9.413-15.435 17.228-31.948 23.239-49.306-9.026 5.685-13.381 15.643-28.626 15.643-21.332 0-21.332-19.506-42.667-19.506z"/></g><path d="m511.206 235.775c-20.53.485-20.813 19.484-41.876 19.484-21.333 0-21.333-19.506-42.667-19.506-21.333 0-21.333 19.506-42.665 19.506s-21.333-19.506-42.665-19.506c-21.333 0-21.333 19.506-42.667 19.506s-21.335-19.506-42.67-19.506c-21.333 0-21.333 19.506-42.665 19.506-21.33 0-21.33-19.506-42.663-19.506-21.335 0-21.335 19.506-42.67 19.506s-21.335-19.506-42.67-19.506c-21.33 0-21.33 19.506-42.663 19.506-21.059 0-21.344-18.997-41.872-19.484-.521 6.674-.793 13.418-.793 20.225 0 4.663.132 9.296.381 13.897 20.943.235 21.082 19.494 42.285 19.494 21.333 0 21.333-19.504 42.663-19.504 21.335 0 21.335 19.504 42.67 19.504s21.335-19.504 42.67-19.504c21.333 0 21.333 19.504 42.663 19.504 21.333 0 21.333-19.504 42.665-19.504 21.335 0 21.335 19.504 42.67 19.504s21.335-19.504 42.667-19.504c21.333 0 21.333 19.504 42.665 19.504s21.333-19.504 42.665-19.504c21.335 0 21.335 19.504 42.667 19.504 21.205 0 21.344-19.259 42.291-19.494.246-4.602.378-9.234.378-13.897 0-6.807-.272-13.551-.794-20.225z" fill="#f0f0f0"/><g/><g/><g/><g/><g/><g/><g/><g/><g/><g/><g/><g/><g/><g/><g/></svg>