<svg id="Layer_1" enable-background="new 0 0 512 512" viewBox="0 0 512 512" xmlns="http://www.w3.org/2000/svg"><path d="m0 256c0 39.89 9.127 77.648 25.402 111.304l230.598 11.131 230.598-11.13c16.275-33.657 25.402-71.415 25.402-111.305s-9.127-77.648-25.402-111.304l-230.598-11.131-230.598 11.13c-16.275 33.657-25.402 71.415-25.402 111.305z" fill="#f0f0f0"/><path d="m256 512c101.493 0 189.19-59.065 230.598-144.696h-461.196c41.408 85.631 129.104 144.696 230.598 144.696z" fill="#6da544"/><path d="m256 0c-101.494 0-189.19 59.065-230.598 144.696h461.195c-41.407-85.631-129.104-144.696-230.597-144.696z" fill="#0052b4"/><path d="m272.696 250.435v-61.217h-33.391v61.217l-40.33 40.331c11.729 19.2 32.88 32.017 57.026 32.017s45.296-12.817 57.026-32.017z"/><g/><g/><g/><g/><g/><g/><g/><g/><g/><g/><g/><g/><g/><g/><g/></svg>