<svg id="Layer_1" enable-background="new 0 0 512 512" viewBox="0 0 512 512" xmlns="http://www.w3.org/2000/svg"><path d="m25.402 144.696c-16.274 33.656-25.402 71.413-25.402 111.304s9.128 77.648 25.402 111.304l230.598 22.261 230.598-22.261c16.274-33.656 25.402-71.413 25.402-111.304s-9.128-77.648-25.402-111.304l-230.598-22.261z"/><path d="m25.411 367.304c41.406 85.631 129.095 144.696 230.589 144.696 101.493 0 189.183-59.065 230.589-144.696z" fill="#496e2d"/><path d="m25.411 144.696h461.178c-41.406-85.631-129.096-144.696-230.589-144.696-101.494 0-189.183 59.065-230.589 144.696z" fill="#d80027"/><g fill="#f0f0f0"><path d="m315.586 209.186 21.004 28.945 34.017-11.03-21.038 28.92 21.002 28.944-34.004-11.072-21.038 28.92.022-35.761-34.006-11.072 34.018-11.03z"/><path d="m258.261 328.348c-39.956 0-72.348-32.392-72.348-72.348s32.392-72.348 72.348-72.348c12.458 0 24.181 3.15 34.415 8.696-16.056-15.701-38.012-25.392-62.241-25.392-49.178 0-89.043 39.866-89.043 89.043s39.866 89.043 89.043 89.043c24.23 0 46.186-9.691 62.241-25.392-10.235 5.548-21.956 8.698-34.415 8.698z"/></g><g/><g/><g/><g/><g/><g/><g/><g/><g/><g/><g/><g/><g/><g/><g/></svg>