<svg id="Layer_1" enable-background="new 0 0 512 512" viewBox="0 0 512 512" xmlns="http://www.w3.org/2000/svg"><path d="m512 256c0 141.384-114.616 256-256 256s-256-114.616-256-256c11.13 0 256-33.391 256-33.391z" fill="#d80027"/><path d="m0 256c0-141.384 114.616-256 256-256s256 114.616 256 256" fill="#0052b4"/><path d="m189.217 178.087c0-18.441-14.95-33.391-33.391-33.391-8.555 0-16.352 3.22-22.261 8.509v-19.64h11.13v-22.261h-11.13v-11.13h-22.261v11.13h-11.13v22.261h11.13v19.64c-5.909-5.289-13.706-8.509-22.261-8.509-18.441 0-33.391 14.95-33.391 33.391 0 9.887 4.301 18.767 11.13 24.882v19.64h111.304v-19.64c6.831-6.115 11.131-14.995 11.131-24.882z" fill="#ffda44"/><g/><g/><g/><g/><g/><g/><g/><g/><g/><g/><g/><g/><g/><g/><g/></svg>