<svg id="Layer_1" enable-background="new 0 0 512 512" viewBox="0 0 512 512" xmlns="http://www.w3.org/2000/svg"><path d="m367.304 25.402c-33.656-16.274-71.413-25.402-111.304-25.402s-77.648 9.128-111.304 25.402l-22.261 230.598 22.261 230.598c33.656 16.274 71.413 25.402 111.304 25.402s77.648-9.128 111.304-25.402l22.261-230.598z" fill="#ffda44"/><g fill="#0052b4"><path d="m144.696 25.411c-85.631 41.407-144.696 129.096-144.696 230.589s59.065 189.182 144.696 230.589z"/><path d="m367.304 25.411v461.178c85.63-41.407 144.696-129.096 144.696-230.589s-59.066-189.182-144.696-230.589z"/></g><path d="m328.348 278.261 16.695 22.261v-89.044l-16.695 22.261h-50.087v-50.087l22.261-16.695h-89.044l22.261 16.695v50.087h-50.087l-16.695-22.261v89.044l16.695-22.261h50.087v50.087l-22.261 16.695h89.044l-22.261-16.695v-50.087z" fill="#d80027"/><path d="m322.783 244.87h-55.653v-55.653h-22.26v55.653h-55.653v22.26h55.653v55.653h22.26v-55.653h55.653z" fill="#f0f0f0"/><g/><g/><g/><g/><g/><g/><g/><g/><g/><g/><g/><g/><g/><g/><g/></svg>