<svg id="Layer_1" enable-background="new 0 0 512 512" viewBox="0 0 512 512" xmlns="http://www.w3.org/2000/svg"><path d="m31.127 133.565 224.873 22.261 224.873-22.261c-43.419-79.576-127.838-133.565-224.873-133.565s-181.454 53.989-224.873 133.565z" fill="#d80027"/><path d="m31.127 378.435 224.873 22.261 224.873-22.261c19.844-36.371 31.127-78.085 31.127-122.435l-256-22.261-256 22.261c0 44.35 11.283 86.064 31.127 122.435z" fill="#ffda44"/><path d="m31.127 133.565c-19.844 36.371-31.127 78.085-31.127 122.435h512c0-44.35-11.283-86.064-31.127-122.435h-224.873z" fill="#0052b4"/><path d="m256 512c97.035 0 181.454-53.989 224.873-133.565h-449.746c43.419 79.576 127.838 133.565 224.873 133.565z" fill="#6da544"/><g/><g/><g/><g/><g/><g/><g/><g/><g/><g/><g/><g/><g/><g/><g/></svg>