<svg id="Layer_1" enable-background="new 0 0 512 512" viewBox="0 0 512 512" xmlns="http://www.w3.org/2000/svg"><circle cx="256" cy="256" fill="#f0f0f0" r="256"/><path d="m512 256c0-101.494-59.065-189.19-144.696-230.598v461.195c85.631-41.407 144.696-129.103 144.696-230.597z" fill="#d80027"/><g fill="#6da544"><path d="m0 256c0 101.494 59.065 189.19 144.696 230.598v-461.196c-85.631 41.408-144.696 129.104-144.696 230.598z"/><path d="m189.217 256c0 36.883 29.9 66.783 66.783 66.783s66.783-29.9 66.783-66.783v-22.261h-133.566z"/></g><path d="m345.043 211.478h-66.783c0-12.294-9.967-22.261-22.261-22.261s-22.261 9.967-22.261 22.261h-66.783c0 12.295 10.709 22.261 23.002 22.261h-.741c0 12.295 9.966 22.261 22.261 22.261 0 12.295 9.966 22.261 22.261 22.261h44.522c12.295 0 22.261-9.966 22.261-22.261 12.295 0 22.261-9.966 22.261-22.261h-.742c12.295 0 23.003-9.966 23.003-22.261z" fill="#ff9811"/><g/><g/><g/><g/><g/><g/><g/><g/><g/><g/><g/><g/><g/><g/><g/></svg>