<svg id="Layer_1" enable-background="new 0 0 512 512" viewBox="0 0 512 512" xmlns="http://www.w3.org/2000/svg"><path d="m367.304 25.402c-33.656-16.274-71.414-25.402-111.304-25.402s-77.648 9.128-111.304 25.402l-22.261 230.598 22.261 230.598c33.656 16.274 71.414 25.402 111.304 25.402s77.648-9.128 111.304-25.402l22.261-230.598z" fill="#ffda44"/><path d="m144.696 25.411c-85.63 41.407-144.696 129.096-144.696 230.589s59.066 189.182 144.696 230.589z" fill="#0052b4"/><path d="m367.304 25.411v461.178c85.63-41.407 144.696-129.096 144.696-230.589s-59.066-189.182-144.696-230.589z" fill="#d80027"/><path d="m345.043 201.419h-61.217c0-15.368-12.458-27.826-27.826-27.826s-27.826 12.458-27.826 27.826h-61.217c0 15.131 13.181 27.396 28.31 27.396h-.912c0 15.132 12.266 27.399 27.398 27.399 0 13.397 9.622 24.529 22.33 26.909l-21.59 48.742c10.345 4.205 21.651 6.542 33.507 6.542 11.855 0 23.162-2.337 33.506-6.542l-21.589-48.742c12.708-2.38 22.33-13.512 22.33-26.909 15.132 0 27.398-12.267 27.398-27.399h-.913c15.131 0 28.311-12.266 28.311-27.396z" fill="#ff9811"/><path d="m256 239.304-36.174 16.696v33.391l36.174 22.261 36.174-22.261v-33.391z" fill="#0052b4"/><path d="m219.826 222.609h72.348v33.391h-72.348z" fill="#d80027"/><g/><g/><g/><g/><g/><g/><g/><g/><g/><g/><g/><g/><g/><g/><g/></svg>