<svg id="Layer_1" enable-background="new 0 0 512 512" viewBox="0 0 512 512" xmlns="http://www.w3.org/2000/svg"><path d="m256 512c31.314 0 61.311-5.632 89.043-15.923l11.131-240.077-11.13-240.077c-27.733-10.29-57.73-15.923-89.044-15.923s-61.311 5.633-89.043 15.923l-11.131 240.077 11.13 240.077c27.733 10.291 57.73 15.923 89.044 15.923z" fill="#0052b4"/><g fill="#a2001d"><path d="m0 256c0 110.071 69.472 203.906 166.957 240.077v-480.154c-97.485 36.171-166.957 130.006-166.957 240.077z"/><path d="m345.043 15.923v480.155c97.485-36.172 166.957-130.007 166.957-240.078s-69.472-203.906-166.957-240.077z"/></g><g fill="#ffda44"><path d="m122.435 256h22.261v89.043h-22.261z"/><path d="m33.391 256h22.261v89.043h-22.261z"/><circle cx="89.043" cy="289.391" r="22.261"/><circle cx="89.043" cy="211.478" r="11.13"/><path d="m66.783 322.783h44.522v22.261h-44.522z"/><path d="m66.783 233.739h44.522v22.261h-44.522z"/><path d="m89.043 133.565 7.884 24.26h25.508l-20.635 14.994 7.878 24.26-20.635-14.994-20.634 14.994 7.878-24.26-20.635-14.994h25.508z"/></g><g/><g/><g/><g/><g/><g/><g/><g/><g/><g/><g/><g/><g/><g/><g/></svg>