<svg id="Layer_1" enable-background="new 0 0 512 512" viewBox="0 0 512 512" xmlns="http://www.w3.org/2000/svg"><circle cx="256" cy="256" fill="#ffda44" r="256"/><path d="m512 256c0-87.861-44.269-165.375-111.713-211.478h-288.574c-67.443 46.103-111.713 123.617-111.713 211.478 0 87.863 44.27 165.375 111.713 211.478h288.574c67.444-46.103 111.713-123.615 111.713-211.478z" fill="#a2001d"/><g fill="#ffda44"><path d="m200.348 189.217h111.304v-44.521l-22.261 11.13-33.391-33.391-33.391 33.391-22.261-11.13z"/><path d="m356.174 256h-55.631c2.182-3.774 3.45-8.141 3.45-12.813 0-14.187-11.501-25.686-25.686-25.686-9.801 0-18.313 5.492-22.644 13.562-4.331-8.071-12.843-13.562-22.644-13.562-14.185 0-25.686 11.499-25.686 25.686 0 4.673 1.27 9.04 3.45 12.813h-54.959c0 17.023 14.827 30.822 31.849 30.822h-1.026c0 13.963 9.287 25.753 22.02 29.54l-25.017 25.019 23.611 23.611 33.493-33.493c1.312.481 2.669.865 4.072 1.129l-20.238 45.695c9.698 3.944 20.297 6.133 31.412 6.133 11.114 0 21.713-2.189 31.412-6.133l-20.238-45.695c1.402-.263 2.759-.648 4.07-1.129l33.493 33.493 23.61-23.611-25.018-25.018c12.732-3.789 22.02-15.577 22.02-29.54h-1.027c17.024-.001 31.852-13.8 31.852-30.823z"/></g><path d="m256 272.696-36.174 16.695v33.392l36.174 22.26 36.174-22.26v-33.392z" fill="#6da544"/><path d="m219.826 256h72.348v44.522h-72.348z" fill="#0052b4"/><g/><g/><g/><g/><g/><g/><g/><g/><g/><g/><g/><g/><g/><g/><g/></svg>