<?xml version="1.0" encoding="UTF-8"?>
<!-- Generator: Adobe Illustrator 25.4.1, SVG Export Plug-In . SVG Version: 6.00 Build 0)  -->
<svg xmlns="http://www.w3.org/2000/svg" xmlns:xlink="http://www.w3.org/1999/xlink" version="1.1" id="Layer_1" x="0px" y="0px" viewBox="0 0 512 512" style="enable-background:new 0 0 512 512;" xml:space="preserve" width="512" height="512">
<style type="text/css">
	.st0{fill:#D80027;}
	.st1{fill:#6DA544;}
</style>
<circle class="st0" cx="256" cy="256" r="256"/>
<path class="st1" d="M407.3,210.1H291.7L256,100.2l-35.7,109.9H104.7l93.5,67.9l-35.7,109.9L256,320l93.5,67.9L313.8,278  L407.3,210.1z M224.4,269.5l12.1-37.2h39.1l12.1,37.2v0l-31.6,23L224.4,269.5L224.4,269.5z M268.3,210.1h-24.6l12.3-37.9  L268.3,210.1z M306.6,255.8l-7.6-23.4h39.8L306.6,255.8z M213.1,232.4l-7.6,23.4l-32.2-23.4H213.1z M204.8,329.7l12.3-37.9  l19.9,14.5L204.8,329.7z M274.9,306.3l19.9-14.5l12.3,37.9L274.9,306.3z"/>
</svg>
