<svg id="Layer_1" enable-background="new 0 0 512 512" viewBox="0 0 512 512" xmlns="http://www.w3.org/2000/svg"><circle cx="256" cy="256" fill="#f0f0f0" r="256"/><path d="m138.371 356.174-63.382 80.837c46.324 46.33 110.317 74.989 181.011 74.989 105.83 0 196.644-64.229 235.631-155.826z" fill="#ffda44"/><path d="m492.029 156.753c-38.769-92.091-129.841-156.753-236.029-156.753-70.694 0-134.687 28.659-181.011 74.989l64.11 81.764z" fill="#496e2d"/><path d="m55.652 188.29v134.492h447.53c5.742-21.291 8.818-43.675 8.818-66.782 0-23.442-3.158-46.142-9.061-67.71z"/><path d="m74.98 74.98c-99.974 99.974-99.974 262.065 0 362.04 41.313-41.313 81.046-81.046 181.02-181.02z" fill="#a2001d"/><path d="m103.61 189.217 16.575 51.016h53.646l-43.398 31.532 16.574 51.018-43.397-31.531-43.399 31.531 16.578-51.018-43.398-31.532h53.642z" fill="#ffda44"/><path d="m55.107 256h97.024v44.522h-97.024z" fill="#f0f0f0"/><path d="m170.5 204.959-15.741-15.742-51.148 51.148-51.148-51.148-15.741 15.742 51.193 51.102-51.193 51.194 15.741 15.528 51.148-51.056 51.148 51.056 15.741-15.528-51.193-51.194z"/><g/><g/><g/><g/><g/><g/><g/><g/><g/><g/><g/><g/><g/><g/><g/></svg>