<svg id="Layer_1" enable-background="new 0 0 512 512" viewBox="0 0 512 512" xmlns="http://www.w3.org/2000/svg"><circle cx="256" cy="256" fill="#0052b4" r="256"/><circle cx="256" cy="256" fill="#ffda44" r="256"/><g fill="#0052b4"><path d="m256 0c-133.884 0-243.742 102.781-255.025 233.739h510.051c-11.284-130.958-121.142-233.739-255.026-233.739z"/><path d="m256 512c133.884 0 243.742-102.781 255.026-233.739h-510.051c11.283 130.958 121.141 233.739 255.025 233.739z"/></g><path d="m211.479 345.043-28.686 13.494 15.275 27.781-31.149-5.959-3.947 31.467-21.697-23.143-21.696 23.143-3.947-31.467-31.15 5.958 15.276-27.781-28.686-13.493 28.687-13.493-15.277-27.78 31.149 5.958 3.949-31.467 21.695 23.143 21.698-23.143 3.946 31.467 31.15-5.958-15.275 27.781z" fill="#f0f0f0"/><g/><g/><g/><g/><g/><g/><g/><g/><g/><g/><g/><g/><g/><g/><g/></svg>