<svg id="Layer_1" enable-background="new 0 0 512 512" viewBox="0 0 512 512" xmlns="http://www.w3.org/2000/svg"><path d="m256 0c-.016 0-.028 0-.043 0z" fill="#f0f0f0"/><path d="m512 256c0 141.384-114.616 256-256 256s-256-114.616-256-256c0 .061 256-255.972 256-256 141.384 0 256 114.616 256 256z" fill="#ffda44"/><g fill="#0052b4"><path d="m256 122.435v86.343l-89.043-86.343z"/><path d="m133.565 256h75.211l-75.211-100.174-11.13 77.913z"/></g><g fill="#f0f0f0"><path d="m255.315 256h.685c0-.23 0-.454 0-.685-.228.229-.456.457-.685.685z"/><path d="m256 133.565c0-45.045 0-74.56 0-133.565h-.043c-141.366.024-255.957 114.629-255.957 256h133.565v-75.211l75.211 75.211h46.54c.228-.228.456-.456.685-.685 0-17.247 0-32.636 0-46.537l-75.213-75.213z"/></g><g fill="#d80027"><path d="m256 224.519-90.955-90.953h-31.48v.002l122.433 122.432h.002s0-21.707 0-31.481z"/><path d="m129.515 33.391c-9.869 5.62-19.324 11.883-28.316 18.72h10.504l-27.762 20.174 10.602 32.637-27.762-20.17-2.954 2.147c-11.527 13.09-21.747 27.358-30.436 42.616v126.485h66.783v-155.824-.002h155.826c0-21.063 0-41.129 0-66.783z"/></g><path d="m109.36 46.152c-2.761 1.933-5.483 3.92-8.164 5.959l-17.255 20.174-17.16 12.466-2.979 2.164c-6.286 7.14-12.181 14.632-17.651 22.445 6.235 3.026 13.234 4.727 20.63 4.727 26.126 0 47.304-21.178 47.304-47.304.002-7.398-1.698-14.395-4.725-20.631z" fill="#0052b4"/><g fill="#ffda44"><path d="m63.803 86.915 2.979-2.164 27.762 20.171-10.603-32.637 27.76-20.174h-10.506c-13.594 10.339-26.121 22.003-37.392 34.804z"/><path d="m176.942 44.522 5.526 17.005h17.88l-14.465 10.511 5.523 17.005-14.464-10.51-14.465 10.51 5.522-17.005-14.465-10.511h17.881z"/><path d="m66.783 155.826 5.526 17.005h17.88l-14.464 10.512 5.523 17.005-14.465-10.511-14.466 10.511 5.523-17.005-14.464-10.512h17.88z"/></g><g/><g/><g/><g/><g/><g/><g/><g/><g/><g/><g/><g/><g/><g/><g/></svg>