<svg id="Layer_1" enable-background="new 0 0 512 512" viewBox="0 0 512 512" xmlns="http://www.w3.org/2000/svg"><circle cx="256" cy="256" fill="#f0f0f0" r="256"/><g fill="#0052b4"><path d="m256 0c-77.591 0-147.114 34.524-194.061 89.043h388.121c-46.946-54.519-116.469-89.043-194.06-89.043z"/><path d="m450.061 422.957h-388.122c46.947 54.519 116.47 89.043 194.061 89.043s147.114-34.524 194.061-89.043z"/></g><path d="m474.426 122.435h-436.852c-23.829 38.885-37.574 84.618-37.574 133.565s13.745 94.681 37.574 133.565h436.852c23.829-38.884 37.574-84.618 37.574-133.565s-13.745-94.68-37.574-133.565z" fill="#d80027"/><circle cx="157.496" cy="256" fill="#f0f0f0" r="98.504"/><path d="m157.496 157.496 22.101 68.021h71.638l-57.977 42.042 22.274 68.224-58.036-42.242-57.948 42.163 22.186-68.145-57.925-42.042h71.585z" fill="#d80027"/><g/><g/><g/><g/><g/><g/><g/><g/><g/><g/><g/><g/><g/><g/><g/></svg>