<svg id="Layer_1" enable-background="new 0 0 512 512" viewBox="0 0 512 512" xmlns="http://www.w3.org/2000/svg"><circle cx="256" cy="256" fill="#f0f0f0" r="256"/><g fill="#d80027"><path d="m0 256c0 97.035 53.99 181.455 133.565 224.873v-449.746c-79.575 43.418-133.565 127.838-133.565 224.873z"/><path d="m496.078 345.043c10.29-27.733 15.922-57.729 15.922-89.043s-5.632-61.311-15.922-89.043h-480.154c-10.291 27.732-15.924 57.729-15.924 89.043s5.633 61.31 15.924 89.043l240.076 22.261z"/></g><path d="m256 512c110.072 0 203.906-69.472 240.078-166.957h-480.154c36.17 97.485 130.006 166.957 240.076 166.957z" fill="#6da544"/><path d="m0 256c0 118.279 80.221 217.805 189.217 247.181v-494.362c-108.996 29.376-189.217 128.902-189.217 247.181z" fill="#d80027"/><path d="m156.617 112.654-23.611-23.611-15.74 15.742-15.74-15.742-23.611 23.611 15.741 15.741-15.743 15.742 23.611 23.611 15.741-15.742 15.741 15.742 23.611-23.611-15.741-15.742z" fill="#f0f0f0"/><g/><g/><g/><g/><g/><g/><g/><g/><g/><g/><g/><g/><g/><g/><g/></svg>