<svg id="Layer_1" enable-background="new 0 0 512 512" viewBox="0 0 512 512" xmlns="http://www.w3.org/2000/svg"><circle cx="256" cy="256" fill="#f0f0f0" r="256"/><path d="m256 0v256l-181.02 181.02c46.327 46.326 110.327 74.98 181.02 74.98 141.384 0 256-114.616 256-256s-256-256-256-256z" fill="#d80027"/><path d="m256 0c-70.693 0-134.693 28.654-181.02 74.98 62.81 62.81 85.107 85.108 181.02 181.02h256c0-141.384-114.616-256-256-256z" fill="#0052b4"/><g fill="#ffda44"><path d="m175.291 256-31.264-14.706 16.649-30.279-33.95 6.495-4.302-34.297-23.648 25.224-23.647-25.224-4.303 34.297-33.949-6.496 16.649 30.28-31.265 14.706 31.265 14.706-16.649 30.279 33.952-6.494 4.299 34.296 23.648-25.224 23.648 25.224 4.302-34.296 33.948 6.495-16.648-30.279z"/><path d="m68.273 100.174 10.404 14.543 17.045-5.399-10.618 14.388 10.404 14.543-16.966-5.651-10.617 14.387.133-17.88-16.965-5.652 17.048-5.399z"/><path d="m68.273 365.015 10.404 14.543 17.045-5.4-10.618 14.389 10.404 14.543-16.966-5.651-10.617 14.387.133-17.88-16.965-5.652 17.048-5.399z"/><path d="m216.666 232.595-10.403 14.543-17.046-5.401 10.618 14.389-10.404 14.544 16.966-5.652 10.618 14.387-.134-17.879 16.965-5.652-17.047-5.399z"/></g><g/><g/><g/><g/><g/><g/><g/><g/><g/><g/><g/><g/><g/><g/><g/></svg>