<svg id="Layer_1" enable-background="new 0 0 512 512" viewBox="0 0 512 512" xmlns="http://www.w3.org/2000/svg"><path d="m0 256c0 110.07 69.472 203.905 166.955 240.076l22.262-240.077-22.262-240.076c-97.483 36.172-166.955 130.006-166.955 240.077z" fill="#6da544"/><path d="m512 256c0-141.384-114.616-256-256-256-31.314 0-61.311 5.633-89.045 15.923v480.154c27.734 10.291 57.731 15.923 89.045 15.923 141.384 0 256-114.616 256-256z" fill="#d80027"/><circle cx="166.957" cy="256" fill="#ffda44" r="89.043"/><path d="m116.87 211.478v55.652c0 27.662 22.424 50.087 50.087 50.087s50.087-22.424 50.087-50.087v-55.652z" fill="#d80027"/><path d="m166.957 283.826c-9.206 0-16.696-7.49-16.696-16.696v-22.26h33.391v22.261c0 9.205-7.49 16.695-16.695 16.695z" fill="#f0f0f0"/><g/><g/><g/><g/><g/><g/><g/><g/><g/><g/><g/><g/><g/><g/><g/></svg>