<svg id="Layer_1" enable-background="new 0 0 512 512" viewBox="0 0 512 512" xmlns="http://www.w3.org/2000/svg"><circle cx="256" cy="256" fill="#f0f0f0" r="256"/><g fill="#d80027"><path d="m256 0c-83.752 0-158.107 40.223-204.811 102.4h409.622c-46.704-62.177-121.059-102.4-204.811-102.4z"/><path d="m256 512c83.752 0 158.107-40.223 204.811-102.4h-409.622c46.704 62.177 121.059 102.4 204.811 102.4z"/><path d="m0 256c0 17.535 1.768 34.657 5.127 51.2h501.748c3.359-16.543 5.125-33.665 5.125-51.2s-1.768-34.657-5.126-51.2h-501.747c-3.359 16.543-5.127 33.665-5.127 51.2z"/></g><path d="m74.98 74.98c-99.974 99.974-99.974 262.065 0 362.04 41.313-41.313 81.046-81.046 181.02-181.02z" fill="#0052b4"/><path d="m103.61 189.217 16.575 51.016h53.646l-43.398 31.532 16.574 51.018-43.397-31.531-43.399 31.531 16.578-51.018-43.398-31.532h53.642z" fill="#f0f0f0"/><g/><g/><g/><g/><g/><g/><g/><g/><g/><g/><g/><g/><g/><g/><g/></svg>