<svg id="Layer_1" enable-background="new 0 0 512 512" viewBox="0 0 512 512" xmlns="http://www.w3.org/2000/svg"><circle cx="256" cy="256" fill="#ffda44" r="256"/><g fill="#d80027"><path d="m294.932 509.057c41.636-6.352 79.962-22.748 112.456-46.618l-151.388-206.439z"/><path d="m217.067 2.943c-41.635 6.352-79.961 22.748-112.457 46.617l151.39 206.44z"/><path d="m104.61 462.439c32.494 23.869 70.82 40.265 112.455 46.619l38.935-253.058z"/><path d="m49.56 104.61c-23.87 32.496-40.264 70.821-46.617 112.457l253.057 38.933z"/><path d="m2.943 294.932c6.352 41.636 22.748 79.962 46.618 112.456l206.439-151.388z"/><path d="m509.057 217.067c-6.353-41.635-22.748-79.961-46.618-112.456l-206.439 151.389z"/><path d="m407.388 49.559c-32.495-23.869-70.82-40.264-112.456-46.616l-38.932 253.057z"/><path d="m462.441 407.389c23.869-32.495 40.264-70.822 46.618-112.456l-253.059-38.933z"/><circle cx="256" cy="256" r="89.043"/></g><circle cx="256" cy="256" fill="#ffda44" r="66.783"/><g/><g/><g/><g/><g/><g/><g/><g/><g/><g/><g/><g/><g/><g/><g/></svg>