<svg id="Layer_1" enable-background="new 0 0 512 512" viewBox="0 0 512 512" xmlns="http://www.w3.org/2000/svg"><path d="m0 256c0 44.35 11.283 86.064 31.127 122.435l224.873 22.261 224.873-22.261c19.844-36.371 31.127-78.085 31.127-122.435l-256-22.261z" fill="#ffda44"/><path d="m480.873 133.565c-43.419-79.576-127.838-133.565-224.873-133.565s-181.454 53.989-224.873 133.565c-19.844 36.371-31.127 78.085-31.127 122.435h512c0-44.35-11.283-86.064-31.127-122.435z" fill="#338af3"/><path d="m256 512c97.035 0 181.454-53.989 224.873-133.565h-449.746c43.419 79.576 127.838 133.565 224.873 133.565z" fill="#496e2d"/><path d="m289.391 149.821 31.266 14.707-16.649 30.28 33.95-6.494 4.302 34.295 23.646-25.224 23.648 25.224 4.301-34.295 33.95 6.492-16.648-30.279 31.264-14.706-31.265-14.705 16.649-30.28-33.949 6.494-4.303-34.295-23.647 25.224-23.647-25.224-4.301 34.295-33.951-6.494 16.649 30.281z" fill="#ffda44"/><g/><g/><g/><g/><g/><g/><g/><g/><g/><g/><g/><g/><g/><g/><g/></svg>