<svg id="Layer_1" enable-background="new 0 0 511.999 511.999" viewBox="0 0 511.999 511.999" xmlns="http://www.w3.org/2000/svg"><circle cx="255.999" cy="255.999" fill="#ffda44" r="255.999"/><path d="m74.98 437.019c10.739 10.739 22.198 20.317 34.217 28.748l356.568-356.568c-8.431-12.02-18.008-23.478-28.748-34.217-10.739-10.739-22.197-20.314-34.216-28.747l-356.566 356.569c8.43 12.019 18.006 23.476 28.745 34.215z"/><path d="m74.981 74.98c-80.763 80.763-96.268 202.056-46.544 298.397l344.94-344.939c-96.341-49.723-217.636-34.218-298.396 46.542z" fill="#6da544"/><path d="m437.018 437.019c80.762-80.761 96.266-202.054 46.545-298.397l-344.943 344.942c96.342 49.722 217.635 34.218 298.398-46.545z" fill="#d80027"/><g fill="#f0f0f0"><path d="m162.77 302.008 23.898 12.177 18.966-18.965-4.196 26.489 23.897 12.178-26.491 4.195-4.196 26.491-12.176-23.898-26.49 4.196 18.965-18.965z"/><path d="m302.007 162.771 23.897 12.177 18.966-18.965-4.195 26.489 23.897 12.178-26.491 4.196-4.195 26.49-12.177-23.897-26.49 4.195 18.965-18.965z"/></g><g/><g/><g/><g/><g/><g/><g/><g/><g/><g/><g/><g/><g/><g/><g/></svg>