<svg id="Layer_1" enable-background="new 0 0 512 512" viewBox="0 0 512 512" xmlns="http://www.w3.org/2000/svg"><path d="m367.304 25.402c-33.656-16.274-71.414-25.402-111.304-25.402s-77.648 9.128-111.304 25.402l-22.261 230.598 22.261 230.598c33.656 16.274 71.414 25.402 111.304 25.402s77.648-9.128 111.304-25.402l22.261-230.598z" fill="#ffda44"/><g fill="#496e2d"><path d="m255.998 166.957 22.1 68.02h71.528l-57.864 42.043 22.101 68.023-57.865-42.04-57.865 42.04 22.105-68.023-57.864-42.043h71.523z"/><path d="m144.696 25.411c-85.63 41.407-144.696 129.096-144.696 230.589s59.066 189.182 144.696 230.589z"/></g><path d="m367.304 25.411v461.178c85.63-41.407 144.696-129.096 144.696-230.589s-59.066-189.182-144.696-230.589z" fill="#d80027"/><g/><g/><g/><g/><g/><g/><g/><g/><g/><g/><g/><g/><g/><g/><g/></svg>