<svg id="Layer_1" enable-background="new 0 0 512 512" viewBox="0 0 512 512" xmlns="http://www.w3.org/2000/svg"><circle cx="256" cy="256" fill="#f0f0f0" r="256"/><path d="m428.809 67.137c-45.54-41.692-106.201-67.137-172.809-67.137-10.904 0-21.649.687-32.195 2.01l-123.631 142.686-92.073 175.435c5.948 23.061 15.042 44.855 26.775 64.917l221.124-129.048z" fill="#ffda44"/><path d="m469.131 397.838-358.168 69.12c41.229 28.401 91.187 45.042 145.037 45.042 88.921 0 167.24-45.343 213.131-114.162z" fill="#6da544"/><path d="m428.845 67.171-393.823 318.125c10.301 17.568 22.634 33.799 36.681 48.368l440.297-177.664c0-74.759-32.051-142.027-83.155-188.829z" fill="#d80027"/><path d="m0 256c0 22.147 2.814 43.636 8.101 64.131l215.704-318.121c-126.187 15.834-223.805 123.51-223.805 253.99z" fill="#0052b4"/><g/><g/><g/><g/><g/><g/><g/><g/><g/><g/><g/><g/><g/><g/><g/></svg>