<svg id="Layer_1" enable-background="new 0 0 512 512" viewBox="0 0 512 512" xmlns="http://www.w3.org/2000/svg"><path d="m233.739 278.261s-158.609-203.316-158.759-203.28c46.326-46.327 110.327-74.981 181.02-74.981 141.384 0 256 114.616 256 256z" fill="#d80027"/><path d="m233.739 256s-158.609 181.055-158.759 181.019c46.326 46.327 110.327 74.981 181.02 74.981 141.384 0 256-114.616 256-256z" fill="#0052b4"/><path d="m74.98 74.98c-99.974 99.974-99.974 262.065 0 362.04 41.313-41.313 81.046-81.046 181.02-181.02z" fill="#f0f0f0"/><g fill="#ffda44"><path d="m28.061 256.001c-.14 1.838-.235 3.69-.235 5.564 0 39.956 32.392 72.348 72.348 72.348s72.348-32.392 72.348-72.348c0-1.874-.095-3.727-.235-5.564z"/><circle cx="100.174" cy="200.348" r="22.261"/></g><path d="m50.087 194.783v72.348c0 38.34 50.087 50.087 50.087 50.087s50.087-11.747 50.087-50.087v-72.348z" fill="#d80027"/><path d="m100.198 293.92c-9.292-3.344-27.851-11.89-27.851-26.79v-50.087h55.653v50.087c0 14.949-18.557 23.474-27.802 26.79z" fill="#338af3"/><path d="m111.304 244.87v-11.131l-11.13-5.565-11.131 5.565v11.131l-5.565 5.565v22.261h33.392v-22.261z" fill="#f3f3f3"/><g/><g/><g/><g/><g/><g/><g/><g/><g/><g/><g/><g/><g/><g/><g/></svg>