<svg id="Layer_1" enable-background="new 0 0 512 512" viewBox="0 0 512 512" xmlns="http://www.w3.org/2000/svg"><path id="SVGCleanerId_0" d="m111.713 467.478c41.086 28.085 90.763 44.522 144.287 44.522s103.202-16.437 144.287-44.522l-144.287-22.261z" fill="#d80027"/><path id="SVGCleanerId_1" d="m400.287 44.522c-41.085-28.085-90.763-44.522-144.287-44.522s-103.203 16.437-144.287 44.522l144.287 22.261z" fill="#d80027"/><g><path id="SVGCleanerId_0_1_" d="m111.713 467.478c41.086 28.085 90.763 44.522 144.287 44.522s103.202-16.437 144.287-44.522l-144.287-22.261z" fill="#d80027"/></g><g><path id="SVGCleanerId_1_1_" d="m400.287 44.522c-41.085-28.085-90.763-44.522-144.287-44.522s-103.203 16.437-144.287 44.522l144.287 22.261z" fill="#d80027"/></g><g fill="#0052b4"><path d="m511.348 239.304c-6.065-79.01-54.072-155.826-111.061-194.783h-288.574c-63.136 43.161-105.963 113.849-111.175 194.783l255.462 16.696z"/><path d="m.538 272.696c5.212 80.935 48.038 151.622 111.174 194.783h288.574c63.139-43.16 105.963-113.848 111.175-194.783l-255.461-16.696z"/></g><path d="m511.348 239.303h-238.652v-205.912h-33.391v205.912h-238.766c-.355 5.52-.539 11.087-.539 16.697 0 5.609.183 11.175.538 16.695h238.767v205.914h33.391v-205.914h238.767c.354-5.52.537-11.086.537-16.695 0-5.569-.225-11.138-.652-16.697z" fill="#d80027"/><path d="m100.174 256 155.825-97.942 155.827 97.942-155.827 97.943z" fill="#f0f0f0"/><path d="m166.957 300.522h200.347l-44.521-66.783-22.261 22.261-22.261-11.13-22.261 33.391h-44.522l-22.261-22.261z" fill="#6da544"/><path d="m256 189.217 5.526 17.005h17.879l-14.465 10.511 5.526 17.006-14.466-10.51-14.466 10.51 5.526-17.006-14.465-10.511h17.879z" fill="#ffda44"/><path d="m255.999 130.074-200.347 125.926 200.347 125.926 200.349-125.926zm-137.599 125.926 137.599-86.487 137.601 86.487-137.601 86.487z" fill="#d80027"/><g/><g/><g/><g/><g/><g/><g/><g/><g/><g/><g/><g/><g/><g/><g/></svg>