<svg id="Layer_1" enable-background="new 0 0 512 512" viewBox="0 0 512 512" xmlns="http://www.w3.org/2000/svg"><circle cx="256" cy="256" fill="#f0f0f0" r="256"/><path d="m492.029 156.753c-38.769-92.091-129.841-156.753-236.029-156.753-70.694 0-134.687 28.659-181.011 74.989l64.11 81.764z"/><path d="m139.826 354.32-64.837 82.691c46.324 46.33 110.317 74.989 181.011 74.989 106.546 0 197.878-65.094 236.424-157.68z" fill="#496e2d"/><path d="m55.652 188.29v134.492h447.53c5.742-21.291 8.818-43.675 8.818-66.782 0-23.442-3.158-46.142-9.061-67.71z" fill="#a2001d"/><path d="m74.98 74.98c-99.974 99.974-99.974 262.065 0 362.04 41.313-41.313 81.046-81.046 181.02-181.02z" fill="#0052b4"/><path d="m83.386 192.352 31.245 43.601 51.128-16.245-31.811 43.193 31.245 43.603-50.908-16.907-31.812 43.192.35-53.643-50.91-16.909 51.124-16.244z" fill="#ffda44"/><g/><g/><g/><g/><g/><g/><g/><g/><g/><g/><g/><g/><g/><g/><g/></svg>