<svg id="Layer_1" enable-background="new 0 0 511.999 511.999" viewBox="0 0 511.999 511.999" xmlns="http://www.w3.org/2000/svg"><path d="m.001 44.522h-.001v422.955h.001v-211.476z" fill="#ff9811"/><circle cx="255.999" cy="255.999" fill="#ffda44" r="255.999"/><path d="m200.349 44.522h-88.635c-3.928 2.685-7.772 5.48-11.539 8.373l-22.261 203.104 22.261 203.104c3.767 2.894 7.611 5.689 11.539 8.373h88.635z" fill="#ff9811"/><path d="m.001 256.001c0 82.745 39.268 156.307 100.174 203.104v-406.209c-60.906 46.798-100.174 120.36-100.174 203.105z" fill="#6da544"/><path d="m411.826 156.064v6.405l.238.036z" fill="#ffda44"/><path d="m491.595 322.782h-48.233l-20.405 22.261v44.522h-44.522v-22.261h22.261v-44.522h-100.174v27.826h-22.261v-53.031c-6.83-6.114-11.13-14.995-11.13-24.882v-144.695c0-18.441 14.95-33.391 33.391-33.391v205.913h44.522l15.276-12.731c-2.668-6.355-4.146-13.334-4.146-20.66v-33.391h-33.391v-66.782h66.782c0-11.13 16.696-22.261 16.696-22.261s16.696 11.13 16.696 22.261v16.696 50.087c12.383.147 32.057-.174 53.312 0-5.584-9.76-8.791-21.341-8.791-33.391 0-19.641 8.48-37.299 21.978-49.519-19.456-43.115-50.502-79.877-89.169-106.309h-166.547v422.956h166.548c47.019-32.141 82.768-79.552 100.112-135.09z" fill="#a2001d"/><g/><g/><g/><g/><g/><g/><g/><g/><g/><g/><g/><g/><g/><g/><g/></svg>