<svg id="Layer_1" enable-background="new 0 0 512 512" viewBox="0 0 512 512" xmlns="http://www.w3.org/2000/svg"><path d="m378.435 31.127c-36.371-19.844-78.085-31.127-122.435-31.127s-86.064 11.283-122.435 31.127l-22.261 224.873 22.261 224.873c36.371 19.844 78.085 31.127 122.435 31.127s86.064-11.283 122.435-31.127l22.261-224.873z" fill="#ffda44"/><path d="m133.565 480.871v-449.745c-79.576 43.42-133.565 127.839-133.565 224.874s53.989 181.454 133.565 224.871z" fill="#338af3"/><g fill="#6da544"><path d="m512 256c0-97.035-53.989-181.454-133.565-224.874v449.745c79.576-43.417 133.565-127.836 133.565-224.871z"/><path d="m200.348 322.783-44.523-66.783 44.522-66.783 44.524 66.783z"/><path d="m311.652 322.783-44.522-66.783 44.522-66.783 44.522 66.783z"/><path d="m256 411.826-44.522-66.783 44.522-66.782 44.522 66.782z"/></g><g/><g/><g/><g/><g/><g/><g/><g/><g/><g/><g/><g/><g/><g/><g/></svg>