<svg id="Layer_1" enable-background="new 0 0 512 512" viewBox="0 0 512 512" xmlns="http://www.w3.org/2000/svg"><path d="m25.402 144.696c-16.274 33.656-25.402 71.413-25.402 111.304s9.128 77.648 25.402 111.304l230.598 22.261 230.598-22.261c16.274-33.656 25.402-71.413 25.402-111.304s-9.128-77.648-25.402-111.304l-230.598-22.261z" fill="#f0f0f0"/><path d="m25.411 367.304c41.406 85.631 129.095 144.696 230.589 144.696s189.183-59.065 230.589-144.696z"/><path d="m25.411 144.696h461.178c-41.406-85.631-129.095-144.696-230.589-144.696s-189.183 59.065-230.589 144.696z" fill="#d80027"/><path d="m74.98 74.98c-99.974 99.974-99.974 262.065 0 362.04 41.313-41.313 81.046-81.046 181.02-181.02z" fill="#496e2d"/><g/><g/><g/><g/><g/><g/><g/><g/><g/><g/><g/><g/><g/><g/><g/></svg>