<svg id="Layer_1" enable-background="new 0 0 512 512" viewBox="0 0 512 512" xmlns="http://www.w3.org/2000/svg"><circle cx="256" cy="256" fill="#f0f0f0" r="256"/><path d="m256 0c-110.071 0-203.906 69.472-240.077 166.957h480.155c-36.172-97.485-130.007-166.957-240.078-166.957z" fill="#d80027"/><path d="m256 512c110.071 0 203.906-69.472 240.077-166.957h-480.154c36.171 97.485 130.006 166.957 240.077 166.957z"/><g fill="#6da544"><path d="m152.962 194.783 13.813 42.512h44.703l-36.165 26.278 13.814 42.514-36.165-26.275-36.165 26.275 13.814-42.514-36.165-26.278h44.703z"/><path d="m359.038 194.783 13.813 42.512h44.704l-36.166 26.278 13.814 42.514-36.165-26.275-36.165 26.275 13.814-42.514-36.165-26.278h44.703z"/></g><g/><g/><g/><g/><g/><g/><g/><g/><g/><g/><g/><g/><g/><g/><g/></svg>