<svg id="Layer_1" enable-background="new 0 0 512 512" viewBox="0 0 512 512" xmlns="http://www.w3.org/2000/svg"><path d="m512 256c0 141.384-114.616 256-256 256s-256-114.616-256-256c87.93-87.93 162.504-162.504 256-256 141.384 0 256 114.616 256 256z" fill="#d80027"/><path d="m256 256c0-141.384 0-158.052 0-256-141.384 0-256 114.616-256 256z" fill="#0052b4"/><path d="m222.609 149.821-31.265 14.708 16.648 30.279-33.949-6.496-4.303 34.297-23.646-25.224-23.648 25.224-4.301-34.297-33.95 6.494 16.648-30.279-31.264-14.706 31.265-14.705-16.649-30.28 33.949 6.495 4.303-34.296 23.647 25.224 23.647-25.224 4.302 34.296 33.95-6.495-16.649 30.281z" fill="#f0f0f0"/><circle cx="146.098" cy="149.816" fill="#0052b4" r="47.653"/><path d="m146.094 175.213c-14.001 0-25.391-11.391-25.391-25.392s11.391-25.392 25.391-25.392c14.001 0 25.392 11.391 25.392 25.392-.001 14.001-11.393 25.392-25.392 25.392z" fill="#f0f0f0"/><g/><g/><g/><g/><g/><g/><g/><g/><g/><g/><g/><g/><g/><g/><g/></svg>