<svg id="Layer_1" enable-background="new 0 0 512 512" viewBox="0 0 512 512" xmlns="http://www.w3.org/2000/svg"><path d="m25.402 144.696c-16.274 33.656-25.402 71.414-25.402 111.304s9.128 77.648 25.402 111.304l230.598 22.261 230.598-22.261c16.274-33.656 25.402-71.414 25.402-111.304s-9.128-77.648-25.402-111.304l-230.598-22.261z" fill="#f0f0f0"/><path d="m25.411 367.304c41.407 85.63 129.096 144.696 230.589 144.696s189.183-59.066 230.589-144.696z" fill="#6da544"/><path d="m25.411 144.696h461.178c-41.406-85.63-129.096-144.696-230.589-144.696s-189.182 59.066-230.589 144.696z" fill="#d80027"/><g fill="#ffda44"><path d="m211.478 322.783h89.044v-37.844l-17.809 8.904-26.713-26.713-26.713 26.713-17.809-8.904z"/><path d="m160.532 278.261 4.145 12.754h13.41l-10.85 7.883 4.145 12.754-10.85-7.882-10.85 7.882 4.145-12.754-10.85-7.883h13.41z"/><path d="m173.381 233.739 4.145 12.754h13.41l-10.85 7.883 4.144 12.754-10.849-7.882-10.85 7.882 4.145-12.754-10.85-7.883h13.41z"/><path d="m210.113 200.348 4.145 12.754h13.409l-10.848 7.883 4.143 12.754-10.849-7.882-10.849 7.882 4.144-12.754-10.85-7.883h13.411z"/><path d="m351.468 278.261-4.145 12.754h-13.41l10.85 7.883-4.145 12.754 10.85-7.882 10.849 7.882-4.144-12.754 10.85-7.883h-13.41z"/><path d="m338.619 233.739-4.145 12.754h-13.41l10.85 7.883-4.145 12.754 10.85-7.882 10.85 7.882-4.145-12.754 10.85-7.883h-13.41z"/><path d="m301.887 200.348-4.145 12.754h-13.409l10.848 7.883-4.144 12.754 10.85-7.882 10.849 7.882-4.144-12.754 10.849-7.883h-13.41z"/><path d="m256 183.651 4.145 12.754h13.41l-10.85 7.883 4.145 12.754-10.85-7.882-10.85 7.882 4.145-12.754-10.85-7.883h13.41z"/></g><g/><g/><g/><g/><g/><g/><g/><g/><g/><g/><g/><g/><g/><g/><g/></svg>