<svg id="Layer_1" enable-background="new 0 0 512 512" viewBox="0 0 512 512" xmlns="http://www.w3.org/2000/svg"><circle cx="256" cy="256" fill="#338af3" r="256"/><g fill="#f0f0f0"><path d="m255.26 166.957c-49.179 0-89.043 39.866-89.043 89.043s39.865 89.043 89.043 89.043c49.176 0 89.043-39.866 89.043-89.043s-39.868-89.043-89.043-89.043zm-22.261 89.043c0-12.294 9.966-22.261 22.261-22.261 12.294 0 22.261 9.967 22.261 22.261 0 12.295-9.967 22.261-22.261 22.261-12.295 0-22.261-9.966-22.261-22.261zm45.341-38.079c-3.455-2.099-7.221-3.729-11.209-4.83v-22.8c10.041 1.802 19.299 5.841 27.245 11.595zm-33.469-5.211c-4.177.999-8.123 2.586-11.749 4.669l-16.11-16.11c8.144-5.702 17.612-9.641 27.859-11.244zm-11.75 81.911c3.626 2.082 7.572 3.67 11.749 4.668v22.684c-10.248-1.601-19.714-5.542-27.858-11.244zm34.011 4.288c3.987-1.101 7.755-2.73 11.208-4.829l16.035 16.035c-7.946 5.753-17.203 9.793-27.244 11.595v-22.8h.001zm26.748-20.769c1.961-3.413 3.494-7.105 4.499-11.009h22.722c-1.672 9.962-5.546 19.171-11.11 27.117zm4.499-33.27c-1.005-3.905-2.538-7.594-4.499-11.008l16.11-16.11c5.564 7.947 9.439 17.155 11.11 27.117h-22.722v.001zm-97.234-27.985 16.035 16.035c-2.229 3.67-3.942 7.686-5.04 11.95h-22.722c1.733-10.326 5.832-19.844 11.727-27.985zm-11.727 50.245h22.722c1.097 4.264 2.81 8.28 5.04 11.95l-16.035 16.035c-5.895-8.141-9.994-17.658-11.727-27.985z"/><path d="m399.955 256c0-39.58-15.898-75.441-41.648-101.565l-23.611 23.611c19.708 20.08 31.868 47.596 31.868 77.954 0 61.472-49.833 111.304-111.304 111.304-61.473 0-111.304-49.832-111.304-111.304 0-30.737 12.457-58.563 32.6-78.704l-23.611-23.611c-26.185 26.185-42.38 62.359-42.38 102.315 0 66.215 44.477 122.042 105.186 139.235-6.656 12.644-5.642 28.563 3.866 40.428 12.488-10.008 25.417-20.37 36.385-29.158 10.968 8.789 23.898 19.15 36.385 29.158 9.602-11.983 10.547-28.104 3.67-40.809 60.045-17.615 103.898-73.109 103.898-138.854z"/></g><g/><g/><g/><g/><g/><g/><g/><g/><g/><g/><g/><g/><g/><g/><g/></svg>