<svg id="Layer_1" enable-background="new 0 0 512 512" viewBox="0 0 512 512" xmlns="http://www.w3.org/2000/svg"><circle cx="256" cy="256" fill="#f0f0f0" r="256"/><path id="SVGCleanerId_0" d="m256 189.217h247.181c-6.419-23.814-16.175-46.255-28.755-66.783h-218.426z" fill="#338af3"/><g fill="#338af3"><path d="m96.643 456.348h318.713c23.363-18.608 43.399-41.21 59.069-66.783h-436.851c15.671 25.572 35.707 48.175 59.069 66.783z"/><path d="m256 0v55.652h159.357c-43.73-34.828-99.108-55.652-159.357-55.652z"/></g><g><path id="SVGCleanerId_0_1_" d="m256 189.217h247.181c-6.419-23.814-16.175-46.255-28.755-66.783h-218.426z" fill="#338af3"/></g><path d="m0 256c0 23.107 3.08 45.489 8.819 66.783h494.363c5.738-21.294 8.818-43.676 8.818-66.783z" fill="#338af3"/><path d="m222.609 149.821-31.266 14.707 16.649 30.28-33.95-6.494-4.302 34.295-23.646-25.224-23.648 25.224-4.301-34.295-33.95 6.492 16.648-30.279-31.264-14.706 31.265-14.705-16.649-30.28 33.949 6.494 4.303-34.295 23.647 25.224 23.647-25.224 4.301 34.295 33.951-6.494-16.649 30.281z" fill="#ffda44"/><g/><g/><g/><g/><g/><g/><g/><g/><g/><g/><g/><g/><g/><g/><g/></svg>