<svg id="Layer_1" enable-background="new 0 0 512 512" viewBox="0 0 512 512" xmlns="http://www.w3.org/2000/svg"><circle cx="256" cy="256" fill="#fcfcfc" r="256"/><g fill="#ffda44"><path d="m299.479 178.846c0-24.012-19.466-43.478-43.479-43.478s-43.479 19.466-43.479 43.478h-95.651c0 23.641 20.594 42.808 44.235 42.808h-1.424c0 23.643 19.164 42.811 42.809 42.811 0 20.933 15.034 38.327 34.889 42.045l-.111.25h37.465l-.111-.25c19.856-3.72 34.889-21.113 34.889-42.045 23.644 0 42.809-19.168 42.809-42.811h-1.426c23.641 0 44.236-19.167 44.236-42.808z"/><path d="m236.887 302.324-26.958 60.863c14.224 5.782 29.771 8.996 46.072 8.996s31.848-3.213 46.071-8.996l-26.957-60.863z"/></g><path d="m200.348 200.227v74.891c0 42.598 55.652 55.652 55.652 55.652s55.652-13.054 55.652-55.652v-74.891z" fill="#f0f0f0"/><g fill="#338af3"><path d="m62.079 257.802 30.099 84.184 29.786-84.184h22.732l-43.426 111.304h-18.185l-43.737-111.304z"/><path d="m411.826 369.106v-111.304h21.633v111.304z"/></g><g fill="#d80027"><path d="m222.609 224.411v90.754c7.651 5.631 15.883 9.504 22.261 11.984v-102.738z"/><path d="m289.391 224.411v90.754c-7.651 5.631-15.883 9.504-22.261 11.984v-102.738z"/></g><path d="m200.348 200.225h111.304v35.316h-111.304z" fill="#0052b4"/><g/><g/><g/><g/><g/><g/><g/><g/><g/><g/><g/><g/><g/><g/><g/></svg>