<svg id="Layer_1" enable-background="new 0 0 512 512" viewBox="0 0 512 512" xmlns="http://www.w3.org/2000/svg"><path d="m483.574 138.616c-11.829-22.919-27.334-44.431-46.546-63.643-19.213-19.213-40.726-34.718-63.644-46.546l-180.349 164.606-164.607 180.349c11.829 22.919 27.334 44.432 46.546 63.644s40.725 34.717 63.643 46.546l180.349-164.607z" fill="#ffda44"/><path d="m74.974 437.027c10.739 10.739 22.198 20.317 34.217 28.75l356.584-356.586c-8.431-12.019-18.009-23.478-28.748-34.217-10.74-10.739-22.198-20.316-34.217-28.748l-356.584 356.584c8.431 12.017 18.008 23.478 28.748 34.217z" fill="#d80027"/><g fill="#338af3"><path d="m74.974 74.972c-80.767 80.767-96.272 202.065-46.546 298.41l344.956-344.955c-96.346-49.725-217.644-34.218-298.41 46.545z"/><path d="m437.027 437.027c80.766-80.766 96.27-202.064 46.547-298.409l-344.956 344.955c96.345 49.725 217.644 34.221 298.409-46.546z"/></g><path d="m136.426 77.905 13.814 42.517h44.704l-36.166 26.276 13.814 42.516-36.166-26.277-36.168 26.277 13.816-42.516-36.168-26.276h44.704z" fill="#ffda44"/><g/><g/><g/><g/><g/><g/><g/><g/><g/><g/><g/><g/><g/><g/><g/></svg>