<svg id="Layer_1" enable-background="new 0 0 512 512" viewBox="0 0 512 512" xmlns="http://www.w3.org/2000/svg"><path d="m512 256c0 141.384-114.616 256-256 256s-256-114.616-256-256c87.93-87.93 162.504-162.504 256-256 141.384 0 256 114.616 256 256z" fill="#d80027"/><path d="m256 256c0-141.384 0-158.052 0-256-141.384 0-256 114.616-256 256z" fill="#0052b4"/><g fill="#f0f0f0"><path d="m205.054 166.957 4.145 12.755h13.41l-10.85 7.881 4.145 12.755-10.85-7.883-10.85 7.883 4.145-12.755-10.85-7.881h13.41z"/><path d="m137.698 66.783 6.907 21.259h22.352l-18.084 13.135 6.909 21.258-18.084-13.139-18.083 13.139 6.908-21.258-18.083-13.135h22.35z"/><path d="m204.481 89.043 6.907 21.26h22.351l-18.083 13.135 6.907 21.258-18.082-13.139-18.083 13.139 6.908-21.258-18.083-13.135h22.35z"/><path d="m151.693 178.087 6.908 21.259h22.35l-18.083 13.135 6.908 21.258-18.083-13.138-18.083 13.138 6.908-21.258-18.083-13.135h22.351z"/><path d="m93.176 122.435 6.908 21.259h22.351l-18.084 13.135 6.908 21.258-18.083-13.138-18.082 13.138 6.907-21.258-18.082-13.135h22.35z"/></g><g/><g/><g/><g/><g/><g/><g/><g/><g/><g/><g/><g/><g/><g/><g/></svg>