<svg id="Layer_1" enable-background="new 0 0 512 512" viewBox="0 0 512 512" xmlns="http://www.w3.org/2000/svg"><path d="m256 512c31.314 0 61.311-5.632 89.043-15.923l11.131-240.077-11.13-240.077c-27.733-10.29-57.73-15.923-89.044-15.923s-61.311 5.633-89.043 15.923l-11.131 240.077 11.13 240.077c27.733 10.291 57.73 15.923 89.044 15.923z" fill="#f0f0f0"/><path d="m0 256c0 110.071 69.472 203.906 166.957 240.077v-480.154c-97.485 36.171-166.957 130.006-166.957 240.077z" fill="#ff9811"/><path d="m345.043 15.923v480.155c97.485-36.172 166.957-130.007 166.957-240.078s-69.472-203.906-166.957-240.077z" fill="#6da544"/><g/><g/><g/><g/><g/><g/><g/><g/><g/><g/><g/><g/><g/><g/><g/></svg>