<svg id="Layer_1" enable-background="new 0 0 512 512" viewBox="0 0 512 512" xmlns="http://www.w3.org/2000/svg"><circle cx="256" cy="256" fill="#f0f0f0" r="256"/><g fill="#ffda44"><path d="m487.497 146.603c-13.006-27.474-30.757-52.257-52.197-73.302l-179.3-17.649-179.3 17.65c-.572.561-1.13 1.135-1.696 1.702l71.6 71.6 109.396 3.341z"/><path d="m75.001 436.999c.942.942 1.882 1.885 2.838 2.813l178.161 16.536 178.159-16.536c21.661-21 39.629-45.785 52.818-73.302l-331.152-10.336c-28.493 28.494-61.357 61.356-80.824 80.825z"/></g><path d="m509.454 219.905-297.976-8.427 44.522 44.522c-13.187 13.187-32.873 32.873-44.522 44.522l297.82-7.314c1.77-12.149 2.702-24.569 2.702-37.208 0-12.254-.88-24.3-2.546-36.095z"/><path d="m256 0c-69.828 0-133.114 27.97-179.3 73.302h358.6c-46.186-45.332-109.472-73.302-179.3-73.302z" fill="#6da544"/><g fill="#d80027"><path d="m219.905 219.905h289.549c-3.653-25.879-11.169-50.513-21.957-73.302h-340.894z"/><path d="m145.49 366.51h341.488c10.914-22.772 18.55-47.409 22.321-73.302h-290.507c-28.387 28.387-52.445 52.445-73.302 73.302z"/></g><path d="m256 512c69.255 0 132.075-27.512 178.159-72.189h-356.318c46.084 44.677 108.904 72.189 178.159 72.189z" fill="#6da544"/><path d="m91.415 59.934c-5.691 4.782-11.182 9.795-16.435 15.046l181.02 181.02-181.02 181.02c5.252 5.252 10.744 10.264 16.435 15.046l196.066-196.066z"/><path d="m102.925 189.217 16.575 51.016h53.645l-43.398 31.532 16.576 51.018-43.398-31.531-43.399 31.531 16.578-51.018-43.397-31.532h53.642z" fill="#d80027"/><path d="m148.519 260.174-43.198-15.304s-3.192-29.943-3.385-30.958c-1.466-7.723-8.253-13.564-16.403-13.564-9.22 0-16.696 7.475-16.696 16.696 0 1.529.223 3.002.608 4.41l-12.112 12.193h21.536c0 22.353-16.68 22.353-16.68 44.614l9.253 22.261h55.652l9.276-22.261h-.004c.929-2.136 1.493-4.339 1.726-6.54 7.996-3.234 10.427-11.547 10.427-11.547z" fill="#ffda44"/><g/><g/><g/><g/><g/><g/><g/><g/><g/><g/><g/><g/><g/><g/><g/></svg>