<svg id="Layer_1" enable-background="new 0 0 512 512" viewBox="0 0 512 512" xmlns="http://www.w3.org/2000/svg"><path d="m138.616 28.426c-22.918 11.829-44.431 27.334-63.643 46.546-19.213 19.213-34.718 40.726-46.546 63.644l164.607 180.349 180.349 164.607c22.919-11.829 44.432-27.334 63.644-46.545 19.213-19.213 34.717-40.726 46.546-63.644l-164.607-180.35z" fill="#f0f0f0"/><path d="m437.027 437.027c10.739-10.739 20.317-22.198 28.749-34.217l-356.585-356.586c-12.019 8.431-23.478 18.009-34.217 28.748s-20.317 22.198-28.749 34.218l356.585 356.584c12.018-8.431 23.478-18.008 34.217-28.747z"/><g fill="#d80027"><path d="m74.972 437.027c80.767 80.767 202.064 96.271 298.41 46.545l-344.955-344.956c-49.725 96.346-34.218 217.644 46.545 298.411z"/><path d="m437.027 74.973c-80.767-80.766-202.064-96.27-298.41-46.547l344.955 344.958c49.726-96.346 34.222-217.645-46.545-298.411z"/></g><g/><g/><g/><g/><g/><g/><g/><g/><g/><g/><g/><g/><g/><g/><g/></svg>