<svg id="Layer_1" enable-background="new 0 0 512 512" viewBox="0 0 512 512" xmlns="http://www.w3.org/2000/svg"><path d="m12.088 178.088c-7.842 24.568-12.089 50.741-12.088 77.91-.001 27.17 4.247 53.345 12.089 77.913l243.911 11.132 243.911-11.13c7.841-24.569 12.09-50.745 12.09-77.913-.001-27.17-4.248-53.344-12.09-77.913l-243.911-11.13z" fill="#f0f0f0"/><g fill="#d80027"><path d="m499.91 178.088-243.911-11.13-243.912 11.13c-2.324 7.284-4.325 14.711-6.002 22.261h499.824c-1.675-7.551-3.675-14.979-5.999-22.261z"/><path d="m6.088 311.651c1.675 7.55 3.676 14.976 6 22.26l.024.001 243.886 11.13 243.911-11.13c2.324-7.284 4.325-14.711 6.001-22.261z"/></g><path d="m255.999 511.999c114.216 0 210.946-74.803 243.911-178.087h-487.821c32.965 103.283 129.697 178.087 243.91 178.087z" fill="#6da544"/><path d="m255.999.001c-114.214.001-210.944 74.804-243.911 178.087l487.821.001c-32.963-103.285-129.694-178.089-243.91-178.088z" fill="#338af3"/><g fill="#f0f0f0"><path d="m116.986 105.74c0-23.977 16.851-44.007 39.354-48.921-3.458-.756-7.047-1.165-10.733-1.165-27.662 0-50.087 22.424-50.087 50.087s22.423 50.087 50.087 50.087c3.686 0 7.274-.41 10.733-1.165-22.502-4.916-39.354-24.946-39.354-48.923z"/><path d="m185.944 128.507 3.39 10.435h10.972l-8.876 6.45 3.39 10.435-8.876-6.449-8.878 6.449 3.391-10.435-8.877-6.45h10.972z"/><path d="m220.964 128.507 3.391 10.435h10.972l-8.877 6.45 3.391 10.435-8.877-6.449-8.877 6.449 3.391-10.435-8.876-6.45h10.971z"/><path d="m255.985 128.507 3.39 10.435h10.973l-8.877 6.45 3.39 10.435-8.876-6.449-8.878 6.449 3.392-10.435-8.878-6.45h10.973z"/><path d="m291.006 128.507 3.391 10.435h10.971l-8.876 6.45 3.391 10.435-8.877-6.449-8.878 6.449 3.392-10.435-8.878-6.45h10.972z"/><path d="m326.026 128.507 3.391 10.435h10.972l-8.876 6.45 3.391 10.435-8.878-6.449-8.877 6.449 3.391-10.435-8.876-6.45h10.971z"/><path d="m220.964 92.08 3.391 10.434h10.972l-8.877 6.451 3.391 10.434-8.877-6.449-8.877 6.449 3.391-10.434-8.876-6.451h10.971z"/><path d="m255.985 92.08 3.39 10.434h10.973l-8.877 6.451 3.39 10.434-8.876-6.449-8.878 6.449 3.392-10.434-8.878-6.451h10.973z"/><path d="m291.006 92.08 3.391 10.434h10.971l-8.876 6.451 3.391 10.434-8.877-6.449-8.878 6.449 3.392-10.434-8.878-6.451h10.972z"/><path d="m326.026 92.08 3.391 10.434h10.972l-8.876 6.451 3.391 10.434-8.878-6.449-8.877 6.449 3.391-10.434-8.876-6.451h10.971z"/><path d="m255.985 55.652 3.39 10.436h10.973l-8.877 6.449 3.39 10.436-8.876-6.449-8.878 6.449 3.392-10.436-8.878-6.449h10.973z"/><path d="m291.006 55.652 3.391 10.436h10.971l-8.876 6.449 3.391 10.436-8.877-6.449-8.878 6.449 3.392-10.436-8.878-6.449h10.972z"/><path d="m326.026 55.652 3.391 10.436h10.972l-8.876 6.449 3.391 10.436-8.878-6.449-8.877 6.449 3.391-10.436-8.876-6.449h10.971z"/></g><g/><g/><g/><g/><g/><g/><g/><g/><g/><g/><g/><g/><g/><g/><g/></svg>