<svg id="Layer_1" enable-background="new 0 0 512 512" viewBox="0 0 512 512" xmlns="http://www.w3.org/2000/svg"><path d="m512 256c0 141.384-114.616 256-256 256s-256-114.616-256-256c11.13 0 256-33.391 256-33.391z" fill="#338af3"/><path d="m0 256c0-141.384 114.616-256 256-256s256 114.616 256 256" fill="#f0f0f0"/><path d="m357.616 176.644-101.616 101.617-101.616-101.617c-13.141 19.507-20.818 42.986-20.818 68.225v33.391c0 53.616 34.645 99.289 82.722 115.82-6.417 12.576-5.335 28.271 4.068 40.006 12.488-10.009 25.417-20.37 36.385-29.158 10.968 8.789 23.898 19.15 36.385 29.158 9.513-11.872 10.517-27.802 3.847-40.452 47.42-16.89 81.461-62.228 81.461-115.374v-33.39c.001-25.24-7.677-48.718-20.818-68.226z" fill="#6da544"/><path d="m256 367.304c-49.099 0-89.043-39.945-89.043-89.043v-33.391c0-49.099 39.945-89.043 89.043-89.043s89.043 39.945 89.043 89.043v33.391c0 49.098-39.944 89.043-89.043 89.043z" fill="#ffda44"/><path d="m311.652 278.261v-33.391c0-30.687-24.966-55.652-55.652-55.652s-55.652 24.966-55.652 55.652v33.391l55.652 11.13z" fill="#338af3"/><path d="m200.348 278.261c0 30.687 24.966 55.652 55.652 55.652s55.652-24.966 55.652-55.652z" fill="#6da544"/><path d="m322.783 155.826c0-18.441-14.95-33.391-33.391-33.391-8.555 0-16.352 3.22-22.261 8.509v-19.64h11.13v-22.261h-11.13v-11.13h-22.261v11.13h-11.13v22.261h11.13v19.64c-5.909-5.289-13.707-8.509-22.261-8.509-18.441 0-33.391 14.95-33.391 33.391 0 9.887 4.301 18.767 11.13 24.882v19.64h111.304v-19.64c6.83-6.115 11.131-14.995 11.131-24.882z" fill="#ffda44"/><g/><g/><g/><g/><g/><g/><g/><g/><g/><g/><g/><g/><g/><g/><g/></svg>