<svg id="Layer_1" enable-background="new 0 0 512 512" viewBox="0 0 512 512" xmlns="http://www.w3.org/2000/svg"><path d="m256 512c141.384 0 256-114.616 256-256 0-42.963-10.6-83.446-29.302-119l-226.999 119.3 119.301-226.998c-35.554-18.702-76.037-29.302-119-29.302-141.384 0-256 114.616-256 256 0 70.693 28.654 134.693 74.98 181.02 46.327 46.327 110.327 74.98 181.02 74.98z" fill="#0052b4"/><path d="m482.428 137.279c-11.718-22.304-26.953-43.245-45.707-61.999-18.755-18.754-39.693-33.989-61.999-45.706l-300.041 407.745z" fill="#f0f0f0"/><path d="m74.681 437.319 407.747-300.04c-11.718-22.304-26.953-43.245-45.707-61.999z" fill="#ff9811"/><path d="m222.308 150.122-31.264 14.706 16.649 30.28-33.95-6.495-4.302 34.296-23.648-25.225-23.648 25.225-4.3-34.296-33.95 6.493 16.647-30.279-31.264-14.705 31.265-14.707-16.648-30.278 33.948 6.493 4.303-34.296 23.647 25.225 23.648-25.225 4.302 34.296 33.951-6.493-16.649 30.279z" fill="#f0f0f0"/><g/><g/><g/><g/><g/><g/><g/><g/><g/><g/><g/><g/><g/><g/><g/></svg>