<svg id="Layer_1" enable-background="new 0 0 512 512" viewBox="0 0 512 512" xmlns="http://www.w3.org/2000/svg"><path d="m367.304 25.402c-33.656-16.274-71.413-25.402-111.304-25.402s-77.648 9.128-111.304 25.402l-22.261 230.598 22.261 230.598c33.656 16.274 71.413 25.402 111.304 25.402s77.648-9.128 111.304-25.402l22.261-230.598z" fill="#f0f0f0"/><g fill="#6da544"><path d="m144.696 25.411c-85.631 41.406-144.696 129.095-144.696 230.589s59.065 189.183 144.696 230.589z"/><path d="m367.304 25.411v461.178c85.631-41.406 144.696-129.096 144.696-230.589s-59.065-189.183-144.696-230.589z"/><path d="m322.783 333.913-66.783-211.478-66.783 211.478h50.087v55.652h33.392v-55.652z"/></g><g/><g/><g/><g/><g/><g/><g/><g/><g/><g/><g/><g/><g/><g/><g/></svg>