<svg id="Layer_1" enable-background="new 0 0 512 512" viewBox="0 0 512 512" xmlns="http://www.w3.org/2000/svg"><circle cx="256" cy="256" fill="#f0f0f0" r="256"/><path d="m496.076 166.957h-480.154c-10.289 27.734-15.922 57.729-15.922 89.043s5.633 61.311 15.922 89.043h480.155c10.291-27.732 15.923-57.729 15.923-89.043s-5.632-61.309-15.924-89.043z" fill="#a2001d"/><g fill="#6da544"><path d="m256.741 512c87.682 0 165.058-44.092 211.196-111.304h-422.391c46.138 67.212 123.512 111.304 211.195 111.304z"/><path d="m256.741.002c87.682 0 165.058 44.092 211.196 111.304h-422.391c46.138-67.212 123.512-111.304 211.195-111.304z"/></g><path d="m256 166.957 22.101 68.02h71.525l-57.864 42.044 22.103 68.022-57.865-42.039-57.865 42.039 22.104-68.022-57.865-42.044h71.525z" fill="#ffda44"/><g/><g/><g/><g/><g/><g/><g/><g/><g/><g/><g/><g/><g/><g/><g/></svg>