<svg id="Layer_1" enable-background="new 0 0 512 512" viewBox="0 0 512 512" xmlns="http://www.w3.org/2000/svg"><circle cx="256" cy="256" fill="#ffda44" r="256"/><g fill="#496e2d"><path d="m256 0c-.186.002-11.13 102.4-11.13 102.4h215.942c-46.705-62.177-121.06-102.4-204.812-102.4z"/><path d="m256 512c83.752 0 158.107-40.223 204.811-102.4h-409.622c46.704 62.177 121.059 102.4 204.811 102.4z"/><path d="m506.874 204.8h-262.004l11.13 102.4h250.874c3.36-16.543 5.126-33.665 5.126-51.2s-1.768-34.657-5.126-51.2z"/></g><path d="m256 307.2c0-53.426 0-247.096 0-307.2-141.384 0-256 114.616-256 256 0 17.535 1.768 34.657 5.126 51.2z" fill="#d80027"/><path d="m141.257 122.435 16.576 51.015h53.645l-43.397 31.533 16.574 51.017-43.398-31.53-43.398 31.53 16.577-51.017-43.397-31.533h53.643z" fill="#f0f0f0"/><g/><g/><g/><g/><g/><g/><g/><g/><g/><g/><g/><g/><g/><g/><g/></svg>