<svg id="Layer_1" enable-background="new 0 0 512 512" viewBox="0 0 512 512" xmlns="http://www.w3.org/2000/svg"><circle cx="256" cy="256" fill="#ffda44" r="256"/><path d="m111.713 44.522c41.085-28.086 90.763-44.522 144.287-44.522s103.202 16.436 144.287 44.522l-144.287 11.13z" fill="#a2001d"/><path d="m256 256-16.338-16.338-4.338 7.771z" fill="#0052b4"/><g fill="#496e2d"><path d="m74.98 74.98c-99.974 99.974-99.974 262.065 0 362.04 41.313-41.313 81.046-81.046 181.02-181.02z"/><path d="m437.02 74.98c99.974 99.974 99.974 262.065 0 362.04-41.313-41.313-81.046-81.046-181.02-181.02z"/></g><circle cx="256" cy="256" fill="#a2001d" r="89.043"/><g fill="#ffda44"><path d="m255.999 166.957 19.959 61.429h64.598l-52.258 37.973 19.959 61.432-52.258-37.966-52.26 37.966 19.963-61.432-52.258-37.973h64.594z"/><path d="m256 0c-.029 0-.057.002-.086.002h.171c-.028 0-.056-.002-.085-.002z"/></g><g fill="#a2001d"><path d="m256.086 0h-.171c-70.653.023-134.614 28.666-180.921 74.968h362.013c-46.308-46.302-110.269-74.945-180.921-74.968z"/><path d="m74.995 437.033c46.326 46.319 110.32 74.967 181.005 74.967s134.679-28.648 181.005-74.967z"/></g><g fill="#ffda44"><path d="m256 27.826 4.145 12.754h13.41l-10.849 7.883 4.145 12.754-10.851-7.882-10.849 7.882 4.145-12.754-10.851-7.883h13.41z"/><path d="m193.923 27.826 4.145 12.754h13.41l-10.849 7.883 4.145 12.754-10.851-7.882-10.848 7.882 4.144-12.754-10.851-7.883h13.41z"/><path d="m318.077 27.826 4.145 12.754h13.41l-10.849 7.883 4.145 12.754-10.851-7.882-10.849 7.882 4.145-12.754-10.851-7.883h13.41z"/><path d="m256 450.783 4.145 12.754h13.41l-10.849 7.883 4.145 12.754-10.851-7.883-10.849 7.883 4.145-12.754-10.851-7.883h13.41z"/><path d="m193.923 450.783 4.145 12.754h13.41l-10.849 7.883 4.145 12.754-10.851-7.883-10.848 7.883 4.144-12.754-10.851-7.883h13.41z"/><path d="m318.077 450.783 4.145 12.754h13.41l-10.849 7.883 4.145 12.754-10.851-7.883-10.849 7.883 4.145-12.754-10.851-7.883h13.41z"/><path d="m78.003 251.772c6.575 10.389 3.485 24.14-6.904 30.716-10.388 6.576-24.14 3.486-30.716-6.903-11.905-18.808-5.002-49.525-5.002-49.525s30.716 6.903 42.622 25.712z"/></g><circle cx="65.146" cy="273.085" fill="#a2001d" r="11.13"/><g/><g/><g/><g/><g/><g/><g/><g/><g/><g/><g/><g/><g/><g/><g/></svg>