<svg id="Layer_1" enable-background="new 0 0 512.001 512.001" viewBox="0 0 512.001 512.001" xmlns="http://www.w3.org/2000/svg"><path d="m437.027 437.027c96.011-96.011 99.802-249.296 11.413-349.855l-192.44 168.827-168.828 192.441c100.559 88.389 253.843 84.598 349.855-11.413z" fill="#496e2d"/><path d="m74.974 74.974c96.011-96.011 249.296-99.802 349.855-11.413l-168.829 192.442-192.438 168.826c-88.39-100.559-84.598-253.844 11.412-349.855z" fill="#0052b4"/><path d="m424.827 63.56-361.267 361.268c3.652 4.155 7.444 8.231 11.413 12.198 3.968 3.968 8.045 7.76 12.201 11.414l361.265-361.268c-3.652-4.156-7.445-8.232-11.414-12.201-3.966-3.966-8.043-7.759-12.198-11.411z" fill="#ffda44"/><g fill="#f0f0f0"><path d="m107.861 89.036 5.527 17.007h17.881l-14.466 10.509 5.525 17.007-14.467-10.511-14.467 10.511 5.527-17.007-14.467-10.509h17.882z"/><path d="m199.2 89.036 5.527 17.007h17.88l-14.466 10.509 5.526 17.007-14.467-10.511-14.467 10.511 5.527-17.007-14.467-10.509h17.881z"/><path d="m107.861 178.083 5.527 17.007h17.881l-14.466 10.51 5.525 17.007-14.467-10.511-14.467 10.511 5.527-17.007-14.467-10.51h17.882z"/><path d="m199.2 178.083 5.527 17.007h17.88l-14.466 10.51 5.526 17.007-14.467-10.511-14.467 10.511 5.527-17.007-14.467-10.51h17.881z"/><path d="m153.531 133.559 5.527 17.007h17.88l-14.466 10.51 5.526 17.007-14.467-10.511-14.467 10.511 5.526-17.007-14.467-10.51h17.882z"/></g><g/><g/><g/><g/><g/><g/><g/><g/><g/><g/><g/><g/><g/><g/><g/></svg>