<svg id="Layer_1" enable-background="new 0 0 512 512" viewBox="0 0 512 512" xmlns="http://www.w3.org/2000/svg"><path d="m496.077 345.043c10.29-27.733 15.923-57.729 15.923-89.043s-5.633-61.31-15.923-89.043l-240.077-22.261-240.077 22.261c-10.29 27.733-15.923 57.729-15.923 89.043s5.633 61.31 15.923 89.043l240.077 22.261z" fill="#f0f0f0"/><path d="m256 512c110.07 0 203.906-69.472 240.076-166.957h-480.154c36.172 97.485 130.006 166.957 240.078 166.957z" fill="#d80027"/><path d="m256 0c-110.072 0-203.906 69.472-240.078 166.957h480.155c-36.171-97.485-130.007-166.957-240.077-166.957z" fill="#496e2d"/><path d="m256 200.348 13.813 42.513h44.703l-36.165 26.277 13.815 42.514-36.166-26.273-36.166 26.273 13.815-42.514-36.165-26.277h44.703z"/><g fill="#f0f0f0"><path d="m332.058 50.087v51.941c0 8.185-6.657 14.841-14.84 14.841v22.261c20.458 0 37.101-16.643 37.101-37.102v-51.941z"/><path d="m172.522 102.028c0 8.185-6.657 14.841-14.841 14.841v22.261c20.459 0 37.102-16.643 37.102-37.102v-51.941h-22.261z"/><path d="m298.663 50.087h22.261v51.941h-22.261z"/><path d="m265.275 79.767c0 2.046-1.665 3.711-3.71 3.711-2.046 0-3.711-1.665-3.711-3.711v-29.68h-22.261v29.68c0 2.046-1.664 3.711-3.71 3.711s-3.71-1.665-3.71-3.711v-29.68h-22.261v29.68c0 14.322 11.65 25.972 25.971 25.972 5.515 0 10.631-1.733 14.84-4.676 4.211 2.943 9.326 4.676 14.841 4.676 1.111 0 2.203-.078 3.277-.215-1.578 6.499-7.431 11.345-14.407 11.345v22.261c20.458 0 37.101-16.643 37.101-37.102v-22.261-29.68h-22.261z"/><path d="m205.913 116.87h33.391v22.261h-33.391z"/></g><g/><g/><g/><g/><g/><g/><g/><g/><g/><g/><g/><g/><g/><g/><g/></svg>