<svg id="Layer_1" enable-background="new 0 0 512 512" viewBox="0 0 512 512" xmlns="http://www.w3.org/2000/svg"><circle cx="256" cy="256" fill="#ffda44" r="256"/><path d="m411.826 122.435c-2.296 11.035-3.339 22.788-3.339 34.504 0 67.534 40.259 125.985 97.954 152.298 3.633-17.176 5.559-34.981 5.559-53.237 0-141.384-114.616-256-256-256s-256 114.616-256 256 114.616 256 256 256c87.682 0 165.058-44.092 211.196-111.304h-322.5v-33.391h341.902c3.499-7.236 6.66-14.665 9.48-22.261h-351.382z" fill="#0052b4"/><g fill="#f0f0f0"><path d="m188.072 133.565 5.526 17.006h17.88l-14.465 10.511 5.526 17.005-14.467-10.509-14.465 10.509 5.525-17.005-14.467-10.511h17.881z"/><path d="m115.438 256 6.908 21.259h22.35l-18.083 13.135 6.908 21.258-18.083-13.138-18.082 13.138 6.907-21.258-18.082-13.135h22.35z"/><path d="m115.438 77.913 6.908 21.259h22.35l-18.083 13.135 6.908 21.258-18.083-13.138-18.082 13.138 6.907-21.258-18.082-13.135h22.35z"/><path d="m59.786 178.087 6.908 21.259h22.349l-18.082 13.135 6.908 21.258-18.083-13.138-18.082 13.138 6.907-21.258-18.082-13.135h22.349z"/></g><g/><g/><g/><g/><g/><g/><g/><g/><g/><g/><g/><g/><g/><g/><g/></svg>