<svg id="Layer_1" enable-background="new 0 0 512 512" viewBox="0 0 512 512" xmlns="http://www.w3.org/2000/svg"><circle cx="256" cy="256" fill="#0052b4" r="256"/><g fill="#f0f0f0"><path d="m112.449 155.827 5.526 17.008h17.88l-14.465 10.509 5.525 17.005-14.466-10.509-14.467 10.509 5.527-17.005-14.466-10.509h17.879z"/><path d="m168.101 139.132 5.526 17.007h17.88l-14.465 10.509 5.525 17.005-14.466-10.509-14.466 10.509 5.526-17.005-14.465-10.509h17.88z"/><path d="m223.753 122.436 5.526 17.007h17.88l-14.465 10.51 5.525 17.005-14.466-10.51-14.466 10.51 5.526-17.005-14.465-10.51h17.88z"/><path d="m399.551 155.827-5.526 17.008h-17.88l14.466 10.509-5.526 17.005 14.466-10.509 14.467 10.509-5.527-17.005 14.466-10.509h-17.88z"/><path d="m343.899 139.132-5.526 17.007h-17.88l14.466 10.509-5.526 17.005 14.466-10.509 14.466 10.509-5.526-17.005 14.465-10.509h-17.88z"/><path d="m288.247 122.436-5.526 17.007h-17.88l14.465 10.51-5.525 17.005 14.466-10.51 14.466 10.51-5.526-17.005 14.465-10.51h-17.88z"/></g><path d="m300.522 267.13-44.522-55.652-22.261 11.13v22.261l-33.391 22.261h-22.261v28.759c32.628 13.212 55.652 45.181 55.652 82.546h22.261v-22.261l22.261-22.261 22.261 22.261 22.261-22.261v-22.261l22.261-33.391z" fill="#ffda44"/><g/><g/><g/><g/><g/><g/><g/><g/><g/><g/><g/><g/><g/><g/><g/></svg>