<svg id="Layer_1" enable-background="new 0 0 512 512" viewBox="0 0 512 512" xmlns="http://www.w3.org/2000/svg"><path d="m.001 44.522h-.001v422.956h.001v-211.477z" fill="#ff9811"/><circle cx="255.999" cy="256" fill="#f0f0f0" r="255.999"/><g fill="#0052b4"><path d="m256.001.002c-83.752 0-158.106 40.223-204.811 102.4h409.621c-46.704-62.178-121.059-102.4-204.81-102.4z"/><path d="m256.001 511.999c83.752 0 158.106-40.223 204.811-102.4h-409.622c46.704 62.178 121.059 102.4 204.811 102.4z"/><path d="m.001 256.001c0 17.535 1.768 34.657 5.127 51.2h501.747c3.359-16.543 5.126-33.665 5.126-51.2s-1.768-34.657-5.126-51.2h-501.747c-3.359 16.543-5.127 33.665-5.127 51.2z"/></g><path d="m74.981 74.982c-99.973 99.973-99.973 262.064 0 362.039 41.313-41.313 81.045-81.046 181.019-181.019z" fill="#d80027"/><path d="m103.611 189.219 16.574 51.015h53.646l-43.397 31.532 16.574 51.016-43.397-31.53-43.399 31.53 16.578-51.016-43.398-31.532h53.642z" fill="#f0f0f0"/><g/><g/><g/><g/><g/><g/><g/><g/><g/><g/><g/><g/><g/><g/><g/></svg>