<svg id="Layer_1" enable-background="new 0 0 512 512" viewBox="0 0 512 512" xmlns="http://www.w3.org/2000/svg"><path d="m0 256c0-141.384 114.616-256 256-256s256 114.616 256 256z" fill="#f0f0f0"/><g fill="#0052b4"><path d="m189.217 242.005-13.995 13.995h13.995z"/><path d="m322.783 242.006v13.994h13.994z"/><path d="m7.386 194.784c-4.815 19.616-7.386 40.115-7.386 61.216h80.777l61.216-61.216z"/><path d="m370.005 194.784 61.216 61.216h80.779c0-21.101-2.572-41.6-7.386-61.216z"/></g><g fill="#d80027"><path d="m354.264 194.784h-31.481l61.216 61.216h31.482z"/><path d="m189.217 226.263v-31.479h-.002l-61.216 61.216h31.482z"/></g><g fill="#0052b4"><path d="m119.922 39.142c-10.552 6.636-20.585 14.018-30.026 22.075h52.1z"/><path d="m422.104 61.217c-9.441-8.058-19.473-15.44-30.024-22.075l-22.074 22.075z"/></g><g fill="#d80027"><path d="m289.391 161.391h204.55c-9.678-24.319-22.98-46.797-39.233-66.783h-165.316-.001v-92.441c-10.93-1.423-22.074-2.167-33.391-2.167-11.319 0-22.461.744-33.391 2.167v92.44.001h-165.317c-16.253 19.986-29.555 42.464-39.233 66.783h204.548.001v94.609h66.783v-94.608z"/><path d="m189.217 61.217v-.001l-38.593-38.593c-7.135 3.227-14.089 6.782-20.856 10.625l27.969 27.969z"/><path d="m322.783 61.217 38.594-38.593c-7.341-3.319-14.868-6.295-22.558-8.924l-16.036 16.037z"/></g><path d="m512 256c0 141.384-114.616 256-256 256s-256-114.616-256-256z" fill="#f0f0f0"/><g fill="#0052b4"><path d="m469.33 288.65c-21.333 0-21.333-19.506-42.667-19.506-21.333 0-21.333 19.506-42.665 19.506s-21.333-19.506-42.665-19.506c-21.333 0-21.333 19.506-42.667 19.506s-21.335-19.506-42.67-19.506c-21.333 0-21.333 19.506-42.665 19.506-21.33 0-21.33-19.506-42.663-19.506-21.335 0-21.335 19.506-42.67 19.506s-21.335-19.506-42.67-19.506c-21.33 0-21.33 19.506-42.663 19.506-21.218 0-21.341-19.291-42.332-19.497.591 11.71 1.989 23.206 4.103 34.448 17.004 2.499 18.493 19.182 38.23 19.182 21.333 0 21.333-19.504 42.663-19.504 21.335 0 21.335 19.504 42.67 19.504s21.335-19.504 42.67-19.504c21.333 0 21.333 19.504 42.663 19.504 21.333 0 21.333-19.504 42.665-19.504 21.335 0 21.335 19.504 42.67 19.504s21.335-19.504 42.667-19.504c21.333 0 21.333 19.504 42.665 19.504s21.333-19.504 42.665-19.504c21.335 0 21.335 19.504 42.667 19.504 19.739 0 21.228-16.682 38.233-19.181 2.115-11.243 3.511-22.738 4.105-34.448-20.995.207-21.12 19.496-42.339 19.496z"/><path d="m426.663 335.927c-21.333 0-21.333 19.506-42.665 19.506s-21.333-19.506-42.665-19.506c-21.333 0-21.333 19.506-42.667 19.506-21.335 0-21.335-19.506-42.67-19.506-21.333 0-21.333 19.506-42.665 19.506-21.33 0-21.33-19.506-42.663-19.506-21.335 0-21.335 19.506-42.67 19.506s-21.335-19.506-42.67-19.506c-21.33 0-21.33 19.506-42.663 19.506-15.243 0-19.597-9.956-28.622-15.644 6.008 17.359 13.824 33.872 23.237 49.308 1.637.302 3.419.469 5.385.469 21.333 0 21.333-19.504 42.663-19.504 21.335 0 21.335 19.504 42.67 19.504s21.335-19.504 42.67-19.504c21.333 0 21.333 19.504 42.663 19.504 21.333 0 21.333-19.504 42.665-19.504 21.335 0 21.335 19.504 42.67 19.504s21.335-19.504 42.667-19.504c21.333 0 21.333 19.504 42.665 19.504s21.333-19.504 42.665-19.504c21.335 0 21.335 19.504 42.667 19.504 1.967 0 3.75-.167 5.387-.47 9.413-15.435 17.229-31.948 23.239-49.306-9.026 5.685-13.38 15.643-28.626 15.643-21.332 0-21.332-19.506-42.667-19.506z"/></g><g fill="#f0f0f0"><path d="m511.862 247.957c.022.711.047 1.422.063 2.136-.016-.713-.042-1.425-.063-2.136z"/><path d="m.075 250.092c.017-.713.041-1.424.063-2.136-.021.712-.047 1.424-.063 2.136z"/><path d="m0 256c0-1.975.03-3.942.075-5.908-.046 1.966-.075 3.933-.075 5.908z"/><path d="m0 256c0 4.663.132 9.296.381 13.897 20.943.235 21.082 19.494 42.285 19.494 21.333 0 21.333-19.504 42.663-19.504 21.335 0 21.335 19.504 42.67 19.504s21.335-19.504 42.67-19.504c21.333 0 21.333 19.504 42.663 19.504 21.333 0 21.333-19.504 42.665-19.504 21.335 0 21.335 19.504 42.67 19.504s21.335-19.504 42.667-19.504c21.333 0 21.333 19.504 42.665 19.504s21.333-19.504 42.665-19.504c21.335 0 21.335 19.504 42.667 19.504 21.205 0 21.344-19.259 42.291-19.494.246-4.602.378-9.234.378-13.897z"/><path d="m511.925 250.092c.045 1.964.075 3.932.075 5.908 0-1.975-.029-3.942-.075-5.908z"/></g><path d="m426.663 402.709c-21.333 0-21.333 19.506-42.665 19.506s-21.333-19.506-42.665-19.506c-21.333 0-21.333 19.506-42.667 19.506-21.335 0-21.335-19.506-42.67-19.506-21.333 0-21.333 19.506-42.665 19.506-21.33 0-21.33-19.506-42.663-19.506-21.335 0-21.335 19.506-42.67 19.506s-21.335-19.506-42.67-19.506c-14.734 0-19.293 9.304-27.733 15.061 22.389 27.426 50.359 50.11 82.164 66.352l116.241-5.856 116.24 5.855c31.804-16.243 59.774-38.924 82.163-66.35-8.444-5.756-13.003-15.062-27.74-15.062z" fill="#0052b4"/><path d="m397.983 408.814-77.875 14.895-9.866-78.665-54.242 57.855-54.24-57.856-9.87 78.665-77.871-14.895 38.189 69.452-12.472 5.866c34.888 17.818 74.401 27.869 116.264 27.869s81.376-10.051 116.264-27.867l-12.467-5.865z" fill="#ffda44"/><g/><g/><g/><g/><g/><g/><g/><g/><g/><g/><g/><g/><g/><g/><g/></svg>