<svg id="Layer_1" enable-background="new 0 0 512 512" viewBox="0 0 512 512" xmlns="http://www.w3.org/2000/svg"><path d="m367.304 25.402c-33.656-16.274-71.414-25.402-111.304-25.402s-77.648 9.128-111.304 25.402l-22.261 230.598 22.261 230.598c33.656 16.274 71.414 25.402 111.304 25.402s77.648-9.128 111.304-25.402l22.261-230.598z" fill="#d80027"/><path d="m144.696 25.411c-85.63 41.407-144.696 129.096-144.696 230.589s59.066 189.182 144.696 230.589z"/><path d="m367.304 25.411v461.178c85.63-41.407 144.696-129.096 144.696-230.589s-59.066-189.182-144.696-230.589z" fill="#496e2d"/><g fill="#ffda44"><path d="m256 166.957c-49.178 0-89.043 39.866-89.043 89.043s39.866 89.043 89.043 89.043 89.043-39.866 89.043-89.043-39.865-89.043-89.043-89.043zm0 144.695c-30.736 0-55.652-24.917-55.652-55.652s24.917-55.652 55.652-55.652 55.652 24.917 55.652 55.652-24.916 55.652-55.652 55.652z"/><path d="m256 222.609c-12.295 0-22.261 9.966-22.261 22.261v33.391h44.522v-33.391c0-12.295-9.966-22.261-22.261-22.261z"/></g><g/><g/><g/><g/><g/><g/><g/><g/><g/><g/><g/><g/><g/><g/><g/></svg>