<svg id="Layer_1" enable-background="new 0 0 512 512" viewBox="0 0 512 512" xmlns="http://www.w3.org/2000/svg"><circle cx="256" cy="256" fill="#f0f0f0" r="256"/><path d="m256 0c-70.693 0-134.693 28.654-181.02 74.98l181.02 181.02z"/><path d="m0 256c0 70.693 28.654 134.693 74.98 181.02l181.02-181.02z"/><path d="m256 512c70.693 0 134.693-28.654 181.02-74.98l-181.02-181.02z"/><path d="m512 256c0-70.693-28.654-134.693-74.98-181.02l-181.02 181.02z"/><path d="m166.957 178.087 89.043 11.133 89.043-11.133v-53.426l-35.617 17.809-53.426-53.427-53.426 53.427-35.617-17.809z" fill="#ffda44"/><path d="m256 389.565c-49.099 0-89.043-39.945-89.043-89.043v-89.039l33.391-33.394h111.304l33.391 33.394v89.039c0 49.098-39.944 89.043-89.043 89.043z" fill="#d80027"/><path d="m256 356.174c-30.687 0-55.652-24.966-55.652-55.652v-89.042h111.304v89.041c0 30.687-24.965 55.653-55.652 55.653z" fill="#f0f0f0"/><g fill="#ffda44"><path d="m166.957 178.087h33.391v33.391h-33.391z"/><path d="m311.652 178.087h33.391v33.391h-33.391z"/><path d="m311.652 250.435h33.391v33.391h-33.391z"/><path d="m166.957 250.435h33.391v33.391h-33.391z"/><path d="m256 356.174c-5.816 0-11.423-.9-16.696-2.562v34.361c5.412 1.032 10.988 1.593 16.696 1.593s11.284-.561 16.696-1.593v-34.361c-5.273 1.661-10.88 2.562-16.696 2.562z"/><path d="m201.092 309.556-26.648 26.648c4.62 10.519 11.212 19.978 19.314 27.908l23.6-23.6c-8.422-8.137-14.289-18.897-16.266-30.956z"/><path d="m337.556 336.206-26.648-26.648c-1.978 12.058-7.844 22.817-16.265 30.957l23.6 23.6c8.1-7.931 14.693-17.39 19.313-27.909z"/></g><g fill="#0052b4"><path d="m244.87 230.03v18.55c0 6.146 4.983 11.13 11.13 11.13s11.13-4.984 11.13-11.13v-18.55z"/><path d="m244.87 304.233v18.55c0 6.146 4.983 11.13 11.13 11.13s11.13-4.984 11.13-11.13v-18.55z"/><path d="m278.261 267.13v18.552c0 6.146 4.983 11.13 11.13 11.13s11.13-4.984 11.13-11.13v-18.552z"/><path d="m244.87 267.13v18.552c0 6.146 4.983 11.13 11.13 11.13s11.13-4.984 11.13-11.13v-18.552z"/><path d="m211.478 267.13v18.552c0 6.146 4.983 11.13 11.13 11.13s11.13-4.984 11.13-11.13v-18.552z"/></g><g/><g/><g/><g/><g/><g/><g/><g/><g/><g/><g/><g/><g/><g/><g/></svg>