<svg id="Layer_1" enable-background="new 0 0 512 512" viewBox="0 0 512 512" xmlns="http://www.w3.org/2000/svg"><path d="m512 256c0 141.384-114.616 256-256 256s-256-114.616-256-256c0 .061 256-255.972 256-256 141.384 0 256 114.616 256 256z" fill="#0052b4"/><g fill="#f0f0f0"><path d="m256 0c-.016 0-.028 0-.043 0z"/><path d="m255.315 256h.685c0-.23 0-.454 0-.685-.228.229-.456.457-.685.685z"/><path d="m256 133.565c0-45.045 0-74.56 0-133.565h-.043c-141.366.024-255.957 114.629-255.957 256h133.565v-75.211l75.211 75.211h46.54c.228-.228.456-.456.685-.685 0-17.247 0-32.636 0-46.537l-75.213-75.213z"/></g><g fill="#d80027"><path d="m129.515 33.391c-40.039 22.799-73.326 56.085-96.124 96.124v126.485h66.783v-155.824-.002h155.826c0-21.063 0-41.129 0-66.783z"/><path d="m256 224.519-90.955-90.953h-31.48v.002l122.433 122.432h.002s0-21.707 0-31.481z"/></g><g fill="#496e2d"><path d=""/><path d=""/></g><g fill="#f0f0f0"><path d="m345.043 256 4.738 14.576h15.325l-12.398 9.008 4.736 14.577-12.401-9.009-12.399 9.009 4.736-14.577-12.398-9.008h15.325z"/><path d="m282.081 282.081 13.655 6.957 10.838-10.837-2.398 15.138 13.656 6.958-15.138 2.396-2.397 15.14-6.959-13.657-15.137 2.398 10.839-10.837z"/><path d="m256 345.043 14.576-4.736.002-15.324 9.006 12.397 14.577-4.737-9.009 12.4 9.009 12.401-14.577-4.736-9.006 12.398v-15.325z"/><path d="m282.081 408.006 6.957-13.656-10.837-10.836 15.138 2.397 6.958-13.656 2.397 15.138 15.138 2.396-13.656 6.959 2.398 15.139-10.838-10.84z"/><path d="m345.043 434.087-4.736-14.577h-15.326l12.399-9.008-4.736-14.576 12.399 9.008 12.401-9.008-4.736 14.576 12.398 9.008h-15.325z"/><path d="m408.006 408.006-13.656-6.956-10.836 10.837 2.397-15.139-13.656-6.957 15.138-2.398 2.398-15.138 6.957 13.656 15.138-2.397-10.839 10.837z"/><path d="m434.087 345.043-14.577 4.738v15.325l-9.008-12.399-14.576 4.737 9.009-12.401-9.009-12.4 14.576 4.737 9.008-12.397v15.324z"/><path d="m408.006 282.082-6.956 13.655 10.836 10.837-15.138-2.398-6.957 13.657-2.398-15.14-15.138-2.397 13.656-6.957-2.397-15.137 10.837 10.836z"/></g><g/><g/><g/><g/><g/><g/><g/><g/><g/><g/><g/><g/><g/><g/><g/></svg>