<svg id="Layer_1" enable-background="new 0 0 512 512" viewBox="0 0 512 512" xmlns="http://www.w3.org/2000/svg"><path d="m512 256c0 141.384-114.616 256-256 256s-256-114.616-256-256c0 .061 256-255.972 256-256 141.384 0 256 114.616 256 256z" fill="#0052b4"/><g fill="#f0f0f0"><path d="m256 0c-.014 0-.029 0-.043 0z"/><path d="m255.315 256h.685c0-.23 0-.454 0-.685-.228.229-.456.457-.685.685z"/><path d="m256 133.565c0-45.045 0-74.56 0-133.565h-.043c-141.365.024-255.957 114.629-255.957 256h133.565v-75.211l75.212 75.211h46.539c.228-.228.457-.456.685-.685 0-17.247 0-32.636 0-46.537l-75.213-75.213z"/></g><g fill="#d80027"><path d="m129.515 33.391c-40.039 22.799-73.325 56.085-96.124 96.124v126.485h66.783v-155.824-.002h155.826c0-21.063 0-41.129 0-66.783z"/><path d="m256 224.519-90.953-90.953s-31.481.002-31.481 0v.002l122.433 122.432h.001s0-21.707 0-31.481z"/><path d="m443.33 189.959 5.525 17.006h17.881l-14.466 10.51 5.526 17.005-14.466-10.509-14.467 10.509 5.526-17.005-14.467-10.51h17.881z"/><path d="m379.411 312.393 8.289 25.51h26.821l-21.7 15.764 8.29 25.509-21.7-15.765-21.7 15.765 8.29-25.509-21.7-15.764h26.821z"/><path d="m381.825 112.046 6.908 21.259h22.351l-18.084 13.135 6.908 21.258-18.083-13.139-18.082 13.139 6.907-21.258-18.082-13.135h22.35z"/><path d="m320.322 189.217 8.288 25.51h26.822l-21.7 15.764 8.29 25.509-21.7-15.765-21.7 15.765 8.29-25.509-21.7-15.764h26.821z"/></g><g/><g/><g/><g/><g/><g/><g/><g/><g/><g/><g/><g/><g/><g/><g/></svg>