<svg id="Layer_1" enable-background="new 0 0 512 512" viewBox="0 0 512 512" xmlns="http://www.w3.org/2000/svg"><circle cx="256" cy="256" fill="#f0f0f0" r="256"/><path d="m0 256c0 141.384 114.616 256 256 256 0-97.355 0-256 0-256s-166.957 0-256 0z" fill="#0052b4"/><path d="m256 0c141.384 0 256 114.616 256 256-97.355 0-256 0-256 0s0-166.957 0-256z" fill="#d80027"/><path d="m152.389 89.043 16.577 51.018h53.643l-43.398 31.53 16.576 51.018-43.398-31.531-43.398 31.531 16.576-51.018-43.398-31.53h53.643z" fill="#0052b4"/><path d="m359.611 289.391 16.577 51.018h53.643l-43.399 31.53 16.577 51.018-43.398-31.531-43.398 31.531 16.576-51.018-43.398-31.53h53.643z" fill="#d80027"/><g/><g/><g/><g/><g/><g/><g/><g/><g/><g/><g/><g/><g/><g/><g/></svg>