<svg id="Layer_1" enable-background="new 0 0 512 512" viewBox="0 0 512 512" xmlns="http://www.w3.org/2000/svg"><circle cx="256" cy="256" fill="#d80027" r="256"/><circle cx="256" cy="256" fill="#f0f0f0" r="122.435"/><g fill="#d80027"><path d="m271.083 209.186 21.004 28.945 34.017-11.03-21.037 28.92 21.002 28.944-34.006-11.072-21.037 28.92.022-35.761-34.005-11.072 34.018-11.03z"/><path d="m283.826 328.348c-39.956 0-72.348-32.392-72.348-72.348s32.392-72.348 72.348-72.348c12.458 0 24.181 3.15 34.415 8.696-16.055-15.701-38.01-25.392-62.241-25.392-49.176 0-89.043 39.866-89.043 89.043s39.867 89.043 89.043 89.043c24.231 0 46.187-9.691 62.241-25.392-10.234 5.548-21.957 8.698-34.415 8.698z"/></g><g/><g/><g/><g/><g/><g/><g/><g/><g/><g/><g/><g/><g/><g/><g/></svg>