<svg id="Layer_1" enable-background="new 0 0 512 512" viewBox="0 0 512 512" xmlns="http://www.w3.org/2000/svg"><circle cx="256" cy="256" fill="#0052b4" r="256"/><g fill="#ffda44"><path d="m256.001 100.174 8.289 25.509h26.82l-21.699 15.765 8.289 25.509-21.699-15.766-21.7 15.766 8.289-25.509-21.699-15.765h26.821z"/><path d="m145.814 145.814 23.9 12.176 18.965-18.964-4.197 26.49 23.899 12.177-26.491 4.196-4.196 26.492-12.177-23.899-26.49 4.197 18.965-18.965z"/><path d="m100.175 256 25.509-8.289v-26.821l15.764 21.7 25.51-8.289-15.767 21.699 15.767 21.699-25.51-8.288-15.764 21.699v-26.821z"/><path d="m145.814 366.186 12.177-23.9-18.964-18.965 26.491 4.198 12.175-23.899 4.197 26.491 26.49 4.196-23.896 12.177 4.195 26.49-18.965-18.965z"/><path d="m256.001 411.826-8.29-25.509h-26.82l21.7-15.765-8.29-25.507 21.7 15.764 21.699-15.764-8.289 25.507 21.699 15.765h-26.821z"/><path d="m366.187 366.186-23.899-12.176-18.966 18.965 4.197-26.492-23.897-12.176 26.49-4.196 4.196-26.491 12.176 23.899 26.49-4.198-18.965 18.967z"/><path d="m411.826 256-25.509 8.289v26.821l-15.765-21.7-25.507 8.289 15.765-21.699-15.765-21.699 25.508 8.289 15.764-21.7v26.822z"/><path d="m366.187 145.814-12.177 23.9 18.965 18.965-26.492-4.198-12.175 23.899-4.196-26.491-26.49-4.197 23.897-12.176-4.197-26.489 18.967 18.964z"/></g><g/><g/><g/><g/><g/><g/><g/><g/><g/><g/><g/><g/><g/><g/><g/></svg>