<svg id="Layer_1" enable-background="new 0 0 512 512" viewBox="0 0 512 512" xmlns="http://www.w3.org/2000/svg"><path d="m446.793 426.666c40.543-45.292 65.207-105.094 65.207-170.666s-24.665-125.375-65.208-170.667l-190.792-18.55-190.792 18.55c-40.543 45.292-65.208 105.095-65.208 170.667s24.664 125.374 65.207 170.666l190.793 18.551z" fill="#ffda44"/><path d="m65.208 85.333h381.585c-46.875-52.367-114.98-85.333-190.793-85.333s-143.918 32.966-190.792 85.333z"/><path d="m0 256 256 22.261 256-22.261c0-29.924-5.151-58.642-14.588-85.334h-482.824c-9.437 26.692-14.588 55.41-14.588 85.334z" fill="#d80027"/><path d="m14.588 341.333h482.826c9.435-26.692 14.586-55.409 14.586-85.333h-512c0 29.924 5.151 58.641 14.588 85.333z"/><path d="m446.793 426.666h-381.586c46.874 52.368 114.979 85.334 190.793 85.334s143.919-32.966 190.793-85.334z" fill="#d80027"/><path d="m341.426 256c0 47.183-38.243 85.426-85.426 85.426s-85.426-38.243-85.426-85.426 38.243-85.426 85.426-85.426 85.426 38.243 85.426 85.426z" fill="#f0f0f0"/><path d="m287.295 260.356-31.295-13.561s7.322-24.303 7.712-25.966c.285-1.215.437-2.482.437-3.784 0-4.611-1.869-8.785-4.891-11.805l7.87-7.87c-5.035-5.035-11.992-8.15-19.676-8.15s-14.641 3.114-19.676 8.15l7.87 7.87c-3.022 3.021-4.89 7.195-4.89 11.805 0 1.686.255 3.311.72 4.846l-11.849 11.848h21.536s-8.904 13.374-13.765 24.357c-4.861 10.982.067 24.389 11.301 29.383l6.496 2.887 10.805 10.156v11.13l-11.13 11.13h22.261v-22.261l10.157-10.157h21.008c.101-.209.207-.413.303-.627 4.991-11.233-.069-24.389-11.304-29.381z"/><g/><g/><g/><g/><g/><g/><g/><g/><g/><g/><g/><g/><g/><g/><g/></svg>